<svg width="54" height="58" viewBox="0 0 54 58" fill="none" xmlns="http://www.w3.org/2000/svg">
<path d="M0.460938 43.5625V14.4219C0.460938 9.94271 1.61979 6.47917 3.9375 4.03125C6.25521 1.58333 9.5625 0.359375 13.8594 0.359375C18.1562 0.359375 21.4505 1.58333 23.7422 4.03125C26.0599 6.47917 27.2188 9.94271 27.2188 14.4219V43.5625C27.2188 48.0417 26.0599 51.5052 23.7422 53.9531C21.4505 56.401 18.1562 57.625 13.8594 57.625C9.5625 57.625 6.25521 56.401 3.9375 53.9531C1.61979 51.5052 0.460938 48.0417 0.460938 43.5625ZM9.28906 44.1094C9.28906 47.8073 10.8125 49.6562 13.8594 49.6562C16.8802 49.6562 18.3906 47.8073 18.3906 44.1094V13.875C18.3906 10.2031 16.8802 8.36719 13.8594 8.36719C10.8125 8.36719 9.28906 10.2031 9.28906 13.875V44.1094Z" fill="#CEE4EA"/>
<path d="M38.3516 14.2656V8.05469C39.6536 8.05469 40.8125 7.92448 41.8281 7.66406C42.8438 7.3776 43.6641 7.05208 44.2891 6.6875C44.9141 6.29688 45.474 5.76302 45.9688 5.08594C46.4896 4.38281 46.8802 3.75781 47.1406 3.21094C47.401 2.63802 47.7005 1.89583 48.0391 0.984375H53.9766V57H45.1484V14.2656H38.3516Z" fill="#CEE4EA"/>
</svg>
