<svg width="60" height="58" viewBox="0 0 60 58" fill="none" xmlns="http://www.w3.org/2000/svg">
<path d="M9.27998 13.8801C9.27998 9.8801 11.04 8.3601 13.84 8.3601C16.64 8.3601 18.4 9.8801 18.4 13.8801V44.1201C18.4 48.1201 16.64 49.6401 13.84 49.6401C11.04 49.6401 9.27998 48.1201 9.27998 44.1201V13.8801ZM0.47998 43.5601C0.47998 52.5201 5.19998 57.6401 13.84 57.6401C22.48 57.6401 27.2 52.5201 27.2 43.5601V14.4401C27.2 5.4801 22.48 0.360107 13.84 0.360107C5.19998 0.360107 0.47998 5.4801 0.47998 14.4401V43.5601Z" fill="#CEE4EA"/>
<path d="M50.3587 14.7601C50.3587 30.9201 32.9187 33.6401 32.9187 50.1201V57.0001H58.3587V49.0001H41.7187C41.6387 48.6001 41.6387 48.2001 41.6387 47.8001C41.6387 38.6001 59.1587 32.0401 59.1587 14.4401C59.1587 5.4801 54.6787 0.360107 46.0387 0.360107C37.3987 0.360107 32.9187 5.4801 32.9187 14.4401V19.8801H41.2387V13.8801C41.2387 9.8801 42.9987 8.3601 45.7987 8.3601C48.5987 8.3601 50.3587 9.72011 50.3587 14.7601Z" fill="#CEE4EA"/>
</svg>
