<svg width="59" height="58" viewBox="0 0 59 58" fill="none" xmlns="http://www.w3.org/2000/svg">
<path d="M9.27998 13.8801C9.27998 9.8801 11.04 8.3601 13.84 8.3601C16.64 8.3601 18.4 9.8801 18.4 13.8801V44.1201C18.4 48.1201 16.64 49.6401 13.84 49.6401C11.04 49.6401 9.27998 48.1201 9.27998 44.1201V13.8801ZM0.47998 43.5601C0.47998 52.5201 5.19998 57.6401 13.84 57.6401C22.48 57.6401 27.2 52.5201 27.2 43.5601V14.4401C27.2 5.4801 22.48 0.360107 13.84 0.360107C5.19998 0.360107 0.47998 5.4801 0.47998 14.4401V43.5601Z" fill="#CEE4EA"/>
<path d="M49.8787 17.8801C49.8787 22.3601 47.8787 23.8001 44.5987 23.8001H41.1587V31.8001H44.1187C48.1187 31.8001 49.8787 33.7201 49.8787 38.9201V43.3201C49.8787 48.2801 48.1187 49.6401 45.3187 49.6401C42.5187 49.6401 40.7587 48.1201 40.7587 44.1201V38.9201H32.4387V43.5601C32.4387 52.5201 36.9187 57.6401 45.5587 57.6401C54.1987 57.6401 58.6787 52.5201 58.6787 43.5601V39.1601C58.6787 33.4801 56.9187 29.3201 52.5187 27.4001C56.7587 25.6401 58.6787 21.8801 58.6787 15.8801V14.4401C58.6787 5.4801 54.1987 0.360107 45.5587 0.360107C36.9187 0.360107 32.4387 5.4801 32.4387 14.4401V17.4801H40.7587V13.8801C40.7587 9.8801 42.5187 8.3601 45.3187 8.3601C48.1187 8.3601 49.8787 9.72011 49.8787 14.7601V17.8801Z" fill="#CEE4EA"/>
</svg>
