<svg id="Слой_1" data-name="Слой 1" xmlns="http://www.w3.org/2000/svg" viewBox="0 0 67.68 68.75"><defs><style>.cls-1{fill:#0071b3;}</style></defs><title>adaptability</title><g id="transform-adaptation-change-reform-rebrand"><path class="cls-1" d="M34.39,20.34a9.67,9.67,0,1,0-9.66-9.67A9.68,9.68,0,0,0,34.39,20.34Zm0-17.19a7.52,7.52,0,1,1-7.52,7.52A7.52,7.52,0,0,1,34.39,3.15Z" transform="translate(-1.09 -1)"/><path class="cls-1" d="M22.43,56.33a1.08,1.08,0,0,0,0-1.07L12.77,38.07a1.11,1.11,0,0,0-1.87,0L1.23,55.26a1.07,1.07,0,0,0,.94,1.6H21.5A1.06,1.06,0,0,0,22.43,56.33ZM4,54.71l7.84-13.92,7.83,13.92Z" transform="translate(-1.09 -1)"/><path class="cls-1" d="M68.77,38.6a1.07,1.07,0,0,0-1.07-1.08H50.51a1.08,1.08,0,0,0-1.08,1.08V55.79a1.07,1.07,0,0,0,1.08,1.07H67.7a1.07,1.07,0,0,0,1.07-1.07ZM66.62,54.71h-15v-15h15Z" transform="translate(-1.09 -1)"/><path class="cls-1" d="M34.39,62.23a25.76,25.76,0,0,1-14-4.12l-1.17,1.8A28,28,0,0,0,50,59.59l-1.21-1.78A25.66,25.66,0,0,1,34.39,62.23Z" transform="translate(-1.09 -1)"/><path class="cls-1" d="M60.16,35.42l2.14-.09a27.91,27.91,0,0,0-15.62-24l-.94,1.93A25.78,25.78,0,0,1,60.16,35.42Z" transform="translate(-1.09 -1)"/><path class="cls-1" d="M8.69,38.51c0-.68-.08-1.37-.08-2.06A25.65,25.65,0,0,1,23.05,13.29l-.94-1.93A27.78,27.78,0,0,0,6.46,36.45c0,.75,0,1.5.09,2.23Z" transform="translate(-1.09 -1)"/><path class="cls-1" d="M18.6,8.83l1.51,1.52,3.23-3.22a1.07,1.07,0,0,0,0-1.52L20.11,2.39,18.6,3.91,20,5.3H12.91V7.45H20Z" transform="translate(-1.09 -1)"/><path class="cls-1" d="M64.47,25.71a1.07,1.07,0,0,0,.76-.32l3.22-3.22-1.51-1.52L65.55,22V15H63.4V22L62,20.65l-1.52,1.52,3.22,3.22A1.09,1.09,0,0,0,64.47,25.71Z" transform="translate(-1.09 -1)"/><path class="cls-1" d="M11.08,59.32,7.85,62.55l1.52,1.51,1.39-1.38v7.07h2.15V62.68l1.39,1.38,1.52-1.51L12.6,59.32A1.07,1.07,0,0,0,11.08,59.32Z" transform="translate(-1.09 -1)"/><path class="cls-1" d="M44.06,35.37A9.7,9.7,0,0,0,39.23,27l-1.08,1.86a7.51,7.51,0,0,1-1.9,13.79l1.25-2.5-1.92-1-2.15,4.3a1.08,1.08,0,0,0,.21,1.24L36.86,48l1.52-1.52L36.7,44.75A9.66,9.66,0,0,0,44.06,35.37Z" transform="translate(-1.09 -1)"/><path class="cls-1" d="M29.56,43.75l1.08-1.86a7.51,7.51,0,0,1,1.9-13.79l-1.26,2.5,1.93,1,2.14-4.3a1.07,1.07,0,0,0-.2-1.24L31.93,22.8l-1.52,1.52L32.09,26a9.66,9.66,0,0,0-2.53,17.75Z" transform="translate(-1.09 -1)"/></g></svg>