<?xml version="1.0" encoding="utf-8"?>
<!-- Generator: Adobe Illustrator 23.0.1, SVG Export Plug-In . SVG Version: 6.00 Build 0)  -->
<svg version="1.1" id="Слой_1" xmlns="http://www.w3.org/2000/svg" xmlns:xlink="http://www.w3.org/1999/xlink" x="0px" y="0px"
	 width="90px" height="90px" viewBox="0 0 90 90" style="enable-background:new 0 0 90 90;" xml:space="preserve">
<style type="text/css">
	.st0{fill:#FF5555;}
</style>
<path class="st0" d="M42.1,19.4c-12.5,0-22.6,10.1-22.6,22.6s10.1,22.6,22.6,22.6S64.7,54.5,64.7,42S54.5,19.4,42.1,19.4z
	 M42.1,57.6c-8.6,0-15.7-7-15.7-15.7s7-15.7,15.7-15.7s15.7,7,15.7,15.7S50.7,57.6,42.1,57.6z"/>
<path d="M42.1,17.7c-13.4,0-24.3,10.9-24.3,24.3c0,13.4,10.9,24.3,24.3,24.3c13.4,0,24.3-10.9,24.3-24.3
	C66.4,28.6,55.4,17.7,42.1,17.7z M20.4,42c0-12,9.7-21.7,21.7-21.7S63.8,30,63.8,41.9c-0.1,12-9.8,21.7-21.7,21.8
	C30.1,63.7,20.4,54,20.4,42z"/>
<path d="M43.4,82V70.8c-0.1-0.7-0.6-1.3-1.3-1.3c-0.7,0-1.3,0.6-1.3,1.3v11.1c-0.7,0.2-1.3,0.6-1.8,1.2c-0.9,0.9-1.4,2.2-1.2,3.6
	c0.3,2.1,2.1,3.8,4.3,3.8c2.2,0,4-1.6,4.3-3.8C46.7,84.6,45.4,82.6,43.4,82z M42.1,84.2c-1,0-1.9,0.9-1.9,1.9
	C40.2,85,41.1,84.2,42.1,84.2z M39.3,89.2c0.7,0.7,1.7,1.1,2.8,1.1C41,90.3,40.1,89.9,39.3,89.2z M42.1,87.9c-1,0-1.8-0.8-1.8-1.8
	s0.8-1.8,1.8-1.8s1.8,0.8,1.8,1.8C43.8,87.1,43,87.9,42.1,87.9z"/>
<path d="M46.4,3.3c-0.3-2.1-2.2-3.7-4.3-3.7c-2.2,0-4,1.6-4.3,3.8c-0.3,2.1,1,4.1,3,4.7v5.1c0,0.7,0.6,1.3,1.3,1.3
	c0.7,0,1.3-0.6,1.3-1.3V8C45.4,7.4,46.7,5.4,46.4,3.3z M40.2,4C40.2,4,40.2,4,40.2,4C40.2,4,40.2,4,40.2,4C40.2,4,40.2,4,40.2,4z
	 M42.1,2.1c1,0,1.8,0.8,1.8,1.8S43,5.7,42.1,5.7c-1,0-1.8-0.8-1.8-1.8S41.1,2.1,42.1,2.1z M42.1,5.9c-0.7,0-1.3-0.3-1.6-0.9
	C40.8,5.6,41.4,5.9,42.1,5.9C43.1,5.9,44,5,44,4c0,0,0,0,0,0C44,5.1,43.1,5.9,42.1,5.9z"/>
<path d="M88.5,41.8c0-2.1-1.6-3.9-3.7-4.2c-0.2,0-0.4,0-0.6,0c-0.5,0-0.9,0.1-1.4,0.2c-1.3,0.5-2.4,1.5-2.7,2.9H68.8
	c-0.4,0-0.7,0.1-0.9,0.4c-0.3,0.2-0.4,0.6-0.4,0.9c0,0.7,0.6,1.3,1.3,1.3H80c0.6,1.8,2.2,3.1,4.1,3.1c0.2,0,0.4,0,0.6,0
	c2.1-0.3,3.8-2.1,3.8-4.3c0-0.1,0-0.1,0-0.2C88.5,41.9,88.5,41.9,88.5,41.8z M84.2,43.7c-1,0-1.8-0.8-1.8-1.8c0-0.9,0.6-1.6,1.4-1.8
	c0.1,0,0.2,0,0.4,0c0.5,0,0.9,0.2,1.3,0.5c0.3,0.3,0.5,0.8,0.5,1.3C85.9,42.9,85.1,43.7,84.2,43.7z M84.8,46c1-0.1,1.9-0.7,2.6-1.4
	C86.8,45.3,85.9,45.8,84.8,46z"/>
<path d="M15.2,40.7H15h-5c-0.6-1.8-2.2-3.1-4.1-3.1c0,0,0,0,0,0c0,0,0,0-0.1,0c-0.3,0-0.5,0-0.8,0.1c-2.2,0.4-3.8,2.4-3.5,4.7
	c0.2,2.2,2.1,4,4.3,4c1.9,0,3.6-1.3,4.1-3.1H15c0.4,0,0.7-0.2,1-0.5c0.3-0.2,0.4-0.5,0.4-0.9C16.4,41.2,15.9,40.7,15.2,40.7z
	 M3.9,42c0,1,0.9,1.9,1.9,1.9c1.1,0,1.9-0.9,1.9-1.9c0-1.1-0.9-1.9-1.9-1.9c1,0,1.8,0.8,1.8,1.8s-0.8,1.8-1.8,1.8S4,42.9,3.9,42
	c0.1-1,0.7-1.7,1.5-1.9c0.1,0,0.2,0,0.4,0c1.1,0,1.9,0.8,1.9,1.9c0,1.1-0.8,1.9-1.9,1.9C4.7,43.9,3.9,43,3.9,42z M5.9,46.2
	C5.9,46.2,5.9,46.2,5.9,46.2c1.8,0,3.5-1.3,4-3.1C9.4,44.9,7.8,46.2,5.9,46.2z"/>
<path d="M23,20.2l-12-12c1-1.9,0.5-4.3-1.4-5.6C8.9,2.1,8,1.8,7.1,1.8c-1.3,0-2.5,0.6-3.3,1.6C2.4,5.1,2.5,7.6,4.1,9.2l0.1,0.1
	c0.8,0.8,1.9,1.2,3,1.2c0.7,0,1.4-0.2,2-0.5l12,12c0.2,0.2,0.6,0.4,0.9,0.4c0.1,0,0.2,0,0.3,0c0.4-0.1,0.8-0.5,0.9-0.9
	C23.4,21.1,23.3,20.6,23,20.2z M7.1,10.3C6,10.3,5,9.9,4.2,9.1C5,9.9,6.1,10.3,7.1,10.3C7.1,10.3,7.1,10.3,7.1,10.3z M8.4,7.4
	C8,7.7,7.6,7.9,7.1,7.9S6.2,7.7,5.8,7.4C5.5,7.1,5.3,6.6,5.3,6.2c0-0.5,0.2-0.9,0.5-1.3c0.3-0.3,0.8-0.5,1.3-0.5S8,4.6,8.4,4.9
	c0.3,0.3,0.5,0.8,0.5,1.3S8.7,7,8.4,7.4z M21.3,21.9L21.3,21.9C21.3,21.9,21.3,21.9,21.3,21.9C21.4,21.9,21.3,21.9,21.3,21.9z"/>
<path d="M75.7,64.6c-0.8-0.8-1.9-1.3-3.1-1.3c-0.7,0-1.4,0.2-2,0.5L67,60.2c-0.4-0.3-0.7-0.4-1-0.4s-0.7,0.1-0.9,0.4
	c-0.2,0.2-0.4,0.6-0.4,0.9c0,0.3,0.1,0.7,0.4,0.9l3.6,3.6c-0.9,1.7-0.6,3.7,0.8,5.1c0.8,0.8,1.9,1.3,3.1,1.3c1.2,0,2.2-0.5,3.1-1.3
	C77.4,69,77.4,66.2,75.7,64.6z M74,68.6c-0.4,0.5-0.9,0.8-1.5,0.8c-0.1,0-0.2,0-0.3,0s-0.3,0-0.4-0.1c0,0,0,0,0,0
	c-0.1,0-0.2-0.1-0.3-0.2c-0.1-0.1-0.2-0.2-0.3-0.2c-0.4-0.4-0.5-1-0.4-1.5c0.2-0.8,0.9-1.4,1.7-1.4c0.5,0,0.9,0.2,1.3,0.5
	c0.3,0.3,0.5,0.7,0.5,1.1C74.3,67.9,74.2,68.3,74,68.6z"/>
<g>
	<polygon points="19.1,62 11.2,69.9 11.2,69.9 	"/>
	<path d="M21.4,62.9c0-0.3-0.1-0.7-0.4-0.9c-0.3-0.3-0.6-0.4-1-0.4c-0.3,0-0.7,0.1-0.9,0.4c0.1,0,0.1,0,0.2,0c0,0-0.1,0-0.1,0l-8,8
		c0,0,0,0-0.1,0l0.1-0.1c-0.6-0.3-1.3-0.5-2-0.5c-1.4,0-2.8,0.7-3.6,1.9c-1.3,1.9-1,4.4,0.8,5.8c0.8,0.6,1.8,1,2.8,1
		c1.2,0,2.2-0.5,3.1-1.3c1.3-1.3,1.7-3.4,0.8-5.1l7.9-7.9C21.2,63.6,21.4,63.2,21.4,62.9z M5.7,71.3C5.3,72,5,72.7,5,73.5
		C5,72.8,5.2,72,5.7,71.3C5.7,71.3,5.7,71.3,5.7,71.3C5.7,71.3,5.7,71.3,5.7,71.3z M10.9,72.7c-0.3-0.4-0.7-0.7-1.3-0.9
		C10.2,71.9,10.6,72.2,10.9,72.7z M9.1,69.5C9.1,69.5,9.1,69.5,9.1,69.5c0,0-0.1,0-0.1,0C9,69.5,9.1,69.5,9.1,69.5z M6.1,70.8
		c0.6-0.7,1.4-1.1,2.3-1.2C7.6,69.7,6.8,70.2,6.1,70.8z M10.4,75c-0.3,0.3-0.8,0.5-1.2,0.5c-0.3,0-0.7-0.1-1-0.3
		c-0.7-0.5-1-1.4-0.6-2.1C7.8,72.4,8.5,72,9.2,72c0.1,0,0.2,0,0.3,0c0.8,0.2,1.4,0.9,1.4,1.7C10.9,74.2,10.7,74.6,10.4,75z
		 M12.1,76.7C12.1,76.7,12,76.7,12.1,76.7C12.1,76.7,12.1,76.7,12.1,76.7C12.1,76.7,12.1,76.7,12.1,76.7z M12.9,71.6l7.9-8
		c0.2-0.2,0.3-0.5,0.3-0.8c0,0.3-0.1,0.6-0.3,0.9L12.9,71.6z"/>
</g>
<path d="M73.8,13.2c-0.9-0.8-2-1.3-3.1-1.3c-1,0-1.9,0.3-2.6,0.9c0.5-0.3,1.1-0.5,1.7-0.6c-0.6,0.1-1.2,0.4-1.7,0.8
	c-0.8,0.6-1.3,1.4-1.6,2.3c0-0.2,0.1-0.5,0.2-0.7c-0.2,0.5-0.3,1-0.3,1.6c0,0.8,0.1,1.5,0.5,2.2L63.3,22c-0.1,0.1-0.2,0.2-0.2,0.3
	c0-0.2,0.1-0.3,0.2-0.4c-0.3,0.3-0.4,0.6-0.4,0.9c0,0.3,0.1,0.6,0.4,0.9c0.2,0.2,0.6,0.4,0.9,0.4s0.7-0.1,0.9-0.4l1.8-1.8l1.8-1.7
	c0.6,0.3,1.3,0.5,2,0.5c1.4,0,2.6-0.6,3.4-1.7c0,0,0.1-0.1,0.1-0.1C75.5,17.2,75.4,14.7,73.8,13.2z M72,17.6
	c-0.4,0.3-0.9,0.5-1.3,0.5c-0.5,0-0.9-0.2-1.3-0.5c-0.3-0.3-0.5-0.8-0.5-1.3s0.2-0.9,0.5-1.3c0.3-0.4,0.8-0.5,1.3-0.5
	s0.9,0.2,1.3,0.5s0.5,0.8,0.5,1.3S72.3,17.2,72,17.6z M73.4,13.2c0,0,0.1,0.1,0.2,0.1c0,0,0,0,0,0C73.6,13.3,73.5,13.2,73.4,13.2z"
	/>
<path d="M43.8,25.1c-0.7,0-1.2-0.1-1.8-0.1c-4.2,0-8.2,1.5-11.3,4.4c-3.1,2.8-5.1,6.7-5.5,10.9c-0.4,4.5,0.9,8.9,3.8,12.4
	s6.9,5.7,11.4,6.1c0.6,0.1,1.1,0.1,1.7,0.1c9,0,16.4-7.1,16.9-16.1C59.4,33.8,52.7,26,43.8,25.1z M27.8,40.5
	c0.7-7.4,6.9-12.9,14.3-12.9c0.5,0,1,0,1.4,0.1c3.1,0.3,5.8,1.5,7.9,3.4c3.4,3,5.4,7.5,4.9,12.3c-0.3,2.8-1.3,5.3-2.8,7.3
	c-2.6,3.4-6.7,5.6-11.4,5.6c-0.5,0-1,0-1.4-0.1C36.9,55.8,33.5,54,31,51C28.6,48,27.4,44.3,27.8,40.5z M27.7,40.5
	c0,0.5-0.1,1-0.1,1.5C27.6,41.5,27.6,41,27.7,40.5z M27.7,43.4c0-0.3,0-0.5,0-0.8C27.7,42.8,27.7,43.1,27.7,43.4z"/>
<path d="M41.5,35.5c-0.2-0.5-0.9-0.7-1.5-0.7c0,0,0,0,0,0c0,0,0,0-0.1,0c-0.6,0-1.3,0.2-1.5,0.8L35.2,46c0,0.1,0,0.1,0,0.2
	c0,0.7,0.9,1.1,1.5,1.1c0.6,0,0.8-0.3,0.9-0.6l0.6-2.1h3.5l0.6,2.1c0.1,0.3,0.3,0.6,0.9,0.6c0.6,0,1.5-0.4,1.5-1.1
	c0-0.1,0-0.1,0-0.2L41.5,35.5z M38.8,42.6l1.2-4.2l1.2,4.2H38.8z M37.5,46.8c-0.1,0.3-0.4,0.4-0.7,0.4c0,0,0,0-0.1,0
	C37.2,47.2,37.4,46.9,37.5,46.8l0.6-2.2L37.5,46.8z M42.9,47.2c0.1,0,0.2,0,0.3,0C43.1,47.2,43,47.2,42.9,47.2z M42.7,47.1
	C42.7,47.1,42.8,47.1,42.7,47.1C42.8,47.1,42.7,47.1,42.7,47.1z M44.6,46.3c0,0,0-0.1,0-0.1C44.6,46.2,44.6,46.3,44.6,46.3
	C44.6,46.3,44.6,46.3,44.6,46.3z"/>
<path d="M46.8,34.9c-0.8,0-1.3,0.3-1.3,0.8v10.8c0,0.5,0.5,0.9,1.3,0.9c0.6,0,1.3-0.3,1.3-0.9V35.7C48.1,35.1,47.4,34.9,46.8,34.9z
	 M46.4,47.2c0.1,0,0.3,0,0.4,0C46.6,47.2,46.5,47.2,46.4,47.2z"/>
</svg>
