<?xml version="1.0" encoding="utf-8"?>
<!-- Generator: Adobe Illustrator 23.0.1, SVG Export Plug-In . SVG Version: 6.00 Build 0)  -->
<svg version="1.1" id="Слой_1" xmlns="http://www.w3.org/2000/svg" xmlns:xlink="http://www.w3.org/1999/xlink" x="0px" y="0px"
	 width="70px" height="70px" viewBox="0 0 70 70" style="enable-background:new 0 0 70 70;" xml:space="preserve">
<style type="text/css">
	.st0{fill:#0071B3;}
</style>
<path class="st0" d="M58.5,0.4c-6.1,0-11.1,5-11.1,11.1s5,11.1,11.1,11.1s11.1-5,11.1-11.1S64.6,0.4,58.5,0.4z M58.5,20.6
	c-5,0-9.1-4.1-9.1-9.1s4.1-9.1,9.1-9.1s9.1,4.1,9.1,9.1S63.5,20.6,58.5,20.6z"/>
<path class="st0" d="M17.5,20.6c-0.6,0-1,0.5-1,1v14.2c0,0.6,0.5,1,1,1h37.2c0.6,0,1-0.5,1-1v-7.5c0-0.6-0.5-1-1-1s-1,0.5-1,1v6.5
	H18.5V22.6H43c0.6,0,1-0.5,1-1s-0.5-1-1-1H17.5z"/>
<path class="st0" d="M54.7,49H39.4c-0.6,0-1,0.5-1,1s0.5,1,1,1h15.3c0.6,0,1-0.5,1-1S55.2,49,54.7,49z"/>
<path class="st0" d="M54.7,41.9H39.4c-0.6,0-1,0.5-1,1s0.5,1,1,1h15.3c0.6,0,1-0.5,1-1S55.2,41.9,54.7,41.9z"/>
<path class="st0" d="M54.7,56.1H39.4c-0.6,0-1,0.5-1,1s0.5,1,1,1h15.3c0.6,0,1-0.5,1-1S55.2,56.1,54.7,56.1z"/>
<path class="st0" d="M17.5,56.1c-0.6,0-1,0.5-1,1s0.5,1,1,1h15.3c0.6,0,1-0.5,1-1V42.9c0-0.6-0.5-1-1-1h-7.6c-0.6,0-1,0.5-1,1
	s0.5,1,1,1h6.6v12.2H17.5z"/>
<path class="st0" d="M61.3,27.9c-0.6,0-1,0.5-1,1v23.4v8.4v5.2c0,1-0.8,1.7-1.7,1.7H13.7c-1,0-1.7-0.8-1.7-1.7v-8.3l8.4-6.5
	c1.4-1.1,2-2.8,1.7-4.5c-0.3-1.3-1-2.4-2.2-3c-1.1-0.6-2.5-0.8-3.7-0.4L10.6,45c-0.5,0.2-0.8,0.7-0.6,1.3c0.2,0.5,0.7,0.8,1.3,0.6
	l5.5-1.8c0.7-0.2,1.4-0.1,2.1,0.2c0.6,0.4,1.1,1,1.2,1.7c0.2,1-0.2,1.9-0.9,2.5l-8.8,6.8c-0.2,0.2-0.4,0.5-0.4,0.8v9l0,0.3
	c0.2,1.8,1.8,3.2,3.7,3.2h44.8c2.1,0,3.7-1.7,3.7-3.7v-5.2v-8.4V28.9C62.3,28.4,61.8,27.9,61.3,27.9z"/>
<path class="st0" d="M10.9,41.7c0.6,0,1-0.5,1-1V13.4c0-1,0.8-1.7,1.7-1.7h27.9c0.6,0,1-0.5,1-1s-0.5-1-1-1H13.7
	c-2.1,0-3.7,1.7-3.7,3.7v16.8l-0.1,0.1L0.5,44.5c-0.1,0.2-0.2,0.4-0.2,0.6v23.6c0,0.6,0.5,1,1,1s1-0.5,1-1V45.4l7.6-11.5v6.8
	C9.9,41.3,10.4,41.7,10.9,41.7z"/>
<path class="st0" d="M62,8.6l-3.8,3.8l-1.5-1.5c-0.2-0.2-0.5-0.3-0.7-0.3s-0.5,0.1-0.7,0.3C55.1,11,55,11.3,55,11.5s0.1,0.5,0.3,0.7
	l2.2,2.2c0.4,0.4,1,0.4,1.4,0l4.5-4.5c0.4-0.4,0.4-1,0-1.4C63,8.2,62.4,8.2,62,8.6z"/>
</svg>
