<?xml version="1.0" encoding="utf-8"?>
<!-- Generator: Adobe Illustrator 23.0.1, SVG Export Plug-In . SVG Version: 6.00 Build 0)  -->
<svg version="1.1" id="Слой_1" xmlns="http://www.w3.org/2000/svg" xmlns:xlink="http://www.w3.org/1999/xlink" x="0px" y="0px"
	 viewBox="0 0 60 60" style="enable-background:new 0 0 60 60;" xml:space="preserve">
<style type="text/css">
	.st0{fill:#0071B3;}
</style>
<path class="st0" d="M16.6,42.6c0,0.2,0.1,0.4,0.2,0.6c0.4,0.4,0.9,0.3,1.2,0c0.3-0.3,0.3-0.8,0-1.1l0,0c-0.2-0.2-0.4-0.2-0.6-0.2
	c-0.2,0-0.4,0.1-0.6,0.2C16.7,42.2,16.6,42.4,16.6,42.6z"/>
<path class="st0" d="M20.6,46.1c2.8,1.7,6.1,2.5,9.4,2.5c5,0,9.7-1.9,13.2-5.5c7.3-7.3,7.3-19.1,0-26.3s-19.1-7.3-26.3,0
	c-5.9,5.9-7.2,15.2-3,22.4c0.1,0.2,0.3,0.3,0.5,0.4c0.2,0.1,0.4,0,0.6-0.1c0.4-0.2,0.5-0.7,0.3-1.1C11.4,31.8,12.5,23.4,18,18
	c6.6-6.6,17.4-6.6,24,0c3.2,3.2,5,7.5,5,12c0,4.5-1.8,8.8-5,12c-5.5,5.5-13.9,6.6-20.6,2.7c-0.1-0.1-0.3-0.1-0.4-0.1
	c-0.1,0-0.1,0-0.2,0c-0.2,0.1-0.4,0.2-0.5,0.4C20.1,45.4,20.2,45.9,20.6,46.1z"/>
<path class="st0" d="M59.6,35.1l0-10.3c0-0.4-0.3-0.7-0.7-0.8l-4.5-0.7L52,17.4l2.7-3.7c0.2-0.3,0.2-0.8-0.1-1l-7.3-7.3
	c-0.3-0.3-0.7-0.3-1-0.1L42.6,8l-5.9-2.4L35.9,1c-0.1-0.4-0.4-0.7-0.8-0.7l-10.3,0c-0.4,0-0.7,0.3-0.8,0.7l-0.7,4.5L17.4,8l-3.7-2.7
	c-0.3-0.2-0.8-0.2-1,0.1l-7.3,7.3c-0.3,0.3-0.3,0.7-0.1,1L8,17.4l-2.4,5.9L1,24.1c-0.4,0.1-0.7,0.4-0.7,0.8l0,10.3
	c0,0.4,0.3,0.7,0.7,0.8l4.5,0.7L8,42.6l-2.7,3.7c-0.2,0.3-0.2,0.8,0.1,1l7.3,7.3c0.3,0.3,0.7,0.3,1,0.1l3.7-2.7l5.9,2.4l0.7,4.5
	c0.1,0.4,0.4,0.7,0.8,0.7l10.3,0c0.4,0,0.7-0.3,0.8-0.7l0.7-4.5l5.9-2.5l3.7,2.7c0.3,0.2,0.8,0.2,1-0.1l7.3-7.3
	c0.3-0.3,0.3-0.7,0.1-1L52,42.6l2.4-5.9l4.5-0.7C59.3,35.9,59.6,35.5,59.6,35.1z M53.7,35.1c-0.3,0-0.5,0.2-0.6,0.5l-2.8,6.8
	c-0.1,0.3-0.1,0.6,0.1,0.8l2.6,3.5L46.7,53l-3.5-2.6c-0.2-0.2-0.5-0.2-0.8-0.1l-6.7,2.8c-0.3,0.1-0.4,0.3-0.5,0.6L34.5,58l-8.9,0
	l-0.7-4.3c0-0.3-0.2-0.5-0.5-0.6l-6.8-2.8c-0.3-0.1-0.6-0.1-0.8,0.1L13.3,53L7,46.7l2.6-3.5c0.2-0.2,0.2-0.5,0.1-0.8l-2.8-6.7
	c-0.1-0.3-0.3-0.4-0.6-0.5L2,34.5l0-8.9l4.3-0.7c0.3,0,0.5-0.2,0.6-0.5l2.8-6.8c0.1-0.3,0.1-0.6-0.1-0.8L7,13.3L13.3,7l3.5,2.6
	c0.2,0.2,0.5,0.2,0.8,0.1l6.7-2.8c0.3-0.1,0.4-0.3,0.5-0.6L25.5,2l8.9,0l0.7,4.3c0,0.3,0.2,0.5,0.5,0.6l6.8,2.8
	c0.3,0.1,0.6,0.1,0.8-0.1L46.7,7l6.3,6.3l-2.6,3.5c-0.2,0.2-0.2,0.5-0.1,0.8l2.8,6.7c0.1,0.3,0.3,0.4,0.6,0.5l4.3,0.7l0,8.9
	L53.7,35.1z"/>
<path class="st0" d="M40.7,38.9c0.2,0.2,0.5,0.3,0.7,0.2c0.3-0.1,0.5-0.2,0.6-0.5c1-2.4,0.3-5.1-1.6-6.9c-1.4-1.3-3.2-1.8-5.1-1.5
	l-0.2,0l-5.4-5.4l0-0.2c0.3-1.9-0.3-3.9-1.7-5.3c-1.7-1.7-4.4-2.3-6.6-1.4c-0.3,0.1-0.4,0.3-0.5,0.6c-0.1,0.3,0,0.5,0.2,0.7l1.7,1.7
	c0.2,0.2,0.4,0.6,0.4,0.9c0,0.3-0.1,0.7-0.4,0.9c-0.5,0.5-1.3,0.5-1.8,0l-1.7-1.7c-0.2-0.2-0.5-0.3-0.7-0.2
	c-0.3,0.1-0.5,0.2-0.6,0.5c-1,2.4-0.3,5.1,1.6,6.9c1.4,1.3,3.2,1.8,5.1,1.5l0.2,0l5.4,5.4l0,0.2c-0.3,1.9,0.3,3.9,1.7,5.3
	c1.2,1.2,2.7,1.8,4.4,1.8c0.8,0,1.6-0.2,2.3-0.5c0.3-0.1,0.4-0.3,0.5-0.6c0.1-0.3,0-0.5-0.2-0.7L37.2,39c-0.5-0.5-0.5-1.3,0-1.8
	c0.5-0.5,1.3-0.5,1.8,0L40.7,38.9z M36,36c-1.1,1.1-1.1,3,0,4.1l0.7,0.7l-1-0.1c-1-0.1-2-0.6-2.7-1.3c-1.1-1.1-1.6-2.8-1.2-4.4
	c0.1-0.3,0-0.6-0.2-0.8l-6-6c-0.2-0.2-0.5-0.3-0.8-0.2c-1.5,0.4-3.1,0-4.2-1c-0.8-0.7-1.3-1.8-1.5-2.9l-0.1-1l0.8,0.8
	c1.1,1.1,3,1.1,4.1,0c1.1-1.1,1.1-3,0-4.1l-0.7-0.7l1,0.1c1,0.1,2,0.6,2.7,1.3c1.1,1.1,1.6,2.8,1.2,4.4c-0.1,0.3,0,0.6,0.2,0.8l6,6
	c0.2,0.2,0.5,0.3,0.8,0.2c1.5-0.4,3.1,0,4.2,1c0.8,0.7,1.3,1.7,1.5,2.8l0.1,1L40.1,36C39,34.9,37.2,34.9,36,36z"/>
<path class="st0" d="M40.6,22.5c0-0.2,0-0.4-0.2-0.6c-1.9-2.4-4.5-4.1-7.5-4.8c-0.1,0-0.1,0-0.2,0c-0.2,0-0.3,0-0.4,0.1
	c-0.2,0.1-0.3,0.3-0.4,0.5c-0.1,0.4,0.2,0.9,0.6,1c2.6,0.6,4.9,2.1,6.6,4.2c0.3,0.3,0.8,0.4,1.1,0.1C40.4,22.9,40.6,22.7,40.6,22.5z
	"/>
<path class="st0" d="M41,26.4c0.2,0.5,0.6,0.7,1,0.6c0.4-0.1,0.7-0.6,0.5-1l0-0.1c-0.1-0.2-0.2-0.4-0.4-0.5
	c-0.1-0.1-0.2-0.1-0.4-0.1c-0.1,0-0.2,0-0.2,0C41.1,25.5,40.9,26,41,26.4z"/>
</svg>
