<svg width="70" height="70" viewBox="0 0 70 70" fill="none" xmlns="http://www.w3.org/2000/svg">
<path d="M69.4289 4.76172C69.2528 4.55267 69.0008 4.42211 68.7285 4.39887L53.4942 3.09772L53.218 0.902288C53.1469 0.337504 52.6303 -0.0628082 52.0669 0.00814872L37.9347 1.78494C37.879 1.77045 37.822 1.75951 37.7627 1.75446L18.3383 0.0952385C17.7789 0.0460198 17.2712 0.476136 17.2236 1.03436L16.934 4.42498L1.88827 6.31662C1.33156 6.38662 0.924271 6.91066 0.994134 7.46779L8.67416 68.5548C8.70903 68.8334 8.64928 69.1011 8.76317 69.3706C8.92286 69.748 9.30293 70 9.71295 70H60.2864C60.8558 70 61.3171 69.5387 61.3171 68.9693V67.6268L63.3133 67.7973C63.8727 67.8459 64.3804 67.4167 64.428 66.8582L69.6675 5.51381C69.6909 5.24133 69.6051 4.9709 69.4289 4.76172ZM8.68223 52.0929L3.16823 8.23328L8.68223 7.54011V52.0929ZM19.1899 2.23694L28.2106 3.00734L19.0255 4.16221L19.1899 2.23694ZM51.3014 2.18211L51.828 6.37076H17.9832L51.3014 2.18211ZM62.4619 65.6556L61.3171 65.5579V35.4367C61.3171 34.8674 60.8558 34.406 60.2864 34.406C59.717 34.406 59.2557 34.8673 59.2557 35.4367V67.9384H10.7437V8.4322H59.2558V30.6268C59.2558 31.1963 59.7171 31.6575 60.2865 31.6575C60.856 31.6575 61.3173 31.1963 61.3173 30.6268V7.40148C61.3173 6.83218 60.856 6.37076 60.2865 6.37076H53.9057L53.7571 5.1891L67.5259 6.36515L62.4619 65.6556Z" fill="#0071B3"/>
<path d="M54.7895 11.8682H49.2923C48.9476 11.8682 48.6258 12.0403 48.4348 12.3271L46.1018 15.8266C43.5907 14.0278 40.5163 12.9675 37.1987 12.9675C36.6294 12.9675 36.168 13.4288 36.168 13.9982V28.2908C36.168 28.8601 36.6293 29.3215 37.1987 29.3215H51.4913C52.0607 29.3215 52.522 28.8602 52.522 28.2908C52.522 23.9025 50.6672 19.9399 47.7013 17.1437L49.8441 13.9296H54.7896C55.3589 13.9296 55.8203 13.4683 55.8203 12.8989C55.8203 12.3295 55.3587 11.8682 54.7895 11.8682ZM50.4209 27.2601H38.2294V15.0686C40.729 15.2617 43.0351 16.1531 44.9568 17.5442L44.0371 18.9238C43.7498 19.3545 43.8341 19.951 44.2308 20.2842C44.6954 20.6743 45.416 20.5714 45.7522 20.0673L46.5393 18.8866C48.7308 21.0634 50.1688 23.998 50.4209 27.2601Z" fill="#0071B3"/>
<path d="M54.7894 45.9502H45.4659L43.8231 43.3218C46.4843 40.5642 48.1241 36.8143 48.1241 32.6885C48.1241 32.1191 47.6628 31.6578 47.0934 31.6578H33.8315V18.396C33.8315 17.8267 33.3701 17.3652 32.8008 17.3652C24.3516 17.3652 17.4775 24.2393 17.4775 32.6885C17.4775 41.1377 24.3516 48.0118 32.8008 48.0118C36.3723 48.0118 39.6621 46.7835 42.2705 44.7274L44.0205 47.5274C44.2089 47.8287 44.5392 48.0118 44.8945 48.0118H54.7894C55.3587 48.0118 55.8201 47.5505 55.8201 46.9811C55.8201 46.4116 55.3587 45.9502 54.7894 45.9502ZM40.2717 37.6394C39.9701 37.1563 39.3339 37.0098 38.8513 37.3115C38.3686 37.6131 38.2217 38.2491 38.5235 38.7319L41.1709 42.9677C38.8864 44.8313 35.972 45.9505 32.801 45.9505C25.4884 45.9505 19.5391 40.0012 19.5391 32.6887C19.5391 25.7228 24.9375 19.9942 31.7702 19.4665V32.6887C31.7702 33.258 32.2317 33.7194 32.801 33.7194H46.0232C45.7929 36.7 44.5728 39.4074 42.6924 41.5129L40.2717 37.6394Z" fill="#0071B3"/>
<path d="M24.0053 51.4473H15.2099C14.6408 51.4473 14.1792 51.9086 14.1792 52.478C14.1792 53.0474 14.6406 53.5087 15.2099 53.5087H24.0053C24.5746 53.5087 25.036 53.0474 25.036 52.478C25.036 51.9086 24.5746 51.4473 24.0053 51.4473Z" fill="#0071B3"/>
<path d="M37.1987 51.4473H28.4033C27.834 51.4473 27.3726 51.9086 27.3726 52.478C27.3726 53.0474 27.834 53.5087 28.4033 53.5087H37.1987C37.768 53.5087 38.2294 53.0474 38.2294 52.478C38.2294 51.9086 37.768 51.4473 37.1987 51.4473Z" fill="#0071B3"/>
<path d="M29.5025 56.9443H15.2099C14.6408 56.9443 14.1792 57.4056 14.1792 57.9751C14.1792 58.5445 14.6406 59.0058 15.2099 59.0058H29.5025C30.0718 59.0058 30.5332 58.5445 30.5332 57.9751C30.5332 57.4056 30.0716 56.9443 29.5025 56.9443Z" fill="#0071B3"/>
<path d="M37.1987 56.9443H33.9004C33.3312 56.9443 32.8696 57.4056 32.8696 57.9751C32.8696 58.5445 33.3311 59.0058 33.9004 59.0058H37.1987C37.768 59.0058 38.2294 58.5445 38.2294 57.9751C38.2293 57.4056 37.768 56.9443 37.1987 56.9443Z" fill="#0071B3"/>
<path d="M19.6076 62.4414H15.2099C14.6408 62.4414 14.1792 62.9027 14.1792 63.4721C14.1792 64.0416 14.6406 64.5028 15.2099 64.5028H19.6076C20.1769 64.5028 20.6383 64.0416 20.6383 63.4721C20.6383 62.9027 20.1769 62.4414 19.6076 62.4414Z" fill="#0071B3"/>
<path d="M37.1984 62.4414H24.0053C23.4362 62.4414 22.9746 62.9027 22.9746 63.4721C22.9746 64.0416 23.436 64.5028 24.0053 64.5028H37.1984C37.7677 64.5028 38.2291 64.0416 38.2291 63.4721C38.2291 62.9027 37.7677 62.4414 37.1984 62.4414Z" fill="#0071B3"/>
</svg>
