<?xml version="1.0" encoding="utf-8"?>
<!-- Generator: Adobe Illustrator 23.0.1, SVG Export Plug-In . SVG Version: 6.00 Build 0)  -->
<svg version="1.1" id="Слой_1" xmlns="http://www.w3.org/2000/svg" xmlns:xlink="http://www.w3.org/1999/xlink" x="0px" y="0px"
	 viewBox="0 0 60 60" style="enable-background:new 0 0 60 60;" xml:space="preserve">
<style type="text/css">
	.st0{fill:#FFFFFF;}
</style>
<path class="st0" d="M58.8,36.9h-6.7V10.2c0-0.2-0.1-0.4-0.2-0.6l-9.1-9.1c-0.2-0.2-0.4-0.2-0.6-0.2H10.5C8.6,0.4,6.9,2,6.9,4v6.5
	l-0.2,0.1c-3.9,2.2-6.4,6.3-6.4,10.8S2.7,30,6.7,32.2l0.2,0.1V56c0,2,1.6,3.6,3.6,3.6h38c2,0,3.6-1.6,3.6-3.6v-2.7h6.7
	c0.4,0,0.8-0.4,0.8-0.8V37.7C59.6,37.3,59.3,36.9,58.8,36.9z M43.1,3.1l6.3,6.3h-4.3c-1.1,0-2-0.9-2-2V3.1z M2,21.3
	c0-5.4,4.1-10,9.5-10.6h0.4v10.7c0,0.2,0.1,0.4,0.2,0.6l7.5,7.5l-0.3,0.3c-1.9,1.5-4.2,2.3-6.6,2.3C6.8,32,2,27.2,2,21.3z
	 M13.5,20.5V8.3h0.4c6.2,0.6,11.2,5.5,11.8,11.8v0.4H13.5z M23.3,22.1v0.4c-0.2,2-1,3.9-2.3,5.4l-0.3,0.3L14.5,22h8.8V22.1z
	 M50.5,51.7h-5.9V31.5h5.9V51.7z M50.5,29.9h-6.7c-0.4,0-0.8,0.4-0.8,0.8v6.2h-6.7c-0.4,0-0.8,0.4-0.8,0.8v6.5h-6.7
	c-0.4,0-0.8,0.4-0.8,0.8v7.5c0,0.4,0.4,0.8,0.8,0.8h21.7V56c0,1.1-0.9,2-2,2h-38c-1.1,0-2-0.9-2-2V32.9L9,33.1
	c1.2,0.4,2.4,0.6,3.6,0.6c6.3,0,11.7-4.9,12.2-11.2v-0.3h1.6c0.4,0,0.8-0.4,0.8-0.8c0-8.1-6.6-14.6-14.6-14.6
	c-0.4,0-0.8,0.4-0.8,0.8v1.6h-0.3c-0.8,0-1.7,0.1-2.5,0.4L8.5,9.7V4c0-1.1,0.9-2,2-2h30.9v5.4c0,2,1.6,3.6,3.6,3.6h5.4L50.5,29.9
	L50.5,29.9z M43,38.5v13.2h-5.9V38.5H43z M35.5,45.8v5.9h-5.9v-5.9H35.5z M58,51.7h-5.9V38.5H58V51.7z"/>
<path class="st0" d="M31.8,16.7h3.4c0.4,0,0.8-0.4,0.8-0.8c0-0.4-0.4-0.8-0.8-0.8h-3.4c-0.4,0-0.8,0.4-0.8,0.8
	C31,16.3,31.3,16.7,31.8,16.7z"/>
<path class="st0" d="M45,15.1h-4.3c-0.4,0-0.8,0.4-0.8,0.8s0.4,0.8,0.8,0.8H45c0.4,0,0.8-0.4,0.8-0.8C45.8,15.4,45.4,15.1,45,15.1z"
	/>
<path class="st0" d="M31.8,20.7c-0.2,0-0.4,0.1-0.6,0.2S31,21.3,31,21.5s0.1,0.4,0.2,0.6c0.3,0.3,0.8,0.3,1.1,0
	c0.2-0.2,0.2-0.4,0.2-0.6s-0.1-0.4-0.2-0.6C32.2,20.8,32,20.7,31.8,20.7z"/>
<path class="st0" d="M45,20.7h-8c-0.4,0-0.8,0.4-0.8,0.8s0.4,0.8,0.8,0.8h8c0.4,0,0.8-0.4,0.8-0.8C45.8,21,45.4,20.7,45,20.7z"/>
<path class="st0" d="M13.9,47.7h4.3c0.4,0,0.8-0.4,0.8-0.8s-0.4-0.8-0.8-0.8h-4.3c-0.4,0-0.8,0.4-0.8,0.8S13.5,47.7,13.9,47.7z"/>
<path class="st0" d="M22.6,51.7h-8.7c-0.4,0-0.8,0.4-0.8,0.8s0.4,0.8,0.8,0.8h8.7c0.4,0,0.8-0.4,0.8-0.8S23,51.7,22.6,51.7z"/>
</svg>
