<svg id="android.svg" xmlns="http://www.w3.org/2000/svg" width="137" height="55" viewBox="0 0 137 55">
  <defs>
    <style>
      .cls-1 {
        fill: #3f597e;
        fill-opacity: 0;
      }

      .cls-2 {
        fill: #fff;
        fill-rule: evenodd;
      }
    </style>
  </defs>
  <rect id="Прямоугольник_1_копия_57" data-name="Прямоугольник 1 копия 57" class="cls-1" width="137" height="55"/>
  <path id="Фигура_29" data-name="Фигура 29" class="cls-2" d="M8639.09,61V47.516h-7.69c-4.09,0-7.41,3.019-7.41,6.744S8627.31,61,8631.4,61h2.36V58.071h-2.35a4.055,4.055,0,0,1-4.32-3.811,4.009,4.009,0,0,1,4.27-3.813h4.77V61h2.96Zm9.8-13.993c-3.93,0-7.11,2.66-7.11,6.692V61h2.89V53.538a4.2,4.2,0,0,1,8.4,0V61h2.94V53.7C8656.01,49.668,8652.82,47.009,8648.89,47.009Zm23.15,7.166a6.29,6.29,0,0,0-6.54-6.659h-6.53v2.931h6.69a3.36,3.36,0,0,1,3.57,3.688c0,1.943-1.08,3.936-3.61,3.936l-6.69,0v2.9h6.53A6.434,6.434,0,0,0,8672.04,54.175Zm53.96,0a6.29,6.29,0,0,0-6.54-6.659h-6.52v2.931h6.68a3.368,3.368,0,0,1,3.58,3.688c0,1.943-1.09,3.936-3.62,3.936l-6.68,0v2.9h6.52A6.434,6.434,0,0,0,8726,54.175Zm-40.43,2.273c1.26-.676,1.89-1.917,1.89-4.041,0-3.738-2.02-4.891-5.95-4.891h-6.52v2.931h6.68c2.53,0,2.98.794,2.98,1.92s-0.36,2.09-2.9,2.09h-6.68v2.694h6.52l0.18,0a2.565,2.565,0,0,1,2.31,2.535,2.385,2.385,0,0,1-.11,1.17c0,0.049.18,0.1,0.18,0.149h2.7S8687.33,58.13,8685.57,56.447Zm4.59-2.382a6.767,6.767,0,1,0,6.77-6.942A6.858,6.858,0,0,0,8690.16,54.065Zm2.72,0a4.051,4.051,0,1,1,4.05,4.157A4.1,4.1,0,0,1,8692.88,54.065Zm14.12-6.55h2.96V61H8707V47.516Zm-92-1.174a2.014,2.014,0,0,0-1.99,2.038v7.964a1.991,1.991,0,1,0,3.98,0V48.38A2.014,2.014,0,0,0,8615,46.342Zm-24,0a2.014,2.014,0,0,0-1.99,2.038v7.964a1.991,1.991,0,1,0,3.98,0V48.38A2.014,2.014,0,0,0,8591,46.342Zm3.18,0.062V60.954a1.563,1.563,0,0,0,1.56,1.565h1.77V66.95a1.991,1.991,0,1,0,3.98,0V62.519h3.1V66.95a1.991,1.991,0,1,0,3.98,0V62.519h1.77a1.555,1.555,0,0,0,1.55-1.565V46.4h-17.71Zm13.01-7.54,1.64-2.394a0.3,0.3,0,0,0-.05-0.417,0.3,0.3,0,0,0-.41.1l-1.7,2.487a10.095,10.095,0,0,0-7.35,0l-1.7-2.487a0.286,0.286,0,0,0-.4-0.1,0.294,0.294,0,0,0-.05.417l1.63,2.394a7.8,7.8,0,0,0-4.66,6.243h17.71A7.777,7.777,0,0,0,8607.19,38.864Zm-7.93,3.773a0.988,0.988,0,1,1,.98-0.988A0.985,0.985,0,0,1,8599.26,42.637Zm7.6,0a0.988,0.988,0,1,1,.97-0.988A0.978,0.978,0,0,1,8606.86,42.637Z" transform="translate(-8589 -25)"/>
</svg>
