<svg id="angular.svg" xmlns="http://www.w3.org/2000/svg" width="139" height="55" viewBox="0 0 139 55">
  <defs>
    <style>
      .cls-1 {
        fill: #3f597e;
        fill-opacity: 0;
      }

      .cls-2 {
        fill: #fff;
        fill-rule: evenodd;
      }
    </style>
  </defs>
  <rect id="Прямоугольник_1_копия_4" data-name="Прямоугольник 1 копия 4" class="cls-1" width="139" height="55"/>
  <path id="angular.png" class="cls-2" d="M825.582,60.9V46.719h1.83l8.66,11.421V46.719H837.8V60.9h-1.831l-8.66-11.521V60.9h-1.731Zm26.275-.555a10.239,10.239,0,0,1-3.691.654q-7.689,0-7.69-7.386,0-6.989,7.423-6.99a12.73,12.73,0,0,1,3.958.6V48.8a10.52,10.52,0,0,0-3.761-.695q-5.789,0-5.788,5.5,0,5.9,5.7,5.9a9.647,9.647,0,0,0,2.019-.239V54.451h1.83v5.889h0Zm2.919-4.918V46.718h1.83v8.7q0,4.084,4.059,4.085t4.057-4.085v-8.7h1.831v8.7q0,5.574-5.888,5.572T854.776,55.423Zm16.874-8.705V59.408h7.4V60.9H869.82V46.718h1.83ZM881.7,60.9h-1.9l7.037-16.048L893.868,60.9h-2.03l-1.83-4.462h-4.681l0.506-1.487h3.561l-2.641-6.425Zm14.1,0V46.719h6.037q4.038,0,4.037,3.4,0,2.765-3.948,4.094l4.859,6.683h-2.415l-4.5-6.375v-1.2q4.056-.646,4.057-3.123,0-1.962-2.257-1.963h-4.038V60.9H895.8Zm17.844-14.178V56.811q0,4.086-4.8,4.084V59.408q2.969,0,2.969-2.6V46.718h1.831ZM916.907,60.4V58.714a14.239,14.239,0,0,0,4.81.794q3.653,0,3.652-2.678,0-2.278-2.692-2.28h-1.822q-4.442,0-4.444-3.867,0-4.064,5.693-4.066a17.064,17.064,0,0,1,4.6.6V48.9a13.07,13.07,0,0,0-4.6-.794q-3.861,0-3.86,2.578,0,2.279,2.611,2.28h1.822q4.521,0,4.523,3.867,0,4.164-5.483,4.164A18.627,18.627,0,0,1,916.907,60.4ZM900,68.463l-0.672-2.047h-0.478L899.774,69c-0.021.056-.056,0.142-0.105,0.258s-0.076.179-.084,0.192a0.347,0.347,0,0,1-.092.1,0.3,0.3,0,0,1-.172.039,0.677,0.677,0,0,1-.087-0.007,1.429,1.429,0,0,1-.159-0.038v0.385a1.149,1.149,0,0,0,.118.026,1.078,1.078,0,0,0,.138.007,0.586,0.586,0,0,0,.514-0.211,7.088,7.088,0,0,0,.515-1.172c0.1-.272.231-0.624,0.384-1.056q0.307-.862.4-1.1h-0.466Zm-2.5.172a0.617,0.617,0,0,1-.623-0.415,1.562,1.562,0,0,1-.089-0.575,0.955,0.955,0,0,1,.218-0.7,0.7,0.7,0,0,1,.506-0.213,0.563,0.563,0,0,1,.5.261,1.174,1.174,0,0,1,.17.657,1.334,1.334,0,0,1-.17.718A0.567,0.567,0,0,1,897.5,68.635Zm-1.1.293h0.389V68.608a1.136,1.136,0,0,0,.252.263,0.82,0.82,0,0,0,.484.138,0.938,0.938,0,0,0,.8-0.394,1.627,1.627,0,0,0,.289-0.99,1.369,1.369,0,0,0-.293-0.952,0.981,0.981,0,0,0-.762-0.322,0.925,0.925,0,0,0-.751.371V65.471H896.4v3.458h0ZM806.29,53.32l0.165,0.006h3.314l-3.452-7.233-3.042,7.228h3.015ZM806.328,35.8L789.8,41.627l2.612,21.693,13.934,7.672,14.006-7.776,2.611-21.692Zm7,25.765-2.244-5.206-4.79,0-0.009,0h-4.359l-2.049,5.134-3.812.071L806.29,38.79h0l10.689,22.842ZM920.25,65.429a1.3,1.3,0,0,1-.1,2.2,0.557,0.557,0,0,0-.223.39,0.436,0.436,0,0,0,.207.342l0.286,0.222a1.384,1.384,0,0,1,.666,1.114c0,0.747-.722,1.5-2.087,1.5-1.151,0-1.706-.548-1.706-1.137a1.146,1.146,0,0,1,.611-0.97,3.422,3.422,0,0,1,1.516-.366,0.831,0.831,0,0,1-.239-0.54,0.709,0.709,0,0,1,.08-0.31c-0.088.008-.175,0.016-0.254,0.016a1.256,1.256,0,0,1-1.317-1.248,1.433,1.433,0,0,1,.507-1.065,2.162,2.162,0,0,1,1.421-.437h1.635l-0.508.286H920.25m-0.564,3.53a1.253,1.253,0,0,0-.182-0.008,3.175,3.175,0,0,0-.833.127,0.893,0.893,0,0,0-.683.819,1.176,1.176,0,0,0,1.4.97,0.969,0.969,0,0,0,1.167-.858A1.394,1.394,0,0,0,919.686,68.958Zm0.231-1.511a0.806,0.806,0,0,0,.2-0.58,1.368,1.368,0,0,0-1-1.463,0.744,0.744,0,0,0-.556.263,0.923,0.923,0,0,0-.174.588,1.314,1.314,0,0,0,.992,1.415A0.812,0.812,0,0,0,919.917,67.448Zm-4.663,1.383a1.871,1.871,0,0,1-1.933-1.873,1.965,1.965,0,0,1,2.053-1.928,1.854,1.854,0,0,1,1.893,1.873,1.938,1.938,0,0,1-2.013,1.928m0.99-.643a1.434,1.434,0,0,0,.239-0.881c0-.7-0.333-2.032-1.316-2.032a1.1,1.1,0,0,0-.713.27,1.2,1.2,0,0,0-.364.968c0,0.786.388,2.079,1.347,2.079A1.008,1.008,0,0,0,916.244,68.188Zm-5.284.643a1.871,1.871,0,0,1-1.933-1.873,1.965,1.965,0,0,1,2.052-1.928,1.854,1.854,0,0,1,1.894,1.873,1.938,1.938,0,0,1-2.013,1.928m0.99-.643a1.433,1.433,0,0,0,.238-0.881c0-.7-0.333-2.032-1.315-2.032a1.1,1.1,0,0,0-.713.27,1.2,1.2,0,0,0-.364.968c0,0.786.388,2.079,1.346,2.079A1.009,1.009,0,0,0,911.95,68.188Zm-3.528.519V67.733c0-.08.007-0.311,0.016-0.383a0.185,0.185,0,0,1,.079-0.128l0.207-.2h-1.688l-0.637.343,1.2-.064v1.284a2.359,2.359,0,0,1-1.011.2,2.819,2.819,0,0,1-2.82-2.912,2.2,2.2,0,0,1,2.206-2.354,2.277,2.277,0,0,1,1.705.75l-0.2.319,0.278-.064,0.662-.63a3.117,3.117,0,0,0-1.052-.495,4.575,4.575,0,0,0-1.218-.167,3.013,3.013,0,0,0-3.218,2.983,2.832,2.832,0,0,0,3.034,2.889,8.445,8.445,0,0,0,1.314-.136l1.14-.263m14.346-.23c-0.264-.024-0.319-0.072-0.319-0.383V63.578c0-.017,0-0.035,0-0.051a0.509,0.509,0,0,1,.359-0.471h-1.14l-0.6.287h0.609v4.927a0.578,0.578,0,0,1-.215.422h1.41l0.295-.175c-0.135-.016-0.271-0.024-0.406-0.04m3.241,0.074c-0.087.048-.174,0.1-0.261,0.143a1.841,1.841,0,0,1-.768.15,1.687,1.687,0,0,1-1.052-.309,2.053,2.053,0,0,1-.807-1.672,1.794,1.794,0,0,1,1.812-1.83,1.537,1.537,0,0,1,.815.222,1.313,1.313,0,0,1,.553.784l-1.858.753-0.61.047a1.759,1.759,0,0,0,1.63,1.593,2.044,2.044,0,0,0,.965-0.277l-0.419.4m-0.744-2.362a0.251,0.251,0,0,0,.23-0.214,0.786,0.786,0,0,0-.783-0.682,0.975,0.975,0,0,0-.91,1.1c0,0.135.016,0.277,0.024,0.42Z" transform="translate(-789 -25)"/>
</svg>
