<svg width="70" height="63" viewBox="0 0 70 63" fill="none" xmlns="http://www.w3.org/2000/svg">
<path d="M54.7272 15.2471H43.7676C43.2013 15.2471 42.7422 15.7062 42.7422 16.2725C42.7422 16.8388 43.2013 17.2979 43.7676 17.2979H54.7272C55.2935 17.2979 55.7526 16.8388 55.7526 16.2725C55.7526 15.7062 55.2935 15.2471 54.7272 15.2471Z" fill="black"/>
<path d="M54.7272 19.6318H43.7676C43.2013 19.6318 42.7422 20.0909 42.7422 20.6572C42.7422 21.2235 43.2013 21.6826 43.7676 21.6826H54.7272C55.2935 21.6826 55.7526 21.2235 55.7526 20.6572C55.7526 20.0909 55.2935 19.6318 54.7272 19.6318Z" fill="black"/>
<path d="M58.0149 9.76758H40.4796C38.7055 9.76758 37.2623 11.2109 37.2623 12.985V15.8482L30.9869 22.1236C30.6937 22.4168 30.6059 22.8579 30.7646 23.241C30.9233 23.6242 31.2971 23.874 31.7119 23.874H37.2623V23.9445C37.2623 25.7186 38.7057 27.1618 40.4796 27.1618H58.0149C59.789 27.1618 61.2322 25.7184 61.2322 23.9445V12.985C61.2322 11.2109 59.7888 9.76758 58.0149 9.76758ZM59.1814 23.9447C59.1814 24.5879 58.658 25.1111 58.0149 25.1111H40.4796C39.8363 25.1111 39.3131 24.5878 39.3131 23.9447V22.8487C39.3131 22.2824 38.854 21.8233 38.2877 21.8233H34.1875L39.0127 16.998C39.2051 16.8057 39.3131 16.5449 39.3131 16.2729V12.9851C39.3131 12.3419 39.8365 11.8185 40.4796 11.8185H58.0149C58.6582 11.8185 59.1814 12.3419 59.1814 12.9851V23.9447Z" fill="black"/>
<path d="M49.2475 30.5908C47.4736 30.5908 46.0303 32.0342 46.0303 33.8081C46.0303 35.5822 47.4736 37.0254 49.2475 37.0254C51.0215 37.0254 52.4648 35.582 52.4648 33.8081C52.4648 32.0342 51.0215 30.5908 49.2475 30.5908ZM49.2477 34.9746C48.6046 34.9746 48.0812 34.4512 48.0812 33.8081C48.0812 33.165 48.6046 32.6416 49.2477 32.6416C49.8908 32.6416 50.4142 33.165 50.4142 33.8081C50.4142 34.4514 49.8908 34.9746 49.2477 34.9746Z" fill="black"/>
<path d="M58.0151 30.5908C56.2411 30.5908 54.7979 32.0342 54.7979 33.8081C54.7979 35.582 56.2412 37.0254 58.0151 37.0254C59.7891 37.0254 61.2324 35.582 61.2324 33.8081C61.2324 32.0342 59.7891 30.5908 58.0151 30.5908ZM58.0151 34.9747C57.3719 34.9747 56.8486 34.4514 56.8486 33.8082C56.8486 33.1651 57.372 32.6417 58.0151 32.6417C58.6582 32.6417 59.1816 33.1651 59.1816 33.8082C59.1816 34.4514 58.6582 34.9747 58.0151 34.9747Z" fill="black"/>
<path d="M40.48 30.5908C38.706 30.5908 37.2627 32.0342 37.2627 33.8081C37.2627 35.5822 38.706 37.0254 40.48 37.0254C42.2539 37.0254 43.6972 35.582 43.6972 33.8081C43.6972 32.0342 42.2539 30.5908 40.48 30.5908ZM40.4801 34.9746C39.837 34.9746 39.3136 34.4512 39.3136 33.8081C39.3136 33.165 39.837 32.6416 40.4801 32.6416C41.1232 32.6416 41.6466 33.165 41.6466 33.8081C41.6466 34.4514 41.1232 34.9746 40.4801 34.9746Z" fill="black"/>
<path d="M65.6869 0H4.31321C1.93485 0 0 1.93485 0 4.31321V49.7677C0 52.1461 1.93485 54.0811 4.31321 54.0811H23.8232L22.144 60.7979H19.6566C19.0904 60.7979 18.6312 61.257 18.6312 61.8233C18.6312 62.3896 19.0904 62.8487 19.6566 62.8487H50.3434C50.9097 62.8487 51.3688 62.3896 51.3688 61.8233C51.3688 61.257 50.9097 60.7979 50.3434 60.7979H47.856L46.1768 54.0811H65.6868C68.0652 54.0811 70 52.1461 70 49.7677V4.31321C70.0001 1.93485 68.0653 0 65.6869 0ZM65.6869 52.0303H42.6718C42.1055 52.0303 41.6464 52.4894 41.6464 53.0557C41.6464 53.622 42.1055 54.0811 42.6718 54.0811H44.0632L45.7424 60.7979H24.2578L25.937 54.0811H38.2879C38.8542 54.0811 39.3133 53.622 39.3133 53.0557C39.3133 52.4894 38.8542 52.0303 38.2879 52.0303H4.31321C3.06565 52.0303 2.05079 51.0153 2.05079 49.7677V4.31321C2.05079 3.06565 3.06565 2.05079 4.31321 2.05079H65.6868C66.9343 2.05079 67.9492 3.06565 67.9492 4.31321V49.7677C67.9492 51.0153 66.9345 52.0303 65.6869 52.0303Z" fill="black"/>
<path d="M64.591 41.5503H30.5457V33.9073C30.5457 32.5988 29.8398 31.3825 28.7036 30.7334L24.775 28.4885C24.5488 28.3593 24.4082 28.117 24.4082 27.8563V26.0345C26.1269 24.8624 27.2577 22.8894 27.2577 20.6568V18.4649C27.2577 16.2531 26.1473 14.2968 24.4554 13.1208C24.4965 12.8966 24.5177 12.6683 24.5177 12.4371C24.5177 10.3609 22.8287 8.67188 20.7525 8.67188C18.6763 8.67188 16.9871 10.3609 16.9871 12.4371C16.9871 12.6684 17.0088 12.8965 17.05 13.1206C15.358 14.2964 14.2472 16.2529 14.2472 18.4649V20.6568C14.2472 22.8894 15.3782 24.8624 17.0967 26.0345V27.8563C17.0967 28.1169 16.9562 28.3591 16.7298 28.4885L12.8013 30.7334C11.6652 31.3827 10.9593 32.5989 10.9593 33.9073V41.5505H5.40918C4.84289 41.5505 4.38379 42.0096 4.38379 42.5759C4.38379 43.1422 4.84289 43.6013 5.40918 43.6013H64.5909C65.1572 43.6013 65.6163 43.1422 65.6163 42.5759C65.6163 42.0096 65.1573 41.5503 64.591 41.5503ZM20.7527 10.7225C21.6122 10.7225 22.3239 11.3588 22.4466 12.1847C21.9061 12.0389 21.3386 11.9597 20.7527 11.9597C20.1669 11.9597 19.5994 12.0389 19.0589 12.1847C19.1816 11.3588 19.8932 10.7225 20.7527 10.7225ZM20.7527 14.0103C22.9681 14.0103 24.8104 15.6363 25.1503 17.7574C22.0673 17.4938 19.493 16.1602 17.8651 15.0772C18.6433 14.4128 19.6516 14.0103 20.7527 14.0103ZM16.2982 20.6568V18.4648C16.2982 17.8502 16.4233 17.2644 16.6494 16.7313C18.5127 17.9827 21.539 19.5613 25.2071 19.8182V20.6568C25.2071 23.113 23.2088 25.1112 20.7526 25.1112C18.2965 25.1112 16.2982 23.113 16.2982 20.6568ZM23.7578 30.2688L23.9205 30.3618L20.7529 32.56L17.5851 30.3618L17.7477 30.269C18.6113 29.7754 19.1479 28.8509 19.1479 27.8562V26.9611C19.6613 27.0919 20.1989 27.1619 20.7527 27.1619C21.3065 27.1619 21.844 27.0919 22.3576 26.9611V27.8562C22.3576 28.8509 22.8942 29.7755 23.7578 30.2688ZM28.4949 41.5503H26.1619V38.192C26.1619 37.6257 25.7028 37.1666 25.1365 37.1666C24.5702 37.1666 24.1111 37.6257 24.1111 38.192V41.5503H17.3942V38.192C17.3942 37.6257 16.9351 37.1666 16.3689 37.1666C15.8026 37.1666 15.3435 37.6257 15.3435 38.192V41.5503H13.0103V33.9073C13.0103 33.3328 13.3203 32.799 13.819 32.5139L15.6122 31.4892L20.168 34.6505C20.3438 34.7725 20.5482 34.8335 20.7526 34.8335C20.957 34.8335 21.1614 34.7725 21.3372 34.6505L25.893 31.4891L27.6862 32.5138C28.1849 32.7988 28.4949 33.3327 28.4949 33.9072V41.5503Z" fill="#FF5555"/>
</svg>
