<?xml version="1.0" encoding="utf-8"?>
<!-- Generator: Adobe Illustrator 23.0.1, SVG Export Plug-In . SVG Version: 6.00 Build 0)  -->
<svg version="1.1" id="Слой_1" xmlns="http://www.w3.org/2000/svg" xmlns:xlink="http://www.w3.org/1999/xlink" x="0px" y="0px"
	 viewBox="0 0 70 70" style="enable-background:new 0 0 70 70;" xml:space="preserve">
<style type="text/css">
	.st0{fill:#0071B3;}
</style>
<path d="M10.8,31.9h1v-2h-1c-0.7,0-1.3-0.6-1.3-1.3v-1.2c0-0.3-0.1-0.5-0.3-0.7L7.6,25l0.1-0.1l1.5-1.5c0.2-0.2,0.3-0.5,0.3-0.7
	v-1.2c0-0.7,0.6-1.3,1.3-1.3h1v-2h-1c-1.8,0-3.4,1.5-3.4,3.4v0.7l-2,2c-0.4,0.4-0.4,1,0,1.4l2,2v0.7C7.5,30.3,9,31.9,10.8,31.9z"/>
<path d="M25.6,24.3l-2-2v-0.7c0-1.8-1.5-3.4-3.4-3.4h-1v2h1c0.7,0,1.3,0.6,1.3,1.3v1.2c0,0.3,0.1,0.5,0.3,0.7l1.6,1.6l-0.1,0.1
	l-1.5,1.5c-0.2,0.2-0.3,0.5-0.3,0.7v1.2c0,0.7-0.6,1.3-1.3,1.3h-1v2h1c1.8,0,3.4-1.5,3.4-3.4v-0.7l2-2
	C25.9,25.3,25.9,24.7,25.6,24.3z"/>
<rect x="12.1" y="24" width="2" height="2"/>
<rect x="16.8" y="24" width="2" height="2"/>
<rect x="30.1" y="17.6" class="st0" width="13.7" height="2"/>
<rect x="46.1" y="17.6" class="st0" width="4.4" height="2"/>
<rect x="30.1" y="23.6" class="st0" width="6.7" height="2"/>
<rect x="39.1" y="23.6" class="st0" width="6.7" height="2"/>
<rect x="48.1" y="23.6" class="st0" width="11.4" height="2"/>
<rect x="30.1" y="29.6" class="st0" width="6.7" height="2"/>
<rect x="39.5" y="29.6" class="st0" width="25.4" height="2"/>
<rect x="30.1" y="35.6" class="st0" width="6.7" height="2"/>
<rect x="39.1" y="35.6" class="st0" width="20.7" height="2"/>
<path d="M69.9,50.2V5.8c0-3.1-2.6-5.7-5.7-5.7H5.8c-3.1,0-5.7,2.6-5.7,5.7v44.3c0,3.1,2.6,5.7,5.7,5.7h19.8V56l-0.9,7.1h-2.6
	c-1.8,0-3.4,1.5-3.4,3.4s1.5,3.4,3.4,3.4h25.7c1.8,0,3.4-1.5,3.4-3.4s-1.5-3.4-3.4-3.4h-2.6V63l-0.9-7.2h19.8
	C67.3,55.8,69.8,53.3,69.9,50.2z M2.2,5.8c0-2,1.6-3.6,3.6-3.6h58.3c2,0,3.6,1.6,3.6,3.6v3.6H2.2V5.8z M2.2,11.5h65.6v33H2.2V11.5z
	 M47.8,65.2c0.7,0,1.3,0.6,1.3,1.3s-0.6,1.3-1.3,1.3H22.2c-0.7,0-1.3-0.6-1.3-1.3s0.6-1.3,1.3-1.3H47.8z M26.8,63.1v-0.2l0.9-7.1
	h14.5v0.1l0.9,7.2H26.8z M5.8,53.8c-2,0-3.6-1.6-3.6-3.6v-3.7h65.6v3.7c0,2-1.6,3.6-3.6,3.6H5.8z"/>
<rect x="60.8" y="49.1" width="2" height="2"/>
<rect x="7.1" y="4.8" width="2" height="2"/>
<rect x="11.8" y="4.8" width="2" height="2"/>
<rect x="16.5" y="4.8" width="2" height="2"/>
</svg>
