<?xml version="1.0" encoding="utf-8"?>
<!-- Generator: Adobe Illustrator 23.0.1, SVG Export Plug-In . SVG Version: 6.00 Build 0)  -->
<svg version="1.1" id="Слой_1" xmlns="http://www.w3.org/2000/svg" xmlns:xlink="http://www.w3.org/1999/xlink" x="0px" y="0px"
	 width="70px" height="70px" viewBox="0 0 70 70" style="enable-background:new 0 0 70 70;" xml:space="preserve">
<style type="text/css">
	.st0{fill:#0071B3;}
</style>
<path class="st0" d="M55.4,41c1.7,0,3.2-1.5,3.2-3.2c0-0.4-0.5-0.9-0.9-0.9c-0.6,0-0.9,0.5-0.9,0.9c0,0.8-0.6,1.4-1.4,1.4
	S54,38.6,54,37.8c0-0.6-0.5-0.9-0.9-0.9c-0.4,0-0.9,0.5-0.9,0.9C52.2,39.5,53.7,41,55.4,41z"/>
<path class="st0" d="M52.8,59.4L52.8,59.4c4.1-2.2,7.1-5,9.1-8.4c0.1-0.2,0.4-0.4,0.6-0.5l4.6-1.5c1.6-0.5,2.6-1.9,2.6-3.6v-4.8
	c0-1.6-1-3-2.6-3.5l0,0l-2.8-1c-0.4-0.1-0.8-0.4-0.9-0.9c-0.6-1.9-1.5-3.7-2.7-5.4c-0.5-0.7-1.1-1.5-1.8-2.1l0,0l0-0.1
	c0.5-2.3,0.7-4.2,0.6-5.8c0-2.4-0.5-4-1.6-4.6c-0.6-0.3-2.2-1.1-11.2,3c-0.2,0.1-0.4,0.2-0.6,0.4l0,0l-0.1,0c-0.3-0.1-0.7-0.2-1-0.3
	c-0.3-0.1-0.5-0.1-0.8-0.2h-0.3l0.1-0.1c0.8-1.8,1.2-3.5,1.2-5.2c0-0.5-0.3-0.9-0.9-1c-0.5,0-0.9,0.3-1,0.9c-0.1,2.9-1.4,5.8-3.5,8
	c-1.3,1.3-2.8,2.2-4.3,2.7l0,0l0,0c-2.7-0.4-5.5-0.4-8.2,0l0,0l0,0c-1.6-0.6-3-1.5-4.3-2.7c-2.3-2.3-3.5-5.3-3.5-8.5
	c0-3.2,1.2-6.2,3.5-8.5c2.3-2.3,5.3-3.5,8.5-3.5c3.2,0,6.2,1.2,8.5,3.5C40.7,6.7,41.4,7.7,42,9c0.3,0.4,0.8,0.6,1.3,0.5
	c0.3-0.1,0.4-0.2,0.5-0.5c0.1-0.2,0.1-0.5,0-0.7c-0.8-1.5-1.6-2.6-2.6-3.6c-2.6-2.6-6.1-4.1-9.7-4.1c-3.7,0-7.2,1.4-9.7,4.1
	c-2.6,2.6-4.1,6.1-4.1,9.7c0,3.7,1.4,7.2,4.1,9.7c0.9,0.9,1.7,1.5,2.5,2l0.2,0.1l-0.2,0.1c-0.2,0.1-0.5,0.1-0.7,0.2
	c-0.4,0.1-0.8,0.2-1.2,0.4c-0.5,0.2-0.7,0.7-0.6,1.2c0.2,0.5,0.7,0.7,1.2,0.5c5.6-1.9,11.7-1.9,17.3,0c0.1,0,0.1,0,0.2,0.1
	c0,0,0.1,0,0.1,0c0.3,0,0.7-0.3,0.9-0.6c0.2-0.4-0.1-1-0.5-1.2c-0.3-0.1-0.6-0.2-0.9-0.3c-0.3-0.1-0.7-0.2-1-0.3l-0.2-0.1l0.2-0.1
	c1-0.5,1.8-1.3,2.5-2c0.8-0.8,1.3-1.5,1.8-2.2l0-0.1l0.1,0c0.1,0,0.3,0.1,0.4,0.1c0.2,0,0.3,0.1,0.4,0.1c0.2,0,0.4,0.1,0.5,0.1
	c0.2,0,0.3,0.1,0.5,0.1l0.1,0v0.2c-0.5,2.5-0.5,4.4,0.1,6.2c0.5,1.6,1.4,2.9,2.7,3.8c1.4,1,3.2,1.6,4.9,1.6c1.2,0,2.3-0.3,3.1-0.8
	c1-0.5,1.7-1.6,2.4-3.3l0.1-0.1l0.1,0.1c0.3,0.3,0.6,0.7,0.8,1.1c1.1,1.5,1.9,3.1,2.4,4.8c0.3,1,1.1,1.7,2,2l2.9,0.9
	c0.8,0.2,1.4,0.9,1.4,1.8v4.8c0,0.9-0.6,1.6-1.4,1.8l-4.6,1.5c-0.7,0.2-1.4,0.7-1.7,1.4c-1.8,3.1-4.7,5.7-8.5,7.7
	c-0.4,0.2-0.7,0.6-0.8,1l-1.5,7.8c0,0.2-0.2,0.5-0.5,0.5h-4.8c-0.3,0-0.5-0.2-0.5-0.5l-1.1-4.2c-0.2-0.8-0.9-1.3-1.7-1.2
	c-2.4,0.3-4.4,0.5-6.3,0.5c-1.6,0-3.2-0.1-4.7-0.3c-0.1,0-0.1,0-0.2,0c-0.7,0-1.3,0.5-1.5,1.2l-0.8,4.1c0,0.2-0.2,0.5-0.5,0.5h-4.8
	c-0.3,0-0.5-0.2-0.6-0.5l0,0l-1.4-7.4c-0.1-0.5-0.4-0.8-0.7-1c-6.5-3.5-10-9.3-10-16.9c0-3.9,0.8-7.2,2.5-10.1
	c1.5-2.5,3.8-4.8,6.6-6.5c0.5-0.3,0.6-0.8,0.4-1.3c-0.1-0.2-0.3-0.4-0.6-0.5c-0.2-0.1-0.5,0-0.7,0.1c-5.5,3.1-8.9,8.1-9.8,14.4
	l0,0.1H7.6v-0.1c0-0.8-0.1-1.4-0.4-2c-0.6-1.4-1.7-2.4-3-2.6c-1-0.1-2,0.3-2.6,1.2c-0.8,1-0.9,1.9-0.5,2.8c0.5,1,1.7,1.7,3.9,2.2
	l0.2,0l-0.1,0.1c0,0-0.1,0.1-0.1,0.1c0,0.1-0.1,0.1-0.1,0.2c-1.4,1.8-3,2-3.9,2c-0.5,0-0.9,0.4-0.9,1c0,0.6,0.5,0.9,0.9,1l0.2,0
	c1.3,0,3.2-0.5,5.1-2.9c0.3-0.4,0.6-0.8,0.7-1.2l0-0.1h0.1c0.2,0,0.4,0,0.6,0.1l0.1,0v0.1c0,0.3,0,0.6-0.1,0.9c0,0.3,0,0.5,0,0.8
	c0,4.2,1,8,3,11.1c1.7,2.9,4.3,5.3,7.8,7.2l0,0l0,0l1.4,7.2c0.2,1.1,1.2,1.9,2.4,1.9h4.8c1.1,0,2.1-0.8,2.4-1.9l0.7-3.8l0.1,0
	c1.5,0.2,3,0.2,4.5,0.2c2.4,0,4.4-0.1,6.2-0.4l0.1,0l0,0.1l0.7,3.9C42,68.2,43,69,44.2,69H49c1.1,0,2.1-0.8,2.4-1.9L52.8,59.4z
	 M57.6,24.9c-0.4,3.5-1.4,6.3-2.6,6.9c-0.5,0.3-1.4,0.5-2.3,0.5c-1.2,0-2.7-0.3-3.9-1.2c-2.1-1.5-2.8-4.4-2-8c0.1-0.5,0.4-0.8,0.8-1
	c6.4-2.9,8.6-3.1,9.1-3.1h0.4l0,0C57.7,19.5,58,21.7,57.6,24.9z M5.6,37.5l-0.1,0c-1.6-0.4-2.6-0.8-2.8-1.3C2.6,36,2.8,35.6,3,35.3
	c0.2-0.4,0.5-0.4,0.7-0.4h0.1c0.6,0,1.2,0.6,1.6,1.5c0.1,0.3,0.2,0.6,0.2,1V37.5z"/>
<path class="st0" d="M31.9,21.6c0.2,0,0.4-0.2,0.4-0.3v-0.7l0.1,0c2-0.3,3.2-1.6,3.2-3.6c0-2.3-1.6-3.1-3.2-3.7l-0.1,0V9.5l0.1,0
	c0.8,0.1,1.3,0.3,1.6,0.5c0.2,0.1,0.4,0.2,0.6,0.2c0.4,0,0.7-0.6,0.7-0.9c0-0.8-1.7-1.2-2.8-1.2h-0.1V7.5c-0.1-0.2-0.2-0.4-0.5-0.4
	c-0.2,0-0.4,0.2-0.4,0.3v0.7l-0.1,0c-1,0.1-3.3,0.7-3.3,3.2c0,2.2,1.6,2.8,3.2,3.4l0.2,0.1v4.4l-0.1,0c-1.2-0.1-1.8-0.6-2.3-1
	c-0.3-0.2-0.5-0.4-0.6-0.4c-0.3,0-0.7,0.5-0.7,0.9c0,0.8,1.4,2,3.6,2h0.1v0.7C31.5,21.4,31.7,21.6,31.9,21.6z M32.2,15l0.1,0.1
	c0.9,0.4,1.7,0.9,1.7,2.1c0,1.1-0.5,1.7-1.7,1.9l-0.1,0V15z M31.5,13c-1-0.4-1.8-0.7-1.8-1.9c0-0.9,0.7-1.5,1.8-1.6l0.1,0V13
	L31.5,13z"/>
</svg>
