<?xml version="1.0" encoding="utf-8"?>
<!-- Generator: Adobe Illustrator 22.1.0, SVG Export Plug-In . SVG Version: 6.00 Build 0)  -->
<svg version="1.1" id="ror.svg" xmlns="http://www.w3.org/2000/svg" xmlns:xlink="http://www.w3.org/1999/xlink" x="0px" y="0px"
	 viewBox="0 0 132.2 55" style="enable-background:new 0 0 132.2 55;" xml:space="preserve">
<style type="text/css">
	.st0{fill:#3F597E;fill-opacity:0;}
	.st1{opacity:0.8;fill:#FFFFFF;enable-background:new    ;}
	.st2{opacity:0.6;fill:#FFFFFF;enable-background:new    ;}
	.st3{opacity:0.45;fill:#FFFFFF;enable-background:new    ;}
	.st4{opacity:0.3;fill:#FFFFFF;enable-background:new    ;}
	.st5{fill:#FFFFFF;}
	.st6{font-family:'COCOMAT-Light';}
	.st7{font-size:17.6645px;}
</style>
<rect id="Прямоугольник_1" class="st0" width="131.8" height="55"/>
<g>
	<title>vyper</title>
	<polygon class="st1" points="40.7,27.5 34.5,38.3 34.5,38.3 40.7,49.2 47,38.3 47,38.3 	"/>
	<polygon class="st2" points="47,16.7 40.7,27.5 40.7,27.5 47,38.3 53.3,27.5 53.3,27.5 	"/>
	<polygon class="st2" points="34.5,16.7 28.2,27.5 28.2,27.5 34.5,38.3 40.7,27.5 40.7,27.5 	"/>
	<polygon class="st3" points="53.3,5.8 47,16.7 47,16.7 53.3,27.5 59.5,16.7 59.5,16.7 	"/>
	<polygon class="st3" points="43.9,11.2 37.6,11.2 34.5,16.7 34.5,16.7 40.7,27.5 47,16.7 	"/>
	<polygon class="st3" points="28.2,5.8 22,16.7 22,16.7 28.2,27.5 34.5,16.7 34.5,16.7 	"/>
	<polygon class="st4" points="59.5,16.7 65.8,5.8 53.3,5.8 	"/>
	<polygon class="st4" points="22,16.7 28.2,5.8 15.7,5.8 	"/>
	<text transform="matrix(1 0 0 1 69.1086 35.0482)" class="st5 st6 st7">v</text>
	<text transform="matrix(1 0 0 1 78.0119 35.0482)" class="st5 st6 st7">yper</text>
</g>
</svg>
