<svg width="69" height="70" viewBox="0 0 69 70" fill="none" xmlns="http://www.w3.org/2000/svg">
<path d="M19.3934 59.7361L15.2409 57.66C15.2168 57.648 15.2018 57.6238 15.2018 57.5968L15.202 55.5098C16.9066 54.3361 18.1132 52.4805 18.4151 50.3029C19.1818 48.9779 19.5858 47.4814 19.5858 45.9597C19.5858 43.1221 18.2194 40.598 16.1105 39.0096C16.2341 38.598 16.298 38.1732 16.298 37.7401C16.298 35.0596 13.8713 32.8789 10.8888 32.8789C7.90631 32.8789 5.47969 35.0596 5.47969 37.7401C5.47969 38.1739 5.54285 38.5988 5.66645 39.0102C3.55797 40.5987 2.19187 43.1226 2.19187 45.9597C2.19187 47.4814 2.59615 48.9782 3.3626 50.3029C3.66447 52.4805 4.87102 54.3361 6.57562 55.5098V57.5967C6.57562 57.6236 6.56072 57.6478 6.53666 57.6599L2.38424 59.7361C0.913555 60.4713 0 61.9497 0 63.594V68.9747C0 69.541 0.459102 70.0001 1.02539 70.0001C1.59168 70.0001 2.05078 69.541 2.05078 68.9747V63.594C2.05078 62.7314 2.52998 61.9561 3.30135 61.5704L6.72643 59.8579L9.86357 62.8392V68.9747C9.86357 69.541 10.3227 70.0001 10.889 70.0001C11.4553 70.0001 11.9144 69.541 11.9144 68.9747V62.839L15.0514 59.8579L18.4764 61.5703C19.2479 61.956 19.7271 62.7314 19.7271 63.594V68.9747C19.7271 69.541 20.1863 70.0001 20.7525 70.0001C21.3188 70.0001 21.7779 69.541 21.7779 68.9747V63.594C21.7778 61.9497 20.8642 60.4713 19.3934 59.7361ZM10.8888 34.9295C12.7405 34.9295 14.2472 36.1904 14.2472 37.7399C14.2472 37.8049 14.242 37.8693 14.2368 37.9337C13.2057 37.5019 12.0747 37.2627 10.8888 37.2627C9.70307 37.2627 8.57226 37.5019 7.54141 37.9335C7.53621 37.8691 7.53047 37.805 7.53047 37.7399C7.53047 36.1902 9.03711 34.9295 10.8888 34.9295ZM10.8888 60.9843L8.37717 58.5975C8.53795 58.2962 8.62627 57.9545 8.62627 57.5966V56.5054C9.34254 56.7277 10.1021 56.8486 10.8888 56.8486C11.6754 56.8486 12.4351 56.7277 13.1511 56.5055L13.151 57.5964C13.151 57.9545 13.2393 58.2963 13.4002 58.5978L10.8888 60.9843ZM10.8888 54.7977C8.04986 54.7978 5.67861 52.6718 5.37318 49.8525C5.35678 49.7015 5.30715 49.556 5.22758 49.4265C4.58322 48.3771 4.24252 47.1782 4.24252 45.9596C4.24252 42.2949 7.22408 39.3133 10.8888 39.3133C14.5536 39.3133 17.5351 42.2949 17.5351 45.9596C17.5351 46.6662 17.4199 47.3658 17.198 48.0339C14.2864 45.0759 9.16453 43.9168 8.91762 43.8623C8.60658 43.7937 8.28037 43.8507 8.03619 44.0559C7.79502 44.259 7.66021 44.5388 7.67115 44.853C7.66336 44.9525 7.58584 45.6205 6.876 46.3305C6.47555 46.731 6.47555 47.3801 6.876 47.7806C7.27645 48.181 7.92572 48.181 8.32603 47.7806C8.90271 47.2039 9.24137 46.6186 9.44029 46.1244C11.1657 46.6369 14.7468 47.9314 16.3539 50.2034C15.8978 52.846 13.6086 54.7977 10.8888 54.7977Z" fill="#0071B3"/>
<path d="M5.40869 64.9209C4.8424 64.9209 4.3833 65.38 4.3833 65.9463V68.9752C4.3833 69.5414 4.8424 70.0005 5.40869 70.0005C5.97498 70.0005 6.43408 69.5414 6.43408 68.9752V65.9463C6.43408 65.38 5.97498 64.9209 5.40869 64.9209Z" fill="#0071B3"/>
<path d="M16.3691 64.9209C15.8029 64.9209 15.3438 65.38 15.3438 65.9463V68.9752C15.3438 69.5414 15.8029 70.0005 16.3691 70.0005C16.9354 70.0005 17.3945 69.5414 17.3945 68.9752V65.9463C17.3945 65.38 16.9354 64.9209 16.3691 64.9209Z" fill="#0071B3"/>
<path d="M46.5098 54.9578L34.9292 47.5884V36.0957C34.9292 35.5294 34.4701 35.0703 33.9038 35.0703C33.3375 35.0703 32.8784 35.5294 32.8784 36.0957V47.5884L21.2978 54.9578C20.82 55.2619 20.6792 55.8956 20.9832 56.3734C21.1787 56.6805 21.5104 56.8484 21.8493 56.8484C22.0376 56.8484 22.2282 56.7966 22.3988 56.6879L33.9038 49.3666L45.4088 56.6879C45.8867 56.9921 46.5204 56.8511 46.8244 56.3734C47.1285 55.8956 46.9875 55.2619 46.5098 54.9578Z" fill="#0071B3"/>
<path d="M42.4085 22.4736L39.7606 21.1497C41.3133 20.793 42.4774 20.3487 43.2536 19.9912C44.2712 19.5226 44.7414 18.3691 44.3473 17.3083C43.4462 14.882 42.7412 10.6334 42.5984 8.62449C42.2491 3.70768 38.5112 0 33.9041 0C29.2969 0 25.5591 3.70768 25.2096 8.62436C25.0669 10.6334 24.3618 14.8818 23.4607 17.3082C23.0667 18.369 23.5369 19.5225 24.5545 19.991C25.3313 20.3488 26.4952 20.793 28.0472 21.1496L25.3994 22.4736C23.9287 23.209 23.0151 24.6872 23.0151 26.3315V31.7122C23.0151 32.2785 23.4742 32.7376 24.0405 32.7376C24.6068 32.7376 25.0659 32.2785 25.0659 31.7122V26.3315C25.0659 25.4691 25.5451 24.6936 26.3165 24.3079L29.7416 22.5954L30.9328 23.7274C31.7658 24.519 32.835 24.9149 33.904 24.9149C34.9731 24.9149 36.0422 24.5191 36.8753 23.7274L38.0664 22.5954L41.4914 24.3078C42.2629 24.6935 42.7421 25.4689 42.7421 26.3315V31.7122C42.7421 32.2785 43.2012 32.7376 43.7675 32.7376C44.3338 32.7376 44.7929 32.2785 44.7929 31.7122V26.3315C44.7929 24.6872 43.8792 23.2088 42.4085 22.4736ZM29.5908 19.3699C27.6465 19.0311 26.2633 18.5201 25.4122 18.1281C25.3566 18.1027 25.3782 18.0355 25.3831 18.0223C25.8202 16.8454 26.2087 15.3121 26.5191 13.7806C26.9658 15.6168 28.0803 17.1939 29.5908 18.2388V19.3699ZM35.4626 22.2407C34.5888 23.0713 33.2195 23.0713 32.3455 22.2407L31.3924 21.335C31.5532 21.0336 31.6415 20.692 31.6415 20.334V19.2421C32.3564 19.4655 33.1165 19.5859 33.904 19.5859C34.6906 19.5859 35.4502 19.4649 36.1664 19.2428L36.1662 20.3339C36.1662 20.692 36.2546 21.0338 36.4153 21.3352L35.4626 22.2407ZM33.904 17.5351C30.8435 17.5351 28.3536 15.0452 28.3536 11.9848C28.3536 11.4185 27.8945 10.9594 27.3282 10.9594C27.2131 10.9594 27.1028 10.9792 26.9995 11.0142C27.1245 10.1511 27.2121 9.37412 27.2551 8.76955C27.386 6.92822 28.122 5.231 29.3273 3.99109C30.5435 2.73984 32.1689 2.05078 33.9041 2.05078C35.6393 2.05078 37.2646 2.73984 38.4809 3.99109C39.6862 5.23113 40.4222 6.92822 40.553 8.76982C40.5991 9.41801 40.6967 10.2648 40.8364 11.2031C39.732 9.32695 37.9395 7.95115 35.5826 7.19387C33.5265 6.53324 31.7577 6.57385 31.6836 6.57617C31.4151 6.58356 31.1603 6.69607 30.9739 6.8894L29.1245 8.80729C28.7315 9.21498 28.7432 9.86412 29.1509 10.2572C29.5586 10.6503 30.2078 10.6384 30.6008 10.2308L32.1389 8.6357C32.7064 8.66401 33.8102 8.77065 35.0118 9.16453C37.1219 9.85633 38.5922 11.0943 39.386 12.8464C38.969 15.537 36.6562 17.5351 33.904 17.5351ZM38.2173 18.2484C39.7256 17.21 40.8422 15.6369 41.2888 13.78C41.5992 15.3117 41.9877 16.8454 42.4249 18.0225C42.43 18.0355 42.4516 18.1027 42.3958 18.1284C41.5457 18.5199 40.1623 19.031 38.2172 19.37L38.2173 18.2484Z" fill="#0071B3"/>
<path d="M28.4238 27.6582C27.8575 27.6582 27.3984 28.1173 27.3984 28.6836V31.7126C27.3984 32.2789 27.8575 32.738 28.4238 32.738C28.9901 32.738 29.4492 32.2789 29.4492 31.7126V28.6836C29.4492 28.1173 28.9901 27.6582 28.4238 27.6582Z" fill="#0071B3"/>
<path d="M39.3833 27.6582C38.817 27.6582 38.3579 28.1173 38.3579 28.6836V31.7126C38.3579 32.2789 38.817 32.738 39.3833 32.738C39.9496 32.738 40.4087 32.2789 40.4087 31.7126V28.6836C40.4087 28.1173 39.9496 27.6582 39.3833 27.6582Z" fill="#0071B3"/>
<path d="M60.666 43.9464C58.2849 42.7559 53.8206 42.7422 53.6317 42.7422C53.0655 42.7422 52.6066 43.201 52.6064 43.7673C52.6063 44.3335 53.0651 44.7927 53.6314 44.793C54.7849 44.7937 58.1326 44.9725 59.7489 45.7808C59.8962 45.8543 60.0526 45.8892 60.2066 45.8892C60.5828 45.8892 60.9449 45.6814 61.1246 45.3221C61.3779 44.8155 61.1726 44.1996 60.666 43.9464Z" fill="#0071B3"/>
<path d="M65.7745 58.5401L62.077 57.4837C61.5788 57.3413 61.231 56.8801 61.231 56.3619L61.2311 55.5066C61.5755 55.268 61.9039 55.001 62.211 54.7029C63.6993 53.2586 64.5189 51.3212 64.5189 49.2477V47.2978L64.9281 46.4795C65.3775 45.5809 65.6149 44.575 65.6149 43.5702V38.2881C65.6149 37.7218 65.1558 37.2627 64.5895 37.2627H54.7259C51.1389 37.2627 48.2207 40.181 48.2207 43.7679V43.829C48.2207 44.6644 48.4181 45.5008 48.7917 46.2481L49.3166 47.2978V48.972C49.3166 51.6251 50.6241 54.0058 52.6044 55.4385V56.362C52.6044 56.8801 52.2566 57.3413 51.7584 57.4837L48.0611 58.5401C46.2192 59.0663 44.9329 60.7719 44.9329 62.6875V68.9749C44.9329 69.5412 45.392 70.0003 45.9583 70.0003C46.5245 70.0003 46.9836 69.5412 46.9836 68.9749V62.6873C46.9836 61.6824 47.6585 60.7879 48.6245 60.5119L52.3217 59.4554C52.6426 59.3637 52.9397 59.2225 53.2084 59.044L53.8677 59.7034C54.7085 60.5443 55.8131 60.9647 56.9176 60.9647C58.0222 60.9647 59.1267 60.5443 59.9675 59.7034L60.6267 59.0443C60.8953 59.2227 61.1924 59.364 61.5133 59.4557L65.2108 60.5121C66.1769 60.7882 66.8517 61.6827 66.8517 62.6876V68.9749C66.8517 69.5412 67.3108 70.0003 67.8771 70.0003C68.4434 70.0003 68.9025 69.5412 68.9025 68.9749V62.6873C68.9029 60.7716 67.6166 59.0662 65.7745 58.5401ZM58.5179 58.2533C57.6357 59.1354 56.2004 59.1354 55.3182 58.2533L54.4768 57.4119C54.5793 57.1177 54.638 56.8058 54.6504 56.4851C55.2971 56.6978 55.9792 56.824 56.6851 56.8452C56.764 56.8475 56.8424 56.8487 56.921 56.8487C57.7009 56.8487 58.4621 56.7306 59.1863 56.5053C59.2006 56.8189 59.2587 57.124 59.3592 57.412L58.5179 58.2533ZM56.7466 54.7954C53.7806 54.7064 51.3677 52.0941 51.3677 48.972V47.0557C51.3677 46.8966 51.3306 46.7395 51.2594 46.5972L50.6264 45.3309C50.3944 44.8669 50.2717 44.3476 50.2717 43.8289V43.7678C50.2717 41.3116 52.27 39.3133 54.7262 39.3133H63.5643V43.5701C63.5643 44.2579 63.4018 44.9468 63.0942 45.5622L62.5767 46.5972C62.5055 46.7396 62.4684 46.8966 62.4684 47.0557V49.2476C62.4684 50.7618 61.8699 52.1764 60.7829 53.2312C59.6967 54.2854 58.2616 54.8408 56.7466 54.7954Z" fill="#0071B3"/>
<path d="M50.3438 63.5654C49.7775 63.5654 49.3184 64.0245 49.3184 64.5908V68.9746C49.3184 69.5409 49.7775 70 50.3438 70C50.91 70 51.3691 69.5409 51.3691 68.9746V64.5908C51.3691 64.0244 50.91 63.5654 50.3438 63.5654Z" fill="#0071B3"/>
<path d="M63.4946 63.5654C62.9283 63.5654 62.4692 64.0245 62.4692 64.5908V68.9746C62.4692 69.5409 62.9283 70 63.4946 70C64.0609 70 64.52 69.5409 64.52 68.9746V64.5908C64.52 64.0244 64.0609 63.5654 63.4946 63.5654Z" fill="#0071B3"/>
</svg>
