<svg width="70" height="70" viewBox="0 0 70 70" fill="none" xmlns="http://www.w3.org/2000/svg">
<path d="M64.1211 0H61.1816C60.6155 0 60.1562 0.458756 60.1562 1.02539C60.1562 1.59203 60.6155 2.05078 61.1816 2.05078H64.1211C66.2317 2.05078 67.9492 3.7635 67.9492 5.86929V11.1084C66.9196 10.224 65.5823 9.68781 64.1211 9.68781H45.5957V7.75078C45.5957 7.03087 45.1882 6.39854 44.5319 6.10054C43.8739 5.80254 43.1289 5.91255 42.5858 6.38733L38.8126 9.68781H31.1868L27.4148 6.38786C26.8716 5.91255 26.1261 5.80254 25.4687 6.10107C24.8123 6.39854 24.4043 7.0314 24.4043 7.75131V9.68781H9.42879V2.05078H56.7725C57.3386 2.05078 57.7979 1.59203 57.7979 1.02539C57.7979 0.458756 57.3386 0 56.7725 0H5.86929C2.6329 0 0 2.6329 0 5.86929V17.3531C0 17.9192 0.45929 18.3785 1.02539 18.3785C1.59149 18.3785 2.05078 17.9192 2.05078 17.3531V10.3244C2.07535 10.3452 2.10045 10.365 2.12555 10.3858C2.13463 10.3933 2.14371 10.4008 2.15332 10.4082C2.21954 10.4627 2.28683 10.5161 2.35519 10.5674C2.35786 10.5695 2.36107 10.5717 2.36374 10.5738C2.89833 10.9738 3.4922 11.2772 4.12399 11.4737C4.12666 11.4742 4.12987 11.4753 4.13307 11.4764C4.21585 11.502 4.29863 11.5255 4.38248 11.5474C4.40544 11.5533 4.42787 11.5586 4.4503 11.5639C4.51492 11.58 4.58008 11.5955 4.64523 11.6093C4.67834 11.6163 4.71146 11.6227 4.74457 11.6291C4.80064 11.6398 4.85672 11.6499 4.91333 11.6595C4.95178 11.6654 4.99023 11.6718 5.02869 11.6772C5.08209 11.6852 5.13603 11.6916 5.18997 11.698C5.22949 11.7023 5.26901 11.7071 5.30907 11.7108C5.36835 11.7167 5.42816 11.721 5.48798 11.7247C5.52109 11.7268 5.5542 11.7295 5.58731 11.7311C5.68451 11.7359 5.78117 11.7386 5.87891 11.7386H24.4043V16.0645H14.4922C13.9261 16.0645 13.4668 16.5237 13.4668 17.0898V29.229C12.2732 29.6525 11.416 30.7922 11.416 32.1289C11.416 33.8251 12.796 35.2051 14.4922 35.2051C16.1884 35.2051 17.5684 33.8251 17.5684 32.1289C17.5684 30.7922 16.7112 29.6525 15.5176 29.229V18.1152H24.4043V19.2731C24.4043 19.7948 24.6297 20.2921 25.0233 20.6365L33.8032 28.32C34.1444 28.618 34.5717 28.767 34.9989 28.767C35.4267 28.767 35.854 28.618 36.1947 28.32L44.9773 20.6365C45.3703 20.2921 45.5957 19.7954 45.5957 19.2731V18.1152H57.1196C57.5431 19.3089 58.6828 20.166 60.0195 20.166C61.7157 20.166 63.0957 18.786 63.0957 17.0898C63.0957 15.3937 61.7157 14.0137 60.0195 14.0137C58.6828 14.0137 57.5431 14.8708 57.1196 16.0645H45.5957V11.7386H64.1211C66.2317 11.7386 67.9492 13.4518 67.9492 15.5571V22.9688H59.8716C57.5404 22.9688 55.6445 24.8647 55.6445 27.1958V35.8315C55.6445 38.1627 57.5404 40.0586 59.8716 40.0586H67.9492V47.0409C67.9492 49.1461 66.2317 50.8594 64.1211 50.8594H54.4781C54.4798 50.7456 54.4824 50.6319 54.4824 50.5176C54.4824 45.4536 52.5486 40.6557 49.0377 37.0081C48.6452 36.6 47.9958 36.5878 47.5883 36.9808C47.1803 37.3734 47.1674 38.0222 47.5605 38.4303C50.7018 41.6939 52.4316 45.9861 52.4316 50.5176C52.4316 60.1295 44.612 67.9492 35 67.9492C25.388 67.9492 17.5684 60.1295 17.5684 50.5176C17.5684 40.9056 25.388 33.0859 35 33.0859C38.4254 33.0859 41.7403 34.0782 44.5863 35.956C45.059 36.2679 45.695 36.1375 46.0069 35.6649C46.3188 35.1923 46.1885 34.5562 45.7159 34.2443C42.5334 32.1449 38.8281 31.0352 35 31.0352C24.2574 31.0352 15.5176 39.775 15.5176 50.5176C15.5176 50.6319 15.5197 50.7456 15.5219 50.8594H5.87891C3.76831 50.8594 2.05078 49.1467 2.05078 47.0409V21.875C2.05078 21.3084 1.59149 20.8496 1.02539 20.8496C0.45929 20.8496 0 21.3084 0 21.875V47.0409C0 50.2773 2.63718 52.9102 5.87891 52.9102H15.6644C16.8479 62.528 25.0676 70 35 70C44.9324 70 53.1521 62.528 54.3356 52.9102H64.1211C67.3628 52.9102 70 50.2773 70 47.0409V5.86929C70 2.6329 67.3628 0 64.1211 0ZM7.37801 2.05078V9.68727H5.86929C5.80574 9.68727 5.74272 9.68567 5.68024 9.68246C5.64285 9.68086 5.606 9.67766 5.56862 9.67445C5.54352 9.67285 5.51842 9.67125 5.49332 9.66911C5.44579 9.66431 5.39879 9.6579 5.35126 9.65149C5.3363 9.64935 5.32135 9.64775 5.30586 9.64561C5.25993 9.63921 5.214 9.63066 5.16861 9.62212C5.15205 9.61891 5.1355 9.61624 5.11894 9.61304C5.07782 9.60503 5.03777 9.59541 4.99718 9.5858C4.97581 9.58099 4.95392 9.57619 4.93256 9.57085C4.89891 9.5623 4.8658 9.55269 4.83215 9.54308C4.80438 9.5356 4.77608 9.52812 4.74884 9.51958C4.72214 9.51157 4.6965 9.50249 4.67033 9.49394C4.63615 9.48273 4.60144 9.47151 4.56779 9.45923C4.54857 9.45229 4.52934 9.44427 4.51012 9.4368C4.47006 9.42131 4.43054 9.40636 4.39102 9.3898C4.37767 9.38393 4.36378 9.37752 4.35043 9.37164C4.30664 9.35242 4.26285 9.33319 4.22012 9.31236C4.20998 9.30756 4.19983 9.30222 4.19022 9.29741C4.14429 9.27498 4.09889 9.25201 4.05457 9.22798C4.04549 9.22318 4.03641 9.21783 4.02786 9.21303C3.983 9.18793 3.93867 9.16283 3.89488 9.13612C3.88313 9.12918 3.87192 9.1217 3.8607 9.11476C3.82065 9.08966 3.78059 9.06456 3.74107 9.03786C3.72185 9.02504 3.70262 9.01062 3.6834 8.99727C3.65349 8.97591 3.62305 8.95508 3.59314 8.93318C3.55682 8.90594 3.52104 8.87764 3.48526 8.8488C3.47404 8.83972 3.46176 8.83118 3.45055 8.82156C3.35388 8.74199 3.26042 8.65761 3.1707 8.56789C3.08311 8.4803 3.00034 8.38951 2.92236 8.29552C2.45773 7.73209 2.15118 7.03354 2.07161 6.26823C2.07108 6.26503 2.07054 6.26129 2.07001 6.25809C2.06467 6.20308 2.06093 6.14754 2.05772 6.092C2.05719 6.08238 2.05559 6.0733 2.05559 6.06369C2.05238 5.9996 2.05078 5.93445 2.05078 5.86929C2.05078 3.7635 3.76831 2.05078 5.87891 2.05078H7.37801ZM14.4922 33.1543C13.9266 33.1543 13.4668 32.6945 13.4668 32.1289C13.4668 31.5633 13.9266 31.1035 14.4922 31.1035C15.0578 31.1035 15.5176 31.5633 15.5176 32.1289C15.5176 32.6945 15.0578 33.1543 14.4922 33.1543ZM60.0195 16.0645C60.5851 16.0645 61.0449 16.5243 61.0449 17.0898C61.0449 17.6554 60.5851 18.1152 60.0195 18.1152C59.454 18.1152 58.9941 17.6554 58.9941 17.0898C58.9941 16.5243 59.454 16.0645 60.0195 16.0645ZM36.4676 11.7386L34.9989 13.0235L33.5308 11.7386H36.4676ZM43.5449 19.1641L34.9989 26.6409L26.4551 19.1641V8.27362L33.8037 14.7026C34.4852 15.2986 35.5132 15.2986 36.1947 14.7026L43.5449 8.27309V19.1641ZM59.8716 38.0078C58.6716 38.0078 57.6953 37.0316 57.6953 35.8315V27.1958C57.6953 25.9958 58.6716 25.0195 59.8716 25.0195H67.9492V38.0078H59.8716Z" fill="#0071B3"/>
<path d="M62.0703 27.7539C61.5042 27.7539 61.0449 28.2127 61.0449 28.7793V34.248C61.0449 34.8147 61.5042 35.2734 62.0703 35.2734C62.6364 35.2734 63.0957 34.8147 63.0957 34.248V28.7793C63.0957 28.2127 62.6364 27.7539 62.0703 27.7539Z" fill="#0071B3"/>
<path d="M35 35.1367C29.3491 35.1367 24.4011 38.2006 21.7276 42.7534C21.711 42.7775 21.6945 42.8015 21.6795 42.8271C21.6689 42.8458 21.6598 42.8656 21.6502 42.8848C20.3583 45.1353 19.6191 47.7415 19.6191 50.5176C19.6191 53.2936 20.3583 55.8998 21.6502 58.1503C21.6598 58.1696 21.6689 58.1893 21.6795 58.208C21.6902 58.2262 21.7025 58.2417 21.7137 58.2587C22.5757 59.7322 23.6748 61.0503 24.9597 62.16C25.004 62.2177 25.0553 62.2722 25.1135 62.3213C25.1701 62.3689 25.2316 62.4073 25.2946 62.4404C27.944 64.6007 31.323 65.8984 35 65.8984C38.677 65.8984 42.0565 64.6007 44.7054 62.4404C44.7684 62.4068 44.8299 62.3689 44.8865 62.3213C44.9447 62.2722 44.996 62.2177 45.0403 62.16C46.3252 61.0503 47.4243 59.7322 48.2863 58.2587C48.2975 58.2417 48.3098 58.2262 48.3205 58.208C48.3311 58.1888 48.3402 58.1696 48.3498 58.1503C49.6417 55.8998 50.3809 53.2936 50.3809 50.5176C50.3809 47.7415 49.6417 45.1353 48.3498 42.8848C48.3402 42.8651 48.3311 42.8458 48.3205 42.8271C48.3055 42.8015 48.289 42.7769 48.2724 42.7534C45.5989 38.2006 40.6509 35.1367 35 35.1367ZM44.3038 60.0537C43.9294 59.7322 43.3676 59.7178 42.9772 60.0457C42.5868 60.3731 42.503 60.929 42.7551 61.3531C42.0506 61.8588 41.2955 62.2973 40.4987 62.6599C40.2621 62.2166 39.7307 62.003 39.2447 62.1793C38.7582 62.3566 38.4885 62.8629 38.5931 63.3553C37.7632 63.5876 36.9007 63.7424 36.0142 63.8092C35.9442 63.3109 35.5175 62.928 35 62.928C34.4825 62.928 34.0558 63.3115 33.9858 63.8092C33.0993 63.7424 32.2368 63.5876 31.4069 63.3553C31.5115 62.8629 31.2418 62.3566 30.7553 62.1793C30.2693 62.0025 29.7379 62.2166 29.5013 62.6599C28.704 62.2973 27.9488 61.8588 27.2449 61.3531C27.4965 60.9285 27.4132 60.3731 27.0228 60.0457C26.6324 59.7178 26.07 59.7322 25.6962 60.0537C25.0671 59.4401 24.4983 58.765 24 58.0382C24.3925 57.7279 24.51 57.1693 24.2521 56.7228C23.9936 56.2747 23.4489 56.0974 22.9832 56.2843C22.6067 55.5035 22.3044 54.6806 22.0849 53.8245C22.5639 53.6696 22.8678 53.182 22.7781 52.6725C22.6884 52.163 22.2366 51.8095 21.734 51.8266C21.6918 51.3961 21.6694 50.9592 21.6694 50.5176C21.6694 50.0759 21.6918 49.6391 21.734 49.2086C21.7458 49.2086 21.7575 49.2097 21.7693 49.2097C22.2574 49.2097 22.69 48.8599 22.7781 48.3627C22.8678 47.8526 22.5639 47.3656 22.0849 47.2102C22.3044 46.3546 22.6061 45.5316 22.9826 44.7508C23.106 44.801 23.2352 44.8251 23.3634 44.8251C23.7175 44.8251 24.062 44.6413 24.2521 44.3124C24.51 43.8659 24.3925 43.3073 24 42.9964C24.4924 42.2787 25.0532 41.6111 25.6732 41.0033C25.8665 41.1801 26.1143 41.2714 26.3643 41.2714C26.5966 41.2714 26.8305 41.1929 27.0228 41.0316C27.4217 40.6963 27.5008 40.1221 27.2268 39.6949C27.9366 39.1838 28.6976 38.7405 29.5013 38.3747C29.6813 38.7128 30.0322 38.9173 30.4044 38.9173C30.5209 38.9173 30.6394 38.8976 30.7553 38.8554C31.2413 38.6786 31.5115 38.1718 31.4069 37.6799C32.2368 37.4471 33.0993 37.2927 33.9858 37.2254C34.0558 37.7237 34.4825 38.1071 35 38.1071C35.517 38.1071 35.9437 37.7237 36.0142 37.2254C36.9007 37.2927 37.7632 37.4471 38.5931 37.6799C38.4885 38.1718 38.7582 38.6786 39.2447 38.8554C39.3606 38.8976 39.4786 38.9173 39.595 38.9173C39.9673 38.9173 40.3181 38.7128 40.4987 38.3747C41.3024 38.7405 42.0634 39.1838 42.7727 39.6949C42.4992 40.1221 42.5777 40.6963 42.9772 41.0316C43.1695 41.1929 43.4034 41.2714 43.6357 41.2714C43.8851 41.2714 44.1329 41.1801 44.3262 41.0033C44.9463 41.6111 45.507 42.2787 45.9995 42.9964C45.6069 43.3073 45.49 43.8659 45.7474 44.3124C45.9375 44.6413 46.282 44.8251 46.6366 44.8251C46.7642 44.8251 46.8935 44.8005 47.0174 44.7508C47.3933 45.5316 47.6956 46.3546 47.9146 47.2102C47.4361 47.3656 47.1317 47.8526 47.2219 48.3627C47.3095 48.8599 47.7421 49.2097 48.2302 49.2097C48.242 49.2097 48.2542 49.2086 48.266 49.2086C48.3082 49.6391 48.3301 50.0759 48.3301 50.5176C48.3301 50.9592 48.3082 51.3961 48.2655 51.8266C47.7629 51.8095 47.3116 52.163 47.2219 52.6725C47.1317 53.182 47.4361 53.6696 47.9146 53.8245C47.6951 54.6806 47.3928 55.5035 47.0168 56.2843C46.5506 56.0974 46.0059 56.2747 45.7474 56.7228C45.49 57.1687 45.6069 57.7279 45.9995 58.0382C45.5012 58.765 44.9324 59.4401 44.3038 60.0537Z" fill="#0071B3"/>
<path d="M34.9979 45.6432C34.9984 45.6432 34.9995 45.6438 35.0005 45.6438C35.0011 45.6438 35.0021 45.6432 35.0027 45.6432C36.019 45.6448 36.8457 46.5079 36.8457 47.568C36.8457 48.1341 37.305 48.5934 37.8711 48.5934C38.4372 48.5934 38.8965 48.1341 38.8965 47.568C38.8965 45.7378 37.6783 44.1938 36.0259 43.7334V43.5449C36.0259 42.9783 35.5666 42.5195 35.0005 42.5195C34.4339 42.5195 33.9751 42.9783 33.9751 43.5449V43.7329C32.3222 44.1933 31.1035 45.7378 31.1035 47.568C31.1035 49.7598 32.8515 51.5435 35 51.5435C36.0179 51.5435 36.8457 52.4065 36.8457 53.4677C36.8457 54.5289 36.0179 55.3925 35 55.3925C33.9821 55.3925 33.1543 54.5289 33.1543 53.4677C33.1543 52.9011 32.695 52.4423 32.1289 52.4423C31.5628 52.4423 31.1035 52.9011 31.1035 53.4677C31.1035 55.2979 32.3222 56.8424 33.9751 57.3028V57.4902C33.9751 58.0569 34.4339 58.5156 35.0005 58.5156C35.5666 58.5156 36.0259 58.0569 36.0259 57.4902V57.3022C37.6783 56.8414 38.8965 55.2974 38.8965 53.4677C38.8965 51.2759 37.1485 49.4927 35 49.4927C33.9821 49.4927 33.1543 48.6292 33.1543 47.568C33.1543 46.5073 33.981 45.6448 34.9979 45.6432Z" fill="#0071B3"/>
</svg>
