<svg width="70" height="70" viewBox="0 0 70 70" fill="none" xmlns="http://www.w3.org/2000/svg">
<path d="M38.4999 45.5007C39.1451 45.5007 39.6665 44.9781 39.6665 44.3341V28.0007H43.1665C46.383 28.0007 48.9999 25.3839 48.9999 22.1674C48.9999 18.9509 46.3831 16.334 43.1665 16.334C39.9501 16.334 37.3331 18.9508 37.3331 22.1674V25.6674H32.6665V22.1674C32.6665 18.9509 30.0497 16.334 26.8331 16.334C23.6167 16.334 20.9998 18.9508 20.9998 22.1674C20.9998 25.3838 23.6166 28.0007 26.8331 28.0007H30.3331V44.3341C30.3331 44.9781 30.8558 45.5007 31.4998 45.5007C32.1437 45.5007 32.6664 44.9781 32.6664 44.3341V28.0007H37.333V44.3341C37.3333 44.9781 37.8547 45.5007 38.4999 45.5007ZM39.6665 22.1674C39.6665 20.2377 41.2369 18.6674 43.1665 18.6674C45.0962 18.6674 46.6665 20.2377 46.6665 22.1674C46.6665 24.097 45.0962 25.6674 43.1665 25.6674H39.6665V22.1674ZM30.3333 25.6674H26.8333C24.9036 25.6674 23.3333 24.097 23.3333 22.1674C23.3333 20.2377 24.9036 18.6674 26.8333 18.6674C28.7629 18.6674 30.3333 20.2377 30.3333 22.1674V25.6674Z" fill="#0071B3"/>
<path d="M8.33015 2.48139L12.7962 6.22995C13.0155 6.41424 13.2816 6.50297 13.5464 6.50297C13.8789 6.50297 14.2101 6.36174 14.44 6.08653C14.8541 5.59297 14.79 4.85688 14.2964 4.44276L9.8305 0.694067C9.33695 0.28104 8.60195 0.345298 8.18673 0.837622C7.77248 1.33227 7.8366 2.06727 8.33015 2.48139Z" fill="black"/>
<path d="M9.08479 12.6616L3.60497 10.6679C2.99944 10.4486 2.33102 10.76 2.10927 11.3655C1.88997 11.9711 2.20142 12.6407 2.80694 12.8612L8.28677 14.855C8.41856 14.9029 8.55282 14.9262 8.68571 14.9262C9.16177 14.9262 9.60966 14.6311 9.78233 14.1575C10.003 13.5518 9.69032 12.8822 9.08479 12.6616Z" fill="black"/>
<path d="M56.4506 6.50246C56.7142 6.50246 56.9802 6.41264 57.1984 6.22943L61.6668 2.47855C62.1604 2.06443 62.2256 1.32943 61.8104 0.834785C61.3997 0.343555 60.6636 0.277109 60.1677 0.691231L55.6993 4.44211C55.2058 4.85623 55.1416 5.59123 55.5558 6.08588C55.7856 6.36014 56.1169 6.50246 56.4506 6.50246Z" fill="black"/>
<path d="M6.99768 22.1689H1.16662C0.522676 22.1689 0 22.6916 0 23.3356C0 23.9795 0.522676 24.5022 1.16662 24.5022H6.99768C7.64162 24.5022 8.1643 23.9795 8.1643 23.3356C8.1643 22.6916 7.64162 22.1689 6.99768 22.1689Z" fill="black"/>
<path d="M67.8883 11.3624C67.669 10.7581 66.9981 10.4442 66.3938 10.6659L60.9128 12.6609C60.3062 12.8815 59.9946 13.5511 60.2151 14.1566C60.3878 14.6304 60.8346 14.9243 61.3117 14.9243C61.4435 14.9243 61.5789 14.9022 61.7096 14.8531L67.1917 12.8581C67.7973 12.6375 68.1099 11.9679 67.8883 11.3624Z" fill="black"/>
<path d="M34.9999 0C22.1338 0 11.6665 10.4673 11.6665 23.3334C11.6665 33.18 15.5281 40.5254 23.822 46.4496C23.8617 46.4777 23.9201 46.5127 23.9633 46.5359C24.024 46.5686 25.2793 47.2697 25.5943 49.2368C24.2772 49.7396 23.3333 51.0079 23.3333 52.5C23.3333 53.3961 23.6716 54.2139 24.2269 54.8334C23.6715 55.4529 23.3333 56.2707 23.3333 57.1668C23.3333 58.0628 23.6716 58.8805 24.2269 59.5001C23.6715 60.1196 23.3333 60.9375 23.3333 61.8335C23.3333 63.7632 24.9036 65.3335 26.8333 65.3335C27.4772 65.3335 27.9999 64.8108 27.9999 64.1669C27.9999 63.5229 27.4772 63.0003 26.8333 63.0003C26.1904 63.0003 25.6666 62.4765 25.6666 61.8337C25.6666 61.1908 26.1904 60.667 26.8333 60.667H38.4999C39.1451 60.667 39.6665 60.1444 39.6665 59.5004C39.6665 58.8565 39.1451 58.3338 38.4999 58.3338H26.8333C26.1904 58.3338 25.6666 57.81 25.6666 57.1672C25.6666 56.5243 26.1904 56.0005 26.8333 56.0005H38.4999C39.1451 56.0005 39.6665 55.4779 39.6665 54.8339C39.6665 54.19 39.1451 53.6673 38.4999 53.6673H26.8333C26.1904 53.6673 25.6666 53.1435 25.6666 52.5007C25.6666 51.8578 26.1904 51.3341 26.8333 51.3341H38.4999C39.1451 51.3341 39.6665 50.8114 39.6665 50.1674C39.6665 49.5235 39.1451 49.0008 38.4999 49.0008H27.9206C27.5076 46.0631 25.6036 44.7903 25.1265 44.5149C17.4311 39.0001 14 32.4656 14 23.3341C14 11.7549 23.4209 2.33406 35 2.33406C46.5791 2.33406 56 11.7549 56 23.3341C56 32.4655 52.5688 39.0001 44.8736 44.5149C44.337 44.8241 42 46.3933 42 50.1674C42 50.8114 42.5215 51.3341 43.1666 51.3341C43.8106 51.3341 44.3333 51.8578 44.3333 52.5007C44.3333 53.1435 43.8106 53.6673 43.1666 53.6673C42.5215 53.6673 42 54.19 42 54.8339C42 55.4779 42.5215 56.0005 43.1666 56.0005C43.8106 56.0005 44.3333 56.5243 44.3333 57.1672C44.3333 57.81 43.8106 58.3338 43.1666 58.3338C42.5215 58.3338 42 58.8565 42 59.5004C42 60.1444 42.5215 60.667 43.1666 60.667C43.8106 60.667 44.3333 61.1908 44.3333 61.8337C44.3333 62.4987 43.8316 63.0003 43.1666 63.0003H31.4999C30.8559 63.0003 30.3333 63.5229 30.3333 64.1669V66.5C30.3333 68.4296 31.9036 70 33.8333 70H36.1666C38.0963 70 39.6666 68.4296 39.6666 66.5V65.3334H43.1666C45.1302 65.3334 46.6666 63.7957 46.6666 61.8334C46.6666 60.9373 46.3283 60.1196 45.7729 59.5C46.3283 58.8805 46.6666 58.0627 46.6666 57.1666C46.6666 56.2706 46.3283 55.4529 45.7729 54.8332C46.3283 54.2138 46.6666 53.3959 46.6666 52.4999C46.6666 51.0077 45.7227 49.7395 44.4045 49.2367C44.7195 47.2697 45.9736 46.5697 46.0215 46.5429C46.0763 46.5161 46.1288 46.4845 46.1777 46.4495C54.4704 40.5252 58.3333 33.1799 58.3333 23.3332C58.3333 10.4673 47.8659 0 34.9999 0ZM37.3333 66.5C37.3333 67.1429 36.8106 67.6666 36.1666 67.6666H33.8333C33.1904 67.6666 32.6666 67.1429 32.6666 66.5V65.3334H37.3333V66.5Z" fill="black"/>
<path d="M68.8332 22.167H62.9999C62.3547 22.167 61.8333 22.6897 61.8333 23.3336C61.8333 23.9776 62.3547 24.5002 62.9999 24.5002H68.8332C69.4784 24.5002 69.9999 23.9776 69.9999 23.3336C69.9999 22.6897 69.4784 22.167 68.8332 22.167Z" fill="black"/>
</svg>
