<?xml version="1.0" encoding="utf-8"?>
<!-- Generator: Adobe Illustrator 22.1.0, SVG Export Plug-In . SVG Version: 6.00 Build 0)  -->
<svg version="1.1" id="ror.svg" xmlns="http://www.w3.org/2000/svg" xmlns:xlink="http://www.w3.org/1999/xlink" x="0px" y="0px"
	 viewBox="0 0 60.3 55" style="enable-background:new 0 0 60.3 55;" xml:space="preserve">
<style type="text/css">
	.st0{fill:#3F597E;fill-opacity:0;}
	.st1{fill:#FFFFFF;}
	.st2{fill:#3F74A7;}
</style>
<rect id="Прямоугольник_1" class="st0" width="60.3" height="55"/>
<g>
	<title>truffle-logo-light</title>
	<g id="Layer_2_1_">
		<g id="Layer_8_1_">
			<polygon id="Fill-12_1_" class="st1" points="7,44.9 10.7,44.9 10.7,46.1 9.5,46.1 9.5,51.6 8.2,51.6 8.2,46.1 7,46.1 			"/>
			<path id="Fill-14_1_" class="st1" d="M15.2,47.5H16c0.4,0,0.7-0.1,0.8-0.2c0.2-0.1,0.3-0.3,0.2-0.5c0-0.1,0-0.3-0.1-0.4
				c-0.1-0.1-0.2-0.2-0.3-0.2c-0.2-0.1-0.5-0.1-0.7-0.1h-0.7L15.2,47.5z M13.9,44.9h1.7c0.7,0,1.3,0.1,1.6,0.2
				c0.3,0.1,0.6,0.4,0.8,0.7c0.2,0.3,0.3,0.7,0.3,1.1c0,0.4-0.1,0.8-0.3,1.1c-0.2,0.3-0.6,0.6-1,0.7l1.6,3h-1.4l-1.5-2.9h-0.5v2.9
				h-1.3C13.9,51.7,13.9,44.9,13.9,44.9z"/>
			<g>
				<path id="Fill-16_1_" class="st1" d="M21.9,44.9h1.3v4.4c0,0.3,0,0.5,0.1,0.8c0.1,0.2,0.2,0.3,0.3,0.4c0.2,0.1,0.4,0.1,0.5,0.1
					c0.2,0,0.4,0,0.6-0.2c0.2-0.1,0.3-0.2,0.3-0.4c0.1-0.3,0.1-0.6,0.1-0.9v-4.2h1.3v4c0,0.5,0,1-0.1,1.4c-0.1,0.3-0.2,0.5-0.4,0.8
					c-0.2,0.2-0.5,0.4-0.7,0.5c-0.3,0.1-0.6,0.2-1,0.2c-0.5,0-0.9-0.1-1.3-0.3c-0.3-0.2-0.6-0.5-0.8-0.8c-0.2-0.3-0.2-0.9-0.2-1.7
					L21.9,44.9z"/>
			</g>
			<polygon id="Fill-19_1_" class="st1" points="30.4,44.9 33.7,44.9 33.7,46.1 31.6,46.1 31.6,47.3 33.7,47.3 33.7,48.6 31.6,48.6 
				31.6,51.6 30.4,51.6 			"/>
			<polygon id="Fill-21_1_" class="st1" points="37.3,44.9 40.6,44.9 40.6,46.1 38.6,46.1 38.6,47.3 40.6,47.3 40.6,48.6 38.6,48.6 
				38.6,51.6 37.3,51.6 			"/>
			<polygon id="Fill-23_1_" class="st1" points="44.2,44.9 45.5,44.9 45.5,50.4 47.3,50.4 47.3,51.6 44.2,51.6 			"/>
			<polygon id="Fill-25_1_" class="st1" points="50.6,44.9 54.3,44.9 54.3,46.1 51.9,46.1 51.9,47.3 54.3,47.3 54.3,48.6 51.9,48.6 
				51.9,50.4 54.3,50.4 54.3,51.6 50.6,51.6 			"/>
			<ellipse class="st2" cx="30.6" cy="20.2" rx="18" ry="18.2"/>
			<path id="Fill-6_1_" class="st1" d="M24.9,36.4c0.7,0.3,3.2,1.1,3.3,0.3c0.1-0.4-1.2-0.9-3-1.8c-2.5-1.3-4.8-3-6.8-5
				c-2.9-2.9-4.6-6.8-4.7-10.9c-0.1-5.5,2-10,5.5-12.8c-4.3,3.3-6.9,8.5-7.1,13.9c-0.1,4,1,7.3,3.1,10.4c0.6,0.8,1.4,1.6,2.3,2.2
				C19.6,34.1,22.5,35.6,24.9,36.4"/>
			<path id="Fill-8_1_" class="st1" d="M48.8,16.1c-1.1-5.2-4.6-8.9-9.2-11.5c3.5,2.5,8.5,7.9,5.6,12.6c-2.5,3.8-8.6,3.1-11.9,1.2
				c-3.9-2.1-8.9-7-4-11.7c3.2-3,13.2,0.4,11.4,4.9c-1,2.6-5,2.1-6.8,0.8c-1.3-1-2.4-2.6-1.9-4.3c0.2-0.5,0.2-1.4-0.6-0.8
				c-0.6,0.5-0.9,1.2-1,1.9c-0.8,5.9,9.7,10.5,12.9,4.8c1.6-3-1-7.3-4.3-9.1c-2.5-1.3-5.1-2.3-8.3-2c-5.1,0.4-9.4,3.5-9.9,8.8
				c-0.5,5.2,2.9,9.8,7,12.6c4.3,2.9,10,4.9,15.3,3.1C47.8,25.9,49.8,20.5,48.8,16.1"/>
			<path id="Fill-10_1_" class="st2" d="M42.2,12c0.5-3.4-2.6-5.7-5.4-6.8C33.4,4,29,4.5,26.6,7.3c-1.8,2-1.7,5-0.7,7.4
				c1.4,3.6,4.5,6.2,8.2,7.4c2.6,0.8,5.7,1.2,8.4,0.3c3.8-1.2,5.1-5.2,4.3-8.9c-0.2-0.8-0.4-1.6-0.8-2.3c-0.5-1-2-3.1,0.1-0.6
				c0.2,0.3,0.4,0.6,0.6,0.9c0.4,0.7,0.8,1.4,1,2.2c1.1,3.4,0.2,7.4-2.9,9.5c-2.4,1.6-5.4,1.8-8.1,1.4c-3.7-0.5-7.2-2.3-9.6-5.2
				c-2.2-2.6-3.7-6.4-2.8-9.8C25,7.1,27,5.2,29.4,4.4c3.1-1,6.5-0.5,9.3,1.1C40,6.3,41.3,7.4,42,8.9c0.3,0.7,0.5,1.4,0.5,2.1
				c0,0.3,0,0.6-0.1,0.9C42.4,12,42.2,12.3,42.2,12"/>
		</g>
	</g>
</g>
</svg>
