<?xml version="1.0" encoding="utf-8"?>
<!-- Generator: Adobe Illustrator 22.1.0, SVG Export Plug-In . SVG Version: 6.00 Build 0)  -->
<svg version="1.1" id="ror.svg" xmlns="http://www.w3.org/2000/svg" xmlns:xlink="http://www.w3.org/1999/xlink" x="0px" y="0px"
	 viewBox="0 0 157.1 55" style="enable-background:new 0 0 157.1 55;" xml:space="preserve">
<style type="text/css">
	.st0{fill:#3F597E;fill-opacity:0;}
	.st1{fill:#FFFFFF;}
</style>
<rect id="Прямоугольник_1" class="st0" width="157" height="55"/>
<g>
	<title>hyperledger</title>
	<path class="st1" d="M10.7,41.6c0,0-0.1,0-0.1-0.1L1.5,28.6c0,0,0-0.1,0-0.2l6.6-14.4c0,0,0.1-0.1,0.1-0.1l15.7-1.5
		c0.1,0,0.1,0,0.1,0.1l9.1,12.9c0,0,0,0.1,0,0.2l-6.6,14.4c0,0.1-0.1,0.1-0.1,0.1L10.7,41.6L10.7,41.6z M1.8,28.5l9,12.8l15.6-1.4
		l6.5-14.2l-9-12.8L8.3,14.3L1.8,28.5z M26.4,40L26.4,40z"/>
	<path class="st1" d="M10.6,41.6L8.1,28.4V14.1l12.3,3.6l12.8,7.9l-9.5,8.4L10.6,41.6z M8.3,14.3v14.2l2.5,12.9L23.6,34l9.3-8.3
		l-12.6-7.8L8.3,14.3z"/>
	<path class="st1" d="M21.1,17.8c0,0.3-0.2,0.5-0.5,0.5s-0.5-0.2-0.5-0.5c0-0.3,0.2-0.5,0.5-0.5h0C20.9,17.4,21.1,17.6,21.1,17.8"/>
	<path class="st1" d="M20.6,18.8c-0.5,0-0.9-0.4-0.9-0.9s0.4-0.9,0.9-0.9c0.5,0,0.9,0.4,0.9,0.9v0C21.6,18.4,21.1,18.8,20.6,18.8
		 M20.6,17.8L20.6,17.8C20.6,17.9,20.6,17.9,20.6,17.8C20.6,17.9,20.6,17.9,20.6,17.8L20.6,17.8z"/>
	<path class="st1" d="M24.1,34c0,0.3-0.2,0.5-0.5,0.5s-0.5-0.2-0.5-0.5s0.2-0.5,0.5-0.5h0C23.9,33.5,24.1,33.7,24.1,34"/>
	<path class="st1" d="M23.7,34.9c-0.5,0-0.9-0.4-1-0.9c0-0.5,0.4-0.9,0.9-1s0.9,0.4,1,0.9c0,0,0,0,0,0
		C24.6,34.5,24.2,34.9,23.7,34.9 M23.7,33.9L23.7,33.9C23.7,34,23.7,34,23.7,33.9L23.7,33.9z"/>
	<path class="st1" d="M11.3,41.5c0,0.3-0.2,0.5-0.5,0.5c-0.3,0-0.5-0.2-0.5-0.5c0-0.3,0.2-0.5,0.5-0.5C11.1,41,11.3,41.2,11.3,41.5
		C11.3,41.5,11.3,41.5,11.3,41.5"/>
	<path class="st1" d="M10.8,42.4c-0.5,0-0.9-0.4-1-0.9c0-0.5,0.4-0.9,0.9-1c0.5,0,0.9,0.4,1,0.9c0,0,0,0,0,0
		C11.8,42,11.3,42.4,10.8,42.4C10.8,42.4,10.8,42.4,10.8,42.4 M10.8,41.4L10.8,41.4C10.8,41.5,10.8,41.5,10.8,41.4
		C10.8,41.5,10.8,41.5,10.8,41.4L10.8,41.4z"/>
	<path class="st1" d="M8.6,28.6c0,0.3-0.2,0.5-0.5,0.5c-0.3,0-0.5-0.2-0.5-0.5s0.2-0.5,0.5-0.5h0C8.4,28.1,8.6,28.3,8.6,28.6"/>
	<path class="st1" d="M8.2,29.5c-0.5,0-0.9-0.4-0.9-0.9s0.4-0.9,0.9-0.9c0.5,0,0.9,0.4,0.9,0.9v0C9.1,29.1,8.7,29.5,8.2,29.5
		 M8.2,28.6L8.2,28.6C8.2,28.6,8.2,28.6,8.2,28.6L8.2,28.6z"/>
	<path class="st1" d="M33.5,25.7c0,0.3-0.2,0.5-0.5,0.5c-0.3,0-0.5-0.2-0.5-0.5c0-0.3,0.2-0.5,0.5-0.5l0,0
		C33.3,25.2,33.5,25.4,33.5,25.7"/>
	<path class="st1" d="M33,26.6c-0.5,0-0.9-0.4-1-0.9c0-0.5,0.4-0.9,0.9-1c0.5,0,0.9,0.4,1,0.9c0,0,0,0,0,0
		C34,26.2,33.6,26.6,33,26.6 M33,25.6L33,25.6C33,25.7,33,25.7,33,25.6L33,25.6z"/>
	<path class="st1" d="M8.6,14.2c0,0.3-0.2,0.5-0.5,0.5c-0.3,0-0.5-0.2-0.5-0.5c0-0.3,0.2-0.5,0.5-0.5C8.4,13.7,8.6,13.9,8.6,14.2
		C8.6,14.2,8.6,14.2,8.6,14.2"/>
	<path class="st1" d="M8.2,15.1c-0.5,0-0.9-0.4-1-0.9c0-0.5,0.4-0.9,0.9-1s0.9,0.4,1,0.9c0,0,0,0,0,0C9.1,14.7,8.7,15.1,8.2,15.1
		 M8.2,14.2L8.2,14.2C8.2,14.2,8.2,14.2,8.2,14.2L8.2,14.2z"/>
	<path class="st1" d="M26.4,40.2L26.4,40.2l-12-4.2L1.5,28.7c0,0-0.1-0.1-0.1-0.1c0,0,0-0.1,0.1-0.1l9.7-8.9l12.7-7c0,0,0.1,0,0.1,0
		c0,0,0.1,0.1,0.1,0.1l2.8,12.5L26.6,40C26.6,40.1,26.5,40.1,26.4,40.2C26.5,40.1,26.4,40.2,26.4,40.2 M1.8,28.5l12.7,7.1l11.8,4.1
		l0.3-14.6L23.8,13l-12.5,6.8L1.8,28.5z"/>
	<path class="st1" d="M23.7,34L23.7,34L8.1,28.6l0.1-0.1l12.5-10.8L23.7,34z M8.3,28.6l15.4,5.3l-3-16L8.3,28.6z"/>
	<path class="st1" d="M14.3,36.1l-3.3-16.6l16,5.7L14.3,36.1z M11.5,19.9l3.1,15.6l11.9-10.2L11.5,19.9z"/>
	<rect x="9.6" y="13.8" transform="matrix(0.8718 -0.4898 0.4898 0.8718 -7.0492 6.9386)" class="st1" width="0.3" height="6.3"/>
	<polygon class="st1" points="10.9,41.6 10.7,41.4 14.3,35.7 14.6,35.9 	"/>
	<polygon class="st1" points="33,25.8 26.7,25.4 26.8,25.1 33,25.5 	"/>
	<polygon class="st1" points="40.2,21.7 42.7,21.7 42.7,26 47.7,26 47.7,21.7 50.2,21.7 50.2,33.2 47.7,33.2 47.7,28.2 42.7,28.3 
		42.7,33.2 40.2,33.2 	"/>
	<polygon class="st1" points="55.2,28.3 50.9,21.7 54,21.7 56.4,26 59,21.7 62,21.7 57.7,28.3 57.7,33.2 55.2,33.2 	"/>
	<path class="st1" d="M62.7,21.7H67c0.6,0,1.1,0,1.7,0.2c0.5,0.1,1,0.3,1.4,0.6c0.4,0.3,0.7,0.6,0.9,1.1c0.2,0.5,0.4,1.1,0.3,1.7
		c0,0.6-0.1,1.2-0.3,1.7c-0.2,0.4-0.5,0.8-0.9,1.1c-0.4,0.3-0.9,0.5-1.3,0.6c-0.6,0.1-1.1,0.2-1.7,0.2h-1.9v4.5h-2.5L62.7,21.7z
		 M65.2,26.6h1.7c0.2,0,0.5,0,0.7-0.1c0.2,0,0.4-0.1,0.6-0.2c0.2-0.1,0.3-0.2,0.4-0.4c0.1-0.2,0.2-0.4,0.2-0.7
		c0-0.3-0.1-0.5-0.2-0.7c-0.1-0.2-0.3-0.3-0.5-0.4c-0.2-0.1-0.5-0.2-0.7-0.2c-0.2,0-0.5,0-0.7,0h-1.3L65.2,26.6z"/>
	<polygon class="st1" points="72.8,21.7 80.6,21.7 80.6,24.1 75.4,24.1 75.4,26.2 80.3,26.2 80.3,28.5 75.4,28.5 75.4,30.9 
		80.9,30.9 80.9,33.2 72.8,33.2 	"/>
	<path class="st1" d="M82.8,21.7h4.4c0.6,0,1.1,0.1,1.7,0.2c0.5,0.1,1,0.3,1.4,0.6c0.4,0.3,0.7,0.6,0.9,1.1c0.2,0.5,0.4,1.1,0.3,1.7
		c0,0.7-0.2,1.5-0.6,2.1c-0.5,0.6-1.1,1-1.8,1.1l2.9,4.8h-3l-2.4-4.6h-1.2v4.6h-2.5L82.8,21.7z M85.3,26.5h1.5c0.2,0,0.5,0,0.7,0
		c0.2,0,0.5-0.1,0.7-0.1c0.2-0.1,0.4-0.2,0.5-0.4c0.1-0.2,0.2-0.5,0.2-0.7c0-0.2-0.1-0.5-0.2-0.7c-0.1-0.2-0.3-0.3-0.5-0.4
		c-0.2-0.1-0.4-0.2-0.6-0.2c-0.2,0-0.5,0-0.7,0h-1.7L85.3,26.5z"/>
	<polygon class="st1" points="93.2,21.7 95.8,21.7 95.8,30.9 100.4,30.9 100.5,33.2 93.2,33.2 	"/>
	<polygon class="st1" points="101.8,21.7 109.6,21.7 109.6,24.1 104.3,24.1 104.3,26.2 109.3,26.2 109.3,28.5 104.3,28.5 
		104.3,30.9 109.9,30.9 109.9,33.2 101.8,33.2 	"/>
	<path class="st1" d="M111.7,21.7h3.8c0.9,0,1.8,0.1,2.6,0.3c0.8,0.2,1.5,0.5,2.2,1c0.6,0.5,1.1,1.1,1.5,1.8
		c0.4,0.8,0.6,1.8,0.5,2.7c0,0.8-0.2,1.7-0.5,2.5c-0.3,0.7-0.8,1.3-1.4,1.8c-0.6,0.5-1.3,0.9-2.1,1.1c-0.8,0.2-1.6,0.4-2.4,0.4h-4.1
		L111.7,21.7z M114.3,30.9h1.3c0.5,0,1.1-0.1,1.6-0.2c0.5-0.1,0.9-0.3,1.3-0.6c0.4-0.3,0.7-0.7,0.9-1.1c0.2-0.5,0.3-1.1,0.3-1.6
		c0-0.5-0.1-1-0.3-1.5c-0.2-0.4-0.5-0.8-0.9-1c-0.4-0.3-0.8-0.5-1.3-0.6c-0.5-0.1-1-0.2-1.5-0.2h-1.5L114.3,30.9z"/>
	<path class="st1" d="M134.3,32.3c-0.7,0.4-1.5,0.7-2.3,0.8c-0.8,0.2-1.6,0.3-2.5,0.3c-0.8,0-1.7-0.1-2.5-0.4
		c-0.7-0.3-1.4-0.7-2-1.2c-0.6-0.5-1-1.2-1.3-1.9c-0.6-1.6-0.6-3.4,0-5c0.3-0.7,0.7-1.4,1.3-1.9c0.6-0.5,1.2-0.9,2-1.2
		c0.8-0.3,1.6-0.4,2.5-0.4c0.9,0,1.7,0.1,2.5,0.3c0.8,0.2,1.4,0.6,2,1.1l-1.8,1.9c-0.3-0.3-0.7-0.6-1.2-0.8
		c-0.5-0.2-1.1-0.3-1.6-0.3c-0.5,0-1,0.1-1.5,0.3c-0.4,0.2-0.8,0.4-1.1,0.8c-0.3,0.3-0.6,0.7-0.7,1.2c-0.3,1-0.3,2,0,3
		c0.2,0.4,0.4,0.8,0.7,1.2c0.3,0.3,0.7,0.6,1.1,0.8c0.5,0.2,1,0.3,1.5,0.3c0.5,0,1-0.1,1.4-0.2c0.3-0.1,0.6-0.2,1-0.4v-1.9h-2.1
		v-2.3h4.5L134.3,32.3z"/>
	<polygon class="st1" points="136.4,21.7 144.2,21.7 144.2,24.1 138.9,24.1 138.9,26.2 143.9,26.2 143.9,28.5 138.9,28.5 
		138.9,30.9 144.5,30.9 144.5,33.2 136.4,33.2 	"/>
	<path class="st1" d="M146.4,21.7h4.4c0.6,0,1.1,0.1,1.7,0.2c0.5,0.1,1,0.3,1.4,0.6c0.4,0.3,0.7,0.6,0.9,1.1
		c0.2,0.5,0.4,1.1,0.3,1.7c0,0.7-0.2,1.5-0.6,2.1c-0.5,0.6-1.1,1-1.8,1.1l2.9,4.8h-3l-2.4-4.6h-1.2v4.6h-2.5V21.7z M148.9,26.5h1.5
		c0.2,0,0.5,0,0.7,0c0.2,0,0.5-0.1,0.7-0.1c0.2-0.1,0.4-0.2,0.5-0.4c0.1-0.2,0.2-0.5,0.2-0.7c0-0.5-0.2-0.9-0.6-1.1
		c-0.2-0.1-0.4-0.2-0.6-0.2c-0.2,0-0.5,0-0.7,0h-1.6L148.9,26.5z"/>
</g>
</svg>
