<?xml version="1.0" encoding="utf-8"?>
<!-- Generator: Adobe Illustrator 22.1.0, SVG Export Plug-In . SVG Version: 6.00 Build 0)  -->
<svg version="1.1" id="ror.svg" xmlns="http://www.w3.org/2000/svg" xmlns:xlink="http://www.w3.org/1999/xlink" x="0px" y="0px"
	 viewBox="0 0 60.3 55" style="enable-background:new 0 0 60.3 55;" xml:space="preserve">
<style type="text/css">
	.st0{fill:#3F597E;fill-opacity:0;}
	.st1{fill:#FFFFFF;}
</style>
<rect id="Прямоугольник_1" class="st0" width="60.3" height="55"/>
<g>
	<path class="st1" d="M54.1,31c0,1.6-1.3,2.9-2.9,2.9c-1.6,0-2.9-1.3-2.9-2.9c0-1.6,1.3-2.9,2.9-2.9C52.8,28,54.1,29.3,54.1,31"/>
	<path class="st1" d="M36.6,22.3l4-5.8v-5.9H27.9l-4.1,5.9h9.6l-4.9,7.2l2.9,5.1c0.9-0.5,1.9-0.8,3-0.8c3.3,0,6,2.7,6,6s-2.7,6-6,6
		s-6-2.7-6-6h-5.9c0,6.5,5.3,11.9,11.8,11.9c6.5,0,11.9-5.3,11.9-11.9C46.2,28.1,42.1,23.3,36.6,22.3 M19.8,10.6
		c-2.2,0-4.2,0.6-5.9,1.6v-1.6H7.9v23.4h5.9V22.4c0-3.3,2.6-5.9,5.9-5.9l2,0l4.1-5.9H19.8z"/>
</g>
</svg>
