<svg width="70" height="48" viewBox="0 0 70 48" fill="none" xmlns="http://www.w3.org/2000/svg">
<path d="M68.9746 11.7575C69.5412 11.7575 70 11.2988 70 10.7322V7.36118C70 6.98254 69.7837 6.61137 69.4168 6.4362L56.1551 0.100136C55.8752 -0.0333786 55.5505 -0.0333786 55.2707 0.100136C40.5761 7.12086 42.1313 6.37905 42.0154 6.43299C42.002 6.44527 41.4258 6.68881 41.4258 7.36065V14.2041L38.6134 14.9432C38.1627 15.0618 37.8481 15.4687 37.8481 15.9349V18.9732H32.1519V15.9349C32.1519 15.4687 31.8373 15.0618 31.3866 14.9432L28.5742 14.2041V7.36065C28.5742 7.35531 28.5732 7.34997 28.5732 7.34463C28.5619 6.67866 27.9985 6.44527 27.9846 6.43299C27.9825 6.43192 27.9798 6.43086 27.9777 6.42979L14.7293 0.100136C14.4495 -0.0333786 14.1248 -0.0333786 13.8449 0.100136L0.583191 6.4362C0.216293 6.61137 0 6.98307 0 7.36118V15.0618C0 15.6284 0.458756 16.0872 1.02539 16.0872C1.59203 16.0872 2.05078 15.6284 2.05078 15.0618V8.98739L13.2617 14.3435V28.7935L2.05078 23.4374V19.4138C2.05078 18.8477 1.59203 18.3884 1.02539 18.3884C0.458756 18.3884 0 18.8477 0 19.4138V24.0841C0 24.4788 0.226974 24.8388 0.583191 25.0091L13.8449 31.3452C14.1077 31.4718 14.4431 31.4808 14.7293 31.3452L16.3379 30.5767V30.8298C16.3379 32.0314 16.7545 33.1369 17.4493 34.0117C14.3352 34.5672 11.9629 37.293 11.9629 40.5646V43.9548C11.9629 44.5215 12.4216 44.9802 12.9883 44.9802H25.498V46.6892C25.498 47.2558 25.9568 47.7146 26.5234 47.7146H30.5908C31.1575 47.7146 31.6162 47.2558 31.6162 46.6892C31.6162 46.1231 31.1575 45.6638 30.5908 45.6638H27.5488V43.299C27.5488 40.7585 29.6156 38.6911 32.1567 38.6911H37.8433C40.3844 38.6911 42.4512 40.7585 42.4512 43.299V45.6638H35C34.4334 45.6638 33.9746 46.1231 33.9746 46.6892C33.9746 47.2558 34.4334 47.7146 35 47.7146H43.4766C44.0432 47.7146 44.502 47.2558 44.502 46.6892V44.9802H57.0117C57.5784 44.9802 58.0371 44.5215 58.0371 43.9548V40.5646C58.0371 37.293 55.6648 34.5672 52.5507 34.0117C53.2455 33.1369 53.6621 32.0314 53.6621 30.8298V30.5767L55.2712 31.3452C55.5393 31.4723 55.8758 31.4798 56.1551 31.3452L69.4168 25.0091C69.773 24.8388 70 24.4788 70 24.0836V15.1413C70 14.5752 69.5412 14.1159 68.9746 14.1159C68.4085 14.1159 67.9492 14.5752 67.9492 15.1413V23.4374L56.7383 28.7935V14.344L67.9492 8.98792V10.7322C67.9492 11.2988 68.408 11.7575 68.9746 11.7575ZM55.7129 2.1616L66.5959 7.36118L55.7124 12.5613L44.8299 7.36118L55.7129 2.1616ZM43.4766 8.98739L54.6875 14.3445V28.794L53.512 28.2322C52.9593 25.9977 50.9379 24.3357 48.5352 24.3357C47.7602 24.3357 47.0259 24.5098 46.3669 24.8185L44.119 23.745L46.8817 23.0192C47.4297 22.875 47.757 22.3148 47.6128 21.7669C47.4692 21.2189 46.909 20.8921 46.361 21.0357L43.4766 21.793V15.7859L46.8817 14.8914C47.4291 14.7477 47.7565 14.187 47.6128 13.6396C47.4686 13.0916 46.9084 12.7642 46.3605 12.9079L43.4766 13.6657V8.98739ZM51.6113 29.4626V30.8298C51.6113 32.526 50.2313 33.906 48.5352 33.906C46.839 33.906 45.459 32.526 45.459 30.8298V29.4626C45.459 27.7665 46.839 26.3865 48.5352 26.3865C50.0989 26.3865 51.3929 27.5598 51.5857 29.0717C51.5862 29.0776 51.5868 29.0834 51.5878 29.0893C51.6028 29.2122 51.6113 29.3366 51.6113 29.4626ZM39.8989 16.7259L41.4258 16.3248V22.3319L39.8989 22.733V21.024H40.1649C40.7315 21.024 41.1903 20.5652 41.1903 19.9986C41.1903 19.432 40.7315 18.9732 40.1649 18.9732H39.8989V16.7259ZM37.8481 21.024V24.0622C37.8481 24.3805 37.9955 24.6801 38.2476 24.874C38.4286 25.0139 38.6492 25.0876 38.8735 25.0876C38.9606 25.0876 39.0482 25.0769 39.1341 25.054L41.4904 24.435C41.5807 24.6828 41.7628 24.8916 42.009 25.0097L44.5607 26.2289C43.8408 27.1117 43.4082 28.2375 43.4082 29.4632V30.8303C43.4082 32.0309 43.8242 33.1359 44.5185 34.0107C42.6755 34.3391 41.053 35.4307 40.0543 37.0195C39.7195 36.9015 39.3723 36.8097 39.0156 36.7461C39.7104 35.8713 40.127 34.7658 40.127 33.5647V32.1975C40.127 29.3702 37.8268 27.0706 35 27.0706C32.1727 27.0706 29.873 29.3702 29.873 32.1975V33.5647C29.873 34.7658 30.2896 35.8713 30.9839 36.7461C30.6271 36.8097 30.2805 36.9015 29.9457 37.0195C28.947 35.4307 27.324 34.3391 25.4815 34.0107C26.1752 33.1359 26.5913 32.0309 26.5913 30.8303V29.4632C26.5913 28.2375 26.1592 27.1117 25.4393 26.2289L27.9905 25.0097C28.2367 24.8916 28.4188 24.6828 28.5096 24.435L30.8659 25.054C30.9518 25.0769 31.0389 25.0876 31.1259 25.0876C31.3503 25.0876 31.5708 25.0145 31.7524 24.874C32.0039 24.6801 32.1513 24.3805 32.1513 24.0622V21.024H37.8481ZM31.9238 33.5642V32.197C31.9238 30.5008 33.3038 29.1208 35 29.1208C36.6962 29.1208 38.0762 30.5008 38.0762 32.197V33.5642C38.0762 35.2604 36.6962 36.6404 35 36.6404C33.3038 36.6404 31.9238 35.2604 31.9238 33.5642ZM18.3887 30.8298V29.4626C18.3887 29.3366 18.3972 29.2122 18.4122 29.0893C18.4132 29.0834 18.4138 29.0776 18.4143 29.0717C18.6071 27.5598 19.9011 26.3865 21.4648 26.3865C23.161 26.3865 24.541 27.7665 24.541 29.4626V30.8298C24.541 32.526 23.161 33.906 21.4648 33.906C19.7687 33.906 18.3887 32.526 18.3887 30.8298ZM30.1011 16.7259V18.9732H29.8351C29.2685 18.9732 28.8097 19.432 28.8097 19.9986C28.8097 20.5652 29.2685 21.024 29.8351 21.024H30.1011V22.733L28.5742 22.3319V16.3248L30.1011 16.7259ZM3.40408 7.36118L14.2871 2.1616L25.1701 7.36118L14.2876 12.5613L3.40408 7.36118ZM15.3125 14.3445L26.5234 8.98739V13.6657L23.6395 12.9079C23.0921 12.7642 22.5314 13.0916 22.3872 13.639C22.243 14.187 22.5709 14.7477 23.1183 14.8914L26.5234 15.7859V21.793L23.6395 21.0352C23.0921 20.8915 22.5314 21.2189 22.3872 21.7669C22.243 22.3143 22.5709 22.875 23.1183 23.0192L25.881 23.7445L23.6337 24.8185C22.9741 24.5092 22.2398 24.3357 21.4648 24.3357C19.0621 24.3357 17.0412 25.9977 16.4885 28.2322L15.3125 28.7935V14.3445ZM25.5087 42.9294H14.0137V40.5646C14.0137 38.0241 16.0805 35.9568 18.621 35.9568H24.3087C25.8639 35.9568 27.2877 36.7376 28.1331 37.9979C26.6249 39.1456 25.6193 40.9198 25.5087 42.9294ZM55.9863 40.5646V42.9294H44.4913C44.3807 40.9198 43.3746 39.1456 41.8669 37.9979C42.7123 36.7376 44.1361 35.9568 45.6913 35.9568H51.379C53.9195 35.9568 55.9863 38.0241 55.9863 40.5646Z" fill="#0071B3"/>
</svg>
