<svg width="53" height="72" viewBox="0 0 53 72" fill="none" xmlns="http://www.w3.org/2000/svg">
<path d="M26.3258 50.528C29.2135 50.528 32.1013 49.4287 34.2995 47.2306C38.6963 42.8342 38.6963 35.68 34.2995 31.2836C29.9035 26.8877 22.7493 26.8868 18.3525 31.2836C13.9557 35.68 13.9557 42.8342 18.3525 47.2306C20.5507 49.4287 23.4385 50.528 26.3258 50.528ZM19.5898 32.5209C21.4471 30.6637 23.8866 29.7353 26.3262 29.7353C28.7654 29.7353 31.2049 30.6637 33.0622 32.5209C36.7762 36.2354 36.7762 42.2788 33.0622 45.9933C29.3477 49.7086 23.3043 49.7077 19.5898 45.9933C15.8758 42.2788 15.8758 36.2354 19.5898 32.5209Z" fill="#0071B3" stroke="#0071B3" stroke-width="0.4"/>
<path d="M8.33425 57.2733L15.5355 57.4899L18.7633 63.5013C18.912 63.7785 19.1987 63.9546 19.5136 63.9618C19.5204 63.9622 19.5272 63.9622 19.5341 63.9622C19.8413 63.9622 20.1267 63.8012 20.2848 63.5367L24.7982 55.9974C25.3064 56.0434 25.8161 56.0702 26.326 56.0702C26.8962 56.0702 27.466 56.0372 28.0338 55.9797L32.5783 63.5709C32.7364 63.8354 33.0218 63.9964 33.329 63.9964C33.3358 63.9964 33.3427 63.9964 33.3495 63.996C33.6644 63.9887 33.9511 63.8127 34.0998 63.5354L37.3276 57.5241L44.5288 57.3075C44.839 57.2981 45.121 57.125 45.2701 56.8529C45.4188 56.5807 45.4124 56.2496 45.253 55.9834L40.5757 48.1701C44.6356 41.6784 43.8598 33.0032 38.2201 27.3635C31.6623 20.8053 20.991 20.8053 14.4323 27.3635C8.74686 33.049 7.99892 41.8219 12.1711 48.3301L7.61007 55.9492C7.45071 56.2154 7.4443 56.5465 7.59298 56.8187C7.74209 57.0909 8.02407 57.2639 8.33425 57.2733ZM42.986 55.6032L36.7692 55.7903C36.4564 55.7997 36.1728 55.9753 36.0249 56.2509L33.2876 61.3488L29.8921 55.677C32.9454 55.019 35.8522 53.5192 38.2201 51.1513C38.6717 50.6997 39.0851 50.2251 39.4745 49.7373L42.986 55.6032ZM15.6696 28.6008C18.6078 25.6631 22.4671 24.1938 26.3264 24.1938C30.1853 24.1938 34.0446 25.6631 36.9828 28.6008C42.8587 34.4767 42.8587 44.0381 36.9828 49.914C31.1065 55.7899 21.546 55.7899 15.6696 49.914C9.79372 44.0381 9.79372 34.4767 15.6696 28.6008ZM13.2831 49.8794C13.6408 50.3179 14.0237 50.7427 14.4323 51.1513C16.8435 53.5624 19.8122 55.0792 22.9263 55.7175L19.5755 61.3146L16.8382 56.2167C16.6903 55.9411 16.4066 55.7655 16.0939 55.7561L9.87704 55.569L13.2831 49.8794Z" fill="#0071B3" stroke="#0071B3" stroke-width="0.2"/>
<path d="M26.4314 6.98633C25.9482 6.98633 25.5564 7.37811 25.5564 7.86133V10.2086C25.5564 10.6918 25.9482 11.0836 26.4314 11.0836C26.9146 11.0836 27.3064 10.6918 27.3064 10.2086V7.86133C27.3064 7.37811 26.9146 6.98633 26.4314 6.98633Z" fill="black" stroke="black" stroke-width="0.4"/>
<path d="M5.72791 71H47.1349C49.7419 71 51.8628 68.8787 51.8628 66.2717V16.4834C51.8628 13.8763 49.7419 11.7551 47.1349 11.7551H42.7539C42.4644 8.72771 39.9086 6.35168 36.8062 6.35168H34.6384C33.827 6.35168 33.111 5.90393 32.8136 5.21051C31.7173 2.65259 29.2123 1 26.4314 1C23.6505 1 21.1455 2.65259 20.0492 5.21051C19.7518 5.90393 19.0358 6.35168 18.2244 6.35168H16.0562C12.9542 6.35168 10.3984 8.72771 10.1089 11.7551H5.72791C3.12085 11.7551 1 13.8763 1 16.4834V66.2717C1 68.8787 3.12085 71 5.72791 71ZM11.8298 12.328C11.8298 9.9978 13.726 8.10168 16.0562 8.10168H18.2244C19.7369 8.10168 21.0844 7.23737 21.6573 5.90009C22.4777 3.98645 24.3516 2.75 26.4314 2.75C28.5112 2.75 30.3851 3.98645 31.2054 5.90009C31.7784 7.23737 33.1259 8.10168 34.6384 8.10168H36.8062C39.1368 8.10168 41.033 9.9978 41.033 12.328V15.3204H11.8298V12.328ZM2.75 16.4834C2.75 14.8411 4.086 13.5051 5.72791 13.5051H10.0798V16.1954C10.0798 16.6786 10.4716 17.0704 10.9548 17.0704H41.908C42.3912 17.0704 42.783 16.6786 42.783 16.1954V13.5051H47.1349C48.7768 13.5051 50.1128 14.8411 50.1128 16.4834V66.2717C50.1128 67.914 48.7768 69.25 47.1349 69.25H5.72791C4.086 69.25 2.75 67.914 2.75 66.2717V16.4834Z" fill="black" stroke="black" stroke-width="0.4"/>
</svg>
