<svg width="70" height="70" viewBox="0 0 70 70" fill="none" xmlns="http://www.w3.org/2000/svg">
<path d="M7.43291 27.775V27.8164V28.5C7.43291 30.3776 8.95527 31.9 10.8329 31.9H11.8996V29.7667H10.8329C10.1334 29.7667 9.56624 29.1995 9.56624 28.5V27.3333C9.56624 27.0506 9.45375 26.7792 9.25373 26.5792L7.74527 25.0707L7.67456 25L7.74527 24.9293L9.25373 23.4208C9.45375 23.2208 9.56624 22.9494 9.56624 22.6667V21.5C9.56624 20.8005 10.1334 20.2333 10.8329 20.2333H11.8996V18.1H10.8329C8.95527 18.1 7.43291 19.6224 7.43291 21.5V22.1836V22.225L7.40362 22.2543L5.41212 24.2458L7.43291 27.775ZM7.43291 27.775L7.40362 27.7457M7.43291 27.775L7.40362 27.7457M7.40362 27.7457L5.41212 25.7542M7.40362 27.7457L5.41212 25.7542M5.41212 25.7542L5.41208 25.7542C4.99597 25.3375 4.99597 24.6625 5.41208 24.2458L5.41212 25.7542Z" fill="black" stroke="white" stroke-width="0.2"/>
<path d="M23.2538 25.0707L23.3245 25L23.2538 24.9293L21.7454 23.4208C21.5453 23.2208 21.4328 22.9494 21.4328 22.6667V21.5C21.4328 20.8005 20.8657 20.2333 20.1662 20.2333H19.0995V18.1H20.1662C22.0438 18.1 23.5662 19.6224 23.5662 21.5V22.1836V22.225L23.5955 22.2543L25.587 24.2458C26.0031 24.6625 26.0031 25.3375 25.587 25.7542L23.5955 27.7457L23.5662 27.775V27.8164V28.5C23.5662 30.3776 22.0438 31.9 20.1662 31.9H19.0995V29.7667H20.1662C20.8657 29.7667 21.4328 29.1995 21.4328 28.5V27.3333C21.4328 27.0506 21.5453 26.7792 21.7454 26.5792L23.2538 25.0707Z" fill="black" stroke="white" stroke-width="0.2"/>
<path d="M12.0995 23.9335H14.2328V26.0668H12.0995V23.9335Z" fill="black" stroke="white" stroke-width="0.2"/>
<path d="M16.7663 23.9335H18.8996V26.0668H16.7663V23.9335Z" fill="black" stroke="white" stroke-width="0.2"/>
<path d="M30.1 17.6H43.9V19.7333H30.1V17.6Z" fill="#0071B3" stroke="white" stroke-width="0.2"/>
<path d="M46.1 17.6H50.5667V19.7333H46.1V17.6Z" fill="#0071B3" stroke="white" stroke-width="0.2"/>
<path d="M30.1 22.2665H36.9V24.3998H30.1V22.2665Z" fill="#0071B3" stroke="white" stroke-width="0.2"/>
<path d="M39.1 22.2665H45.9V24.3998H39.1V22.2665Z" fill="#0071B3" stroke="white" stroke-width="0.2"/>
<path d="M48.1 22.2665H59.5667V24.3998H48.1V22.2665Z" fill="#0071B3" stroke="white" stroke-width="0.2"/>
<path d="M30.1 27.1H36.9V29.2333H30.1V27.1Z" fill="#0071B3" stroke="white" stroke-width="0.2"/>
<path d="M39.4333 27.1H64.8999V29.2333H39.4333V27.1Z" fill="#0071B3" stroke="white" stroke-width="0.2"/>
<path d="M30.1 31.7665H36.9V33.8998H30.1V31.7665Z" fill="#0071B3" stroke="white" stroke-width="0.2"/>
<path d="M39.1 31.7665H59.9V33.8998H39.1V31.7665Z" fill="#0071B3" stroke="white" stroke-width="0.2"/>
<path d="M30.1 36.4335H46.2333V38.5668H30.1V36.4335Z" fill="#0071B3" stroke="white" stroke-width="0.2"/>
<path d="M48.7667 36.4335H55.5667V38.5668H48.7667V36.4335Z" fill="#0071B3" stroke="white" stroke-width="0.2"/>
<path d="M25.6109 56.0124L25.625 55.9H25.5117H5.83346C2.66829 55.8961 0.103919 53.3317 0.0999999 50.1665L0.1 5.8334C0.103952 2.66826 2.66831 0.103919 5.83346 0.0999999L64.1666 0.1C67.3317 0.103952 69.8961 2.66831 69.9 5.83346V50.1665C69.8961 53.3317 67.3317 55.8961 64.1665 55.9H44.4883H44.375L44.3891 56.0124L45.2641 63.0124L45.275 63.1H45.3633H47.8333C49.711 63.1 51.2333 64.6224 51.2333 66.5C51.2333 68.3776 49.711 69.9 47.8333 69.9H22.1667C20.289 69.9 18.7667 68.3776 18.7667 66.5C18.7667 64.6224 20.289 63.1 22.1667 63.1H24.6367H24.725L24.7359 63.0124L25.6109 56.0124ZM67.6667 9.43333H67.7667V9.33333V5.83333C67.7667 3.84524 66.1548 2.23333 64.1667 2.23333H5.83333C3.84524 2.23333 2.23333 3.84524 2.23333 5.83333V9.33333V9.43333H2.33333H67.6667ZM67.7667 11.6667V11.5667H67.6667H2.33333H2.23333V11.6667V44.3333V44.4333H2.33333H67.6667H67.7667V44.3333V11.6667ZM43.0117 63.1H43.125L43.1109 62.9876L42.2359 55.9876L42.225 55.9H42.1367H27.8633H27.775L27.7641 55.9876L26.8891 62.9876L26.875 63.1H26.9883H43.0117ZM2.33333 46.5667H2.23333V46.6667V50.1667C2.23333 52.1548 3.84524 53.7667 5.83333 53.7667H64.1667C66.1548 53.7667 67.7667 52.1548 67.7667 50.1667V46.6667V46.5667H67.6667H2.33333ZM47.8333 67.7667C48.5328 67.7667 49.1 67.1995 49.1 66.5C49.1 65.8005 48.5328 65.2333 47.8333 65.2333H22.1667C21.4671 65.2333 20.9 65.8005 20.9 66.5C20.9 67.1995 21.4671 67.7667 22.1667 67.7667H47.8333Z" fill="black" stroke="white" stroke-width="0.2"/>
<path d="M60.7667 49.1H62.9001V51.2333H60.7667V49.1Z" fill="black" stroke="white" stroke-width="0.2"/>
<path d="M7.1 4.7665H9.23333V6.89984H7.1V4.7665Z" fill="black" stroke="white" stroke-width="0.2"/>
<path d="M11.7667 4.7665H13.9001V6.89984H11.7667V4.7665Z" fill="black" stroke="white" stroke-width="0.2"/>
<path d="M16.4333 4.7665H18.5666V6.89984H16.4333V4.7665Z" fill="black" stroke="white" stroke-width="0.2"/>
</svg>
