<svg width="70" height="70" viewBox="0 0 70 70" fill="none" xmlns="http://www.w3.org/2000/svg">
<path d="M69.101 47.0519L58.5812 36.5304C61.1228 33.1813 62.7095 29.1668 63.1164 24.9579C63.6147 19.7925 62.3281 14.5737 59.4934 10.2623C59.182 9.78912 58.546 9.65775 58.0733 9.9691C57.6001 10.2805 57.4688 10.9165 57.7801 11.3897C63.1447 19.5479 62.0195 30.4892 55.1045 37.4047C47.028 45.4817 33.8875 45.4817 25.8115 37.4047C17.735 29.3276 17.735 16.185 25.8115 8.10791C33.8875 0.0308418 47.0285 0.0308418 55.1018 8.10524L55.1579 8.16185C55.5574 8.56346 56.2062 8.56613 56.6079 8.16666C57.01 7.76772 57.0121 7.11831 56.6132 6.7167L56.5545 6.65742C47.6784 -2.21914 33.237 -2.21914 24.361 6.65742C24.0822 6.93619 23.8125 7.22031 23.5514 7.50977H1.02539C0.459289 7.50977 0 7.96906 0 8.53516V13.0704C0 13.637 0.459289 14.0963 1.02539 14.0963C1.59202 14.0963 2.05078 13.637 2.05078 13.0704V9.56108H21.9065C21.123 10.6618 20.449 11.8164 19.8845 13.0111H7.10936C6.54326 13.0111 6.08397 13.4698 6.08397 14.0365C6.08397 14.6031 6.54326 15.0619 7.10936 15.0619H19.0359C18.7416 15.8854 18.4965 16.7222 18.3 17.5687H7.10936C6.54326 17.5687 6.08397 18.0275 6.08397 18.5941C6.08397 19.1602 6.54326 19.6195 7.10936 19.6195H17.9208C17.806 20.451 17.7371 21.2879 17.7141 22.1258H7.10936C6.54326 22.1258 6.08397 22.5851 6.08397 23.1518C6.08397 23.7179 6.54326 24.1771 7.10936 24.1771H17.7499C17.9347 27.1561 18.6989 30.1052 20.0453 32.8379H18.3208C17.7542 32.8379 17.2954 33.2972 17.2954 33.8639V64.2196C17.2954 64.7863 17.7542 65.2456 18.3208 65.2456H26.5239C27.0906 65.2456 27.5493 64.7863 27.5493 64.2196V41.511C28.4727 42.1471 29.4324 42.7078 30.4204 43.1922V64.2196C30.4204 64.7863 30.8797 65.2456 31.4458 65.2456H39.6489C40.2155 65.2456 40.6743 64.7863 40.6743 64.2196V45.5106C41.4738 45.5026 42.2722 45.454 43.0674 45.3632V61.2028C43.0674 61.7694 43.5261 62.2287 44.0928 62.2287C44.6589 62.2287 45.1182 61.7694 45.1182 61.2028V45.0331C48.3594 44.3602 51.4809 42.977 54.2313 40.883L64.749 51.4023C65.3306 51.9833 66.1034 52.3038 66.9248 52.3038C67.7467 52.3038 68.5195 51.9833 69.1005 51.4023C70.2995 50.2039 70.3 48.2524 69.101 47.0519ZM25.4985 63.1942H19.3462V34.8892H21.1935C22.0806 36.2976 23.1359 37.6295 24.361 38.8552C24.7306 39.2247 25.1108 39.5777 25.4985 39.9163V63.1942ZM32.4717 63.1942V44.0745C34.4605 44.8163 36.5327 45.2702 38.624 45.4379V63.1942H32.4717ZM67.6511 49.9518C67.4572 50.1456 67.1993 50.2525 66.9253 50.2525C66.6513 50.2525 66.3934 50.1456 66.2001 49.9518L55.8121 39.5633C56.0637 39.3331 56.3115 39.0981 56.5545 38.8552C56.7969 38.6127 57.033 38.3654 57.2631 38.1128L67.65 48.5018C68.05 48.9018 68.0506 49.5528 67.6511 49.9518Z" fill="#0071B3"/>
<path d="M44.0929 64.5983C43.5268 64.5983 43.0675 65.057 43.0675 65.6237V67.9484H2.05078V17.5142C2.05078 16.9475 1.59203 16.4888 1.02539 16.4888C0.45929 16.4888 0 16.9475 0 17.5142V68.9738C0 69.5405 0.45929 69.9992 1.02539 69.9992H44.0929C44.6595 69.9992 45.1183 69.5405 45.1183 68.9738V65.6237C45.1183 65.057 44.6595 64.5983 44.0929 64.5983Z" fill="#0071B3"/>
<path d="M4.44336 42.0669V64.2191C4.44336 64.7852 4.90265 65.2445 5.46875 65.2445H13.6724C14.2385 65.2445 14.6978 64.7852 14.6978 64.2191V42.0669C14.6978 41.5008 14.2385 41.0415 13.6724 41.0415H5.46875C4.90265 41.0415 4.44336 41.5008 4.44336 42.0669ZM6.49414 43.0928H12.647V63.1931H6.49414V43.0928Z" fill="#0071B3"/>
<path d="M14.7768 28.7349C15.3435 28.7349 15.8022 28.2756 15.8022 27.709C15.8022 27.1429 15.3435 26.6836 14.7768 26.6836H7.10938C6.54327 26.6836 6.08398 27.1429 6.08398 27.709C6.08398 28.2756 6.54327 28.7349 7.10938 28.7349H14.7768Z" fill="#0071B3"/>
<path d="M40.5002 6C36.0863 6 31.9407 7.76647 28.8277 10.9739C25.7147 14.1813 24 18.4524 24 23C24 27.5476 25.7147 31.8187 28.8277 35.0261C31.9412 38.2335 36.0863 40 40.5002 40C44.9142 40 49.0593 38.2335 52.1727 35.0261C55.2857 31.8187 57 27.5476 57 23C57 18.4524 55.2857 14.1813 52.1727 10.9739C49.0593 7.76647 44.9142 6 40.5002 6ZM50.8898 33.7044C48.1193 36.559 44.4295 38.1308 40.5002 38.1308C36.5705 38.1308 32.8812 36.559 30.1107 33.7044C27.3397 30.8499 25.8139 27.0483 25.8139 23C25.8139 18.9512 27.3397 15.1497 30.1107 12.2951C32.9747 9.34413 36.7377 7.86818 40.5002 7.86818C44.2627 7.86818 48.0257 9.34413 50.8898 12.2951C53.6603 15.1497 55.1861 18.9512 55.1861 23C55.1861 27.0483 53.6603 30.8499 50.8898 33.7044Z" fill="#0071B3"/>
</svg>
