<svg width="58" height="70" viewBox="0 0 58 70" fill="none" xmlns="http://www.w3.org/2000/svg">
<path d="M28.5 8C29.3 8.1 29.9 7.5 29.9 6.7C29.9 6.1 29.3 5.5 28.6 5.5C27.9 5.5 27.3 6.1 27.3 6.8C27.3 7.4 27.8 8 28.5 8Z" fill="#0071B3"/>
<path d="M55.9 8.2C52.1 8.2 49 5.1 49 1.3C49 0.6 48.4 0 47.7 0H9.5C8.8 0 8.2 0.6 8.2 1.3C8.2 5.1 5.1 8.2 1.3 8.2C0.6 8.2 0 8.8 0 9.5V31.8C0 49.1 11.3 64.7 28.2 69.8H28.9C45.5 64.8 57.1 49.6 57.1 31.8V9.5C57.2 8.8 56.6 8.2 55.9 8.2ZM54.7 10.8V31.8C54.7 48.2 44.3 62.4 28.7 67.2C13.2 62.4 2.7 48.1 2.7 31.8V10.8V10.7H2.8C6.9 10.1 10.2 6.8 10.8 2.7V2.6H10.9H46.6V2.7C47.2 6.8 50.4 10.1 54.7 10.8Z" fill="#0071B3"/>
<path d="M51 12.6999C48.1 11.3999 45.8 9.1999 44.6 6.2999C44.4 5.7999 43.9 5.4999 43.4 5.4999H34.1C33.4 5.4999 32.8 6.0999 32.8 6.7999C32.8 7.4999 33.4 8.0999 34.1 8.0999H42.6V8.1999C44 10.9999 46.3 13.2999 49.1 14.6999H49.2V14.7999V31.8999C49.2 45.2999 41.1 56.8999 28.6 61.4999C16.1 56.7999 8 45.1999 8 31.7999V14.6999V14.5999H8.1C10.9 13.1999 13.2 10.8999 14.6 8.0999V7.9999H14.7H23.2C23.9 7.9999 24.5 7.3999 24.5 6.6999C24.5 5.9999 23.9 5.3999 23.2 5.3999H13.9C13.4 5.3999 12.9 5.6999 12.7 6.1999C11.4 9.0999 9.2 11.3999 6.3 12.5999C5.8 12.7999 5.5 13.2999 5.5 13.7999V31.7999C5.5 46.3999 14.5 59.1999 28.2 63.9999C28.3 63.9999 28.5 64.0999 28.6 64.0999C28.7 64.0999 28.9 64.0999 29 63.9999C42.7 59.1999 51.7 46.3999 51.7 31.7999V13.7999C51.7 13.2999 51.4 12.8999 51 12.6999Z" fill="#0071B3"/>
<path d="M16.3999 32.2C16.3999 38.9 21.8999 44.4 28.5999 44.4C35.2999 44.4 40.7999 38.9 40.7999 32.2C40.7999 25.5 35.2999 20 28.5999 20C21.8999 20 16.3999 25.5 16.3999 32.2ZM38.2999 32.2C38.2999 37.5 33.9999 41.9 28.5999 41.9C23.1999 41.9 18.8999 37.6 18.8999 32.2C18.8999 26.9 23.1999 22.5 28.5999 22.5C33.9999 22.5 38.2999 26.9 38.2999 32.2Z" fill="#0071B3"/>
<path d="M27.2001 34.4L25.4001 32.6C24.9001 32.1 24.1001 32.1 23.6001 32.6C23.1001 33.1 23.1001 33.9 23.6001 34.4L26.3001 37.1C26.5001 37.3 26.9001 37.5 27.2001 37.5C27.5001 37.5 27.8001 37.4 28.1001 37.1L34.9001 30.3C35.4001 29.8 35.4001 29 34.9001 28.5C34.4001 28 33.6001 28 33.1001 28.5L27.2001 34.4Z" fill="#0071B3"/>
</svg>
