<svg width="71" height="71" viewBox="0 0 71 71" fill="none" xmlns="http://www.w3.org/2000/svg">
<path d="M0.15422 6.4213L4.82266 14.5906C4.98013 14.8666 5.2437 15.0664 5.55193 15.1437L9.90734 16.2325L24.8455 31.1707L26.4961 29.5206L11.3241 14.3491C11.1748 14.1993 10.9876 14.0932 10.7826 14.0418L6.59757 12.9919L2.62287 6.03243L6.03058 2.62471L12.9929 6.60326L14.0434 10.7882C14.0943 10.9937 14.2008 11.1814 14.3501 11.3308L29.5221 26.5027L31.1722 24.8521L16.234 9.91399L15.1452 5.56097C15.0679 5.25227 14.8682 4.98822 14.5921 4.83027L6.42234 0.162308C5.96673 -0.0969433 5.39349 -0.0201282 5.0219 0.350025L0.353939 5.01847C-0.0214951 5.38766 -0.103111 5.96185 0.15422 6.4213Z" fill="#0071B3"/>
<path d="M48.6749 23.0007L22.9999 48.6761L21.3494 47.0256L47.0248 21.3506L48.6749 23.0007Z" fill="black"/>
<path d="M18.5062 49.5846C18.295 49.2332 17.9157 49.0186 17.5057 49.0186H10.5035C10.094 49.0186 9.71425 49.2332 9.50349 49.5846L6.00216 55.4197C5.77988 55.7893 5.77988 56.2517 6.00216 56.6218L9.50349 62.4569C9.71425 62.8079 10.094 63.0229 10.5035 63.0229H17.5057C17.9157 63.0229 18.295 62.8079 18.5062 62.4569L22.0071 56.6218C22.2294 56.2517 22.2294 55.7893 22.0071 55.4197L18.5062 49.5846ZM16.8456 60.6887H11.1641L8.36327 56.0207L11.1641 51.3523H16.8456L19.6464 56.0207L16.8456 60.6887Z" fill="black"/>
<path d="M56.0184 28.0116C63.7263 28.0375 69.9964 21.8097 70.0223 14.1018C70.0261 12.9284 69.8821 11.7599 69.5936 10.6226C69.438 9.99699 68.8048 9.61627 68.1792 9.77183C67.9737 9.8232 67.7865 9.9293 67.6367 10.0786L60.3719 17.3386L54.6079 15.4177L52.6856 9.65516L59.9504 2.38893C60.406 1.93284 60.4055 1.19397 59.9494 0.738359C59.7992 0.588089 59.61 0.481508 59.4031 0.430618C51.928 -1.4624 44.3344 3.0625 42.4413 10.5371C42.1538 11.6711 42.0102 12.8368 42.0141 14.0067C42.0169 14.9256 42.1115 15.8417 42.2978 16.7414L16.739 42.2997C15.8393 42.1139 14.9233 42.0193 14.0048 42.016C6.27004 42.016 0 48.286 0 56.0208C0 63.7551 6.27004 70.0252 14.0048 70.0252C21.7392 70.0252 28.0092 63.7551 28.0092 56.0208C28.0063 55.1019 27.9113 54.1859 27.7255 53.2862L33.8443 47.1674L36.5203 49.8434C36.9764 50.299 37.7148 50.299 38.1709 49.8434L38.7542 49.2596C39.266 48.7512 40.0932 48.7512 40.605 49.2596C41.1163 49.7695 41.1172 50.5972 40.6074 51.1085C40.6069 51.109 40.6059 51.1099 40.605 51.1109L40.0217 51.6942C39.5661 52.1498 39.5661 52.8887 40.0217 53.3443L53.9435 67.2661C57.6051 70.9614 63.5689 70.9883 67.2642 67.3266C70.959 63.6649 70.9859 57.7007 67.3242 54.0059C67.3045 53.9857 67.2843 53.9655 67.2642 53.9454L53.3424 40.024C52.8868 39.5684 52.1479 39.5684 51.6923 40.024L51.109 40.6074C50.5967 41.1163 49.77 41.1163 49.2577 40.6074C48.7469 40.0975 48.7455 39.2698 49.2553 38.759C49.2563 38.758 49.2572 38.7576 49.2577 38.7566L49.8415 38.1728C50.2971 37.7172 50.2971 36.9783 49.8415 36.5227L47.1655 33.8467L53.2843 27.7279C54.184 27.9137 55.1 28.0087 56.0184 28.0116ZM60.6038 67.6914C59.756 67.69 58.9153 67.5368 58.1217 67.2387L67.2363 58.1236C68.6118 61.7824 66.761 65.8632 63.1022 67.2387C62.3038 67.5388 61.4574 67.6924 60.6038 67.6914ZM47.3825 37.3595C46.0901 38.9011 46.2927 41.1988 47.8342 42.4908C49.1891 43.6262 51.1637 43.6252 52.5171 42.4874L65.6141 55.5959C65.7562 55.7385 65.8892 55.8888 66.0178 56.0415L56.0395 66.0197C55.8864 65.8916 55.7361 65.7586 55.5935 65.616L42.4865 52.508C43.7789 50.9664 43.5763 48.6686 42.0347 47.3767C40.6799 46.2408 38.7048 46.2422 37.3514 47.3796L35.4843 45.5125L45.5149 35.4968L47.3825 37.3595ZM52.0951 25.6217L25.6203 52.0912C25.3298 52.3812 25.2131 52.8023 25.312 53.2003C26.9132 59.4881 23.1137 65.8834 16.8254 67.484C10.5376 69.0852 4.14226 65.2857 2.54114 58.9974C0.940506 52.7096 4.73998 46.3143 11.0283 44.7131C12.9304 44.2292 14.9233 44.2292 16.8254 44.7131C17.2234 44.8106 17.6435 44.6939 17.9344 44.4054L44.403 17.9354C44.693 17.6454 44.8096 17.2243 44.7098 16.8268C43.1197 10.6125 46.8683 4.28578 53.0826 2.69523C54.257 2.39517 55.4716 2.27994 56.6814 2.35532L50.5252 8.51398C50.2126 8.82604 50.1032 9.28837 50.2429 9.70749L52.5766 16.7102C52.6933 17.0582 52.9669 17.3319 53.3155 17.4476L60.3181 19.7818C60.7368 19.9215 61.1991 19.8125 61.5117 19.5005L67.6679 13.3442C67.6818 13.567 67.689 13.7873 67.689 14.0067C67.7217 20.4194 62.5501 25.6442 56.1375 25.6774C55.1461 25.6822 54.1581 25.5602 53.1979 25.3144C52.7999 25.215 52.3788 25.3312 52.0888 25.6212H52.0951V25.6217Z" fill="black"/>
<path d="M60.3459 58.6965L58.6953 60.3471L47.0251 48.6769L48.6752 47.0264L60.3459 58.6965Z" fill="black"/>
</svg>
