<svg width="70" height="70" viewBox="0 0 70 70" fill="none" xmlns="http://www.w3.org/2000/svg">
<path fill-rule="evenodd" clip-rule="evenodd" d="M52.5 11.4844H66.8427C68.5837 11.4844 70 12.9007 70 14.6417V54.1278C70 55.8688 68.5837 57.2852 66.8427 57.2852H44.613C44.9043 60.0109 46.3064 61.927 47.3461 63H44.6771C43.6882 61.6184 42.7591 59.7131 42.55 57.2852H27.45C27.2409 59.7131 26.3118 61.6184 25.3229 63H22.663C23.7038 61.9306 25.0993 60.0221 25.388 57.2852H3.15735C1.41632 57.2852 0 55.8688 0 54.1278V14.6417C0 12.9007 1.41632 11.4844 3.15735 11.4844H25.686V9.43359H16.4917C15.9251 9.43359 15.4663 8.97484 15.4663 8.4082V5.9761C14.2727 5.5526 13.4155 4.41292 13.4155 3.07617C13.4155 1.38 14.7955 0 16.4917 0C18.1879 0 19.5679 1.38 19.5679 3.07617C19.5679 4.41292 18.7107 5.5526 17.5171 5.9761V7.38281H26.7114C27.2781 7.38281 27.7368 7.84157 27.7368 8.4082V11.4844H33.9746V5.9761C32.781 5.5526 31.9238 4.41292 31.9238 3.07617C31.9238 1.38 33.3038 0 35 0C36.6962 0 38.0762 1.38 38.0762 3.07617C38.0762 4.41292 37.219 5.5526 36.0254 5.9761V11.4844H42.2632V8.4082C42.2632 7.84157 42.7219 7.38281 43.2886 7.38281H52.4829V5.9761C51.2893 5.5526 50.4321 4.41292 50.4321 3.07617C50.4321 1.38 51.8121 0 53.5083 0C55.2045 0 56.5845 1.38 56.5845 3.07617C56.5845 4.41292 55.7273 5.5526 54.5337 5.9761V8.4082C54.5337 8.97484 54.0749 9.43359 53.5083 9.43359H44.314V11.4844H48.125C48.6916 11.4844 49.1504 11.9431 49.1504 12.5098C49.1504 13.0764 48.6916 13.5352 48.125 13.5352H44.314V15.5859H64.873C65.4397 15.5859 65.8984 16.0447 65.8984 16.6113V52.1582C65.8984 52.7248 65.4397 53.1836 64.873 53.1836H5.12695C4.56032 53.1836 4.10156 52.7248 4.10156 52.1582V48.0796C4.10156 47.513 4.56032 47.0542 5.12695 47.0542C5.69359 47.0542 6.15234 47.513 6.15234 48.0796V51.1328H63.8477V17.6367H44.314V23.1375L48.7039 25.2348C49.0596 25.4051 49.2871 25.7693 49.2871 26.1603V42.8827C49.2871 43.2779 49.0601 43.6378 48.7039 43.8082L46.5971 44.8144C46.0865 45.0584 45.4739 44.8421 45.2299 44.3311C44.9858 43.8205 45.2021 43.2079 45.7132 42.9639L47.2363 42.2365V27.7865L36.0254 33.1425V47.5925L42.0132 44.7316C42.5238 44.4875 43.1369 44.7038 43.381 45.2149C43.625 45.7255 43.4087 46.338 42.8976 46.5821L35.4422 50.1443C35.1693 50.2724 34.8451 50.2794 34.5578 50.1443L21.2961 43.8082C20.9399 43.6378 20.7129 43.2779 20.7129 42.8827V26.1603C20.7129 25.7645 20.9457 25.4025 21.2961 25.2348L25.686 23.1375V17.6367H6.15234V43.7046C6.15234 44.2707 5.69359 44.73 5.12695 44.73C4.56032 44.73 4.10156 44.2707 4.10156 43.7046V16.6113C4.10156 16.0447 4.56032 15.5859 5.12695 15.5859H25.686V13.5352H3.15735C2.54692 13.5352 2.05078 14.0313 2.05078 14.6417V54.1278C2.05078 54.7382 2.54692 55.2344 3.15735 55.2344H66.8427C67.4531 55.2344 67.9492 54.7382 67.9492 54.1278V14.6417C67.9492 14.0313 67.4531 13.5352 66.8427 13.5352H52.5C51.9334 13.5352 51.4746 13.0764 51.4746 12.5098C51.4746 11.9431 51.9334 11.4844 52.5 11.4844ZM54.5337 3.07617C54.5337 2.5106 54.0739 2.05078 53.5083 2.05078C52.9427 2.05078 52.4829 2.5106 52.4829 3.07617C52.4829 3.64174 52.9427 4.10156 53.5083 4.10156C54.0739 4.10156 54.5337 3.64174 54.5337 3.07617ZM36.0254 3.07617C36.0254 2.5106 35.5656 2.05078 35 2.05078C34.4344 2.05078 33.9746 2.5106 33.9746 3.07617C33.9746 3.64174 34.4344 4.10156 35 4.10156C35.5656 4.10156 36.0254 3.64174 36.0254 3.07617ZM17.5171 3.07617C17.5171 2.5106 17.0573 2.05078 16.4917 2.05078C15.9261 2.05078 15.4663 2.5106 15.4663 3.07617C15.4663 3.64174 15.9261 4.10156 16.4917 4.10156C17.0573 4.10156 17.5171 3.64174 17.5171 3.07617ZM33.9746 17.6367H27.7368V22.1581L33.9746 19.1775V17.6367ZM35 31.3593L45.883 26.1603L35 20.9607L24.117 26.1603L35 31.3593ZM33.9746 33.1425L22.7637 27.7865V42.2365L33.9746 47.5925V33.1425ZM36.0254 19.1775L42.2632 22.1581V17.6367H36.0254V19.1775ZM42.2632 15.5859V13.5352H36.0254V15.5859H42.2632ZM33.9746 15.5859V13.5352H27.7368V15.5859H33.9746Z" fill="black"/>
<rect x="16" y="64" width="39" height="5" rx="2.5" stroke="#0071B3" stroke-width="2"/>
</svg>
