<svg width="71" height="70" viewBox="0 0 71 70" fill="none" xmlns="http://www.w3.org/2000/svg">
<path d="M36.3867 46.6742C36.0614 46.866 35.6417 46.8622 35.3212 46.6614L25.9565 40.7889C25.6574 40.6015 25.4758 40.2735 25.4758 39.9205V30.2284C25.4684 30.1788 25.4636 30.1286 25.4636 30.0773C25.4636 29.7237 25.6457 29.3953 25.9453 29.2078L35.3223 23.3487C35.6545 23.1409 36.0764 23.1409 36.4091 23.3487L45.7861 29.2078C46.082 29.3932 46.2678 29.7307 46.2678 30.0794V39.9205C46.2678 40.2735 46.0857 40.602 45.7866 40.7894L36.4096 46.662C36.4022 46.6662 36.3941 46.6694 36.3867 46.6742ZM34.8406 43.9393V36.5047L27.5266 31.9347V39.3528L34.8406 43.9393ZM35.866 25.4272L28.4292 30.0741L35.866 34.7268L43.3075 30.0773L35.866 25.4272ZM44.217 31.9273L36.8908 36.5047V43.9409L44.217 39.3528V31.9273Z" fill="#FF5555"/>
<path d="M70.3821 17.604L61.0051 23.4765C60.6782 23.6811 60.2435 23.6805 59.9167 23.476L50.5519 17.6035C50.2529 17.416 50.0713 17.0881 50.0713 16.7351V7.04193C50.0638 6.99279 50.059 6.94259 50.059 6.89186C50.059 6.53831 50.2411 6.20933 50.5407 6.02241L59.9177 0.163247C61.0393 -0.537439 62.1261 1.20146 61.0046 1.90214L53.0246 6.88865L60.4614 11.5419L67.903 6.89186L64.4418 4.72892C63.3197 4.02823 64.4065 2.2888 65.528 2.98949L70.3816 6.02241C70.6764 6.20666 70.8633 6.54418 70.8633 6.89186V16.7351C70.8633 17.0881 70.6817 17.4166 70.3821 17.604ZM68.813 8.7413L68.6501 8.84331L61.4868 13.3193V20.7555L68.813 16.1674V8.7413ZM59.436 20.7539V13.3193L52.1221 8.74931V16.1679L59.436 20.7539Z" fill="black"/>
<path d="M21.1912 17.6039L11.8142 23.4764C11.4879 23.6815 11.0521 23.6799 10.7258 23.4759L1.36103 17.6034C1.06196 17.4159 0.880383 17.088 0.880383 16.735V7.04288C0.872906 6.99322 0.868099 6.94302 0.868099 6.89175C0.868099 6.5382 1.05021 6.20975 1.34982 6.0223L10.7268 0.163136C11.059 -0.044613 11.4809 -0.044613 11.8136 0.163136L21.1901 6.0223C21.4854 6.20655 21.6724 6.54407 21.6724 6.89175V16.735C21.6724 17.088 21.4902 17.4164 21.1912 17.6039ZM19.6216 8.74119L12.2954 13.3191V20.7554L19.6216 16.1673V8.74119ZM10.2451 20.7538V13.3191L2.93063 8.7492V16.1678L10.2451 20.7538ZM11.27 2.24169L3.83319 6.88854L11.2705 11.5418L18.7121 6.89175L11.27 2.24169Z" fill="black"/>
<path d="M50.5407 52.3929L59.9177 46.5337C60.2505 46.326 60.6724 46.326 61.0046 46.5337L70.3816 52.3929C70.6764 52.5772 70.8633 52.9141 70.8633 53.2624V63.1051C70.8633 63.4586 70.6817 63.7871 70.3821 63.9745L61.0051 69.847C60.6782 70.0516 60.2435 70.051 59.9161 69.8465L50.5514 63.974C50.2523 63.7865 50.0708 63.4581 50.0708 63.1051V53.4124C50.0638 53.3633 50.059 53.3131 50.059 53.2624C50.059 52.9088 50.2411 52.5804 50.5407 52.3929ZM60.4614 48.6123L53.0246 53.2591L60.4614 57.9124L67.903 53.2624L60.4614 48.6123ZM68.813 55.1118L68.6501 55.2138L61.4868 59.6898V67.126L68.813 62.5374V55.1118ZM59.436 67.1249V59.6898L52.1221 55.1198V62.5384L59.436 67.1249Z" fill="black"/>
<path d="M1.34982 52.3929L10.7268 46.5337C11.0595 46.326 11.4815 46.326 11.8136 46.5337L21.1906 52.3929C21.4854 52.5772 21.6724 52.9141 21.6724 53.2624V63.1051C21.6724 63.4586 21.4902 63.7871 21.1912 63.9745L11.8142 69.847C11.1439 70.2647 10.2451 69.7739 10.2451 68.9781V59.6897L2.93063 55.1198V62.5379L6.88107 65.0154C7.36119 65.3161 7.50592 65.9489 7.20471 66.4285C6.90403 66.9086 6.27117 67.0534 5.79159 66.7527L1.36103 63.974C1.06196 63.7865 0.880383 63.4581 0.880383 63.1051V53.4135C0.872906 53.3638 0.868099 53.3131 0.868099 53.2624C0.868099 52.9088 1.05021 52.5804 1.34982 52.3929ZM11.27 48.6123L3.83319 53.2591L11.2705 57.9124L18.7121 53.2624L11.27 48.6123ZM19.6216 55.1118L12.2954 59.6897V67.126L19.6216 62.5374V55.1118Z" fill="black"/>
<path d="M45.0598 12.311H26.7405C25.4176 12.311 25.4176 10.2607 26.7405 10.2607H45.0598C46.3821 10.2607 46.3821 12.311 45.0598 12.311Z" fill="black"/>
<path d="M26.6721 57.6992H44.9914C46.3137 57.6992 46.3137 59.75 44.9914 59.75H26.6721C25.3493 59.75 25.3493 57.6992 26.6721 57.6992Z" fill="black"/>
<path d="M12.3513 28.8715V41.0946C12.3513 41.6607 11.8926 42.1194 11.3265 42.1194C10.7598 42.1194 10.3011 41.6607 10.3011 41.0946V28.8715C10.3011 27.5487 12.3513 27.5487 12.3513 28.8715Z" fill="black"/>
<path d="M61.4309 28.917V41.14C61.4309 41.7061 60.9716 42.1654 60.4055 42.1654C59.8389 42.1654 59.3801 41.7061 59.3801 41.14V28.917C59.3801 27.5941 61.4309 27.5941 61.4309 28.917Z" fill="black"/>
<path d="M21.3384 21.3431L25.9591 24.4C26.7928 24.9512 26.3768 26.2804 25.3925 26.2804C25.1986 26.2804 25.0021 26.2254 24.828 26.1101L20.2073 23.0531C19.1045 22.3236 20.2356 20.613 21.3384 21.3431Z" fill="#FF5555"/>
<path d="M46.9034 26.1101C46.7293 26.2254 46.5333 26.2804 46.3389 26.2804C45.3552 26.2804 44.9386 24.9512 45.7723 24.4L50.393 21.3431C51.4958 20.613 52.6269 22.3236 51.5241 23.0531L46.9034 26.1101Z" fill="#FF5555"/>
<path d="M50.9573 49.5211C50.7629 49.5211 50.5669 49.4661 50.3928 49.3508L45.7721 46.2943C44.6688 45.5648 45.8004 43.8537 46.9033 44.5837L51.524 47.6407C52.3576 48.1918 51.9411 49.5211 50.9573 49.5211Z" fill="#FF5555"/>
<path d="M25.9592 46.2938L21.3385 49.3508C21.1644 49.4662 20.9684 49.5212 20.774 49.5212C19.7902 49.5212 19.3737 48.1919 20.2073 47.6407L24.828 44.5838C25.9308 43.8537 27.0625 45.5643 25.9592 46.2938Z" fill="#FF5555"/>
</svg>
