<svg width="70" height="64" viewBox="0 0 70 64" fill="none" xmlns="http://www.w3.org/2000/svg">
<path d="M69.5957 45.6538L66.2585 42.3439C65.7221 41.8119 64.8564 41.8156 64.3246 42.3518C63.7926 42.888 63.7963 43.7539 64.3325 44.2857L67.6696 47.5957C67.9362 47.8602 68.2844 47.9923 68.6325 47.9923C68.9843 47.9923 69.336 47.8573 69.6033 47.5877C70.1354 47.0515 70.1319 46.1857 69.5957 45.6538Z" fill="#0071B3"/>
<path d="M62.8581 38.9572C62.3241 38.4231 61.4585 38.4231 60.9242 38.9572L60.9219 38.9595C60.3879 39.4935 60.3891 40.3582 60.9231 40.8923C61.1897 41.159 61.5396 41.2923 61.8893 41.2923C62.2398 41.2923 62.5907 41.1585 62.8579 40.8912C63.392 40.3572 63.392 39.4913 62.8581 38.9572Z" fill="#0071B3"/>
<path d="M51.2003 45.262L64.4658 31.9966C66.4749 29.9874 66.4749 26.7182 64.4657 24.709C63.7572 24.0005 62.8919 23.543 61.9805 23.3343C62.2931 22.6624 62.4585 21.9251 62.4585 21.1621C62.4585 19.7856 61.9224 18.4915 60.9493 17.5184C60.186 16.7549 59.225 16.2619 58.1819 16.0843C58.7692 14.2952 58.3541 12.2462 56.934 10.8263C56.1532 10.0456 55.1821 9.56982 54.1686 9.39592C54.3384 8.88063 54.4279 8.33648 54.4279 7.77813C54.4279 6.40164 53.8919 5.1076 52.9187 4.13443C51.9454 3.16127 50.6513 2.6252 49.275 2.6252C48.401 2.6252 47.5605 2.84203 46.8139 3.24918L46.682 3.1074C44.9673 1.26471 42.5401 0.208008 40.0232 0.208008H29.2854C28.5303 0.208008 27.9179 0.820371 27.9179 1.57547V3.36867C27.9179 4.08631 28.0393 4.78494 28.2715 5.44187C27.6529 5.18498 26.9837 5.05004 26.2938 5.05004C24.9173 5.05004 23.6233 5.58611 22.65 6.55928C21.2292 7.98006 20.8145 10.0306 21.4031 11.8202C20.3888 11.9937 19.4163 12.4698 18.6348 13.2511C17.6617 14.2244 17.1256 15.5185 17.1256 16.8948C17.1256 17.4521 17.2149 17.9954 17.384 18.5096C16.3422 18.6877 15.3822 19.1805 14.6195 19.9432C13.0504 21.5123 12.7068 23.8502 13.5888 25.756C12.6549 25.9694 11.7971 26.4397 11.1029 27.1338C9.09378 29.1429 9.09378 32.4121 11.1029 34.4213L13.8309 37.1493L0.400517 50.5794C-0.133506 51.1135 -0.133506 51.9793 0.400517 52.5135C0.667529 52.7803 1.01753 52.914 1.36739 52.914C1.71726 52.914 2.06726 52.7805 2.33427 52.5135L15.8943 38.9534C16.662 39.3915 17.5331 39.6258 18.4411 39.6258C19.8174 39.6258 21.1115 39.0897 22.0848 38.1164C23.1422 37.0592 23.6423 35.6528 23.5866 34.2648C23.656 34.2677 23.7253 34.2697 23.7946 34.2697C25.1139 34.2696 26.4339 33.7673 27.4383 32.7629C28.4114 31.7896 28.9475 30.4956 28.9475 29.1192C28.9475 29.0496 28.9452 28.9805 28.9425 28.9113C29.011 28.914 29.0795 28.9162 29.1481 28.9162C30.4676 28.9162 31.7873 28.4139 32.7918 27.4094C33.7649 26.4361 34.301 25.1421 34.301 23.7657C34.301 23.6962 34.2987 23.627 34.296 23.5578C34.3645 23.5605 34.433 23.5627 34.5016 23.5627C35.8212 23.5627 37.1408 23.0604 38.1453 22.0559C40.0331 20.1681 40.1467 17.1681 38.4871 15.1459L47.5644 6.06859C48.0211 5.61168 48.6282 5.36025 49.2742 5.36025C49.9202 5.36025 50.5273 5.61168 50.9841 6.06859C51.4409 6.52537 51.6923 7.1324 51.6923 7.7784C51.6923 8.42426 51.4409 9.03156 50.984 9.4882L49.6456 10.8265L44.7897 15.6825C44.2556 16.2165 44.2556 17.0824 44.7897 17.6165C45.0567 17.8834 45.4067 18.0171 45.7565 18.0171C46.1064 18.0171 46.4564 17.8836 46.7234 17.6165L51.5794 12.7606C52.5221 11.8178 54.0562 11.8176 54.9991 12.7604C55.9419 13.7034 55.9419 15.2374 54.9991 16.1803L53.6607 17.5188L50.1432 21.0363C49.6091 21.5703 49.6091 22.4362 50.1432 22.9703C50.4102 23.2372 50.7602 23.3709 51.11 23.3709C51.4599 23.3709 51.8099 23.2373 52.0769 22.9703L55.5944 19.4528C56.0512 18.9959 56.6584 18.7445 57.3042 18.7445C57.9502 18.7445 58.5574 18.9959 59.0142 19.4528C59.4709 19.9096 59.7224 20.5166 59.7224 21.1626C59.7224 21.8085 59.4709 22.4158 59.014 22.8724L57.1769 24.7095L55.4965 26.3899C54.9625 26.9239 54.9625 27.7898 55.4965 28.3239C55.7635 28.5908 56.1135 28.7245 56.4634 28.7245C56.8133 28.7245 57.1633 28.591 57.4303 28.3239L59.1119 26.6423C60.0549 25.701 61.588 25.7011 62.5304 26.6435C63.4734 27.5863 63.4734 29.1205 62.5304 30.0634L49.2649 43.3288C45.9339 46.66 41.5068 48.5884 36.7991 48.7593C36.4531 48.7719 36.1244 48.9153 35.88 49.1608L23.6256 61.4606C23.0925 61.9956 23.094 62.8614 23.6292 63.3945C23.8959 63.6603 24.2451 63.7933 24.5943 63.7933C24.9449 63.7933 25.2959 63.6592 25.5629 63.3909L34.5764 54.3443C36.8659 55.813 39.5584 56.5114 42.2962 56.3304L49.3506 63.3849C49.6176 63.6518 49.9676 63.7855 50.3175 63.7855C50.6675 63.7855 51.0173 63.6519 51.2844 63.3849C51.8184 62.8509 51.8184 61.9851 51.2844 61.4509L43.784 53.9497C43.5 53.6659 43.1054 53.5208 42.7053 53.5536L42.2717 53.5892C40.2706 53.7532 38.2925 53.3149 36.5655 52.3471L37.4443 51.4651C42.6418 51.1445 47.5079 48.9545 51.2003 45.262ZM20.151 36.1827C19.6943 36.6396 19.087 36.891 18.4412 36.891C17.7952 36.891 17.1881 36.6396 16.7314 36.1827L13.0365 32.4879C12.0937 31.545 12.0937 30.0109 13.0365 29.068C13.4932 28.6111 14.1006 28.3596 14.7464 28.3596C15.3923 28.3596 15.9996 28.6111 16.4562 29.068L20.1512 32.7628C21.0939 33.7056 21.0939 35.2397 20.151 36.1827ZM25.5048 30.8289C24.5619 31.7717 23.0275 31.7717 22.0849 30.8289L18.39 27.1339L16.5527 25.2967C15.6099 24.3539 15.6099 22.8198 16.5527 21.877C17.0095 21.4201 17.6168 21.1686 18.2625 21.1686C18.9085 21.1686 19.5157 21.4201 19.9723 21.877L25.5044 27.409C25.5044 27.409 25.5044 27.409 25.5045 27.409C25.9614 27.8659 26.2129 28.4731 26.2129 29.119C26.2129 29.7648 25.9614 30.3721 25.5048 30.8289ZM30.8583 25.4753C29.9154 26.4179 28.3811 26.4181 27.4384 25.4753L20.5679 18.6047C20.1111 18.148 19.8597 17.5409 19.8597 16.8949C19.8597 16.2491 20.1111 15.6418 20.568 15.1851C21.0394 14.7137 21.6588 14.478 22.2778 14.478C22.8966 14.478 23.5153 14.7135 23.9865 15.184L27.118 18.3154L30.858 22.0555H30.8582C31.3148 22.5123 31.5662 23.1193 31.5662 23.7653C31.5665 24.4113 31.3151 25.0186 30.8583 25.4753ZM36.2119 20.1216C35.2691 21.0645 33.735 21.0645 32.7922 20.1216L25.9217 13.2511C25.921 13.2504 25.9202 13.2497 25.9193 13.2489L24.5832 11.9128C23.6404 10.9698 23.6404 9.43584 24.5832 8.49289C25.0546 8.02135 25.6739 7.78565 26.2931 7.78565C26.9123 7.78565 27.5317 8.02135 28.0029 8.49289L36.2117 16.7016C36.6686 17.1584 36.92 17.7656 36.92 18.4114C36.9201 19.0576 36.6688 19.665 36.2119 20.1216ZM36.5715 13.1938L32.8156 9.43789C33.2414 9.52881 33.6794 9.57707 34.1251 9.57693C34.135 9.57693 34.1452 9.57693 34.1553 9.57693L37.9079 9.5593C38.663 9.55574 39.2725 8.94064 39.269 8.18541C39.2654 7.43236 38.6539 6.82438 37.9016 6.82438C37.8995 6.82438 37.8973 6.82438 37.8951 6.82438L34.1424 6.84201C34.1367 6.84201 34.1312 6.84201 34.1255 6.84201C33.2008 6.84201 32.3312 6.48312 31.6755 5.83057C31.0157 5.17377 30.6524 4.29959 30.6524 3.36854V2.94279H40.0228C41.7831 2.94279 43.4804 3.68176 44.6797 4.97047L44.7354 5.03022L36.5715 13.1938Z" fill="black"/>
</svg>
