<svg width="82" height="80" viewBox="0 0 82 80" fill="none" xmlns="http://www.w3.org/2000/svg">
<rect x="38" y="77" width="37" height="3" fill="#0071B3"/>
<path fill-rule="evenodd" clip-rule="evenodd" d="M24.8382 76.7794C18.6274 74.0983 13.3308 69.4535 9.78308 63.3087C0.901475 47.9253 6.24223 27.9934 21.6256 19.1117C22.3582 18.6888 23.0416 19.0267 23.3588 19.5762C23.5137 19.8443 23.5137 20.0709 23.5137 20.3583C23.5137 20.4635 23.5137 20.5768 23.5212 20.7033C23.4438 20.9922 23.1833 21.3868 23.0002 21.4925C8.89872 29.634 4.02237 47.8327 12.1638 61.9342C17.7677 71.6404 28.7316 77.5194 39.954 76.6563L39.9352 76.7794H40.4958V79.9765H0V76.7794H24.8382Z" fill="#0071B3"/>
<path d="M30.4521 16.2135L38.7195 5.57996C38.9801 5.18535 39.1632 5.07962 39.6352 5.05129C40.1072 5.02296 40.3961 5.10036 40.6075 5.46663C41.1079 5.91031 41.3477 6.74858 40.7209 7.35465L34.8266 14.9088L36.0595 14.9295C48.3316 14.1929 59.6901 20.3325 65.8227 30.9544C74.7043 46.3378 69.3635 66.2697 53.9801 75.1513C53.2476 75.5743 52.5641 75.2363 52.2469 74.6869C51.9297 74.1375 52.1619 73.2709 52.7113 72.9537C66.8128 64.8122 71.6891 46.6135 63.5476 32.512C57.9438 22.8058 46.9799 16.9268 35.7575 17.7899L34.6304 17.9523L42.8472 25.4173C43.2418 25.6778 43.1644 25.9667 43.3759 26.333C43.5873 26.6993 43.3268 27.0939 42.9605 27.3053C42.7 27.6999 42.4111 27.6225 42.0448 27.834C41.6786 28.0455 41.284 27.7849 41.0725 27.4187L31.0375 18.0732C30.1425 17.369 30.0085 16.7138 30.4521 16.2135Z" fill="#0071B3"/>
</svg>
