<svg width="70" height="70" viewBox="0 0 70 70" fill="none" xmlns="http://www.w3.org/2000/svg">
<path d="M66.924 29.7363C65.5872 29.7363 64.4476 30.5935 64.0241 31.7871H58.174V30.5908C58.174 30.0247 57.7152 29.5654 57.1486 29.5654C56.5825 29.5654 56.1232 30.0247 56.1232 30.5908V35.5896C56.1232 40.7032 54.4089 45.5182 51.2959 49.1472C46.9481 54.2138 41.4666 58.0665 35.0002 60.6006C29.219 58.3351 24.2101 55.0052 20.1107 50.7023C19.7197 50.2922 19.0709 50.2762 18.6607 50.6671C18.2511 51.0575 18.2351 51.7064 18.6255 52.1165C20.0407 53.6017 21.5596 54.9743 23.174 56.2352V64.0244C21.9809 64.4474 21.1232 65.587 21.1232 66.9243C21.1232 68.6205 22.5033 70.0005 24.1994 70.0005C25.8956 70.0005 27.2756 68.6205 27.2756 66.9243C27.2756 65.5876 26.4184 64.4474 25.2248 64.0244V57.7375C28.0393 59.674 31.1133 61.2948 34.4287 62.5792C34.6135 62.6503 34.8069 62.686 35.0007 62.686C35.1941 62.686 35.3874 62.6503 35.5711 62.5792C42.43 59.9228 48.2443 55.8533 52.8526 50.4823C54.9846 47.9973 56.5206 45.0141 57.3793 41.7676H60.8453C61.2689 42.9612 62.4085 43.8183 63.7453 43.8183C65.4414 43.8183 66.8214 42.4383 66.8214 40.7422C66.8214 39.046 65.4414 37.666 63.7453 37.666C62.4085 37.666 61.2689 38.5237 60.8453 39.7168H57.8253C58.056 38.371 58.174 36.9899 58.174 35.5896V33.8379H64.0241C64.4476 35.0315 65.5872 35.8887 66.924 35.8887C68.6202 35.8887 70.0002 34.5087 70.0002 32.8125C70.0002 31.1163 68.6202 29.7363 66.924 29.7363ZM24.1994 67.9492C23.6339 67.9492 23.174 67.4894 23.174 66.9238C23.174 66.3582 23.6339 65.8984 24.1994 65.8984C24.765 65.8984 25.2248 66.3582 25.2248 66.9238C25.2248 67.4894 24.765 67.9492 24.1994 67.9492ZM63.7453 39.7168C64.3108 39.7168 64.7707 40.1766 64.7707 40.7422C64.7707 41.3077 64.3108 41.7676 63.7453 41.7676C63.1797 41.7676 62.7199 41.3077 62.7199 40.7422C62.7199 40.1766 63.1797 39.7168 63.7453 39.7168ZM66.924 33.8379C66.3584 33.8379 65.8986 33.3781 65.8986 32.8125C65.8986 32.2469 66.3584 31.7871 66.924 31.7871C67.4896 31.7871 67.9494 32.2469 67.9494 32.8125C67.9494 33.3781 67.4896 33.8379 66.924 33.8379Z" fill="black"/>
<path d="M13.8769 35.5896V16.936C17.6383 16.0468 21.546 14.3896 25.4991 12.0061C31.3593 8.47335 38.6406 8.47335 44.5008 12.0061C46.26 13.0662 48.0096 13.9821 49.7415 14.7512C49.7608 14.7603 49.78 14.7693 49.8003 14.7768C51.9408 15.7237 54.0541 16.4468 56.123 16.936V26.204C56.123 26.7707 56.5817 27.2294 57.1484 27.2294C57.715 27.2294 58.1738 26.7707 58.1738 26.204V16.5595C58.1738 15.8262 57.6685 15.1816 56.9721 15.0268C55.0891 14.6081 53.16 13.9789 51.2011 13.149V5.9761C52.3947 5.55259 53.2519 4.41291 53.2519 3.07617C53.2519 1.38 51.8719 0 50.1757 0C48.4796 0 47.0996 1.38 47.0996 3.07617C47.0996 4.41291 47.9573 5.55259 49.1503 5.9761V12.2128C47.9621 11.6302 46.7642 10.9759 45.5599 10.2502C39.0465 6.32324 30.9534 6.32377 24.4406 10.2502C20.5356 12.6037 16.6957 14.2113 13.0278 15.0268C12.3314 15.1816 11.8262 15.8262 11.8262 16.5595V22.7636H5.9761C5.55259 21.57 4.41291 20.7129 3.07617 20.7129C1.38 20.7129 0 22.0929 0 23.789C0 25.4852 1.38 26.8652 3.07617 26.8652C4.41291 26.8652 5.55259 26.008 5.9761 24.8144H11.8262V30.6933H9.15481C8.7313 29.4997 7.59162 28.6425 6.25488 28.6425C4.55871 28.6425 3.17871 30.0226 3.17871 31.7187C3.17871 33.4149 4.55871 34.7949 6.25488 34.7949C7.59162 34.7949 8.7313 33.9377 9.15481 32.7441H11.8262V35.5896C11.8262 40.504 13.2457 45.1134 15.9304 48.9191C16.1301 49.2021 16.4474 49.3533 16.7694 49.3533C16.9734 49.3533 17.1801 49.2924 17.3595 49.1658C17.822 48.839 17.9326 48.1992 17.6063 47.7367C15.1667 44.2787 13.8769 40.0783 13.8769 35.5896ZM50.1757 2.05078C50.7413 2.05078 51.2011 2.5106 51.2011 3.07617C51.2011 3.64174 50.7413 4.10156 50.1757 4.10156C49.6102 4.10156 49.1503 3.64174 49.1503 3.07617C49.1503 2.5106 49.6102 2.05078 50.1757 2.05078ZM3.07617 24.8144C2.5106 24.8144 2.05078 24.3546 2.05078 23.789C2.05078 23.2235 2.5106 22.7636 3.07617 22.7636C3.64174 22.7636 4.10156 23.2235 4.10156 23.789C4.10156 24.3546 3.64174 24.8144 3.07617 24.8144ZM6.25488 32.7441C5.68931 32.7441 5.22949 32.2843 5.22949 31.7187C5.22949 31.1531 5.68931 30.6933 6.25488 30.6933C6.82044 30.6933 7.28027 31.1531 7.28027 31.7187C7.28027 32.2843 6.82044 32.7441 6.25488 32.7441Z" fill="black"/>
<path d="M23.7196 17.6575C24.227 17.4065 24.4353 16.7913 24.1843 16.2839C23.9333 15.7766 23.318 15.5683 22.8101 15.8193C20.8699 16.779 18.9217 17.5753 17.0204 18.1863C16.3667 18.3961 15.9277 18.9975 15.9277 19.6827V35.5896C15.9277 40.214 17.4664 44.5543 20.26 47.8109C24.0844 52.2682 28.8519 55.746 34.4307 58.1492C34.6112 58.2272 34.8056 58.2662 35 58.2662C35.1944 58.2662 35.3888 58.2272 35.5698 58.1492C41.148 55.7465 45.915 52.2687 49.7389 47.812C52.5331 44.5543 54.0722 40.214 54.0722 35.5896V19.6827C54.0722 18.9975 53.6332 18.3961 52.9795 18.1863C49.8553 17.1828 46.6467 15.6943 43.4424 13.7627C40.896 12.2272 37.9768 11.416 35 11.416C32.0237 11.416 29.1045 12.2272 26.5576 13.7627L26.3397 13.8935C25.8532 14.1835 25.694 14.8132 25.984 15.2997C26.274 15.7862 26.9031 15.9454 27.3897 15.6554C27.4655 15.61 27.5413 15.5646 27.6166 15.5192C29.8437 14.1766 32.397 13.4668 35 13.4668C37.6035 13.4668 40.1568 14.1766 42.3839 15.5192C45.6112 17.4647 48.8518 18.9815 52.0215 20.0309V35.589C52.0215 39.7242 50.658 43.5908 48.1826 46.4763C44.6189 50.6297 40.1846 53.8869 35 56.1604C29.8148 53.8864 25.3805 50.6292 21.8168 46.4758C19.3414 43.5903 17.9785 39.7242 17.9785 35.589V20.0309C19.8707 19.4044 21.8002 18.6066 23.7196 17.6575Z" fill="black"/>
<path d="M35 23.9941C32.1732 23.9941 29.8731 26.2938 29.8731 29.1211V30.8301H29.5313C28.2121 30.8301 27.1387 31.9036 27.1387 33.2227V41.4258C27.1387 42.745 28.2121 43.8184 29.5313 43.8184H40.4688C41.7879 43.8184 42.8614 42.745 42.8614 41.4258V33.2227C42.8614 31.9036 41.7879 30.8301 40.4688 30.8301H40.127V29.1211C40.127 26.2938 37.8273 23.9941 35 23.9941ZM31.9238 29.1211C31.9238 27.4249 33.3039 26.0449 35 26.0449C36.6962 26.0449 38.0762 27.4249 38.0762 29.1211V30.8301H31.9238V29.1211ZM40.8106 33.2227V41.4258C40.8106 41.6144 40.6573 41.7676 40.4688 41.7676H29.5313C29.3427 41.7676 29.1895 41.6144 29.1895 41.4258V33.2227C29.1895 33.0342 29.3427 32.8809 29.5313 32.8809H40.4688C40.6573 32.8809 40.8106 33.0342 40.8106 33.2227Z" fill="#FF5555"/>
<path d="M35 33.2227C33.3038 33.2227 31.9238 34.6027 31.9238 36.2988C31.9238 37.6356 32.7815 38.7753 33.9746 39.1988V40.4004C33.9746 40.9665 34.4339 41.4258 35 41.4258C35.5666 41.4258 36.0254 40.9665 36.0254 40.4004V39.1988C37.219 38.7753 38.0762 37.6356 38.0762 36.2988C38.0762 34.6027 36.6962 33.2227 35 33.2227ZM35 37.3242C34.4344 37.3242 33.9746 36.8644 33.9746 36.2988C33.9746 35.7333 34.4344 35.2734 35 35.2734C35.5656 35.2734 36.0254 35.7333 36.0254 36.2988C36.0254 36.8644 35.5656 37.3242 35 37.3242Z" fill="#FF5555"/>
</svg>
