<?xml version="1.0" encoding="utf-8"?>
<!-- Generator: Adobe Illustrator 22.1.0, SVG Export Plug-In . SVG Version: 6.00 Build 0)  -->
<svg version="1.1" id="ror.svg" xmlns="http://www.w3.org/2000/svg" xmlns:xlink="http://www.w3.org/1999/xlink" x="0px" y="0px"
	 viewBox="0 0 108.4 55" style="enable-background:new 0 0 108.4 55;" xml:space="preserve">
<style type="text/css">
	.st0{fill:#3F597E;fill-opacity:0;}
	.st1{opacity:0.45;}
	.st2{fill:#FFFFFF;}
	.st3{opacity:0.6;}
	.st4{opacity:0.8;}
</style>
<rect id="Прямоугольник_1" class="st0" width="108.4" height="55"/>
<g>
	<title>solidity</title>
	<g class="st1">
		<polygon class="st2" points="25.5,5.6 18.5,17.9 4.6,17.9 11.6,5.6 		"/>
	</g>
	<g class="st3">
		<polygon class="st2" points="18.5,17.9 32.4,17.9 25.5,5.6 11.6,5.6 		"/>
	</g>
	<g class="st4">
		<polygon class="st2" points="11.6,30.3 18.5,17.9 11.6,5.6 4.6,17.9 		"/>
	</g>
	<g class="st1">
		<polygon class="st2" points="11.6,48.8 18.6,36.4 32.5,36.4 25.5,48.8 		"/>
	</g>
	<g class="st3">
		<polygon class="st2" points="18.6,36.4 4.7,36.4 11.6,48.8 25.5,48.8 		"/>
	</g>
	<g class="st4">
		<polygon class="st2" points="25.5,24.1 18.6,36.4 25.5,48.8 32.5,36.4 		"/>
	</g>
	<path class="st2" d="M42.8,25.7c0,0.4,0.2,0.7,0.5,0.9c0.4,0.2,0.8,0.4,1.2,0.5c0.5,0.1,1,0.2,1.5,0.3c0.5,0.1,1,0.2,1.5,0.4
		c0.4,0.2,0.8,0.4,1.2,0.8c0.3,0.3,0.5,0.8,0.5,1.3c0,0.4-0.1,0.9-0.3,1.2c-0.2,0.3-0.5,0.6-0.8,0.8c-0.4,0.2-0.7,0.4-1.1,0.5
		c-0.4,0.1-0.8,0.2-1.2,0.2c-0.4,0-0.9,0-1.3-0.1c-0.4-0.1-0.8-0.2-1.2-0.5c-0.3-0.2-0.6-0.5-0.8-0.8c-0.2-0.4-0.3-0.8-0.3-1.3
		c0-0.1,0-0.3,0.1-0.4c0-0.1,0.2-0.2,0.4-0.2c0.1,0,0.2,0.1,0.2,0.1c0,0.1,0.1,0.2,0.1,0.3c0,0.4,0.1,0.7,0.2,1.1
		c0.1,0.3,0.4,0.5,0.6,0.6c0.3,0.2,0.6,0.3,0.9,0.3c0.4,0.1,0.7,0.1,1.1,0.1c0.3,0,0.6,0,0.9-0.1c0.3-0.1,0.6-0.2,0.9-0.4
		c0.3-0.2,0.5-0.4,0.7-0.6c0.2-0.3,0.3-0.6,0.3-0.9c0-0.4-0.2-0.8-0.5-1c-0.4-0.3-0.8-0.5-1.2-0.6c-0.5-0.2-1-0.3-1.5-0.3
		c-0.5-0.1-1-0.2-1.5-0.4c-0.4-0.2-0.8-0.4-1.2-0.7c-0.3-0.3-0.5-0.7-0.5-1.2c0-0.4,0.1-0.8,0.3-1.1c0.2-0.3,0.5-0.5,0.8-0.7
		c0.3-0.2,0.7-0.3,1.1-0.3c0.4-0.1,0.7-0.1,1.1-0.1c0.4,0,0.8,0,1.2,0.1c0.4,0.1,0.8,0.2,1.1,0.4c0.3,0.2,0.6,0.5,0.8,0.8
		c0.2,0.4,0.3,0.8,0.3,1.2c0,0.1,0,0.2-0.1,0.2c-0.1,0.1-0.2,0.1-0.3,0.1c-0.1,0-0.2,0-0.3-0.1c0-0.1-0.1-0.2-0.1-0.3
		c0-0.3-0.2-0.7-0.4-0.9c-0.2-0.2-0.4-0.4-0.6-0.5c-0.3-0.1-0.5-0.2-0.8-0.2c-0.3,0-0.6-0.1-0.9-0.1c-0.2,0-0.5,0-0.8,0
		c-0.3,0-0.6,0.1-0.8,0.2c-0.3,0.1-0.5,0.2-0.7,0.4C42.9,25.1,42.8,25.4,42.8,25.7"/>
	<path class="st2" d="M56.6,23.4c0.6,0,1.2,0.1,1.7,0.4c0.5,0.2,1,0.6,1.3,1c0.4,0.4,0.7,0.9,0.9,1.5c0.2,0.5,0.3,1.1,0.3,1.7
		c0,0.6-0.1,1.2-0.3,1.7c-0.2,0.5-0.5,1-0.9,1.5c-0.4,0.4-0.8,0.8-1.3,1c-0.5,0.3-1.1,0.4-1.7,0.4c-0.6,0-1.2-0.1-1.7-0.4
		c-0.5-0.3-1-0.6-1.3-1c-0.4-0.4-0.7-0.9-0.9-1.5c-0.2-0.5-0.3-1.1-0.3-1.7c0-0.6,0.1-1.2,0.3-1.7c0.2-0.5,0.5-1,0.9-1.5
		c0.4-0.4,0.8-0.8,1.3-1C55.5,23.5,56,23.4,56.6,23.4 M56.6,31.8c0.5,0,1-0.1,1.4-0.3c0.4-0.2,0.8-0.5,1.1-0.8
		c0.3-0.4,0.6-0.8,0.7-1.2c0.2-0.5,0.2-0.9,0.2-1.4c0-0.5-0.1-1-0.2-1.4c-0.2-0.4-0.4-0.8-0.7-1.2c-0.3-0.4-0.7-0.6-1.1-0.8
		c-0.4-0.2-0.9-0.3-1.4-0.3c-0.5,0-1,0.1-1.4,0.3c-0.4,0.2-0.8,0.5-1.1,0.8c-0.3,0.4-0.6,0.8-0.7,1.2c-0.2,0.5-0.3,0.9-0.3,1.4
		c0,0.5,0.1,1,0.3,1.4c0.2,0.4,0.4,0.9,0.7,1.2c0.3,0.4,0.7,0.6,1.1,0.8C55.7,31.7,56.1,31.8,56.6,31.8"/>
	<path class="st2" d="M64.7,16.3c0.1,0,0.2,0,0.3,0.1c0.1,0.1,0.1,0.2,0.1,0.2V32c0,0.1,0,0.2-0.1,0.2c-0.1,0.1-0.2,0.1-0.3,0.1
		c-0.1,0-0.2,0-0.3-0.1c-0.1-0.1-0.1-0.2-0.1-0.2V16.7c0-0.1,0-0.2,0.1-0.2C64.5,16.3,64.6,16.3,64.7,16.3"/>
	<path class="st2" d="M69.4,21.1c0,0.2-0.1,0.3-0.2,0.4c-0.1,0.1-0.3,0.2-0.4,0.2c-0.2,0-0.3-0.1-0.4-0.2c-0.1-0.1-0.2-0.3-0.2-0.4
		c0-0.2,0.1-0.3,0.2-0.4c0.1-0.1,0.3-0.2,0.4-0.2c0.2,0,0.3,0.1,0.4,0.2C69.3,20.8,69.4,20.9,69.4,21.1 M68.8,23.6
		c0.1,0,0.2,0,0.2,0.1c0.1,0.1,0.1,0.2,0.1,0.2v8c0,0.1,0,0.2-0.1,0.2c-0.1,0.1-0.2,0.1-0.2,0.1c-0.1,0-0.2,0-0.3-0.1
		c-0.1-0.1-0.1-0.2-0.1-0.2v-8c0-0.1,0-0.2,0.1-0.2C68.6,23.7,68.7,23.6,68.8,23.6"/>
	<path class="st2" d="M80.8,16.3c0.1,0,0.2,0,0.3,0.1c0.1,0.1,0.1,0.2,0.1,0.2V32c0,0.2-0.1,0.3-0.3,0.4c0,0-0.1,0-0.1,0
		c-0.2,0-0.3-0.1-0.4-0.3c0,0,0-0.1,0-0.1v-1.7c-0.4,0.7-0.9,1.2-1.5,1.7c-0.6,0.4-1.4,0.6-2.1,0.6c-0.6,0-1.2-0.1-1.7-0.4
		c-0.5-0.3-1-0.6-1.3-1c-0.4-0.4-0.7-0.9-0.9-1.5c-0.2-0.5-0.3-1.1-0.3-1.7c0-0.6,0.1-1.2,0.3-1.7c0.2-0.5,0.5-1,0.9-1.5
		c0.4-0.4,0.8-0.8,1.3-1c0.5-0.3,1.1-0.4,1.7-0.4c0.8,0,1.5,0.2,2.1,0.6c0.6,0.4,1.2,1,1.5,1.7v-9.1c0-0.1,0-0.2,0.1-0.2
		C80.6,16.3,80.7,16.3,80.8,16.3 M76.7,31.8c0.5,0,1-0.1,1.4-0.3c0.4-0.2,0.8-0.5,1.1-0.8c0.3-0.4,0.6-0.8,0.7-1.2
		c0.2-0.5,0.2-0.9,0.2-1.4c0-0.5-0.1-1-0.2-1.4c-0.2-0.4-0.4-0.9-0.7-1.2c-0.3-0.4-0.7-0.6-1.1-0.8c-0.4-0.2-0.9-0.3-1.4-0.3
		c-0.5,0-1,0.1-1.4,0.3c-0.4,0.2-0.8,0.5-1.1,0.8c-0.3,0.4-0.6,0.8-0.7,1.2c-0.2,0.5-0.3,0.9-0.3,1.4c0,0.5,0.1,1,0.3,1.4
		c0.2,0.4,0.4,0.9,0.7,1.2c0.3,0.4,0.7,0.6,1.1,0.8C75.8,31.7,76.2,31.8,76.7,31.8"/>
	<path class="st2" d="M85.6,21.1c0,0.2-0.1,0.3-0.2,0.4c-0.1,0.1-0.3,0.2-0.4,0.2c-0.2,0-0.3-0.1-0.4-0.2c-0.1-0.1-0.2-0.3-0.2-0.4
		c0-0.2,0.1-0.3,0.2-0.4c0.1-0.1,0.3-0.2,0.4-0.2c0.2,0,0.3,0.1,0.4,0.2C85.5,20.7,85.6,20.9,85.6,21.1 M85,23.6
		c0.1,0,0.2,0,0.2,0.1c0.1,0.1,0.1,0.2,0.1,0.2v8c0,0.1,0,0.2-0.1,0.2c-0.1,0.1-0.2,0.1-0.2,0.1c-0.1,0-0.2,0-0.3-0.1
		c-0.1-0.1-0.1-0.2-0.1-0.2v-8c0-0.1,0-0.2,0.1-0.2C84.8,23.7,84.9,23.6,85,23.6"/>
	<path class="st2" d="M93.2,23.6c0.1,0,0.2,0,0.3,0.1c0.1,0.1,0.1,0.2,0.1,0.2c0,0.2-0.1,0.3-0.3,0.4c0,0-0.1,0-0.1,0h-2V32
		c0,0.1,0,0.2-0.1,0.2c-0.1,0.1-0.2,0.1-0.3,0.1c-0.1,0-0.2,0-0.3-0.1c-0.1-0.1-0.1-0.2-0.1-0.2v-7.7h-1.9c-0.2,0-0.4-0.1-0.4-0.4
		c0-0.1,0-0.2,0.1-0.2c0.1-0.1,0.2-0.1,0.3-0.1h1.9v-2.8c0-0.2,0.1-0.4,0.4-0.4c0.2,0,0.3,0.1,0.4,0.3c0,0,0,0.1,0,0.1v2.8H93.2z"/>
	<path class="st2" d="M103.4,23.6c0.2,0,0.3,0.1,0.4,0.3c0,0,0,0.1,0,0.1c-0.1,0.2-0.1,0.4-0.2,0.6c-0.1,0.4-0.3,0.8-0.5,1.4
		c-0.2,0.6-0.5,1.2-0.8,2c-0.3,0.7-0.6,1.5-0.9,2.3c-0.3,0.8-0.6,1.6-0.9,2.4c-0.3,0.8-0.6,1.5-0.8,2.1c-0.3,0.6-0.5,1.2-0.6,1.6
		c-0.2,0.5-0.3,0.7-0.3,0.8c-0.1,0.2-0.2,0.2-0.3,0.2c-0.1,0-0.2,0-0.2-0.1c-0.1-0.1-0.1-0.2-0.1-0.2c0,0,0-0.2,0.1-0.4
		c0.1-0.2,0.2-0.5,0.3-0.8c0.1-0.3,0.3-0.7,0.4-1.1c0.2-0.4,0.3-0.8,0.5-1.1c0.1-0.4,0.3-0.7,0.4-0.9c0.1-0.2,0.1-0.4,0.2-0.5
		c-0.1-0.2-0.2-0.4-0.3-0.6c-0.2-0.4-0.4-0.9-0.6-1.5s-0.5-1.3-0.8-2c-0.3-0.7-0.6-1.3-0.8-2c-0.2-0.6-0.5-1.1-0.6-1.5
		c-0.1-0.2-0.2-0.4-0.2-0.6c0-0.2,0.1-0.3,0.3-0.4c0,0,0.1,0,0.1,0c0.1,0,0.3,0.1,0.3,0.2l3,7.4l2.9-7.4
		C103.1,23.7,103.3,23.6,103.4,23.6"/>
</g>
</svg>
