<svg width="66" height="70" viewBox="0 0 66 70" fill="none" xmlns="http://www.w3.org/2000/svg">
<path d="M49.0002 43.1666C49.0002 42.5227 48.4776 42 47.8336 42H40.8336C40.1897 42 39.667 42.5227 39.667 43.1666C39.667 43.8106 40.1897 44.3332 40.8336 44.3332H47.8336C48.4776 44.3334 49.0002 43.8107 49.0002 43.1666Z" fill="black"/>
<path d="M44.3332 12.834V7.00061C44.3332 6.35666 43.8106 5.83398 43.1666 5.83398C42.5227 5.83398 42 6.35666 42 7.00061V12.834C42 16.0504 44.6168 18.6674 47.8334 18.6674H58.3334V40.834C58.3334 41.4779 58.8561 42.0006 59.5 42.0006C60.144 42.0006 60.6666 41.4779 60.6666 40.834V17.5006C60.6666 16.8567 60.144 16.334 59.5 16.334H47.8334C45.9036 16.334 44.3332 14.7636 44.3332 12.834Z" fill="black"/>
<path d="M47.8325 28H38.4991C37.8552 28 37.3325 28.5227 37.3325 29.1666C37.3325 29.8106 37.8552 30.3332 38.4991 30.3332H47.8325C48.4765 30.3332 48.9991 29.8106 48.9991 29.1666C48.9993 28.5227 48.4766 28 47.8325 28Z" fill="black"/>
<path d="M34.9997 29.1666C34.9997 28.5227 34.4771 28 33.8331 28H26.8331C26.1892 28 25.6665 28.5227 25.6665 29.1666C25.6665 29.8106 26.1892 30.3332 26.8331 30.3332H33.8331C34.4771 30.3334 34.9997 29.8107 34.9997 29.1666Z" fill="black"/>
<path d="M26.8334 35C26.1894 35 25.6667 35.5227 25.6667 36.1666C25.6667 36.8106 26.1894 37.3332 26.8334 37.3332H29.1667C29.8107 37.3332 30.3334 36.8106 30.3334 36.1666C30.3334 35.5227 29.8107 35 29.1667 35H26.8334Z" fill="black"/>
<path d="M26.8334 23.3332H38.5C39.1439 23.3332 39.6666 22.8106 39.6666 22.1666C39.6666 21.5227 39.1439 21 38.5 21H26.8334C26.1894 21 25.6667 21.5227 25.6667 22.1666C25.6667 22.8106 26.1894 23.3332 26.8334 23.3332Z" fill="black"/>
<path d="M33.8331 37.3332H45.4998C46.1437 37.3332 46.6664 36.8106 46.6664 36.1666C46.6664 35.5227 46.1437 35 45.4998 35H33.8331C33.1892 35 32.6665 35.5227 32.6665 36.1666C32.6665 36.8106 33.1892 37.3332 33.8331 37.3332Z" fill="black"/>
<path d="M40.8329 49C40.1889 49 39.6663 49.5227 39.6663 50.1666C39.6663 50.8106 40.1889 51.3332 40.8329 51.3332H43.1663C43.8102 51.3332 44.3329 50.8106 44.3329 50.1666C44.3329 49.5227 43.8102 49 43.1663 49H40.8329Z" fill="black"/>
<path d="M36.1667 42H26.8334C26.1894 42 25.6667 42.5227 25.6667 43.1666C25.6667 43.8106 26.1894 44.3332 26.8334 44.3332H36.1667C36.8107 44.3332 37.3334 43.8106 37.3334 43.1666C37.3334 42.5227 36.8107 42 36.1667 42Z" fill="black"/>
<path d="M36.1667 49H26.8334C26.1894 49 25.6667 49.5227 25.6667 50.1666C25.6667 50.8106 26.1894 51.3332 26.8334 51.3332H36.1667C36.8107 51.3332 37.3334 50.8106 37.3334 50.1666C37.3334 49.5227 36.8107 49 36.1667 49Z" fill="black"/>
<path d="M63.9434 48.0568L61.61 45.7235C59.8168 43.9302 57.0845 43.9338 55.2938 45.7235L40.0081 61.0092C39.7899 61.2274 39.6663 61.5249 39.6663 61.834V68.834C39.6663 69.4779 40.1889 70.0006 40.8329 70.0006H47.8329C48.142 70.0006 48.4395 69.877 48.6577 69.6588L63.9434 54.3731C65.802 52.5145 65.802 49.9165 63.9434 48.0568ZM53.7852 50.5313L55.6356 52.3817L45.4995 62.5177L43.6492 60.6674L53.7852 50.5313ZM41.9996 67.6672V62.3169L47.35 67.6672H41.9996ZM48.9996 66.0176L47.1493 64.1672L57.2853 54.0312L59.1357 55.8815L48.9996 66.0176ZM62.2938 52.7235L60.7852 54.232L55.4349 48.8817L56.9434 47.3731C57.865 46.4526 59.0341 46.4479 59.9604 47.3731L62.2938 49.7065C63.2375 50.6515 63.2375 51.7795 62.2938 52.7235Z" fill="#0071B3"/>
<path d="M36.1666 67.6666H5.83324C3.90359 67.6666 2.33324 66.0963 2.33324 64.1666V5.83338C2.33324 3.90373 3.90359 2.33338 5.83324 2.33338H42.6836L54.0084 13.6582C54.4645 14.1144 55.202 14.1144 55.6581 13.6582C56.1143 13.2021 56.1143 12.4646 55.6581 12.0086L43.9914 0.341797C43.7732 0.1225 43.4757 0 43.1666 0H5.83324C2.6168 0 0 2.6168 0 5.83338V64.1668C0 67.3832 2.6168 70.0001 5.83338 70.0001H36.1668C36.8107 70.0001 37.3334 69.4775 37.3334 68.8335C37.3334 68.1896 36.8106 67.6666 36.1666 67.6666Z" fill="black"/>
<path d="M36.1667 56H26.8334C26.1894 56 25.6667 56.5227 25.6667 57.1666C25.6667 57.8106 26.1894 58.3332 26.8334 58.3332H36.1667C36.8107 58.3332 37.3334 57.8106 37.3334 57.1666C37.3334 56.5227 36.8107 56 36.1667 56Z" fill="black"/>
<path d="M21.0002 22.1666C21.0002 21.5227 20.4776 21 19.8336 21H12.8336C12.1897 21 11.667 21.5227 11.667 22.1666V29.1666C11.667 29.8106 12.1897 30.3332 12.8336 30.3332H19.8336C20.4776 30.3332 21.0002 29.8106 21.0002 29.1666V22.1666ZM18.6669 28H14.0002V23.3334H18.6669V28Z" fill="black"/>
<path d="M12.8339 58.3332H19.8339C20.4778 58.3332 21.0005 57.8106 21.0005 57.1666V50.1666C21.0005 49.5227 20.4778 49 19.8339 49H12.8339C12.1899 49 11.6672 49.5227 11.6672 50.1666V57.1666C11.6672 57.8106 12.1899 58.3332 12.8339 58.3332ZM14.0006 51.3332H18.6672V55.9999H14.0006V51.3332Z" fill="black"/>
<path d="M14.3418 43.9911C14.5611 44.2104 14.8586 44.3329 15.1666 44.3329C15.2051 44.3329 15.2425 44.3318 15.2821 44.327C15.6298 44.2932 15.9436 44.1041 16.1373 43.8136L20.8039 36.8136C21.1609 36.277 21.0162 35.5524 20.4807 35.1954C19.9429 34.8372 19.2207 34.9831 18.8625 35.5186L14.9857 41.3345L13.658 40.008C13.2019 39.5518 12.4645 39.5518 12.0084 40.008C11.5523 40.4643 11.5522 41.2016 12.0084 41.6577L14.3418 43.9911Z" fill="black"/>
</svg>
