<svg width="70" height="70" viewBox="0 0 70 70" fill="none" xmlns="http://www.w3.org/2000/svg">
<path d="M70 41.6287C70 41.6261 70 41.6234 70 41.6212V23.8574C70 23.2908 69.5407 22.832 68.9746 22.832H64.1895V1.02539C64.1895 0.458756 63.7302 0 63.1641 0H56.875C56.3089 0 55.8496 0.458756 55.8496 1.02539C55.8496 1.59203 56.3089 2.05078 56.875 2.05078H62.1387V22.832H51.2012C51.1638 22.832 51.1269 22.8342 51.0906 22.8384C51.0826 22.839 51.0751 22.8406 51.0671 22.8416C51.034 22.8459 51.0014 22.8518 50.9699 22.8593C50.9592 22.8614 50.9486 22.8646 50.9373 22.8673C50.9064 22.8758 50.8759 22.8854 50.846 22.8967C50.8375 22.8993 50.8295 22.9025 50.8209 22.9057C50.7819 22.9212 50.7435 22.9388 50.7072 22.9586V22.9591L42.504 27.4709C42.1761 27.6508 41.9727 27.9953 41.9727 28.3691V30.4199H38.8281C38.2615 30.4199 37.8027 30.8787 37.8027 31.4453V34.5215H32.1973V31.4453C32.1973 30.8787 31.738 30.4199 31.1719 30.4199H28.0273V28.3691C28.0273 27.9953 27.8239 27.6508 27.496 27.4709L19.2928 22.9591C19.2928 22.9591 19.2928 22.9591 19.2923 22.9591C19.256 22.9388 19.2181 22.9212 19.1785 22.9057C19.1705 22.9025 19.162 22.8999 19.154 22.8967C19.1241 22.8854 19.0936 22.8758 19.0621 22.8678C19.0514 22.8646 19.0408 22.8619 19.0301 22.8593C18.998 22.8518 18.9655 22.8459 18.9329 22.8416C18.9249 22.8406 18.9169 22.839 18.9094 22.8384C18.8731 22.8342 18.8362 22.832 18.7988 22.832H16.0645V2.05078H52.5C53.0661 2.05078 53.5254 1.59203 53.5254 1.02539C53.5254 0.458756 53.0661 0 52.5 0H6.83594C6.26984 0 5.81055 0.458756 5.81055 1.02539V17.477C5.81055 18.0437 6.26984 18.5024 6.83594 18.5024C7.40204 18.5024 7.86133 18.0437 7.86133 17.477V2.05078H14.0137V22.832H7.86133V21.875C7.86133 21.3084 7.40204 20.8496 6.83594 20.8496C6.26984 20.8496 5.81055 21.3084 5.81055 21.875V22.832H1.02539C0.45929 22.832 0 23.2908 0 23.8574V41.6212C0 41.6239 0 41.6261 0 41.6287V41.6309C0 41.6351 0.000534058 41.6389 0.000534058 41.6426C0.00534058 42.0164 0.212021 42.3588 0.540466 42.5345L5.81055 45.4328V68.9746C5.81055 69.5412 6.26984 70 6.83594 70H17.7051C18.2712 70 18.7305 69.5412 18.7305 68.9746C18.7305 68.408 18.2712 67.9492 17.7051 67.9492H16.0645V47.168H27.002C27.5686 47.168 28.0273 46.7044 28.0273 46.1426V40.6738H31.1719C31.738 40.6738 32.1973 40.2151 32.1973 39.6484V36.5723H37.8027V39.6484C37.8027 40.2151 38.262 40.6738 38.8281 40.6738H41.9727V46.1426C41.9727 46.7076 42.4357 47.168 42.998 47.168H60.7715C60.9445 47.168 61.1143 47.1242 61.2655 47.0409L62.1387 46.5607V67.9492H22.0801C21.514 67.9492 21.0547 68.408 21.0547 68.9746C21.0547 69.5412 21.514 70 22.0801 70H63.1641C63.7302 70 64.1895 69.5412 64.1895 68.9746V45.4328L69.4595 42.5345C69.8174 42.3433 69.9626 42.0282 70 41.6287ZM9.49181 45.1172L5.01747 42.6562H18.5355L23.0099 45.1172H9.49181ZM2.05078 24.8828H17.7734V40.6055H2.05078V24.8828ZM14.0137 67.9492H7.86133V46.5607L8.73451 47.0409C8.88565 47.1242 9.05548 47.168 9.22852 47.168H14.0137V67.9492ZM25.9766 44.4085L19.8242 41.0247V25.5915L25.9766 28.9753V30.4199H23.5156C22.9495 30.4199 22.4902 30.8787 22.4902 31.4453C22.4902 32.0119 22.9495 32.4707 23.5156 32.4707H25.9766V38.623H23.5156C22.9495 38.623 22.4902 39.0818 22.4902 39.6484C22.4902 40.2151 22.9495 40.6738 23.5156 40.6738H25.9766V44.4085ZM30.1465 38.623H28.0273V32.4707H30.1465V34.5215H29.896C29.3294 34.5215 28.8706 34.9802 28.8706 35.5469C28.8706 36.1135 29.3294 36.5723 29.896 36.5723H30.1465V38.623ZM67.9492 40.6055H52.2266V24.8828H67.9492V40.6055ZM39.8535 38.623V36.5723H40.104C40.6706 36.5723 41.1294 36.1135 41.1294 35.5469C41.1294 34.9802 40.6706 34.5215 40.104 34.5215H39.8535V32.4707H41.9727V38.623H39.8535ZM46.4844 38.623H44.0234V32.4707H46.4844C47.0505 32.4707 47.5098 32.0119 47.5098 31.4453C47.5098 30.8787 47.0505 30.4199 46.4844 30.4199H44.0234V28.9753L50.1758 25.5915V41.0247L44.0234 44.4085V40.6738H46.4844C47.0505 40.6738 47.5098 40.2151 47.5098 39.6484C47.5098 39.0818 47.0505 38.623 46.4844 38.623ZM60.5082 45.1172H46.9901L51.4645 42.6562H64.9825L60.5082 45.1172Z" fill="black"/>
<path d="M22.3535 7.17773C22.3535 7.74437 22.8128 8.20312 23.3789 8.20312H54.2773C54.8434 8.20312 55.3027 7.74437 55.3027 7.17773C55.3027 6.6111 54.8434 6.15234 54.2773 6.15234H23.3789C22.8128 6.15234 22.3535 6.61163 22.3535 7.17773Z" fill="black"/>
<path d="M54.2773 11.6211H23.3789C22.8128 11.6211 22.3535 12.0798 22.3535 12.6465C22.3535 13.2131 22.8128 13.6719 23.3789 13.6719H54.2773C54.8434 13.6719 55.3027 13.2131 55.3027 12.6465C55.3027 12.0798 54.8434 11.6211 54.2773 11.6211Z" fill="black"/>
<path d="M54.2773 17.0898H23.3789C22.8128 17.0898 22.3535 17.5486 22.3535 18.1152C22.3535 18.6819 22.8128 19.1406 23.3789 19.1406H54.2773C54.8434 19.1406 55.3027 18.6819 55.3027 18.1152C55.3027 17.5486 54.8434 17.0898 54.2773 17.0898Z" fill="black"/>
<path d="M23.3789 52.9102H54.2773C54.8434 52.9102 55.3027 52.4514 55.3027 51.8848C55.3027 51.3181 54.8434 50.8594 54.2773 50.8594H23.3789C22.8128 50.8594 22.3535 51.3181 22.3535 51.8848C22.3535 52.4514 22.8128 52.9102 23.3789 52.9102Z" fill="#FF5555"/>
<path d="M23.3789 58.3789H54.2773C54.8434 58.3789 55.3027 57.9202 55.3027 57.3535C55.3027 56.7869 54.8434 56.3281 54.2773 56.3281H23.3789C22.8128 56.3281 22.3535 56.7869 22.3535 57.3535C22.3535 57.9202 22.8128 58.3789 23.3789 58.3789Z" fill="#FF5555"/>
<path d="M23.3789 63.8477H54.2773C54.8434 63.8477 55.3027 63.3889 55.3027 62.8223C55.3027 62.2556 54.8434 61.7969 54.2773 61.7969H23.3789C22.8128 61.7969 22.3535 62.2556 22.3535 62.8223C22.3535 63.3889 22.8128 63.8477 23.3789 63.8477Z" fill="#FF5555"/>
</svg>
