<svg width="60" height="70" viewBox="0 0 60 70" fill="none" xmlns="http://www.w3.org/2000/svg">
<path d="M32.9246 35.6152C40.1237 35.6152 45.9812 29.7582 45.9812 22.5586C45.9812 15.359 40.1237 9.50195 32.9246 9.50195C25.7249 9.50195 19.8679 15.359 19.8679 22.5586C19.8679 29.7582 25.7249 35.6152 32.9246 35.6152ZM32.9246 11.5527C38.9931 11.5527 43.9304 16.4901 43.9304 22.5586C43.9304 28.6271 38.9931 33.5645 32.9246 33.5645C26.8555 33.5645 21.9187 28.6271 21.9187 22.5586C21.9187 16.4901 26.8555 11.5527 32.9246 11.5527Z" fill="#FF5555"/>
<path d="M32.9246 39.7168C42.3854 39.7168 50.0828 32.0194 50.0828 22.5586C50.0828 13.0978 42.3854 5.40039 32.9246 5.40039C23.4632 5.40039 15.7664 13.0978 15.7664 22.5586C15.7664 32.0194 23.4632 39.7168 32.9246 39.7168ZM32.9246 7.45117C41.2548 7.45117 48.032 14.2284 48.032 22.5586C48.032 30.8888 41.2548 37.666 32.9246 37.666C24.5943 37.666 17.8171 30.8888 17.8171 22.5586C17.8171 14.2284 24.5943 7.45117 32.9246 7.45117Z" fill="black"/>
<path d="M13.0314 67.9492H10.9961V2.05078H57.0698V52.5C57.0698 53.0661 57.5291 53.5254 58.0952 53.5254C58.6618 53.5254 59.1206 53.0661 59.1206 52.5V1.02539C59.1206 0.45929 58.6618 0 58.0952 0H1.76758C1.20148 0 0.742188 0.45929 0.742188 1.02539V4.32961C0.742188 4.89571 1.20148 5.355 1.76758 5.355C2.33368 5.355 2.79297 4.89571 2.79297 4.32961V2.05078H8.94531V67.9492H2.79297V8.77296C2.79297 8.20633 2.33368 7.74757 1.76758 7.74757C1.20148 7.74757 0.742188 8.20633 0.742188 8.77296V68.9746C0.742188 69.5407 1.20148 70 1.76758 70H13.0314C13.598 70 14.0568 69.5407 14.0568 68.9746C14.0568 68.4085 13.598 67.9492 13.0314 67.9492Z" fill="black"/>
<path d="M58.0956 55.8945C57.5295 55.8945 57.0702 56.3538 57.0702 56.9199V67.9487H17.3379C16.7718 67.9487 16.3125 68.408 16.3125 68.9741C16.3125 69.5402 16.7718 69.9995 17.3379 69.9995H58.0956C58.6617 69.9995 59.121 69.5402 59.121 68.9741V56.9199C59.121 56.3538 58.6617 55.8945 58.0956 55.8945Z" fill="black"/>
<path d="M44.9551 41.4258C43.6183 41.4258 42.4787 42.2829 42.0557 43.4766H24.0659C23.643 42.2829 22.5028 41.4258 21.166 41.4258C19.4698 41.4258 18.0898 42.8058 18.0898 44.502C18.0898 46.1981 19.4698 47.5781 21.166 47.5781C22.5028 47.5781 23.643 46.721 24.0659 45.5273H42.0557C42.4787 46.721 43.6183 47.5781 44.9551 47.5781C46.6518 47.5781 48.0312 46.1981 48.0312 44.502C48.0312 42.8058 46.6518 41.4258 44.9551 41.4258ZM21.166 45.5273C20.601 45.5273 20.1406 45.0675 20.1406 44.502C20.1406 43.9364 20.601 43.4766 21.166 43.4766C21.7316 43.4766 22.1914 43.9364 22.1914 44.502C22.1914 45.0675 21.7316 45.5273 21.166 45.5273ZM44.9551 45.5273C44.39 45.5273 43.9297 45.0675 43.9297 44.502C43.9297 43.9364 44.39 43.4766 44.9551 43.4766C45.5206 43.4766 45.9805 43.9364 45.9805 44.502C45.9805 45.0675 45.5206 45.5273 44.9551 45.5273Z" fill="black"/>
<path d="M44.9551 50.0391C43.6183 50.0391 42.4787 50.8962 42.0557 52.0898H24.0659C23.643 50.8962 22.5028 50.0391 21.166 50.0391C19.4698 50.0391 18.0898 51.4191 18.0898 53.1152C18.0898 54.8114 19.4698 56.1914 21.166 56.1914C22.5028 56.1914 23.643 55.3342 24.0659 54.1406H42.0557C42.4787 55.3342 43.6183 56.1914 44.9551 56.1914C46.6518 56.1914 48.0312 54.8114 48.0312 53.1152C48.0312 51.4191 46.6518 50.0391 44.9551 50.0391ZM21.166 54.1406C20.601 54.1406 20.1406 53.6808 20.1406 53.1152C20.1406 52.5497 20.601 52.0898 21.166 52.0898C21.7316 52.0898 22.1914 52.5497 22.1914 53.1152C22.1914 53.6808 21.7316 54.1406 21.166 54.1406ZM44.9551 54.1406C44.39 54.1406 43.9297 53.6808 43.9297 53.1152C43.9297 52.5497 44.39 52.0898 44.9551 52.0898C45.5206 52.0898 45.9805 52.5497 45.9805 53.1152C45.9805 53.6808 45.5206 54.1406 44.9551 54.1406Z" fill="black"/>
<path d="M32.9246 27.4335C31.9066 27.4335 31.0789 26.5699 31.0789 25.5087C31.0789 24.9426 30.6196 24.4833 30.0535 24.4833C29.4868 24.4833 29.0281 24.9426 29.0281 25.5087C29.0281 27.3389 30.2468 28.8829 31.8992 29.3433V29.5312C31.8992 30.0974 32.3585 30.5566 32.9246 30.5566C33.4912 30.5566 33.95 30.0974 33.95 29.5312V29.3433C35.6023 28.8829 36.821 27.3384 36.821 25.5087C36.821 23.317 35.0731 21.5332 32.9246 21.5332C31.9066 21.5332 31.0789 20.6702 31.0789 19.609C31.0789 18.5489 31.905 17.6859 32.9214 17.6842C32.9224 17.6842 32.9235 17.6842 32.9246 17.6842C32.9256 17.6842 32.9267 17.6842 32.9278 17.6842C33.9441 17.6864 34.7703 18.5489 34.7703 19.609C34.7703 20.1751 35.229 20.6344 35.7957 20.6344C36.3618 20.6344 36.821 20.1751 36.821 19.609C36.821 17.7788 35.6023 16.2348 33.95 15.7745V15.5859C33.95 15.0198 33.4912 14.5605 32.9246 14.5605C32.3585 14.5605 31.8992 15.0198 31.8992 15.5859V15.7739C30.2468 16.2343 29.0281 17.7788 29.0281 19.609C29.0281 21.8008 30.776 23.5845 32.9246 23.5845C33.9419 23.5845 34.7703 24.4476 34.7703 25.5087C34.7703 26.5699 33.9419 27.4335 32.9246 27.4335Z" fill="#FF5555"/>
</svg>
