<?xml version="1.0" encoding="utf-8"?>
<!-- Generator: Adobe Illustrator 22.1.0, SVG Export Plug-In . SVG Version: 6.00 Build 0)  -->
<svg version="1.1" id="ror.svg" xmlns="http://www.w3.org/2000/svg" xmlns:xlink="http://www.w3.org/1999/xlink" x="0px" y="0px"
	 viewBox="0 0 132.2 55" style="enable-background:new 0 0 132.2 55;" xml:space="preserve">
<style type="text/css">
	.st0{fill:#3F597E;fill-opacity:0;}
	.st1{fill:#FFFFFF;}
</style>
<rect id="Прямоугольник_1" class="st0" width="131.8" height="55"/>
<g>
	<title>Asset 5</title>
	<g id="Layer_2_1_">
		<g id="Layer_1-2_1_">
			<path class="st1" d="M36.3,17L32,19.2L11.2,29.8c-0.1-0.5-0.1-1.1-0.1-1.6c0-6.8,5.6-12.4,12.4-12.4c2.1,0,4.2,0.5,6,1.6l2.5-1.3
				l0.4-0.2c-6.8-4.9-16.2-3.4-21.1,3.4c-1.9,2.6-2.9,5.7-2.9,8.9c0,0.4,0,0.8,0,1.2c0.1,1.1-0.5,2.2-1.5,2.7l-1.3,0.7v3.1l3.8-2
				l0,0l1.2-0.6l1.2-0.6l0,0l21.9-11.2l2.5-1.3l5.1-2.6v-3.1L36.3,17z"/>
			<path class="st1" d="M41.3,20.6L13.1,35l-2.5,1.3l-5.1,2.6v3.1l5-2.6l4.3-2.2l20.8-10.6c0.1,0.5,0.1,1.1,0.1,1.6
				c0,6.8-5.6,12.4-12.4,12.4c-2.1,0-4.2-0.5-6.1-1.6L17.2,39l-2.7,1.4c6.8,4.9,16.2,3.4,21.1-3.4c1.9-2.6,2.9-5.7,2.9-8.9
				c0-0.4,0-0.8,0-1.2c-0.1-1.1,0.5-2.2,1.5-2.7l1.3-0.7V20.6z"/>
			<path class="st1" d="M83.9,22.7c-4.3,0-7.7,3.2-7.7,8.2c0,4.7,2.8,8.3,7.8,8.3c3.8,0,6.4-2.3,7.1-5h-2.8c-0.7,1.6-2,2.6-4.3,2.6
				c-2.3,0-4.8-1.6-4.9-5.1h12.2C91.6,26.7,88.7,22.7,83.9,22.7z M79.1,29.5c0.2-3.2,2.4-4.5,4.8-4.5c2.8,0,4.5,2.2,4.6,4.5H79.1z"
				/>
			<path class="st1" d="M59.9,26.6L57.5,26c-2-0.4-3.5-1.4-3.5-3.3c0-2.4,2.9-3.1,4.5-3.1c2.1,0,4.6,0.9,5.3,3.3h2.9
				c-0.9-4.1-4.2-5.8-8.1-5.8c-3.4,0-7.7,1.7-7.7,5.8c0,3.5,2.9,5.2,5.8,5.8l2.7,0.6c2.7,0.6,4.6,1.5,4.6,3.8c0,2.1-1.8,3.6-5,3.6
				c-3.3,0-5.3-1.5-5.9-4.5h-2.9c0.6,4.2,3.7,7,8.8,7c4.2,0,8.1-2.2,8.1-6.4C67.1,28.5,63.2,27.3,59.9,26.6z"/>
			<path class="st1" d="M72.8,19h-2.7v4h-2.5v2.1h2.5v9.7c0,3.3,0.7,4,3.7,4h1.9v-2.2h-1.4c-1.5,0-1.6-0.4-1.6-2.1v-9.4h3V23h-3
				L72.8,19z"/>
			<path class="st1" d="M125.8,22.9c-2.1,0.1-3.7,1.1-4.5,2.8V23h-2.6v15.8h2.7v-8.3c0-3.5,1.2-4.8,3.7-4.8c0.5,0,1,0,1.5,0.1v-2.9
				C126.4,22.9,126.1,22.9,125.8,22.9z"/>
			<path class="st1" d="M116.2,32.8l0-3.6c0-4.5-1.9-6.5-6.3-6.5c-3.1,0-6.1,1.9-6.3,5.3h2.8c0.1-2,1.4-3.1,3.6-3.1
				c2,0,3.6,0.9,3.6,3.8v0.4c-6.5,0.7-10.7,1.8-10.7,5.6c0,2.9,2.5,4.6,5.4,4.6c2.8,0,4.4-0.9,5.4-2.6c0,0.7,0.1,1.5,0.2,2.2h2.7
				C116.3,37.3,116.1,35.5,116.2,32.8z M113.7,32.2c0,3.7-2.4,4.9-4.9,4.9c-1.9,0-3.1-1-3.1-2.5c0-2.2,3.1-2.9,7.9-3.4V32.2z"/>
			<rect x="93" y="17.5" class="st1" width="2.7" height="21.3"/>
			<rect x="98.4" y="17.5" class="st1" width="2.7" height="21.3"/>
		</g>
	</g>
</g>
</svg>
