<svg width="72" height="72" viewBox="0 0 72 72" fill="none" xmlns="http://www.w3.org/2000/svg">
<path d="M68.6666 23.1679C68.6666 22.2397 68.2979 21.3494 67.6415 20.693C66.9851 20.0367 66.0949 19.6679 65.1666 19.6679H54.6666C54.6649 18.9869 54.626 18.3065 54.55 17.6297C54.5231 17.3801 54.473 17.1362 54.4333 16.8877C54.3715 16.4771 54.3085 16.0711 54.2198 15.6639C54.1533 15.3617 54.0693 15.0654 53.9865 14.7667C53.8955 14.4331 53.8021 14.1017 53.6925 13.7762C53.5828 13.4507 53.4696 13.1451 53.3425 12.8336C53.2153 12.5221 53.0998 12.2502 52.968 11.9562C52.828 11.6471 52.6845 11.3402 52.5258 11.0392C52.3671 10.7382 52.2003 10.4559 52.03 10.1701C51.8701 9.90175 51.7185 9.63108 51.5446 9.37092C51.2401 8.91358 50.9123 8.47258 50.5705 8.04442C50.5121 7.97208 50.4631 7.89392 50.4036 7.82158C49.9649 7.29093 49.4976 6.78462 49.0036 6.30492C48.9406 6.24542 48.8741 6.18825 48.81 6.12992C48.3635 5.70603 47.8969 5.30508 47.41 4.92708C47.3715 4.89792 47.3388 4.86292 47.3003 4.83375L46.6166 4.31458L46.6003 4.32508C44.4025 2.79863 41.9014 1.76407 39.2675 1.29196C36.6336 0.819837 33.9288 0.921263 31.3376 1.58932C28.7465 2.25737 26.3299 3.47634 24.2526 5.16311C22.1752 6.84987 20.4861 8.96477 19.3003 11.3636L19.2805 11.3694L19.0472 11.8594C19.0343 11.8886 19.025 11.9189 19.0122 11.9481C18.7679 12.4824 18.5498 13.0292 18.3577 13.5884C18.332 13.6607 18.3028 13.7319 18.2783 13.8042C18.101 14.3374 17.9517 14.8811 17.8233 15.4376C17.7988 15.5391 17.7673 15.6394 17.7452 15.7409C17.6285 16.2612 17.5515 16.7909 17.4838 17.3264C17.4687 17.4512 17.4407 17.5737 17.4267 17.6997C17.3615 18.3537 17.3303 19.0107 17.3333 19.6679H6.83333C5.90507 19.6679 5.01484 20.0367 4.35846 20.693C3.70208 21.3494 3.33333 22.2397 3.33333 23.1679V64.0012H1V67.5012C1 68.4295 1.36875 69.3197 2.02513 69.9761C2.6815 70.6325 3.57174 71.0012 4.5 71.0012H67.5C68.4282 71.0012 69.3185 70.6325 69.9748 69.9761C70.6312 69.3197 71 68.4295 71 67.5012V64.0012H68.6666V23.1679ZM19.7495 18.0346C19.9124 16.421 20.3171 14.8412 20.95 13.3481C22.3158 13.0722 23.7321 13.1959 25.0293 13.7046C26.3265 14.2132 27.4496 15.0851 28.2638 16.2157L28.8133 16.9846C29.6951 18.2126 30.1685 19.6868 30.1667 21.1986C30.1677 23.052 30.7057 24.8655 31.7157 26.4196C32.7257 27.9737 34.1644 29.2019 35.8577 29.9556C36.9927 30.4631 38.0119 31.1973 38.8528 32.1132C39.6936 33.0291 40.3383 34.1072 40.7472 35.2814C40.389 35.3981 40.0285 35.4867 39.6668 35.5707C39.6306 35.5789 39.5968 35.5906 39.5606 35.5987C39.304 35.6571 39.0438 35.7002 38.7848 35.7457C38.5258 35.7912 38.2785 35.8309 38.023 35.8624C37.8293 35.8869 37.6368 35.9102 37.4397 35.9277C36.9625 35.9697 36.483 36.0012 35.9953 36.0012C31.6657 35.9954 27.5151 34.2725 24.454 31.2106C21.393 28.1486 19.6713 23.9975 19.6667 19.6679C19.6667 19.1172 19.6958 18.5724 19.7495 18.0346ZM36 38.3346C36.5891 38.3346 37.176 38.3019 37.7605 38.2459C38.0953 38.2144 38.4208 38.1572 38.7498 38.1094C38.9831 38.0744 39.2083 38.0476 39.4358 38.0032C39.8745 37.9216 40.3027 37.8166 40.7296 37.7046C40.837 37.6754 40.9467 37.6509 41.054 37.6206C41.5206 37.4887 41.9873 37.3347 42.4341 37.1679C42.4831 37.1492 42.5333 37.1376 42.5835 37.1189L43.1306 36.9124C43.1773 36.8926 43.2252 36.8786 43.2718 36.8587L43.5296 36.7619L43.5238 36.7374C47.5875 34.9321 50.8776 31.7417 52.807 27.7354L52.8315 27.7237L53.0018 27.3457C53.0135 27.3212 53.0205 27.2956 53.031 27.2711C53.1208 27.0716 53.2095 26.8709 53.2923 26.6679H61.6666V59.3346H10.3333V26.6679H18.7077C20.1035 30.1114 22.4942 33.0606 25.5744 35.1387C28.6546 37.2168 32.2843 38.3295 36 38.3346ZM51.0406 26.0111L49.4306 26.8149C48.8997 27.0812 48.311 27.212 47.7172 27.1955C47.1234 27.179 46.5429 27.0158 46.0275 26.7204L45.5071 26.4241C45.0254 26.1486 44.6137 25.7657 44.3039 25.3053C43.9942 24.8448 43.7947 24.3192 43.721 23.7692C43.6473 23.2192 43.7014 22.6595 43.879 22.1338C44.0567 21.6081 44.3531 21.1303 44.7453 20.7377C45.6658 19.8154 46.2581 18.6163 46.4311 17.3248C46.6042 16.0332 46.3484 14.7205 45.7031 13.5884L44.9833 12.3354C44.5378 11.5598 44.3972 10.646 44.5887 9.77228C44.7802 8.89854 45.2902 8.12744 46.0193 7.60925L46.5536 7.22775C46.977 7.58908 47.382 7.97145 47.767 8.37342C47.8673 8.47725 47.9618 8.58692 48.0586 8.69425C48.327 8.98592 48.5833 9.28575 48.8275 9.59375C48.969 9.77419 49.1059 9.95775 49.2381 10.1444C49.419 10.3917 49.5881 10.6449 49.7561 10.9027C49.9043 11.1361 50.0478 11.3694 50.1843 11.6027C50.3208 11.8361 50.4375 12.0694 50.5576 12.3027C50.6918 12.5676 50.8248 12.8324 50.9438 13.1042C51.0476 13.3376 51.1375 13.5709 51.2285 13.8159C51.3358 14.0936 51.4455 14.3724 51.5376 14.6571C51.6216 14.9196 51.6893 15.1879 51.7605 15.4551C51.8316 15.7222 51.911 15.9917 51.9693 16.2717C52.0393 16.6031 52.086 16.9402 52.135 17.2774C52.1676 17.4991 52.2131 17.7161 52.2365 17.9412C52.2987 18.5147 52.331 19.0911 52.3333 19.6679C52.3333 20.2209 52.3041 20.7669 52.2505 21.3012C52.0856 22.923 51.6777 24.5107 51.0406 26.0111ZM36 3.33458C39.0311 3.33572 42.0011 4.18695 44.5726 5.79158C43.4074 6.65479 42.5996 7.91576 42.3026 9.33516C42.0056 10.7546 42.2401 12.2336 42.9615 13.4916L43.6778 14.7446C44.0688 15.4324 44.2234 16.2294 44.1181 17.0135C44.0127 17.7976 43.6532 18.5256 43.0945 19.0857C42.4487 19.7319 41.9606 20.5181 41.668 21.3835C41.3754 22.2489 41.2862 23.1701 41.4074 24.0755C41.5286 24.981 41.8569 25.8463 42.3668 26.6042C42.8767 27.3622 43.5545 27.9924 44.3475 28.4459L44.8678 28.7434C46.1463 29.4801 47.6551 29.7091 49.0946 29.3851C47.4838 31.5518 45.3631 33.2874 42.9206 34.4379C42.4011 32.9793 41.5913 31.6411 40.5402 30.5042C39.489 29.3673 38.2184 28.4551 36.805 27.8229C35.5242 27.2526 34.436 26.3235 33.672 25.1479C32.908 23.9723 32.5009 22.6006 32.5 21.1986C32.5037 19.2008 31.8792 17.2524 30.715 15.6289L30.1667 14.8589C29.2629 13.6094 28.0704 12.5969 26.6909 11.9076C25.3114 11.2184 23.7857 10.8728 22.2438 10.9004C23.7157 8.58438 25.7478 6.67692 28.1523 5.35448C30.5567 4.03204 33.2558 3.33732 36 3.33458ZM5.66666 23.1679C5.66666 22.8585 5.78958 22.5617 6.00837 22.343C6.22717 22.1242 6.52391 22.0012 6.83333 22.0012H17.4955C17.5958 22.788 17.747 23.5674 17.9482 24.3346H8V61.6679H64V24.3346H54.0518C54.1008 24.1467 54.1545 23.9601 54.1976 23.7699C54.214 23.6976 54.2373 23.6276 54.2536 23.5552C54.3621 23.0454 54.4391 22.5251 54.5045 22.0012H65.1666C65.4761 22.0012 65.7728 22.1242 65.9916 22.343C66.2104 22.5617 66.3333 22.8585 66.3333 23.1679V64.0012H5.66666V23.1679ZM68.6666 67.5012C68.6666 67.8106 68.5437 68.1074 68.3249 68.3262C68.1061 68.545 67.8094 68.6679 67.5 68.6679H4.5C4.19058 68.6679 3.89383 68.545 3.67504 68.3262C3.45625 68.1074 3.33333 67.8106 3.33333 67.5012V66.3346H68.6666V67.5012Z" fill="black" stroke="white" stroke-width="0.3"/>
<path d="M31.3335 57.0012H40.6669V52.3345H45.5365L36.0002 41.208L26.4639 52.3345H31.3335V57.0012ZM36.0002 44.7943L40.4639 50.0012H38.3335V54.6678H33.6669V50.0012H31.5365L36.0002 44.7943Z" fill="#0071B3" stroke="white" stroke-width="0.5"/>
</svg>
