<svg id="Layer_1" data-name="Layer 1" xmlns="http://www.w3.org/2000/svg" xmlns:xlink="http://www.w3.org/1999/xlink" viewBox="0 0 2499.44 1510.17"><defs><style>.cls-1{fill:none;}.cls-2{fill:#fff;}.cls-3{opacity:0.6;}.cls-4{clip-path:url(#clip-path);}.cls-5{fill:#010101;}.cls-6{opacity:0.45;}.cls-7{clip-path:url(#clip-path-2);}.cls-8{opacity:0.8;}.cls-9{clip-path:url(#clip-path-3);}.cls-10{clip-path:url(#clip-path-4);}.cls-11{clip-path:url(#clip-path-5);}</style><clipPath id="clip-path" transform="translate(-2483.97 -204.83)"><rect class="cls-1" x="3407.61" y="597.56" width="652.03" height="340.95"/></clipPath><clipPath id="clip-path-2" transform="translate(-2483.97 -204.83)"><rect class="cls-1" x="3407.61" y="204.83" width="326.08" height="733.68"/></clipPath><clipPath id="clip-path-3" transform="translate(-2483.97 -204.83)"><rect class="cls-1" x="3733.69" y="204.83" width="326.08" height="733.68"/></clipPath><clipPath id="clip-path-4" transform="translate(-2483.97 -204.83)"><rect class="cls-1" x="3407.61" y="807.64" width="326.08" height="459.38"/></clipPath><clipPath id="clip-path-5" transform="translate(-2483.97 -204.83)"><rect class="cls-1" x="3733.69" y="807.64" width="326.21" height="459.38"/></clipPath></defs><title>ethereum</title><path class="cls-2" d="M2709.56,1592.08a10.12,10.12,0,0,1-10.12,10H2504.35c4.87,48.19,41.15,92.16,92.16,92.16,34.87,0,60.76-13.33,80.24-41.15,2.82-3.84,7.05-6.28,12.43-4a9.41,9.41,0,0,1,5.52,7.05,9.83,9.83,0,0,1-1.29,6.79c-19.61,34.22-58.7,51-97,51-65.62,0-112.41-58.7-112.41-121.51S2530.76,1471,2596.38,1471s113.06,58.45,113.18,121.13m-20.89-9.49c-4.23-48.19-41.14-92.15-92.16-92.15s-87.29,44-92.16,92.15Zm257.64-106.9a9.91,9.91,0,0,1,9.74,9.75,9.5,9.5,0,0,1-9.74,9.74H2894v205.21a9.74,9.74,0,0,1-19.48,0V1495.18h-50.25a9.5,9.5,0,0,1-9.74-9.74,10,10,0,0,1,9.74-9.75h50.25v-75.11c0-4.74,3.2-9.1,7.82-9.87,6.53-1,11.66,3.46,11.66,9.62v75.36Zm319,99.21v124.33a9.91,9.91,0,0,1-9.74,9.75,9.51,9.51,0,0,1-9.75-9.75V1574.9c0-41.91-23.71-83.82-70.49-83.82-60,0-85.88,52.42-82.42,106.13,0,1.41.64,7.69.64,8.33v93.31c0,4.74-3.2,9.1-7.82,9.87-6.54,1-11.66-3.46-11.66-9.61V1290.74a9.74,9.74,0,1,1,19.48,0v231.1c16.79-30,46.79-50.25,81.65-50.25,57.29,0,90.11,50.25,90.11,103.31m349.79,17.18a10.12,10.12,0,0,1-10.13,10H3409.79c4.87,48.19,41.15,92.16,92.16,92.16,34.86,0,60.76-13.33,80.24-41.15,2.82-3.84,7-6.28,12.43-4a9.37,9.37,0,0,1,5.51,7.05,9.78,9.78,0,0,1-1.28,6.79c-19.61,34.22-58.7,51-97,51-65.62,0-112.41-58.7-112.41-121.51S3436.2,1471,3501.82,1471s113.18,58.45,113.31,121.13m-21-9.49c-4.23-48.19-41.15-92.15-92.16-92.15s-87.29,44-92.16,92.15Zm260.45-97.79c0,6.28-3.46,9.74-9.1,10.51-57.29,8.33-83.06,55.11-83.06,109.59v93.31c0,4.74-3.2,9.1-7.81,9.87-6.54,1-11.67-3.46-11.67-9.61V1485.82c0-4.74,3.21-9.1,7.82-9.87,6.54-1,11.66,3.46,11.66,9.61v43.33c16-27.18,48.2-53.07,81.65-53.07,4.87-.13,10.51,3.46,10.51,9M4175,1592.08a10.12,10.12,0,0,1-10.12,10H3969.79c4.88,48.19,41.15,92.16,92.16,92.16,34.87,0,60.76-13.33,80.24-41.15,2.82-3.84,7.05-6.28,12.43-4a9.41,9.41,0,0,1,5.52,7.05,9.83,9.83,0,0,1-1.29,6.79c-19.61,34.22-58.7,51-97,51-65.63,0-112.42-58.7-112.42-121.51S3996.2,1471,4061.83,1471s113.05,58.45,113.17,121.13m-20.89-9.49c-4.23-48.19-41.14-92.15-92.16-92.15s-87.28,44-92.16,92.15Zm335.82-95.36v213.16a9.9,9.9,0,0,1-9.74,9.74,9.5,9.5,0,0,1-9.74-9.74v-40.51c-16,32.18-44.73,55.12-81,55.12-57.93,0-90.1-50.25-90.1-103.31v-125a9.74,9.74,0,1,1,19.48,0v125c0,41.91,23.71,83.83,70.5,83.83,65.62,0,81-61.4,81-129.2v-79.6c0-5.64,5.64-11.41,12.56-9.36a10.48,10.48,0,0,1,7.05,9.87m493.48,86.9v125a9.9,9.9,0,0,1-9.74,9.74,9.5,9.5,0,0,1-9.74-9.74v-125c0-41.91-23.71-83.05-70.5-83.05-58.7,0-81,62.8-81,111.64v96.39a9.9,9.9,0,0,1-9.75,9.74,9.5,9.5,0,0,1-9.74-9.74v-125c0-41.91-23.71-83.05-70.49-83.05-59.35,0-83.83,46.78-81.65,109,0,1.41.64,4.23,0,4.87v93.95a9.82,9.82,0,0,1-7.95,9.87c-6.54,1-11.66-3.46-11.66-9.61V1485.82c0-4.74,3.2-9.1,7.82-9.87,6.53-1,11.66,3.46,11.66,9.61v35.64c16.79-30,46.78-49.61,81.65-49.61,39.73,0,70.5,25.13,83.06,62.17,16-36.28,47.42-62.17,87.93-62.17,57.29,0,90.1,49.48,90.1,102.54" transform="translate(-2483.97 -204.83)"/><g class="cls-3"><g class="cls-4"><path class="cls-5" d="M3733.69,597.56l-326.08,148.3,326.08,192.65,326-192.65Z" transform="translate(-2483.97 -204.83)"/></g></g><g class="cls-6"><g class="cls-7"><path class="cls-2" d="M3407.61,745.86l326.08,192.65V204.83Z" transform="translate(-2483.97 -204.83)"/></g></g><g class="cls-8"><g class="cls-9"><path class="cls-2" d="M3733.69,204.83V938.51l326-192.65Z" transform="translate(-2483.97 -204.83)"/></g></g><g class="cls-6"><g class="cls-10"><path class="cls-2" d="M3407.61,807.64,3733.69,1267V1000.29Z" transform="translate(-2483.97 -204.83)"/></g></g><g class="cls-8"><g class="cls-11"><path class="cls-2" d="M3733.69,1000.29V1267L4059.9,807.64Z" transform="translate(-2483.97 -204.83)"/></g></g></svg>