<?xml version="1.0" encoding="utf-8"?>
<!-- Generator: Adobe Illustrator 22.1.0, SVG Export Plug-In . SVG Version: 6.00 Build 0)  -->
<svg version="1.1" id="ror.svg" xmlns="http://www.w3.org/2000/svg" xmlns:xlink="http://www.w3.org/1999/xlink" x="0px" y="0px"
	 viewBox="0 0 60.3 55" style="enable-background:new 0 0 60.3 55;" xml:space="preserve">
<style type="text/css">
	.st0{fill:#3F597E;fill-opacity:0;}
	.st1{fill:#FFFFFF;}
</style>
<rect id="Прямоугольник_1" class="st0" width="60.3" height="55"/>
<g>
	<title>tezos</title>
	<path class="st1" d="M35.2,50.9c-3.4,0-5.8-0.8-7.3-2.4s-2.3-3.3-2.3-5.2c0-0.7,0.1-1.2,0.4-1.7c0.2-0.5,0.6-0.8,1.1-1.1
		c0.5-0.3,1-0.4,1.7-0.4c0.7,0,1.2,0.1,1.7,0.4c0.5,0.2,0.8,0.6,1.1,1.1c0.3,0.5,0.4,1,0.4,1.7c0,0.8-0.2,1.5-0.6,2
		c-0.4,0.5-0.9,0.9-1.4,1c0.5,0.6,1.2,1.1,2.2,1.4c1,0.3,2,0.4,3,0.4c1.4,0,2.7-0.4,3.8-1.1c1.1-0.7,1.9-1.9,2.5-3.3s0.8-3.1,0.8-5
		c0-2-0.3-3.7-0.9-5.1c-0.6-1.5-1.4-2.5-2.5-3.2c-1.1-0.7-2.3-1-3.7-1c-0.9,0-1.9,0.4-3.2,1.1l-2.3,1.1v-1.2l10.6-14.1H25.6v14.7
		c0,1.2,0.3,2.2,0.8,3c0.5,0.8,1.4,1.2,2.4,1.2c0.9,0,1.7-0.3,2.4-0.9c0.8-0.6,1.5-1.3,2-2.1c0.1-0.2,0.2-0.3,0.3-0.3
		c0.1-0.1,0.2-0.1,0.3-0.1c0.2,0,0.4,0.1,0.7,0.3c0.3,0.3,0.4,0.6,0.4,1c0,0.2-0.1,0.4-0.1,0.7c-0.6,1.4-1.4,2.4-2.5,3.1
		c-1.1,0.7-2.2,1.1-3.5,1.1c-3.2,0-5.4-0.6-6.6-1.9c-1.2-1.2-1.8-3-1.8-5.1V16.2h-7.5v-2.7h7.5V7.2l-1.7-1.7V4.1h5l1.9,1v8.4l19.4,0
		l1.9,1.9L35,27.2c0.7-0.3,1.5-0.5,2.2-0.5c1.3,0,2.7,0.4,4.3,1.2c1.6,0.8,2.9,1.9,3.7,3.3c0.9,1.4,1.5,2.7,1.7,4s0.4,2.4,0.4,3.4
		c0,2.3-0.5,4.4-1.5,6.4c-1,1.9-2.4,3.4-4.4,4.4C39.6,50.4,37.5,50.9,35.2,50.9z"/>
</g>
</svg>
