<svg width="70" height="70" viewBox="0 0 70 70" fill="none" xmlns="http://www.w3.org/2000/svg">
<path d="M38.3496 27.8906C38.3496 28.4567 38.8089 28.916 39.375 28.916H41.084V41.084H28.916V28.916H35C35.5661 28.916 36.0254 28.4567 36.0254 27.8906C36.0254 27.3245 35.5661 26.8652 35 26.8652H28.4375C27.5707 26.8652 26.8652 27.5707 26.8652 28.4375V41.5625C26.8652 42.4293 27.5707 43.1348 28.4375 43.1348H41.5625C42.4293 43.1348 43.1348 42.4293 43.1348 41.5625V28.4375C43.1348 27.5707 42.4293 26.8652 41.5625 26.8652H39.375C38.8089 26.8652 38.3496 27.3245 38.3496 27.8906Z" fill="black"/>
<path d="M5.67383 4.10156C4.80705 4.10156 4.10156 4.80705 4.10156 5.67383V12.7832C4.10156 13.65 4.80705 14.3555 5.67383 14.3555H12.7832C13.65 14.3555 14.3555 13.65 14.3555 12.7832V5.67383C14.3555 4.80705 13.65 4.10156 12.7832 4.10156H5.67383ZM12.3047 12.3047H6.15234V6.15234H12.3047V12.3047Z" fill="#FF5555"/>
<path d="M12.7832 55.6445H5.67383C4.80705 55.6445 4.10156 56.35 4.10156 57.2168V64.3262C4.10156 65.1929 4.80705 65.8984 5.67383 65.8984H12.7832C13.65 65.8984 14.3555 65.1929 14.3555 64.3262V57.2168C14.3555 56.35 13.65 55.6445 12.7832 55.6445ZM12.3047 63.8477H6.15234V57.6953H12.3047V63.8477Z" fill="#FF5555"/>
<path d="M54.209 18.457H67.334C68.8042 18.457 70 17.2613 70 15.791V2.66602C70 1.19576 68.8042 0 67.334 0H54.209C52.7387 0 51.543 1.19576 51.543 2.66602V8.20312H39.2383C38.6722 8.20312 38.2129 8.66241 38.2129 9.22852V22.7637H32.6074V18.7593C33.801 18.3358 34.6582 17.1961 34.6582 15.8594C34.6582 14.1632 33.2782 12.7832 31.582 12.7832C29.8859 12.7832 28.5059 14.1632 28.5059 15.8594C28.5059 17.1961 29.363 18.3358 30.5566 18.7593V22.7637H25.9755C24.2046 22.7637 22.7637 24.2046 22.7637 25.9755V31.9238H10.2539V18.457H15.791C17.2613 18.457 18.457 17.2613 18.457 15.791V13.125C18.457 12.5589 17.9977 12.0996 17.4316 12.0996C16.8655 12.0996 16.4062 12.5589 16.4062 13.125V15.791C16.4062 16.1301 16.1301 16.4062 15.791 16.4062H2.66602C2.32689 16.4062 2.05078 16.1301 2.05078 15.791V2.66602C2.05078 2.32689 2.32689 2.05078 2.66602 2.05078H15.791C16.1301 2.05078 16.4062 2.32689 16.4062 2.66602V8.75C16.4062 9.3161 16.8655 9.77539 17.4316 9.77539C17.9977 9.77539 18.457 9.3161 18.457 8.75V2.66602C18.457 1.19576 17.2613 0 15.791 0H2.66602C1.19576 0 0 1.19576 0 2.66602V15.791C0 17.2613 1.19576 18.457 2.66602 18.457H8.20312V32.9492C8.20312 33.5153 8.66241 33.9746 9.22852 33.9746H22.7637V38.3496H21.357C20.9335 37.156 19.7938 36.2988 18.457 36.2988C16.7609 36.2988 15.3809 37.6788 15.3809 39.375C15.3809 41.0712 16.7609 42.4512 18.457 42.4512C19.7938 42.4512 20.9335 41.594 21.357 40.4004H22.7637V44.0245C22.7637 45.7954 24.2046 47.2363 25.9755 47.2363H30.5566V59.416H18.457V54.209C18.457 52.7387 17.2613 51.543 15.791 51.543H2.66602C1.19576 51.543 0 52.7387 0 54.209V67.334C0 68.8042 1.19576 70 2.66602 70H15.791C17.2613 70 18.457 68.8042 18.457 67.334V61.4668H31.582C32.1481 61.4668 32.6074 61.0075 32.6074 60.4414V47.2363H38.2129V51.7876C37.0193 52.2111 36.1621 53.3508 36.1621 54.6875C36.1621 56.3837 37.5421 57.7637 39.2383 57.7637C40.9344 57.7637 42.3145 56.3837 42.3145 54.6875C42.3145 53.3508 41.4573 52.2111 40.2637 51.7876V47.2363H44.0245C45.7954 47.2363 47.2363 45.7954 47.2363 44.0245V37.0438H59.7477V51.543H54.209C52.7387 51.543 51.543 52.7387 51.543 54.209V56.875C51.543 57.4411 52.0023 57.9004 52.5684 57.9004C53.1345 57.9004 53.5938 57.4411 53.5938 56.875V54.209C53.5938 53.8699 53.8699 53.5938 54.209 53.5938H67.334C67.6731 53.5938 67.9492 53.8699 67.9492 54.209V67.334C67.9492 67.6731 67.6731 67.9492 67.334 67.9492H54.209C53.8699 67.9492 53.5938 67.6731 53.5938 67.334V61.2329C53.5938 60.6668 53.1345 60.2075 52.5684 60.2075C52.0023 60.2075 51.543 60.6668 51.543 61.2329V67.334C51.543 68.8042 52.7387 70 54.209 70H67.334C68.8042 70 70 68.8042 70 67.334V54.209C70 52.7387 68.8042 51.543 67.334 51.543H61.7985V36.0184C61.7985 35.4523 61.3392 34.9931 60.7731 34.9931H47.2363V31.5137H52.1224C52.5459 32.7073 53.6856 33.5645 55.0224 33.5645C56.7185 33.5645 58.0985 32.1844 58.0985 30.4883C58.0985 28.7921 56.7185 27.4121 55.0224 27.4121C53.6856 27.4121 52.5459 28.2693 52.1224 29.4629H47.2363V25.9755C47.2363 24.2046 45.7954 22.7637 44.0245 22.7637H40.2637V10.2539H51.543V15.791C51.543 17.2613 52.7387 18.457 54.209 18.457ZM31.582 14.834C32.1476 14.834 32.6074 15.2938 32.6074 15.8594C32.6074 16.4249 32.1476 16.8848 31.582 16.8848C31.0165 16.8848 30.5566 16.4249 30.5566 15.8594C30.5566 15.2938 31.0165 14.834 31.582 14.834ZM18.457 40.4004C17.8915 40.4004 17.4316 39.9406 17.4316 39.375C17.4316 38.8094 17.8915 38.3496 18.457 38.3496C19.0226 38.3496 19.4824 38.8094 19.4824 39.375C19.4824 39.9406 19.0226 40.4004 18.457 40.4004ZM16.4062 67.334C16.4062 67.6731 16.1301 67.9492 15.791 67.9492H2.66602C2.32689 67.9492 2.05078 67.6731 2.05078 67.334V54.209C2.05078 53.8699 2.32689 53.5938 2.66602 53.5938H15.791C16.1301 53.5938 16.4062 53.8699 16.4062 54.209V67.334ZM39.2383 55.7129C38.6727 55.7129 38.2129 55.2531 38.2129 54.6875C38.2129 54.1219 38.6727 53.6621 39.2383 53.6621C39.8038 53.6621 40.2637 54.1219 40.2637 54.6875C40.2637 55.2531 39.8038 55.7129 39.2383 55.7129ZM55.0224 29.4629C55.5879 29.4629 56.0477 29.9227 56.0477 30.4883C56.0477 31.0538 55.5879 31.5137 55.0224 31.5137C54.4568 31.5137 53.997 31.0538 53.997 30.4883C53.997 29.9227 54.4568 29.4629 55.0224 29.4629ZM45.1855 25.9755V44.0245C45.1855 44.6648 44.6648 45.1855 44.0245 45.1855H25.9755C25.3352 45.1855 24.8145 44.6648 24.8145 44.0245V25.9755C24.8145 25.3352 25.3352 24.8145 25.9755 24.8145H44.0245C44.6648 24.8145 45.1855 25.3352 45.1855 25.9755ZM54.209 2.05078H67.334C67.6731 2.05078 67.9492 2.32689 67.9492 2.66602V15.791C67.9492 16.1301 67.6731 16.4062 67.334 16.4062H54.209C53.8699 16.4062 53.5938 16.1301 53.5938 15.791V9.25522C53.5943 9.24614 53.5954 9.23759 53.5954 9.22852C53.5954 9.21944 53.5943 9.21089 53.5938 9.20181V2.66602C53.5938 2.32689 53.8699 2.05078 54.209 2.05078Z" fill="black"/>
<path d="M57.2168 14.3555H64.3262C65.1929 14.3555 65.8984 13.65 65.8984 12.7832V5.67383C65.8984 4.80705 65.1929 4.10156 64.3262 4.10156H57.2168C56.35 4.10156 55.6445 4.80705 55.6445 5.67383V12.7832C55.6445 13.65 56.35 14.3555 57.2168 14.3555ZM57.6953 6.15234H63.8477V12.3047H57.6953V6.15234Z" fill="#FF5555"/>
<path d="M64.3262 65.8984C65.1929 65.8984 65.8984 65.1929 65.8984 64.3262V57.2168C65.8984 56.35 65.1929 55.6445 64.3262 55.6445H57.2168C56.35 55.6445 55.6445 56.35 55.6445 57.2168V64.3262C55.6445 65.1929 56.35 65.8984 57.2168 65.8984H64.3262ZM57.6953 57.6953H63.8477V63.8477H57.6953V57.6953Z" fill="#FF5555"/>
</svg>
