<svg width="70" height="53" viewBox="0 0 70 53" fill="none" xmlns="http://www.w3.org/2000/svg">
<path d="M64.1211 0H61.25C60.6834 0 60.2246 0.45929 60.2246 1.02539C60.2246 1.59149 60.6834 2.05078 61.25 2.05078H64.1211C66.2317 2.05078 67.9492 3.7635 67.9492 5.86929V11.1079C66.9196 10.224 65.5823 9.68781 64.1211 9.68781H9.42879V2.05078H56.6699C57.2366 2.05078 57.6953 1.59149 57.6953 1.02539C57.6953 0.45929 57.2366 0 56.6699 0H5.86929C2.6329 0 0 2.6329 0 5.86929V13.3301C0 13.8962 0.458756 14.3555 1.02539 14.3555C1.59203 14.3555 2.05078 13.8962 2.05078 13.3301V10.3207C2.75734 10.9274 3.60863 11.369 4.5459 11.5858C4.5491 11.5869 4.55284 11.5874 4.55605 11.5885C4.63562 11.6067 4.71573 11.6232 4.79691 11.6382C4.80759 11.6403 4.81827 11.6419 4.82895 11.6441C4.90425 11.6574 4.98009 11.6697 5.05646 11.6804C5.07408 11.683 5.09224 11.6852 5.10986 11.6873C5.18089 11.6964 5.25192 11.7049 5.32349 11.7119C5.35072 11.7146 5.37849 11.7162 5.40573 11.7183C5.46928 11.7231 5.5323 11.7284 5.59639 11.7311C5.65781 11.7343 5.71976 11.7348 5.78224 11.7359C5.81108 11.7365 5.83992 11.7381 5.86929 11.7381H64.1211C66.2317 11.7381 67.9492 13.4513 67.9492 15.5566V22.9688H59.8716C57.5404 22.9688 55.6445 24.8647 55.6445 27.1958V35.8321C55.6445 38.1627 57.5404 40.0586 59.8716 40.0586H67.9492V47.0409C67.9492 49.1467 66.2317 50.8594 64.1211 50.8594H13.0908C12.5242 50.8594 12.0654 51.3187 12.0654 51.8848C12.0654 52.4514 12.5242 52.9102 13.0908 52.9102H64.1211C67.3628 52.9102 70 50.2773 70 47.0409V5.86929C70 2.6329 67.3628 0 64.1211 0ZM5.87891 9.68727C3.76831 9.68727 2.05078 7.97455 2.05078 5.86929C2.05078 3.7635 3.76831 2.05078 5.87891 2.05078H7.37801V9.68727H5.87891ZM59.8716 38.0078C58.6716 38.0078 57.6953 37.0316 57.6953 35.8315V27.1953C57.6953 25.9958 58.6716 25.0195 59.8716 25.0195H67.9492V38.0078H59.8716Z" fill="#0071B3"/>
<path d="M8.64746 50.8594H5.87891C3.76831 50.8594 2.05078 49.1467 2.05078 47.0409V17.7051C2.05078 17.139 1.59203 16.6797 1.02539 16.6797C0.458756 16.6797 0 17.139 0 17.7051V47.0409C0 50.2773 2.63718 52.9102 5.87891 52.9102H8.64746C9.2141 52.9102 9.67285 52.4509 9.67285 51.8848C9.67285 51.3187 9.2141 50.8594 8.64746 50.8594Z" fill="#0071B3"/>
<path d="M62.0703 27.7539C61.5037 27.7539 61.0449 28.2132 61.0449 28.7793V34.248C61.0449 34.8141 61.5037 35.2734 62.0703 35.2734C62.6369 35.2734 63.0957 34.8141 63.0957 34.248V28.7793C63.0957 28.2132 62.6369 27.7539 62.0703 27.7539Z" fill="#0071B3"/>
</svg>
