<svg width="70" height="70" viewBox="0 0 70 70" fill="none" xmlns="http://www.w3.org/2000/svg">
<path d="M66.1473 19.0205C63.7093 14.277 60.1525 10.0841 55.8614 6.89362C55.4069 6.55556 54.7644 6.65062 54.4269 7.1051C54.0888 7.55905 54.1833 8.20152 54.6378 8.53958C58.6785 11.5437 62.0276 15.4919 64.3235 19.9583C66.7294 24.6387 67.9492 29.6995 67.9492 35C67.9492 43.8013 64.5222 52.0754 58.2988 58.2988C52.0754 64.5222 43.8013 67.9492 35 67.9492C26.1987 67.9492 17.9246 64.5222 11.7012 58.2988C5.47783 52.0754 2.05078 43.8013 2.05078 35C2.05078 26.1987 5.47783 17.9246 11.7012 11.7012C17.9246 5.47783 26.1987 2.05078 35 2.05078C40.7278 2.05078 46.3685 3.54294 51.3123 6.36543C51.8041 6.64635 52.43 6.47491 52.711 5.98358C52.9919 5.49171 52.821 4.86526 52.3291 4.58435C47.0761 1.58508 41.084 0 35 0C25.6513 0 16.8618 3.64067 10.2512 10.2512C3.64067 16.8618 0 25.6513 0 35C0 44.3487 3.64067 53.1382 10.2512 59.7488C16.8618 66.3593 25.6513 70 35 70C44.3487 70 53.1382 66.3593 59.7488 59.7488C66.3593 53.1382 70 44.3487 70 35C70 29.37 68.7038 23.9936 66.1473 19.0205Z" fill="black"/>
<path d="M21.4595 62.7908C25.6834 64.8528 30.2389 65.8984 35 65.8984C42.2568 65.8984 49.1317 63.4124 54.6528 58.8451C54.7254 58.8094 54.7964 58.7677 54.8611 58.7132C54.9294 58.6561 54.9871 58.5915 55.0362 58.5226C55.6584 57.9906 56.2635 57.4336 56.8483 56.8483C62.6845 51.0126 65.8984 43.2533 65.8984 35C65.8984 26.7467 62.6845 18.9874 56.8483 13.1517C51.0126 7.31552 43.2533 4.10156 35 4.10156C26.7467 4.10156 18.9874 7.31552 13.1517 13.1517C7.31552 18.9874 4.10156 26.7467 4.10156 35C4.10156 43.2533 7.31552 51.0126 13.1517 56.8483C13.7328 57.4299 14.3378 57.9869 14.9622 58.5199C15.0118 58.5899 15.07 58.6555 15.1389 58.7132C15.2036 58.7677 15.274 58.8094 15.3467 58.8451C16.1323 59.4946 16.9473 60.105 17.7868 60.6705C18.2562 60.9867 18.8934 60.8623 19.2101 60.3928C19.5262 59.9229 19.4018 59.2857 18.9323 58.9696C18.3673 58.5888 17.814 58.1861 17.2741 57.7642L17.814 57.1212C18.1777 56.687 18.1211 56.0403 17.6875 55.6766C17.2538 55.3123 16.6071 55.369 16.2428 55.8026L15.7045 56.444C15.3285 56.1049 14.96 55.7567 14.6017 55.3983C13.0417 53.8383 11.683 52.1304 10.5375 50.3077L11.2996 49.8676C11.7899 49.5846 11.9581 48.9571 11.675 48.4668C11.3914 47.9765 10.7645 47.8083 10.2742 48.0914L9.5089 48.5336C8.25172 46.1725 7.33421 43.6469 6.77933 41.0172L7.64397 40.865C8.20152 40.7668 8.57376 40.2348 8.47549 39.6773C8.37723 39.1197 7.84584 38.7469 7.28775 38.8452L6.42738 38.9969C6.24634 37.6836 6.15234 36.349 6.15234 35C6.15234 33.651 6.24634 32.3164 6.42738 31.0031L7.28775 31.1548C7.34756 31.1655 7.40791 31.1703 7.46666 31.1703C7.95532 31.1703 8.38791 30.8205 8.47549 30.3227C8.57376 29.7652 8.20152 29.2332 7.64343 29.135L6.77933 28.9828C7.33421 26.3536 8.25119 23.8275 9.5089 21.467L10.2742 21.9086C10.4355 22.0021 10.6117 22.0464 10.7858 22.0464C11.1399 22.0464 11.4849 21.8622 11.6745 21.5332C11.9581 21.0429 11.7899 20.416 11.2996 20.1329L10.5375 19.6928C11.683 17.8696 13.0417 16.1617 14.6017 14.6017C14.9477 14.2556 15.3013 13.9191 15.6618 13.5928L16.2428 14.2855C16.4452 14.5269 16.7358 14.6513 17.029 14.6513C17.2613 14.6513 17.4952 14.5728 17.6875 14.4115C18.1211 14.0479 18.1777 13.4011 17.8135 12.9669L17.2298 12.271C19.3607 10.5978 21.695 9.24881 24.1714 8.24692L24.4737 9.07791C24.6254 9.49448 25.0185 9.75296 25.4372 9.75296C25.5536 9.75296 25.6721 9.7332 25.788 9.69101C26.32 9.49715 26.5945 8.90862 26.4006 8.37669L26.0989 7.54677C28.6196 6.73233 31.2643 6.26663 33.9741 6.1721V7.04102C33.9741 7.60712 34.4334 8.06641 34.9995 8.06641C35.5661 8.06641 36.0249 7.60712 36.0249 7.04102V6.1721C38.7352 6.26663 41.3799 6.73233 43.9006 7.54677L43.5989 8.37669C43.405 8.90862 43.6795 9.49715 44.2114 9.69101C44.3273 9.7332 44.4459 9.75296 44.5623 9.75296C44.981 9.75296 45.3741 9.49448 45.5257 9.07791L45.828 8.24692C48.3044 9.24881 50.6388 10.5978 52.7697 12.271L52.186 12.9669C51.8217 13.4011 51.8784 14.0479 52.312 14.4115C52.5043 14.5728 52.7382 14.6513 52.9705 14.6513C53.2632 14.6513 53.5542 14.5269 53.7566 14.2855L54.3377 13.5928C54.6982 13.9191 55.0517 14.2556 55.3978 14.6017C56.9578 16.1617 58.3164 17.8696 59.462 19.6928L58.6999 20.1329C58.2096 20.416 58.0414 21.0429 58.325 21.5332C58.5146 21.8622 58.8596 22.0464 59.2136 22.0464C59.3877 22.0464 59.564 22.0021 59.7253 21.9086L60.4906 21.467C61.7483 23.8275 62.6653 26.3536 63.2201 28.9828L62.356 29.135C61.7979 29.2332 61.4257 29.7652 61.524 30.3227C61.6116 30.8205 62.0441 31.1703 62.5328 31.1703C62.5916 31.1703 62.6519 31.1655 62.7117 31.1548L63.5721 31.0031C63.7537 32.3164 63.8477 33.651 63.8477 35C63.8477 36.349 63.7537 37.6836 63.5726 38.9969L62.7122 38.8452C62.1547 38.7475 61.6228 39.1192 61.5245 39.6773C61.4262 40.2348 61.7985 40.7668 62.3566 40.865L63.2207 41.0172C62.6658 43.6464 61.7488 46.1725 60.4911 48.533L59.7258 48.0914C59.2355 47.8083 58.6086 47.976 58.3255 48.4668C58.0419 48.9571 58.2101 49.584 58.7004 49.8671L59.4625 50.3072C58.317 52.1304 56.9583 53.8383 55.3983 55.3983C55.0389 55.7578 54.6709 56.1065 54.296 56.4445L53.7572 55.8026C53.3935 55.369 52.7462 55.3123 52.3125 55.676C51.8789 56.0403 51.8223 56.687 52.1865 57.1207L52.7264 57.7642C50.6073 59.4214 48.2874 60.7581 45.8286 61.7531L45.5263 60.9221C45.3324 60.3902 44.7433 60.1157 44.212 60.309C43.6795 60.5029 43.4055 61.0914 43.5989 61.6233L43.9011 62.4538C41.3804 63.2677 38.7352 63.7339 36.0254 63.8279V62.959C36.0254 62.3929 35.5661 61.9336 35 61.9336C34.4339 61.9336 33.9746 62.3929 33.9746 62.959V63.8284C31.2632 63.736 28.6282 63.2784 26.0973 62.458L26.4011 61.6233C26.5945 61.0914 26.3205 60.5029 25.788 60.309C25.2556 60.1157 24.6676 60.3902 24.4737 60.9221L24.1709 61.7536C23.5605 61.5058 22.9559 61.2393 22.3594 60.9477C21.8504 60.6999 21.2363 60.9109 20.9879 61.4193C20.7396 61.9283 20.9505 62.5424 21.4595 62.7908Z" fill="black"/>
<path d="M41.5625 43.1348C42.4293 43.1348 43.1348 42.4293 43.1348 41.5625V28.4375C43.1348 27.5707 42.4293 26.8652 41.5625 26.8652H28.4375C27.5707 26.8652 26.8652 27.5707 26.8652 28.4375V41.5625C26.8652 42.4293 27.5707 43.1348 28.4375 43.1348H41.5625ZM28.916 28.916H41.084V41.084H28.916V28.916Z" fill="#FF5555"/>
<path d="M21.357 38.3496C20.9335 37.156 19.7938 36.2988 18.457 36.2988C16.7609 36.2988 15.3809 37.6788 15.3809 39.375C15.3809 41.0712 16.7609 42.4512 18.457 42.4512C19.7938 42.4512 20.9335 41.594 21.357 40.4004H22.7637V44.0245C22.7637 45.7954 24.2046 47.2363 25.9755 47.2363H33.9746V51.7876C32.781 52.2111 31.9238 53.3508 31.9238 54.6875C31.9238 56.3837 33.3038 57.7637 35 57.7637C36.6962 57.7637 38.0762 56.3837 38.0762 54.6875C38.0762 53.3508 37.219 52.2111 36.0254 51.7876V47.2363H44.0245C45.7954 47.2363 47.2363 45.7954 47.2363 44.0245V35.4785H52.1224C52.5459 36.6721 53.6856 37.5293 55.0224 37.5293C56.7185 37.5293 58.0985 36.1493 58.0985 34.4531C58.0985 32.757 56.7185 31.377 55.0224 31.377C53.6856 31.377 52.5459 32.2341 52.1224 33.4277H47.2363V25.9755C47.2363 24.2046 45.7954 22.7637 44.0245 22.7637H40.2637V20.1265C41.4573 19.703 42.3145 18.5633 42.3145 17.2266C42.3145 15.5304 40.9344 14.1504 39.2383 14.1504C37.5421 14.1504 36.1621 15.5304 36.1621 17.2266C36.1621 18.5633 37.0193 19.703 38.2129 20.1265V22.7637H32.6074V18.7593C33.801 18.3358 34.6582 17.1961 34.6582 15.8594C34.6582 14.1632 33.2782 12.7832 31.582 12.7832C29.8859 12.7832 28.5059 14.1632 28.5059 15.8594C28.5059 17.1961 29.363 18.3358 30.5566 18.7593V22.7637H25.9755C24.2046 22.7637 22.7637 24.2046 22.7637 25.9755V26.2329C22.7637 26.799 23.223 27.2583 23.7891 27.2583C24.3552 27.2583 24.8145 26.799 24.8145 26.2329V25.9755C24.8145 25.3352 25.3352 24.8145 25.9755 24.8145H44.0245C44.6648 24.8145 45.1855 25.3352 45.1855 25.9755V44.0245C45.1855 44.6648 44.6648 45.1855 44.0245 45.1855H25.9755C25.3352 45.1855 24.8145 44.6648 24.8145 44.0245V30.5908C24.8145 30.0247 24.3552 29.5654 23.7891 29.5654C23.223 29.5654 22.7637 30.0247 22.7637 30.5908V31.9238H17.8023C17.3788 30.7302 16.2391 29.873 14.9023 29.873C13.2062 29.873 11.8262 31.2531 11.8262 32.9492C11.8262 34.6454 13.2062 36.0254 14.9023 36.0254C16.2391 36.0254 17.3788 35.1682 17.8023 33.9746H22.7637V38.3496H21.357ZM18.457 40.4004C17.8915 40.4004 17.4316 39.9406 17.4316 39.375C17.4316 38.8094 17.8915 38.3496 18.457 38.3496C19.0226 38.3496 19.4824 38.8094 19.4824 39.375C19.4824 39.9406 19.0226 40.4004 18.457 40.4004ZM35 55.7129C34.4344 55.7129 33.9746 55.2531 33.9746 54.6875C33.9746 54.1219 34.4344 53.6621 35 53.6621C35.5656 53.6621 36.0254 54.1219 36.0254 54.6875C36.0254 55.2531 35.5656 55.7129 35 55.7129ZM55.0224 33.4277C55.5879 33.4277 56.0477 33.8876 56.0477 34.4531C56.0477 35.0187 55.5879 35.4785 55.0224 35.4785C54.4568 35.4785 53.997 35.0187 53.997 34.4531C53.997 33.8876 54.4568 33.4277 55.0224 33.4277ZM39.2383 16.2012C39.8038 16.2012 40.2637 16.661 40.2637 17.2266C40.2637 17.7921 39.8038 18.252 39.2383 18.252C38.6727 18.252 38.2129 17.7921 38.2129 17.2266C38.2129 16.661 38.6727 16.2012 39.2383 16.2012ZM31.582 14.834C32.1476 14.834 32.6074 15.2938 32.6074 15.8594C32.6074 16.4249 32.1476 16.8848 31.582 16.8848C31.0165 16.8848 30.5566 16.4249 30.5566 15.8594C30.5566 15.2938 31.0165 14.834 31.582 14.834ZM14.9023 33.9746C14.3368 33.9746 13.877 33.5148 13.877 32.9492C13.877 32.3837 14.3368 31.9238 14.9023 31.9238C15.4679 31.9238 15.9277 32.3837 15.9277 32.9492C15.9277 33.5148 15.4679 33.9746 14.9023 33.9746Z" fill="#FF5555"/>
</svg>
