<svg width="71" height="72" viewBox="0 0 71 72" fill="none" xmlns="http://www.w3.org/2000/svg">
<path d="M35.7402 18.4492C37.8134 18.4492 39.5 16.7627 39.5 14.6895C39.5 12.6162 37.8134 10.9297 35.7402 10.9297C33.667 10.9297 31.9805 12.6162 31.9805 14.6895C31.9805 16.7627 33.667 18.4492 35.7402 18.4492ZM35.7402 12.9805C36.6823 12.9805 37.4492 13.7468 37.4492 14.6895C37.4492 15.6315 36.6823 16.3984 35.7402 16.3984C34.7976 16.3984 34.0312 15.6315 34.0312 14.6895C34.0312 13.7468 34.7976 12.9805 35.7402 12.9805Z" fill="#0071B3" stroke="#0071B3" stroke-width="0.4"/>
<path d="M14.915 57.6486C15.3679 58.2456 16.1973 58.4053 16.8478 58.0192C17.2611 57.7714 17.7322 57.6491 18.215 57.6656C19.0513 57.6908 19.7376 57.036 19.7552 56.2082C19.7728 55.4173 20.1605 54.6984 20.819 54.2359C21.4861 53.767 22.3 53.6426 23.0503 53.8936C23.7964 54.1446 24.6146 53.8931 25.0878 53.2661C25.7836 52.3406 27.0793 52.0527 28.1025 52.5969C29.0921 53.1224 30.2532 53.163 31.2876 52.708C32.3424 52.2439 33.1136 51.3387 33.4025 50.2257C34.6458 45.4432 34.5662 37.6582 34.4882 34.8123H36.8547C36.8237 35.9925 36.7922 38.0305 36.8531 40.3237C36.868 40.8898 37.3385 41.3326 37.9051 41.3219C38.4712 41.3064 38.9183 40.8354 38.9028 40.2693C38.8419 37.9685 38.8755 35.9327 38.9065 34.7941C39.6606 34.6787 40.2395 34.0256 40.2395 33.24V32.2531C41.0134 32.793 41.9538 33.1097 42.9664 33.1097H47.6907C48.2568 33.1097 48.7161 32.6509 48.7161 32.0843V28.6471C48.7161 25.4876 46.1457 22.9177 42.9867 22.9177H42.8276C42.9301 22.6325 42.9931 22.3276 43.0107 22.0093L43.5229 12.4716C43.6586 9.9492 42.2924 5.63081 39.8491 3.05238C38.577 1.70976 37.1324 1 35.6717 1C33.9745 1 32.3291 1.94154 30.9138 3.72209C30.5613 4.16536 30.635 4.8105 31.0783 5.16298C31.5216 5.51546 32.1667 5.44176 32.5192 4.99796C33.2252 4.10982 34.3451 3.05078 35.6717 3.05078C36.5679 3.05078 37.4731 3.52609 38.3612 4.46336C40.3346 6.54565 41.5864 10.2974 41.4759 12.3615L40.9632 21.8993C40.9322 22.4702 40.49 22.9177 39.9559 22.9177H31.3875C30.8534 22.9177 30.4107 22.4702 30.3803 21.8993L29.8676 12.3615C29.8147 11.3725 30.0865 9.94707 30.596 8.54784C30.7899 8.01538 30.5154 7.42738 29.9829 7.23352C29.451 7.03966 28.8625 7.31416 28.6686 7.84608C28.0614 9.51662 27.7516 11.2021 27.82 12.4716L28.3327 22.0093C28.3498 22.3276 28.4128 22.6325 28.5153 22.9177H28.3562C25.1967 22.9177 22.6268 25.4876 22.6268 28.6471V32.0848C22.6268 32.6509 23.0856 33.1102 23.6522 33.1102H28.3765C29.3896 33.1102 30.3295 32.793 31.1034 32.2536V33.24C31.1034 34.0251 31.6818 34.6777 32.4348 34.7936C32.5064 37.4852 32.5918 45.1938 31.4179 49.7098C31.2871 50.2123 30.9389 50.6214 30.462 50.8308C30.0059 51.0316 29.4964 51.015 29.0649 50.7859C27.2085 49.7984 24.8688 50.2828 23.5518 51.9021C22.2354 51.5128 20.7843 51.7536 19.6398 52.5579C18.5915 53.2949 17.9202 54.3935 17.7477 55.6293C17.2206 55.6736 16.7057 55.8093 16.2261 56.0314C14.8397 54.5751 12.6816 54.2375 10.8129 55.2352C9.32184 56.0314 8.11007 57.6924 8.407 59.7672C7.30578 60.1736 6.45609 61.0991 6.15915 62.2623C4.95592 61.9691 3.64695 62.2073 2.59646 62.924C1.44983 63.7064 0.750218 64.9475 0.677586 66.3286C0.561696 68.5086 2.08323 70.4601 4.18741 70.9044C4.32093 70.9664 4.46833 71 4.62 71H9.42865C9.99476 71 10.454 70.5407 10.454 69.9746C10.454 69.4085 9.99476 68.9492 9.42865 68.9492H4.89077C4.85285 68.9391 4.81333 68.9316 4.77381 68.9257C3.5396 68.7564 2.65894 67.6862 2.72516 66.437C2.77857 65.4276 3.39167 64.8642 3.75216 64.618C4.37487 64.1934 5.15673 64.0754 5.84513 64.304C6.86625 64.6404 7.94985 63.9745 8.11594 62.9165C8.22756 62.2067 8.80381 61.6657 9.51357 61.6011C10.2954 61.5328 10.8167 60.7546 10.5641 59.9963C10.0765 58.5565 10.9139 57.506 11.7785 57.044C12.6533 56.5772 13.9997 56.4565 14.915 57.6486ZM46.6658 28.6471V31.0589H42.9669C41.463 31.0589 40.24 29.8359 40.24 28.332V24.9685H42.9872C45.0156 24.9685 46.6658 26.6187 46.6658 28.6471ZM38.1893 32.7615H33.1542V24.9685H38.1893V32.7615ZM28.3765 31.0589H24.6776V28.6471C24.6776 26.6187 26.3278 24.968 28.3562 24.968H31.1034V28.332C31.1034 29.8359 29.8799 31.0589 28.3765 31.0589Z" fill="#0071B3" stroke="#0071B3" stroke-width="0.4"/>
<path d="M70.6648 66.3292C70.5922 64.9476 69.8926 63.7064 68.7459 62.924C67.6949 62.2068 66.3854 61.9686 65.1827 62.2618C64.8863 61.0997 64.0371 60.1742 62.9343 59.7672C63.2313 57.6908 62.0195 56.0309 60.5295 55.2352C58.6619 54.2376 56.5053 54.574 55.1163 56.0315C54.6356 55.8093 54.1208 55.6731 53.5942 55.6288C53.4222 54.3935 52.7509 53.295 51.7026 52.558C50.5581 51.7537 49.1076 51.5128 47.7901 51.9021C46.472 50.2823 44.1334 49.799 42.2775 50.7854C41.8455 51.0151 41.3365 51.0316 40.8799 50.8308C40.403 50.6209 40.0548 50.2124 39.9245 49.7093C39.5789 48.3816 39.3135 46.6566 39.1351 44.5834C39.0865 44.0195 38.5888 43.6018 38.0253 43.6499C37.4614 43.6985 37.0432 44.1952 37.0918 44.7591C37.2803 46.9472 37.5655 48.7859 37.9394 50.2247C38.2283 51.3387 38.9995 52.2439 40.0542 52.708C41.0887 53.1631 42.2497 53.1225 43.2404 52.5964C44.2626 52.0528 45.5582 52.3406 46.2552 53.2672C46.7278 53.8926 47.546 54.1447 48.291 53.8942C49.0424 53.6421 49.8563 53.7665 50.5234 54.236C51.1819 54.6985 51.5696 55.4173 51.5872 56.2067C51.6048 57.0462 52.3034 57.694 53.129 57.6652C53.6097 57.6497 54.0812 57.7714 54.4973 58.0208C55.1446 58.4054 55.9745 58.2457 56.4242 57.6529C57.3422 56.4566 58.6891 56.5773 59.5634 57.0441C60.4285 57.506 61.2654 58.556 60.7767 60.0006C60.5257 60.7536 61.0496 61.5328 61.8245 61.6001C62.538 61.6658 63.1143 62.2068 63.2259 62.9166C63.3055 63.4223 63.6035 63.8661 64.043 64.1342C64.482 64.4023 65.0118 64.4637 65.4983 64.3035C66.1851 64.0755 66.967 64.193 67.5897 64.6181C67.9502 64.8643 68.5638 65.4277 68.6167 66.4376C68.6829 67.6862 67.8023 68.7559 66.5686 68.9258C66.5285 68.9317 66.4895 68.9391 66.4511 68.9493H13.8037C13.2371 68.9493 12.7783 69.4086 12.7783 69.9747C12.7783 70.5408 13.2371 71.0001 13.8037 71.0001H66.7219C66.8746 71.0001 67.0231 70.9664 67.1576 70.9039C69.2608 70.458 70.7807 68.5076 70.6648 66.3292Z" fill="#0071B3" stroke="#0071B3" stroke-width="0.4"/>
</svg>
