<svg id="bootstrap.svg" xmlns="http://www.w3.org/2000/svg" width="135" height="55" viewBox="0 0 135 55">
  <defs>
    <style>
      .cls-1 {
        fill: #3f597e;
        fill-opacity: 0;
      }

      .cls-2 {
        fill: #fff;
        fill-rule: evenodd;
      }
    </style>
  </defs>
  <rect id="Прямоугольник_1_копия_9" data-name="Прямоугольник 1 копия 9" class="cls-1" width="135" height="55"/>
  <path id="bootstrap.png" class="cls-2" d="M1525.93,69.995h-17.64a6.274,6.274,0,0,1-6.3-6.248V46.253a6.274,6.274,0,0,1,6.3-6.248h17.64a6.274,6.274,0,0,1,6.3,6.248V63.747A6.274,6.274,0,0,1,1525.93,69.995Zm-3.38-18.421c0-2.523-2.09-3.428-4.36-3.428h-5.83V61.858h5.62c2.61,0,5.18-.712,5.18-3.871a3.272,3.272,0,0,0-2.63-3.466A3.074,3.074,0,0,0,1522.55,51.573Zm-4.82,8.763h-3.61V55.445h3.3c1.83,0,3.92-.019,3.92,2.369C1521.34,60.221,1519.56,60.337,1517.73,60.337Zm-0.36-6.317h-3.25V49.686h3.42c1.61,0,3.21.1,3.21,2.157S1518.9,54.02,1517.37,54.02ZM1633.33,56.9h-2.79V60.75h-2.33V49.9h5.12A3.5,3.5,0,1,1,1633.33,56.9Zm-0.31-4.961h-2.48v2.929h2.48A1.471,1.471,0,1,0,1633.02,51.935Zm-9.16,6.978h-4.69l-0.69,1.837h-2.65l4.23-10.847h2.92l4.21,10.847h-2.66Zm-2.34-6.7-1.71,4.668h3.41Zm-8.9,8.538-2.14-3.854h-1.71V60.75h-2.33V49.9h5.12a3.39,3.39,0,0,1,3.67,3.5,3.114,3.114,0,0,1-2.39,3.22l2.46,4.131h-2.68Zm0.23-7.35a1.478,1.478,0,0,0-1.64-1.464h-2.44v2.929h2.44A1.478,1.478,0,0,0,1612.85,53.4Zm-11.09,7.35h-2.34V51.935h-3.2V49.9h8.72v2.032h-3.18V60.75Zm-10.83.2a6.271,6.271,0,0,1-4.62-1.725l1.26-1.755a4.836,4.836,0,0,0,3.48,1.464c1.28,0,1.9-.586,1.9-1.2,0-1.92-6.29-.6-6.29-4.684,0-1.8,1.57-3.3,4.15-3.3a6.113,6.113,0,0,1,4.26,1.513l-1.3,1.69a4.694,4.694,0,0,0-3.18-1.186c-1,0-1.56.437-1.56,1.088,0,1.725,6.28.569,6.28,4.619C1595.31,59.448,1593.89,60.945,1590.93,60.945Zm-8.56-.2h-2.34V51.935h-3.2V49.9h8.72v2.032h-3.18V60.75Zm-12.24.2a5.612,5.612,0,1,1,5.73-5.609A5.468,5.468,0,0,1,1570.13,60.945Zm0-9.171a3.569,3.569,0,1,0,3.33,3.561A3.293,3.293,0,0,0,1570.13,51.775Zm-12.55,9.171a5.611,5.611,0,1,1,5.72-5.609A5.47,5.47,0,0,1,1557.58,60.945Zm0-9.171a3.569,3.569,0,1,0,3.33,3.561A3.287,3.287,0,0,0,1557.58,51.775Zm-10.12,8.975h-5.94V49.9h5.76a2.814,2.814,0,0,1,3.14,2.764,2.409,2.409,0,0,1-1.88,2.488,2.632,2.632,0,0,1,2.1,2.668A2.87,2.87,0,0,1,1547.46,60.75Zm-0.69-8.864h-2.92v2.359h2.92a1.16,1.16,0,0,0,1.28-1.172A1.172,1.172,0,0,0,1546.77,51.886Zm0.08,4.342h-3v2.522h3a1.227,1.227,0,0,0,1.41-1.253A1.273,1.273,0,0,0,1546.85,56.229Z" transform="translate(-1502 -25)"/>
</svg>
