<svg width="70" height="70" viewBox="0 0 70 70" fill="none" xmlns="http://www.w3.org/2000/svg">
<path d="M55.1228 7.8292C49.273 3.49631 42.331 1.20695 35.0473 1.20695C28.4058 1.20695 21.8076 3.11869 16.8968 6.39898V1.20695C16.8968 0.540723 16.3561 0 15.6899 0C15.0236 0 14.4829 0.540723 14.4829 1.20695V8.79949C14.4829 9.26775 14.7532 9.69377 15.1769 9.89174C15.6004 10.0909 16.1014 10.027 16.4611 9.72754C21.0641 5.90406 28.0123 3.62059 35.0473 3.62059C41.8096 3.62059 48.2544 5.74711 53.6866 9.76978C53.9026 9.92906 54.1536 10.0063 54.4036 10.0063C54.7728 10.0063 55.1373 9.83732 55.3738 9.51754C55.771 8.98174 55.6588 8.22623 55.1228 7.8292Z" fill="#0071B3"/>
<path d="M68.7935 14.4824H61.2009C60.7327 14.4824 60.309 14.7539 60.1099 15.1776C59.9107 15.6012 59.9747 16.1021 60.2741 16.4618C64.0976 21.0638 66.3811 28.0118 66.3811 35.0481C66.3811 41.8103 64.2545 48.2551 60.2319 53.6861C59.8348 54.2219 59.9471 54.9774 60.4829 55.3746C60.6989 55.5339 60.9499 55.6111 61.1998 55.6111C61.5691 55.6111 61.9336 55.4421 62.1714 55.1223C66.5041 49.2726 68.7936 42.3304 68.7936 35.0468C68.7936 28.4053 66.8819 21.806 63.6016 16.8963H68.7936C69.4598 16.8963 70.0006 16.3556 70.0006 15.6894C70.0004 15.0231 69.4597 14.4824 68.7935 14.4824Z" fill="#0071B3"/>
<path d="M54.8243 60.1097C54.4008 59.9117 53.9011 59.9732 53.5401 60.2739C48.9371 64.0974 41.9889 66.3808 34.9539 66.3808C28.1904 66.3808 21.7457 64.2543 16.3146 60.2316C15.7788 59.8346 15.0233 59.9468 14.6262 60.4826C14.2291 61.0184 14.3414 61.774 14.8772 62.1711C20.727 66.5039 27.6691 68.7934 34.9527 68.7934C41.5942 68.7934 48.1924 66.8816 53.1032 63.6013V68.7934C53.1032 69.4596 53.6439 70.0003 54.3101 70.0003C54.9764 70.0003 55.5171 69.4596 55.5171 68.7934V61.2008C55.5171 60.7324 55.2468 60.3064 54.8243 60.1097Z" fill="#0071B3"/>
<path d="M9.72754 53.5394C5.90406 48.9364 3.62059 41.9894 3.62059 34.9532C3.62059 28.191 5.74711 21.7462 9.76855 16.3152C10.1656 15.7794 10.0533 15.0239 9.51754 14.6267C8.98174 14.2284 8.22623 14.3419 7.82906 14.8777C3.49631 20.7275 1.20695 27.6695 1.20695 34.9532C1.20695 41.5947 3.11869 48.1929 6.39898 53.1037H1.20695C0.540723 53.1037 0 53.6444 0 54.3107C0 54.9769 0.540723 55.5176 1.20695 55.5176H8.79949C9.26775 55.5176 9.69254 55.2473 9.89174 54.8236C10.0909 54.4 10.027 53.899 9.72754 53.5394Z" fill="#0071B3"/>
<path d="M36.2071 22.9291C36.2059 22.2629 35.6652 21.7246 35.0002 21.7246C35.0002 21.7246 34.9989 21.7246 34.9977 21.7246C34.3302 21.7258 33.792 22.2677 33.7932 22.9339L33.8222 35.0029C33.8234 35.6691 34.3642 36.2074 35.0292 36.2074C35.0304 36.2074 35.0316 36.2074 35.0316 36.2074C35.6991 36.2061 36.2373 35.6643 36.2361 34.9981L36.2071 22.9291Z" fill="#0071B3"/>
<path d="M35.029 33.793H27.7587C27.0925 33.793 26.5518 34.3337 26.5518 34.9999C26.5518 35.6662 27.0925 36.2069 27.7587 36.2069H35.029C35.6952 36.2069 36.236 35.6662 36.236 34.9999C36.236 34.3337 35.6952 33.793 35.029 33.793Z" fill="#0071B3"/>
<path d="M35.0001 9.65527C21.0254 9.65527 9.65527 21.0243 9.65527 35.0001C9.65527 48.9759 21.0254 60.3448 35.0001 60.3448C48.9759 60.3448 60.3448 48.9759 60.3448 35.0001C60.3448 21.0243 48.9759 9.65527 35.0001 9.65527ZM35.0001 57.9311C22.3554 57.9311 12.069 47.6448 12.069 35.0001C12.069 22.3554 22.3554 12.069 35.0001 12.069C47.6448 12.069 57.9311 22.3554 57.9311 35.0001C57.9311 47.6448 47.6448 57.9311 35.0001 57.9311Z" fill="#0071B3"/>
<path d="M18.1036 33.793H15.6899C15.0236 33.793 14.4829 34.3337 14.4829 34.9999C14.4829 35.6662 15.0236 36.2069 15.6899 36.2069H18.1036C18.7699 36.2069 19.3106 35.6662 19.3106 34.9999C19.3106 34.3337 18.7699 33.793 18.1036 33.793Z" fill="#0071B3"/>
<path d="M54.3104 33.793H51.8967C51.2304 33.793 50.6897 34.3337 50.6897 34.9999C50.6897 35.6662 51.2304 36.2069 51.8967 36.2069H54.3104C54.9766 36.2069 55.5174 35.6662 55.5174 34.9999C55.5174 34.3337 54.9766 33.793 54.3104 33.793Z" fill="#0071B3"/>
<path d="M35.0002 50.6895C34.3339 50.6895 33.7932 51.2302 33.7932 51.8964V54.3102C33.7932 54.9764 34.3339 55.5171 35.0002 55.5171C35.6664 55.5171 36.2071 54.9764 36.2071 54.3102V51.8964C36.2071 51.23 35.6664 50.6895 35.0002 50.6895Z" fill="#0071B3"/>
<path d="M35.0002 14.4834C34.3339 14.4834 33.7932 15.0241 33.7932 15.6904V18.1041C33.7932 18.7704 34.3339 19.3111 35.0002 19.3111C35.6664 19.3111 36.2071 18.7704 36.2071 18.1041V15.6904C36.2071 15.0241 35.6664 14.4834 35.0002 14.4834Z" fill="#0071B3"/>
<path d="M23.7843 46.2163C23.3136 45.7443 22.5496 45.7443 22.0778 46.2163L20.492 47.801C20.0212 48.2717 20.0212 49.0357 20.492 49.5075C20.7273 49.7428 21.0362 49.8611 21.3452 49.8611C21.6542 49.8611 21.9632 49.744 22.1985 49.5075L23.7843 47.9228C24.255 47.4521 24.255 46.6881 23.7843 46.2163Z" fill="#0071B3"/>
<path d="M49.5068 20.4936C49.0348 20.0217 48.2721 20.0217 47.8002 20.4936L46.2155 22.0783C45.7436 22.5503 45.7436 23.313 46.2155 23.7848C46.4508 24.0201 46.7598 24.1384 47.0688 24.1384C47.3778 24.1384 47.6868 24.0201 47.9221 23.7848L49.5068 22.2001C49.9786 21.7283 49.9786 20.9656 49.5068 20.4936Z" fill="#0071B3"/>
<path d="M49.5068 47.801L47.9221 46.2163C47.4501 45.7443 46.6874 45.7443 46.2155 46.2163C45.7436 46.6882 45.7436 47.451 46.2155 47.9228L47.8002 49.5075C48.0355 49.7428 48.3445 49.8611 48.6535 49.8611C48.9625 49.8611 49.2715 49.744 49.5068 49.5075C49.9786 49.0357 49.9786 48.2729 49.5068 47.801Z" fill="#0071B3"/>
<path d="M23.7845 22.0783L22.1987 20.4936C21.728 20.0217 20.964 20.0217 20.4921 20.4936C20.0202 20.9656 20.0202 21.7294 20.4921 22.2001L22.078 23.7848C22.3132 24.0201 22.6222 24.1384 22.9312 24.1384C23.2402 24.1384 23.5492 24.0201 23.7845 23.7848C24.2564 23.313 24.2564 22.549 23.7845 22.0783Z" fill="#0071B3"/>
</svg>
