<svg id="Слой_1" data-name="Слой 1" xmlns="http://www.w3.org/2000/svg" viewBox="0 0 70 63.59"><defs><style>.cls-1{fill:#0071b3;}</style></defs><title>collaboration</title><path class="cls-1" d="M69.6,48.45l-3.34-3.31a1.37,1.37,0,1,0-1.93,1.94l3.34,3.31a1.37,1.37,0,0,0,1,.39,1.35,1.35,0,0,0,1-.4A1.36,1.36,0,0,0,69.6,48.45Z" transform="translate(0 -3)"/><path class="cls-1" d="M62.86,41.75a1.36,1.36,0,0,0-1.94,0h0a1.37,1.37,0,1,0,1.94,0Z" transform="translate(0 -3)"/><path class="cls-1" d="M51.2,48.05,64.47,34.79a5.18,5.18,0,0,0,0-7.29A5.06,5.06,0,0,0,62,26.13,5.22,5.22,0,0,0,62.46,24a5.14,5.14,0,0,0-4.28-5.07,5.16,5.16,0,0,0-1.25-5.26,5.09,5.09,0,0,0-2.76-1.43,5.18,5.18,0,0,0,.26-1.62A5.17,5.17,0,0,0,46.81,6l-.13-.14A9.13,9.13,0,0,0,40,3H29.29a1.37,1.37,0,0,0-1.37,1.37V6.16a6.21,6.21,0,0,0,.35,2.07,5.29,5.29,0,0,0-2-.39,5.15,5.15,0,0,0-4.89,6.77A5.23,5.23,0,0,0,18.63,16a5.22,5.22,0,0,0-1.25,5.26,5.07,5.07,0,0,0-2.76,1.44,5.16,5.16,0,0,0-1,5.81,5.06,5.06,0,0,0-2.49,1.38,5.15,5.15,0,0,0,0,7.28l2.73,2.73L.4,53.37a1.38,1.38,0,0,0,0,1.94,1.41,1.41,0,0,0,1,.4,1.36,1.36,0,0,0,1-.4L15.89,41.75a5.22,5.22,0,0,0,2.55.67,5.11,5.11,0,0,0,3.64-1.51,5.17,5.17,0,0,0,1.51-3.85h.2A5.16,5.16,0,0,0,29,31.91a1.48,1.48,0,0,0,0-.21h.21a5.16,5.16,0,0,0,5.15-5.15v-.21h.2a5.14,5.14,0,0,0,4-8.41l9.07-9.08a2.41,2.41,0,0,1,1.71-.71A2.42,2.42,0,0,1,51,12.28l-1.33,1.34-4.86,4.85a1.38,1.38,0,0,0,0,1.94,1.36,1.36,0,0,0,1,.4,1.32,1.32,0,0,0,1-.4l4.86-4.86A2.42,2.42,0,1,1,55,19l-1.34,1.34-3.52,3.52a1.37,1.37,0,0,0,1.94,1.93l3.51-3.52a2.44,2.44,0,0,1,1.71-.7A2.41,2.41,0,0,1,59.72,24,2.37,2.37,0,0,1,59,25.66L57.18,27.5,55.5,29.18a1.37,1.37,0,0,0,1,2.34,1.41,1.41,0,0,0,1-.4l1.68-1.69a2.42,2.42,0,0,1,3.42,3.43L49.26,46.12A18.5,18.5,0,0,1,36.8,51.55a1.36,1.36,0,0,0-.92.4L23.63,64.25a1.36,1.36,0,0,0,0,1.94,1.4,1.4,0,0,0,1,.4,1.36,1.36,0,0,0,1-.41l9-9a12.77,12.77,0,0,0,7.72,2l7.05,7.06a1.41,1.41,0,0,0,1,.4,1.37,1.37,0,0,0,1-2.34l-7.5-7.5a1.33,1.33,0,0,0-1.07-.39l-.44,0a9.89,9.89,0,0,1-5.7-1.24l.87-.88A21.22,21.22,0,0,0,51.2,48.05ZM20.15,39a2.41,2.41,0,0,1-3.42,0L13,35.28a2.41,2.41,0,0,1,0-3.42,2.37,2.37,0,0,1,1.71-.71,2.41,2.41,0,0,1,1.71.71l3.69,3.69A2.43,2.43,0,0,1,20.15,39Zm5.35-5.35a2.43,2.43,0,0,1-3.42,0l-3.69-3.69-1.84-1.84A2.42,2.42,0,0,1,18.26,24a2.37,2.37,0,0,1,1.71.71L25.5,30.2h0a2.41,2.41,0,0,1,0,3.42Zm5.36-5.35a2.43,2.43,0,0,1-3.42,0L20.57,21.4a2.41,2.41,0,0,1-.71-1.71A2.37,2.37,0,0,1,20.57,18,2.41,2.41,0,0,1,24,18l3.13,3.13,3.74,3.74h0a2.41,2.41,0,0,1,0,3.42Zm5.35-5.36a2.41,2.41,0,0,1-3.42,0L25.92,16h0L24.58,14.7A2.42,2.42,0,0,1,28,11.28l8.21,8.21a2.41,2.41,0,0,1,.71,1.71A2.37,2.37,0,0,1,36.21,22.91ZM36.57,16l-3.75-3.76a6.26,6.26,0,0,0,1.31.14h0l3.75,0a1.37,1.37,0,1,0,0-2.73H34.13a3.4,3.4,0,0,1-2.45-1,3.44,3.44,0,0,1-1-2.46V5.73H40a6.39,6.39,0,0,1,4.66,2l.06.06Z" transform="translate(0 -3)"/></svg>