<svg width="70" height="69" viewBox="0 0 70 69" fill="none" xmlns="http://www.w3.org/2000/svg">
<path d="M69.6632 14.3486C69.6616 14.347 69.6598 14.3452 69.6582 14.3436L55.6569 0.342234C55.4342 0.116024 55.1276 -0.00765435 54.8104 0.000367264C54.4936 0.00605532 54.1929 0.140527 53.9774 0.373008L49.643 5.04013C49.2202 5.49547 49.2282 6.20225 49.6612 6.64781L49.9898 6.98574L48.2688 8.70674L45.5501 8.02767C43.1116 7.43087 40.539 8.16156 38.7784 9.95111L33.819 15.7309L28.0562 9.96818C26.4134 8.31602 23.975 7.74006 21.7666 8.48228C21.6347 8.52662 21.5118 8.59371 21.4031 8.68049L21.0863 8.93572L20.3183 8.16783L21.8269 6.65919C22.2826 6.20385 22.2827 5.46528 21.8274 5.0098C21.8272 5.00965 21.8271 5.0095 21.8269 5.00936L17.1598 0.342234C16.7045 -0.113394 15.9659 -0.11354 15.5104 0.341797C15.5103 0.341942 15.5101 0.342088 15.51 0.342234L0.34183 15.5104C-0.113798 15.9657 -0.113943 16.7043 0.341393 17.1598C0.341539 17.1599 0.341685 17.1601 0.34183 17.1602L5.00895 21.8273C5.46429 22.283 6.20286 22.2831 6.65849 21.8278C6.65864 21.8276 6.65878 21.8275 6.65893 21.8273L7.18588 21.3004L9.95071 24.0652L9.27164 26.784C8.676 29.1865 9.37607 31.7259 11.1187 33.4839L21.0022 43.6518V52.7733C21.0236 54.8646 22.1971 56.7734 24.0536 57.7366C25.049 58.2663 25.6706 59.3026 25.6693 60.4303V60.673H24.5025C23.8584 60.6725 23.3362 61.1944 23.3357 61.8384C23.3357 61.8389 23.3357 61.8393 23.3357 61.8398V67.6737C23.3353 68.3177 23.8571 68.84 24.5012 68.8404C24.5016 68.8404 24.5021 68.8404 24.5025 68.8404H46.6713C47.3154 68.8409 47.8377 68.319 47.8381 67.675C47.8381 67.6745 47.8381 67.6741 47.8381 67.6737V61.8398C47.8386 61.1957 47.3167 60.6734 46.6727 60.673C46.6722 60.673 46.6718 60.673 46.6713 60.673H45.5046V59.5005L47.3539 57.7948C49.1236 56.4559 50.166 54.367 50.1717 52.1477V38.4795C51.5533 38.3135 52.8376 37.6835 53.8145 36.6924L59.9823 29.9948C61.4321 28.5554 61.9369 26.4167 61.2835 24.481C61.0965 23.9184 62.1016 22.0769 63.299 20.6646C63.5127 20.8767 63.8003 20.9978 64.1013 21.0023H64.1127C64.4198 21.0023 64.7147 20.8811 64.9331 20.6649L69.6537 15.9978C70.1118 15.5451 70.1161 14.8067 69.6632 14.3486ZM5.83401 19.3526L2.81686 16.3353L16.335 2.81698L19.3523 5.83413L5.83401 19.3526ZM21.1056 40.4104L12.78 31.8453C11.6087 30.6666 11.1367 28.9625 11.5346 27.3491L12.3744 23.9901C12.4743 23.5927 12.3578 23.1721 12.0678 22.8825L8.83585 19.6506L18.6686 9.81781L20.1772 11.3265C20.5986 11.7475 21.2694 11.7838 21.7337 11.4108L22.692 10.6394C24.016 10.2692 25.4368 10.6436 26.4065 11.6182L32.8384 18.05L32.8273 18.0583C32.3068 18.5366 31.9189 19.1416 31.7015 19.8142C30.9784 19.4223 30.1544 19.2568 29.336 19.339C27.2182 19.6153 25.6425 21.433 25.6693 23.5686V35.7708C23.3487 36.2499 21.5465 38.0821 21.1056 40.4104ZM45.5046 66.5069H25.6693V63.0065H45.5046V66.5069ZM47.8381 52.1477C47.8246 53.6727 47.0923 55.1019 45.8623 56.0037L43.5482 58.1298C43.3077 58.3508 43.1709 58.6625 43.171 58.989V60.6731H28.0028V60.4304C28.0055 58.4403 26.9081 56.6117 25.1508 55.6778C24.0559 55.119 23.3582 54.0023 23.3357 52.7734V41.4873C23.3402 40.0088 24.2747 38.6932 25.6693 38.2019V45.505H28.0028V23.5685C27.9671 22.6282 28.6392 21.8093 29.5684 21.6611C30.0634 21.61 30.5569 21.771 30.9267 22.1043C31.2955 22.4345 31.5054 22.9069 31.5032 23.4021V40.8377H33.8368V21.0685C33.836 20.1023 34.6188 19.3185 35.585 19.3177C35.639 19.3177 35.6928 19.3202 35.7465 19.325C36.6914 19.4825 37.3724 20.3172 37.3371 21.2746V40.8376H39.6707V24.5688C39.6699 23.6026 40.4527 22.8188 41.4189 22.8181C41.4729 22.8181 41.5267 22.8206 41.5804 22.8254C42.5253 22.9829 43.2063 23.8176 43.171 24.7749V40.8376H45.5046V31.201C46.8992 31.6922 47.8336 33.0079 47.8381 34.4863V52.1477ZM59.0706 25.2195C59.4412 26.3334 59.1415 27.5612 58.2992 28.3791L52.1314 35.0767C51.5978 35.6161 50.9155 35.9837 50.1715 36.1329V34.4865C50.1679 31.7154 48.2186 29.3278 45.5044 28.77V24.7751C45.5454 22.6062 43.9368 20.7589 41.783 20.501C41.0514 20.4395 40.3165 20.5732 39.6533 20.8884C39.5159 18.8695 37.9588 17.2355 35.9491 17.0007C35.8995 16.9964 35.8506 17.0058 35.801 17.0034L40.4886 11.536C41.6675 10.3652 43.3714 9.89321 44.9848 10.2906L48.3438 11.1304C48.7412 11.2301 49.1617 11.1137 49.4513 10.8239L51.6165 8.65876L61.6697 18.9972C60.5928 20.2465 58.3804 23.1499 59.0706 25.2195ZM64.1287 18.1788L52.1075 5.8159L54.8627 2.8476L67.1788 15.1637L64.1287 18.1788Z" fill="white"/>
</svg>
