<svg width="70" height="63" viewBox="0 0 70 63" fill="none" xmlns="http://www.w3.org/2000/svg">
<path d="M54.7275 15.2471H43.7678C43.2015 15.2471 42.7424 15.7062 42.7424 16.2725C42.7424 16.8388 43.2015 17.2979 43.7678 17.2979H54.7275C55.2938 17.2979 55.7529 16.8388 55.7529 16.2725C55.7529 15.7062 55.2938 15.2471 54.7275 15.2471Z" fill="#0071B3"/>
<path d="M54.7275 19.6318H43.7678C43.2015 19.6318 42.7424 20.0909 42.7424 20.6572C42.7424 21.2235 43.2015 21.6826 43.7678 21.6826H54.7275C55.2938 21.6826 55.7529 21.2235 55.7529 20.6572C55.7529 20.0909 55.2938 19.6318 54.7275 19.6318Z" fill="#0071B3"/>
<path d="M58.0151 9.76758H40.4798C38.7058 9.76758 37.2626 11.2109 37.2626 12.985V15.8482L30.9872 22.1236C30.6939 22.4168 30.6061 22.8579 30.7649 23.241C30.9236 23.6242 31.2974 23.874 31.7122 23.874H37.2626V23.9445C37.2626 25.7186 38.7059 27.1618 40.4798 27.1618H58.0151C59.7892 27.1618 61.2324 25.7184 61.2324 23.9445V12.985C61.2324 11.2109 59.7891 9.76758 58.0151 9.76758ZM59.1816 23.9447C59.1816 24.5879 58.6583 25.1111 58.0151 25.1111H40.4798C39.8366 25.1111 39.3133 24.5878 39.3133 23.9447V22.8487C39.3133 22.2824 38.8542 21.8233 38.288 21.8233H34.1878L39.013 16.998C39.2053 16.8057 39.3133 16.5449 39.3133 16.2729V12.9851C39.3133 12.3419 39.8367 11.8185 40.4798 11.8185H58.0151C58.6584 11.8185 59.1816 12.3419 59.1816 12.9851V23.9447Z" fill="#0071B3"/>
<path d="M49.2473 30.5908C47.4734 30.5908 46.03 32.0342 46.03 33.8081C46.03 35.5822 47.4734 37.0254 49.2473 37.0254C51.0212 37.0254 52.4646 35.582 52.4646 33.8081C52.4646 32.0342 51.0212 30.5908 49.2473 30.5908ZM49.2474 34.9746C48.6043 34.9746 48.081 34.4512 48.081 33.8081C48.081 33.165 48.6043 32.6416 49.2474 32.6416C49.8906 32.6416 50.4139 33.165 50.4139 33.8081C50.4139 34.4514 49.8906 34.9746 49.2474 34.9746Z" fill="#0071B3"/>
<path d="M58.0151 30.5908C56.2411 30.5908 54.7979 32.0342 54.7979 33.8081C54.7979 35.582 56.2412 37.0254 58.0151 37.0254C59.7891 37.0254 61.2324 35.582 61.2324 33.8081C61.2324 32.0342 59.7891 30.5908 58.0151 30.5908ZM58.0151 34.9747C57.3719 34.9747 56.8486 34.4514 56.8486 33.8082C56.8486 33.1651 57.372 32.6417 58.0151 32.6417C58.6582 32.6417 59.1816 33.1651 59.1816 33.8082C59.1816 34.4514 58.6582 34.9747 58.0151 34.9747Z" fill="#0071B3"/>
<path d="M40.4797 30.5908C38.7058 30.5908 37.2625 32.0342 37.2625 33.8081C37.2625 35.5822 38.7058 37.0254 40.4797 37.0254C42.2537 37.0254 43.697 35.582 43.697 33.8081C43.697 32.0342 42.2537 30.5908 40.4797 30.5908ZM40.4799 34.9746C39.8367 34.9746 39.3134 34.4512 39.3134 33.8081C39.3134 33.165 39.8367 32.6416 40.4799 32.6416C41.123 32.6416 41.6463 33.165 41.6463 33.8081C41.6463 34.4514 41.123 34.9746 40.4799 34.9746Z" fill="#0071B3"/>
<path d="M65.6869 0H4.31321C1.93485 0 0 1.93485 0 4.31321V49.7677C0 52.1461 1.93485 54.0811 4.31321 54.0811H23.8232L22.144 60.7979H19.6566C19.0904 60.7979 18.6312 61.257 18.6312 61.8233C18.6312 62.3896 19.0904 62.8487 19.6566 62.8487H50.3434C50.9097 62.8487 51.3688 62.3896 51.3688 61.8233C51.3688 61.257 50.9097 60.7979 50.3434 60.7979H47.856L46.1768 54.0811H65.6868C68.0652 54.0811 70 52.1461 70 49.7677V4.31321C70.0001 1.93485 68.0653 0 65.6869 0ZM65.6869 52.0303H42.6718C42.1055 52.0303 41.6464 52.4894 41.6464 53.0557C41.6464 53.622 42.1055 54.0811 42.6718 54.0811H44.0632L45.7424 60.7979H24.2578L25.937 54.0811H38.2879C38.8542 54.0811 39.3133 53.622 39.3133 53.0557C39.3133 52.4894 38.8542 52.0303 38.2879 52.0303H4.31321C3.06565 52.0303 2.05079 51.0153 2.05079 49.7677V4.31321C2.05079 3.06565 3.06565 2.05079 4.31321 2.05079H65.6868C66.9343 2.05079 67.9492 3.06565 67.9492 4.31321V49.7677C67.9492 51.0153 66.9345 52.0303 65.6869 52.0303Z" fill="#0071B3"/>
<path d="M64.591 41.5503H30.5457V33.9073C30.5457 32.5988 29.8398 31.3825 28.7036 30.7334L24.775 28.4885C24.5488 28.3593 24.4082 28.117 24.4082 27.8563V26.0345C26.1269 24.8624 27.2577 22.8894 27.2577 20.6568V18.4649C27.2577 16.2531 26.1473 14.2968 24.4554 13.1208C24.4965 12.8966 24.5177 12.6683 24.5177 12.4371C24.5177 10.3609 22.8287 8.67188 20.7525 8.67188C18.6763 8.67188 16.9871 10.3609 16.9871 12.4371C16.9871 12.6684 17.0088 12.8965 17.05 13.1206C15.358 14.2964 14.2472 16.2529 14.2472 18.4649V20.6568C14.2472 22.8894 15.3782 24.8624 17.0967 26.0345V27.8563C17.0967 28.1169 16.9562 28.3591 16.7298 28.4885L12.8013 30.7334C11.6652 31.3827 10.9593 32.5989 10.9593 33.9073V41.5505H5.40918C4.84289 41.5505 4.38379 42.0096 4.38379 42.5759C4.38379 43.1422 4.84289 43.6013 5.40918 43.6013H64.5909C65.1572 43.6013 65.6163 43.1422 65.6163 42.5759C65.6163 42.0096 65.1573 41.5503 64.591 41.5503ZM20.7527 10.7225C21.6122 10.7225 22.3239 11.3588 22.4466 12.1847C21.9061 12.0389 21.3386 11.9597 20.7527 11.9597C20.1669 11.9597 19.5994 12.0389 19.0589 12.1847C19.1816 11.3588 19.8932 10.7225 20.7527 10.7225ZM20.7527 14.0103C22.9681 14.0103 24.8104 15.6363 25.1503 17.7574C22.0673 17.4938 19.493 16.1602 17.8651 15.0772C18.6433 14.4128 19.6516 14.0103 20.7527 14.0103ZM16.2982 20.6568V18.4648C16.2982 17.8502 16.4233 17.2644 16.6494 16.7313C18.5127 17.9827 21.539 19.5613 25.2071 19.8182V20.6568C25.2071 23.113 23.2088 25.1112 20.7526 25.1112C18.2965 25.1112 16.2982 23.113 16.2982 20.6568ZM23.7578 30.2688L23.9205 30.3618L20.7529 32.56L17.5851 30.3618L17.7477 30.269C18.6113 29.7754 19.1479 28.8509 19.1479 27.8562V26.9611C19.6613 27.0919 20.1989 27.1619 20.7527 27.1619C21.3065 27.1619 21.844 27.0919 22.3576 26.9611V27.8562C22.3576 28.8509 22.8942 29.7755 23.7578 30.2688ZM28.4949 41.5503H26.1619V38.192C26.1619 37.6257 25.7028 37.1666 25.1365 37.1666C24.5702 37.1666 24.1111 37.6257 24.1111 38.192V41.5503H17.3942V38.192C17.3942 37.6257 16.9351 37.1666 16.3689 37.1666C15.8026 37.1666 15.3435 37.6257 15.3435 38.192V41.5503H13.0103V33.9073C13.0103 33.3328 13.3203 32.799 13.819 32.5139L15.6122 31.4892L20.168 34.6505C20.3438 34.7725 20.5482 34.8335 20.7526 34.8335C20.957 34.8335 21.1614 34.7725 21.3372 34.6505L25.893 31.4891L27.6862 32.5138C28.1849 32.7988 28.4949 33.3327 28.4949 33.9072V41.5503Z" fill="#0071B3"/>
</svg>
