<svg width="68" height="70" viewBox="0 0 68 70" fill="none" xmlns="http://www.w3.org/2000/svg">
<path d="M22.604 51.747L22.6213 51.7518L22.6391 51.7535C28.4453 52.2884 33.0082 57.1847 33.0083 63.128V68.6328C33.0083 69.2773 32.4856 69.8 31.8411 69.8H1.36719C0.722684 69.8 0.2 69.2773 0.2 68.6328V63.1281C0.2 57.1849 4.76272 52.2885 10.5689 51.7536L10.5877 51.7519L10.6058 51.7467C10.6107 51.7453 10.6132 51.7447 10.6181 51.7436C10.6224 51.7426 10.6286 51.7412 10.6399 51.7384L10.9637 51.6591L10.7413 51.4108C9.49313 50.017 8.73262 48.1788 8.73262 46.1657V35C8.73262 34.3554 9.25529 33.8328 9.89981 33.8328H18.2042C21.662 33.8328 24.4754 36.6462 24.4754 40.104V46.1657C24.4754 48.1788 23.715 50.017 22.4668 51.4108L22.2444 51.6591L22.5681 51.7385C22.5854 51.7427 22.5907 51.7437 22.5962 51.745C22.5984 51.7456 22.6008 51.7461 22.604 51.747ZM11.3629 43.5452L11.067 43.3836V43.7207V46.1657C11.067 49.219 13.5508 51.7028 16.6041 51.7028C19.6574 51.7028 22.1413 49.219 22.1412 46.1657V44.3588V44.1588H21.9412H13.7702C12.8985 44.1588 12.0785 43.9362 11.3629 43.5452ZM19.1286 54.3786L19.4701 54.0371H18.9872H14.2207H13.7378L14.0792 54.3786L16.4625 56.7619L16.6039 56.9033L16.7454 56.7619L19.1286 54.3786ZM11.2669 36.1672H11.0669V36.3672V39.1211C11.0669 40.6119 12.2794 41.8244 13.7702 41.8244H21.9412H22.1412V41.6244V40.104C22.1412 37.933 20.3753 36.1672 18.2044 36.1672H11.2669ZM2.5341 67.2656V67.4656H2.7341H30.4737H30.6737V67.2656V63.1278C30.6737 58.5273 27.2383 54.7172 22.7989 54.1207L22.7008 54.1075L22.6309 54.1775L17.4292 59.3792C17.4291 59.3792 17.4291 59.3792 17.4291 59.3792C17.2011 59.6071 16.9027 59.7211 16.6038 59.7211C16.3049 59.7211 16.0065 59.6071 15.7785 59.3792C15.7785 59.3792 15.7785 59.3792 15.7785 59.3792L10.5769 54.1776L10.5069 54.1076L10.4088 54.1208C5.96932 54.7173 2.5341 58.5274 2.5341 63.128V67.2656Z" fill="#0071B3" stroke="white" stroke-width="0.4"/>
<path d="M60.8451 52.4257L60.6406 52.6285L60.9021 52.7493C64.8118 54.5558 67.5318 58.5118 67.5318 63.0925V68.6331C67.5318 69.2776 67.0091 69.8003 66.3646 69.8003H40.4266C39.7821 69.8003 39.2594 69.2776 39.2594 68.6331V63.0922C39.2594 58.5116 41.9793 54.5557 45.8891 52.7491L46.1506 52.6283L45.9461 52.4256C44.9307 51.4187 44.3013 50.0247 44.3013 48.486V42.9273C44.3013 37.913 48.3812 33.8331 53.3956 33.8331C53.6239 33.8331 53.8506 33.8444 54.078 33.8614L54.6153 33.9016L54.2343 33.5205L52.3729 31.6591L52.3143 31.6005H52.2314H36.6642C33.1966 31.6005 30.3753 28.7791 30.3753 25.3116V11.611C30.3753 8.14354 33.1966 5.32207 36.6642 5.32207H57.9198C61.3874 5.32207 64.2087 8.14354 64.2087 11.611V25.3116C64.2087 28.5125 61.8046 31.1632 58.7071 31.5515L58.532 31.5735V31.75V35.0003C58.532 35.0877 58.5221 35.1736 58.5034 35.257L58.4739 35.388L58.5841 35.4649C60.9431 37.1101 62.4899 39.8411 62.4899 42.9273V48.4861C62.4899 50.0247 61.8605 51.4188 60.8451 52.4257ZM52.798 29.2662C53.1075 29.2662 53.4043 29.3892 53.6233 29.608C53.6233 29.608 53.6233 29.6081 53.6234 29.6081L55.8561 31.8409L56.1975 32.1824V31.6995V30.4334C56.1975 29.7887 56.7202 29.2662 57.3647 29.2662H57.9196C60.1004 29.2662 61.8742 27.4924 61.8742 25.3116V14.4189V14.2189H61.6742H53.001C52.3565 14.2189 51.8338 13.6964 51.8338 13.0518C51.8338 12.4071 52.3565 11.8846 53.001 11.8846H61.6742H61.8742V11.6846V11.611C61.8742 9.43023 60.1004 7.65645 57.9196 7.65645H36.6642C34.4834 7.65645 32.7097 9.43023 32.7097 11.611V25.3116C32.7097 27.4924 34.4834 29.2662 36.6642 29.2662H52.798ZM50.0528 51.7029H50.6488H56.1427H56.9385C58.7126 51.7029 60.1555 50.26 60.1555 48.486V42.9273C60.1555 39.1998 57.1232 36.1675 53.3957 36.1675C49.6681 36.1675 46.6358 39.1998 46.6358 42.9273V48.4861C46.6358 50.2602 48.0788 51.7031 49.8528 51.7031H50.0528V51.7029ZM64.9977 67.4659H65.1977V67.2659V63.0925C65.1977 58.0994 61.1359 54.0375 56.1428 54.0375H50.6489C45.6558 54.0375 41.5939 58.0994 41.5939 63.0925V67.2659V67.4659H41.7939H64.9976H64.9977Z" fill="black" stroke="white" stroke-width="0.4"/>
<path d="M11.4676 26.6279V26.4514L11.2925 26.4294C8.19514 26.0411 5.79106 23.3905 5.79106 20.1895V6.48895C5.79106 3.02147 8.61254 0.2 12.08 0.2H27.9819C28.6263 0.2 29.149 0.722547 29.149 1.36719C29.149 2.01181 28.6263 2.53437 27.9818 2.53437H12.08C9.89936 2.53437 8.12544 4.30815 8.12544 6.48895V20.1895C8.12544 22.3703 9.89922 24.1441 12.08 24.1441H12.635C13.2795 24.1441 13.8021 24.6667 13.8021 25.3113V26.5774V27.0603L14.1436 26.7189L16.3764 24.486C16.3764 24.486 16.3764 24.486 16.3765 24.486C16.5955 24.2671 16.8923 24.1441 17.2018 24.1441H24.8729C25.5174 24.1441 26.0401 24.6667 26.0401 25.3113C26.0401 25.9559 25.5174 26.4785 24.8729 26.4785H17.7681H17.6852L17.6266 26.5371L13.4601 30.7036C13.2369 30.9268 12.9385 31.0456 12.6345 31.0456C12.4843 31.0456 12.3326 31.0165 12.1882 30.9566L12.1882 30.9566C11.7521 30.7759 11.4676 30.3502 11.4676 29.8782V26.6279ZM11.2676 26.6279V29.8782C11.2676 30.4311 11.6008 30.9297 12.1116 31.1414C12.2807 31.2115 12.4584 31.2456 12.6345 31.2456C12.9904 31.2456 13.34 31.1065 13.6016 30.845L17.7681 26.6785L11.2676 26.6279Z" fill="black" stroke="white" stroke-width="0.4"/>
<path d="M34.3025 0.400586C34.047 0.146289 33.6955 0 33.3361 0C32.975 0 32.6223 0.146289 32.3695 0.400586C32.1138 0.654883 31.9675 1.00762 31.9675 1.36719C31.9675 1.72676 32.1138 2.07949 32.3695 2.33379C32.6223 2.58809 32.975 2.73438 33.3361 2.73438C33.6957 2.73438 34.047 2.58809 34.3025 2.33379M34.3025 0.400586L34.1611 0.542007C34.1612 0.54207 34.1613 0.542134 34.1613 0.542197M34.3025 0.400586L34.1615 0.542348C34.1614 0.542298 34.1614 0.542247 34.1613 0.542197M34.3025 0.400586C34.5568 0.654883 34.7033 1.00762 34.7033 1.36719C34.7033 1.72676 34.5568 2.07949 34.3025 2.33379M34.1613 0.542197C33.9429 0.32492 33.642 0.2 33.3361 0.2C33.0279 0.2 32.7263 0.325307 32.5113 0.541587L32.5105 0.542388L32.5105 0.542386C32.2926 0.759103 32.1675 1.06079 32.1675 1.36719C32.1675 1.67359 32.2926 1.97527 32.5105 2.19199L32.5113 2.19279C32.7263 2.40907 33.0279 2.53437 33.3361 2.53437C33.6422 2.53437 33.9429 2.40946 34.1613 2.19218M34.1613 0.542197C34.3781 0.75906 34.5033 1.06087 34.5033 1.36719C34.5033 1.6735 34.3781 1.97531 34.1613 2.19218M34.1613 2.19218C34.1613 2.19224 34.1612 2.1923 34.1611 2.19237L34.3025 2.33379M34.1613 2.19218C34.1614 2.19213 34.1614 2.19208 34.1615 2.19203L34.3025 2.33379" fill="black" stroke="white" stroke-width="0.4"/>
<path d="M48.1172 12.2256L48.1173 12.2256C48.3343 12.4425 48.4594 12.7443 48.4594 13.0508C48.4594 13.3572 48.3342 13.6591 48.1173 13.876L48.1172 13.876C47.9006 14.0928 47.5987 14.218 47.2922 14.218C46.9858 14.218 46.684 14.0928 46.467 13.8759C46.2501 13.6591 46.125 13.3573 46.125 13.0508C46.125 12.7443 46.2502 12.4424 46.4671 12.2256C46.6839 12.0088 46.9858 11.8836 47.2922 11.8836C47.5986 11.8836 47.9006 12.0088 48.1172 12.2256Z" fill="black" stroke="white" stroke-width="0.4"/>
</svg>
