<svg width="71" height="70" viewBox="0 0 71 70" fill="none" xmlns="http://www.w3.org/2000/svg">
<path d="M69.5748 55.9707C70.1802 55.9707 70.6709 55.4802 70.6709 54.8747V16.2944C70.6709 16.0037 70.5555 15.7251 70.35 15.5194L58.6591 3.8284C58.4533 3.62291 58.1747 3.50752 57.884 3.50752H33.2596V3.28809C33.2596 1.47506 31.7845 0 29.9715 0H3.95898C2.14596 0 0.670898 1.47506 0.670898 3.28809V38.6534C0.670898 40.4664 2.14596 41.9415 3.95898 41.9415H12.3619V68.9039C12.3619 69.5093 12.8524 70 13.4579 70H69.5748C70.1802 70 70.6709 69.5095 70.6709 68.9039V60.7202C70.6709 60.1148 70.1804 59.6241 69.5748 59.6241C68.9694 59.6241 68.4788 60.1147 68.4788 60.7202V67.8079H14.554V41.9415H29.9715C31.7845 41.9415 33.2596 40.4664 33.2596 38.6534V19.801C33.2596 19.1956 32.769 18.7049 32.1635 18.7049C31.558 18.7049 31.0674 19.1954 31.0674 19.801V38.6535C31.0674 39.258 30.5758 39.7496 29.9714 39.7496H3.95898C3.35455 39.7496 2.86291 39.258 2.86291 38.6535V3.28809C2.86291 2.68365 3.35455 2.19201 3.95898 2.19201H29.9715C30.5759 2.19201 31.0676 2.68365 31.0676 3.28809V13.9561C31.0676 14.5615 31.5581 15.0522 32.1637 15.0522C32.7692 15.0522 33.2597 14.5616 33.2597 13.9561V5.69939H56.7916C56.79 5.72359 56.7879 5.74779 56.7879 5.7724V16.2943C56.7879 16.8997 57.2785 17.3904 57.884 17.3904H68.4059C68.4306 17.3904 68.4547 17.3883 68.4789 17.3867V54.8748C68.4789 55.4802 68.9694 55.9707 69.5748 55.9707ZM58.9799 15.1983V7.24937L66.9289 15.1983H58.9799Z" fill="#0071B3"/>
<path d="M27.7795 50.2714H20.4725C19.8672 50.2714 19.3765 50.7619 19.3765 51.3674C19.3765 51.9728 19.867 52.4635 20.4725 52.4635H27.7795C28.3849 52.4635 28.8755 51.973 28.8755 51.3674C28.8754 50.762 28.3849 50.2714 27.7795 50.2714Z" fill="#0071B3"/>
<path d="M27.7795 56.1169H20.4725C19.8672 56.1169 19.3765 56.6075 19.3765 57.213C19.3765 57.8184 19.867 58.3091 20.4725 58.3091H27.7795C28.3849 58.3091 28.8755 57.8185 28.8755 57.213C28.8754 56.6075 28.3849 56.1169 27.7795 56.1169Z" fill="#0071B3"/>
<path d="M49.7 33.9039C45.2203 33.9039 41.0446 35.6844 37.9421 38.9175C37.5229 39.3544 37.5371 40.0481 37.9739 40.4673C38.4109 40.8866 39.1046 40.8722 39.5237 40.4354C42.2089 37.6372 45.8231 36.0961 49.7 36.0961C57.4761 36.0961 63.8023 42.4223 63.8023 50.1983C63.8023 57.9744 57.4761 64.3006 49.7 64.3006C41.924 64.3006 35.5978 57.9744 35.5978 50.1983C35.5978 47.9017 36.1321 45.7122 37.1859 43.6904C37.4656 43.1535 37.2573 42.4916 36.7206 42.2118C36.1839 41.9325 35.5219 42.1404 35.242 42.6772C34.0408 44.9821 33.4058 47.5829 33.4058 50.1983C33.4058 59.1831 40.7154 66.4928 49.7002 66.4928C58.6849 66.4928 65.9946 59.1831 65.9946 50.1983C65.9946 41.2136 58.6846 33.9039 49.7 33.9039Z" fill="#0071B3"/>
<path d="M52.2025 49.2484L50.504 49.1983V43.1105H54.3767C54.9821 43.1105 55.4728 42.62 55.4728 42.0145C55.4728 41.4091 54.9823 40.9184 54.3767 40.9184H50.504V39.6762C50.504 39.0708 50.0135 38.5801 49.408 38.5801C48.8026 38.5801 48.3119 39.0706 48.3119 39.6762V40.9184H47.2158C45.4028 40.9184 43.9277 42.3934 43.9277 44.2065V48.006C43.9277 49.813 45.3932 51.2845 47.198 51.2941L48.3119 51.3268V57.2857H45.0238C44.4184 57.2857 43.9277 57.7762 43.9277 58.3817C43.9277 58.9871 44.4183 59.4778 45.0238 59.4778H48.3119V60.72C48.3119 61.3254 48.8024 61.8161 49.408 61.8161C50.0134 61.8161 50.504 61.3256 50.504 60.72V59.4778H52.1846C53.9976 59.4778 55.4727 58.0028 55.4727 56.1897V52.5363C55.4728 50.7295 54.0073 49.2581 52.2025 49.2484ZM48.312 49.1339L47.2484 49.1026C47.2377 49.1024 47.2269 49.1022 47.2161 49.1022C46.6117 49.1022 46.12 48.6106 46.12 48.0062V44.2066C46.12 43.6022 46.6117 43.1105 47.2161 43.1105H48.3122V49.1339H48.312ZM53.2808 56.19C53.2808 56.7944 52.7892 57.2861 52.1847 57.2861H50.5042V51.3916L52.1525 51.4401C52.1631 51.4404 52.1739 51.4405 52.1847 51.4405C52.7892 51.4405 53.2808 51.9322 53.2808 52.5366V56.19Z" fill="#0071B3"/>
<path d="M28.6563 3.50732H5.2743C4.66891 3.50732 4.17822 3.99787 4.17822 4.6034V10.4489C4.17822 11.0543 4.66877 11.545 5.2743 11.545H28.6563C29.2617 11.545 29.7524 11.0545 29.7524 10.4489V4.6034C29.7524 3.99801 29.2619 3.50732 28.6563 3.50732ZM27.5603 9.35287H6.37037V5.69947H27.5604V9.35287H27.5603Z" fill="#0071B3"/>
<path d="M9.95076 12.8602H5.2743C4.66891 12.8602 4.17822 13.3508 4.17822 13.9563V18.6328C4.17822 19.2382 4.66877 19.7288 5.2743 19.7288H9.95076C10.5562 19.7288 11.0468 19.2383 11.0468 18.6328V13.9563C11.0467 13.3508 10.5562 12.8602 9.95076 12.8602ZM8.85469 17.5366H6.37037V15.0522H8.85469V17.5366Z" fill="#0071B3"/>
<path d="M19.3033 12.8602H14.6268C14.0214 12.8602 13.5308 13.3508 13.5308 13.9563V18.6328C13.5308 19.2382 14.0213 19.7288 14.6268 19.7288H19.3033C19.9087 19.7288 20.3994 19.2383 20.3994 18.6328V13.9563C20.3994 13.3508 19.9087 12.8602 19.3033 12.8602ZM18.2072 17.5366H15.7229V15.0522H18.2072V17.5366Z" fill="#0071B3"/>
<path d="M28.6563 12.8602H23.9799C23.3745 12.8602 22.8838 13.3508 22.8838 13.9563V18.6328C22.8838 19.2382 23.3743 19.7288 23.9799 19.7288H28.6563C29.2617 19.7288 29.7524 19.2383 29.7524 18.6328V13.9563C29.7524 13.3508 29.2619 12.8602 28.6563 12.8602ZM27.5603 17.5366H25.0759V15.0522H27.5603V17.5366Z" fill="#0071B3"/>
<path d="M9.95076 22.2129H5.2743C4.66891 22.2129 4.17822 22.7034 4.17822 23.309V27.9854C4.17822 28.5908 4.66877 29.0815 5.2743 29.0815H9.95076C10.5562 29.0815 11.0468 28.591 11.0468 27.9854V23.309C11.0467 22.7034 10.5562 22.2129 9.95076 22.2129ZM8.85469 26.8892H6.37037V24.4049H8.85469V26.8892Z" fill="#0071B3"/>
<path d="M19.3033 22.2129H14.6268C14.0214 22.2129 13.5308 22.7034 13.5308 23.309V27.9854C13.5308 28.5908 14.0213 29.0815 14.6268 29.0815H19.3033C19.9087 29.0815 20.3994 28.591 20.3994 27.9854V23.309C20.3994 22.7034 19.9087 22.2129 19.3033 22.2129ZM18.2072 26.8892H15.7229V24.4049H18.2072V26.8892Z" fill="#0071B3"/>
<path d="M9.95076 31.5658H5.2743C4.66891 31.5658 4.17822 32.0563 4.17822 32.6619V37.3383C4.17822 37.9437 4.66877 38.4344 5.2743 38.4344H9.95076C10.5562 38.4344 11.0468 37.9439 11.0468 37.3383V32.6619C11.0467 32.0563 10.5562 31.5658 9.95076 31.5658ZM8.85469 36.2423H6.37037V33.7579H8.85469V36.2423Z" fill="#0071B3"/>
<path d="M19.3033 31.5658H14.6268C14.0214 31.5658 13.5308 32.0563 13.5308 32.6619V37.3383C13.5308 37.9437 14.0213 38.4344 14.6268 38.4344H19.3033C19.9087 38.4344 20.3994 37.9439 20.3994 37.3383V32.6619C20.3994 32.0563 19.9087 31.5658 19.3033 31.5658ZM18.2072 36.2423H15.7229V33.7579H18.2072V36.2423Z" fill="#0071B3"/>
<path d="M28.6563 22.2129H23.9799C23.3745 22.2129 22.8838 22.7034 22.8838 23.309V37.3382C22.8838 37.9436 23.3743 38.4343 23.9799 38.4343H28.6563C29.2617 38.4343 29.7524 37.9437 29.7524 37.3382V23.309C29.7524 22.7034 29.2619 22.2129 28.6563 22.2129ZM27.5603 36.2421H25.0759V24.405H27.5603V36.2421Z" fill="#0071B3"/>
<path d="M65.6529 25.8454L59.6827 20.1761C59.244 19.7591 58.5502 19.7773 58.1333 20.2162C57.7163 20.655 57.7344 21.3487 58.1733 21.7656L63.3277 26.6604L62.418 27.5701L46.6599 11.8114C46.5068 11.6584 46.312 11.5541 46.0998 11.5117L42.0384 10.6994L40.0832 8.54352C39.6765 8.09495 38.983 8.06104 38.535 8.46778C38.0867 8.87438 38.0528 9.56741 38.4593 10.016C38.4593 10.016 40.713 12.482 40.7879 12.5313L41.5032 16.108C41.5456 16.3202 41.6499 16.5151 41.8029 16.6682L59.2667 34.1321C59.9077 34.773 60.7496 35.0934 61.5917 35.0934C62.4337 35.0934 63.2757 34.773 63.9166 34.1321C63.9166 34.1321 63.9166 34.1321 63.9167 34.1321L64.1233 33.9254C65.4051 32.6434 65.4051 30.5573 64.1233 29.2754L63.9683 29.1204L65.6733 27.4154C66.103 26.9855 66.0937 26.2638 65.6529 25.8454ZM43.5876 15.3531L43.1486 13.1571L45.3444 13.5962L55.9082 24.1602L54.1516 25.9168L43.5876 15.3531ZM62.5735 32.3753L62.367 32.5818C61.9394 33.0089 61.2442 33.0094 60.8169 32.5818L55.702 27.4668L57.4584 25.7102L62.5735 30.8253C63.0009 31.2525 63.0007 31.9479 62.5735 32.3753Z" fill="#0071B3"/>
</svg>
