<svg width="71" height="70" viewBox="0 0 71 70" fill="none" xmlns="http://www.w3.org/2000/svg">
<path d="M68.2056 60.274V24.0548H66.1508V60.274H44.37V61.3014C44.37 61.7923 43.9706 62.1918 43.4796 62.1918H27.8632C27.3722 62.1918 26.9728 61.7923 26.9728 61.3014V60.274H10.0707V62.3288H25.1029C25.5207 63.4477 26.6004 64.2466 27.8632 64.2466H43.4796C44.7423 64.2466 45.8222 63.4477 46.2399 62.3288H68.6166V64.863C68.6166 66.5626 67.234 67.9452 65.5344 67.9452H5.80837C4.10878 67.9452 2.72618 66.5626 2.72618 64.863V62.3288H10.0159V60.274H5.19193V47.8707H3.13714V60.274H0.671387V64.863C0.671387 67.6956 2.97577 70 5.80837 70H65.5344C68.367 70 70.6714 67.6956 70.6714 64.863V60.274H68.2056Z" fill="#0071B3"/>
<path d="M5.192 21.5753C5.192 19.8758 6.5746 18.4931 8.27419 18.4931H14.3016V16.4384H8.27419C5.44159 16.4384 3.13721 18.7427 3.13721 21.5753V48.8159H5.192V21.5753Z" fill="#0071B3"/>
<path d="M66.1511 21.5753V25H68.2059V21.5753C68.2059 18.7427 65.9015 16.4384 63.0689 16.4384H57.0415V18.4931H63.0689C64.7685 18.4931 66.1511 19.8757 66.1511 21.5753Z" fill="#0071B3"/>
<path d="M60.6715 54.7947H10.6715V23.9728H14.3016V21.918H8.6167V56.8495H62.7263V21.918H57.0414V23.9728H60.6715V54.7947Z" fill="#0071B3"/>
<path d="M40.1099 46.5755H18.8907V22.1234H16.8359V48.6303H40.1099V46.5755Z" fill="#0071B3"/>
<path d="M39.2329 48.6301H54.5069V32.5486H52.4521V46.5753H39.2329V48.6301Z" fill="#0071B3"/>
<path d="M52.4519 33.4938H54.5067V0H46.2197V2.05479H52.4519V33.4938Z" fill="#0071B3"/>
<path d="M18.8907 11.6438H28.4798V2.05479H44.1654V0H27.0269L16.8359 10.191V20.0685H18.8907V11.6438ZM26.425 3.50767V9.58904H20.3436L26.425 3.50767Z" fill="#0071B3"/>
<path d="M43.8223 18.1276C41.6317 16.0928 38.7383 14.9314 35.6716 14.9314C31.5902 14.9314 27.8269 16.9791 25.605 20.4089L27.3295 21.5261C29.1711 18.6835 32.2896 16.9862 35.6716 16.9862C38.325 16.9862 40.8218 18.0356 42.6625 19.8629H39.3702V21.9177H45.8771V15.4108H43.8223V18.1276Z" fill="#0071B3"/>
<path d="M27.5211 35.707C29.7123 37.7424 32.6059 38.904 35.6718 38.904C39.753 38.904 43.5162 36.8565 45.7382 33.4268L44.0137 32.3095C42.1721 35.1521 39.0536 36.8492 35.6718 36.8492C33.0196 36.8492 30.5229 35.7998 28.6815 33.9725H31.9732V31.9177H25.4663V38.4246H27.5211V35.707Z" fill="#0071B3"/>
<path d="M44.873 30.6619L46.7761 31.4369C47.0584 30.7438 47.2761 30.0205 47.4232 29.2869L45.4085 28.8828C45.2869 29.4898 45.1066 30.0884 44.873 30.6619Z" fill="#0071B3"/>
<path d="M45.4512 25.1779C45.5517 25.7498 45.6028 26.3352 45.6028 26.9178L45.6021 27.0337L47.6568 27.0564C47.6573 27.0102 47.6576 26.9641 47.6576 26.9178C47.6576 26.2163 47.5961 25.5111 47.475 24.822L45.4512 25.1779Z" fill="#0071B3"/>
<path d="M23.9194 24.5489L25.9341 24.953C26.0559 24.3458 26.236 23.7473 26.4696 23.1741L24.5666 22.3989C24.2844 23.0917 24.0667 23.8151 23.9194 24.5489Z" fill="#0071B3"/>
<path d="M23.6851 26.9178C23.6851 27.6241 23.7471 28.3301 23.8696 29.016L25.8925 28.6551C25.7912 28.0878 25.74 27.5033 25.74 26.9177L25.7407 26.802L23.686 26.7793C23.6853 26.8255 23.6851 26.8716 23.6851 26.9178Z" fill="#0071B3"/>
<path d="M48.3424 9.24661H50.3972V4.10962H45.2603V6.16441H48.3424V9.24661Z" fill="#0071B3"/>
</svg>
