<svg width="51" height="70" viewBox="0 0 51 70" fill="none" xmlns="http://www.w3.org/2000/svg">
<path d="M49.896 45.9188L44.3333 39.2443V5.83333C44.3333 2.61683 41.7165 0 38.5 0H5.83333C2.61683 0 0 2.61683 0 5.83333V54.8333C0 58.0498 2.61683 60.6667 5.83333 60.6667H31.5V61.8333C31.5 62.1437 31.6225 62.44 31.8418 62.6582L36.1667 66.983V68.8333C36.1667 69.4785 36.6893 70 37.3333 70H49C49.644 70 50.1667 69.4785 50.1667 68.8333V46.6667C50.1667 46.3937 50.071 46.1288 49.896 45.9188ZM2.33333 5.83333C2.33333 3.90367 3.90367 2.33333 5.83333 2.33333H38.5C40.4297 2.33333 42 3.90367 42 5.83333V8.16667H2.33333V5.83333ZM31.5 58.3333H5.83333C3.90367 58.3333 2.33333 56.763 2.33333 54.8333V52.5H31.5V58.3333ZM31.5 41.4167V50.1667H2.33333V10.5H42V50.8503L39.6667 48.517V41.4167C39.6667 39.165 37.835 37.3333 35.5833 37.3333C33.3317 37.3333 31.5 39.165 31.5 41.4167ZM47.8333 67.6667H38.5V66.5C38.5 66.1897 38.3775 65.8933 38.1582 65.6752L33.8333 61.3503V41.4167C33.8333 40.4518 34.6185 39.6667 35.5833 39.6667C36.5482 39.6667 37.3333 40.4518 37.3333 41.4167V49C37.3333 49.3103 37.4558 49.6067 37.6752 49.8248L42.3418 54.4915C42.6755 54.8252 43.1748 54.9267 43.6135 54.7447C44.0487 54.565 44.3333 54.138 44.3333 53.6667V42.889L47.8333 47.0902V67.6667Z" fill="black"/>
<path d="M38.8918 21.0688L22.5585 15.2355C22.3042 15.1445 22.0277 15.1445 21.7733 15.2355L5.44 21.0688C4.97684 21.2333 4.6665 21.6732 4.6665 22.1667C4.6665 22.6602 4.97684 23.1 5.44117 23.2645L5.83317 23.4057V35H8.1665V24.2387L11.6665 25.4882V33.8333C11.6665 34.3198 11.9687 34.755 12.4237 34.9265L21.757 38.4265C21.8888 38.4755 22.0277 38.5 22.1665 38.5C22.3053 38.5 22.4442 38.4755 22.576 38.4265L31.9093 34.9265C32.3643 34.755 32.6665 34.3198 32.6665 33.8333V25.4882L38.8918 23.2645C39.3562 23.1 39.6665 22.6602 39.6665 22.1667C39.6665 21.6732 39.3562 21.2333 38.8918 21.0688ZM30.3332 33.0248L22.1665 36.0873L13.9998 33.0248V26.3223L21.7745 29.099C21.9005 29.1433 22.0335 29.1667 22.1665 29.1667C22.2995 29.1667 22.4325 29.1433 22.5585 29.0978L30.3332 26.3223V33.0248ZM22.1665 26.761L9.30167 22.1667L22.1665 17.5723L35.0313 22.1667L22.1665 26.761Z" fill="#FF5555"/>
<path d="M16.3333 45.5H14V47.8333H16.3333V45.5Z" fill="black"/>
<path d="M11.6668 45.5H9.3335V47.8333H11.6668V45.5Z" fill="black"/>
<path d="M6.99984 45.5H4.6665V47.8333H6.99984V45.5Z" fill="black"/>
</svg>
