<svg width="63" height="70" viewBox="0 0 63 70" fill="none" xmlns="http://www.w3.org/2000/svg">
<path d="M61.5098 67.9492H58.8438V41.5078C58.8438 39.5801 57.2715 38.0078 55.3438 38.0078H49.1367V37.6797C48.7812 37.8301 48.3984 37.9121 48.0156 37.9395C47.7012 37.9531 47.3867 37.9121 47.0859 37.8301V38.0078H46.9766C45.0488 38.0078 43.4766 39.5801 43.4766 41.5078V48.3438C43.1074 48.1797 42.7109 48.0703 42.2871 48.043L43.1211 41.2754C43.2852 39.9629 42.6152 39.0879 41.959 38.2402C41.8906 38.1445 37.8984 33.4141 37.8984 33.4141L40.3457 26.0176L47.0859 21.9297V22.3262C47.4961 21.5332 48.2344 20.9727 49.1367 20.7539V20.0977C50.2715 18.5527 50.6953 16.5293 50.1621 14.6152C50.0801 14.3145 49.8613 14.0684 49.5742 13.9453C49.4375 13.8906 49.2871 13.8633 49.1367 13.8633V13.0703C49.0684 13.084 49.0137 13.084 48.9453 13.084C48.3301 13.1113 47.7012 13.125 47.0859 13.084V14.8613L38.6641 19.4414C38.623 19.0723 38.5 18.7031 38.3359 18.3613L37.1465 16.0371C36.3262 14.4512 34.3711 13.8086 32.7852 14.6289L31.8691 15.0938C31.1035 15.4902 30.5293 16.1602 30.2559 16.9805C29.9961 17.8008 30.0645 18.6895 30.4609 19.4551L31.6504 21.7793C31.9238 22.3262 32.334 22.75 32.8125 23.0508C32.1836 23.8984 31.8828 24.9375 31.582 26.0312L31.3633 26.8105C31.2129 27.3574 31.5273 27.918 32.0742 28.082C32.1699 28.1094 32.2656 28.123 32.3477 28.123C32.7988 28.123 33.209 27.8223 33.332 27.3711L33.5508 26.5918C34.002 25.0059 34.2754 24.1582 35.1504 23.6797L36.7227 22.8184L36.9141 22.7227C36.9824 22.6953 37.0371 22.6543 37.1055 22.6133L48.3438 16.5156C48.2754 17.9238 47.5234 19.25 46.2793 20.002L38.9648 24.4453C38.9512 24.4453 38.9512 24.459 38.9375 24.459L36.668 25.8398C36.1895 26.1406 36.0254 26.7695 36.3262 27.248C36.5996 27.6992 37.1738 27.8633 37.6523 27.6445L35.9297 32.8535L34.6719 33.373L31.2402 34.7812L32.2246 31.2949C32.375 30.748 32.0605 30.1875 31.5137 30.0234C30.9668 29.873 30.4062 30.1875 30.2422 30.7344L28.6836 36.2578C28.6699 36.3262 28.6562 36.4082 28.6426 36.4766L28.2324 43.9824C28.2188 44.2695 28.2871 44.8164 28.1504 45.0898L23.6113 54.6328H20.3164C18.3887 54.6328 16.8164 56.2051 16.8164 58.1328V61.0996C16.3789 60.8945 15.8867 60.7852 15.3672 60.7852H6.98633C5.05859 60.7852 3.48633 62.3574 3.48633 64.2852V67.9492H1.02539C0.464844 67.9492 0 68.4141 0 68.9746C0 69.5352 0.464844 70 1.02539 70H61.5098C62.0703 70 62.5352 69.5352 62.5352 68.9746C62.5352 68.4141 62.084 67.9492 61.5098 67.9492ZM36.1074 20.8223L35.7793 21L35.0684 21.3555C34.4805 21.6562 33.7695 21.4238 33.4688 20.8359L32.2793 18.5117C32.1289 18.2246 32.1016 17.9102 32.2109 17.6094C32.3066 17.3086 32.5117 17.0625 32.7988 16.9121L33.7148 16.4473C33.8926 16.3652 34.0703 16.3105 34.2617 16.3105C34.6992 16.3105 35.1094 16.543 35.3281 16.9531L36.5176 19.2773C36.7773 19.8379 36.5996 20.4941 36.1074 20.8223ZM16.8164 67.9492H5.53711V64.2715C5.53711 63.4785 6.19336 62.8223 6.98633 62.8223H15.3535C16.1602 62.8223 16.8027 63.4785 16.8027 64.2715V67.9492H16.8164ZM37.3652 35.9434C37.3652 35.9434 40.2637 39.3887 40.332 39.4707C40.9336 40.25 41.1387 40.5645 41.084 41.002L40.2227 48.002H39.5117L38.9375 42.1367C38.8691 41.3848 38.4043 40.7285 37.7344 40.4004L36.709 39.7441L37.3652 35.9434ZM36.2852 41.9316C36.2852 41.9316 36.7637 42.2324 36.8184 42.2461C36.8594 42.2598 36.873 42.3008 36.8867 42.3418L37.4473 48.0156H34.0156L35.0273 46.6621C35.5195 46.0742 35.6562 45.377 35.7656 44.8301C35.7793 44.707 36.2852 41.9316 36.2852 41.9316ZM29.9961 45.9785C30.2012 45.3496 30.2969 44.7207 30.2832 44.0781L30.6523 37.2285L35.3965 35.2871L34.5352 40.0586C34.5352 40.0723 34.5352 40.0859 34.5215 40.0996L33.8105 44.0508C33.7148 44.4609 33.6328 45.0762 33.3867 45.418L26.4551 54.6328H25.8809L29.9961 45.9785ZM30.1465 67.9492H18.8672V64.2715V58.1191C18.8672 57.3125 19.5234 56.6699 20.3164 56.6699H28.6836C29.4902 56.6699 30.1328 57.3262 30.1328 58.1191V67.9492H30.1465ZM30.1465 54.9336C29.791 54.7695 29.4219 54.6738 29.0254 54.6328L30.1465 53.1426V54.9336ZM56.793 67.9492H45.5273V61.7969C45.5273 61.2363 45.0625 60.7715 44.502 60.7715C43.9414 60.7715 43.4766 61.2363 43.4766 61.7969V67.9492H32.1973V51.5156C32.1973 50.7227 32.8535 50.0664 33.6465 50.0664H42.0137C42.8203 50.0664 43.4629 50.7227 43.4629 51.5156V56.6562C43.4629 57.2168 43.9277 57.6816 44.4883 57.6816C45.0488 57.6816 45.5137 57.2168 45.5137 56.6562V41.5078C45.5137 40.7012 46.1699 40.0586 46.9629 40.0586H48.0977H48.1113H48.125H55.3438C56.1504 40.0586 56.793 40.7148 56.793 41.5078V67.9492Z" fill="black"/>
<path d="M49.1367 13.7949V11.9902H61.5098C62.125 11.9902 62.6719 11.6211 62.8906 11.0332C63.1094 10.4453 62.9453 9.81641 62.4805 9.40625L59.4863 6.76758L62.4805 4.12891C62.9453 3.71875 63.1094 3.07617 62.8906 2.50195C62.6719 1.92773 62.125 1.54492 61.5098 1.54492H49.1367V1.02539C49.1367 0.464844 48.6719 0 48.1113 0C47.5508 0 47.0859 0.464844 47.0859 1.02539V13.7949H49.1367ZM49.1367 9.93945V3.60938H59.9922L57.6543 5.67383C57.3398 5.96094 57.1484 6.35742 57.1484 6.78125C57.1484 7.20508 57.3262 7.61523 57.6543 7.88867L59.9922 9.95312L49.1367 9.93945Z" fill="#FF5555"/>
<path d="M47.0859 21.9023L49.1367 20.0977V38.0078H47.0859V21.9023Z" fill="#FF5555"/>
</svg>
