<?xml version="1.0" encoding="utf-8"?>
<!-- Generator: Adobe Illustrator 23.0.1, SVG Export Plug-In . SVG Version: 6.00 Build 0)  -->
<svg version="1.1" id="Слой_1" xmlns="http://www.w3.org/2000/svg" xmlns:xlink="http://www.w3.org/1999/xlink" x="0px" y="0px"
	 width="70px" height="70px" viewBox="0 0 70 70" style="enable-background:new 0 0 70 70;" xml:space="preserve">
<style type="text/css">
	.st0{fill:#0071B3;}
</style>
<path class="st0" d="M67.5,24.4l-22-22c-1.1-1.1-2.6-1.7-4.1-1.7c-1.6,0-3,0.6-4.1,1.7L2.5,37.3c-1.1,1.1-1.7,2.6-1.7,4.1
	s0.6,3,1.7,4.1l21.7,21.7h-3.6c-0.6,0-1,0.5-1,1s0.5,1,1,1h8.1l20.8,0c0.6,0,1-0.5,1-1s-0.5-1-1-1l-16.4,0l34.5-34.5
	c1.1-1.1,1.7-2.6,1.7-4.1C69.2,27,68.6,25.5,67.5,24.4z M66.1,31.3L31.3,66.1c-0.7,0.7-1.7,1.1-2.7,1.1c-1,0-2-0.4-2.7-1.1L7.3,47.6
	l33.8-33.8c0.2-0.2,0.3-0.4,0.3-0.7c0-0.3-0.1-0.5-0.3-0.7c-0.4-0.4-1-0.4-1.4,0L5.9,46.1l-2-2c-0.7-0.7-1.1-1.7-1.1-2.7
	c0-1,0.4-2,1.1-2.7L38.7,3.9c1.4-1.4,4-1.4,5.4,0l8.1,8.1L18.5,45.8c-0.4,0.4-0.4,1,0,1.4c0.4,0.4,1,0.4,1.4,0l33.8-33.8l12.4,12.4
	c0.7,0.7,1.1,1.7,1.1,2.7C67.2,29.6,66.8,30.6,66.1,31.3z"/>
<path class="st0" d="M24.2,55.2l11.4-11.4c0.2-0.2,0.3-0.4,0.3-0.7c0-0.3-0.1-0.5-0.3-0.7v0c-0.2-0.2-0.4-0.3-0.7-0.3
	c-0.3,0-0.5,0.1-0.7,0.3L22.8,53.7c-0.4,0.4-0.4,1,0,1.4C23.2,55.5,23.9,55.5,24.2,55.2z"/>
<path class="st0" d="M33,54.6c0.4-0.4,0.4-1,0-1.4c-0.2-0.2-0.5-0.3-0.7-0.3s-0.5,0.1-0.7,0.3l-4.7,4.7c-0.4,0.4-0.4,1,0,1.4
	c0.4,0.4,1,0.4,1.4,0L33,54.6z"/>
<path class="st0" d="M37.3,48.9c-0.2-0.2-0.4-0.3-0.7-0.3s-0.5,0.1-0.7,0.3v0l-0.6,0.6c-0.4,0.4-0.4,1,0,1.4c0.4,0.4,1,0.4,1.4,0
	l0.6-0.6C37.7,49.9,37.7,49.3,37.3,48.9z"/>
<path class="st0" d="M59.2,28.3c0.4-0.4,0.4-1,0-1.4l-4.1-4.1c-0.2-0.2-0.4-0.3-0.7-0.3c-0.3,0-0.5,0.1-0.7,0.3l-6.1,6.1
	c-0.2,0.2-0.3,0.4-0.3,0.7c0,0.3,0.1,0.5,0.3,0.7l4.1,4.1c0.4,0.4,1,0.4,1.4,0L59.2,28.3z M49.7,29.7l4.7-4.7l2.7,2.7l-4.7,4.7
	L49.7,29.7z"/>
<path class="st0" d="M45,8.4c-0.2-0.2-0.4-0.3-0.7-0.3s-0.5,0.1-0.7,0.3L43,9c-0.2,0.2-0.3,0.4-0.3,0.7c0,0.3,0.1,0.5,0.3,0.7
	c0.4,0.4,1,0.4,1.4,0L45,9.8C45.4,9.4,45.4,8.8,45,8.4z"/>
<path class="st0" d="M16.6,49.1c-0.2-0.2-0.5-0.3-0.7-0.3s-0.5,0.1-0.7,0.3l-0.6,0.6c-0.4,0.4-0.4,1,0,1.4c0.4,0.4,1,0.4,1.4,0
	l0.6-0.6C17,50.2,17,49.5,16.6,49.1z"/>
</svg>
