<?xml version="1.0" encoding="utf-8"?>
<!-- Generator: Adobe Illustrator 23.0.1, SVG Export Plug-In . SVG Version: 6.00 Build 0)  -->
<svg version="1.1" id="Слой_1" xmlns="http://www.w3.org/2000/svg" xmlns:xlink="http://www.w3.org/1999/xlink" x="0px" y="0px"
	 width="70px" height="70px" viewBox="0 0 70 70" style="enable-background:new 0 0 70 70;" xml:space="preserve">
<style type="text/css">
	.st0{fill:#0071B3;}
</style>
<path class="st0" d="M48,61.5l-1.2,4.7c-0.1,0.3,0,0.5,0.1,0.8c0.1,0.2,0.4,0.4,0.6,0.5c0.1,0,0.2,0,0.2,0c0.5,0,0.9-0.3,1-0.8
	l1.2-4.7c0.1-0.5-0.2-1.1-0.7-1.2c-0.1,0-0.2,0-0.2,0c-0.2,0-0.4,0-0.5,0.1C48.2,61,48.1,61.2,48,61.5z"/>
<path class="st0" d="M1.2,19.8c-0.6,0-1,0.5-1,1V22c0,0.4,0.2,0.8,0.6,0.9l33.8,14c0.2,0.1,0.5,0.1,0.8,0l12.8-5.3
	c0.5-0.2,0.8-0.8,0.5-1.3c-0.2-0.5-0.8-0.8-1.3-0.6L35,34.9h-0.1L2.2,21.4v-0.5C2.2,20.3,1.7,19.8,1.2,19.8z"/>
<path class="st0" d="M12.8,31.5c-0.6,0-1,0.5-1,1v8.2c0,0.1,0,0.3,0.1,0.4C12.1,41.6,17,53.4,35,53.4c6.3,0,10.7-1.5,13.3-2.8
	c0.2-0.1,0.4-0.3,0.5-0.6c0.1-0.3,0.1-0.5-0.1-0.8c-0.2-0.5-0.9-0.7-1.4-0.5c-2.2,1.1-5.9,2.4-11.2,2.6h-0.2V40.7c0-0.6-0.5-1-1-1
	s-1,0.5-1,1v10.6h-0.2c-14.5-0.5-19.2-9.1-20-10.8v-0.1v-7.9C13.9,32,13.4,31.5,12.8,31.5z"/>
<path class="st0" d="M52.5,61.9c-0.6,0-1,0.5-1,1v3.5c0,0.6,0.5,1,1,1s1-0.5,1-1v-3.5C53.5,62.3,53.1,61.9,52.5,61.9z"/>
<path class="st0" d="M69.8,22v-1.2c0-0.6-0.5-1-1-1s-1,0.5-1,1v0.5h-0.1l-14.2,5.9v-2.4h0.1l15.6-6.5c0.4-0.2,0.6-0.5,0.6-0.9
	c0-0.4-0.2-0.8-0.6-0.9l-33.8-14c-0.3-0.1-0.5-0.1-0.8,0l-33.8,14c-0.4,0.2-0.6,0.5-0.6,0.9c0,0.4,0.2,0.8,0.6,0.9l33.8,14
	c0.2,0.1,0.5,0.1,0.8,0l12.2-5.1c0.3-0.1,0.4-0.3,0.5-0.5c0.1-0.3,0.1-0.5,0-0.8c-0.2-0.5-0.8-0.8-1.3-0.5L35,30.3h-0.1L3.8,17.4
	L35,4.5h0.1l31.1,12.9l-13.8,5.7h-0.1l-13-4.8v-0.1c0.1-0.2,0.1-0.5,0.1-0.7c0-1.9-2-3.4-4.5-3.4s-4.5,1.5-4.5,3.4s2,3.4,4.5,3.4
	c1.1,0,2.1-0.3,2.9-0.8h0.1H38l13.4,5v29h-0.1c-1.3,0.5-2.2,1.7-2.2,3.1c0,1.8,1.5,3.3,3.3,3.3c1.8,0,3.3-1.5,3.3-3.3
	c0-1.4-0.9-2.7-2.2-3.1h-0.1v-6.8h0.1c3.3-2.5,4.5-5.8,4.6-6c0-0.1,0.1-0.2,0.1-0.3v-8.2c0-0.6-0.5-1-1-1s-1,0.5-1,1v8
	c-0.2,0.4-0.9,2-2.4,3.6l-0.3,0.3V29.4h0.1L69.2,23C69.6,22.8,69.8,22.4,69.8,22z M35,18.7c-1.4,0-2.5-0.7-2.5-1.3
	c0-0.6,1.1-1.3,2.5-1.3s2.5,0.7,2.5,1.3C37.5,18,36.4,18.7,35,18.7z M53.8,57c0,0.7-0.6,1.3-1.3,1.3s-1.3-0.6-1.3-1.3
	c0-0.7,0.6-1.3,1.3-1.3S53.8,56.3,53.8,57z"/>
<path class="st0" d="M55.1,61.2C55,61.4,54.9,61.7,55,62l1.2,4.7c0.1,0.5,0.5,0.8,1,0.8c0.1,0,0.2,0,0.2,0c0.3-0.1,0.5-0.2,0.6-0.5
	c0.1-0.3,0.2-0.5,0.1-0.8L57,61.5c-0.1-0.3-0.2-0.5-0.5-0.6c-0.2-0.1-0.3-0.1-0.5-0.1c-0.1,0-0.2,0-0.2,0
	C55.5,60.8,55.3,60.9,55.1,61.2z"/>
</svg>
