<svg id="ember.svg" xmlns="http://www.w3.org/2000/svg" width="80" height="55" viewBox="0 0 80 55">
  <defs>
    <style>
      .cls-1 {
        fill: #3f597e;
        fill-opacity: 0;
      }

      .cls-2 {
        fill: #fff;
        fill-rule: evenodd;
      }
    </style>
  </defs>
  <rect id="Прямоугольник_1_копия_60" data-name="Прямоугольник 1 копия 60" class="cls-1" width="80" height="55"/>
  <path id="Фигура_31" data-name="Фигура 31" class="cls-2" d="M9139.18,56.305a7.676,7.676,0,0,0,1.3-.587c0.73-.39,1.43-0.824,2.13-1.275a0.244,0.244,0,0,0,.11-0.192,9.972,9.972,0,0,1,1.54-4.638,8.366,8.366,0,0,1,2.54-2.584,3.944,3.944,0,0,1,1.36-.5,4.112,4.112,0,0,1,1.89-.03,2.43,2.43,0,0,1,1.84,1.807,5.188,5.188,0,0,1-.95,4.878,8.412,8.412,0,0,1-2.79,2.183,10.028,10.028,0,0,1-1.69.706c-0.1.03-.11,0.062-0.06,0.15a1.984,1.984,0,0,0,1.42.912,4.367,4.367,0,0,0,2.3-.295,12.7,12.7,0,0,0,3.09-1.764,2.81,2.81,0,0,0,.51-0.4,1.108,1.108,0,0,0,.1-0.6,30.211,30.211,0,0,1,.66-3.4c0.24-1,.53-1.986.8-2.98a1.157,1.157,0,0,1,1.13-.92,2.115,2.115,0,0,1,.77.039,0.4,0.4,0,0,1,.33.39,7.588,7.588,0,0,1,.06.952q0.015,1.39-.06,2.778c0,0.045-.05.127,0.03,0.14a0.138,0.138,0,0,0,.15-0.114,10.2,10.2,0,0,1,1.88-3.2,2.582,2.582,0,0,1,1.63-.937,0.669,0.669,0,0,1,.83.5,3.974,3.974,0,0,1,.2,1.325,19.15,19.15,0,0,1-.09,2,5.376,5.376,0,0,0,.15,2.073,1.846,1.846,0,0,0,.26.553,0.94,0.94,0,0,0,.73.383,4,4,0,0,0,1.86-.433,7.223,7.223,0,0,0,1.18-.695,0.773,0.773,0,0,1,1.17.358,1.676,1.676,0,0,1-.62,1.959q-0.33.23-.69,0.434a8.271,8.271,0,0,1-2.62,1.033,3.7,3.7,0,0,1-1.64-.025,2.517,2.517,0,0,1-1.57-1.351,6.724,6.724,0,0,1-.7-2.135,10.44,10.44,0,0,1-.14-1.114c0-.049.03-0.12-0.07-0.123a0.135,0.135,0,0,0-.17.1c-0.1.293-.21,0.581-0.31,0.87-0.63,1.731-1.26,3.461-1.87,5.2a10.06,10.06,0,0,1-.76,1.759,2.717,2.717,0,0,1-.64.758,0.889,0.889,0,0,1-1,.1,2.153,2.153,0,0,1-1.14-1.517,4.328,4.328,0,0,1-.08-0.549,6.946,6.946,0,0,1-.7.613,7.434,7.434,0,0,1-3.61,1.458,6.839,6.839,0,0,1-2.94-.2,5.117,5.117,0,0,1-3.12-2.651c-0.05-.087-0.07-0.117-0.17-0.053a15.368,15.368,0,0,1-3.06,1.412,35.723,35.723,0,0,1-5.44,1.445,5.126,5.126,0,0,1-1.92-.072,7.007,7.007,0,0,1-2.86-1.263,0.111,0.111,0,0,0-.16,0,10.808,10.808,0,0,1-2.46,1.246,3.225,3.225,0,0,1-1.5.124,1.785,1.785,0,0,1-1.48-1.374,9.053,9.053,0,0,1-.32-2.315,30.707,30.707,0,0,1,.1-3.323c0.02-.266.05-0.531,0.07-0.8,0-.044.05-0.118-0.04-0.138a0.132,0.132,0,0,0-.16.089c-0.3.638-.59,1.283-0.86,1.933a35.907,35.907,0,0,0-1.38,3.9,4.547,4.547,0,0,1-.67,1.385,1.152,1.152,0,0,1-1.17.55,2.373,2.373,0,0,1-1.15-.407,1.74,1.74,0,0,1-.63-1.38,14.75,14.75,0,0,1,.09-2.1c0.14-1.252.33-2.494,0.55-3.733a0.422,0.422,0,0,0,.02-0.11c0.01-.04.04-0.1,0-0.117a0.121,0.121,0,0,0-.15.039,1.2,1.2,0,0,0-.15.22,21.8,21.8,0,0,0-1.09,2.136c-0.41.892-.76,1.81-1.18,2.7a12.612,12.612,0,0,1-1.13,2.065c-0.08.114-.17,0.223-0.26,0.328a1.354,1.354,0,0,1-1.34.455,1.639,1.639,0,0,1-1.43-1.444c-0.03-.123-0.04-0.248-0.06-0.375a0.089,0.089,0,0,0-.09.025c-0.5.277-.99,0.563-1.49,0.832a7.648,7.648,0,0,1-1.59.56,9.125,9.125,0,0,1-2.81.358,3.862,3.862,0,0,1-2.68-1.144,5.729,5.729,0,0,1-1.58-2.78,0.137,0.137,0,0,0-.14-0.133,14.194,14.194,0,0,1-2.74-.577c-0.08-.029-0.17-0.057-0.25-0.092a0.742,0.742,0,0,1-.47-0.9,2.573,2.573,0,0,1,.58-1.138,0.6,0.6,0,0,1,.72-0.14,0.779,0.779,0,0,1,.22.125,2.083,2.083,0,0,0,1.46.453c0.19,0,.37-0.023.55-0.035a0.13,0.13,0,0,0,.14-0.144,10.641,10.641,0,0,1,1.15-3.933,6.376,6.376,0,0,1,1.83-2.186,4.318,4.318,0,0,1,3.06-.8,3.655,3.655,0,0,1,2.19.951,2.916,2.916,0,0,1,.88,1.765,4.248,4.248,0,0,1-.96,3.322,9.237,9.237,0,0,1-2.69,2.2,12.7,12.7,0,0,1-1.93.907,0.156,0.156,0,0,0-.12.173,1.131,1.131,0,0,0,.89,1.032,3.53,3.53,0,0,0,1.94-.045,12.429,12.429,0,0,0,2.95-1.341c0.35-.2.68-0.424,1.02-0.646a0.246,0.246,0,0,0,.12-0.2,62.684,62.684,0,0,1,1.46-7.053c0.02-.086.05-0.17,0.07-0.257a1.121,1.121,0,0,1,1.02-.888,4.388,4.388,0,0,1,.88-0.032,0.9,0.9,0,0,1,.91.916,7.594,7.594,0,0,1-.1,1.58c-0.15,1.15-.36,2.29-0.6,3.425-0.02.1-.02,0.1,0.12,0.241,0.25-.554.55-1.079,0.85-1.6,0.47-.806.93-1.616,1.42-2.408a4.433,4.433,0,0,1,1.82-1.726,2.543,2.543,0,0,1,1.19-.273,0.715,0.715,0,0,1,.7.468,2.644,2.644,0,0,1,.16,1.213,12.782,12.782,0,0,1-.49,2.812c-0.11.4-.23,0.792-0.35,1.182a0.221,0.221,0,0,0,.1.307c0.03-.052.06-0.1,0.09-0.16a28.438,28.438,0,0,1,1.68-2.8c0.43-.693.86-1.394,1.34-2.055a2.422,2.422,0,0,1,1.64-1.054,1.331,1.331,0,0,1,1.47,1.154,6.312,6.312,0,0,1-.04,1.566c-0.13,1.082-.3,2.158-0.46,3.235-0.1.591-.22,1.178-0.27,1.775a6.4,6.4,0,0,0,.06,2.094,0.448,0.448,0,0,0,.04.107,0.57,0.57,0,0,0,.79.432,3.851,3.851,0,0,0,1.45-.733c0.12-.089.23-0.194,0.35-0.282a0.39,0.39,0,0,0,.16-0.3c0.14-1.17.3-2.339,0.44-3.508,0.13-1.04.25-2.081,0.38-3.121,0.13-1.1.26-2.193,0.38-3.289,0.09-.79.16-1.582,0.28-2.368a21.31,21.31,0,0,1,1.82-5.83c0.19-.414.42-0.813,0.63-1.219a4.74,4.74,0,0,1,1.94-1.936,4.816,4.816,0,0,1,1.41-.6,1.846,1.846,0,0,1,1.96.734,4.822,4.822,0,0,1,.79,1.813,8.181,8.181,0,0,1,.07,3.342,15.275,15.275,0,0,1-1.88,4.958,25.257,25.257,0,0,1-1.89,2.882,0.741,0.741,0,0,0-.08.114,0.058,0.058,0,0,0-.02.033,0.127,0.127,0,0,0-.02.028c0.02,0.009.03,0,.03-0.014l0.03-.026a3.979,3.979,0,0,1,.76-0.475,1.992,1.992,0,0,1,1.95.13,4.381,4.381,0,0,1,2.15,3.329,7.611,7.611,0,0,1-.38,3.246,11.237,11.237,0,0,1-.87,2.076,0.535,0.535,0,0,0-.05.113c-0.01.009-.01,0.017-0.02,0.026A0.309,0.309,0,0,0,9139.18,56.305Zm-1.87-3.434c0-.126.01-0.253,0-0.379a3.532,3.532,0,0,0-.51-1.614,1.237,1.237,0,0,0-.42-0.463,2.2,2.2,0,0,0-2.49.285,3.485,3.485,0,0,0-.94,1.464,17.377,17.377,0,0,0-.89,3.9,6.351,6.351,0,0,0-.01,1.233,0.281,0.281,0,0,0,.23.283,4.9,4.9,0,0,0,1.14.212,3,3,0,0,0,2.75-1.27A6.6,6.6,0,0,0,9137.31,52.871Zm-4.75-4.939c0.02-.038.05-0.076,0.07-0.115,0.95-1.575,1.84-3.18,2.63-4.837a21.608,21.608,0,0,0,1.41-3.55,4.844,4.844,0,0,0,.24-1.6,1.787,1.787,0,0,0-.21-0.848,0.292,0.292,0,0,0-.46-0.113,1.13,1.13,0,0,0-.34.328,10.821,10.821,0,0,0-1.6,3.2,63.867,63.867,0,0,0-1.59,6.258A6.844,6.844,0,0,0,9132.56,47.932Zm13.43,5.417v0.224c0.01,0.225.01,0.228,0.23,0.214a3.594,3.594,0,0,0,3.14-2.512,1.937,1.937,0,0,0-.31-1.783,0.855,0.855,0,0,0-1.18-.205,2.2,2.2,0,0,0-.59.572,7.012,7.012,0,0,0-.78,1.422A5.3,5.3,0,0,0,9145.99,53.349Zm-37.8-2.7a1.578,1.578,0,0,0-.33-0.983,0.741,0.741,0,0,0-.74-0.294,1.949,1.949,0,0,0-1.14.658,5.51,5.51,0,0,0-1.37,3.674,0.079,0.079,0,0,0,.09.1,1.067,1.067,0,0,0,.35-0.027,4.683,4.683,0,0,0,2.57-1.623A2.447,2.447,0,0,0,9108.19,50.648Zm49.84,8.061a0.771,0.771,0,1,1-.01,1.541,0.771,0.771,0,0,1-.79-0.777A0.763,0.763,0,0,1,9158.03,58.709Zm0.58,0.768a0.59,0.59,0,1,0-.59.607A0.6,0.6,0,0,0,9158.61,59.477Zm-0.88.017v-0.21c0-.19,0-0.193.19-0.2a1.761,1.761,0,0,1,.26.015,0.2,0.2,0,0,1,.17.134,0.181,0.181,0,0,1-.07.212c-0.02.02-.07,0.035-0.02,0.081a0.422,0.422,0,0,1,.1.242c0,0.036.07,0.094-.02,0.11-0.06.011-.14,0.034-0.17-0.065-0.01-.045-0.03-0.09-0.04-0.135a0.138,0.138,0,0,0-.18-0.108c-0.09.011-.03,0.091-0.05,0.136s0.07,0.172-.08.177c-0.06,0-.1-0.013-0.09-0.084V59.493Zm0.18-.165c0,0.06-.01.123,0.08,0.11,0.07-.01.16-0.008,0.17-0.108s-0.09-.108-0.16-0.115C9157.91,59.208,9157.9,59.266,9157.91,59.328Z" transform="translate(-9097 -25)"/>
</svg>
