<svg id="Слой_1" data-name="Слой 1" xmlns="http://www.w3.org/2000/svg" viewBox="0 0 58.82 69.71"><defs><style>.cls-1{fill:#0071b3;}</style></defs><title>estimation</title><path class="cls-1" d="M10.86,37.32H30.47a1.09,1.09,0,0,0,1.09-1.09V31.87a1.09,1.09,0,0,0-1.09-1.09H10.86a1.09,1.09,0,0,0-1.09,1.09v4.36A1.09,1.09,0,0,0,10.86,37.32ZM12,33H29.38v2.18H12Z" transform="translate(-5.41 -0.29)"/><path class="cls-1" d="M28.29,39.5a3.27,3.27,0,1,0,3.27,3.26A3.27,3.27,0,0,0,28.29,39.5Zm0,4.35a1.09,1.09,0,1,1,1.09-1.09A1.09,1.09,0,0,1,28.29,43.85Z" transform="translate(-5.41 -0.29)"/><path class="cls-1" d="M20.66,39.5a3.27,3.27,0,1,0,3.27,3.26A3.27,3.27,0,0,0,20.66,39.5Zm0,4.35a1.09,1.09,0,1,1,1.09-1.09A1.09,1.09,0,0,1,20.66,43.85Z" transform="translate(-5.41 -0.29)"/><path class="cls-1" d="M13,46a3.27,3.27,0,1,0-3.26-3.27A3.26,3.26,0,0,0,13,46Zm0-4.36A1.09,1.09,0,1,1,12,42.76,1.09,1.09,0,0,1,13,41.67Z" transform="translate(-5.41 -0.29)"/><path class="cls-1" d="M28.29,47.12a3.27,3.27,0,1,0,3.27,3.27A3.28,3.28,0,0,0,28.29,47.12Zm0,4.36a1.09,1.09,0,1,1,1.09-1.09A1.09,1.09,0,0,1,28.29,51.48Z" transform="translate(-5.41 -0.29)"/><path class="cls-1" d="M20.66,47.12a3.27,3.27,0,1,0,3.27,3.27A3.28,3.28,0,0,0,20.66,47.12Zm0,4.36a1.09,1.09,0,1,1,1.09-1.09A1.09,1.09,0,0,1,20.66,51.48Z" transform="translate(-5.41 -0.29)"/><path class="cls-1" d="M13,53.66a3.27,3.27,0,1,0-3.26-3.27A3.27,3.27,0,0,0,13,53.66Zm0-4.36A1.09,1.09,0,1,1,12,50.39,1.09,1.09,0,0,1,13,49.3Z" transform="translate(-5.41 -0.29)"/><path class="cls-1" d="M28.29,54.75A3.27,3.27,0,1,0,31.56,58,3.27,3.27,0,0,0,28.29,54.75Zm0,4.36A1.09,1.09,0,1,1,29.38,58,1.09,1.09,0,0,1,28.29,59.11Z" transform="translate(-5.41 -0.29)"/><path class="cls-1" d="M20.66,54.75A3.27,3.27,0,1,0,23.93,58,3.27,3.27,0,0,0,20.66,54.75Zm0,4.36A1.09,1.09,0,1,1,21.75,58,1.09,1.09,0,0,1,20.66,59.11Z" transform="translate(-5.41 -0.29)"/><path class="cls-1" d="M13,61.28A3.27,3.27,0,1,0,9.77,58,3.26,3.26,0,0,0,13,61.28Zm0-4.35A1.09,1.09,0,1,1,12,58,1.08,1.08,0,0,1,13,56.93Z" transform="translate(-5.41 -0.29)"/><path class="cls-1" d="M45.7,16.64h-.08a8.72,8.72,0,0,0-4.28-6.43V9.75a.76.76,0,0,0,0-.16,2,2,0,0,0,0-.24,1.74,1.74,0,0,0-.11-.18A.67.67,0,0,0,41,9a1,1,0,0,0-.2-.16.54.54,0,0,0-.12-.09h0a8.76,8.76,0,0,0-7.36,0h0l0,0a.43.43,0,0,0-.13.09,1.49,1.49,0,0,0-.2.15c0,.05-.07.11-.11.17a1.08,1.08,0,0,0-.11.18,1.55,1.55,0,0,0-.05.23,1.1,1.1,0,0,0,0,.16v.46a8.76,8.76,0,0,0-4.28,6.44h-.08a1.09,1.09,0,0,0-1.09,1.09V21a1.09,1.09,0,0,0,1.09,1.09H45.7A1.09,1.09,0,0,0,46.79,21V17.73a1.09,1.09,0,0,0-1.09-1.09ZM32.63,12.86v.51a1.09,1.09,0,1,0,2.18,0v-2.9a6.59,6.59,0,0,1,4.36,0v2.89a1.09,1.09,0,1,0,2.17,0v-.51a6.63,6.63,0,0,1,2.08,3.78H30.55A6.6,6.6,0,0,1,32.63,12.86Zm12,7.05H29.36V18.82H44.61Z" transform="translate(-5.41 -0.29)"/><path class="cls-1" d="M52.25,30.8h3.27a1.09,1.09,0,0,0,0-2.18H52.25a1.09,1.09,0,0,0,0,2.18Z" transform="translate(-5.41 -0.29)"/><path class="cls-1" d="M55.52,34.06H51.16a1.09,1.09,0,1,0,0,2.18h4.36a1.09,1.09,0,1,0,0-2.18Z" transform="translate(-5.41 -0.29)"/><path class="cls-1" d="M55.52,39.51H52.25a1.09,1.09,0,0,0,0,2.18h3.27a1.09,1.09,0,0,0,0-2.18Z" transform="translate(-5.41 -0.29)"/><path class="cls-1" d="M55.52,45H53.34a1.09,1.09,0,0,0,0,2.18h2.18a1.09,1.09,0,1,0,0-2.18Z" transform="translate(-5.41 -0.29)"/><path class="cls-1" d="M55.52,50.41H52.25a1.09,1.09,0,1,0,0,2.17h3.27a1.09,1.09,0,1,0,0-2.17Z" transform="translate(-5.41 -0.29)"/><path class="cls-1" d="M55.52,55.85H51.16a1.09,1.09,0,1,0,0,2.18h4.36a1.09,1.09,0,0,0,0-2.18Z" transform="translate(-5.41 -0.29)"/><path class="cls-1" d="M64.23,9a1.1,1.1,0,0,0-.08-.4,1.13,1.13,0,0,0-.24-.36L56.29.61a1,1,0,0,0-.36-.23,1,1,0,0,0-.41-.09H20.66a1.09,1.09,0,0,0-1.09,1.09v25H8.68a3.28,3.28,0,0,0-3.27,3.27v37A3.28,3.28,0,0,0,8.68,70h24a3.27,3.27,0,0,0,3.27-3.27V65.64H63.14a1.09,1.09,0,0,0,1.09-1.09V9h0ZM56.61,4l3.9,3.91h-3.9Zm-49,25.68A1.09,1.09,0,0,1,8.68,28.6h24a1.09,1.09,0,0,1,1.09,1.09V62.37a1.08,1.08,0,0,1-1.09,1.09h-24a1.09,1.09,0,0,1-1.09-1.09V29.69ZM32.64,67.82h-24a1.09,1.09,0,0,1-1.09-1.09V65.44a3.24,3.24,0,0,0,1.09.2h24a3.24,3.24,0,0,0,1.09-.2v1.29A1.09,1.09,0,0,1,32.64,67.82Zm3.27-5.45V58h9.8a1.09,1.09,0,0,0,0-2.18h-9.8V52.58h9.8a1.09,1.09,0,1,0,0-2.17h-9.8V47.14h9.8a1.09,1.09,0,0,0,0-2.18h-9.8V41.69h9.8a1.09,1.09,0,0,0,0-2.18h-9.8V36.24h9.8a1.09,1.09,0,1,0,0-2.18h-9.8V30.8h9.8a1.09,1.09,0,0,0,0-2.18h-10a3.27,3.27,0,0,0-3.08-2.2H21.75v-24H54.43V9a1.09,1.09,0,0,0,1.09,1.09h6.53V63.46H35.91Z" transform="translate(-5.41 -0.29)"/></svg>