<svg id="Слой_1" data-name="Слой 1" xmlns="http://www.w3.org/2000/svg" viewBox="0 0 68.63 69.71"><defs><style>.cls-1{fill:#0071b3;}</style></defs><title>feedback</title><path class="cls-1" d="M68.66,30.15A5,5,0,0,0,65.57,28a5,5,0,0,0-3.35-7.23,5.23,5.23,0,0,0,.48-1.34,5,5,0,0,0-3.83-5.91A5,5,0,0,0,51.64,7l-5,3.32a30.89,30.89,0,0,0-8.45-2.86A22.86,22.86,0,0,0,35,3.57l-2.07-2A4.53,4.53,0,0,0,26,7.31l.16.25A31.53,31.53,0,0,0,.87,38.47a32.8,32.8,0,0,0,.29,4.33A31.64,31.64,0,0,0,20.34,67.61,31.57,31.57,0,0,0,62.07,49.18a1.09,1.09,0,0,0-2-.74,29.42,29.42,0,0,1-36.9,17.9L32,60.5h0l7.33-4.86h0a3,3,0,0,0,.83-4.09L40,51.4l1.43-.94a4.81,4.81,0,0,1,3.44-.75,7,7,0,0,0,5-1.08l11.81-7.82a27.94,27.94,0,0,1-.4,3,1.08,1.08,0,0,0,.87,1.26.65.65,0,0,0,.2,0,1.08,1.08,0,0,0,1.06-.89,32.32,32.32,0,0,0,.52-4.93l3.33-2.2a5,5,0,0,0,1.41-7ZM44.53,11.72l-3.31,2.19-.65-1.75A21.62,21.62,0,0,0,39.64,10,28.94,28.94,0,0,1,44.53,11.72ZM10.21,19.24a29.31,29.31,0,0,1,17-9.67,13.4,13.4,0,0,1,.67,8.11L25.19,29.1a2.83,2.83,0,0,0-1.56-.87,2.91,2.91,0,0,0-2.22.43l-7.49,4.95h0L3.13,40.77C3.07,40,3,39.24,3,38.47A29.31,29.31,0,0,1,10.21,19.24ZM38.42,53.33a.74.74,0,0,1-.34.5h0L31.64,58.1,19.7,40.28a1.08,1.08,0,1,0-1.8,1.21l11.94,17.8-9.19,6.09A29.43,29.43,0,0,1,3.41,43.14L14.22,36l1.24,1.86a1.09,1.09,0,0,0,.9.48,1.09,1.09,0,0,0,.9-1.69L16,34.81l6.58-4.35a.8.8,0,0,1,.59-.11.79.79,0,0,1,.5.34L38.3,52.74A.78.78,0,0,1,38.42,53.33ZM67.27,33.5a2.8,2.8,0,0,1-1.22,1.81l-3.8,2.52h0l-13.58,9a4.84,4.84,0,0,1-3.44.74,7,7,0,0,0-5,1.08l-1.42.94-12-18.06L30,18.17A15.64,15.64,0,0,0,28.81,8a.93.93,0,0,0,0-.1,14.07,14.07,0,0,0-1-1.73,2.36,2.36,0,0,1,3.61-3l2.07,2a21.28,21.28,0,0,1,5.09,7.79l1.12,3v0l0,0,.08.13a1.08,1.08,0,0,0,1.5.31L52.84,8.82A2.86,2.86,0,0,1,56,13.59l-1,.66h0l-2.24,1.49h0l0,0a1.09,1.09,0,0,0-.26,1.47,1.07,1.07,0,0,0,1.5.3l2.24-1.48a2.85,2.85,0,0,1,4,.81,2.85,2.85,0,0,1-.8,4L56.11,23a1.08,1.08,0,0,0-.31,1.5,1.07,1.07,0,0,0,.9.49,1.08,1.08,0,0,0,.6-.18l.5-.34,1.74-1.15a2.86,2.86,0,0,1,3.16,4.77l-1.62,1.08h0l-1.59,1.06A1.08,1.08,0,1,0,60.65,32l.51-.33h0l1.73-1.14A2.78,2.78,0,0,1,65,30.13a2.84,2.84,0,0,1,1.82,1.22A2.82,2.82,0,0,1,67.27,33.5Z" transform="translate(-0.87 -0.29)"/></svg>