<svg width="70" height="70" viewBox="0 0 70 70" fill="none" xmlns="http://www.w3.org/2000/svg">
<path d="M15 40.4996C18.1 40.4996 20.7 37.9996 20.7 34.7996C20.7 31.6996 18.1 29.0996 15 29.0996C11.9 29.0996 9.30005 31.5996 9.30005 34.7996C9.30005 37.9996 11.8 40.4996 15 40.4996ZM15 31.1996C17 31.1996 18.6 32.7996 18.6 34.7996C18.6 36.7996 17 38.3996 15 38.3996C13 38.3996 11.3 36.7996 11.3 34.7996C11.3 32.7996 13 31.1996 15 31.1996Z" fill="#0071B3"/>
<path d="M38.3001 4.59961C35.2001 4.59961 32.6001 7.09961 32.6001 10.2996C32.6001 13.3996 35.2001 15.9996 38.3001 15.9996C41.4001 15.9996 44.0001 13.4996 44.0001 10.2996C44.0001 7.09961 41.4001 4.59961 38.3001 4.59961ZM38.3001 13.9996C36.3001 13.9996 34.7001 12.3996 34.7001 10.3996C34.7001 8.39961 36.3001 6.79961 38.3001 6.79961C40.3001 6.79961 42.0001 8.39961 42.0001 10.3996C42.0001 12.3996 40.3001 13.9996 38.3001 13.9996Z" fill="#0071B3"/>
<path d="M69.7 52.3V40.6C69.7 38.3 68.4 36.3 66.3 35.4H66.2V31.3C66.2 28.5 64.1 26 61.2 25.7H61.1L48.6 11.5V11.4C48.6 11 48.7 10.7 48.7 10.3C48.7 4.6 44.1 0 38.3 0C32.6 0 27.9 4.6 27.9 10.4C27.9 10.5 27.9 10.6 27.9 10.7C27.9 10.8 27.9 10.8 27.9 10.9V11L14.4 24.5H14.3C10.1 24.7 6.5 27.4 5.1 31.4C3.7 35.4 4.8 39.7 8 42.5V60.6H1C0.4 60.6 0 61.1 0 61.6V68.6C0 69.2 0.5 69.6 1 69.6H45.3C45.9 69.6 46.3 69.1 46.3 68.6V61.6C46.3 61 45.8 60.6 45.3 60.6H21.8V42.5H21.9C24.6 40.2 25.8 36.7 25.2 33.2V33.1L37.7 20.6H37.8C37.9 20.6 37.9 20.6 38 20.6C38.1 20.6 38.3 20.6 38.4 20.6C39 20.6 39.6 20.5 40.1 20.4H40.2H40.3L54.8 32V35.4H54.7C52.6 36.3 51.3 38.3 51.3 40.6V52.3C51.3 52.7 51.5 53 51.8 53.2C52.1 53.4 52.5 53.4 52.8 53.2L57.5 50.9C57.8 50.7 58.1 50.4 58.1 50V41.7H63.1V50C63.1 50.4 63.3 50.7 63.7 50.9L68.4 53.2C68.7 53.4 69.1 53.3 69.4 53.2C69.5 53 69.7 52.7 69.7 52.3ZM64.1 31.3V34.9H56.8V31.3C56.8 29.3 58.4 27.7 60.5 27.7C62.6 27.7 64.1 29.3 64.1 31.3ZM44.3 62.7V67.7H2V62.7H44.3V62.7ZM10.2 60.6V43.9L10.4 44C13.3 45.5 16.7 45.4 19.6 44L19.8 43.9V60.6H10.2ZM15 43.1C10.4 43.1 6.7 39.4 6.7 34.8C6.7 30.2 10.4 26.5 15 26.5C19.6 26.5 23.3 30.2 23.3 34.8C23.3 39.4 19.5 43.1 15 43.1ZM35 20.3L24.5 30.9L24.4 30.7C23.1 27.7 20.4 25.5 17.3 24.8L17 24.7L28.3 13.4L28.4 13.6C29.4 16.6 31.9 19.1 34.9 20.1L35.1 20.2L35 20.3ZM38.3 18.6C33.7 18.6 30 14.9 30 10.3C30 5.7 33.7 2 38.3 2C42.9 2 46.6 5.7 46.6 10.3C46.6 14.9 42.9 18.6 38.3 18.6ZM42.5 19.8L42.7 19.7C45.1 18.6 46.9 16.6 47.9 14.2L48 14L48.2 14.2L58.7 26.1L58.5 26.2C56.9 26.8 55.7 28.1 55.2 29.6L55.1 29.8L54.9 29.7L42.5 19.8ZM67.6 50.7L65 49.4V40.7C65 40.1 64.5 39.7 64 39.7H57C56.4 39.7 56 40.2 56 40.7V49.4L53.4 50.7V40.7C53.4 38.7 55 37.1 57.1 37.1H64.1C66.1 37.1 67.7 38.7 67.7 40.7V50.7H67.6Z" fill="#0071B3"/>
<path d="M13.8 48.9004C13.2 48.9004 12.8 49.4004 12.8 49.9004V56.9004C12.8 57.5004 13.3 57.9004 13.8 57.9004C14.3 57.9004 14.8 57.4004 14.8 56.9004V49.9004C14.8 49.4004 14.4 48.9004 13.8 48.9004Z" fill="#0071B3"/>
<path d="M28.5 18.8996C28.3 18.6996 28 18.5996 27.8 18.5996C27.5 18.5996 27.3 18.6996 27.1 18.8996L22.4 23.5996C22.1 23.8996 22 24.1996 22.1 24.5996C22.2 24.9996 22.5 25.1996 22.8 25.2996C23.2 25.3996 23.5 25.2996 23.8 24.9996L28.5 20.2996C28.9 19.9996 28.9 19.2996 28.5 18.8996Z" fill="#0071B3"/>
</svg>
