<svg id="html5.svg" xmlns="http://www.w3.org/2000/svg" width="26" height="55" viewBox="0 0 26 55">
  <defs>
    <style>
      .cls-1 {
        fill: #3f597e;
        fill-opacity: 0;
      }

      .cls-2 {
        fill: #fff;
        fill-rule: evenodd;
      }
    </style>
  </defs>
  <rect id="Прямоугольник_1_копия_24" data-name="Прямоугольник 1 копия 24" class="cls-1" width="26" height="55"/>
  <path id="html5.png" class="cls-2" d="M3905.37,67.028l-2.36-26.757h25.98l-2.37,26.753L3915.98,70Zm18.69-20.407-0.15,1.663-0.06.738H3916V45.741h8.14Zm-8.07,2.393v0.008h-4.59l0.29,3.36h4.3v3.282h-7.27l-0.8-9.043-0.08-.881h8.15v3.274Zm-3.86,8.291,0.23,2.617,3.62,0.987h0.01v3.414l0.01,0h0l-0.02,0-6.66-1.866-0.46-5.153h3.27Zm3.86,3.6h0l3.63-.988,0.37-4.256H3916V52.383h7.55l-0.08.881-0.76,8.639-0.05.554L3916,64.319V60.906ZM3905.42,33h1.66v1.648h1.51V33h1.65v4.99h-1.65V36.319h-1.51v1.671h-1.66V33h0Zm7,1.655h-1.46V33h4.57v1.655h-1.46v3.335h-1.65V34.655h0ZM3916.25,33h1.72l1.06,1.753L3920.09,33h1.73v4.99h-1.65V35.516l-1.14,1.774h-0.02l-1.14-1.774v2.473h-1.62V33Zm6.39,0h1.65v3.34h2.33v1.649h-3.98V33Z" transform="translate(-3903 -25)"/>
</svg>
