<svg width="70" height="71" viewBox="0 0 70 71" fill="none" xmlns="http://www.w3.org/2000/svg">
<path d="M35.0001 19.0869C25.9794 19.0869 18.6667 26.3995 18.6667 35.4202C18.6667 44.4409 25.9794 51.7535 35.0001 51.7535C44.0167 51.7439 51.3238 44.4368 51.3334 35.4202C51.3334 26.3995 44.0208 19.0869 35.0001 19.0869ZM47.1404 28.4774C48.1586 30.2466 48.7733 32.219 48.9406 34.2535H43.1388C43.0868 32.5514 42.8956 30.8565 42.5671 29.1855C44.2004 29.007 45.7404 28.769 47.1404 28.4774ZM45.6774 26.3867C44.5271 26.5944 43.2927 26.7682 41.9931 26.9035C41.533 25.2867 40.8372 23.7465 39.9281 22.3325C42.1576 23.1738 44.1362 24.5692 45.6774 26.3867ZM29.1936 34.2535C29.2465 32.6228 29.4386 30.9995 29.7676 29.4014C31.4557 29.5239 33.2139 29.5869 35.0001 29.5869C36.7862 29.5869 38.5444 29.5239 40.2326 29.4014C40.5616 30.9995 40.7536 32.6228 40.8066 34.2535H29.1936ZM40.8066 36.5869C40.7535 38.2176 40.5616 39.8408 40.2326 41.439C38.5444 41.3165 36.7862 41.2535 35.0001 41.2535C33.2139 41.2535 31.4557 41.3165 29.7676 41.439C29.4386 39.8408 29.2465 38.2176 29.1936 36.5869H40.8066ZM35.0001 21.4202C36.6824 21.4202 38.4767 23.5645 39.6259 27.1019C38.1291 27.1987 36.5798 27.2535 35.0001 27.2535C33.4204 27.2535 31.8711 27.1987 30.3742 27.1019C31.5234 23.5645 33.3177 21.4202 35.0001 21.4202ZM30.0721 22.3325C29.163 23.7465 28.4672 25.2867 28.0071 26.9035C26.7074 26.7682 25.4731 26.5944 24.3227 26.3867C25.8639 24.5692 27.8426 23.1738 30.0721 22.3325ZM22.8597 28.4774C24.2597 28.769 25.7974 29.007 27.4331 29.1855C27.1045 30.8565 26.9133 32.5514 26.8614 34.2535H21.0596C21.2269 32.219 21.8417 30.2466 22.8597 28.4774ZM22.8597 42.363C21.8415 40.5938 21.2269 38.6214 21.0596 36.5869H26.8614C26.9133 38.289 27.1045 39.9839 27.4331 41.6549C25.7997 41.8334 24.2597 42.0714 22.8597 42.363ZM24.3227 44.4537C25.4731 44.246 26.7074 44.0722 28.0071 43.9369C28.4672 45.5537 29.163 47.0939 30.0721 48.5079C27.8426 47.6664 25.8639 46.2712 24.3227 44.4537ZM35.0001 49.4202C33.3177 49.4202 31.5234 47.2759 30.3742 43.7385C31.8711 43.6417 33.4204 43.5869 35.0001 43.5869C36.5798 43.5869 38.1291 43.6417 39.6259 43.7385C38.4767 47.2759 36.6824 49.4202 35.0001 49.4202ZM39.9281 48.5079C40.8372 47.0939 41.533 45.5537 41.9931 43.9369C43.2927 44.0722 44.5271 44.246 45.6774 44.4537C44.1362 46.2712 42.1576 47.6664 39.9281 48.5079ZM47.1404 42.363C45.7404 42.0714 44.2027 41.8334 42.5671 41.6549C42.8956 39.9839 43.0868 38.2889 43.1388 36.5869H48.9406C48.7733 38.6214 48.1585 40.5938 47.1404 42.363Z" fill="white"/>
<path d="M12.8333 0.420166H1.16667C0.522375 0.420166 0 0.942541 0 1.58683V10.9202C0 11.5645 0.522375 12.0868 1.16667 12.0868H5.83333V14.4202H1.16667V16.7535H12.8333V14.4202H8.16667V12.0868H12.8333C13.4776 12.0868 14 11.5645 14 10.9202V1.58683C14 0.942541 13.4776 0.420166 12.8333 0.420166ZM11.6667 9.7535H2.33333V2.7535H11.6667V9.7535Z" fill="white"/>
<path d="M68.8333 0.420166H57.1667C56.5224 0.420166 56 0.942541 56 1.58683V10.9202C56 11.5645 56.5224 12.0868 57.1667 12.0868H61.8333V14.4202H57.1667V16.7535H68.8333V14.4202H64.1667V12.0868H68.8333C69.4776 12.0868 70 11.5645 70 10.9202V1.58683C70 0.942541 69.4776 0.420166 68.8333 0.420166ZM67.6667 9.7535H58.3333V2.7535H67.6667V9.7535Z" fill="white"/>
<path d="M12.8333 65.7535C13.4776 65.7535 14 65.2311 14 64.5869V55.2535C14 54.6092 13.4776 54.0869 12.8333 54.0869H1.16667C0.522375 54.0869 0 54.6092 0 55.2535V64.5869C0 65.2311 0.522375 65.7535 1.16667 65.7535H5.83333V68.0869H0V70.4202H14V68.0869H8.16667V65.7535H12.8333ZM2.33333 63.4202V56.4202H11.6667V63.4202H2.33333Z" fill="white"/>
<path d="M68.8333 65.7535C69.4776 65.7535 70 65.2311 70 64.5869V55.2535C70 54.6092 69.4776 54.0869 68.8333 54.0869H57.1667C56.5224 54.0869 56 54.6092 56 55.2535V64.5869C56 65.2311 56.5224 65.7535 57.1667 65.7535H61.8333V68.0869H56V70.4202H70V68.0869H64.1667V65.7535H68.8333ZM58.3333 63.4202V56.4202H67.6667V63.4202H58.3333Z" fill="white"/>
<path d="M18.4974 17.2633L20.2065 16.6928L19.4645 14.4808L15.9645 15.6475C15.6156 15.762 15.3417 16.0357 15.2272 16.3848L14.0605 19.8848L16.2772 20.6222L16.8477 18.913L20.1797 22.245L21.8294 20.5953L18.4974 17.2633Z" fill="white"/>
<path d="M54.7775 16.3895C54.6633 16.0376 54.3874 15.7617 54.0355 15.6475L50.5355 14.4808L49.7981 16.6975L51.5073 17.268L48.1753 20.6L49.825 22.2497L53.157 18.9177L53.7275 20.6268L55.9441 19.8895L54.7775 16.3895Z" fill="white"/>
<path d="M21.8201 50.2403L20.1751 48.5953L16.8431 51.9273L16.2726 50.2182L14.0559 50.9555L15.2226 54.4555C15.3371 54.8045 15.6108 55.0784 15.9599 55.1928L19.4599 56.3595L20.1972 54.1428L18.4881 53.5723L21.8201 50.2403Z" fill="white"/>
<path d="M53.7226 50.2182L53.1521 51.9273L49.8201 48.5953L48.1704 50.245L51.5024 53.577L49.7932 54.1475L50.5352 56.3595L54.0352 55.1928C54.3842 55.0784 54.6581 54.8046 54.7726 54.4555L55.9392 50.9555L53.7226 50.2182Z" fill="white"/>
<path d="M36.1666 5.08685H33.8333V14.4202H36.1666V5.08685Z" fill="white"/>
<path d="M36.1666 0.420166H33.8333V2.7535H36.1666V0.420166Z" fill="white"/>
<path d="M41.1743 13.5951L38.8413 15.9281L40.4912 17.578L42.8242 15.245L41.1743 13.5951Z" fill="white"/>
<path d="M28.8254 13.5951L27.1755 15.245L29.5085 17.5779L31.1584 15.928L28.8254 13.5951Z" fill="white"/>
<path d="M36.1666 56.4202H33.8333V65.7535H36.1666V56.4202Z" fill="white"/>
<path d="M36.1666 68.0869H33.8333V70.4202H36.1666V68.0869Z" fill="white"/>
<path d="M40.4917 53.2624L38.8418 54.9123L41.1748 57.2452L42.8247 55.5953L40.4917 53.2624Z" fill="white"/>
<path d="M29.5085 53.2613L27.7588 55.011L29.4087 56.6609L31.1584 54.9112L29.5085 53.2613Z" fill="white"/>
<path d="M65.3333 34.2535H56V36.5868H65.3333V34.2535Z" fill="white"/>
<path d="M70.0001 34.2535H67.6667V36.5868H70.0001V34.2535Z" fill="white"/>
<path d="M55.1748 27.5952L52.8418 29.9282L54.4917 31.5781L56.8247 29.2451L55.1748 27.5952Z" fill="white"/>
<path d="M54.4917 39.2559L52.8418 40.9058L55.1748 43.2388L56.8247 41.5889L54.4917 39.2559Z" fill="white"/>
<path d="M14.0001 34.2535H4.66675V36.5868H14.0001V34.2535Z" fill="white"/>
<path d="M2.33333 34.2535H0V36.5868H2.33333V34.2535Z" fill="white"/>
<path d="M14.8257 27.5956L13.1758 29.2455L15.5087 31.5784L17.1586 29.9285L14.8257 27.5956Z" fill="white"/>
<path d="M15.5075 39.2623L13.1746 41.5952L14.8245 43.2451L17.1574 40.9122L15.5075 39.2623Z" fill="white"/>
</svg>
