<?xml version="1.0" encoding="utf-8"?>
<!-- Generator: Adobe Illustrator 23.0.1, SVG Export Plug-In . SVG Version: 6.00 Build 0)  -->
<svg version="1.1" id="Слой_1" xmlns="http://www.w3.org/2000/svg" xmlns:xlink="http://www.w3.org/1999/xlink" x="0px" y="0px"
	 width="70px" height="70px" viewBox="0 0 70 70" style="enable-background:new 0 0 70 70;" xml:space="preserve">
<style type="text/css">
	.st0{fill:#0071B3;}
</style>
<g>
	<path class="st0" d="M35,4.8c-3.8,0-6.8,3.1-6.8,6.9c0,3.7,3.1,6.8,6.8,6.8c3.8,0,6.8-3.1,6.8-6.8C41.8,7.8,38.8,4.8,35,4.8z
		 M35,16.5c-2.6,0-4.8-2.1-4.8-4.8c0-2.6,2.2-4.8,4.8-4.8c2.6,0,4.8,2.2,4.8,4.8c0,1.3-0.5,2.5-1.4,3.4C37.5,16,36.3,16.5,35,16.5z"
		/>
	<path class="st0" d="M39.6,52.5h-1.3v-1.3c0-1.2-1-2.3-2.3-2.3h-2.3c-1.2,0-2.2,1-2.2,2.3v1.3h-1.3c-1.2,0-2.2,1-2.2,2.3v2.3
		c0,1.2,1,2.3,2.2,2.3h1.3v1.3c0.1,1.3,1,2.2,2.2,2.2h2.3c1.2,0,2.3-1,2.3-2.3v-1.3h1.3c1.2,0,2.3-1,2.3-2.3v-2.3
		C41.8,53.6,40.8,52.5,39.6,52.5z M32.7,57.3h-2.5v-2.6h2.5c0.5,0,1-0.4,1-1v-2.5h2.6v2.5c0,0.5,0.4,1,1,1h2.5v2.6h-2.5
		c-0.5,0-1,0.4-1,1v2.5h-2.6v-2.5C33.8,57.8,33.3,57.3,32.7,57.3z"/>
	<path class="st0" d="M69.5,45.4c-1.7-4-4.1-7.7-7.3-11L46.5,18.7V15h20c0.9,0,1.5-0.5,2.2-1.4c0.1-0.1,0.3-0.3,0.4-0.4
		c0.4-0.4,0.6-1,0.6-1.5c0-0.6-0.2-1.1-0.6-1.5L68,9c-0.4-0.4-0.9-0.6-1.5-0.6H46V8.3l0,0C44.3,2.8,39-0.6,33.3,0.4
		c-2.8,0.4-5.3,1.8-7.1,3.9c-1.8,2.1-2.8,4.8-2.8,7.6v22.8l-1.3-1.4l-0.3-2.3c-0.1-1-0.9-1.8-1.9-1.9L18,28.7l-0.2-1.8
		c-0.1-1-0.9-1.8-1.9-1.9l-1.8-0.2L13.8,23c-0.1-1-0.9-1.8-1.9-1.9l-1.8-0.2L9.9,19C9.8,18,9,17.2,8,17.1l-1.8-0.2L6,15.5
		c-0.1-1.1-0.9-2-1.9-2.4c-1-0.4-2.1-0.1-3,0.6c-0.6,0.5-1,1.3-1,2.1c-0.1,4.4,0.9,8.7,3,12.4C5.7,32.8,5.7,32.8,15,42l8.5,8.5v0.8
		h-8.3c-1.2,0-2.3,1-2.3,2.2v0.2H8v-0.2c0-1.2-1-2.2-2.3-2.2H2.3c-1.2,0-2.2,1-2.2,2.2c0,3.8,3.1,6.9,6.8,6.9h16.7l0,0.1
		c0.6,2.8,2.2,5.3,4.5,7c2,1.5,4.5,2.3,7,2.3c0.3,0,0.7,0,1,0c2.9-0.3,5.5-1.6,7.4-3.7c1.9-2.1,3-4.9,3-7.8V34.8l7.6,7.6
		c3.1,3.1,6.8,5.6,11,7.3c1.2,0.5,2.6,0.2,3.7-0.7C69.7,48.1,70.1,46.7,69.5,45.4z M46.5,13v-2.6h20l1.3,1.3L66.6,13H46.5z
		 M48.8,28.3c-0.4,0.1-0.6,0.3-0.7,0.7c-0.1,0.4,0,0.7,0.3,1L66.3,48l-0.6-0.2c-3.8-1.6-7.2-3.9-10.1-6.8l-9.1-9.1V21.6l14.2,14.2
		c2.9,2.9,5.2,6.3,6.8,10.1l0.2,0.6L49.8,28.6C49.5,28.2,49.2,28.1,48.8,28.3z M44.5,11.7v46.6c0,5.2-4.2,9.5-9.5,9.5
		s-9.5-4.2-9.5-9.5V11.7c0-5.2,4.2-9.5,9.5-9.5S44.5,6.5,44.5,11.7z M15.8,40.1C7.2,31.5,7.2,31.5,5,27.4l-0.1-0.1
		c-1.9-3.4-2.8-7.4-2.7-11.4c0-0.5,0.4-0.9,0.9-0.9C3.6,15,4,15.4,4,15.8L4.2,17c0.1,1,0.9,1.8,1.9,1.9L8,19.1l0.2,1.8
		c0.1,1,0.9,1.8,1.9,1.9l1.8,0.2l0.2,1.8c0.1,1,0.9,1.8,1.9,1.9l1.9,0.2l0.2,1.9c0.1,1,0.9,1.8,1.9,1.9l1.8,0.2l0.3,2.8
		c0,0.4,0,0.4,1.6,1.9l1.7,1.7v10.3l-0.1-0.1c-1.1-1.1-2.1-2-3-3C18.5,42.8,17.1,41.4,15.8,40.1z M8.2,56h4.7c1.2,0,2.3-1,2.3-2.3
		v-0.2h8.4v4.9H7c-2.6,0-4.8-2.1-4.8-4.8v-0.2H6v0.2C6,54.9,7,56,8.2,56z"/>
	<path class="st0" d="M29.2,24.3c0.5,0,1-0.4,1-1V21c0-0.5-0.5-1-1-1c-0.5,0-1,0.4-1,1v2.3C28.2,23.8,28.6,24.3,29.2,24.3z"/>
	<path class="st0" d="M29.2,47.8c0.5,0,1-0.4,1-1V28c0-0.5-0.5-1-1-1c-0.5,0-1,0.4-1,1v18.7C28.2,47.2,28.6,47.8,29.2,47.8z"/>
</g>
</svg>
