<svg id="ios.svg" xmlns="http://www.w3.org/2000/svg" width="66" height="55" viewBox="0 0 66 55">
  <defs>
    <style>
      .cls-1 {
        fill: #3f597e;
        fill-opacity: 0;
      }

      .cls-2 {
        fill: #fff;
        fill-rule: evenodd;
      }
    </style>
  </defs>
  <rect id="Прямоугольник_1_копия_56" data-name="Прямоугольник 1 копия 56" class="cls-1" width="66" height="55"/>
  <path id="Фигура_28" data-name="Фигура 28" class="cls-2" d="M8505.27,53.739a12.567,12.567,0,0,1,.81-4.581,8.778,8.778,0,0,1,4.37-4.839,8.209,8.209,0,0,1,2.82-.779,7.434,7.434,0,0,1,3.39.573c0.64,0.238,1.26.5,1.91,0.722a2.8,2.8,0,0,0,1.86,0c0.85-.294,1.67-0.659,2.53-0.942a8.009,8.009,0,0,1,2.87-.481,8.39,8.39,0,0,1,5.05,1.785,7.412,7.412,0,0,1,1.44,1.524c0.08,0.106.06,0.145-.05,0.212a7.853,7.853,0,0,0-3.25,4.184,7.333,7.333,0,0,0-.29,3.017,7.082,7.082,0,0,0,1.41,3.715,7.8,7.8,0,0,0,3.02,2.439,0.147,0.147,0,0,1,.1.221,19.311,19.311,0,0,1-2.53,5.018,21.183,21.183,0,0,1-1.53,2.017,6.082,6.082,0,0,1-2.02,1.585,4.277,4.277,0,0,1-3.06.138,18.2,18.2,0,0,1-1.75-.691,6.5,6.5,0,0,0-2.82-.456,7.671,7.671,0,0,0-2.69.716,8.234,8.234,0,0,1-1.93.628,3.7,3.7,0,0,1-2.83-.659,10.018,10.018,0,0,1-2.21-2.257,21.328,21.328,0,0,1-3.74-7.212,20.144,20.144,0,0,1-.74-3.52A16.007,16.007,0,0,1,8505.27,53.739Zm38.42,1.391a13.78,13.78,0,0,1,.74-4.679,8.628,8.628,0,0,1,2.21-3.491,7.087,7.087,0,0,1,3.68-1.839A7.784,7.784,0,0,1,8551.9,45a6.924,6.924,0,0,1,4.24,1.49,7.807,7.807,0,0,1,2.19,2.83,11.786,11.786,0,0,1,.93,3.191,15.1,15.1,0,0,1,.16,2.327,13.933,13.933,0,0,1-.83,5.038,8.5,8.5,0,0,1-1.91,3,7.135,7.135,0,0,1-4.01,2.028,7.447,7.447,0,0,1-3.82-.356,6.806,6.806,0,0,1-2.77-1.923,9.453,9.453,0,0,1-2.13-4.586A14.873,14.873,0,0,1,8543.69,55.129Zm0.57-.1c0.01,0.261.01,0.538,0.03,0.816a12.674,12.674,0,0,0,.54,3.177,8.2,8.2,0,0,0,2.13,3.638A6.082,6.082,0,0,0,8549.11,64a6.966,6.966,0,0,0,3.34.327,6.283,6.283,0,0,0,2.69-1.007,7.327,7.327,0,0,0,2.52-2.952,12.055,12.055,0,0,0,1.17-4.975,16,16,0,0,0-.07-1.958,12.065,12.065,0,0,0-.73-3.193,7.416,7.416,0,0,0-2.16-3.154,5.8,5.8,0,0,0-2.4-1.206,7.544,7.544,0,0,0-2.88-.116,6.479,6.479,0,0,0-3.7,1.808,7.972,7.972,0,0,0-1.95,3.175A12.681,12.681,0,0,0,8544.26,55.033Zm21.07,9.935a8.09,8.09,0,0,1-3.48-.791,3.883,3.883,0,0,1-.53-0.311,0.121,0.121,0,0,1-.05-0.192,2.224,2.224,0,0,0,.15-0.355c0.04-.094.07-0.1,0.15-0.049a7.652,7.652,0,0,0,1.78.822,6.4,6.4,0,0,0,2.37.356,5.16,5.16,0,0,0,3.26-1.339,4.227,4.227,0,0,0,1.4-2.723,4.367,4.367,0,0,0-1.51-4.037,10.137,10.137,0,0,0-2.57-1.525,15.657,15.657,0,0,1-2.54-1.3,4.852,4.852,0,0,1-1.56-1.568,3.863,3.863,0,0,1-.51-1.691,4.8,4.8,0,0,1,.51-2.611,4.669,4.669,0,0,1,2.83-2.345,6.378,6.378,0,0,1,2.64-.252,6.945,6.945,0,0,1,2.04.491,3.92,3.92,0,0,1,.54.286,0.1,0.1,0,0,1,.04.13c-0.06.112-.11,0.226-0.16,0.341-0.03.066-.06,0.058-0.11,0.03a6.3,6.3,0,0,0-2.64-.714,5.029,5.029,0,0,0-2.44.343,4.135,4.135,0,0,0-2.58,3.353,3.371,3.371,0,0,0,.55,2.541,4.6,4.6,0,0,0,1.36,1.219,22.043,22.043,0,0,0,2.14,1.127,16.374,16.374,0,0,1,2.52,1.45,5.039,5.039,0,0,1,1.56,1.727,4.539,4.539,0,0,1,.48,1.65,5.813,5.813,0,0,1-.14,2.078,4.818,4.818,0,0,1-2.62,3.234,6.01,6.01,0,0,1-2.19.59C8565.79,64.959,8565.56,64.963,8565.33,64.968ZM8526.18,35.83a7.478,7.478,0,0,1-1.19,3.885,7.234,7.234,0,0,1-3.2,2.843,5.254,5.254,0,0,1-2.35.492,0.186,0.186,0,0,1-.22-0.217,6.538,6.538,0,0,1,.93-3.787,7.721,7.721,0,0,1,4.67-3.712,6.209,6.209,0,0,1,1.14-.22c0.12-.014.19-0.007,0.2,0.151S8526.17,35.613,8526.18,35.83Zm14.07,21.953v-6.72c0-.189,0-0.189.18-0.189,0.1,0,.2,0,0.3,0a0.074,0.074,0,0,1,.09.092V64.54c0,0.175,0,.175-0.17.175-0.09,0-.18-0.007-0.27,0-0.11.012-.15-0.039-0.13-0.147V57.784ZM8540,46.624a0.555,0.555,0,0,1,.62-0.6,0.583,0.583,0,0,1,.46.651A0.542,0.542,0,1,1,8540,46.624Z" transform="translate(-8505 -25)"/>
</svg>
