<?xml version="1.0" encoding="utf-8"?>
<!-- Generator: Adobe Illustrator 23.0.1, SVG Export Plug-In . SVG Version: 6.00 Build 0)  -->
<svg version="1.1" id="Слой_1" xmlns="http://www.w3.org/2000/svg" xmlns:xlink="http://www.w3.org/1999/xlink" x="0px" y="0px"
	 viewBox="0 0 66 66" style="enable-background:new 0 0 66 66;" xml:space="preserve">
<style type="text/css">
	.st0{fill:#0071B3;}
</style>
<rect x="30.9" y="59.4" class="st0" width="4.2" height="2"/>
<rect x="30.9" y="27.6" class="st0" width="4.2" height="2"/>
<path class="st0" d="M63.4,43.6c-1-1.1-2.3-1.8-3.2-2.3l-0.1,0l0-0.1c0.7-2.4,1.1-4.8,1.2-7.1l0-0.1h1.2c1.8,0,3.2-1.4,3.2-3.2V19.9
	c0-1.8-1.4-3.2-3.2-3.2h-1.2v-2.2h-2v2.2h-3.2l0,0c-2.5-3.6-5.9-6.5-10-8.8l-0.1,0V3.5c0-1.8-1.4-3.2-3.2-3.2H23.2
	c-1.8,0-3.2,1.4-3.2,3.2v4.3l-0.1,0c-4.7,2.5-8.7,6.3-11.4,11l0,0l-0.1,0c-4.8,0.3-8.3,4.4-8.1,9.2c0.2,2.9,1.8,5.5,4.4,7l0,0l0,0.1
	c0.2,2.7,0.8,5.3,1.6,7.6l0,0.1l-0.1,0c-1.4,1-2.4,2.4-2.7,4.1c-0.3,1.7,0,3.4,1,4.8C4.8,52,4.9,52.2,5,52.4
	c0.1,0.2,0.3,0.3,0.4,0.5l4.6,4.6l3.6-3.6l0.1,0.1c1.8,1.7,3.8,3.1,6.2,4.4l0.1,0v4.2c0,1.8,1.4,3.2,3.2,3.2h19.7
	c1.8,0,3.2-1.4,3.2-3.2v-4.3l0.1,0c1.9-1,3.2-1.9,4.5-2.9l0.1-0.1l0.1,0.1c1.6,1.7,3.7,2.7,6,2.8c0.1,0,0.2,0,0.4,0
	c2.2,0,4.2-0.8,5.9-2.3C66.5,52.5,66.7,47.2,63.4,43.6z M63.7,30.8c0,0.7-0.5,1.2-1.2,1.2H51.6c-0.7,0-1.2-0.5-1.2-1.2v-7.8h13.3
	V30.8z M62.5,18.7c0.7,0,1.2,0.5,1.2,1.2v1.2H50.4v-1.2c0-0.7,0.5-1.2,1.2-1.2H62.5z M22,3.5c0-0.7,0.5-1.2,1.2-1.2h19.7
	c0.7,0,1.2,0.5,1.2,1.2v10.9c0,0.7-0.5,1.2-1.2,1.2h-7L33,18.5l-2.9-2.9h-7c-0.7,0-1.2-0.5-1.2-1.2V3.5z M2.3,27.5
	c0-3.7,3-6.7,6.7-6.7s6.7,3,6.7,6.7s-3,6.7-6.7,6.7S2.3,31.2,2.3,27.5z M13.2,51.3L10,54.6l-3.1-3.1c-1.7-1.7-1.7-4.5,0-6.3
	c0.9-0.9,2-1.3,3.1-1.3h0.1c2.4,0,4.4,2,4.4,4.4C14.5,49.4,14,50.6,13.2,51.3z M44,62.5c0,0.7-0.5,1.2-1.2,1.2H23.2
	c-0.7,0-1.2-0.5-1.2-1.2V57H44V62.5z M44,55H22V26.4c0-0.7,0.5-1.2,1.2-1.2h19.7c0.7,0,1.2,0.5,1.2,1.2V55z M49.4,53.6
	c-1,0.8-2.2,1.6-3.2,2.2L46,55.9V26.4c0-1.8-1.4-3.2-3.2-3.2H23.2c-1.8,0-3.2,1.4-3.2,3.2v29.5l-0.2-0.1c-1.7-1-3.3-2.2-4.7-3.5
	L15,52.3l0.1-0.1c2.2-2.8,1.7-6.8-1.1-8.9c-1.1-0.9-2.5-1.4-4-1.4H9.9c-0.5,0-1.1,0.1-1.6,0.2l-0.1,0l0-0.1
	c-0.5-1.4-1.2-3.7-1.4-5.9l0-0.1l0.1,0c2.2,0.5,4.6,0.1,6.5-1.1c2-1.2,3.3-3.1,3.9-5.4c0.5-2.2,0.1-4.6-1.1-6.5
	c-1.2-2-3.1-3.3-5.4-3.9l-0.3,0l0.1-0.2c2.3-3.6,5.4-6.6,9.1-8.8l0.2-0.1v4.3c0,1.8,1.4,3.2,3.2,3.2h6.2l3.7,3.7l3.7-3.7h6.3
	c1.8,0,3.2-1.4,3.2-3.2v-4.3l0.1,0.1c2.8,1.6,5.4,3.8,7.4,6.4l0.1,0.2h-2.1c-1.8,0-3.2,1.4-3.2,3.2v10.9c0,1.8,1.4,3.2,3.2,3.2h7.8
	l0,0.1c-0.1,2.1-0.5,4.3-1.2,6.7l0,0.1l-0.1,0c-4.8-0.5-9.1,2.9-9.6,7.6c-0.2,1.8,0.1,3.6,1,5.1L49.4,53.6L49.4,53.6z M57.1,56.1
	c-3.7,0-6.7-3-6.7-6.7s3-6.7,6.7-6.7s6.7,3,6.7,6.7S60.7,56.1,57.1,56.1z"/>
<polygon class="st0" points="9.9,27 9.9,23.3 7.9,23.3 7.9,28 11.5,30.5 12.7,28.9 "/>
<rect x="53.9" y="25.4" class="st0" width="2" height="4.2"/>
<rect x="58.3" y="25.4" class="st0" width="2" height="4.2"/>
<rect x="5.8" y="59.4" class="st0" width="8.5" height="2"/>
<rect x="28.7" y="5.8" class="st0" width="12.9" height="2"/>
<rect x="28.7" y="11.2" class="st0" width="12.9" height="2"/>
<rect x="56.1" y="45.1" class="st0" width="2" height="4.2"/>
<rect x="56.1" y="51.7" class="st0" width="2" height="2"/>
<rect x="24.4" y="5.8" class="st0" width="2" height="2"/>
<rect x="24.4" y="11.2" class="st0" width="2" height="2"/>
</svg>
