<?xml version="1.0" encoding="utf-8"?>
<!-- Generator: Adobe Illustrator 23.0.1, SVG Export Plug-In . SVG Version: 6.00 Build 0)  -->
<svg version="1.1" id="Слой_1" xmlns="http://www.w3.org/2000/svg" xmlns:xlink="http://www.w3.org/1999/xlink" x="0px" y="0px"
	 width="90px" height="90px" viewBox="0 0 90 90" style="enable-background:new 0 0 90 90;" xml:space="preserve">
<style type="text/css">
	.st0{fill:#FF5555;}
	.st1{fill:none;}
</style>
<polygon class="st0" points="7.4,10.6 70,10.6 70.8,5.3 69.3,2.3 64,1.6 11.8,1.5 7.2,3.2 6.6,6.9 "/>
<polygon class="st0" points="54.3,79.6 7.4,79.7 6.6,85 8,88.1 13.3,88.7 65.6,88.8 54.3,87.8 54.6,82.9 "/>
<g>
	<path d="M38.6,5.1c-0.6,0-1,0.5-1,1c0,0.6,0.5,1,1,1s1-0.5,1-1C39.6,5.6,39.2,5.1,38.6,5.1z"/>
	<path d="M66.8,0.7H10.4c-2.5,0-4.5,2-4.5,4.5v79.6c0,2.5,2,4.5,4.5,4.5H81c1.7,0,3-1.4,3-3V39.9c0-1.7-1.4-3-3-3h-9.7V5.2
		C71.3,2.7,69.3,0.7,66.8,0.7z M8,5.2c0-1.4,1.1-2.5,2.5-2.5h56.4c1.4,0,2.5,1.1,2.5,2.5v4.3H8V5.2z M10.4,87.3
		c-1.4,0-2.5-1.1-2.5-2.5v-4.3h45.1v5.7c0,0.2,0,0.4,0.1,0.7l0.1,0.4H10.4z M53.1,39.9v38.6H8V11.5h61.3v25.4H56.1
		C54.4,36.9,53.1,38.2,53.1,39.9z M82,81.2h-4.5c-0.6,0-1,0.5-1,1c0,0.6,0.5,1,1,1H82v3.1c0,0.6-0.5,1-1,1H56.1c-0.6,0-1-0.5-1-1
		v-3.1h16.3c0.6,0,1-0.5,1-1c0-0.6-0.5-1-1-1H55.1V44.5H82V81.2z M81,38.9c0.6,0,1,0.5,1,1v2.6H55.1v-2.6c0-0.6,0.5-1,1-1H81z"/>
	<path d="M26.3,24H18c-0.6,0-1,0.5-1,1s0.5,1,1,1h8.3c0.6,0,1-0.5,1-1S26.9,24,26.3,24z"/>
	<path d="M45.3,32.8H18c-0.6,0-1,0.5-1,1s0.5,1,1,1h27.4c0.6,0,1-0.5,1-1S45.9,32.8,45.3,32.8z"/>
	<path d="M45.3,39.2H18c-0.6,0-1,0.5-1,1s0.5,1,1,1h27.4c0.6,0,1-0.5,1-1S45.9,39.2,45.3,39.2z"/>
	<path d="M45.3,45.5H18c-0.6,0-1,0.5-1,1c0,0.6,0.5,1,1,1h27.4c0.6,0,1-0.5,1-1C46.4,46,45.9,45.5,45.3,45.5z"/>
	<path d="M25.5,54.7h-5.8c-1.5,0-2.8,1.2-2.8,2.8v5.8c0,1.5,1.2,2.8,2.8,2.8h5.8c1.5,0,2.8-1.2,2.8-2.8v-5.8
		C28.2,56,27,54.7,25.5,54.7z M26.2,63.2c0,0.4-0.3,0.7-0.7,0.7h-5.8c-0.4,0-0.7-0.3-0.7-0.7v-5.8c0-0.4,0.3-0.7,0.7-0.7h5.8
		c0.4,0,0.7,0.3,0.7,0.7V63.2z"/>
	<path d="M73.1,48.4C73.1,48.4,73.1,48.4,73.1,48.4H62.7c-1,0-1.9,0.4-2.6,1.1C59.4,50.1,59,51,59,52v10.4c0,1,0.4,1.9,1.1,2.6
		s1.6,1.1,2.6,1.1c1,0,1.9-0.4,2.6-1.1c0.7-0.7,1.1-1.6,1.1-2.6v-1.7l4.9,4.9c0.7,0.7,1.6,1.1,2.6,1.1s1.9-0.4,2.6-1.1
		c0.7-0.7,1.1-1.6,1.1-2.6c0-1-0.4-1.9-1.1-2.6l-4.9-4.9h1.7c1,0,1.9-0.4,2.6-1.1c0.7-0.7,1.1-1.6,1.1-2.6c0-1-0.4-1.9-1.1-2.6
		C75,48.7,74.1,48.4,73.1,48.4z M74.2,53.1c-0.3,0.3-0.7,0.5-1.1,0.5H69c-0.4,0-0.8,0.2-0.9,0.6c-0.2,0.4-0.1,0.8,0.2,1.1l6.6,6.6
		c0.3,0.3,0.5,0.7,0.5,1.1c0,0.4-0.2,0.8-0.5,1.1c-0.3,0.3-0.7,0.5-1.1,0.5s-0.8-0.2-1.1-0.5L66,57.6c-0.3-0.3-0.7-0.4-1.1-0.2
		c-0.4,0.2-0.6,0.5-0.6,0.9v4.1c0,0.4-0.2,0.8-0.5,1.1c-0.6,0.6-1.7,0.6-2.3,0c-0.3-0.3-0.5-0.7-0.5-1.1V52c0-0.4,0.2-0.8,0.5-1.1
		c0.3-0.3,0.7-0.5,1.1-0.5h10.4c0.4,0,0.8,0.2,1.1,0.5c0.3,0.3,0.5,0.7,0.5,1.1C74.7,52.4,74.5,52.8,74.2,53.1z"/>
</g>
<rect class="st1" width="90" height="90"/>
</svg>
