<svg width="63" height="70" viewBox="0 0 63 70" fill="none" xmlns="http://www.w3.org/2000/svg">
<path d="M6.71855 4.30815C6.71855 4.91217 6.22882 5.4019 5.6248 5.4019C5.02025 5.4019 4.53052 4.91217 4.53052 4.30815C4.53052 3.7036 5.02025 3.21387 5.6248 3.21387C6.22882 3.21387 6.71855 3.7036 6.71855 4.30815Z" fill="black"/>
<path d="M10.6155 4.37651C10.6155 4.98053 10.1257 5.47026 9.52173 5.47026C8.91771 5.47026 8.42798 4.98053 8.42798 4.37651C8.42798 3.77196 8.91771 3.28223 9.52173 3.28223C10.1257 3.28223 10.6155 3.77196 10.6155 4.37651Z" fill="black"/>
<path d="M14.513 4.44487C14.513 5.04889 14.0233 5.53862 13.4187 5.53862C12.8147 5.53862 12.325 5.04889 12.325 4.44487C12.325 3.84032 12.8147 3.35059 13.4187 3.35059C14.0233 3.35059 14.513 3.84032 14.513 4.44487Z" fill="black"/>
<path d="M62.0879 63.2858L48.4882 49.6861C50.5309 46.6948 51.8581 43.1775 52.2212 39.383H57.6873C59.1784 39.383 60.3912 38.1696 60.3912 36.6785V2.70393C60.3912 1.21284 59.1784 0 57.6873 0H2.70393C1.21284 0 0 1.21284 0 2.70393V36.6785C0 38.1696 1.21284 39.383 2.70393 39.383H8.25653C9.32678 50.5694 18.7764 59.3477 30.2389 59.3477C34.8419 59.3477 39.1197 57.9314 42.6616 55.5126L56.2614 69.1119C56.8531 69.7041 57.6307 70 58.4083 70C59.1859 70 59.9635 69.7041 60.5552 69.1119L62.0879 67.5797C62.661 67.0061 62.9771 66.244 62.9771 65.4327C62.9771 64.6215 62.661 63.8594 62.0879 63.2858ZM2.70393 37.3317C2.34398 37.3317 2.05132 37.0385 2.05132 36.6785V8.51715H48.289C48.8556 8.51715 49.3149 8.05786 49.3149 7.49123C49.3149 6.92513 48.8556 6.46584 48.289 6.46584H2.05132V2.70393C2.05132 2.34398 2.34398 2.05132 2.70393 2.05132H57.6868C58.0473 2.05132 58.3399 2.34398 58.3399 2.70393V6.46584H52.3916C51.825 6.46584 51.3657 6.92513 51.3657 7.49123C51.3657 8.05786 51.825 8.51715 52.3916 8.51715H58.3399V36.6785C58.3399 37.0385 58.0467 37.3317 57.6868 37.3317H52.3222C52.3222 37.3087 52.3232 37.2858 52.3232 37.2633C52.3232 25.0858 42.4159 15.1785 30.2383 15.1785C25.6396 15.1785 21.3644 16.5926 17.8247 19.0076H10.2737C9.70757 19.0076 9.24828 19.4669 9.24828 20.033C9.24828 20.5997 9.70757 21.059 10.2737 21.059H15.2511C10.89 25.0954 8.15453 30.8653 8.15453 37.2633C8.15453 37.2858 8.15506 37.3087 8.15506 37.3317H2.70393ZM10.2053 37.2633C10.2053 26.2169 19.1924 17.2298 30.2389 17.2298C41.2848 17.2298 50.2719 26.2169 50.2719 37.2633C50.2719 48.3098 41.2853 57.2964 30.2389 57.2964C19.1924 57.2964 10.2053 48.3098 10.2053 37.2633ZM60.6374 66.1292L59.1047 67.6619C58.9188 67.8477 58.6716 67.9503 58.4083 67.9503C58.1455 67.9503 57.8983 67.8477 57.7119 67.6619L44.3166 54.2661C45.3799 53.3839 46.3599 52.4044 47.2422 51.3406L60.6374 64.7363C60.8233 64.9222 60.9258 65.1694 60.9258 65.4327C60.9258 65.696 60.8233 65.9433 60.6374 66.1292Z" fill="black"/>
<path d="M47.789 42.2938C48.2478 40.6948 48.494 39.0072 48.494 37.2635C48.494 27.1971 40.3048 19.0078 30.2388 19.0078C26.0817 19.0078 22.0128 20.4439 18.7822 23.0512C18.3411 23.4068 18.2722 24.0525 18.6279 24.4931C18.9836 24.9342 19.6293 25.0031 20.0704 24.6475C22.9789 22.2997 26.4951 21.0591 30.2388 21.0591C39.1736 21.0591 46.4432 28.3282 46.4432 37.2635C46.4432 38.5703 46.2867 39.8409 45.993 41.0585H14.4841C14.1909 39.8409 14.0345 38.5698 14.0345 37.2635C14.0345 33.6656 15.1896 30.2588 17.3745 27.4101C17.7195 26.961 17.6346 26.3169 17.1854 25.9719C16.7357 25.6275 16.0922 25.7124 15.7472 26.1615C13.2847 29.3712 11.9832 33.21 11.9832 37.2635C11.9832 39.0125 12.231 40.705 12.6924 42.3082C12.7025 42.3525 12.7159 42.3958 12.7314 42.438C14.968 49.9917 21.9695 55.5192 30.2388 55.5192C38.5045 55.5192 45.5038 49.996 47.7431 42.4471C47.7623 42.3974 47.7784 42.3467 47.789 42.2938ZM30.2388 53.4679C23.3639 53.4679 17.4765 49.1644 15.1261 43.1098H45.3511C43.0012 49.1644 37.1132 53.4679 30.2388 53.4679Z" fill="black"/>
<path d="M6.03496 15.0425H9.18002C9.74612 15.0425 10.2054 14.5832 10.2054 14.0166C10.2054 13.4505 9.74612 12.9912 9.18002 12.9912H6.03496C5.46832 12.9912 5.00903 13.4505 5.00903 14.0166C5.00903 14.5832 5.46832 15.0425 6.03496 15.0425Z" fill="black"/>
<path d="M13.0085 15.0425H18.6151C19.1817 15.0425 19.641 14.5832 19.641 14.0166C19.641 13.4505 19.1817 12.9912 18.6151 12.9912H13.0085C12.4424 12.9912 11.9832 13.4505 11.9832 14.0166C11.9832 14.5832 12.4424 15.0425 13.0085 15.0425Z" fill="black"/>
<path d="M40.7684 15.0425H54.3062C54.8723 15.0425 55.3316 14.5832 55.3316 14.0166C55.3316 13.4505 54.8723 12.9912 54.3062 12.9912H40.7684C40.2017 12.9912 39.7424 13.4505 39.7424 14.0166C39.7424 14.5832 40.2017 15.0425 40.7684 15.0425Z" fill="black"/>
<path d="M6.03496 21.0591H7.40215C7.96878 21.0591 8.42807 20.5998 8.42807 20.0332C8.42807 19.4671 7.96878 19.0078 7.40215 19.0078H6.03496C5.46832 19.0078 5.00903 19.4671 5.00903 20.0332C5.00903 20.5998 5.46832 21.0591 6.03496 21.0591Z" fill="black"/>
<path d="M54.3063 19.0078H48.6998C48.1331 19.0078 47.6738 19.4671 47.6738 20.0332C47.6738 20.5998 48.1331 21.0591 48.6998 21.0591H54.3063C54.8724 21.0591 55.3317 20.5998 55.3317 20.0332C55.3317 19.4671 54.8724 19.0078 54.3063 19.0078Z" fill="black"/>
<path d="M9.65854 26.4605C9.65854 25.8939 9.19925 25.4346 8.63315 25.4346H6.03496C5.46832 25.4346 5.00903 25.8939 5.00903 26.4605C5.00903 27.0266 5.46832 27.4859 6.03496 27.4859H8.63315C9.19925 27.4859 9.65854 27.0266 9.65854 26.4605Z" fill="black"/>
<path d="M39.8109 27.6221H20.8032C20.2371 27.6221 19.7778 28.0814 19.7778 28.648C19.7778 29.2141 20.2371 29.6734 20.8032 29.6734H39.8109C40.3775 29.6734 40.8368 29.2141 40.8368 28.648C40.8368 28.0814 40.3775 27.6221 39.8109 27.6221Z" fill="#FF5555"/>
<path d="M16.4961 34.9385C16.4961 35.5046 16.9548 35.9639 17.5215 35.9639H19.983C20.5491 35.9639 21.0083 35.5046 21.0083 34.9385C21.0083 34.3718 20.5491 33.9131 19.983 33.9131H17.5215C16.9548 33.9131 16.4961 34.3718 16.4961 34.9385Z" fill="#FF5555"/>
<path d="M23.1963 34.9385C23.1963 35.5046 23.6556 35.9639 24.2217 35.9639H42.8192C43.3858 35.9639 43.8451 35.5046 43.8451 34.9385C43.8451 34.3718 43.3858 33.9131 42.8192 33.9131H24.2217C23.6556 33.9131 23.1963 34.3718 23.1963 34.9385Z" fill="#FF5555"/>
</svg>
