<?xml version="1.0" encoding="utf-8"?>
<!-- Generator: Adobe Illustrator 23.0.1, SVG Export Plug-In . SVG Version: 6.00 Build 0)  -->
<svg version="1.1" id="Слой_1" xmlns="http://www.w3.org/2000/svg" xmlns:xlink="http://www.w3.org/1999/xlink" x="0px" y="0px"
	 viewBox="0 0 70 70" style="enable-background:new 0 0 70 70;" xml:space="preserve">
<style type="text/css">
	.st0{fill:#0071B3;}
</style>
<g>
	<path class="st0" d="M15,21.1L15,21.1L15,21.1c0.1-0.4,0.2-0.9,0.2-1.3c0-2.4-1.9-4.3-4.3-4.3s-4.3,1.9-4.3,4.3
		c0,0.4,0.1,0.9,0.2,1.3l0,0l0,0c-2.2,1.4-3.5,3.8-3.5,6.4v2.2c0,2.5,1.2,4.8,3.3,6.2l0,0v2.3c0,0.4-0.2,0.8-0.6,1.1l0,0l0,0l0,0
		L2.4,41C0.9,41.7,0,43.2,0,44.8v13.9c0,0.6,0.4,1,1,1s1-0.4,1-1V45.2l1.7,1.7l0,0l0,0l0,0c0.4,0.4,0.7,1,0.7,1.6v10.2
		c0,0.6,0.4,1,1,1c0.6,0,1-0.4,1-1V48.6c0-1.1-0.4-2.2-1.3-3l-2.3-2.3l0,0v0c0,0,0,0,0,0l0,0l0,0c0.1-0.1,0.3-0.2,0.5-0.3L6.8,41
		c0.2-0.1,0.3-0.2,0.5-0.3l0,0l2.5,2.5l0,0v15.5c0,0.6,0.4,1,1,1c0.6,0,1-0.4,1-1V43.2l2.5-2.5l0,0c0.2,0.1,0.3,0.2,0.5,0.3l1,0.5
		c0.1,0.1,0.3,0.1,0.4,0.1c0.4,0,0.7-0.2,0.9-0.6c0.1-0.2,0.1-0.5,0.1-0.8c-0.1-0.2-0.3-0.4-0.5-0.6l0,0l0,0l0,0l-1-0.5
		c-0.4-0.2-0.7-0.6-0.7-1.1v-2.3l0,0c2.1-1.4,3.3-3.7,3.3-6.2v-2.2C18.5,24.9,17.2,22.5,15,21.1z M10.9,21.9c3.1,0,5.6,2.5,5.6,5.6
		v0.4l0,0c-4.2,1.3-6.8-1.9-6.9-2.1l0,0c-0.2-0.2-0.4-0.4-0.7-0.4c0,0,0,0-0.1,0c-0.3,0-0.5,0.1-0.7,0.3c-1,1-2,1.5-2.6,1.7l0,0l0,0
		C5.4,24.3,7.9,21.9,10.9,21.9z M5.3,29.4L5.3,29.4c0.8-0.2,2-0.6,3.3-1.6l0,0l0,0c0.6,0.5,1.2,1,1.9,1.4c1.2,0.7,2.5,1,3.9,1
		c0.6,0,1.3-0.1,2-0.2l0,0l0,0c-0.2,3-2.6,5.3-5.6,5.3c-3.1,0-5.6-2.5-5.6-5.6V29.4z M13.1,20.2L13.1,20.2L13.1,20.2
		c-0.8-0.2-1.5-0.3-2.3-0.3S9.4,20,8.7,20.2l0,0l0,0c0-0.1,0-0.3,0-0.4c0-1.3,1-2.3,2.3-2.3s2.3,1,2.3,2.3
		C13.2,19.9,13.2,20.1,13.1,20.2z M9.3,22.1C9.3,22.1,9.2,22.1,9.3,22.1C9.2,22.1,9.3,22.1,9.3,22.1z M10.4,21.9
		C10.3,21.9,10.3,21.9,10.4,21.9C10.3,21.9,10.3,21.9,10.4,21.9z M7.4,23.1C7.4,23.1,7.4,23.1,7.4,23.1C7.4,23.1,7.4,23.1,7.4,23.1z
		 M5.3,26.8C5.3,26.8,5.3,26.8,5.3,26.8C5.3,26.8,5.3,26.8,5.3,26.8z M5.6,25.7C5.6,25.7,5.6,25.7,5.6,25.7
		C5.6,25.7,5.6,25.7,5.6,25.7z M6.6,23.9C6.6,23.9,6.6,23.8,6.6,23.9C6.6,23.8,6.6,23.9,6.6,23.9z M8.5,39c0.1-0.3,0.1-0.5,0.1-0.8
		v-1.3l0,0c0.7,0.2,1.5,0.3,2.3,0.3c0.8,0,1.5-0.1,2.3-0.3l0,0v1.3c0,0.3,0,0.5,0.1,0.8l0,0l-2.4,2.4l0,0L8.5,39L8.5,39L8.5,39z"/>
	<path class="st0" d="M67.6,38.8L61.9,36l0,0l0,0l0,0l0,0l0,0l0,0c-0.4-0.2-0.6-0.6-0.6-1.1v-1.5l0,0c1.4-1.2,2.2-3,2.2-4.8v-1.2h0
		c0,0,0,0,0,0h0c0.6,0,1-0.4,1-1v-2.2c0-3.6-2.9-6.5-6.5-6.5h-2.2c-3.6,0-6.5,2.9-6.5,6.5v2.2c0,0.6,0.4,1,1,1c0,0,0,0,0.1,0l0,0
		v1.2c0,1.8,0.8,3.6,2.2,4.8l0,0v1.5c0,0.5-0.3,0.9-0.7,1.1c-0.5,0.2-0.7,0.8-0.5,1.3l0,0l0,0l0,0c0.2,0.3,0.5,0.5,0.9,0.5
		c0.2,0,0.3,0,0.4-0.1c0.2-0.1,0.3-0.2,0.5-0.3l0,0l2.5,2.5l0,0v18.8c0,0.6,0.4,1,1,1c0.6,0,1-0.4,1-1V39.9l2.5-2.5l0,0l0,0
		c0.2,0.1,0.3,0.2,0.5,0.3l5.6,2.8l0,0l-1.7,1.7c-0.8,0.8-1.3,1.9-1.3,3v13.5c0,0.6,0.4,1,1,1s1-0.4,1-1V45.3c0-0.6,0.2-1.2,0.7-1.6
		l1.6-1.6l0,0c0,0.2,0.1,0.4,0.1,0.6v16.1c0,0.6,0.4,1,1,1s1-0.4,1-1V42.6C70,41,69.1,39.5,67.6,38.8z M52.4,26.9L52.4,26.9
		c0.9-0.3,1.7-0.8,2.4-1.5l0,0l0,0c1.1,0.6,3.3,1.5,6.5,1.8l0,0v1.3c0,2.5-2,4.5-4.5,4.5s-4.5-2-4.5-4.5V26.9z M51.3,24.2
		c0-2.5,2-4.5,4.5-4.5H58c2.5,0,4.5,2,4.5,4.5v1.2l0,0c-4.3-0.2-7-1.8-7.2-2l0,0c-0.2-0.1-0.4-0.2-0.6-0.2c-0.3,0-0.5,0.1-0.7,0.3
		c-1,1-2,1.5-2.6,1.7l0,0V24.2z M54.5,35.7c0.1-0.3,0.1-0.5,0.1-0.8v-0.3l0,0c0.7,0.3,1.5,0.4,2.3,0.4c0.8,0,1.5-0.1,2.3-0.4l0,0
		v0.3c0,0.3,0,0.5,0.1,0.8l0,0l-2.4,2.4l0,0L54.5,35.7L54.5,35.7z"/>
	<path class="st0" d="M47,35.3l-6-2.6c-0.4-0.2-0.7-0.6-0.7-1.1v-1.6l0,0c2.1-1.7,3.3-4.1,3.3-6.8v-2.3l0,0c0.7-0.4,1.1-1.1,1.1-1.8
		v-0.2c0-4.8-3.9-8.7-8.7-8.7h-2.2c-4.8,0-8.7,3.9-8.7,8.7v2c0,0.7,0.3,1.3,0.8,1.7c0.1,0.1,0.2,0.1,0.3,0.2l0,0v0.5
		c0,2.7,1.2,5.1,3.3,6.8l0,0v1.6c0,0.5-0.3,0.9-0.7,1.1l-6,2.6c-1.9,0.9-3.2,2.8-3.2,4.9v18.6c0,0.6,0.4,1,1,1s1-0.4,1-1V40.2
		c0-0.1,0-0.2,0-0.4l0-0.1l2.8,2.8c0.4,0.4,0.7,1,0.7,1.6v14.6c0,0.6,0.4,1,1,1c0.6,0,1-0.4,1-1V44.2c0-1.1-0.4-2.2-1.3-3l-3.3-3.3
		l0,0c0.3-0.3,0.6-0.6,1-0.7l0,0l0,0l0,0l5.8-2.6l0,0l4.4,4.4l0,0v19.9c0,0.6,0.4,1,1,1c0.6,0,1-0.4,1-1V38.8l4.4-4.4l0,0l5.9,2.6
		l0,0l0,0l0,0c0.4,0.2,0.7,0.4,1,0.7l0,0L44,41.1c-0.8,0.8-1.3,1.9-1.3,3v14.6c0,0.6,0.4,1,1,1c0.6,0,1-0.4,1-1V44.2
		c0-0.6,0.2-1.2,0.7-1.6l2.8-2.8l0,0.1c0,0.1,0,0.3,0,0.4v18.6c0,0.6,0.4,1,1,1s1-0.4,1-1V40.2C50.2,38.1,49,36.1,47,35.3z
		 M28.3,22.6L28.3,22.6c0.7-0.3,1.3-0.7,1.9-1.2c0.2-0.2,0.3-0.4,0.3-0.7c0-0.3-0.1-0.5-0.3-0.7s-0.4-0.3-0.7-0.3c0,0,0,0,0,0
		c-0.3,0-0.5,0.1-0.7,0.3l0,0l-1.5,0.9l0,0c0,0,0,0,0,0l0,0l0,0c0,0,0,0,0-0.1v-2c0-3.7,3-6.7,6.7-6.7h2.2c3.7,0,6.7,3,6.7,6.7v0.2
		c0,0,0,0.1-0.1,0.1c-6.2,1.2-9.2-1.1-10.3-2.1c-0.4-0.4-1-0.4-1.4,0c-0.4,0.4-0.4,1,0,1.4c0.2,0.2,0.4,0.3,0.5,0.5
		c0.1,0,0.1,0.1,0.2,0.1c0.4,0.3,0.7,0.6,1.1,0.8c0.1,0,0.1,0.1,0.2,0.1c0.4,0.2,0.8,0.4,1.2,0.6c0,0,0.1,0,0.1,0.1
		c0.4,0.2,0.9,0.3,1.3,0.4c0,0,0.1,0,0.1,0c0.2,0.1,0.4,0.1,0.7,0.2c1.6,0.3,3.3,0.4,5.2,0.1l0,0v1.9c0,3.7-3,6.7-6.7,6.7
		c-3.7,0-6.7-3-6.7-6.7V22.6z M31.2,33.1c0.3-0.5,0.4-1.1,0.4-1.6v-0.5l0,0c1.1,0.4,2.2,0.7,3.3,0.7s2.3-0.2,3.3-0.7l0,0v0.5
		c0,0.6,0.2,1.1,0.5,1.6l0,0L35,37L31.2,33.1L31.2,33.1z"/>
</g>
</svg>
