<svg width="70" height="70" viewBox="0 0 70 70" fill="none" xmlns="http://www.w3.org/2000/svg">
<path d="M7.5039 59.1008C6.93727 59.1008 6.47852 59.5601 6.47852 60.1262C6.47852 60.6929 6.93727 61.1521 7.5039 61.1521H14.0381C14.6042 61.1521 15.0635 60.6929 15.0635 60.1262C15.0635 59.5601 14.6042 59.1008 14.0381 59.1008H7.5039Z" fill="#FF5555"/>
<path d="M37.6812 61.1521H62.3423C62.909 61.1521 63.3677 60.6929 63.3677 60.1262C63.3677 59.5601 62.909 59.1008 62.3423 59.1008H37.6812C37.1146 59.1008 36.6553 59.5601 36.6553 60.1262C36.6553 60.6929 37.1146 61.1521 37.6812 61.1521V61.1521Z" fill="#FF5555"/>
<path d="M30.5138 39.2964C30.1677 38.8473 29.5231 38.765 29.075 39.1106L20.6113 45.6362C20.5483 45.6853 20.4933 45.7404 20.4447 45.7996C20.4383 45.8071 20.4318 45.8157 20.426 45.8231C20.4035 45.852 20.3832 45.8819 20.364 45.9129C20.3603 45.9193 20.356 45.9251 20.3523 45.9315C20.3304 45.9689 20.3111 46.0074 20.2946 46.0464C20.2914 46.0544 20.2887 46.0619 20.2855 46.0699C20.2722 46.1035 20.2609 46.1377 20.2513 46.1724C20.2492 46.1788 20.2465 46.1847 20.2449 46.1911L18.4799 53.0041V53.0046L18.2192 54.0092L16.9007 59.1003C16.7757 59.5826 16.8782 60.0851 17.1826 60.4798C17.4865 60.8745 17.9469 61.1014 18.4446 61.1036L31.78 61.1522H31.7837C31.8366 61.1522 31.889 61.1474 31.9408 61.1393C31.9568 61.1367 31.9728 61.1324 31.9888 61.1292C32.0241 61.1217 32.0588 61.1137 32.093 61.103C32.1111 61.0972 32.1293 61.0897 32.1474 61.0827C32.1784 61.071 32.2089 61.0582 32.2388 61.0432C32.2564 61.0347 32.274 61.0256 32.2911 61.0154C32.321 60.9984 32.3498 60.9791 32.3782 60.9588C32.3883 60.9519 32.3995 60.9466 32.4097 60.9385L54.001 44.2909C54.3861 44.5825 54.8513 44.7353 55.3218 44.7353C55.7875 44.7353 56.2569 44.5873 56.6537 44.2813L60.0375 41.673C60.9918 40.9365 61.1697 39.5613 60.4337 38.607L59.9253 37.9474L61.2514 36.9252C63.6242 35.0955 64.0664 31.677 62.2373 29.3048L58.791 24.8352C56.9618 22.4624 53.5433 22.0208 51.1705 23.8499L49.8445 24.8726L49.3361 24.2136C48.9798 23.7511 48.4645 23.4552 47.8856 23.3805C47.3056 23.3057 46.7325 23.4606 46.27 23.8168L42.8868 26.4257C42.09 27.0404 41.8368 28.0999 42.2027 28.9891L34.0994 35.2365C33.6508 35.5826 33.5675 36.2261 33.9136 36.6747C34.2591 37.1239 34.9037 37.2072 35.3518 36.8611L43.3925 30.6618L44.3896 31.9553L23.6736 47.9284L22.6759 46.6349L30.3274 40.7352C30.776 40.3891 30.8593 39.745 30.5138 39.2964V39.2964ZM19.0315 59.0544L19.94 55.5472L22.6541 59.0672L19.0315 59.0544ZM49.72 38.8681L49.7473 38.9034L50.4362 39.7974L29.7196 55.7699L29.004 54.8412L49.72 38.8681ZM27.7511 53.2171L26.8945 52.1058L47.611 36.1327L48.4677 37.2441L27.7511 53.2171ZM31.9696 58.688L30.9725 57.3945L51.6886 41.4214L52.6862 42.7149L31.9696 58.688ZM52.4229 25.4745C53.9001 24.3359 56.0283 24.6109 57.1669 26.0876L60.6127 30.5571C61.7513 32.0338 61.4762 34.162 59.9996 35.3006L58.6735 36.3233L51.0974 26.4967L52.4229 25.4745ZM44.1151 28.2393C44.0697 28.1806 44.0804 28.0957 44.1391 28.0503L47.5229 25.4414C47.5523 25.419 47.5854 25.4099 47.6223 25.4147C47.6591 25.4195 47.6896 25.4366 47.712 25.466L58.8097 39.8588C58.8551 39.9181 58.8439 40.003 58.7851 40.0484L55.4013 42.6572C55.3426 42.7021 55.2577 42.6914 55.2123 42.6327L54.9367 42.2754L54.9015 42.23L52.6878 39.3589C52.6878 39.3584 52.6873 39.3578 52.6867 39.3568L50.7182 36.804L44.1151 28.2393ZM45.642 33.5794L45.8738 33.8795L46.3587 34.5086L25.6421 50.4812L24.9259 49.5525L45.642 33.5794ZM26.7529 55.2813L28.7215 57.8346H28.722L29.6918 59.0934L25.2512 59.0768L20.591 53.0329L21.705 48.7343L26.7529 55.2813Z" fill="#FF5555"/>
<path d="M7.48846 3.93652C5.82861 3.93652 4.47852 5.28662 4.47852 6.94647C4.47852 8.60578 5.82861 9.95588 7.48846 9.95588C9.14777 9.95588 10.4979 8.60578 10.4979 6.94647C10.4979 5.28662 9.14777 3.93652 7.48846 3.93652ZM7.48846 7.90456C6.95974 7.90456 6.52983 7.47465 6.52983 6.94647C6.52983 6.41775 6.95974 5.98783 7.48846 5.98783C8.01664 5.98783 8.44709 6.41775 8.44709 6.94647C8.44709 7.47465 8.01664 7.90456 7.48846 7.90456Z" fill="black"/>
<path d="M15.1506 3.93652C13.4907 3.93652 12.1406 5.28662 12.1406 6.94647C12.1406 8.60578 13.4907 9.95588 15.1506 9.95588C16.8099 9.95588 18.16 8.60578 18.16 6.94647C18.16 5.28662 16.8099 3.93652 15.1506 3.93652ZM15.1506 7.90456C14.6219 7.90456 14.1919 7.47465 14.1919 6.94647C14.1919 6.41775 14.6219 5.98783 15.1506 5.98783C15.6787 5.98783 16.1092 6.41775 16.1092 6.94647C16.1092 7.47465 15.6787 7.90456 15.1506 7.90456Z" fill="black"/>
<path d="M22.8137 3.93652C21.1538 3.93652 19.8037 5.28662 19.8037 6.94647C19.8037 8.60578 21.1538 9.95588 22.8137 9.95588C24.473 9.95588 25.8231 8.60578 25.8231 6.94647C25.8231 5.28662 24.473 3.93652 22.8137 3.93652ZM22.8137 7.90456C22.2849 7.90456 21.855 7.47465 21.855 6.94647C21.855 6.41775 22.2849 5.98783 22.8137 5.98783C23.3418 5.98783 23.7723 6.41775 23.7723 6.94647C23.7723 7.47465 23.3418 7.90456 22.8137 7.90456Z" fill="black"/>
<path d="M68.9745 19.7612C69.5406 19.7612 69.9999 19.3019 69.9999 18.7352V4.51331C69.9999 2.02461 67.9753 0 65.4865 0H4.51385C2.02514 0 0 2.02461 0 4.51331V65.4865C0 67.9753 2.02514 69.9999 4.51385 69.9999H65.4865C67.9753 69.9999 69.9999 67.9753 69.9999 65.4865V25.1546C69.9999 24.588 69.5411 24.1292 68.9745 24.1292C68.4078 24.1292 67.9491 24.588 67.9491 25.1546V65.486C67.9491 66.8441 66.8441 67.9486 65.4865 67.9486H4.51385C3.15574 67.9486 2.05131 66.8441 2.05131 65.486V13.9506H67.9486V18.7352C67.9486 19.3019 68.4078 19.7612 68.9745 19.7612ZM2.05131 11.8993V4.51331C2.05131 3.15574 3.15574 2.05131 4.51385 2.05131H65.4865C66.8441 2.05131 67.9491 3.15574 67.9491 4.51331V11.8993H2.05131Z" fill="black"/>
</svg>
