<svg xmlns="http://www.w3.org/2000/svg" width="984.15" height="264.09" viewBox="0 0 984.15 264.09"><defs><style>.cls-1{fill:#e3edf6;}.cls-2{opacity:0.38;}.cls-3{fill:#677f93;}.cls-4{fill:#506a7c;}.cls-5{fill:#fff;}.cls-6{fill:#2e383d;}.cls-7{fill:#f55;}</style></defs><title>Desktop</title><g id="Слой_2" data-name="Слой 2"><g id="Слой_1-2" data-name="Слой 1"><rect class="cls-1" width="222" height="264.09" rx="5"/><g id="_1-4" data-name=" 1-4" class="cls-2"><polygon class="cls-3" points="201.16 78.85 20.84 78.85 20.84 79.85 201.16 79.85 201.16 78.85 201.16 78.85"/></g><path class="cls-4" d="M85.88,55.8a2.47,2.47,0,0,1,.47,1.53,2.41,2.41,0,0,1-.92,2A4,4,0,0,1,82.9,60H78.21V50.16h4.55a4,4,0,0,1,2.45.69,2.23,2.23,0,0,1,.9,1.88,2.32,2.32,0,0,1-.41,1.35,2.36,2.36,0,0,1-1.15.84A2.51,2.51,0,0,1,85.88,55.8Zm-5.54-1.62H82.4a2.08,2.08,0,0,0,1.24-.29A1,1,0,0,0,84,53a1,1,0,0,0-.4-.9,2.08,2.08,0,0,0-1.24-.29H80.34Zm3.57,3.89a1.1,1.1,0,0,0,.39-1,1.13,1.13,0,0,0-.39-1,2,2,0,0,0-1.26-.31H80.34v2.52h2.31A2.09,2.09,0,0,0,83.91,58.07Z"/><path class="cls-4" d="M95.39,60l-.94-2.18H89.86L88.92,60h-2.2l4.54-9.87H93L97.55,60ZM90.57,56.2h3.17l-1.58-3.7Z"/><path class="cls-4" d="M100.12,59.53a4.14,4.14,0,0,1-1.71-1.78,6.2,6.2,0,0,1,0-5.32,4.17,4.17,0,0,1,1.71-1.77,5.3,5.3,0,0,1,2.61-.62,5.86,5.86,0,0,1,1.87.3,4,4,0,0,1,1.47.83l-.7,1.56a4.6,4.6,0,0,0-1.28-.72,3.93,3.93,0,0,0-1.32-.22,2.52,2.52,0,0,0-2,.84,4.69,4.69,0,0,0,0,4.93,2.5,2.5,0,0,0,2,.85,4.2,4.2,0,0,0,1.32-.22,4.6,4.6,0,0,0,1.28-.72l.7,1.56a4,4,0,0,1-1.47.83,5.86,5.86,0,0,1-1.87.3A5.2,5.2,0,0,1,100.12,59.53Z"/><path class="cls-4" d="M116.67,60h-2.62l-4.28-4.55V60h-2.19V50.16h2.19V54.5l4.14-4.34h2.58l-4.59,4.72Z"/><path class="cls-4" d="M117.08,60V50.16h2.18v8.09h4.41V60Z"/><path class="cls-4" d="M126.38,59.54a4.26,4.26,0,0,1-1.67-1.77,6.38,6.38,0,0,1,0-5.36,4.18,4.18,0,0,1,1.67-1.76,5.66,5.66,0,0,1,5.11,0,4.18,4.18,0,0,1,1.67,1.76,6.38,6.38,0,0,1,0,5.36,4.26,4.26,0,0,1-1.67,1.77,5.57,5.57,0,0,1-5.11,0Zm4.49-1.94a4.8,4.8,0,0,0,0-5,2.63,2.63,0,0,0-3.89,0,4.86,4.86,0,0,0,0,5,2.61,2.61,0,0,0,3.87,0Z"/><path class="cls-4" d="M143.9,54.59v4.83a7.21,7.21,0,0,1-1.68.54,10,10,0,0,1-2,.2,5.65,5.65,0,0,1-2.71-.61,4.21,4.21,0,0,1-1.77-1.75,6.31,6.31,0,0,1,0-5.39,4.24,4.24,0,0,1,1.75-1.76,5.45,5.45,0,0,1,2.64-.61,6.43,6.43,0,0,1,2,.29,4.43,4.43,0,0,1,1.51.81L143,52.7a4.85,4.85,0,0,0-1.34-.71,4.53,4.53,0,0,0-1.41-.22q-2.85,0-2.85,3.32a3.79,3.79,0,0,0,.74,2.55,2.82,2.82,0,0,0,2.24.84,6.3,6.3,0,0,0,1.61-.21V56.1H140V54.59Z"/><rect class="cls-5" x="21" y="99.86" width="180" height="40" rx="3"/><path class="cls-4" d="M94,124v-8.67H90.69v-1.2h8.13v1.2H95.47V124Z"/><path class="cls-4" d="M103.78,117.66a2.89,2.89,0,0,1,.67,2.09V124h-1.36v-1.14a1.94,1.94,0,0,1-.79.92,2.35,2.35,0,0,1-1.23.32,2.84,2.84,0,0,1-1.23-.28A2.08,2.08,0,0,1,99,123a2,2,0,0,1-.32-1.09,1.65,1.65,0,0,1,.39-1.17,2.23,2.23,0,0,1,1.27-.61,12.92,12.92,0,0,1,2.44-.18h.33v-.41a1.61,1.61,0,0,0-.33-1.13,1.39,1.39,0,0,0-1.07-.35,4.48,4.48,0,0,0-2.33.71l-.42-1a4.67,4.67,0,0,1,1.33-.61,5,5,0,0,1,1.49-.23A2.73,2.73,0,0,1,103.78,117.66Zm-1.19,4.84a1.93,1.93,0,0,0,.49-1.35v-.36h-.26a12,12,0,0,0-1.68.09,1.66,1.66,0,0,0-.83.33.87.87,0,0,0-.26.67,1.08,1.08,0,0,0,.36.82,1.3,1.3,0,0,0,.92.33A1.66,1.66,0,0,0,102.59,122.5Z"/><path class="cls-4" d="M106,123.21l.43-1a3.9,3.9,0,0,0,2.45.81,2,2,0,0,0,1-.23.74.74,0,0,0,.36-.65.73.73,0,0,0-.24-.58,2.16,2.16,0,0,0-.85-.35l-1.13-.25a2.65,2.65,0,0,1-1.37-.69,1.63,1.63,0,0,1-.47-1.2,1.79,1.79,0,0,1,.75-1.5,3.18,3.18,0,0,1,2-.57,4,4,0,0,1,1.39.23,3.41,3.41,0,0,1,1.13.65l-.43,1a3.35,3.35,0,0,0-2.09-.79,1.73,1.73,0,0,0-1,.25.78.78,0,0,0-.38.68.72.72,0,0,0,.24.57,1.42,1.42,0,0,0,.73.33l1.16.27a2.85,2.85,0,0,1,1.46.69,1.65,1.65,0,0,1,.46,1.22,1.72,1.72,0,0,1-.75,1.47,3.38,3.38,0,0,1-2,.54A4.34,4.34,0,0,1,106,123.21Z"/><path class="cls-4" d="M119.57,124h-1.79l-3.24-3.22V124h-1.41v-9.87h1.41v6.12l3-3.07h1.75l-3.24,3.28Z"/><path class="cls-4" d="M124,114.11h6.68v1.08L126.06,124h-1.54l4.54-8.68H124Z"/><rect class="cls-5" x="21" y="149.86" width="180" height="40" rx="3"/><path class="cls-4" d="M94,174v-8.67H90.69v-1.2h8.13v1.2H95.47V174Z"/><path class="cls-4" d="M103.78,167.67a2.84,2.84,0,0,1,.67,2.08V174h-1.36v-1.13a2,2,0,0,1-.79.91,2.35,2.35,0,0,1-1.23.32,2.71,2.71,0,0,1-1.23-.28A2.08,2.08,0,0,1,99,173a2,2,0,0,1-.32-1.09,1.69,1.69,0,0,1,.39-1.17,2.29,2.29,0,0,1,1.27-.61,12.92,12.92,0,0,1,2.44-.18h.33v-.41a1.61,1.61,0,0,0-.33-1.13,1.43,1.43,0,0,0-1.07-.35,4.48,4.48,0,0,0-2.33.71l-.42-1a4.67,4.67,0,0,1,1.33-.61,5.3,5.3,0,0,1,1.49-.23A2.7,2.7,0,0,1,103.78,167.67Zm-1.19,4.83a1.93,1.93,0,0,0,.49-1.35v-.36h-.26a10.43,10.43,0,0,0-1.68.1,1.58,1.58,0,0,0-.83.32.87.87,0,0,0-.26.67,1.06,1.06,0,0,0,.36.82,1.3,1.3,0,0,0,.92.33A1.66,1.66,0,0,0,102.59,172.5Z"/><path class="cls-4" d="M106,173.21l.43-1a3.9,3.9,0,0,0,2.45.81,2,2,0,0,0,1-.23.79.79,0,0,0,.12-1.23,2.16,2.16,0,0,0-.85-.35l-1.13-.25a2.72,2.72,0,0,1-1.37-.68,1.67,1.67,0,0,1-.47-1.21,1.82,1.82,0,0,1,.75-1.5,3.18,3.18,0,0,1,2-.57,4.27,4.27,0,0,1,1.39.23,3.41,3.41,0,0,1,1.13.65l-.43,1a3.31,3.31,0,0,0-2.09-.8,1.73,1.73,0,0,0-1,.25.8.8,0,0,0-.38.69.71.71,0,0,0,.24.56,1.42,1.42,0,0,0,.73.33l1.16.27a2.93,2.93,0,0,1,1.46.69,1.66,1.66,0,0,1,.46,1.23,1.71,1.71,0,0,1-.75,1.46,3.38,3.38,0,0,1-2,.54A4.34,4.34,0,0,1,106,173.21Z"/><path class="cls-4" d="M119.57,174h-1.79l-3.24-3.22V174h-1.41v-9.87h1.41v6.12l3-3.07h1.75l-3.24,3.28Z"/><path class="cls-4" d="M130.42,169.81a2.56,2.56,0,0,1,.47,1.54,2.38,2.38,0,0,1-.94,2,4.33,4.33,0,0,1-2.67.72,4.28,4.28,0,0,1-2.66-.72,2.36,2.36,0,0,1-1-2,2.54,2.54,0,0,1,.48-1.56,2.45,2.45,0,0,1,1.35-.88,2.53,2.53,0,0,1-1.17-.88,2.39,2.39,0,0,1-.42-1.4,2.36,2.36,0,0,1,.89-1.93,4.74,4.74,0,0,1,5,0,2.34,2.34,0,0,1,.9,1.93,2.45,2.45,0,0,1-.43,1.41,2.42,2.42,0,0,1-1.16.87A2.5,2.5,0,0,1,130.42,169.81Zm-.91,1.44c0-1.12-.74-1.68-2.23-1.68s-2.22.56-2.22,1.68.74,1.67,2.22,1.67S129.51,172.36,129.51,171.25Zm-3.71-5.68a1.45,1.45,0,0,0-.51,1.19,1.47,1.47,0,0,0,.51,1.21,2.25,2.25,0,0,0,1.48.42,2.3,2.3,0,0,0,1.49-.42,1.5,1.5,0,0,0,.5-1.21,1.47,1.47,0,0,0-.5-1.19,2.36,2.36,0,0,0-1.49-.41A2.31,2.31,0,0,0,125.8,165.57Z"/><rect class="cls-5" x="21" y="199.94" width="180" height="40" rx="3"/><path class="cls-4" d="M94,224.06V215.4H90.69v-1.21h8.13v1.21H95.47v8.66Z"/><path class="cls-4" d="M103.78,217.75a2.86,2.86,0,0,1,.67,2.08v4.23h-1.36v-1.13a2,2,0,0,1-.79.92,2.34,2.34,0,0,1-1.23.31,2.84,2.84,0,0,1-1.23-.27,2.1,2.1,0,0,1-.87-.77,2,2,0,0,1-.32-1.09,1.69,1.69,0,0,1,.39-1.17,2.36,2.36,0,0,1,1.27-.61,12.92,12.92,0,0,1,2.44-.18h.33v-.4a1.63,1.63,0,0,0-.33-1.14,1.43,1.43,0,0,0-1.07-.35,4.4,4.4,0,0,0-2.33.72l-.42-1a5,5,0,0,1,1.33-.61,5.3,5.3,0,0,1,1.49-.23A2.7,2.7,0,0,1,103.78,217.75Zm-1.19,4.84a1.94,1.94,0,0,0,.49-1.36v-.36h-.26a10.43,10.43,0,0,0-1.68.1,1.5,1.5,0,0,0-.83.33.84.84,0,0,0-.26.66,1.06,1.06,0,0,0,.36.82,1.3,1.3,0,0,0,.92.33A1.65,1.65,0,0,0,102.59,222.59Z"/><path class="cls-4" d="M106,223.29l.43-1a3.9,3.9,0,0,0,2.45.81,1.9,1.9,0,0,0,1-.23.78.78,0,0,0,.12-1.22,2,2,0,0,0-.85-.35L108,221a2.64,2.64,0,0,1-1.37-.68,1.67,1.67,0,0,1-.47-1.21,1.79,1.79,0,0,1,.75-1.49,3.12,3.12,0,0,1,2-.58,4.27,4.27,0,0,1,1.39.23,3.59,3.59,0,0,1,1.13.65l-.43,1a3.37,3.37,0,0,0-2.09-.8,1.73,1.73,0,0,0-1,.25.8.8,0,0,0-.38.69.75.75,0,0,0,.24.57,1.51,1.51,0,0,0,.73.32l1.16.27a2.93,2.93,0,0,1,1.46.69,1.68,1.68,0,0,1,.46,1.23,1.71,1.71,0,0,1-.75,1.46,3.38,3.38,0,0,1-2,.54A4.34,4.34,0,0,1,106,223.29Z"/><path class="cls-4" d="M119.57,224.06h-1.79l-3.24-3.22v3.22h-1.41v-9.87h1.41v6.12l3-3.07h1.75l-3.24,3.28Z"/><path class="cls-4" d="M129.8,215.33a5.73,5.73,0,0,1,1,3.58,7.58,7.58,0,0,1-.47,2.84,3.91,3.91,0,0,1-1.34,1.8,3.51,3.51,0,0,1-2.11.62,4.9,4.9,0,0,1-1.69-.3,4.31,4.31,0,0,1-1.43-.89l.5-1.06a4.2,4.2,0,0,0,2.58,1.08,2.07,2.07,0,0,0,1.86-1.06,5.66,5.66,0,0,0,.66-3v0a2.38,2.38,0,0,1-1,1.13,3,3,0,0,1-1.56.41,3.07,3.07,0,0,1-1.58-.4,2.77,2.77,0,0,1-1.09-1.11,3.37,3.37,0,0,1-.38-1.64,3.28,3.28,0,0,1,.42-1.66,3,3,0,0,1,1.15-1.15,3.75,3.75,0,0,1,4.5.84Zm-1.32,3.39a2,2,0,0,0,.55-1.45,2,2,0,0,0-.54-1.46,2,2,0,0,0-1.45-.55,1.83,1.83,0,0,0-1.39.55,2,2,0,0,0-.52,1.46,2,2,0,0,0,.52,1.45,1.83,1.83,0,0,0,1.39.55A1.94,1.94,0,0,0,128.48,218.72Z"/><path class="cls-1" d="M233,134.16l-11.17,11.18V118.75L233,129.92A3,3,0,0,1,233,134.16Z"/><rect class="cls-1" x="254" width="222" height="264.09" rx="5"/><g id="_1-4-2" data-name=" 1-4" class="cls-2"><polygon class="cls-3" points="455.16 78.85 274.84 78.85 274.84 79.85 455.16 79.85 455.16 78.85 455.16 78.85"/></g><path class="cls-4" d="M345.88,60V51.94h-3.1V50.16h8.37v1.78h-3.09V60Z"/><path class="cls-4" d="M353.72,59.54a4.26,4.26,0,0,1-1.67-1.77,6.38,6.38,0,0,1,0-5.36,4.18,4.18,0,0,1,1.67-1.76,5.13,5.13,0,0,1,2.56-.61,5.07,5.07,0,0,1,2.55.61,4.2,4.2,0,0,1,1.68,1.76,6.48,6.48,0,0,1,0,5.36,4.28,4.28,0,0,1-1.68,1.77,5.07,5.07,0,0,1-2.55.62A5.13,5.13,0,0,1,353.72,59.54Zm4.5-1.94a4.83,4.83,0,0,0,0-5,2.62,2.62,0,0,0-3.88,0,4.86,4.86,0,0,0,0,5,2.33,2.33,0,0,0,1.93.86A2.36,2.36,0,0,0,358.22,57.6Z"/><path class="cls-4" d="M366.67,50.16h3.83a6.09,6.09,0,0,1,2.77.59,4.07,4.07,0,0,1,1.78,1.7,5.31,5.31,0,0,1,.62,2.64,5.38,5.38,0,0,1-.61,2.65,4.12,4.12,0,0,1-1.77,1.71,6.18,6.18,0,0,1-2.79.58h-3.83Zm3.68,8.11q3.15,0,3.15-3.18t-3.15-3.16h-1.5v6.34Z"/><path class="cls-4" d="M379.33,59.54a4.26,4.26,0,0,1-1.67-1.77,6.38,6.38,0,0,1,0-5.36,4.18,4.18,0,0,1,1.67-1.76,5.66,5.66,0,0,1,5.11,0,4.18,4.18,0,0,1,1.67,1.76,6.38,6.38,0,0,1,0,5.36,4.26,4.26,0,0,1-1.67,1.77,5.57,5.57,0,0,1-5.11,0Zm4.49-1.94a4.8,4.8,0,0,0,0-5,2.63,2.63,0,0,0-3.89,0,4.86,4.86,0,0,0,0,5,2.61,2.61,0,0,0,3.87,0Z"/><rect class="cls-5" x="275" y="99.86" width="180" height="40" rx="3"/><path class="cls-4" d="M348,124v-8.67h-3.33v-1.2h8.13v1.2h-3.35V124Z"/><path class="cls-4" d="M357.78,117.66a2.89,2.89,0,0,1,.67,2.09V124h-1.36v-1.14a1.94,1.94,0,0,1-.79.92,2.35,2.35,0,0,1-1.23.32,2.84,2.84,0,0,1-1.23-.28A2.08,2.08,0,0,1,353,123a2,2,0,0,1-.32-1.09,1.65,1.65,0,0,1,.39-1.17,2.23,2.23,0,0,1,1.27-.61,12.92,12.92,0,0,1,2.44-.18h.33v-.41a1.61,1.61,0,0,0-.33-1.13,1.39,1.39,0,0,0-1.07-.35,4.48,4.48,0,0,0-2.33.71l-.42-1a4.67,4.67,0,0,1,1.33-.61,5,5,0,0,1,1.49-.23A2.73,2.73,0,0,1,357.78,117.66Zm-1.19,4.84a1.93,1.93,0,0,0,.49-1.35v-.36h-.26a12,12,0,0,0-1.68.09,1.66,1.66,0,0,0-.83.33.87.87,0,0,0-.26.67,1.08,1.08,0,0,0,.36.82,1.3,1.3,0,0,0,.92.33A1.66,1.66,0,0,0,356.59,122.5Z"/><path class="cls-4" d="M360,123.21l.43-1a3.9,3.9,0,0,0,2.45.81,2,2,0,0,0,1.05-.23.74.74,0,0,0,.36-.65.73.73,0,0,0-.24-.58,2.16,2.16,0,0,0-.85-.35l-1.13-.25a2.65,2.65,0,0,1-1.37-.69,1.63,1.63,0,0,1-.47-1.2,1.79,1.79,0,0,1,.75-1.5,3.18,3.18,0,0,1,2-.57,4,4,0,0,1,1.39.23,3.41,3.41,0,0,1,1.13.65l-.43,1a3.35,3.35,0,0,0-2.09-.79,1.73,1.73,0,0,0-1,.25.78.78,0,0,0-.38.68.72.72,0,0,0,.24.57,1.42,1.42,0,0,0,.73.33l1.16.27a2.85,2.85,0,0,1,1.46.69,1.65,1.65,0,0,1,.46,1.22,1.72,1.72,0,0,1-.75,1.47,3.38,3.38,0,0,1-2,.54A4.34,4.34,0,0,1,360,123.21Z"/><path class="cls-4" d="M373.57,124h-1.79l-3.24-3.22V124h-1.41v-9.87h1.41v6.12l3-3.07h1.75l-3.24,3.28Z"/><path class="cls-4" d="M383.38,118.13a2.75,2.75,0,0,1,1.09,1.1,3.48,3.48,0,0,1,.38,1.64,3.23,3.23,0,0,1-.43,1.68,2.88,2.88,0,0,1-1.21,1.13,4.12,4.12,0,0,1-1.84.4,5.12,5.12,0,0,1-1.8-.33,4.19,4.19,0,0,1-1.48-.86l.5-1.07a4.38,4.38,0,0,0,2.79,1.08,2.18,2.18,0,0,0,1.53-.52,2,2,0,0,0-1.46-3.48,2.66,2.66,0,0,0-2.14,1h-.93v-5.79h6.05v1.16h-4.62v3.11a2.92,2.92,0,0,1,1.95-.65A3.19,3.19,0,0,1,383.38,118.13Z"/><rect class="cls-5" x="275" y="149.86" width="180" height="40" rx="3"/><path class="cls-4" d="M348,174v-8.67h-3.34v-1.2h8.14v1.2h-3.35V174Z"/><path class="cls-4" d="M357.79,167.67a2.89,2.89,0,0,1,.67,2.08V174H357.1v-1.13a2,2,0,0,1-.79.91,2.35,2.35,0,0,1-1.23.32,2.65,2.65,0,0,1-1.23-.28A2.11,2.11,0,0,1,353,173a2.06,2.06,0,0,1-.31-1.09,1.69,1.69,0,0,1,.39-1.17,2.29,2.29,0,0,1,1.27-.61,12.92,12.92,0,0,1,2.44-.18h.32v-.41a1.61,1.61,0,0,0-.33-1.13,1.4,1.4,0,0,0-1.07-.35,4.47,4.47,0,0,0-2.32.71l-.42-1a4.48,4.48,0,0,1,1.32-.61,5.41,5.41,0,0,1,1.49-.23A2.71,2.71,0,0,1,357.79,167.67Zm-1.2,4.83a1.89,1.89,0,0,0,.49-1.35v-.36h-.25a10.26,10.26,0,0,0-1.68.1,1.66,1.66,0,0,0-.84.32.87.87,0,0,0-.25.67,1.06,1.06,0,0,0,.36.82,1.27,1.27,0,0,0,.91.33A1.63,1.63,0,0,0,356.59,172.5Z"/><path class="cls-4" d="M360,173.21l.44-1a3.88,3.88,0,0,0,2.45.81,2,2,0,0,0,1.05-.23.79.79,0,0,0,.12-1.23,2.23,2.23,0,0,0-.85-.35l-1.13-.25a2.8,2.8,0,0,1-1.38-.68,1.7,1.7,0,0,1-.46-1.21,1.82,1.82,0,0,1,.75-1.5,3.18,3.18,0,0,1,2-.57,4.25,4.25,0,0,1,1.38.23,3.36,3.36,0,0,1,1.14.65l-.44,1a3.26,3.26,0,0,0-2.08-.8,1.79,1.79,0,0,0-1,.25.79.79,0,0,0-.37.69.74.74,0,0,0,.23.56,1.5,1.5,0,0,0,.74.33l1.16.27a3,3,0,0,1,1.46.69,1.83,1.83,0,0,1-.29,2.69,3.4,3.4,0,0,1-2,.54A4.37,4.37,0,0,1,360,173.21Z"/><path class="cls-4" d="M373.58,174h-1.8l-3.23-3.22V174h-1.41v-9.87h1.41v6.12l3-3.07h1.75l-3.24,3.28Z"/><path class="cls-4" d="M383.38,168.12a2.88,2.88,0,0,1,1.08,1.11,3.4,3.4,0,0,1,.39,1.64,3.28,3.28,0,0,1-.42,1.66,3,3,0,0,1-1.15,1.15,3.44,3.44,0,0,1-1.67.41,3.4,3.4,0,0,1-2.82-1.25,5.67,5.67,0,0,1-1-3.58,7.69,7.69,0,0,1,.47-2.83,3.81,3.81,0,0,1,1.34-1.81,3.59,3.59,0,0,1,2.1-.62,4.68,4.68,0,0,1,1.69.31,4.21,4.21,0,0,1,1.45.88l-.52,1.06a4.11,4.11,0,0,0-2.58-1.08,2.09,2.09,0,0,0-1.86,1.06,5.71,5.71,0,0,0-.66,3v.05a2.43,2.43,0,0,1,1-1.15,3,3,0,0,1,1.56-.41A3.08,3.08,0,0,1,383.38,168.12Zm-.45,4.24a2.07,2.07,0,0,0,.52-1.46,2,2,0,0,0-.53-1.46,1.85,1.85,0,0,0-1.39-.54,1.94,1.94,0,0,0-1.43.55,2,2,0,0,0-.56,1.45,2,2,0,0,0,.55,1.46,2,2,0,0,0,1.45.56A1.82,1.82,0,0,0,382.93,172.36Z"/><path class="cls-1" d="M487,134.16l-11.17,11.18V118.75L487,129.92A3,3,0,0,1,487,134.16Z"/><rect class="cls-1" x="508.08" width="222" height="264.09" rx="5"/><g id="_1-4-3" data-name=" 1-4" class="cls-2"><polygon class="cls-3" points="709.24 78.85 528.93 78.85 528.93 79.85 709.24 79.85 709.24 78.85 709.24 78.85"/></g><path class="cls-4" d="M572.45,60V50.16h2.18V60Z"/><path class="cls-4" d="M583.12,50.16h2V60h-1.62l-4.92-6.28V60h-2V50.16h1.61l4.92,6.26Z"/><path class="cls-4" d="M591,50.16h4.53a3.56,3.56,0,0,1,2.51.82,3.3,3.3,0,0,1,0,4.53,3.61,3.61,0,0,1-2.51.81h-2.35V60H591Zm4.25,4.51c1.1,0,1.64-.47,1.64-1.41a1.34,1.34,0,0,0-.4-1.08,1.91,1.91,0,0,0-1.24-.35h-2.07v2.84Z"/><path class="cls-4" d="M609,60h-2.38l-1.71-3.15a1.39,1.39,0,0,0-.5-.52,1.54,1.54,0,0,0-.75-.16h-1.07V60h-2.16V50.16h4.54a3.92,3.92,0,0,1,2.62.77,2.73,2.73,0,0,1,.89,2.2,2.9,2.9,0,0,1-.62,1.88,3,3,0,0,1-1.76,1,2.15,2.15,0,0,1,1.3,1.11Zm-3-5.81a1.49,1.49,0,0,0,0-2.07,2.29,2.29,0,0,0-1.36-.32h-2.08v2.71h2.08A2.21,2.21,0,0,0,606,54.22Z"/><path class="cls-4" d="M612.1,59.54a4.26,4.26,0,0,1-1.67-1.77,6.38,6.38,0,0,1,0-5.36,4.18,4.18,0,0,1,1.67-1.76,5.68,5.68,0,0,1,5.12,0,4.18,4.18,0,0,1,1.67,1.76,6.38,6.38,0,0,1,0,5.36,4.26,4.26,0,0,1-1.67,1.77,5.6,5.6,0,0,1-5.12,0Zm4.5-1.94a4.8,4.8,0,0,0,0-5,2.39,2.39,0,0,0-2-.86,2.36,2.36,0,0,0-1.94.86,4.86,4.86,0,0,0,0,5,2.33,2.33,0,0,0,1.93.86A2.36,2.36,0,0,0,616.6,57.6Z"/><path class="cls-4" d="M629.63,54.59v4.83A7.21,7.21,0,0,1,628,60a10.1,10.1,0,0,1-2,.2,5.69,5.69,0,0,1-2.72-.61,4.24,4.24,0,0,1-1.76-1.75,5.62,5.62,0,0,1-.62-2.71,5.55,5.55,0,0,1,.61-2.68,4.28,4.28,0,0,1,1.74-1.76,5.49,5.49,0,0,1,2.65-.61,6.32,6.32,0,0,1,2,.29,4.48,4.48,0,0,1,1.52.81l-.69,1.56a4.81,4.81,0,0,0-1.33-.71,4.63,4.63,0,0,0-1.41-.22c-1.9,0-2.86,1.11-2.86,3.32a3.79,3.79,0,0,0,.74,2.55,2.86,2.86,0,0,0,2.25.84,6.36,6.36,0,0,0,1.61-.21V56.1h-1.94V54.59Z"/><path class="cls-4" d="M640,60h-2.38L636,56.88a1.39,1.39,0,0,0-.5-.52,1.5,1.5,0,0,0-.74-.16h-1.08V60h-2.16V50.16H636a4,4,0,0,1,2.63.77,2.73,2.73,0,0,1,.88,2.2A2.84,2.84,0,0,1,638.9,55a3,3,0,0,1-1.76,1,2.17,2.17,0,0,1,1.31,1.11Zm-3-5.81a1.49,1.49,0,0,0,0-2.07,2.31,2.31,0,0,0-1.36-.32H633.6v2.71h2.09A2.23,2.23,0,0,0,637.05,54.22Z"/><path class="cls-4" d="M641.29,60V50.16h6.8v1.7h-4.67v2.31h4.39v1.69h-4.39v2.48h4.67V60Z"/><path class="cls-4" d="M650.75,59.86A5.2,5.2,0,0,1,649,59l.7-1.56a5.49,5.49,0,0,0,3.2,1,2.72,2.72,0,0,0,1.43-.3.92.92,0,0,0,.49-.83.82.82,0,0,0-.45-.74,6.09,6.09,0,0,0-1.62-.52,9.22,9.22,0,0,1-2.08-.64,2.75,2.75,0,0,1-1.13-.93,2.47,2.47,0,0,1-.36-1.37,2.66,2.66,0,0,1,.5-1.59,3.21,3.21,0,0,1,1.39-1.1,5,5,0,0,1,2.07-.4,6.88,6.88,0,0,1,2,.3,4.31,4.31,0,0,1,1.54.83l-.7,1.56a4.69,4.69,0,0,0-2.85-1,2.41,2.41,0,0,0-1.35.33,1,1,0,0,0-.49.9.86.86,0,0,0,.19.56,1.66,1.66,0,0,0,.63.38,9.77,9.77,0,0,0,1.26.35,6.92,6.92,0,0,1,2.73,1.08,2.18,2.18,0,0,1,.83,1.82,2.58,2.58,0,0,1-1.07,2.2,4.92,4.92,0,0,1-3,.81A7.72,7.72,0,0,1,650.75,59.86Z"/><path class="cls-4" d="M659.87,59.86a5.16,5.16,0,0,1-1.73-.83l.7-1.56a5.52,5.52,0,0,0,3.21,1,2.68,2.68,0,0,0,1.42-.3.92.92,0,0,0,.5-.83.83.83,0,0,0-.46-.74,6,6,0,0,0-1.62-.52,9.12,9.12,0,0,1-2.07-.64,2.79,2.79,0,0,1-1.14-.93,2.47,2.47,0,0,1-.36-1.37,2.66,2.66,0,0,1,.5-1.59,3.24,3.24,0,0,1,1.4-1.1,4.93,4.93,0,0,1,2.07-.4,6.81,6.81,0,0,1,2,.3,4.36,4.36,0,0,1,1.55.83l-.7,1.56a4.74,4.74,0,0,0-2.86-1,2.35,2.35,0,0,0-1.34.33,1,1,0,0,0-.49.9.81.81,0,0,0,.19.56,1.51,1.51,0,0,0,.63.38,9.54,9.54,0,0,0,1.25.35,7,7,0,0,1,2.74,1.08,2.21,2.21,0,0,1,.83,1.82,2.59,2.59,0,0,1-1.08,2.2,4.92,4.92,0,0,1-3,.81A7.65,7.65,0,0,1,659.87,59.86Z"/><rect class="cls-5" x="529.08" y="99.86" width="180" height="40" rx="3"/><path class="cls-4" d="M602.1,124v-8.67h-3.33v-1.2h8.13v1.2h-3.34V124Z"/><path class="cls-4" d="M611.87,117.66a2.93,2.93,0,0,1,.66,2.09V124h-1.36v-1.14a1.89,1.89,0,0,1-.79.92,2.34,2.34,0,0,1-1.22.32,2.78,2.78,0,0,1-1.23-.28,2,2,0,0,1-.88-.76,2,2,0,0,1-.31-1.09,1.65,1.65,0,0,1,.38-1.17,2.26,2.26,0,0,1,1.27-.61,13,13,0,0,1,2.45-.18h.32v-.41a1.61,1.61,0,0,0-.33-1.13,1.39,1.39,0,0,0-1.07-.35,4.42,4.42,0,0,0-2.32.71l-.42-1a4.48,4.48,0,0,1,1.32-.61,5,5,0,0,1,1.49-.23A2.77,2.77,0,0,1,611.87,117.66Zm-1.2,4.84a1.89,1.89,0,0,0,.49-1.35v-.36h-.25a11.82,11.82,0,0,0-1.68.09,1.75,1.75,0,0,0-.84.33.87.87,0,0,0-.25.67,1.07,1.07,0,0,0,.35.82,1.31,1.31,0,0,0,.92.33A1.66,1.66,0,0,0,610.67,122.5Z"/><path class="cls-4" d="M614,123.21l.43-1a3.9,3.9,0,0,0,2.45.81,2,2,0,0,0,1.05-.23.73.73,0,0,0,.37-.65.7.7,0,0,0-.25-.58,2.09,2.09,0,0,0-.85-.35l-1.13-.25a2.69,2.69,0,0,1-1.37-.69,1.62,1.62,0,0,1-.46-1.2,1.79,1.79,0,0,1,.75-1.5,3.15,3.15,0,0,1,2-.57,4,4,0,0,1,1.39.23,3.22,3.22,0,0,1,1.13.65l-.43,1a3.33,3.33,0,0,0-2.09-.79,1.76,1.76,0,0,0-1,.25.77.77,0,0,0-.37.68.71.71,0,0,0,.23.57,1.46,1.46,0,0,0,.73.33l1.16.27a2.85,2.85,0,0,1,1.46.69,1.65,1.65,0,0,1,.46,1.22,1.72,1.72,0,0,1-.75,1.47,3.38,3.38,0,0,1-2,.54A4.36,4.36,0,0,1,614,123.21Z"/><path class="cls-4" d="M627.65,124h-1.79l-3.23-3.22V124h-1.42v-9.87h1.42v6.12l3-3.07h1.75l-3.23,3.28Z"/><path class="cls-4" d="M638.14,119.77a2.74,2.74,0,0,1-.45,3.56,3.77,3.77,0,0,1-2.47.75,5.61,5.61,0,0,1-1.87-.32,4.24,4.24,0,0,1-1.5-.87l.52-1.07a4.39,4.39,0,0,0,2.81,1.08,2.27,2.27,0,0,0,1.51-.43,1.54,1.54,0,0,0,.51-1.26,1.48,1.48,0,0,0-.53-1.24,2.52,2.52,0,0,0-1.59-.42h-1.21v-1.16h1a2.44,2.44,0,0,0,1.56-.43,1.49,1.49,0,0,0,.54-1.25,1.45,1.45,0,0,0-.45-1.14,1.82,1.82,0,0,0-1.26-.4,4.3,4.3,0,0,0-2.74,1.08l-.51-1.06a4.1,4.1,0,0,1,1.48-.88,5.47,5.47,0,0,1,1.84-.31,3.37,3.37,0,0,1,2.22.68,2.3,2.3,0,0,1,.82,1.86A2.73,2.73,0,0,1,638,118a2.34,2.34,0,0,1-1.14.91A2.4,2.4,0,0,1,638.14,119.77Z"/><rect class="cls-5" x="529.08" y="149.86" width="180" height="40" rx="3"/><path class="cls-4" d="M602.1,174v-8.67h-3.33v-1.2h8.13v1.2h-3.34V174Z"/><path class="cls-4" d="M611.87,167.67a2.89,2.89,0,0,1,.66,2.08V174h-1.36v-1.13a1.91,1.91,0,0,1-.79.91,2.34,2.34,0,0,1-1.22.32,2.65,2.65,0,0,1-1.23-.28,2,2,0,0,1-.88-.76,2,2,0,0,1-.31-1.09,1.68,1.68,0,0,1,.38-1.17,2.33,2.33,0,0,1,1.27-.61,13,13,0,0,1,2.45-.18h.32v-.41a1.61,1.61,0,0,0-.33-1.13,1.43,1.43,0,0,0-1.07-.35,4.42,4.42,0,0,0-2.32.71l-.42-1a4.48,4.48,0,0,1,1.32-.61,5.35,5.35,0,0,1,1.49-.23A2.74,2.74,0,0,1,611.87,167.67Zm-1.2,4.83a1.89,1.89,0,0,0,.49-1.35v-.36h-.25a10.26,10.26,0,0,0-1.68.1,1.66,1.66,0,0,0-.84.32.87.87,0,0,0-.25.67,1.05,1.05,0,0,0,.35.82,1.31,1.31,0,0,0,.92.33A1.66,1.66,0,0,0,610.67,172.5Z"/><path class="cls-4" d="M614,173.21l.43-1a3.9,3.9,0,0,0,2.45.81,2,2,0,0,0,1.05-.23.73.73,0,0,0,.37-.65.72.72,0,0,0-.25-.58,2.09,2.09,0,0,0-.85-.35l-1.13-.25a2.76,2.76,0,0,1-1.37-.68,1.66,1.66,0,0,1-.46-1.21,1.82,1.82,0,0,1,.75-1.5,3.15,3.15,0,0,1,2-.57,4.27,4.27,0,0,1,1.39.23,3.22,3.22,0,0,1,1.13.65l-.43,1a3.29,3.29,0,0,0-2.09-.8,1.76,1.76,0,0,0-1,.25.79.79,0,0,0-.37.69.7.7,0,0,0,.23.56,1.46,1.46,0,0,0,.73.33l1.16.27a2.93,2.93,0,0,1,1.46.69,1.66,1.66,0,0,1,.46,1.23,1.71,1.71,0,0,1-.75,1.46,3.38,3.38,0,0,1-2,.54A4.36,4.36,0,0,1,614,173.21Z"/><path class="cls-4" d="M627.65,174h-1.79l-3.23-3.22V174h-1.42v-9.87h1.42v6.12l3-3.07h1.75l-3.23,3.28Z"/><path class="cls-4" d="M639.12,170.79v1.15h-1.45v2h-1.41v-2h-4.44v-1.08l4.68-6.75h1.17v6.68Zm-5.88,0h3v-4.37Z"/><path class="cls-1" d="M741.15,134.16,730,145.34V118.75l11.18,11.17A3,3,0,0,1,741.15,134.16Z"/><rect class="cls-6" x="762.15" width="222" height="264.09" rx="5"/><g id="_1-4-4" data-name=" 1-4" class="cls-2"><polygon class="cls-3" points="963.3 78.85 782.99 78.85 782.99 79.85 963.3 79.85 963.3 78.85 963.3 78.85"/></g><path class="cls-5" d="M853.86,50.16h3.84a6.12,6.12,0,0,1,2.77.59,4.12,4.12,0,0,1,1.78,1.7,5.31,5.31,0,0,1,.61,2.64,5.38,5.38,0,0,1-.61,2.65,4,4,0,0,1-1.77,1.71,6.1,6.1,0,0,1-2.78.58h-3.84Zm3.68,8.11q3.15,0,3.15-3.18t-3.15-3.16h-1.49v6.34Z"/><path class="cls-5" d="M866.52,59.54a4.26,4.26,0,0,1-1.67-1.77,6.38,6.38,0,0,1,0-5.36,4.18,4.18,0,0,1,1.67-1.76,5.13,5.13,0,0,1,2.56-.61,5.07,5.07,0,0,1,2.55.61,4.2,4.2,0,0,1,1.68,1.76,6.48,6.48,0,0,1,0,5.36,4.28,4.28,0,0,1-1.68,1.77,5.07,5.07,0,0,1-2.55.62A5.13,5.13,0,0,1,866.52,59.54ZM871,57.6a4.83,4.83,0,0,0,0-5,2.62,2.62,0,0,0-3.88,0,4.86,4.86,0,0,0,0,5,2.33,2.33,0,0,0,1.93.86A2.36,2.36,0,0,0,871,57.6Z"/><path class="cls-5" d="M882.08,50.16h2V60H882.5l-4.91-6.28V60h-2V50.16h1.61l4.91,6.26Z"/><path class="cls-5" d="M886.09,60V50.16h6.8v1.7h-4.67v2.31h4.39v1.69h-4.39v2.48h4.67V60Z"/><rect class="cls-7" x="783.15" y="99.86" width="180" height="40" rx="3"/><path class="cls-5" d="M856.16,124v-8.67h-3.33v-1.2H861v1.2h-3.35V124Z"/><path class="cls-5" d="M865.93,117.66a2.93,2.93,0,0,1,.66,2.09V124h-1.35v-1.14a1.94,1.94,0,0,1-.79.92,2.35,2.35,0,0,1-1.23.32,2.78,2.78,0,0,1-1.23-.28,2,2,0,0,1-.88-.76,2,2,0,0,1-.31-1.09,1.7,1.7,0,0,1,.38-1.17,2.26,2.26,0,0,1,1.28-.61,12.85,12.85,0,0,1,2.44-.18h.32v-.41a1.61,1.61,0,0,0-.33-1.13,1.38,1.38,0,0,0-1.07-.35,4.44,4.44,0,0,0-2.32.71l-.42-1a4.48,4.48,0,0,1,1.32-.61,5.06,5.06,0,0,1,1.49-.23A2.74,2.74,0,0,1,865.93,117.66Zm-1.2,4.84a1.89,1.89,0,0,0,.49-1.35v-.36H865a11.82,11.82,0,0,0-1.68.09,1.75,1.75,0,0,0-.84.33.87.87,0,0,0-.25.67,1.08,1.08,0,0,0,.36.82,1.27,1.27,0,0,0,.91.33A1.66,1.66,0,0,0,864.73,122.5Z"/><path class="cls-5" d="M868.09,123.21l.44-1A3.88,3.88,0,0,0,871,123a2,2,0,0,0,1-.23.74.74,0,0,0,.36-.65.7.7,0,0,0-.25-.58,2.1,2.1,0,0,0-.84-.35l-1.14-.25a2.73,2.73,0,0,1-1.37-.69,1.62,1.62,0,0,1-.46-1.2,1.79,1.79,0,0,1,.75-1.5,3.16,3.16,0,0,1,2-.57,4,4,0,0,1,1.38.23,3.36,3.36,0,0,1,1.14.65l-.44,1a3.33,3.33,0,0,0-2.08-.79,1.79,1.79,0,0,0-1,.25.77.77,0,0,0-.37.68.75.75,0,0,0,.23.57,1.5,1.5,0,0,0,.74.33l1.16.27a2.81,2.81,0,0,1,1.45.69,1.66,1.66,0,0,1,.47,1.22,1.72,1.72,0,0,1-.75,1.47,3.42,3.42,0,0,1-2,.54A4.36,4.36,0,0,1,868.09,123.21Z"/><path class="cls-5" d="M881.71,124h-1.79l-3.23-3.22V124h-1.42v-9.87h1.42v6.12l3-3.07h1.75l-3.23,3.28Z"/><path class="cls-5" d="M890.55,122.79h2.17V124H887v-1.19h2.16v-7l-1.73,1-.61-1.08,2.74-1.69h1Z"/><rect class="cls-7" x="783.15" y="149.86" width="180" height="40" rx="3"/><path class="cls-5" d="M856.16,174v-8.67h-3.33v-1.2H861v1.2h-3.35V174Z"/><path class="cls-5" d="M865.93,167.67a2.89,2.89,0,0,1,.66,2.08V174h-1.35v-1.13a2,2,0,0,1-.79.91,2.35,2.35,0,0,1-1.23.32,2.65,2.65,0,0,1-1.23-.28,2,2,0,0,1-.88-.76,2,2,0,0,1-.31-1.09,1.73,1.73,0,0,1,.38-1.17,2.32,2.32,0,0,1,1.28-.61,12.85,12.85,0,0,1,2.44-.18h.32v-.41a1.61,1.61,0,0,0-.33-1.13,1.42,1.42,0,0,0-1.07-.35,4.44,4.44,0,0,0-2.32.71l-.42-1a4.48,4.48,0,0,1,1.32-.61,5.41,5.41,0,0,1,1.49-.23A2.71,2.71,0,0,1,865.93,167.67Zm-1.2,4.83a1.89,1.89,0,0,0,.49-1.35v-.36H865a10.26,10.26,0,0,0-1.68.1,1.66,1.66,0,0,0-.84.32.87.87,0,0,0-.25.67,1.06,1.06,0,0,0,.36.82,1.27,1.27,0,0,0,.91.33A1.66,1.66,0,0,0,864.73,172.5Z"/><path class="cls-5" d="M868.09,173.21l.44-1A3.88,3.88,0,0,0,871,173a2,2,0,0,0,1-.23.74.74,0,0,0,.36-.65.72.72,0,0,0-.25-.58,2.1,2.1,0,0,0-.84-.35l-1.14-.25a2.8,2.8,0,0,1-1.37-.68,1.66,1.66,0,0,1-.46-1.21,1.82,1.82,0,0,1,.75-1.5,3.16,3.16,0,0,1,2-.57,4.25,4.25,0,0,1,1.38.23,3.36,3.36,0,0,1,1.14.65l-.44,1a3.28,3.28,0,0,0-2.08-.8,1.79,1.79,0,0,0-1,.25.79.79,0,0,0-.37.69.74.74,0,0,0,.23.56,1.5,1.5,0,0,0,.74.33l1.16.27a2.89,2.89,0,0,1,1.45.69,1.67,1.67,0,0,1,.47,1.23,1.71,1.71,0,0,1-.75,1.46,3.42,3.42,0,0,1-2,.54A4.36,4.36,0,0,1,868.09,173.21Z"/><path class="cls-5" d="M881.71,174h-1.79l-3.23-3.22V174h-1.42v-9.87h1.42v6.12l3-3.07h1.75l-3.23,3.28Z"/><path class="cls-5" d="M892.81,172.79V174h-6.46V172.9l3.4-3.72a5.78,5.78,0,0,0,1-1.3,2.58,2.58,0,0,0,.3-1.17,1.45,1.45,0,0,0-.44-1.14,1.76,1.76,0,0,0-1.25-.4,4.4,4.4,0,0,0-2.74,1.08l-.5-1.06a4.06,4.06,0,0,1,1.48-.87,5.2,5.2,0,0,1,1.81-.32,3.34,3.34,0,0,1,2.24.7,2.4,2.4,0,0,1,.82,1.92,3.66,3.66,0,0,1-.37,1.62,7.25,7.25,0,0,1-1.24,1.72l-2.64,2.83Z"/></g></g></svg>