<svg width="70" height="66" viewBox="0 0 70 66" fill="none" xmlns="http://www.w3.org/2000/svg">
<path d="M68.8333 56.3332H65.3333V23.6665H63V56.3332H7V31.8332H4.66667V56.3332H1.16667C0.522379 56.3332 0 56.8555 0 57.4998V62.1665C0 64.0994 1.56714 65.6665 3.5 65.6665H66.5C68.4329 65.6665 70 64.0994 70 62.1665V57.4998C70 56.8555 69.4776 56.3332 68.8333 56.3332ZM30.3333 58.6665H39.6667V59.8332H30.3333V58.6665ZM67.6667 62.1665C67.6667 62.8108 67.1443 63.3332 66.5 63.3332H3.5C2.85571 63.3332 2.33333 62.8108 2.33333 62.1665V58.6665H28V59.8332C28 61.1217 29.0448 62.1665 30.3333 62.1665H39.6667C40.9552 62.1665 42 61.1217 42 59.8332V58.6665H67.6667V62.1665Z" fill="black"/>
<path d="M28 12H36.1667V14.3333H28V12Z" fill="black"/>
<path d="M27.5635 41.4092C25.0627 42.1326 23.3389 44.4198 23.3332 47.0232V51.6665H11.6665V53.9998H58.3332V51.6665H46.6665V47.0232C46.6608 44.4198 44.9376 42.1326 42.4373 41.4092L38.4998 40.2847V38.803C39.9633 37.7104 40.828 35.9928 40.8332 34.1665V32.9998C41.4775 32.9998 41.9998 32.4775 41.9998 31.8332V30.6665C41.9998 26.8008 38.8656 23.6665 34.9998 23.6665C31.1341 23.6665 27.9998 26.8008 27.9998 30.6665V31.8332C27.9998 32.4775 28.5222 32.9998 29.1665 32.9998V34.1665C29.1716 35.9928 30.0364 37.7104 31.4998 38.803V40.2847L27.5635 41.4092ZM44.3332 47.0232V51.6665H41.9998V46.9998H39.6665V51.6665H30.3332V46.9998H27.9998V51.6665H25.6665V47.0232C25.6694 45.4606 26.7033 44.0877 28.2038 43.6525L30.7416 42.9296L34.2997 45.5996C34.7144 45.9112 35.2852 45.9112 35.7 45.5996L39.2581 42.9296L41.7959 43.6536C43.2964 44.0883 44.3298 45.4612 44.3332 47.0232ZM34.9998 25.9998C37.5645 25.9998 39.6483 28.0694 39.6665 30.634C39.3321 30.5531 39.0501 30.3281 38.8963 30.0199L38.3774 28.9797C38.2281 28.6795 37.9569 28.4585 37.6334 28.3725C37.3092 28.2859 36.9646 28.3434 36.6855 28.5291L34.9497 29.6867C33.9915 30.3264 32.8653 30.6676 31.7135 30.6665H30.3332C30.3332 28.0894 32.4227 25.9998 34.9998 25.9998ZM31.7135 32.9998C33.3262 33.0015 34.9024 32.5236 36.2434 31.6281L36.8826 31.202C37.25 31.8503 37.8174 32.3618 38.4998 32.6603V34.1665C38.4998 36.0994 36.9327 37.6665 34.9998 37.6665C33.067 37.6665 31.4998 36.0994 31.4998 34.1665V32.9998H31.7135ZM34.9998 39.9998C35.3918 40.0004 35.7826 39.9611 36.1665 39.8831V41.1665C36.1705 41.4986 36.3169 41.8131 36.5693 42.0301L34.9998 43.2082L33.4304 42.0301C33.6828 41.8131 33.8292 41.4986 33.8332 41.1665V39.8831C34.2171 39.9611 34.6079 40.0004 34.9998 39.9998Z" fill="black"/>
<path d="M42 21.3333H45.5V25.9999C45.5 26.4955 45.8127 26.937 46.2804 27.1011C46.4046 27.1438 46.5351 27.166 46.6667 27.1666C47.021 27.1666 47.3565 27.0059 47.5776 26.7291L51.8933 21.3333H65.3333C67.2662 21.3333 68.8333 19.7661 68.8333 17.8333V3.83325C68.8333 1.90039 67.2662 0.333252 65.3333 0.333252H42C40.0671 0.333252 38.5 1.90039 38.5 3.83325V17.8333C38.5 19.7661 40.0671 21.3333 42 21.3333ZM40.8333 3.83325C40.8333 3.18896 41.3557 2.66659 42 2.66659H65.3333C65.9776 2.66659 66.5 3.18896 66.5 3.83325V17.8333C66.5 18.4775 65.9776 18.9999 65.3333 18.9999H51.3333C50.979 18.9999 50.6435 19.1606 50.4224 19.4374L47.8333 22.6737V20.1666C47.8333 19.5223 47.311 18.9999 46.6667 18.9999H42C41.3557 18.9999 40.8333 18.4775 40.8333 17.8333V3.83325Z" fill="#FF5555"/>
<path d="M45.5 5H61.8333V7.33333H45.5V5Z" fill="#FF5555"/>
<path d="M45.5 9.6665H61.8333V11.9998H45.5V9.6665Z" fill="#FF5555"/>
<path d="M45.5 14.3333H61.8333V16.6666H45.5V14.3333Z" fill="#FF5555"/>
<path d="M12.8333 30.6667C19.9211 30.6667 25.6667 24.9211 25.6667 17.8333C25.6667 10.7456 19.9211 5 12.8333 5C5.74561 5 0 10.7456 0 17.8333C0.00854493 24.9176 5.74902 30.6581 12.8333 30.6667ZM23.2644 16.6667H19.802C19.7485 15.4903 19.6026 14.3202 19.3656 13.1667H22.2248C22.7751 14.2627 23.1271 15.4476 23.2644 16.6667ZM11.6667 24.8333V27.9437C10.6344 27.1445 9.85514 26.0644 9.4222 24.8333H11.6667ZM8.68335 22.5C8.41789 21.3499 8.25496 20.1786 8.19686 19H11.6667V22.5H8.68335ZM14 27.9437V24.8333H16.2445C15.8115 26.0644 15.0322 27.1445 14 27.9437ZM14 22.5V19H17.4698C17.4117 20.1786 17.2488 21.3499 16.9833 22.5H14ZM19.802 19H23.2644C23.1271 20.2191 22.7751 21.404 22.2248 22.5H19.3668C19.6038 21.3464 19.749 20.1764 19.802 19ZM17.4687 16.6667H14V13.1667H16.9833C17.2488 14.3168 17.4117 15.488 17.4698 16.6667H17.4687ZM14 10.8333V7.72298C15.0322 8.52222 15.8115 9.6023 16.2445 10.8333H14ZM11.6667 7.72298V10.8333H9.4222C9.85514 9.6023 10.6344 8.52222 11.6667 7.72298ZM11.6667 13.1667V16.6667H8.19686C8.25496 15.488 8.41789 14.3168 8.68335 13.1667H11.6667ZM5.86467 16.6667H2.40226C2.53955 15.4476 2.8916 14.2627 3.44189 13.1667H6.29989C6.06291 14.3202 5.91764 15.4903 5.86467 16.6667ZM5.86467 19C5.91764 20.1764 6.06291 21.3464 6.29989 22.5H3.44189C2.8916 21.404 2.53955 20.2191 2.40226 19H5.86467ZM5.02954 24.8333H6.94076C7.21362 25.6286 7.55884 26.3976 7.9707 27.1308C6.86157 26.5457 5.8658 25.7676 5.02954 24.8333ZM17.696 27.1308C18.1078 26.3976 18.453 25.6286 18.7259 24.8333H20.6371C19.8009 25.7676 18.8051 26.5457 17.696 27.1308ZM20.6371 10.8333H18.7259C18.453 10.0381 18.1078 9.26904 17.696 8.53589C18.8051 9.12093 19.8009 9.89909 20.6371 10.8333ZM7.9707 8.53589C7.55884 9.26904 7.21362 10.0381 6.94076 10.8333H5.02954C5.8658 9.89909 6.86157 9.12093 7.9707 8.53589Z" fill="black"/>
<path d="M56 35.3333V31.8333H53.6667V34.1666H45.5V36.4999H54.8333C55.4776 36.4999 56 35.9775 56 35.3333Z" fill="black"/>
<path d="M53.6665 27.1665H55.9998V29.4998H53.6665V27.1665Z" fill="black"/>
<path d="M11.6665 33H13.9998V35.3333H11.6665V33Z" fill="black"/>
<path d="M11.6665 41.1665C11.6665 41.8108 12.1889 42.3332 12.8332 42.3332H19.8332V39.9998H13.9998V37.6665H11.6665V41.1665Z" fill="black"/>
<path d="M49 47H51.3333V49.3333H49V47Z" fill="black"/>
<path d="M49 42.3333H51.3333V44.6666H49V42.3333Z" fill="black"/>
</svg>
