<svg width="70" height="70" viewBox="0 0 70 70" fill="none" xmlns="http://www.w3.org/2000/svg">
<path d="M26.8344 47.831H22.1684V43.165C22.1684 42.5208 21.6461 41.9985 21.0019 41.9985H16.3359C15.6917 41.9985 15.1694 42.5208 15.1694 43.165V47.831H10.5034C9.85921 47.831 9.33691 48.3533 9.33691 48.9975V53.6635C9.33691 54.3077 9.85921 54.83 10.5034 54.83H15.1694V59.496C15.1694 60.1402 15.6917 60.6625 16.3359 60.6625H21.0019C21.6461 60.6625 22.1684 60.1402 22.1684 59.496V54.83H26.8344C27.4786 54.83 28.0009 54.3077 28.0009 53.6635V48.9975C28.0009 48.3533 27.4786 47.831 26.8344 47.831ZM25.6679 52.497H21.0019C20.3577 52.497 19.8354 53.0193 19.8354 53.6635V58.3295H17.5024V53.6635C17.5024 53.0193 16.9801 52.497 16.3359 52.497H11.6699V50.164H16.3359C16.9801 50.164 17.5024 49.6417 17.5024 48.9975V44.3315H19.8354V48.9975C19.8354 49.6417 20.3577 50.164 21.0019 50.164H25.6679V52.497Z" fill="black"/>
<path d="M69.8781 49.1993C68.9834 41.161 61.4338 33.6406 53.3885 32.7832C52.7052 32.7078 52.0183 32.6689 51.3308 32.6665H38.4993V28.0006H36.1663V25.6676C36.1663 23.0906 34.0773 21.0016 31.5003 21.0016H25.6678C24.3793 21.0016 23.3348 19.9571 23.3348 18.6686C23.3348 17.38 24.3793 16.3356 25.6678 16.3356H44.3318C46.9087 16.3356 48.9978 14.2465 48.9978 11.6696C48.9978 9.09267 46.9087 7.00362 44.3318 7.00362H38.4993C37.2108 7.00362 36.1663 5.95917 36.1663 4.67062V0.00463867H33.8333V4.67062C33.8333 7.24756 35.9224 9.33661 38.4993 9.33661H44.3318C45.6203 9.33661 46.6648 10.3811 46.6648 11.6696C46.6648 12.9581 45.6203 14.0026 44.3318 14.0026H25.6678C23.0909 14.0026 21.0019 16.0916 21.0019 18.6686C21.0019 21.2455 23.0909 23.3346 25.6678 23.3346H31.5003C32.7889 23.3346 33.8333 24.379 33.8333 25.6676V28.0006H31.5003V32.6665H18.6689C17.9806 32.6681 17.2928 32.7071 16.6088 32.7832C8.56 33.6464 1.0151 41.1668 0.122734 49.2051C-1.04916 59.4461 6.30269 68.6982 16.5438 69.87C20.714 70.3473 24.9233 69.4048 28.4919 67.195C30.0283 66.1892 31.7845 65.5686 33.6117 65.3857C34.5143 65.3144 35.4208 65.3112 36.3238 65.3764C38.1798 65.5559 39.9643 66.1836 41.524 67.2055C50.2924 72.6244 61.7936 69.9093 67.2126 61.1407C69.4176 57.5728 70.3566 53.3662 69.8781 49.1993ZM33.8333 30.3335H36.1663V32.6665H33.8333V30.3335ZM63.5032 62.2186C58.2293 68.1175 49.4836 69.3835 42.7535 65.2223C40.8741 63.9985 38.7241 63.2525 36.4906 63.0491C35.9983 63.0134 35.5014 62.9954 34.9998 62.9954C34.4691 62.9954 33.95 63.0176 33.4274 63.0584C31.2278 63.2691 29.1118 64.0078 27.2589 65.2118C19.5889 69.9572 9.52426 67.5866 4.77866 59.9166C2.84679 56.7942 2.02354 53.1119 2.44173 49.4641C3.20928 42.5561 9.94463 35.8464 16.8596 35.1033C17.4604 35.0361 18.0643 35.0016 18.6689 34.9995H51.3308C51.9352 35 52.5391 35.0322 53.14 35.0964C60.0538 35.8394 66.788 42.5491 67.5579 49.4571C68.1079 54.0964 66.6301 58.7475 63.5032 62.2186Z" fill="black"/>
<path d="M51.331 39.6655C48.7541 39.6655 46.665 41.7546 46.665 44.3315C46.665 46.9085 48.7541 48.9975 51.331 48.9975C53.908 48.9975 55.997 46.9085 55.997 44.3315C55.997 41.7546 53.908 39.6655 51.331 39.6655ZM51.331 46.6645C50.0425 46.6645 48.998 45.6201 48.998 44.3315C48.998 43.043 50.0425 41.9985 51.331 41.9985C52.6196 41.9985 53.664 43.043 53.664 44.3315C53.664 45.6201 52.6194 46.6645 51.331 46.6645Z" fill="#FF5555"/>
<path d="M51.331 53.6636C48.7541 53.6636 46.665 55.7526 46.665 58.3296C46.665 60.9065 48.7541 62.9955 51.331 62.9955C53.908 62.9955 55.997 60.9065 55.997 58.3296C55.997 55.7526 53.908 53.6636 51.331 53.6636ZM51.331 60.6626C50.0425 60.6626 48.998 59.6181 48.998 58.3296C48.998 57.041 50.0425 55.9966 51.331 55.9966C52.6196 55.9966 53.664 57.041 53.664 58.3296C53.664 59.6181 52.6194 60.6626 51.331 60.6626Z" fill="#FF5555"/>
<path d="M43.1655 46.6646C40.5886 46.6646 38.4995 48.7536 38.4995 51.3305C38.4995 53.9075 40.5886 55.9965 43.1655 55.9965C45.7424 55.9965 47.8315 53.9075 47.8315 51.3305C47.8315 48.7536 45.7424 46.6646 43.1655 46.6646ZM43.1655 53.6635C41.877 53.6635 40.8325 52.6191 40.8325 51.3305C40.8325 50.042 41.877 48.9975 43.1655 48.9975C44.454 48.9975 45.4985 50.042 45.4985 51.3305C45.4985 52.6191 44.4539 53.6635 43.1655 53.6635Z" fill="#FF5555"/>
<path d="M59.4961 46.6646C56.9191 46.6646 54.8301 48.7536 54.8301 51.3305C54.8301 53.9075 56.9191 55.9965 59.4961 55.9965C62.073 55.9965 64.162 53.9075 64.162 51.3305C64.162 48.7536 62.073 46.6646 59.4961 46.6646ZM59.4961 53.6635C58.2075 53.6635 57.1631 52.6191 57.1631 51.3305C57.1631 50.042 58.2075 48.9975 59.4961 48.9975C60.7846 48.9975 61.8291 50.042 61.8291 51.3305C61.8291 52.6191 60.7845 53.6635 59.4961 53.6635Z" fill="#FF5555"/>
</svg>
