<?xml version="1.0" encoding="utf-8"?>
<!-- Generator: Adobe Illustrator 23.0.1, SVG Export Plug-In . SVG Version: 6.00 Build 0)  -->
<svg version="1.1" id="Слой_1" xmlns="http://www.w3.org/2000/svg" xmlns:xlink="http://www.w3.org/1999/xlink" x="0px" y="0px"
	 viewBox="0 0 70 70" style="enable-background:new 0 0 70 70;" xml:space="preserve">
<path d="M42,28c-0.4-0.4-1-0.4-1.4,0h0l-2.7,2.7l-0.7-0.3c-0.7-0.3-1.4-0.5-2.2-0.5c-2.8,0-5.1,2.3-5.1,5.1s2.3,5.1,5.1,5.1
	s5.1-2.3,5.1-5.1c0-0.8-0.2-1.5-0.5-2.2l-0.3-0.7l2.7-2.7C42.4,29,42.4,28.4,42,28z M35,38.1c-1.7,0-3.1-1.4-3.1-3.1
	s1.4-3.1,3.1-3.1s3.1,1.4,3.1,3.1S36.7,38.1,35,38.1z"/>
<path d="M51.4,48.3c0.3,0,0.6-0.1,0.8-0.4c2.8-3.8,4.3-8.2,4.3-12.9c0-11.9-9.6-21.5-21.5-21.5c-11.9,0-21.5,9.6-21.5,21.5
	c0,4.7,1.5,9.2,4.3,12.9c0.2,0.2,0.5,0.4,0.8,0.4H51.4z M15.6,37.2L15.5,36h3.1c0.6,0,1-0.4,1-1s-0.4-1-1-1h-3.1l0.1-1.2
	c0.4-3.7,1.8-7.1,4.2-10l0.7-0.9l2.2,2.2c0.4,0.4,1,0.4,1.4,0c0.4-0.4,0.4-1,0-1.4l-2.2-2.2l0.9-0.7c2.9-2.3,6.3-3.7,10-4.2l1.2-0.1
	v3.1c0,0.6,0.4,1,1,1s1-0.4,1-1v-3.1l1.2,0.1c3.7,0.4,7.1,1.8,10,4.2l0.9,0.7l-2.2,2.2c-0.4,0.4-0.4,1,0,1.4c0.4,0.4,1,0.4,1.4,0
	l2.2-2.2l0.7,0.9c2.3,2.9,3.7,6.3,4.2,10l0.1,1.2h-3.1c-0.6,0-1,0.4-1,1s0.4,1,1,1h3.1l-0.1,1.2c-0.3,3.1-1.4,6.1-3.2,8.7l-0.3,0.5
	H19.1l-0.3-0.5C17,43.2,16,40.3,15.6,37.2z"/>
<path d="M39.1,56.5c0.6,0,1-0.4,1-1s-0.4-1-1-1h-8.2c-0.6,0-1,0.4-1,1s0.4,1,1,1H39.1z"/>
<path d="M69,39.1v-8.2c0-0.5-0.3-0.9-0.8-1l-4.1-1l-0.1-0.6c-0.7-3.2-2-6.3-3.7-9l-0.3-0.5l2.1-3.5c0.2-0.4,0.2-0.9-0.2-1.2L56,8.2
	c-0.3-0.3-0.8-0.4-1.2-0.2l-3.5,2.1l-0.5-0.3c-2.8-1.7-5.8-3-9-3.7l-0.6-0.1l-1-4.1C40,1.4,39.6,1,39.1,1h-8.2c-0.5,0-0.9,0.3-1,0.8
	l-1,4.1l-0.6,0.1c-3.2,0.7-6.3,2-9,3.7l-0.5,0.3L15.2,8c-0.4-0.2-0.9-0.2-1.2,0.2L8.2,14c-0.3,0.3-0.4,0.8-0.2,1.2l2.1,3.5l-0.3,0.5
	c-1.7,2.8-3,5.8-3.7,9l-0.1,0.6l-4.1,1C1.4,30,1,30.4,1,30.9v8.2c0,0.5,0.3,0.9,0.8,1l4.1,1l0.1,0.6c0.7,3.2,2,6.2,3.7,9l0.3,0.5
	L8,54.8c-0.2,0.4-0.2,0.9,0.2,1.2l5.8,5.8c0.3,0.3,0.8,0.4,1.2,0.2l3.5-2.1l0.5,0.3c2.8,1.7,5.8,3,9,3.7l0.6,0.1l1,4.1
	c0.1,0.5,0.5,0.8,1,0.8h8.2c0.5,0,0.9-0.3,1-0.8l1-4.1l0.6-0.1c3.2-0.7,6.3-2,9-3.7l0.5-0.3l3.5,2.1c0.4,0.2,0.9,0.2,1.2-0.2
	l5.8-5.8c0.3-0.3,0.4-0.8,0.2-1.2l-2.1-3.5l0.3-0.5c1.7-2.8,3-5.8,3.7-9l0.1-0.6l4.1-1C68.6,40,69,39.6,69,39.1z M66.9,38.3l-4,1
	c-0.4,0.1-0.7,0.4-0.7,0.8c-0.7,3.8-2.2,7.4-4.4,10.6c-0.2,0.3-0.2,0.7,0,1.1l2,3.4l-4.7,4.7l-3.4-2c-0.3-0.2-0.8-0.2-1.1,0
	c-3.2,2.2-6.8,3.7-10.6,4.4c-0.4,0.1-0.7,0.4-0.8,0.7l-1,4h-6.6l-1-4c-0.1-0.4-0.4-0.7-0.8-0.7c-3.8-0.7-7.4-2.2-10.6-4.4
	c-0.3-0.2-0.7-0.2-1.1,0l-3.4,2l-4.7-4.7l2-3.4c0.2-0.3,0.2-0.8,0-1.1c-2.2-3.2-3.7-6.8-4.4-10.6c-0.1-0.4-0.4-0.7-0.7-0.8l-4-1
	v-6.6l4-1c0.4-0.1,0.7-0.4,0.7-0.8c0.7-3.8,2.2-7.4,4.4-10.6c0.2-0.3,0.2-0.7,0-1.1l-2-3.4l4.7-4.7l3.4,2c0.3,0.2,0.8,0.2,1.1,0
	c3.2-2.2,6.8-3.7,10.6-4.4c0.4-0.1,0.7-0.4,0.8-0.7l1-4h6.6l1,4c0.1,0.4,0.4,0.7,0.8,0.7c3.8,0.7,7.4,2.2,10.6,4.4
	c0.3,0.2,0.7,0.2,1.1,0l3.4-2l4.7,4.7l-2,3.4c-0.2,0.3-0.2,0.8,0,1.1c2.2,3.2,3.7,6.8,4.4,10.6c0.1,0.4,0.4,0.7,0.7,0.8l4,1V38.3z"
	/>
</svg>
