<?xml version="1.0" encoding="utf-8"?>
<!-- Generator: Adobe Illustrator 23.0.1, SVG Export Plug-In . SVG Version: 6.00 Build 0)  -->
<svg version="1.1" id="Слой_1" xmlns="http://www.w3.org/2000/svg" xmlns:xlink="http://www.w3.org/1999/xlink" x="0px" y="0px"
	 viewBox="0 0 70 70" style="enable-background:new 0 0 70 70;" xml:space="preserve">
<path d="M0.4,54.7c0,0.6,0.5,1,1,1c1.6,0,3.3-0.4,4.7-1.3c1.1-0.7,2.4-1.1,3.7-1c0.1,0,0.1,0,0.2,0c1.3,0,2.5,0.4,3.5,1
	c1.4,0.9,3,1.3,4.7,1.3c1.7,0.1,3.3-0.4,4.7-1.3c1.1-0.7,2.4-1.1,3.7-1c1.3,0,2.6,0.3,3.7,1c2.9,1.7,6.5,1.7,9.4,0
	c2.3-1.4,5.1-1.4,7.4,0c2.9,1.7,6.5,1.7,9.4,0c2.3-1.4,5.1-1.4,7.4,0c1.4,0.8,2.9,1.3,4.5,1.3c0.1,0,0.1,0,0.2,0c0.6,0,1-0.5,1-1
	c0-0.6-0.5-1-1-1c-1.3,0-2.6-0.3-3.7-1c-2.9-1.7-6.5-1.7-9.4,0c-2.3,1.4-5.1,1.4-7.4,0c-2.9-1.7-6.5-1.7-9.4,0
	c-2.3,1.4-5.1,1.4-7.4,0c-1.4-0.9-3-1.3-4.7-1.3c-0.1,0-0.1,0-0.2,0c-1.6,0-3.1,0.4-4.5,1.3c-1.1,0.7-2.3,1-3.5,1
	c-0.1,0-0.2,0-0.3,0c-1.3,0-2.5-0.4-3.5-1c-1.4-0.8-2.9-1.3-4.5-1.3c-0.1,0-0.1,0-0.2,0c-0.1,0-0.1,0-0.2,0c-1.6,0-3.1,0.4-4.5,1.3
	c-1.1,0.7-2.4,1.1-3.7,1C0.9,53.7,0.4,54.1,0.4,54.7z"/>
<path d="M30.4,49.8c2.9,1.7,6.5,1.7,9.3,0c1.1-0.7,2.3-1,3.5-1c0.1,0,0.2,0,0.4,0c1.3,0,2.5,0.4,3.6,1.1c2.9,1.7,6.5,1.7,9.3,0
	c1.1-0.7,2.4-1.1,3.7-1c0,0,0,0,0,0c0.3,0,0.5,0,0.7,0c1.1,0.1,2.1,0.4,3,1c1.4,0.8,2.9,1.3,4.5,1.3c0.1,0,0.1,0,0.2,0
	c0.6,0,1-0.5,1-1s-0.5-1-1-1c-1.3,0-2.6-0.3-3.7-1c-0.7-0.4-1.4-0.7-2.2-1L62.5,47l7-13.9c0.2-0.3,0.1-0.7,0-1
	c-0.2-0.3-0.5-0.5-0.9-0.5h-5.9V15.3c0-0.6-0.5-1-1-1H20c-0.6,0-1,0.5-1,1v19.8h-2.6V17.6c0-0.6-0.5-1-1-1H6.1c-0.5,0-0.9,0.4-1,0.9
	L2.9,31.7H1.5c-0.6,0-1,0.5-1,1v10.4c0,0.2,0,0.4,0.1,0.5l3.1,5.1l-0.2,0.1C2.8,49,2.1,49,1.5,49c-0.6,0-1,0.5-1,1s0.5,1,1,1
	c1.7,0,3.3-0.4,4.7-1.3c1.1-0.7,2.4-1.1,3.7-1c1.3,0,2.6,0.3,3.7,1c1.3,0.8,2.9,1.3,4.5,1.3c0.1,0,0.1,0,0.2,0c0.1,0,0.1,0,0.2,0
	c1.6,0,3.2-0.4,4.5-1.3c1.1-0.7,2.4-1.1,3.7-1C27.9,48.7,29.2,49.1,30.4,49.8z M48.8,16.3h11.9v4.9H48.8V16.3z M48.8,23.3h11.9v4.9
	H48.8V23.3z M48.8,30.2h11.9v1.5h-5.9c-0.2,0-0.4,0.1-0.6,0.2l-4.4,3.3h-1V30.2z M34.9,16.3h11.9v4.9H34.9V16.3z M34.9,23.3h11.9
	v4.9H34.9V23.3z M34.9,30.2h11.9v4.9H34.9V30.2z M21,16.3h11.9v4.9H21V16.3z M21,23.3h11.9v4.9H21V23.3z M21,30.2h11.9v4.9H21V30.2z
	 M6.9,18.6h7.4v15.1L12.6,32c-0.2-0.2-0.4-0.3-0.7-0.3H4.9L6.9,18.6z M21.9,48c-1.1,0.7-2.4,1.1-3.7,1c-1.3,0-2.6-0.3-3.7-1
	c-1.3-0.8-2.9-1.3-4.5-1.3c-0.1,0-0.1,0-0.2,0c-0.3,0-0.5,0-0.8,0c-0.1,0-0.1,0-0.2,0l-0.1,0c-0.2,0-0.3,0-0.5,0.1
	c-0.1,0-0.2,0-0.3,0c-0.1,0-0.3,0-0.4,0.1c-0.1,0-0.2,0-0.2,0.1c-0.1,0-0.2,0.1-0.3,0.1c-0.1,0-0.1,0-0.2,0.1
	c-0.1,0-0.2,0.1-0.3,0.1l-0.1,0c0,0-0.1,0-0.1,0c-0.1,0.1-0.3,0.1-0.4,0.2l-0.1,0c-0.1,0.1-0.3,0.1-0.4,0.2l-0.1,0.1l-3-5v-9.1h9
	l3.2,3.2c0.2,0.2,0.4,0.3,0.7,0.3h34.7c0.2,0,0.4-0.1,0.6-0.2l4.4-3.3h11.9l-6.6,13h-0.2c-0.1,0-0.1,0-0.2,0c-1.6,0-3.1,0.4-4.5,1.3
	c-2.3,1.4-5.2,1.4-7.4,0c-2.9-1.7-6.5-1.7-9.3,0c-1.1,0.7-2.4,1-3.7,1c-1.3,0-2.6-0.3-3.7-1c-1.4-0.9-3-1.3-4.7-1.3
	C25,46.7,23.3,47.1,21.9,48z"/>
<path d="M10.7,20.1H9.5c-0.6,0-1,0.5-1,1s0.5,1,1,1h1.2c0.6,0,1-0.5,1-1S11.2,20.1,10.7,20.1z"/>
<path d="M10.7,41.8h1.2c0.6,0,1-0.5,1-1s-0.5-1-1-1h-1.2c-0.6,0-1,0.5-1,1S10.1,41.8,10.7,41.8z"/>
<path d="M17.6,39.8h-1.2c-0.6,0-1,0.5-1,1s0.5,1,1,1h1.2c0.6,0,1-0.5,1-1S18.2,39.8,17.6,39.8z"/>
<path d="M23.4,39.8h-1.2c-0.6,0-1,0.5-1,1s0.5,1,1,1h1.2c0.6,0,1-0.5,1-1S24,39.8,23.4,39.8z"/>
<path d="M29.2,39.8H28c-0.6,0-1,0.5-1,1s0.5,1,1,1h1.2c0.6,0,1-0.5,1-1S29.8,39.8,29.2,39.8z"/>
<path d="M35,39.8h-1.2c-0.6,0-1,0.5-1,1s0.5,1,1,1H35c0.6,0,1-0.5,1-1S35.5,39.8,35,39.8z"/>
<path d="M40.8,39.8h-1.2c-0.6,0-1,0.5-1,1s0.5,1,1,1h1.2c0.6,0,1-0.5,1-1S41.3,39.8,40.8,39.8z"/>
<path d="M46.6,39.8h-1.2c-0.6,0-1,0.5-1,1s0.5,1,1,1h1.2c0.6,0,1-0.5,1-1S47.1,39.8,46.6,39.8z"/>
<path d="M52.3,39.8h-1.2c-0.6,0-1,0.5-1,1s0.5,1,1,1h1.2c0.6,0,1-0.5,1-1S52.9,39.8,52.3,39.8z"/>
<path d="M58.1,39.8H57c-0.6,0-1,0.5-1,1s0.5,1,1,1h1.2c0.6,0,1-0.5,1-1S58.7,39.8,58.1,39.8z"/>
</svg>
