<?xml version="1.0" encoding="utf-8"?>
<!-- Generator: Adobe Illustrator 23.0.1, SVG Export Plug-In . SVG Version: 6.00 Build 0)  -->
<svg version="1.1" id="Слой_1" xmlns="http://www.w3.org/2000/svg" xmlns:xlink="http://www.w3.org/1999/xlink" x="0px" y="0px"
	 viewBox="0 0 70 70" style="enable-background:new 0 0 70 70;" xml:space="preserve">
<path d="M32,17.2H38c0.5,0,1-0.4,1-1v-4.8h2.8c0.4,0,0.7-0.2,0.9-0.5c0.2-0.3,0.1-0.7-0.1-1l-6.8-9.1c-0.2-0.2-0.5-0.4-0.8-0.4
	c-0.3,0-0.6,0.1-0.8,0.4l-6.8,9.1c-0.2,0.3-0.3,0.7-0.1,1c0.2,0.3,0.5,0.5,0.9,0.5H31v4.8C31,16.8,31.4,17.2,32,17.2z M30.2,9.5
	L35,3l4.8,6.4H38c-0.5,0-1,0.4-1,1v4.8H33v-4.8c0-0.5-0.4-1-1-1H30.2z"/>
<path d="M69.6,60.2c0-0.5-0.4-1-1-1h-7.4V40.6c0-0.5-0.4-1-1-1H48.6V21c0-0.5-0.4-1-1-1H22.4c-0.5,0-1,0.4-1,1v18.6H9.8
	c-0.5,0-1,0.4-1,1v18.6H1.4c-0.5,0-1,0.4-1,1v8.4c0,0.5,0.4,1,1,1h67.3c0.5,0,1-0.4,1-1V60.2z M52.9,51.6c0.3-0.2,0.4-0.5,0.4-0.8
	v-9.1h5.9v17.6H36V41.6h5.9v9.1c0,0.3,0.2,0.6,0.4,0.8c0.3,0.2,0.6,0.2,0.9,0.1l4.4-1.9l4.4,1.9C52.3,51.8,52.7,51.8,52.9,51.6z
	 M51.4,41.6v7.6L48,47.8c-0.2-0.1-0.5-0.1-0.8,0l-3.4,1.5v-7.6H51.4z M31.2,22h7.5v7.6l-3.4-1.5c-0.3-0.1-0.5-0.1-0.8,0l-3.4,1.5V22
	z M23.4,22h5.9v9.1c0,0.3,0.2,0.6,0.4,0.8c0.3,0.2,0.6,0.2,0.9,0.1l4.4-1.9l4.4,1.9c0.3,0.1,0.7,0.1,0.9-0.1
	c0.3-0.2,0.4-0.5,0.4-0.8V22h5.9v17.6H23.4V22z M18.6,41.6h7.5v7.6l-3.4-1.5c-0.2-0.1-0.5-0.1-0.8,0l-3.4,1.5V41.6z M10.7,41.6h5.9
	v9.1c0,0.3,0.2,0.6,0.4,0.8c0.3,0.2,0.6,0.2,0.9,0.1l4.4-1.9l4.4,1.9c0.3,0.1,0.7,0.1,0.9-0.1c0.3-0.2,0.4-0.5,0.4-0.8v-9.1H34v17.6
	H10.7V41.6z M67.6,67.6H2.4v-6.4h65.3V67.6z"/>
</svg>
