<?xml version="1.0" encoding="utf-8"?>
<!-- Generator: Adobe Illustrator 23.0.1, SVG Export Plug-In . SVG Version: 6.00 Build 0)  -->
<svg version="1.1" id="Слой_1" xmlns="http://www.w3.org/2000/svg" xmlns:xlink="http://www.w3.org/1999/xlink" x="0px" y="0px"
	 viewBox="0 0 70 70" style="enable-background:new 0 0 70 70;" xml:space="preserve">
<style type="text/css">
	.st0{clip-path:url(#SVGID_2_);}
</style>
<g>
	<defs>
		<rect id="SVGID_1_" width="70" height="70"/>
	</defs>
	<clipPath id="SVGID_2_">
		<use xlink:href="#SVGID_1_"  style="overflow:visible;"/>
	</clipPath>
	<g class="st0">
		<path d="M55.5,14.1c0,2.1,1.7,3.8,3.8,3.8s3.8-1.7,3.8-3.8s-1.7-3.8-3.8-3.8S55.5,12.1,55.5,14.1z M61,14.1c0,0.9-0.8,1.7-1.7,1.7
			s-1.7-0.8-1.7-1.7c0-0.9,0.8-1.7,1.7-1.7S61,13.2,61,14.1z"/>
		<path d="M7.2,25.4l-0.5,0.1c-0.6,0.1-0.9,0.7-0.8,1.2c0.1,0.5,0.5,0.8,1,0.8c0.1,0,0.2,0,0.2,0l0.5-0.1c0.6-0.1,0.9-0.7,0.8-1.2
			S7.8,25.2,7.2,25.4z"/>
		<path d="M66.8,16.6c0.6,0,1-0.5,1-1V6.5c0-0.3-0.2-0.6-0.4-0.8l-7.6-5.6c-0.4-0.3-0.9-0.3-1.2,0l-7.6,5.6
			c-0.3,0.2-0.4,0.5-0.4,0.8v2.4l-33.7,9.7c-0.5,0.2-0.9,0.7-0.7,1.3c0.2,0.5,0.7,0.9,1.3,0.7L50.7,11v5.7
			C38.1,20.3,13.9,27.3,7.8,29.1c-1.5,0.4-3-0.4-3.4-1.9c-0.2-0.7-0.1-1.4,0.2-2.1c0.4-0.6,0.9-1.1,1.6-1.3l7.8-2.3
			c0.5-0.2,0.9-0.7,0.7-1.3c-0.2-0.5-0.7-0.9-1.3-0.7l-7.8,2.3c-1.2,0.4-2.3,1.2-2.9,2.3c-0.6,1.1-0.8,2.4-0.4,3.7
			C3,29.9,4.9,31.2,7,31.2c0,0,0,0,0,0v37.6c0,0.6,0.5,1,1,1c0.6,0,1-0.5,1-1v-38l19.5-5.6l-5.2,42.6h-4.9c-0.6,0-1,0.5-1,1
			c0,0.6,0.5,1,1,1h38.1c0.6,0,1-0.5,1-1c0-0.6-0.5-1-1-1h-4.9L46,20.2l4.7-1.3v2.9c0,0.3,0.2,0.6,0.4,0.8l7.2,5.3v7.2h-1.7
			c-0.6,0-1,0.5-1,1v10c0,0.6,0.5,1,1,1H62c0.6,0,1-0.5,1-1v-10c0-0.6-0.5-1-1-1h-1.7v-7.2l7.2-5.3c0.3-0.2,0.4-0.5,0.4-0.8v-2.7
			c0-0.6-0.5-1-1-1s-1,0.5-1,1v2.2l-6.5,4.8l-6.5-4.8V7l6.5-4.8L65.8,7v8.6C65.8,16.2,66.3,16.6,66.8,16.6z M30.8,34.7l6.8-6.8
			l6.8,6.8H30.8z M43.9,36.7l-6.3,5.1l-6.3-5.1H43.9z M29.1,37.6l6.8,5.5l-8.3,6.7L29.1,37.6z M29.2,51.2l8.4-6.8l8.4,6.8H29.2z
			 M45.5,53.3l-7.9,5.3l-7.9-5.3H45.5z M27.1,54l8.6,5.8l-10.2,6.9L27.1,54z M37.6,61.1l9.9,6.7H27.7L37.6,61.1z M39.4,59.9L48,54
			l1.5,12.7L39.4,59.9z M39.2,43.2l6.8-5.5l1.5,12.2L39.2,43.2z M39,26.4l5-5l1.4,11.5L39,26.4z M40.8,21.7l-3.2,3.2l-1.8-1.8
			L40.8,21.7z M33.6,23.8l2.6,2.6l-6.4,6.5l1-8.2L33.6,23.8z M61,45.1h-3.4v-8H61V45.1z"/>
	</g>
</g>
</svg>
