<?xml version="1.0" encoding="utf-8"?>
<!-- Generator: Adobe Illustrator 23.0.1, SVG Export Plug-In . SVG Version: 6.00 Build 0)  -->
<svg version="1.1" id="Слой_1" xmlns="http://www.w3.org/2000/svg" xmlns:xlink="http://www.w3.org/1999/xlink" x="0px" y="0px"
	 viewBox="0 0 70 70" style="enable-background:new 0 0 70 70;" xml:space="preserve">
<path d="M34.6,5.8c-0.5,0-1,0.5-1,1c0,0.4,0.4,0.9,0.9,0.9l0,0c0.3,0,0.5,0,0.7-0.2c0.2-0.2,0.3-0.5,0.3-0.8
	C35.6,6.3,35.2,5.8,34.6,5.8z"/>
<path d="M62.8,31.8V9.5c0-0.3,0-0.5-0.2-0.7c-0.2-0.2-0.4-0.3-0.7-0.3c-4,0-7.2-3.2-7.2-7.2c0-0.5-0.5-1-1-1H15.5c-0.5,0-1,0.5-1,1
	c0,4-3.2,7.2-7.2,7.2c-0.5,0-1,0.5-1,1v22.3c0,17.2,11.5,32.7,27.9,37.7h0.6C51.6,64.4,62.8,49.3,62.8,31.8z M34.8,67.5L34.8,67.5
	l-0.2,0C18.9,62.6,8.4,48.3,8.4,31.8V10.4h0.4c3.9-0.6,7.1-3.8,7.7-7.7l0-0.4h36.4v0.4c0.6,4,3.7,7.1,7.8,7.8l0.3,0v21.3
	C61,48.3,50.5,62.7,34.8,67.5z"/>
<path d="M29.2,5.7h-9.3c-0.4,0-0.8,0.2-0.9,0.6c-1.4,3.1-3.7,5.4-6.6,6.6c-0.4,0.1-0.6,0.5-0.6,0.9v18c0,14.6,8.8,27.1,22.5,31.9
	c0.1,0,0.2,0,0.2,0.1c0,0,0.1,0,0.1,0c0.1,0,0.2,0,0.2,0l0.1-0.1c13.7-4.8,22.5-17.3,22.5-31.9v-18c0-0.4-0.2-0.7-0.5-0.8
	c-3-1.4-5.4-3.7-6.5-6.6c-0.1-0.4-0.5-0.6-0.9-0.6h-9.3c-0.5,0-1,0.5-1,1s0.5,1,1,1h8.8v0.3c1.4,2.7,3.6,4.9,6.3,6.3h0.3v17.5
	c0,13.5-8.2,25.2-20.8,29.9l-0.1,0l-0.1,0c-12.6-4.8-20.8-16.5-20.8-30V14.3H14c2.7-1.4,4.9-3.6,6.3-6.3V7.7h8.9c0.5,0,1-0.5,1-1
	S29.7,5.7,29.2,5.7z"/>
<path d="M34.6,20.3c-6.6,0-11.9,5.3-11.9,11.9c0,6.6,5.3,11.9,11.9,11.9c6.6,0,11.9-5.3,11.9-11.9C46.5,25.6,41.2,20.3,34.6,20.3z
	 M34.6,42.2c-5.6,0-10-4.4-10-10c0-5.5,4.5-10,10-10s10,4.5,10,10C44.6,37.7,40.1,42.2,34.6,42.2z"/>
<path d="M39.3,28.7l-6.1,6.1l-2-2c-0.2-0.2-0.4-0.3-0.7-0.3s-0.5,0.1-0.7,0.3c-0.2,0.2-0.3,0.4-0.3,0.7s0.1,0.5,0.3,0.7l2.7,2.7
	c0.1,0.1,0.5,0.3,0.7,0.3c0.3,0,0.5-0.1,0.7-0.3l6.8-6.8c0.4-0.4,0.4-1,0-1.4C40.3,28.3,39.7,28.3,39.3,28.7z"/>
</svg>
