<?xml version="1.0" encoding="utf-8"?>
<!-- Generator: Adobe Illustrator 23.0.1, SVG Export Plug-In . SVG Version: 6.00 Build 0)  -->
<svg version="1.1" id="Слой_1" xmlns="http://www.w3.org/2000/svg" xmlns:xlink="http://www.w3.org/1999/xlink" x="0px" y="0px"
	 width="70px" height="70px" viewBox="0 0 70 70" style="enable-background:new 0 0 70 70;" xml:space="preserve">
<style type="text/css">
	.st0{fill:#0071B3;}
</style>
<path class="st0" d="M9.2,39.2c-0.6,0-1,0.5-1,1v4.7c0,0.6,0.5,1,1,1s1-0.5,1-1v-4.7C10.2,39.7,9.8,39.2,9.2,39.2z"/>
<path class="st0" d="M14,41.5c-0.6,0-1,0.5-1,1v4.7c0,0.6,0.5,1,1,1s1-0.5,1-1v-4.7C15,42,14.5,41.5,14,41.5z"/>
<path class="st0" d="M51.9,46.3c-2.5,0-4.8,1-6.6,2.7c-1.8,1.8-2.7,4.1-2.7,6.6s1,4.8,2.7,6.6c1.7,1.8,4.1,2.7,6.6,2.7
	s4.8-1,6.6-2.7c1.8-1.7,2.7-4.1,2.7-6.6c0-3.1-1.5-6-4.1-7.7c-0.5-0.3-1.1-0.2-1.4,0.3c-0.3,0.5-0.2,1.1,0.3,1.4
	c1.6,1.1,2.7,2.7,3.1,4.6c0.4,1.9,0,3.9-1.1,5.5c-1.1,1.6-2.7,2.7-4.7,3.1c-1.9,0.4-3.9,0-5.5-1.1c-3.3-2.2-4.2-6.8-2-10.1
	c1.4-2,3.6-3.2,6-3.2c0.6,0,1-0.5,1-1S52.5,46.3,51.9,46.3z"/>
<path class="st0" d="M3.9,48.2L30,63.5c0,0,0,0,0.1,0h0.1c0.2,0.1,0.5,0.1,0.7,0H31h0.1l7.3-4.3l0.1,0.2c1,3.6,3.4,6.6,6.7,8.4
	c3.3,1.8,7.1,2.2,10.7,1.2c3.6-1,6.6-3.4,8.4-6.7c1.8-3.3,2.2-7.1,1.2-10.7c-1.1-3.9-3.9-7.2-7.7-8.9h-0.1V16.5
	c0-0.4-0.2-0.7-0.5-0.9L31,0.2c-0.3-0.2-0.7-0.2-1,0L3.8,15.6c-0.1,0.1-0.2,0.2-0.2,0.2c-0.1,0.1-0.1,0.2-0.1,0.3c0,0,0,0,0,0.1
	s0,0.1,0,0.1v30.9C3.4,47.7,3.6,48,3.9,48.2z M63.9,55.7c0,6.6-5.4,12-12,12s-12-5.4-12-12s5.4-12,12-12
	C58.5,43.5,63.9,49,63.9,55.7z M30.5,2.3L37,6.1l-9.4,5.6c-0.2,0.1-0.4,0.4-0.5,0.6c-0.1,0.3,0,0.5,0.1,0.8c0.1,0.2,0.4,0.4,0.6,0.5
	c0.3,0.1,0.5,0,0.8-0.1L39,7.3l6.5,3.8l-0.3,0.1L21.4,25.4l-6.5-3.8l10.2-6c0.2-0.1,0.4-0.4,0.5-0.6s0-0.5-0.1-0.8
	c-0.1-0.2-0.4-0.4-0.6-0.5c-0.3-0.1-0.5,0-0.8,0.1l-11.2,6.6l-6.5-3.8L30.5,2.3z M20.4,27v8.3l-6.5-3.8v-8.3L20.4,27z M5.4,18.3
	l6.5,3.8v10.1c0,0.4,0.2,0.7,0.5,0.9l8.5,5c0.2,0.1,0.3,0.1,0.5,0.1c0.6,0,1-0.5,1-1v-8.9l7.1,4.2V52c0,0.6,0.5,1,1,1s1-0.5,1-1
	V32.5l21.6-12.8c0.5-0.3,0.6-0.9,0.4-1.4c-0.3-0.5-0.9-0.6-1.4-0.4L30.5,30.8l-7.1-4.2l24.1-14.2l8.1,4.8v25L55.4,42
	c-7.5-2-15.1,2.5-17.1,10c-0.3,1.2-0.5,2.4-0.5,3.6c0,0.5,0,1,0.1,1.5v0.1l-0.1,0.1L31.5,61v-4.2c0-0.6-0.5-1-1-1s-1,0.5-1,1V61
	l-0.3-0.3l-23.8-14V18.3L5.4,18.3z"/>
<path class="st0" d="M47.7,57.5l1.8,1.8c0.2,0.2,0.4,0.3,0.7,0.3c0.3,0,0.5-0.1,0.7-0.3l5.3-5.3c0.2-0.2,0.3-0.4,0.3-0.7
	c0-0.3-0.1-0.5-0.3-0.7c-0.4-0.4-1-0.4-1.4,0l-4.6,4.6l-1.1-1.1c-0.2-0.2-0.4-0.3-0.7-0.3c-0.3,0-0.5,0.1-0.7,0.3
	C47.3,56.5,47.3,57.1,47.7,57.5z"/>
</svg>
