<?xml version="1.0" encoding="utf-8"?>
<!-- Generator: Adobe Illustrator 23.0.1, SVG Export Plug-In . SVG Version: 6.00 Build 0)  -->
<svg version="1.1" id="Capa_1" xmlns="http://www.w3.org/2000/svg" xmlns:xlink="http://www.w3.org/1999/xlink" x="0px" y="0px"
	 width="90px" height="90px" viewBox="0 0 90 90" style="enable-background:new 0 0 90 90;" xml:space="preserve">
<style type="text/css">
	.st0{fill:#FF5555;}
</style>
<circle class="st0" cx="4.5" cy="43.7" r="2.9"/>
<circle class="st0" cx="4.5" cy="26.3" r="2.9"/>
<circle class="st0" cx="16.4" cy="11.7" r="2.9"/>
<circle class="st0" cx="20.5" cy="46.3" r="2.9"/>
<circle class="st0" cx="26.3" cy="60.9" r="2.9"/>
<circle class="st0" cx="46.5" cy="66.7" r="2.9"/>
<circle class="st0" cx="46.3" cy="85.4" r="2.9"/>
<circle class="st0" cx="68" cy="85.4" r="2.9"/>
<circle class="st0" cx="68" cy="62.3" r="2.9"/>
<circle class="st0" cx="54" cy="45" r="2.9"/>
<circle class="st0" cx="85.8" cy="48.1" r="2.9"/>
<circle class="st0" cx="59.4" cy="26.1" r="2.9"/>
<circle class="st0" cx="85.8" cy="27.7" r="2.9"/>
<circle class="st0" cx="73.8" cy="13.5" r="2.9"/>
<circle class="st0" cx="55.4" cy="4.6" r="2.9"/>
<circle class="st0" cx="33.4" cy="24.8" r="2.9"/>
<circle class="st0" cx="30.1" cy="4.7" r="2.9"/>
<path d="M85.4,52c2.3,0,4.1-1.9,4.1-4.1c0-1.7-1.1-3.3-2.8-3.9h-0.1v-0.1V31.8v-0.1h0.1c1.6-0.6,2.7-2.1,2.7-3.9
	c0-2.3-1.9-4.1-4.1-4.1c-0.4,0-0.8,0.1-1.4,0.2h-0.1l-0.1-0.1l-6.4-8.1l-0.1-0.1l0.1-0.1c0.4-0.7,0.6-1.4,0.6-2.2
	c0-2.3-1.9-4.1-4.1-4.1c-1.1,0-2.2,0.5-3,1.3l-0.1,0.1l-0.1-0.1L59.3,5.2l-0.1-0.1V5c0-0.1,0-0.2,0-0.4c0-2.3-1.9-4.1-4.1-4.1
	c-1.7,0-3.3,1.1-3.9,2.8v0.1H51H34.7h-0.1V3.3c-0.6-1.6-2.2-2.7-3.9-2.7c-2.3,0-4.1,1.9-4.1,4.1c0,0.1,0,0.2,0,0.3
	c0,0.1,0,0.1,0,0.2v0.1l-0.1,0.1L19.3,9h-0.2L19,8.9c-0.8-0.7-1.8-1.2-2.9-1.2c-2.3,0-4.1,1.9-4.1,4.1c0,0.8,0.2,1.5,0.6,2.2
	l0.1,0.1l-0.1,0.1l-6.4,8.1l-0.1,0.1H6c-0.5-0.2-0.9-0.2-1.4-0.2c-2.3,0-4.1,1.9-4.1,4.1c0,1.7,1.1,3.3,2.8,3.9h0.1v0.1v9.2v0.1H3.3
	c-1.7,0.6-2.8,2.1-2.8,3.9c0,2.3,1.9,4.1,4.1,4.1c1.5,0,2.8-0.8,3.6-2.1l0.1-0.1h0.1l7.9,1.4h0.1v0.1c0.3,2,2.1,3.5,4.1,3.5
	c0,0,0,0,0.1,0h0.1h0.1l0.1,0.1l2.8,6.9l0.1,0.1l-0.1,0.1c-0.9,0.8-1.4,1.9-1.4,3.1c0,2.3,1.9,4.1,4.1,4.1c1.3,0,2.6-0.6,3.4-1.7
	l0.1-0.1H30l12.4,3.5h0.1v0.1c0.1,1.7,1.2,3.1,2.7,3.6h0.1v0.1v10.6V81h-0.1c-1.7,0.6-2.8,2.1-2.8,3.9c0,2.3,1.9,4.1,4.1,4.1
	c2.3,0,4.1-1.9,4.1-4.1c0-1.7-1.1-3.3-2.8-3.9h-0.1v-0.1V70.7v-0.1h0.1c1.7-0.6,2.8-2.1,2.8-3.9c0-1.3-0.6-2.4-1.6-3.2l-0.1-0.1
	v-0.1l1.7-5.2l0.1-0.2l0.2,0.1l12.9,4.3h0.1v0.1c0,1.7,1.1,3.2,2.8,3.8h0.1v0.1v15v0.1h-0.1c-1.7,0.6-2.8,2.1-2.8,3.9
	c0,2.3,1.9,4.1,4.1,4.1s4.1-1.9,4.1-4.1c0-1.7-1.1-3.3-2.8-3.9h-0.1v-0.1V66.4v-0.1h0.1c1.7-0.6,2.8-2.1,2.8-3.9
	c0-0.5-0.1-1-0.3-1.4l-0.1-0.1l0.1-0.1l11.1-9.2l0.1-0.1l0.1,0.1C83.9,51.8,84.6,52,85.4,52z M87,47.9c0,0.9-0.7,1.6-1.6,1.6
	s-1.6-0.7-1.6-1.6s0.7-1.6,1.6-1.6S87,47,87,47.9z M85.3,26.1c0.9,0,1.6,0.7,1.6,1.6s-0.7,1.6-1.6,1.6s-1.6-0.7-1.6-1.6
	S84.4,26.1,85.3,26.1z M73.8,11.7c0.9,0,1.6,0.7,1.6,1.6s-0.7,1.6-1.6,1.6s-1.6-0.7-1.6-1.6S72.9,11.7,73.8,11.7z M71.6,17L71.6,17
	h0.2c0.6,0.3,1.3,0.5,2,0.5c0.4,0,0.8-0.1,1.4-0.2h0.1l0.1,0.1l6.4,8.1l0.1,0.1l-0.1,0.1c-0.4,0.7-0.6,1.4-0.6,2.2
	c0,0.2,0,0.4,0.1,0.6v0.1v0.1l-0.1,0.1L71,34.4l-0.1,0.1l-0.1-0.1l-7.4-6.2l-0.1-0.1l0.1-0.1c0.2-0.5,0.3-1,0.3-1.4
	c0-0.5-0.1-1.1-0.3-1.6l-0.1-0.1l0.1-0.1L71.6,17z M53.6,40.9c-0.6,0-1.2,0.1-1.8,0.4l-0.1,0.1l-0.1-0.1l-6.1-6.1L45.4,35l0.2-0.1
	l10.8-5.6l0.1-0.1l0.1,0.1c0.8,0.7,1.8,1.1,2.8,1.1c0.7,0,1.4-0.2,2.1-0.6l0.1-0.1l0.1,0.1l6.6,5.5l0.2,0.2l-0.2,0.1L56.5,42h-0.1
	l-0.1-0.1C55.6,41.3,54.7,40.9,53.6,40.9z M55.3,45c0,0.9-0.7,1.6-1.6,1.6S52,45.9,52,45s0.7-1.6,1.6-1.6S55.3,44.1,55.3,45z
	 M24.6,46.1c0-0.1,0-0.1,0-0.2v-0.1l0.1-0.1l11.8-6.1l0.2-0.1l0.1,0.2l3.7,11.8l0.1,0.3l-0.3-0.1l-15.4-5.1h-0.1v-0.1
	C24.6,46.3,24.6,46.2,24.6,46.1z M33.3,29L33.3,29l0.1,0.1l2.4,7.8V37l-0.1,0.1l-12.3,6.4l-0.1,0.1l-0.1-0.1c-0.5-0.5-1.1-0.8-1.8-1
	h-0.1v-0.1l-2-15.3v-0.2h0.2l9.9-0.5h0.1l0.1,0.1C30.3,27.9,31.7,28.9,33.3,29z M31.8,24.8c0-0.9,0.7-1.6,1.6-1.6s1.6,0.7,1.6,1.6
	s-0.7,1.6-1.6,1.6S31.8,25.7,31.8,24.8z M38.2,35.8l-0.1-0.2L36.4,30l-0.2-0.7l0.5,0.5l4.3,4.3l0.2,0.2L41,34.4l-2.6,1.3L38.2,35.8z
	 M37.2,26.8L37.2,26.8v-0.2c0.3-0.6,0.4-1.2,0.4-1.8c0-0.6-0.1-1.1-0.3-1.7L37.2,23l0.1-0.1l6.8-6.4l0.1-0.1l0.1,0.1l11,8.3l0.1,0.1
	V25c-0.1,0.5-0.2,0.8-0.2,1.2c0,0.1,0,0.3,0,0.4s0,0.1,0,0.2v0.1l0,0.1l-11.6,6l-0.1,0.1L43.4,33L37.2,26.8z M57.8,26.3
	c0-0.9,0.7-1.6,1.6-1.6s1.6,0.7,1.6,1.6s-0.7,1.6-1.6,1.6S57.8,27.2,57.8,26.3z M58.4,43.8l12.1-6.6l0.1-0.1l0.1,0.1L81,45.9
	l0.5,0.4l-0.6-0.1l-22.4-2l-0.6-0.1L58.4,43.8z M55.1,3c0.9,0,1.6,0.7,1.6,1.6S56,6.3,55.1,6.3s-1.6-0.7-1.6-1.6S54.2,3,55.1,3z
	 M53,8.4L53,8.4h0.2c0.6,0.3,1.3,0.5,1.9,0.5c1.1,0,2.2-0.5,3-1.3l0.1-0.1l0.1,0.1l11.4,5.2l0.1,0.1V13c0,0.1,0,0.2,0,0.4
	c0,0.5,0.1,1.1,0.3,1.6H70l-0.1,0.1l-8.4,7.5l-0.1,0.1l-0.1-0.1c-0.6-0.3-1.3-0.5-2-0.5c-0.8,0-1.6,0.2-2.3,0.7l0,0.1l-0.1-0.1
	l-10.6-8l-0.2-0.1l0.2-0.1L53,8.4z M34.9,5.9H51h0.1L51.2,6c0,0.1,0,0.1,0.1,0.2c0,0.1,0,0.1,0,0.1l0.1,0.1l-0.1,0.1l-7.1,6.6
	l-0.1,0.1L44,13.1l-9.2-6.9l-0.5-0.3H34.9z M30.6,3c0.9,0,1.6,0.7,1.6,1.6s-0.7,1.6-1.6,1.6S29,5.6,29,4.7S29.7,3,30.6,3z M18,15.5
	c1.4-0.7,2.3-2.1,2.3-3.7c0-0.1,0-0.2,0-0.3s0-0.1,0-0.2v-0.1l0.1-0.1l7.2-3.6l0.1-0.1l0.1,0.1c0.8,0.7,1.8,1.2,2.9,1.2
	c0.8,0,1.6-0.2,2.3-0.7v0.1l0.1,0.1l9,6.7l0.2,0.1l-0.2,0.1l-6.5,6.1l-0.1,0.1l-0.1-0.1c-0.6-0.3-1.3-0.5-1.9-0.5
	c-1.8,0-3.4,1.2-3.9,3v0.1h-0.1l-10.1,0.5h-0.2v-0.2L18,15.7V15.5L18,15.5z M16.2,10.3c0.9,0,1.6,0.7,1.6,1.6c0,0.9-0.7,1.6-1.6,1.6
	s-1.6-0.7-1.6-1.6C14.5,11,15.3,10.3,16.2,10.3z M8.2,23.9l6.4-8.1l0.1-0.1h0.1c0.1,0,0.1,0,0.1,0.1c0.1,0,0.2,0.1,0.3,0.1h0.1V16
	l1.1,8.2v0.2h-0.2l-7.7,0.4h0l-0.1-0.1c-0.1-0.2-0.2-0.3-0.3-0.5L8,24.1L8.1,24L8.2,23.9z M3,26.3c0-0.9,0.7-1.6,1.6-1.6
	s1.6,0.7,1.6,1.6s-0.7,1.6-1.6,1.6S3,27.2,3,26.3z M4.6,45.2c-0.9,0-1.6-0.7-1.6-1.6S3.7,42,4.6,42s1.6,0.7,1.6,1.6
	S5.5,45.2,4.6,45.2z M16.9,44.4l-0.1,0.1h-0.1l-7.9-1.4H8.7V43c-0.2-1.5-1.3-2.7-2.7-3.2H5.9v-0.1v-9.2v-0.1H6
	c1.2-0.5,2.2-1.5,2.6-2.7v-0.1h0.1l7.9-0.4h0.2v0.2l2,15.4v0.1L18.7,43C18,43.1,17.4,43.6,16.9,44.4z M20.5,48.1
	c-0.9,0-1.6-0.7-1.6-1.6s0.7-1.6,1.6-1.6s1.6,0.7,1.6,1.6S21.4,48.1,20.5,48.1z M26.3,62.5c-0.9,0-1.6-0.7-1.6-1.6s0.7-1.6,1.6-1.6
	s1.6,0.7,1.6,1.6S27.2,62.5,26.3,62.5z M44,63.3c-0.3,0.2-0.6,0.5-0.9,0.9L43,64.3h-0.1l-12.4-3.5h-0.1v-0.1
	c-0.1-2.2-1.9-3.9-4.1-3.9c0,0,0,0-0.1,0h-0.1H26l-0.1-0.1l-2.8-6.9L23,49.7l0.1-0.1c0.2-0.2,0.3-0.3,0.5-0.6l0.1-0.1h0.1l17.4,5.8
	h0.1v0.1l2.6,8.3L44,63.3L44,63.3z M48.1,85.4c0,0.9-0.7,1.6-1.6,1.6s-1.6-0.7-1.6-1.6s0.7-1.6,1.6-1.6S48.1,84.5,48.1,85.4z
	 M46.4,68.3c-0.9,0-1.6-0.7-1.6-1.6s0.7-1.6,1.6-1.6s1.6,0.7,1.6,1.6S47.3,68.3,46.4,68.3z M48.2,57.2L46.6,62l-0.2,0.5L46.3,62
	l-1.8-5.9l-0.1-0.3l0.3,0.1l3.4,1.1l0.2,0.1L48.2,57.2z M51.2,48.5l-2,6l-0.1,0.2l-0.2-0.1l-5.4-1.8h-0.1v-0.1L39,38.4v-0.1l0.1-0.1
	l3.8-2l0.1-0.1l0.1,0.1l6.8,6.8l0.1,0.1l-0.1,0.1c-0.3,0.6-0.4,1.2-0.4,1.8c0,1.3,0.6,2.4,1.6,3.2l0.1,0.1L51.2,48.5z M69.7,85.4
	c0,0.9-0.7,1.6-1.6,1.6s-1.6-0.7-1.6-1.6s0.7-1.6,1.6-1.6C68.9,83.7,69.7,84.5,69.7,85.4z M68,63.9c-0.9,0-1.6-0.7-1.6-1.6
	s0.7-1.6,1.6-1.6s1.6,0.7,1.6,1.6S68.9,63.9,68,63.9z M81.4,49.5l-11,9.2l-0.1,0.1l-0.1-0.1c-0.7-0.4-1.4-0.6-2.1-0.6
	c-1.3,0-2.4,0.6-3.2,1.6l-0.1,0.1h-0.1l-13-4.3l-0.2-0.1l0.1-0.2l2-6v-0.1h0.1c1.6,0,3-1,3.7-2.4l0.1-0.1h0.1l23.6,2.1h0.1v0.1
	c0,0.1,0.1,0.3,0.1,0.4v0.1V49.5z M83.1,44.4L83,44.3l-9.9-8.2l-0.2-0.2l0.2-0.1l9.2-5l0.1-0.1l0.1,0.1c0.4,0.4,0.9,0.6,1.4,0.8H84
	v0.1v12.1V44h-0.1c-0.2,0.1-0.5,0.2-0.7,0.3L83.1,44.4z"/>
</svg>
