<?xml version="1.0" encoding="utf-8"?>
<!-- Generator: Adobe Illustrator 23.0.1, SVG Export Plug-In . SVG Version: 6.00 Build 0)  -->
<svg version="1.1" id="Слой_1" xmlns="http://www.w3.org/2000/svg" xmlns:xlink="http://www.w3.org/1999/xlink" x="0px" y="0px"
	 width="70px" height="70px" viewBox="0 0 70 70" style="enable-background:new 0 0 70 70;" xml:space="preserve">
<style type="text/css">
	.st0{fill:#FFFFFF;}
</style>
<path class="st0" d="M8.4,4.3c-1.8,0-3.2,1.5-3.2,3.2c0,1.8,1.4,3.2,3.2,3.2c1.8,0,3.3-1.4,3.3-3.2C11.7,5.7,10.2,4.3,8.4,4.3z
	 M8.4,8.7c-0.6,0-1.2-0.5-1.2-1.2s0.5-1.2,1.2-1.2s1.2,0.5,1.2,1.2C9.6,8.2,9.1,8.7,8.4,8.7z"/>
<path class="st0" d="M17.1,4.3c-1.8,0-3.3,1.5-3.3,3.2c0,1.8,1.4,3.2,3.2,3.2s3.2-1.4,3.2-3.2C20.3,5.7,18.9,4.3,17.1,4.3z
	 M17.1,8.7c-0.6,0-1.2-0.5-1.2-1.2s0.5-1.2,1.2-1.2c0.6,0,1.2,0.5,1.2,1.2C18.3,8.2,17.8,8.7,17.1,8.7z"/>
<path class="st0" d="M25.8,4.3c-1.8,0-3.2,1.4-3.2,3.2c0,1.8,1.4,3.2,3.2,3.2c1.8,0,3.2-1.4,3.2-3.2C29,5.7,27.6,4.3,25.8,4.3z
	 M25.8,8.7c-0.6,0-1.2-0.5-1.2-1.2s0.5-1.2,1.2-1.2c0.7,0,1.2,0.5,1.2,1.2C27,8.2,26.4,8.7,25.8,8.7z"/>
<path class="st0" d="M65.7,0H4.3C2.2,0,0.5,1.7,0.5,3.8v45.7c0,2.1,1.7,3.8,3.8,3.8H10c-0.3,0.4-0.3,1,0.1,1.4l5,5
	c-0.4,0.8-0.7,1.6-1,2.4H7c-0.6,0-1,0.5-1,1V69c0,0.6,0.5,1,1,1h20.4c0.6,0,1-0.5,1-1c0-3.2,2.6-5.7,5.7-5.7S40,65.8,40,69
	c0,0.6,0.5,1,1,1h20.4c0.6,0,1-0.5,1-1V63c0-0.6-0.5-1-1-1h-7c-0.3-0.8-0.6-1.6-1-2.4l5-5c0.4-0.4,0.4-1,0.1-1.4h7.2
	c2.1,0,3.8-1.7,3.8-3.8V23.9c0-0.6-0.5-1-1-1c-0.6,0-1,0.5-1,1v25.6c0,1-0.8,1.7-1.7,1.7h-9.3l-6.1-6.1V38c0-0.6-0.5-1-1-1h-1.9
	v-6.4l1.5-1.4c0.3-0.3,0.4-0.7,0.3-1.1l-2.5-8c-0.1-0.4-0.5-0.7-1-0.7h-2.8c-0.5,0-0.9,0.3-1,0.7l-2.5,8c-0.1,0.4,0,0.8,0.3,1.1
	l1.5,1.4V37h-1.9c-0.6,0-1,0.5-1,1v2.7h-8.1v-1.6l4-4c0.2-0.2,0.3-0.5,0.3-0.7V26c0-0.3-0.1-0.5-0.3-0.7l-5.5-5.5
	c-0.3-0.3-0.7-0.4-1.1-0.2c-0.4,0.2-0.6,0.5-0.6,1v9.2l-2.7,1.7l-2.7-1.7v-0.6c0-0.6-0.5-1-1-1c-0.6,0-1,0.5-1,1v1.2
	c0,0.4,0.2,0.7,0.5,0.9l3.7,2.4c0.3,0.2,0.8,0.2,1.1,0l3.7-2.4c0.3-0.2,0.5-0.5,0.5-0.9V23l3.4,3.4V34l-4,4
	c-0.2,0.2-0.3,0.5-0.3,0.7v2c-0.5,0.1-0.8,0.5-0.8,1v7c-0.8,0.3-1.6,0.6-2.4,1l-4.7-4.7v-6.4c0-0.3-0.1-0.5-0.3-0.7l-4-4v-7.6
	l3.4-3.4v1.3c0,0.6,0.5,1,1,1s1-0.5,1-1v-3.8c0-0.4-0.2-0.8-0.6-1c-0.4-0.2-0.8-0.1-1.1,0.2l-5.5,5.5c-0.2,0.2-0.3,0.5-0.3,0.7v8.5
	c0,0.3,0.1,0.5,0.3,0.7l4,4v5.9L12,51.2H4.3c-1,0-1.7-0.8-1.7-1.7V15h64.9v4c0,0.6,0.5,1,1,1c0.6,0,1-0.5,1-1V3.8
	C69.5,1.7,67.8,0,65.7,0z M42.9,29.4l-1.3-1.2l2.1-6.7h1.2l2.1,6.7l-1.3,1.2c-0.2,0.2-0.3,0.5-0.3,0.8V37h-2.1v-6.8
	C43.3,29.9,43.1,29.6,42.9,29.4z M48.2,39.1v6l-4.7,4.7c-0.8-0.4-1.6-0.7-2.4-1v-7c0-0.5-0.4-0.9-0.8-1v-1.7H48.2z M25.2,52
	c1.1-0.6,2.2-1.1,3.4-1.4c0.4-0.1,0.7-0.5,0.7-1v-6.8h9.8v6.8c0,0.5,0.3,0.9,0.7,1c1.2,0.4,2.3,0.8,3.4,1.4c0.4,0.2,0.9,0.1,1.2-0.2
	l4.8-4.8l6,6l0.9,0.9l-4.8,4.8c-0.3,0.3-0.4,0.8-0.2,1.2c0.6,1.1,1.1,2.2,1.4,3.4c0.1,0.4,0.5,0.7,1,0.7h6.8v3.9H49.9
	c-0.5-8.2-7.3-14.6-15.6-14.6c-2.2,0-4.4,0.5-6.4,1.4c-0.5,0.2-0.8,0.8-0.5,1.4c0.2,0.5,0.8,0.8,1.4,0.5c1.8-0.8,3.6-1.2,5.5-1.2
	c7.2,0,13,5.6,13.6,12.6H42c-0.5-3.8-3.8-6.8-7.7-6.8c-4,0-7.2,3-7.7,6.8h-5.8c0.2-3.4,1.7-6.5,4.3-8.9c0.4-0.4,0.4-1.1,0-1.5
	c-0.4-0.4-1.1-0.4-1.5,0c-2.9,2.7-4.6,6.5-4.9,10.4H8.1v-3.9h6.8c0.5,0,0.9-0.3,1-0.7c0.4-1.2,0.8-2.3,1.4-3.4
	c0.2-0.4,0.1-0.9-0.2-1.2l-4.8-4.8l0.9-0.9l6-6l4.8,4.8C24.3,52.1,24.8,52.2,25.2,52z M2.6,13V3.8c0-1,0.8-1.7,1.7-1.7h61.4
	c1,0,1.7,0.8,1.7,1.7V13L2.6,13L2.6,13z"/>
</svg>
