<?xml version="1.0" encoding="utf-8"?>
<!-- Generator: Adobe Illustrator 23.0.1, SVG Export Plug-In . SVG Version: 6.00 Build 0)  -->
<svg version="1.1" id="Слой_1" xmlns="http://www.w3.org/2000/svg" xmlns:xlink="http://www.w3.org/1999/xlink" x="0px" y="0px"
	 width="70px" height="70px" viewBox="0 0 70 70" style="enable-background:new 0 0 70 70;" xml:space="preserve">
<style type="text/css">
	.st0{fill:#0071B3;}
</style>
<path class="st0" d="M16.5,65.1c0.3,0.2,0.8,0.2,1.1,0c5.2-3.5,11.2-5.3,17.4-5.3h0.1c6.2,0,12.2,1.9,17.3,5.3
	c0.3,0.2,0.8,0.2,1.1,0c9.2-6.2,14.7-16.5,14.7-27.6C68.3,19.2,53.3,4.3,35,4.3S1.8,19.2,1.8,37.5C1.8,48.6,7.3,58.9,16.5,65.1z
	 M3.9,34.6c0.3-3.5,1.2-7,2.7-10.2l0.8-1.7l6.3,3.6c0.5,0.3,1.1,0.1,1.3-0.4c0.1-0.2,0.2-0.5,0.1-0.7c-0.1-0.3-0.2-0.5-0.5-0.6
	L8.4,21l1.1-1.6c1-1.4,2.2-2.8,3.4-4c1.2-1.2,2.6-2.4,4-3.4l1.6-1.1l3.6,6.3c0.1,0.2,0.3,0.4,0.6,0.5c0.3,0.1,0.5,0,0.7-0.1
	c0.2-0.1,0.4-0.3,0.5-0.6s0-0.5-0.1-0.7l-3.6-6.3l1.7-0.8c3.2-1.5,6.6-2.4,10.2-2.7L34,6.2v7.3c0,0.5,0.4,1,1,1s1-0.4,1-1V6.2
	l1.9,0.2c3.5,0.3,7,1.2,10.2,2.7l1.7,0.8l-3.6,6.3c-0.3,0.5-0.1,1.1,0.4,1.3c0.5,0.3,1.1,0.1,1.3-0.4l3.6-6.3l1.6,1.1
	c1.4,1,2.8,2.2,4,3.4c1.2,1.2,2.4,2.6,3.4,4l1.1,1.6l-6.3,3.6c-0.5,0.3-0.6,0.9-0.4,1.3c0.1,0.2,0.3,0.4,0.6,0.5
	c0.3,0.1,0.5,0,0.7-0.1l6.3-3.6l0.8,1.7c1.5,3.2,2.4,6.6,2.7,10.2l0.2,1.9h-7.3c-0.5,0-1,0.4-1,1s0.4,1,1,1h7.3l-0.2,1.9
	c-0.8,8.7-5.3,16.7-12.2,22L53,63.1l-1-0.6c-4.1-2.4-8.5-3.9-13.2-4.4l-2.3-0.3l7.6-18.3c0.2-0.5,0-1.1-0.5-1.3
	c-0.2-0.1-0.5-0.1-0.8,0c-0.2,0.1-0.4,0.3-0.5,0.5l-7.9,19.1l-1.1,0.1c-5.4,0.3-10.6,1.9-15.2,4.6l-1,0.6l-0.9-0.7
	c-7-5.3-11.4-13.3-12.2-22l-0.2-1.9h7.3c0.5,0,1-0.4,1-1s-0.4-1-1-1H3.7L3.9,34.6z"/>
</svg>
