<?xml version="1.0" encoding="utf-8"?>
<!-- Generator: Adobe Illustrator 23.0.1, SVG Export Plug-In . SVG Version: 6.00 Build 0)  -->
<svg version="1.1" id="Слой_1" xmlns="http://www.w3.org/2000/svg" xmlns:xlink="http://www.w3.org/1999/xlink" x="0px" y="0px"
	 width="70px" height="70px" viewBox="0 0 70 70" style="enable-background:new 0 0 70 70;" xml:space="preserve">
<style type="text/css">
	.st0{fill:#0071B3;}
</style>
<path class="st0" d="M69.6,64.6c0-4.2-3-7.8-7.2-8.4L61.9,56l0.3-0.5c0.7-1,1.1-2.2,1.1-3.5v-8.2c0-0.6-0.5-1-1-1h-6.1
	c-2.6,0-4.8,2.1-4.8,4.8v4.5c0,1.3,0.4,2.5,1.1,3.5l0.3,0.5l-0.6,0.1c-0.9,0.1-1.8,0.4-2.6,0.9l-0.3,0.1l-0.2-0.3
	c-1.9-2.8-4.9-4.6-8.3-5l-0.7-0.2l0.4-0.4c1.3-1.4,2-3.2,2-5.1V35c0-0.6-0.5-1-1-1h-8.3c-3.4,0-6.1,2.7-6.1,6.1v6.1
	c0,1.9,0.7,3.7,2,5.1l0.4,0.4L29,51.9c-3.4,0.3-6.4,2.1-8.3,5l-0.2,0.3L20.2,57c-0.8-0.4-1.7-0.7-2.6-0.9L17.1,56l0.3-0.5
	c0.7-1,1.1-2.2,1.1-3.5v-8.2c0-0.6-0.5-1-1-1h-6.1c-2.6,0-4.8,2.1-4.8,4.8v4.5c0,1.3,0.4,2.5,1.1,3.5L8.1,56l-0.6,0.1
	c-4.2,0.7-7.2,4.2-7.2,8.4v4.1c0,0.6,0.5,1,1,1h67.3c0.6,0,1-0.5,1-1V64.6z M8.7,47.6c0-1.5,1.2-2.7,2.7-2.7h5.1v2
	c0,1-0.8,1.8-1.8,1.8h-6V47.6z M8.7,50.8h6c0.5,0,0.9-0.1,1.4-0.2l0.5-0.2v1.8c0,2.2-1.8,3.9-3.9,3.9s-3.9-1.8-3.9-3.9V50.8z
	 M14.3,58l-1.8,1.8L10.8,58H14.3z M19.5,59.2c-0.5,1.2-0.7,2.6-0.7,3.9v4.5H2.4v-3c0-3.2,2.3-5.9,5.5-6.5l0.2,0l3.8,3.8
	c0.4,0.4,1,0.4,1.4,0l3.8-3.8l0.2,0c0.7,0.1,1.4,0.3,2,0.7l0.3,0.1L19.5,59.2z M29.3,40.1c0-2.3,1.8-4.1,4.1-4.1h7.3v3.1
	c0,1.6-1.3,2.9-2.9,2.9h-8.5V40.1z M29.3,46.2V44h8.5c0.8,0,1.6-0.2,2.3-0.6l0.5-0.3v3.1c0,3.1-2.6,5.7-5.7,5.7
	C31.9,51.9,29.3,49.3,29.3,46.2z M38.3,53.9L35,57.1l-3.3-3.3H38.3z M49.2,67.6H20.8v-3.5H30c0.6,0,1-0.5,1-1s-0.5-1-1-1h-9.2
	l0.1-0.4c0.6-4,3.9-7.2,7.9-7.8l0.2,0l5.3,5.3c0.4,0.4,1,0.4,1.4,0l5.3-5.3l0.2,0c4.6,0.6,8,4.6,8,9.2V67.6z M53.5,47.6
	c0-1.5,1.2-2.7,2.7-2.7h5.1v2c0,1-0.8,1.8-1.8,1.8h-6V47.6z M53.5,50.8h6c0.5,0,0.9-0.1,1.4-0.2l0.5-0.2v1.8c0,2.2-1.8,3.9-3.9,3.9
	s-3.9-1.8-3.9-3.9V50.8z M59.2,58l-1.8,1.8L55.7,58H59.2z M67.6,67.6H51.2v-4.5c0-1.3-0.2-2.6-0.7-3.9l-0.1-0.3l0.3-0.1
	c0.6-0.3,1.3-0.5,2-0.7l0.2,0l3.8,3.8c0.4,0.4,1,0.4,1.4,0l3.8-3.8l0.2,0c3.2,0.5,5.5,3.2,5.5,6.5V67.6z"/>
<path class="st0" d="M41.5,9.2c-0.4-0.4-1-0.4-1.4,0l-7,7L29.9,13c-0.2-0.2-0.5-0.3-0.7-0.3s-0.5,0.1-0.7,0.3c-0.4,0.4-0.4,1,0,1.4
	l3.9,3.9c0.4,0.4,1,0.4,1.4,0l7.7-7.7C41.9,10.2,41.9,9.6,41.5,9.2z"/>
<path class="st0" d="M30.3,1.5c-0.1,0-0.2-0.1-0.4-0.1c-0.1,0-0.3,0-0.4,0.1c-4.8,2.2-7.9,6.9-7.9,12.2c0,7.4,6,13.4,13.4,13.4
	c7.4,0,13.4-6,13.4-13.4c0-5.3-3.1-10.1-7.9-12.2c-0.2-0.1-0.5-0.1-0.8,0c-0.3,0.1-0.5,0.3-0.6,0.5c-0.1,0.2-0.1,0.5,0,0.8
	s0.3,0.4,0.5,0.6c4.1,1.8,6.7,5.9,6.7,10.4c0,6.3-5.1,11.4-11.4,11.4S23.6,20,23.6,13.7c0-4.5,2.6-8.5,6.7-10.4
	c0.5-0.2,0.7-0.8,0.5-1.3C30.7,1.8,30.5,1.6,30.3,1.5z"/>
<path class="st0" d="M36,1.4c0-0.6-0.4-1-1-1h0c-0.6,0-1,0.5-1,1s0.5,1,1,1C35.6,2.4,36,1.9,36,1.4z"/>
<path class="st0" d="M35.7,62.5c-0.2-0.2-0.4-0.3-0.7-0.3s-0.5,0.1-0.7,0.3c-0.2,0.2-0.3,0.4-0.3,0.7s0.1,0.5,0.3,0.7
	c0.4,0.4,1,0.4,1.4,0c0.2-0.2,0.3-0.4,0.3-0.7S35.9,62.6,35.7,62.5z"/>
</svg>
