<?xml version="1.0" encoding="utf-8"?>
<!-- Generator: Adobe Illustrator 23.0.1, SVG Export Plug-In . SVG Version: 6.00 Build 0)  -->
<svg version="1.1" id="Слой_1" xmlns="http://www.w3.org/2000/svg" xmlns:xlink="http://www.w3.org/1999/xlink" x="0px" y="0px"
	 width="70px" height="70px" viewBox="0 0 70 70" style="enable-background:new 0 0 70 70;" xml:space="preserve">
<style type="text/css">
	.st0{fill:#0071B3;}
</style>
<path class="st0" d="M70.1,29.9c0-0.6-0.5-1-1-1h-8.8c-0.6,0-1,0.5-1,1v6.9c0,0.6,0.5,1,1,1s1-0.5,1-1v-5.9H68v36.7h-6.7V47.1
	c0-0.6-0.5-1-1-1s-1,0.5-1,1v20.5h-3.4V39c0-0.6-0.5-1-1-1h-8.8c-0.6,0-1,0.5-1,1v28.7h-3.4V48.5c0-0.6-0.5-1-1-1h-8.8
	c-0.6,0-1,0.5-1,1v19.1h-3.4V56.4c0-0.6-0.5-1-1-1h-8.8c-0.6,0-1,0.5-1,1v11.2H4.5c-0.9,0-1.7-0.8-1.7-1.7V4.1
	c0-0.9,0.8-1.7,1.7-1.7h35.6v9.4c0,2.1,1.7,3.8,3.8,3.8h9.4v17.2c0,0.6,0.5,1,1,1s1-0.5,1-1V14.5c0-0.3-0.1-0.5-0.3-0.7L41.9,0.6
	c-0.2-0.2-0.5-0.3-0.7-0.3H4.5C2.4,0.4,0.8,2,0.8,4.1v61.8c0,2.1,1.7,3.8,3.8,3.8H69c0.6,0,1-0.5,1-1V29.9z M42.2,3.8l9.7,9.7h-7.9
	c-0.9,0-1.7-0.8-1.7-1.7V3.8z M25.4,67.6h-6.7V57.4h6.7V67.6z M39.6,67.6h-6.7V49.6h6.7V67.6z M53.8,67.6h-6.7V40h6.7V67.6z"/>
<path class="st0" d="M61,41L61,41c-0.2-0.2-0.5-0.3-0.7-0.3s-0.5,0.1-0.7,0.3c-0.2,0.2-0.3,0.5-0.3,0.7s0.1,0.5,0.3,0.7
	c0.4,0.4,1.1,0.4,1.4,0c0.2-0.2,0.3-0.5,0.3-0.7S61.2,41.2,61,41z"/>
<path class="st0" d="M32.5,24.8h2.8c0.6,0,1-0.5,1-1c0-8.8-7.2-16-16-16c-0.6,0-1,0.5-1,1v2.8l-0.3,0c-6.2,0.7-10.9,5.9-10.9,12.2
	c0,6.7,5.5,12.2,12.2,12.2c6.3,0,11.5-4.7,12.2-10.9L32.5,24.8z M21.3,9.9l0.4,0c6.6,0.7,11.8,5.9,12.5,12.5l0,0.4H21.3V9.9z
	 M30.4,25.2c-0.7,5-5,8.8-10.1,8.8c-5.6,0-10.2-4.6-10.2-10.2c0-5.1,3.8-9.4,8.8-10.1l0.4-0.1v10.1c0,0.6,0.5,1,1,1h10.1L30.4,25.2z
	"/>
<path class="st0" d="M35.3,40.6H9.2c-0.6,0-1,0.5-1,1s0.5,1,1,1h26.1c0.6,0,1-0.5,1-1S35.8,40.6,35.3,40.6z"/>
<path class="st0" d="M17.9,47.2H9.2c-0.6,0-1,0.5-1,1s0.5,1,1,1h8.8c0.6,0,1-0.5,1-1S18.5,47.2,17.9,47.2z"/>
<path class="st0" d="M24.7,47.2c-0.3,0-0.5,0.1-0.7,0.3c-0.2,0.2-0.3,0.5-0.3,0.7s0.1,0.5,0.3,0.7c0.4,0.4,1.1,0.4,1.4,0
	c0.2-0.2,0.3-0.5,0.3-0.7s-0.1-0.5-0.3-0.7C25.3,47.3,25,47.2,24.7,47.2z"/>
</svg>
