<?xml version="1.0" encoding="utf-8"?>
<!-- Generator: Adobe Illustrator 23.0.1, SVG Export Plug-In . SVG Version: 6.00 Build 0)  -->
<svg version="1.1" id="Слой_1" xmlns="http://www.w3.org/2000/svg" xmlns:xlink="http://www.w3.org/1999/xlink" x="0px" y="0px"
	 viewBox="0 0 70 70" style="enable-background:new 0 0 70 70;" xml:space="preserve">
<style type="text/css">
	.st0{fill:#0071B3;}
</style>
<path class="st0" d="M69.9,21.5c0-0.6-0.5-1-1-1H50.7V1.1c0-0.3-0.1-0.6-0.4-0.8c-0.2-0.2-0.5-0.2-0.8-0.2L24.7,6.9h-4.4
	c-0.6,0-1,0.5-1,1v9c0,0.6,0.5,1,1,1h3.5v2.5H1.1c-0.6,0-1,0.5-1,1v36.1c0,0.6,0.5,1,1,1h27.2v4.8h-5.8c-3,0-5.5,2.5-5.5,5.5
	c0,0.6,0.5,1,1,1h33.9c0.6,0,1-0.5,1-1c0-3-2.5-5.5-5.5-5.5h-5.8v-4.8h27.2c0.6,0,1-0.5,1-1V21.5z M50.1,24.2L50.1,24.2L50.1,24.2
	C50.1,24.2,50.1,24.2,50.1,24.2z M25.8,8.7L25.8,8.7l22.8-6.2v19.9l-0.2,0l-22.7-6.2L25.8,8.7z M28.4,18.9v6h-2.5v-6.7L28.4,18.9z
	 M21.3,15.9v-7h2.5v7H21.3z M47.4,65.4c1.5,0,2.8,0.9,3.3,2.3l0.1,0.2H19.2l0.1-0.2c0.5-1.4,1.8-2.3,3.3-2.3H47.4z M30.4,63.4v-4.8
	h9.3v4.8H30.4z M67.9,56.6H2.1V22.5h21.7V26c0,0.6,0.5,1,1,1h4.5c0.6,0,1-0.5,1-1v-1.3h2.3v-2h-2.3v-3.2l19.1,5.2
	c0.3,0.1,0.6,0,0.8-0.2c0.2-0.2,0.4-0.5,0.4-0.8v-1.3h17.2V56.6z"/>
<rect x="53.2" y="9.2" class="st0" width="6.5" height="2"/>
<rect x="53" y="3.5" transform="matrix(0.9283 -0.3718 0.3718 0.9283 2.3277 21.1022)" class="st0" width="5.8" height="2"/>
<rect x="54.9" y="12.9" transform="matrix(0.3718 -0.9283 0.9283 0.3718 20.4369 61.8085)" class="st0" width="2" height="5.8"/>
<path class="st0" d="M47.3,30.5c0-0.6-0.5-1-1-1H23.7c-0.6,0-1,0.5-1,1v20.3c0,0.6,0.5,1,1,1h22.6c0.6,0,1-0.5,1-1V30.5z M45.3,49.8
	H24.7V31.5h20.6V49.8z"/>
<path class="st0" d="M5.6,54.1h5.5v-2H6.6v-4.5h-2v5.5C4.6,53.6,5.1,54.1,5.6,54.1z"/>
<path class="st0" d="M11.2,25H5.6c-0.6,0-1,0.5-1,1v5.5h2V27h4.5V25z"/>
<path class="st0" d="M65.4,31.5V26c0-0.6-0.5-1-1-1h-5.5v2h4.5v4.5H65.4z"/>
<path class="st0" d="M65.4,47.5h-2v4.5h-4.5v2h5.5c0.6,0,1-0.5,1-1V47.5z"/>
<path class="st0" d="M30.2,37.7v6.6c0,0.6,0.3,1.2,0.9,1.5c0.5,0.3,1.2,0.3,1.8,0l5.9-3.3c0.6-0.3,0.9-0.9,0.9-1.6s-0.3-1.2-0.9-1.6
	l-5.9-3.3c-0.3-0.2-0.6-0.2-0.9-0.2c-0.3,0-0.6,0.1-0.9,0.2C30.6,36.5,30.2,37.1,30.2,37.7z M31.8,37.6l0.3-0.2l0.1,0l5.9,3.3
	c0.1,0.1,0.1,0.1,0.1,0.2c0,0,0,0.1-0.1,0.2l-6.1,3.3l-0.1,0c0,0-0.1-0.1-0.1-0.2V37.6z"/>
</svg>
