<svg width="70" height="70" viewBox="0 0 70 70" fill="none" xmlns="http://www.w3.org/2000/svg">
<path d="M63 27.446V7C62.9979 5.06789 61.4321 3.50205 59.5 3.5H58.3334C58.3313 1.56789 56.7655 0.00205078 54.8334 0H35C33.6546 0.004375 32.3775 0.592949 31.5 1.61273C30.6225 0.592949 29.3454 0.004375 28 0H8.16662C6.23451 0.00205078 4.66867 1.56789 4.66662 3.5H3.5C1.56789 3.50205 0.00205078 5.06789 0 7V50.1666C0.00205078 52.0987 1.56789 53.6646 3.5 53.6666H42V59.5C42.0067 65.2962 46.7038 69.9933 52.5 70H59.5C65.2962 69.9933 69.9933 65.2962 70 59.5V37.3334C69.9922 32.8889 67.1893 28.93 63 27.446ZM58.3334 5.83338H59.5C60.1439 5.8342 60.6658 6.35605 60.6666 7V26.9021C60.2793 26.8576 59.8898 26.8346 59.5 26.8334H58.3334V5.83338ZM11.6666 2.33338H18.6666V17.6743L16.0774 14.438C15.8562 14.1612 15.521 14 15.1666 14C14.8122 14 14.477 14.1612 14.2558 14.438L11.6666 17.6743V2.33338ZM7 3.5C7.00082 2.85605 7.52268 2.3342 8.16662 2.33338H9.33324V21C9.33297 21.4956 9.64592 21.9371 10.1136 22.1011C10.5812 22.2652 11.1014 22.1158 11.4108 21.7286L15.1666 17.0341L18.9224 21.7286C19.1436 22.0056 19.4789 22.1668 19.8332 22.1666C20.1428 22.1669 20.4396 22.044 20.6585 21.8252C20.8774 21.6063 21.0001 21.3095 20.9999 21V2.33338H27.9999C29.288 2.33461 30.3319 3.37859 30.3332 4.66676V42.7211C29.6026 42.2553 28.7552 42.0053 27.8888 42H7V3.5ZM7 44.3334H27.889C29.1729 44.3784 30.2158 45.3852 30.3059 46.6668H7V44.3334ZM42 51.3334H3.5C2.85605 51.3326 2.3342 50.8107 2.33338 50.1668V7C2.3342 6.35605 2.85605 5.8342 3.5 5.83338H4.66662V47.8334C4.66662 48.4777 5.18889 49 5.83324 49H42V51.3334ZM42 46.6666H32.6941C32.7858 45.3837 33.8312 44.3769 35.1168 44.3332H42V46.6666ZM42 42H35.1168C34.2483 42.0052 33.3989 42.2558 32.6666 42.7227V4.66662C32.6679 3.37846 33.7118 2.33461 35 2.33324H54.8334C55.4773 2.33406 55.9992 2.85592 56 3.49986V26.8332H52.5C46.7038 26.8399 42.0067 31.5371 42 37.3332V42ZM54.8334 29.1666V44.3332H44.3334V37.3332C44.3384 32.8251 47.9918 29.1717 52.5 29.1666H54.8334ZM67.6666 59.5C67.6616 64.0082 64.0082 67.6616 59.5 67.6666H52.5C47.9918 67.6616 44.3384 64.0082 44.3334 59.5V46.6666H67.6668V59.5H67.6666ZM67.6666 44.3334H57.1666V29.1666H59.5C64.0082 29.1717 67.6616 32.8251 67.6666 37.3332V44.3334Z" fill="black"/>
<rect x="37" y="5" width="15" height="2" fill="#FF5555"/>
<rect x="37" y="10" width="15" height="2" fill="#FF5555"/>
<rect x="37" y="15" width="15" height="2" fill="#FF5555"/>
<rect x="37" y="20" width="15" height="2" fill="#FF5555"/>
</svg>
