<?xml version="1.0" encoding="utf-8"?>
<!-- Generator: Adobe Illustrator 23.0.1, SVG Export Plug-In . SVG Version: 6.00 Build 0)  -->
<svg version="1.1" id="Слой_1" xmlns="http://www.w3.org/2000/svg" xmlns:xlink="http://www.w3.org/1999/xlink" x="0px" y="0px"
	 width="70px" height="70px" viewBox="0 0 70 70" style="enable-background:new 0 0 70 70;" xml:space="preserve">
<style type="text/css">
	.st0{fill:#0071B3;}
</style>
<path d="M6.2,0.5c-3,0-5.4,2.4-5.4,5.4v35c0,3,2.4,5.4,5.4,5.4h32.1c3,0,5.4-2.4,5.4-5.4V16c0-0.3-0.1-0.5-0.3-0.7l0,0L28.8,0.7
	c-0.1-0.1-0.2-0.2-0.3-0.2c-0.1,0-0.2-0.1-0.3-0.1l-0.1,0L6.2,0.5z M32.5,17.1h1.5c0.6,0,1-0.5,1-1s-0.5-1-1-1h-1.5
	c-1.9,0-3.4-1.5-3.4-3.4V3.9l12.6,12.6v24.4c0,1.9-1.5,3.4-3.4,3.4H6.2c-1.9,0-3.4-1.5-3.4-3.4v-35c0-1.9,1.5-3.4,3.4-3.4h20.9v9.2
	C27.1,14.6,29.5,17.1,32.5,17.1z"/>
<path d="M28.1,50c-0.6,0-1,0.5-1,1v13.1c0,3,2.4,5.4,5.4,5.4h32.1c3,0,5.4-2.4,5.4-5.4V39.4c0-0.3-0.1-0.5-0.3-0.7L55.1,24.1
	c-0.1-0.1-0.2-0.2-0.3-0.2c-0.1,0-0.2-0.1-0.3-0.1l-0.1,0l-5.8,0c-0.6,0-1,0.5-1,1s0.5,1,1,1h4.8V35c0,3,2.4,5.4,5.4,5.4h1.5
	c0.6,0,1-0.5,1-1c0-0.6-0.5-1-1-1h-1.5c-1.9,0-3.4-1.5-3.4-3.4v-7.8l12.6,12.6v24.4c0,1.9-1.5,3.4-3.4,3.4H32.5
	c-1.9,0-3.4-1.5-3.4-3.4V51C29.1,50.5,28.7,50,28.1,50z"/>
<g>
	<path class="st0" d="M63.1,23.1c0.7,0,1.2-0.5,1.2-1.2V10.2c0-4.1-3.3-5.6-5.6-5.6H50l2.3-2.3c0.5-0.5,0.5-1.2,0-1.7
		c-0.5-0.5-1.2-0.5-1.7,0L46.2,5c-0.1,0.1-0.1,0.1-0.1,0.2C45.8,5.5,45.8,6,46,6.4c0.1,0.1,0.1,0.2,0.2,0.3l0,0l4.3,4.4
		c0.5,0.5,1.3,0.5,1.7,0c0.5-0.5,0.5-1.2,0-1.7L50,7h8.8c1.5,0,3.2,0.8,3.2,3.2v11.7C61.9,22.5,62.4,23.1,63.1,23.1z"/>
	<path class="st0" d="M17.3,69.4l4.4-4.4c0.1-0.1,0.1-0.1,0.2-0.2c0.1-0.2,0.2-0.3,0.2-0.5c0-0.3,0-0.7-0.2-0.9c0,0-0.1-0.1-0.1-0.1
		l0,0l-4.4-4.4c-0.5-0.5-1.3-0.5-1.7,0c-0.5,0.5-0.5,1.2,0,1.7l2.3,2.3H9.2C7.7,63,6,62.1,6,59.8V51c0-0.7-0.5-1.2-1.2-1.2
		S3.6,50.4,3.6,51v8.8c0,4.1,3.3,5.6,5.6,5.6h8.7l-2.3,2.3c-0.5,0.5-0.5,1.2,0,1.7C16,69.9,16.8,69.9,17.3,69.4z"/>
</g>
</svg>
