<svg width="54" height="70" viewBox="0 0 54 70" fill="none" xmlns="http://www.w3.org/2000/svg">
<path d="M33.9842 58.3323C31.7325 58.3323 29.9009 60.1639 29.9009 62.4156C29.9009 64.6672 31.7325 66.4988 33.9842 66.4988C36.2358 66.4988 38.0674 64.6672 38.0674 62.4156C38.0674 60.1639 36.2346 58.3323 33.9842 58.3323ZM33.9842 64.1655C33.0193 64.1655 32.2342 63.3804 32.2342 62.4156C32.2342 61.4507 33.0193 60.6656 33.9842 60.6656C34.949 60.6656 35.7341 61.4507 35.7341 62.4156C35.7341 63.3804 34.949 64.1655 33.9842 64.1655Z" fill="#0071B3"/>
<path d="M39.234 43.1657C41.8076 43.1657 43.9006 41.0728 43.9006 38.4991C43.9006 35.9255 41.8076 33.8325 39.234 33.8325C36.6604 33.8325 34.5674 35.9255 34.5674 38.4991C34.5674 41.0728 36.6592 43.1657 39.234 43.1657ZM39.234 36.1658C40.5208 36.1658 41.5673 37.2123 41.5673 38.4991C41.5673 39.7859 40.5208 40.8324 39.234 40.8324C37.9472 40.8324 36.9007 39.7859 36.9007 38.4991C36.9007 37.2123 37.9472 36.1658 39.234 36.1658Z" fill="#0071B3"/>
<path d="M11.2348 13.9997C11.5335 13.9997 11.8321 13.8853 12.0596 13.6578L14.3929 11.3245C14.8491 10.8684 14.8491 10.131 14.3929 9.67488C13.9368 9.21872 13.1995 9.21872 12.7433 9.67488L10.41 12.0082C9.95383 12.4643 9.95383 13.2017 10.41 13.6578C10.6375 13.8853 10.9362 13.9997 11.2348 13.9997Z" fill="black"/>
<path d="M53.234 34.7053C53.234 33.6786 52.8339 32.7138 52.1082 31.9881L51.4584 31.3383C52.5655 30.3583 53.2329 28.9408 53.2329 27.416C53.2329 24.5216 50.8774 22.1661 47.9829 22.1661C47.7706 22.1661 47.5606 22.1871 47.3529 22.2128C47.3786 22.0039 47.3996 21.7963 47.3996 21.5828C47.3996 18.6883 45.0441 16.3328 42.1497 16.3328C41.9373 16.3328 41.7273 16.3538 41.5197 16.3795C41.5453 16.1707 41.5663 15.963 41.5663 15.7495C41.5663 12.855 39.2109 10.4996 36.3164 10.4996C36.1041 10.4996 35.8941 10.5206 35.6864 10.5462C35.7121 10.3374 35.7331 10.1297 35.7331 9.91625C35.7331 7.02179 33.3776 4.66632 30.4831 4.66632C28.9572 4.66632 27.5408 5.33481 26.5609 6.44079L25.6345 5.51447L21.2444 1.12436C19.7453 -0.374787 17.307 -0.374787 15.8102 1.12436L1.44634 15.4882C-0.0504732 16.9873 -0.0504732 19.4245 1.44634 20.9236L5.83645 25.3137L11.5647 31.042C9.98273 31.9473 8.90125 33.6331 8.90125 35.5826C8.90125 37.4061 9.83807 39.0137 11.2544 39.9552C11.3256 40.0497 11.4084 40.143 11.5192 40.2375L24.0677 52.7382V54.8335H21.7344V70H42.7342H52.0674V54.8335H49.7341V51.2986C51.9659 49.4074 53.234 46.688 53.234 43.7492C53.234 41.7192 52.6005 39.7475 51.4421 38.0886L52.1082 37.4224C52.8339 36.6968 53.234 35.7319 53.234 34.7053ZM50.9007 27.416C50.9007 28.312 50.4877 29.1415 49.8076 29.6875L45.7115 25.5914C46.2575 24.9112 47.0881 24.4982 47.9829 24.4982C49.5917 24.4994 50.9007 25.8072 50.9007 27.416ZM45.0675 21.5828C45.0675 22.4788 44.6545 23.3082 43.9743 23.8542L39.8782 19.7581C40.4242 19.078 41.2548 18.665 42.1497 18.665C43.7585 18.6661 45.0675 19.974 45.0675 21.5828ZM39.2342 15.7495C39.2342 16.6455 38.8212 17.475 38.141 18.021L34.0449 13.9249C34.5909 13.2447 35.4216 12.8317 36.3164 12.8317C37.9252 12.8329 39.2342 14.1407 39.2342 15.7495ZM30.4843 6.99962C32.0931 6.99962 33.4009 8.30744 33.4009 9.91625C33.4009 10.8122 32.9879 11.6417 32.3078 12.1877L28.2117 8.09161C28.7577 7.41262 29.5883 6.99962 30.4843 6.99962ZM3.09599 19.2751C2.50799 18.686 2.50799 17.7282 3.09599 17.139L17.4598 2.77517C17.6056 2.62934 17.776 2.51968 17.9568 2.44618C18.0385 2.41234 18.1306 2.41351 18.217 2.39485C18.4246 2.35051 18.63 2.35051 18.8376 2.39485C18.924 2.41351 19.0161 2.41234 19.0978 2.44618C19.2786 2.51968 19.4478 2.62934 19.5948 2.77517L22.3352 5.51564L5.83645 22.0144L3.09599 19.2751ZM23.9849 7.16529L25.3592 8.5396L31.1925 14.3729L31.861 15.0414L37.0257 20.2061L37.6942 20.8746L42.859 26.0394L43.5275 26.7079L49.3607 32.5411L50.4574 33.6378C51.0466 34.2269 51.0466 35.1836 50.4574 35.7728L49.9476 36.2838L36.0947 50.1377C35.5079 50.7257 34.5478 50.7281 33.9586 50.1377L24.6546 40.8325H25.8165C28.711 40.8325 31.0665 38.4771 31.0665 35.5826C31.0665 32.6881 28.711 30.3327 25.8165 30.3327H14.1535L7.48493 23.6641L23.9849 7.16529ZM13.5212 32.7383L14.0054 32.6835C14.0532 32.6765 14.101 32.666 14.15 32.666H25.8165C27.4254 32.666 28.7332 33.9738 28.7332 35.5826C28.7332 37.1914 27.4254 38.4992 25.8165 38.4992H22.3212H19.022H14.15C12.5412 38.4992 11.2334 37.1914 11.2334 35.5826C11.2346 34.1908 12.2157 33.0276 13.5212 32.7383ZM24.0677 67.6655V57.1657H33.8979C37.4831 57.1657 40.4009 60.0835 40.4009 63.6686V67.6655H24.0677ZM49.7341 67.6655H42.7342V63.6686C42.7342 61.0949 41.6212 58.7826 39.8595 57.1657H49.7341V67.6655ZM49.7632 39.7685C50.5029 40.9597 50.9007 42.3375 50.9007 43.7492C50.9007 46.1466 49.7947 48.3528 47.8651 49.8053L47.4008 50.1553V54.8324H33.8968H26.3999V51.6614L25.988 51.3126C25.9355 51.2671 25.8795 51.2251 25.778 51.1492L15.4217 40.8314H21.3541L32.3078 51.7862C33.0579 52.5352 34.0414 52.9097 35.0249 52.9097C36.0096 52.9097 36.9942 52.5352 37.7432 51.7862L49.7632 39.7685Z" fill="black"/>
</svg>
