<svg id="mongodb.svg" xmlns="http://www.w3.org/2000/svg" width="117" height="55" viewBox="0 0 117 55">
  <defs>
    <style>
      .cls-1 {
        fill: #3f597e;
        fill-opacity: 0;
      }

      .cls-2 {
        fill: #fff;
        fill-rule: evenodd;
      }
    </style>
  </defs>
  <rect id="Прямоугольник_1_копия_3" data-name="Прямоугольник 1 копия 3" class="cls-1" width="117" height="55"/>
  <path id="Фигура_9" data-name="Фигура 9" class="cls-2" d="M753.525,49.783c3.606,0.9,4.475,5.031,1.242,7.075-3.012,1.9-7.1,1.041-10.479,1.091a1.174,1.174,0,0,1,.295-0.931c1.494-.091,1.759-0.475,1.813-1.881,0.06-1.526.026-3.06,0.027-4.587,0-1.462.044-2.93,0.01-4.392-0.038-1.62-.636-1.62-2.155-1.843a1.432,1.432,0,0,1,.367-0.907c1.306,0,2.61.076,3.919,0.058a15.7,15.7,0,0,1,4.689.222,3.166,3.166,0,0,1,2.419,2.524,2.925,2.925,0,0,1-.478,2.174c-0.179.262-1.381,1.49-1.669,1.4C755.289,50.225,753.454,49.76,753.525,49.783Zm-4.79,5.747a1.561,1.561,0,0,0,.691,1.117c3.229,1.772,6.834-2.628,3.935-5.077a4.239,4.239,0,0,0-2.09-.84,5.854,5.854,0,0,0-2.244-.083c-0.61.278-.344,1.415-0.344,2.089,0,0.929-.02,1.866.052,2.794C748.782,55.925,748.663,54.6,748.735,55.53ZM749.808,44.5a6.465,6.465,0,0,0-.859.046c-0.553.137-.258,3.651-0.26,4.106,0,0.874-.132.868,0.67,0.946a6.93,6.93,0,0,0,2.545-.121,2.452,2.452,0,0,0,1.253-3.336C752.614,44.816,751.119,44.5,749.808,44.5ZM733.7,58.019c-1.988,0-3.976-.05-5.963-0.07-0.465-.91,1.537-1.055,1.818-1.736a8.38,8.38,0,0,0,.119-2.68c0.007-.994,0-1.989,0-2.983,0-1.421.026-2.844,0-4.265-0.034-1.642-.817-1.79-2.356-1.971a2.273,2.273,0,0,1,.438-0.907c2.227,0,4.45.017,6.679,0,3.08-.02,6.111.8,7.53,3.773a7.726,7.726,0,0,1-.9,7.938C739.271,57.287,736.425,58.019,733.7,58.019Zm3.67-12.657c-1.219-.757-3.741-1.381-5.124-0.768-0.49.32-.251,1.7-0.254,2.168-0.009,1.162-.008,2.324-0.008,3.487,0,1.263,0,2.526.01,3.789,0.007,0.666-.145,1.861.514,2.306,1.139,0.9,3.4.7,4.639,0.114a5.14,5.14,0,0,0,2.589-3.029c0.959-2.819.35-6.435-2.366-8.067C736.322,44.711,739.23,46.479,737.371,45.362ZM720.488,58.219a4.606,4.606,0,0,1-4.8-4.108,4.976,4.976,0,0,1,4.64-5.754C727.12,47.591,727.172,58.219,720.488,58.219Zm-0.381-8.911a2.054,2.054,0,0,0-1.141.316c-3.346,2.01.173,10.009,3.575,7.075,1.263-1.017,1.089-3.454.663-4.818A3.33,3.33,0,0,0,720.107,49.307Zm-7.23.949c-0.255,0-.508-0.075-0.751-0.065a8.838,8.838,0,0,0,.143,1.519,3.421,3.421,0,0,1-.652,1.851c-0.977,1.281-2.3,1.243-3.674,1.694a0.712,0.712,0,0,0-.687.775c0.143,0.655,1.177.593,1.664,0.634,1.406,0.118,3.434-.058,4.428,1.145,1.053,1.276.4,3.069-.639,4.131a6.592,6.592,0,0,1-5.485,1.811c-1.435-.19-3.286-1.2-3.217-2.875a1.911,1.911,0,0,1,.651-1.278c0.306-.311,1.775-1.108,1.775-1.4,0-.345-1.46-0.688-1.451-1.416,0.012-.9,1.457-0.708,1.668-1.412,0.067-.225-1.427-1.032-1.687-1.406a3.564,3.564,0,0,1-.494-2.6c0.359-1.931,2.455-3,4.313-3.046,1.655-.037,3.745,1.567,5.2.174A1.254,1.254,0,0,1,712.877,50.257Zm-7.07,10.108c0,2.946,6,3.138,6.356.241C712.518,57.73,705.807,57.441,705.807,60.365Zm2.318-11.15c-2.766,0-2.216,4.953.335,5.093C711.316,54.464,710.972,49.214,708.125,49.214Zm-8.393,8.8c-1.048,0-1.763.07-2.383,0.07a1.263,1.263,0,0,1,0-.931,3.885,3.885,0,0,0,.977-0.186c0.856-.257.425-4.236,0.336-5.037a2.386,2.386,0,0,0-4.1-1.385c-0.715.582-.259,3.427-0.249,4.271,0.019,1.417-.161,2.241,1.512,2.337a1.288,1.288,0,0,1-.095.931h-4.91a1.258,1.258,0,0,1,0-.931c0.95-.123,1.284-0.171,1.4-1.1a21.587,21.587,0,0,0,.053-2.595,11.965,11.965,0,0,0-.013-2.5,0.987,0.987,0,0,0-.423-0.72c-0.092-.081-1.006-0.373-1.006-0.4-0.54-.166-0.412-0.648.1-0.744a14.8,14.8,0,0,0,3.241-.838c0.178,0.259-.03,1.463.134,1.541a10.013,10.013,0,0,0,1.4-.936,4.221,4.221,0,0,1,1.931-.617,3,3,0,0,1,2.894,2.3,17.38,17.38,0,0,1,.214,4.475c0.017,1.436-.043,1.926,1.563,2.14a1.277,1.277,0,0,1-.1.931C701.877,58.085,701.043,58.015,699.732,58.015Zm-16.323.2a4.605,4.605,0,0,1-4.794-4.108,4.975,4.975,0,0,1,4.639-5.753C690.04,47.59,690.093,58.219,683.409,58.219Zm-0.381-8.911a2.051,2.051,0,0,0-1.14.316c-3.347,2.009.171,10.008,3.574,7.075,1.263-1.018,1.089-3.454.663-4.818A3.329,3.329,0,0,0,683.028,49.307Zm-6.677,8.68a37.047,37.047,0,0,0-4.227.018,1.9,1.9,0,0,1-.006-0.782c0.819-.152,1.249-0.249,1.348-1.128a18.033,18.033,0,0,0,.026-1.889c0.006-1.271.287-3.143-.9-4.014a2.664,2.664,0,0,0-2.673-.063c-1.121.509-.794,0.91-0.778,1.965,0.018,1.179-.017,2.36-0.009,3.539,0.009,1.2.322,1.4,1.494,1.59a1.052,1.052,0,0,1-.094.785c-1.6-.054-3.187-0.005-4.784,0a0.89,0.89,0,0,1,0-.785c0.912-.168,1.36-0.157,1.484-1.129a18.015,18.015,0,0,0,.055-2.117c0.009-1.356.243-3.47-1.323-4.106a2.924,2.924,0,0,0-2.621.428c-0.815.625-.547,1.614-0.549,2.574,0,1-.035,2,0.013,3,0.051,1.075.465,1.167,1.474,1.345a1.657,1.657,0,0,1-.064.788c-1.613-.01-3.22-0.007-4.833,0a0.988,0.988,0,0,1,0-.784c1.421-.221,1.522-0.7,1.558-2.067a20.968,20.968,0,0,0,.01-4.265A1.181,1.181,0,0,0,660,49.915c-0.413-.185-1.143-0.252-0.6-0.718a4.908,4.908,0,0,1,1.556-.336,9.865,9.865,0,0,0,1.8-.55c0.49,0.588-.516,1.63.534,1.28,1.032-.343,1.7-1.206,2.884-1.268a2.633,2.633,0,0,1,1.473.36c0.339,0.2.78,1.024,1.065,1.11,0.551,0.167,2.193-1.23,2.964-1.4,2.041-.437,3.432,1.085,3.675,2.965a32.3,32.3,0,0,1,.026,4.232c-0.007,1.255.337,1.425,1.62,1.626a1.758,1.758,0,0,1-.123.787c-0.129,0-.308-0.01-0.531-0.021h0Zm-26.417-.108c-0.934.763-1.531,1.216-1.643,2.48a16.644,16.644,0,0,0,.028,2.623l-0.868-.284c0.016-1.124.077-2.893-.653-3.788-0.549-.674-1.433-1.2-2.043-1.84a15.651,15.651,0,0,1-4.362-9.1,18.481,18.481,0,0,1,2.844-11.5,16.546,16.546,0,0,1,2.433-2.99c0.8-.769,1.662-1.268,1.753-2.486a0.654,0.654,0,0,1,.035.107V31.076a13.1,13.1,0,0,0,2.754,3.816,19.348,19.348,0,0,1,4.054,7.622,15.438,15.438,0,0,1-.623,10.127,15.074,15.074,0,0,1-1.9,3.249A13.747,13.747,0,0,0,649.934,57.879Z" transform="translate(-640 -25)"/>
</svg>
