<?xml version="1.0" encoding="utf-8"?>
<!-- Generator: Adobe Illustrator 23.0.1, SVG Export Plug-In . SVG Version: 6.00 Build 0)  -->
<svg version="1.1" id="Слой_1" xmlns="http://www.w3.org/2000/svg" xmlns:xlink="http://www.w3.org/1999/xlink" x="0px" y="0px"
	 width="70px" height="70px" viewBox="0 0 70 70" style="enable-background:new 0 0 70 70;" xml:space="preserve">
<style type="text/css">
	.st0{fill:#0071B3;}
</style>
<path class="st0" d="M63.3,8.3H27.4l-3-4.9c-0.3-0.6-1-0.9-1.6-0.9H6.7c-1.1,0-1.9,0.9-1.9,1.9V27H1.5c-0.4,0-0.8,0.2-1,0.5
	c-0.3,0.3-0.4,0.7-0.3,1.1l5.7,37.9c0.1,0.7,0.7,1.1,1.3,1.1h55.5c0.7,0,1.2-0.5,1.3-1.1l5.7-37.9c0.1-0.4-0.1-0.8-0.3-1.1
	c-0.3-0.3-0.6-0.5-1-0.5h-3.3V10.2C65.2,9.1,64.4,8.3,63.3,8.3z M6.8,4.5h15.9l2.9,4.9c0.3,0.6,1,0.9,1.6,0.9h35.9V27h-2.7v-8.2H9.5
	V27H6.8V4.5z M58.5,20.8V27H11.5v-6.2H58.5z M67.7,29l0,0.2l-5.5,36.4H7.8L2.3,29H67.7z"/>
</svg>
