<?xml version="1.0" encoding="utf-8"?>
<!-- Generator: Adobe Illustrator 23.0.1, SVG Export Plug-In . SVG Version: 6.00 Build 0)  -->
<svg version="1.1" id="Слой_1" xmlns="http://www.w3.org/2000/svg" xmlns:xlink="http://www.w3.org/1999/xlink" x="0px" y="0px"
	 viewBox="0 0 70 70" style="enable-background:new 0 0 70 70;" xml:space="preserve">
<style type="text/css">
	.st0{fill:#0071B3;}
</style>
<path class="st0" d="M22.7,16.5H4.5c-1.8,0-3.3,1.5-3.3,3.3v46.7c0,1.8,1.5,3.3,3.3,3.3h60.7c1.8,0,3.3-1.5,3.3-3.3V19.8
	c0-1.8-1.5-3.3-3.3-3.3H47c-0.5,0-1,0.4-1,1s0.4,1,1,1h18.2c0.7,0,1.3,0.6,1.3,1.3v6H47.6c-0.5,0-1,0.4-1,1s0.4,1,1,1h18.9v38.7
	c0,0.7-0.6,1.3-1.3,1.3H4.5c-0.7,0-1.3-0.6-1.3-1.3V27.8h18.9c0.5,0,1-0.4,1-1s-0.4-1-1-1H3.2v-6c0-0.7,0.6-1.3,1.3-1.3h18.2
	c0.5,0,1-0.4,1-1S23.3,16.5,22.7,16.5z"/>
<path class="st0" d="M5.8,22.2c0,0.3,0.1,0.5,0.3,0.7c0.4,0.4,1,0.4,1.4,0c0.2-0.2,0.3-0.5,0.3-0.7s-0.1-0.5-0.3-0.7
	c-0.4-0.4-1-0.4-1.4,0C5.9,21.6,5.8,21.9,5.8,22.2z"/>
<path class="st0" d="M10.5,22.2c0,0.3,0.1,0.5,0.3,0.7c0.2,0.2,0.5,0.3,0.7,0.3s0.5-0.1,0.7-0.3c0.2-0.2,0.3-0.5,0.3-0.7
	s-0.1-0.5-0.3-0.7c-0.4-0.4-1-0.4-1.4,0C10.6,21.6,10.5,21.9,10.5,22.2z"/>
<path class="st0" d="M15.2,22.2c0,0.3,0.1,0.5,0.3,0.7c0.4,0.4,1,0.4,1.4,0c0.2-0.2,0.3-0.4,0.3-0.7c0-0.3-0.1-0.5-0.3-0.7
	c-0.3-0.3-1.1-0.3-1.4,0C15.3,21.6,15.2,21.9,15.2,22.2z"/>
<path class="st0" d="M49.8,47l2.3-5.8c0.1-0.3,0.1-0.7-0.1-1l-7.2-9.9l0-0.1c0.7-5.5,0.3-10.8-1.1-15.6c-1.5-5.1-4.3-9.9-8.2-14.2
	c-0.4-0.4-1.1-0.4-1.5,0c-3.9,4.3-6.6,9.1-8.2,14.2c-1.4,4.8-1.8,10-1.1,15.6l0,0.1l0,0.1l-7.2,9.8c-0.2,0.3-0.2,0.6-0.1,1l2.3,5.8
	c0.1,0.3,0.3,0.5,0.6,0.6c0.3,0.1,0.6,0,0.8-0.1l6.7-4.5l0.1,0.2c0.3,0.9,0.7,1.8,1,2.7l0,0c0,0.1,0.1,0.2,0.2,0.3c0,0,0,0,0.1,0.1
	c0,0,0.1,0,0.1,0l0.1,0c0,0,0.1,0.1,0.1,0.1c0.1,0.1,0.2,0.1,0.4,0.1l0,0h0.7l-1.6,3.2c-0.2,0.3-0.1,0.7,0,1
	c0.2,0.3,0.5,0.5,0.8,0.5h9.3c0.3,0,0.7-0.2,0.8-0.5c0.2-0.3,0.2-0.7,0-1l-1.6-3.2h0.4c0,0,0,0,0.1,0c0,0,0.1,0,0.1,0l0,0l0,0
	c0,0,0.1,0,0.1,0c0,0,0,0,0.1,0c0.4,0,0.8-0.2,0.9-0.6c0.4-0.9,0.7-1.8,1-2.7l0.1-0.2l6.7,4.5c0.2,0.2,0.6,0.2,0.8,0.1
	C49.4,47.5,49.7,47.3,49.8,47z M21.3,45.1L19.6,41l0.1-0.1l5.6-7.7l0.1,0.4c0.5,2.4,1.1,4.8,2,7.4l0,0.1L21.3,45.1z M31.8,49.2
	l1.3-2.7h3.4l1.3,2.7H31.8z M39.6,42.5c-0.2,0.6-0.4,1.2-0.7,1.9l0,0.1h-8.1l0-0.1c-0.3-0.7-0.5-1.3-0.7-1.9
	c-0.9-2.6-2.4-6.8-3.1-12l0-0.1c-0.7-5.4-0.4-10.5,1-15.2c1.3-4.4,3.6-8.6,6.9-12.5l0.1-0.2L35,2.8c3.2,3.8,5.5,8,6.9,12.5
	c1.4,4.7,1.7,9.8,1,15.2l-0.2,0c0,0,0,0,0,0l0.2,0C42.1,35.6,40.6,39.9,39.6,42.5z M48.4,45.1L42.3,41l0-0.1c0.9-2.6,1.5-5,2-7.4
	l0.1-0.4L50,41l0,0.1L48.4,45.1z"/>
<path class="st0" d="M34.8,56.2c-0.5,0-1,0.4-1,1v3.5c0,0.5,0.4,1,1,1s1-0.4,1-1v-3.5C35.8,56.6,35.4,56.2,34.8,56.2z"/>
<path class="st0" d="M30.2,53.8c-0.5,0-1,0.4-1,1v3.5c0,0.5,0.4,1,1,1c0.5,0,1-0.4,1-1v-3.5C31.2,54.3,30.7,53.8,30.2,53.8z"/>
<path class="st0" d="M39.5,53.8c-0.5,0-1,0.4-1,1v3.5c0,0.5,0.4,1,1,1s1-0.4,1-1v-3.5C40.5,54.3,40.1,53.8,39.5,53.8z"/>
<path class="st0" d="M34.8,15.3c-3.1,0-5.7,2.5-5.7,5.7s2.5,5.7,5.7,5.7c3.1,0,5.7-2.5,5.7-5.7S38,15.3,34.8,15.3z M34.8,24.7
	c-2,0-3.7-1.6-3.7-3.7s1.6-3.7,3.7-3.7s3.7,1.6,3.7,3.7S36.9,24.7,34.8,24.7z"/>
</svg>
