<svg id="mysql.svg" xmlns="http://www.w3.org/2000/svg" width="86" height="55" viewBox="0 0 86 55">
  <defs>
    <style>
      .cls-1 {
        fill: #3f597e;
        fill-opacity: 0;
      }

      .cls-2 {
        fill: #fff;
        fill-rule: evenodd;
      }
    </style>
  </defs>
  <rect id="Прямоугольник_1_копия_19" data-name="Прямоугольник 1 копия 19" class="cls-1" width="86" height="55"/>
  <path id="mysql.png" class="cls-2" d="M3095,60.025h2.83V48.768l4.39,9.813a2.408,2.408,0,0,0,2.61,1.608,2.384,2.384,0,0,0,2.59-1.608l4.39-9.813V60.025h2.83V48.786a1.707,1.707,0,0,0-1.33-1.9c-2.16-.676-3.6-0.091-4.25,1.37l-4.31,9.685-4.17-9.685c-0.62-1.462-2.09-2.047-4.25-1.37a1.707,1.707,0,0,0-1.33,1.9V60.025Zm22-9.162h2.83v6.2c-0.03.337,0.11,1.128,1.66,1.152,0.79,0.012,6.11,0,6.16,0V50.832h2.84c0.01,0,0,10.07,0,10.113,0.01,2.483-3.07,3.023-4.49,3.065h-8.94V62.092c0.01,0,8.94,0,8.96,0,1.82-.194,1.61-1.106,1.61-1.413V59.931h-6.02c-2.81-.026-4.59-1.256-4.61-2.671C3117,57.128,3117.06,50.924,3117,50.862Zm15.67,9.162h8.15a6.217,6.217,0,0,0,2.61-.548,2.584,2.584,0,0,0,1.83-2.339V55.054c0-.822-0.68-1.59-2.02-2.1a6.885,6.885,0,0,0-2.42-.42h-3.43c-1.15,0-1.69-.347-1.83-1.114a0.75,0.75,0,0,1-.03-0.256v-1.3a0.7,0.7,0,0,1,.03-0.238c0.14-.585.44-0.749,1.44-0.841,0.09,0,.2-0.018.28-0.018h8.09v-1.9h-7.96a7.657,7.657,0,0,0-2.29.237c-1.68.53-2.42,1.371-2.42,2.832V51.6c0,1.279,1.44,2.375,3.87,2.631,0.27,0.018.54,0.036,0.82,0.036h2.94a1.487,1.487,0,0,1,.3.018,1.979,1.979,0,0,1,1.55.566,0.7,0.7,0,0,1,.22.512v1.663a0.964,0.964,0,0,1-.41.676,2.005,2.005,0,0,1-1.2.4c-0.11,0-.19.018-0.3,0.018h-7.82v1.9Zm30.26-3.307c0,1.955,1.45,3.052,4.36,3.271,0.28,0.018.55,0.036,0.82,0.036h7.38v-1.9h-7.43c-1.67,0-2.29-.42-2.29-1.425V46.868h-2.84v9.849Zm-15.86.1V50.042c0-1.721,1.2-2.765,3.57-3.095a5.448,5.448,0,0,1,.77-0.055h5.38a5.732,5.732,0,0,1,.79.055c2.37,0.33,3.57,1.373,3.57,3.095v6.775a2.476,2.476,0,0,1-1.68,2.631l2.79,2.535h-3.29l-2.26-2.051-2.27.145h-3.03a6.266,6.266,0,0,1-1.67-.238C3147.94,59.344,3147.07,58.392,3147.07,56.817Zm3.06-.165a1.112,1.112,0,0,0,.05.293c0.16,0.787.9,1.227,2.02,1.227h2.57l-2.36-2.148h3.29l2.06,1.873a1.36,1.36,0,0,0,.72-0.916,0.859,0.859,0,0,0,.03-0.275v-6.5a0.807,0.807,0,0,0-.03-0.257c-0.16-.732-0.9-1.154-1.99-1.154h-4.29c-1.26,0-2.07.549-2.07,1.41v6.445Zm26.69,1.418a2.09,2.09,0,1,0,2.09-2.1A2.069,2.069,0,0,0,3176.82,58.07Zm3.71,0a1.621,1.621,0,1,1-1.62-1.664A1.618,1.618,0,0,1,3180.53,58.07Zm-1.06,1.2h0.47l-0.68-1.053a0.623,0.623,0,0,0,.64-0.656c0-.487-0.3-0.689-0.89-0.689h-0.93v2.4h0.4V58.233h0.37Zm-0.99-1.373V57.208h0.46c0.24,0,.53.045,0.53,0.325,0,0.336-.26.364-0.56,0.364h-0.43Z" transform="translate(-3095 -25)"/>
</svg>
