<svg width="70" height="70" viewBox="0 0 70 70" fill="none" xmlns="http://www.w3.org/2000/svg">
<path d="M58.7096 51.2027V40.6451H50.5829C47.7851 37.6758 44.2298 35.5961 40.3561 34.5867C43.2351 32.7904 45.1613 29.6043 45.1613 25.9677C45.1613 20.3654 40.6034 15.8064 35 15.8064C29.3966 15.8064 24.8387 20.3654 24.8387 25.9677C24.8387 29.6043 26.7648 32.7904 29.6438 34.5867C25.769 35.5961 22.2148 37.6758 19.4171 40.6451H11.2903V51.2027C9.96029 51.8395 9.03223 53.1875 9.03223 54.758C9.03223 56.3285 9.96029 57.6766 11.2903 58.3133V67.7419H30.5132C31.5451 69.1046 33.1642 69.9999 35 69.9999C36.8358 69.9999 38.4559 69.1046 39.4867 67.7419H58.7096V58.3133C60.0396 57.6766 60.9677 56.3285 60.9677 54.758C60.9677 53.1875 60.0396 51.8395 58.7096 51.2027ZM27.0967 25.9677C27.0967 21.6096 30.643 18.0645 35 18.0645C39.3569 18.0645 42.9032 21.6096 42.9032 25.9677C42.9032 30.3258 39.3569 33.8709 35 33.8709C30.643 33.8709 27.0967 30.3258 27.0967 25.9677ZM35 36.129C39.5127 36.129 43.8584 37.7627 47.2963 40.6451H38.2403L37.914 41.2062C37.2953 42.2687 36.2058 42.9032 35 42.9032C33.7942 42.9032 32.7046 42.2687 32.0859 41.2062L31.7596 40.6451H22.7037C26.1416 37.7627 30.4872 36.129 35 36.129ZM12.9838 53.0645H16.3709C17.3046 53.0645 18.0645 53.8243 18.0645 54.758C18.0645 55.6917 17.3046 56.4516 16.3709 56.4516H12.9838C12.0501 56.4516 11.2903 55.6917 11.2903 54.758C11.2903 53.8243 12.0501 53.0645 12.9838 53.0645ZM13.5484 65.4838V58.7096H16.3709C18.55 58.7096 20.3225 56.937 20.3225 54.758C20.3225 52.579 18.55 50.8064 16.3709 50.8064H13.5484V42.9032H29.3548V64.3548C29.3548 64.7409 29.3943 65.1191 29.4688 65.4838H13.5484ZM35 67.7419C33.1325 67.7419 31.6129 66.2222 31.6129 64.3548V44.0017C32.5782 44.7356 33.7625 45.1612 35 45.1612C36.2374 45.1612 37.4217 44.7356 38.3871 44.0017V64.3548C38.3871 66.2222 36.8674 67.7419 35 67.7419ZM40.5311 65.4838C40.6056 65.1191 40.6451 64.7409 40.6451 64.3548V42.9032H56.4516V50.8064H53.629C51.45 50.8064 49.6774 52.579 49.6774 54.758C49.6774 56.937 51.45 58.7096 53.629 58.7096H56.4516V65.4838H40.5311ZM57.0161 56.4516H53.629C52.6953 56.4516 51.9355 55.6917 51.9355 54.758C51.9355 53.8243 52.6953 53.0645 53.629 53.0645H57.0161C57.9498 53.0645 58.7096 53.8243 58.7096 54.758C58.7096 55.6917 57.9498 56.4516 57.0161 56.4516Z" fill="black"/>
<path d="M4.51611 9.03223H6.77418V11.2903H4.51611V9.03223Z" fill="black"/>
<path d="M9.03223 9.03223H20.3225V11.2903H9.03223V9.03223Z" fill="black"/>
<path d="M4.51611 13.5483H20.3226V15.8064H4.51611V13.5483Z" fill="black"/>
<path d="M18.0645 25.8198V20.3226H21.4516C23.319 20.3226 24.8387 18.8029 24.8387 16.9355V3.3871C24.8387 1.51968 23.319 0 21.4516 0H3.3871C1.51968 0 0 1.51968 0 3.3871V16.9355C0 18.8029 1.51968 20.3226 3.3871 20.3226H9.81919L18.0645 25.8198ZM2.25806 16.9355V3.3871C2.25806 2.765 2.76387 2.25806 3.3871 2.25806H21.4516C22.0748 2.25806 22.5806 2.765 22.5806 3.3871V16.9355C22.5806 17.5576 22.0748 18.0645 21.4516 18.0645H15.8065V21.5995L10.5034 18.0645H3.3871C2.76387 18.0645 2.25806 17.5576 2.25806 16.9355Z" fill="black"/>
<path d="M4.51611 4.51611H20.3226V6.77418H4.51611V4.51611Z" fill="black"/>
<path d="M63.2256 9.03223H65.4837V11.2903H63.2256V9.03223Z" fill="#FF5555"/>
<path d="M49.6772 9.03223H60.9676V11.2903H49.6772V9.03223Z" fill="#FF5555"/>
<path d="M49.6772 13.5483H65.4837V15.8064H49.6772V13.5483Z" fill="#FF5555"/>
<path d="M66.6127 0H48.5482C46.6808 0 45.1611 1.51968 45.1611 3.3871V16.9355C45.1611 18.8029 46.6808 20.3226 48.5482 20.3226H51.9353V25.8198L60.1807 20.3226H66.6127C68.4802 20.3226 69.9998 18.8029 69.9998 16.9355V3.3871C69.9998 1.51968 68.4802 0 66.6127 0ZM67.7418 16.9355C67.7418 17.5576 67.236 18.0645 66.6127 18.0645H59.4965L54.1934 21.5995V18.0645H48.5482C47.925 18.0645 47.4192 17.5576 47.4192 16.9355V3.3871C47.4192 2.765 47.925 2.25806 48.5482 2.25806H66.6127C67.236 2.25806 67.7418 2.765 67.7418 3.3871V16.9355Z" fill="#FF5555"/>
<path d="M49.6772 4.51611H65.4837V6.77418H49.6772V4.51611Z" fill="#FF5555"/>
<path d="M33.8711 47.4194H36.1292V49.6775H33.8711V47.4194Z" fill="black"/>
<path d="M33.8711 51.9355H36.1292V54.1936H33.8711V51.9355Z" fill="black"/>
<path d="M33.8711 56.4517H36.1292V58.7097H33.8711V56.4517Z" fill="black"/>
</svg>
