<svg width="70" height="70" viewBox="0 0 70 70" fill="none" xmlns="http://www.w3.org/2000/svg">
<path d="M22.4026 64.2007H24.4491V69.7955H22.4026V64.2007Z" fill="#0071B3"/>
<path d="M45.5508 64.2007H47.5973V69.7955H45.5508V64.2007Z" fill="#0071B3"/>
<path d="M63.4209 47.5048H60.278V45.7173C62.2337 44.3614 63.5187 42.1018 63.5187 39.5468V35.6578C63.5187 31.5194 60.152 28.1527 56.0136 28.1527C51.8757 28.1527 48.509 31.5194 48.509 35.6578V39.5468C48.509 42.1018 49.7934 44.3614 51.7496 45.7173V47.5043H48.6057C45.4729 47.5043 42.8133 49.7196 42.174 52.6996H40.2877V49.8552C42.856 48.1414 44.5516 45.218 44.5516 41.9052V36.7884C44.5516 31.5216 40.2669 27.2368 35 27.2368C29.7331 27.2368 25.4484 31.5216 25.4484 36.7884V41.9052C25.4484 45.218 27.144 48.1409 29.7123 49.8552V52.6996H27.826C27.1867 49.7196 24.5271 47.5043 21.3943 47.5043H18.2504V45.7173C20.2066 44.3614 21.491 42.1018 21.491 39.5468V35.6578C21.491 31.5194 18.1243 28.1527 13.9864 28.1527C9.84802 28.1527 6.48132 31.5194 6.48132 35.6578V39.5468C6.48132 42.1018 7.76627 44.3614 9.72198 45.7173V47.5048H6.57906C2.9512 47.5048 0 50.456 0 54.0839V69.7953H2.04704V54.0839C2.04704 51.5845 4.07967 49.5513 6.57906 49.5513H9.82559C10.2518 51.4563 11.9549 52.8849 13.9864 52.8849C16.018 52.8849 17.7211 51.4563 18.1473 49.5513H21.3943C23.3992 49.5513 25.1221 50.8678 25.7095 52.6996H25.2534C20.6584 52.6996 16.92 56.438 16.92 61.0331V69.7953H18.9671V61.0331C18.9671 57.5665 21.7869 54.7467 25.2534 54.7467H29.7908C30.2202 57.2338 32.3917 59.1323 35 59.1323C37.6083 59.1323 39.7798 57.2338 40.2092 54.7467H44.7466C48.2131 54.7467 51.0329 57.5665 51.0329 61.0331V69.7953H53.08V61.0331C53.08 56.438 49.3416 52.6996 44.7466 52.6996H44.2905C44.8779 50.8678 46.6013 49.5513 48.6057 49.5513H51.8527C52.2789 51.4563 53.982 52.8849 56.0136 52.8849C58.0451 52.8849 59.7482 51.4563 60.1744 49.5513H63.4209C65.9203 49.5513 67.953 51.5845 67.953 54.0839V69.7953H70V54.0839C70 50.456 67.0488 47.5048 63.4209 47.5048ZM13.9864 30.1998C16.9654 30.1998 19.3927 32.5988 19.4424 35.566C18.7337 34.5812 17.5919 33.9862 16.3582 33.9862H11.6142C10.381 33.9862 9.2392 34.5817 8.5305 35.566C8.57964 32.5988 11.0075 30.1998 13.9864 30.1998ZM16.2038 48.6205C16.2038 49.8435 15.2089 50.8379 13.9864 50.8379C12.764 50.8379 11.769 49.8435 11.769 48.6205V46.7171C12.4702 46.9339 13.2147 47.0514 13.9864 47.0514C14.7581 47.0514 15.5026 46.9339 16.2038 46.7171V48.6205ZM13.9864 45.0049C11.0598 45.0049 8.66455 42.6892 8.53477 39.7941L10.0713 36.9529C10.3778 36.3852 10.969 36.0327 11.6142 36.0327H16.3582C17.0033 36.0327 17.5951 36.3852 17.9016 36.9529L19.4381 39.7941C19.3083 42.6892 16.9131 45.0049 13.9864 45.0049ZM27.4949 36.7884C27.4949 32.65 30.8616 29.2833 35 29.2833C39.1384 29.2833 42.5051 32.65 42.5051 36.7884V37.8619L42.2359 37.3652C41.4178 35.8522 39.8412 34.9123 38.121 34.9123H31.879C30.1588 34.9123 28.5822 35.8522 27.7635 37.3652L27.4949 37.8619V36.7884ZM38.2407 53.8446C38.2407 55.6321 36.787 57.0858 35 57.0858C33.213 57.0858 31.7593 55.6321 31.7593 53.8446V50.8902C32.7719 51.2566 33.863 51.4569 35 51.4569C36.137 51.4569 37.2281 51.2566 38.2407 50.8902V53.8446ZM35 49.4104C30.9449 49.4104 27.6327 46.1766 27.5013 42.153L29.5644 38.3388C30.0242 37.4875 30.9113 36.9588 31.879 36.9588H38.121C39.0887 36.9588 39.9758 37.4881 40.4356 38.3388L42.4987 42.153C42.3673 46.1766 39.0551 49.4104 35 49.4104ZM56.0136 30.1998C58.9925 30.1998 61.4204 32.5988 61.4695 35.566C60.7608 34.5812 59.619 33.9862 58.3858 33.9862H53.6418C52.4081 33.9862 51.2663 34.5817 50.5576 35.566C50.6073 32.5988 53.0346 30.1998 56.0136 30.1998ZM58.231 48.6205C58.231 49.8435 57.236 50.8379 56.0136 50.8379C54.7911 50.8379 53.7962 49.8435 53.7962 48.6205V46.7171C54.4974 46.9339 55.2419 47.0514 56.0136 47.0514C56.7853 47.0514 57.5298 46.9339 58.231 46.7171V48.6205ZM56.0136 45.0049C53.0869 45.0049 50.6917 42.6892 50.5619 39.7941L52.0984 36.9529C52.4055 36.3852 52.9967 36.0327 53.6418 36.0327H58.3858C59.031 36.0327 59.6222 36.3852 59.9287 36.9529L61.4652 39.7941C61.3354 42.6892 58.9402 45.0049 56.0136 45.0049Z" fill="#0071B3"/>
<path d="M63.7869 56.4912H65.8334V69.7957H63.7869V56.4912Z" fill="#0071B3"/>
<path d="M4.16675 56.4912H6.21326V69.7957H4.16675V56.4912Z" fill="#0071B3"/>
<path d="M9.34708 22.3706L12.678 16.3742H18.5574V0H0.136719V16.3742H6.01562L9.34708 22.3706ZM2.18323 2.04704H16.5109V14.3277H11.4737L9.34708 18.1558L7.21992 14.3277H2.18323V2.04704Z" fill="#0071B3"/>
<path d="M51.5789 0V16.3742H57.4583L60.7897 22.3706L64.1207 16.3742H70.0001V0H51.5789ZM67.9531 14.3277H62.9164L60.7897 18.1558L58.6626 14.3277H53.6259V2.04704H67.9531V14.3277Z" fill="#0071B3"/>
<path d="M35.0684 22.3706L38.3993 16.3742H49.6684V0H20.4678V16.3742H31.7369L35.0684 22.3706ZM22.5148 2.04704H47.6219V14.3277H37.195L35.0684 18.1558L32.9412 14.3277H22.5148V2.04704Z" fill="#0071B3"/>
<path d="M8.66455 5.45801H14.1226V7.50505H8.66455V5.45801Z" fill="#0071B3"/>
<path d="M4.57104 5.45801H6.61809V7.50505H4.57104V5.45801Z" fill="#0071B3"/>
<path d="M4.57104 9.55176H10.0291V11.5988H4.57104V9.55176Z" fill="#0071B3"/>
<path d="M12.0762 9.55176H14.1227V11.5988H12.0762V9.55176Z" fill="#0071B3"/>
<path d="M60.1072 5.45801H65.5652V7.50505H60.1072V5.45801Z" fill="#0071B3"/>
<path d="M56.0137 5.45801H58.0607V7.50505H56.0137V5.45801Z" fill="#0071B3"/>
<path d="M56.0137 9.55176H61.4717V11.5988H56.0137V9.55176Z" fill="#0071B3"/>
<path d="M63.5186 9.55176H65.5651V11.5988H63.5186V9.55176Z" fill="#0071B3"/>
<path d="M37.1147 4.77588H39.1618V6.82239H37.1147V4.77588Z" fill="#0071B3"/>
<path d="M41.2085 4.77588H44.6201V6.82239H41.2085V4.77588Z" fill="#0071B3"/>
<path d="M25.5168 4.77588H35.0685V6.82239H25.5168V4.77588Z" fill="#0071B3"/>
<path d="M42.573 9.00586H44.62V11.0529H42.573V9.00586Z" fill="#0071B3"/>
<path d="M25.5168 9.00586H30.9749V11.0529H25.5168V9.00586Z" fill="#0071B3"/>
<path d="M33.0212 9.00586H40.5264V11.0529H33.0212V9.00586Z" fill="#0071B3"/>
</svg>
