<?xml version="1.0" encoding="utf-8"?>
<!-- Generator: Adobe Illustrator 23.0.1, SVG Export Plug-In . SVG Version: 6.00 Build 0)  -->
<svg version="1.1" id="Слой_1" xmlns="http://www.w3.org/2000/svg" xmlns:xlink="http://www.w3.org/1999/xlink" x="0px" y="0px"
	 width="70px" height="70px" viewBox="0 0 70 70" style="enable-background:new 0 0 70 70;" xml:space="preserve">
<style type="text/css">
	.st0{fill:#0071B3;}
</style>
<path class="st0" d="M59.9,10.7c-3.8,0-6.8,3.1-6.8,6.8s3.1,6.8,6.8,6.8s6.8-3.1,6.8-6.8S63.7,10.7,59.9,10.7z M59.9,22.3
	c-2.7,0-4.8-2.2-4.8-4.8s2.2-4.8,4.8-4.8s4.8,2.2,4.8,4.8S62.5,22.3,59.9,22.3z"/>
<path class="st0" d="M66.7,33.5c0-3-2.4-5.4-5.4-5.4h-1.5c-2.4,0-4,1.8-5.2,3.3c-0.8,1-2.6,3.3-5.4,6.7l-0.1,0.2h-6.8
	c-2.2,0-3.9,1.8-3.9,3.9v1.9H16.6l-9.6-9.7h17.6l7,7c0.4,0.4,1,0.4,1.4,0c0.4-0.4,0.4-1,0-1.4l-7.3-7.3c-0.2-0.2-0.4-0.3-0.7-0.3
	H4.5c-0.4,0-0.8,0.2-0.9,0.6c-0.2,0.4-0.1,0.8,0.2,1.1l9.9,9.9H4.5c-0.6,0-1,0.5-1,1c0,0.6,0.5,1,1,1h3.4v23.3h2V46.2h21.3v23.3h2
	V46.2H53V50h-4.6c-2.3,0-4.4,1.5-5.1,3.7l-4.8,14.5c-0.1,0.3-0.1,0.5,0.1,0.8c0.1,0.2,0.3,0.4,0.6,0.5c0.5,0.2,1.1-0.1,1.3-0.6
	l4.8-14.5C45.7,53,47,52,48.5,52H54c0.6,0,1-0.5,1-1v-5.5l4.2-5.6c0.2-0.2,0.2-0.5,0.2-0.7c0-0.3-0.2-0.5-0.4-0.7
	c-0.2-0.2-0.5-0.2-0.7-0.2c-0.3,0-0.5,0.2-0.7,0.4l-4.1,5.4H40.5v-1.9c0-1.1,0.9-1.9,1.9-1.9h7.3c0.3,0,0.6-0.1,0.8-0.4
	c0-0.1,4.4-5.4,5.9-7.3c1.3-1.8,2.4-2.5,3.6-2.5h1.5c1.9,0,3.4,1.5,3.4,3.4v19c0,2.7-2.2,4.8-4.8,4.8H49.7c-0.4,0-0.8,0.2-0.9,0.6
	l-4.4,10.2c-0.1,0.2-0.1,0.5,0,0.8c0.1,0.3,0.3,0.4,0.5,0.6c0.5,0.2,1.1,0,1.3-0.5l4.1-9.6h9.5c3.8,0,6.8-3.1,6.8-6.8V33.5z"/>
<path class="st0" d="M16.1,0.5c-7,0-12.7,5.7-12.7,12.7s5.7,12.7,12.7,12.7s12.7-5.7,12.7-12.7S23.1,0.5,16.1,0.5z M16.1,23.8
	c-5.9,0-10.7-4.8-10.7-10.7S10.3,2.5,16.1,2.5s10.7,4.8,10.7,10.7S22,23.8,16.1,23.8z"/>
<path class="st0" d="M22,12.1h-4.8V8.8c0-0.6-0.5-1-1-1c-0.6,0-1,0.5-1,1v4.4c0,0.6,0.5,1,1,1H22c0.6,0,1-0.5,1-1S22.5,12.1,22,12.1
	z"/>
</svg>
