<?xml version="1.0" encoding="utf-8"?>
<!-- Generator: Adobe Illustrator 23.0.1, SVG Export Plug-In . SVG Version: 6.00 Build 0)  -->
<svg version="1.1" id="Слой_1" xmlns="http://www.w3.org/2000/svg" xmlns:xlink="http://www.w3.org/1999/xlink" x="0px" y="0px"
	 width="70px" height="70px" viewBox="0 0 70 70" style="enable-background:new 0 0 70 70;" xml:space="preserve">
<style type="text/css">
	.st0{fill:#0071B3;}
</style>
<path class="st0" d="M48.3,37.4c3.3-2.4,5.2-6.2,5.3-10.3V8.8c0-0.4-0.2-0.8-0.6-0.9h0L35.4,0.2c-0.1-0.1-0.3-0.1-0.4-0.1
	c-0.1,0-0.3,0-0.4,0.1L17.1,7.9c-0.4,0.2-0.6,0.5-0.6,0.9v18.3c0,4.1,2,7.9,5.3,10.3l12.1,8.7c0.7,0.5,1.6,0.5,2.3,0L48.3,37.4z
	 M34.9,44.4l-12-8.6c-2.8-2-4.4-5.2-4.4-8.6V9.5L35,2.3l0.1,0l16.4,7.2v17.7c0,3.4-1.7,6.6-4.4,8.6L34.9,44.4L34.9,44.4z"/>
<path class="st0" d="M16.3,69.8h12.8c1.2,0,2.2-1,2.2-2.2v-9.3c0-1.2-1-2.2-2.2-2.2H29v-2.3c0-2.7-0.9-5.4-2.5-7.5
	c-1-1.3-2.3-2.2-3.8-2.8c-2.5-1-4.8-2.5-6.7-4.3c-1.8-1.5-4.3-1.6-6.2-0.3L9.6,39L7,32.9c-0.5-1.2-1.6-2-2.9-2.1c-0.1,0-0.3,0-0.4,0
	c-1.1,0-2.2,0.5-2.9,1.5c-0.7,1-0.9,2.4-0.4,3.5l4.6,10.1c0.6,1.3,1.5,2.6,2.5,3.6l7.3,7.3l-0.1,0.1c-0.4,0.4-0.6,0.9-0.6,1.5v9.3
	C14.2,68.9,15.1,69.8,16.3,69.8z M29.3,58.2v9.7H16.2v-9.7H29.3z M9,48c-0.9-0.9-1.6-1.9-2.1-3L2.3,34.9c-0.2-0.5-0.2-1,0.1-1.5
	c0.3-0.4,0.8-0.7,1.3-0.7c0,0,0,0,0,0c0.6,0,1.2,0.4,1.4,0.9l2.6,6.1c0.7,1.6,1.7,3.1,2.9,4.3l5.3,5.3c0.3,0.3,0.6,0.4,1,0.3
	c0.4-0.1,0.6-0.4,0.7-0.7c0.1-0.4,0-0.7-0.3-1l-5.3-5.3c-0.5-0.5-1-1.1-1.5-1.8l-0.1-0.1l0.1-0.1c1.2-0.9,2.8-0.9,4,0.1
	c2.2,2,4.7,3.6,7.4,4.7c1.1,0.4,2.1,1.2,2.9,2.1c1.4,1.8,2.1,4,2.1,6.3v2.3h-9.9L9,48z"/>
<path class="st0" d="M25.7,62h-1.2c-0.6,0-1,0.5-1,1c0,0.6,0.5,1,1,1h1.2c0.6,0,1-0.5,1-1C26.7,62.4,26.2,62,25.7,62z"/>
<path class="st0" d="M69.5,35.8c0.5-1.2,0.4-2.5-0.3-3.6s-2-1.6-3.3-1.5c-1.3,0.1-2.4,1-2.9,2.2l-2.6,6.1l-0.2-0.1
	c-1.9-1.3-4.4-1.1-6.2,0.3c-2,1.8-4.2,3.3-6.7,4.3c-1.5,0.5-2.8,1.5-3.8,2.8c-1.7,2.1-2.6,4.8-2.5,7.5v2.3h-0.2
	c-1.2,0-2.2,1-2.2,2.2v9.3c0,1.2,1,2.2,2.2,2.2h12.8c1.2,0,2.2-1,2.2-2.2v-9.3c0-0.6-0.2-1.1-0.6-1.5l-0.1-0.1l0.1-0.1l7.2-7.2
	c1-1,1.9-2.3,2.5-3.6L69.5,35.8z M53.8,67.8H40.7v-9.7h13.2V67.8z M61,48l-8.1,8.1H43v-2.3c0-2.3,0.7-4.5,2.1-6.3
	c0.7-1,1.7-1.7,2.9-2.1c2.7-1.1,5.2-2.7,7.4-4.7c1.2-1,2.8-1,4-0.1l0.1,0.1l-0.1,0.1c-0.4,0.6-0.9,1.2-1.5,1.8L52.6,48
	c-0.4,0.4-0.4,1,0,1.4c0.4,0.4,1,0.4,1.4,0l5.3-5.3c1.2-1.2,2.2-2.7,2.9-4.3l2.6-6.1c0.2-0.6,0.8-0.9,1.4-0.9h0c0.5,0,1,0.3,1.3,0.7
	c0.3,0.4,0.3,1,0.1,1.5L63.1,45C62.6,46.1,61.9,47.1,61,48z"/>
<path class="st0" d="M45.5,62h-1.2c-0.6,0-1,0.5-1,1c0,0.6,0.5,1,1,1h1.2c0.6,0,1-0.5,1-1C46.5,62.4,46.1,62,45.5,62z"/>
<path class="st0" d="M27.4,26.5l4.7,3.5c0.2,0.2,0.5,0.2,0.8,0.2c0.3,0,0.5-0.2,0.7-0.4l9.3-14c0.2-0.3,0.2-0.7,0.1-1
	c-0.2-0.3-0.5-0.5-0.8-0.6c-0.4,0-0.7,0.1-0.9,0.4l-8.7,13.1l-3.8-2.9c-0.2-0.1-0.4-0.2-0.6-0.2c-0.3,0-0.6,0.1-0.8,0.4
	C26.9,25.5,27,26.1,27.4,26.5z"/>
</svg>
