<?xml version="1.0" encoding="utf-8"?>
<!-- Generator: Adobe Illustrator 23.0.1, SVG Export Plug-In . SVG Version: 6.00 Build 0)  -->
<svg version="1.1" id="Слой_1" xmlns="http://www.w3.org/2000/svg" xmlns:xlink="http://www.w3.org/1999/xlink" x="0px" y="0px"
	 width="70px" height="70px" viewBox="0 0 70 70" style="enable-background:new 0 0 70 70;" xml:space="preserve">
<style type="text/css">
	.st0{fill:#FFFFFF;}
</style>
<path class="st0" d="M66.5,43.1l-2.7-1.5c0.5-2.1,0.7-4.4,0.7-6.6s-0.2-4.4-0.7-6.6l2.7-1.5c1.4-0.8,2-2.4,1.4-3.9
	c-0.7-1.9-1.6-3.7-2.6-5.5c-1-1.7-2.2-3.4-3.5-4.9c-1-1.2-2.7-1.5-4.1-0.7L55,13.4c-3.3-3-7.2-5.3-11.4-6.6V3.7
	c0-1.6-1.1-2.9-2.7-3.2C39,0.2,37,0,35,0s-4,0.2-6,0.5c-1.6,0.3-2.7,1.6-2.7,3.2v3.1c-4.2,1.3-8.1,3.6-11.4,6.6l-2.7-1.5
	c-1.4-0.8-3.1-0.5-4.1,0.7c-1.3,1.5-2.5,3.2-3.5,4.9S2.7,21.1,2,23c-0.5,1.5,0,3.1,1.4,3.9l2.7,1.5c-0.5,2.1-0.7,4.4-0.7,6.6
	s0.2,4.4,0.7,6.6l-2.7,1.5C2,43.9,1.4,45.5,2,47c0.7,1.9,1.6,3.7,2.6,5.5c1,1.7,2.2,3.4,3.5,4.9c1,1.2,2.7,1.5,4.1,0.7l2.7-1.5
	c3.3,3,7.2,5.3,11.4,6.6v3.1c0,1.6,1.1,2.9,2.7,3.2c2,0.3,4,0.5,6,0.5s4-0.2,6-0.5c1.6-0.3,2.7-1.6,2.7-3.2v-3.1
	c4.2-1.3,8.1-3.6,11.4-6.6l2.7,1.5c1.4,0.8,3.1,0.5,4.1-0.7c1.3-1.5,2.5-3.2,3.5-4.9s1.9-3.6,2.6-5.5C68.4,45.5,67.8,43.9,66.5,43.1
	z M65.9,46.3c-0.7,1.8-1.5,3.5-2.4,5.1s-2,3.2-3.3,4.7c-0.4,0.4-1,0.6-1.5,0.3l-3.3-1.9c-0.4-0.2-0.9-0.2-1.2,0.2
	c-3.3,3.2-7.4,5.6-11.8,6.8c-0.4,0.1-0.7,0.5-0.7,1v3.9c0,0.6-0.4,1.1-1,1.2c-1.9,0.3-3.8,0.5-5.7,0.5s-3.8-0.2-5.7-0.5
	c-0.6-0.1-1-0.6-1-1.2v-3.9c0-0.5-0.3-0.9-0.7-1c-4.4-1.2-8.5-3.6-11.8-6.8c-0.2-0.2-0.5-0.3-0.7-0.3s-0.4,0-0.5,0.1l-3.3,1.9
	c-0.5,0.3-1.1,0.2-1.5-0.3c-1.2-1.5-2.3-3-3.3-4.7c-0.9-1.6-1.7-3.4-2.4-5.1c-0.2-0.5,0-1.2,0.5-1.4L7.9,43c0.4-0.2,0.6-0.7,0.5-1.1
	c-0.6-2.2-0.9-4.5-0.9-6.8s0.3-4.6,0.9-6.8c0.1-0.4-0.1-0.9-0.5-1.1l-3.3-1.9c-0.5-0.3-0.7-0.9-0.5-1.4c0.7-1.8,1.5-3.5,2.4-5.1
	s2-3.2,3.3-4.7c0.4-0.4,1-0.6,1.5-0.3l3.3,1.9c0.4,0.2,0.9,0.2,1.2-0.2c3.3-3.2,7.4-5.6,11.8-6.8c0.4-0.1,0.7-0.5,0.7-1v-4
	c0-0.6,0.4-1.1,1-1.2C31.2,2.2,33.1,2,35,2s3.8,0.2,5.7,0.5c0.6,0.1,1,0.6,1,1.2v3.9c0,0.5,0.3,0.9,0.7,1c4.4,1.2,8.5,3.6,11.8,6.8
	c0.3,0.3,0.8,0.4,1.2,0.2l3.3-1.9c0.5-0.3,1.1-0.2,1.5,0.3c1.2,1.5,2.3,3,3.3,4.7c0.9,1.6,1.7,3.4,2.4,5.1c0.2,0.5,0,1.2-0.5,1.4
	L62.1,27c-0.4,0.2-0.6,0.7-0.5,1.1c0.6,2.2,0.9,4.5,0.9,6.8c0,2.3-0.3,4.6-0.9,6.8c-0.1,0.4,0.1,0.9,0.5,1.1l3.3,1.9
	C65.9,45.2,66.1,45.8,65.9,46.3z"/>
<path class="st0" d="M47.9,18.8c-8.3-6.6-20.1-6-27.6,1.5s-8.1,19.4-1.5,27.6c0.2,0.3,0.5,0.4,0.8,0.4c0.2,0,0.5-0.1,0.6-0.2
	c0.4-0.4,0.5-1,0.2-1.4c-6-7.4-5.4-18.1,1.4-24.9c6.7-6.7,17.4-7.3,24.9-1.4c0.4,0.4,1.1,0.3,1.4-0.2C48.5,19.8,48.4,19.1,47.9,18.8
	z"/>
<path class="st0" d="M51.2,22.1c-0.4-0.4-1-0.5-1.4-0.2c-0.4,0.4-0.5,1-0.2,1.4c6,7.4,5.4,18.1-1.4,24.9c-0.7,0.7-1.5,1.4-2.3,2
	V39.7c0-1.3-0.7-2.4-1.9-2.9l-5.2-2.3c0,0,0,0,0-0.1v-2.1c1-1,1.6-2.4,1.6-3.9v-2.2c0-2.4-1.9-4.3-4.3-4.3h-2.2
	c-2.4,0-4.3,1.9-4.3,4.3v2.2c0,1.5,0.6,2.9,1.6,3.9v2.1v0.1L26,36.8c-1.2,0.5-1.9,1.7-1.9,2.9v10.5c-0.3-0.2-0.5-0.4-0.8-0.6
	c-0.4-0.4-1.1-0.3-1.4,0.2c-0.4,0.4-0.3,1.1,0.2,1.4c3.8,3.1,8.4,4.6,12.9,4.6c5.3,0,10.6-2.1,14.7-6.1
	C57.2,42.2,57.8,30.3,51.2,22.1z M33.9,24h2.2c1.2,0,2.2,1,2.3,2.2l-6.5-0.8C32.2,24.5,33,24,33.9,24z M31.6,27.4l6.7,0.8v0.2
	c0,1.9-1.5,3.4-3.4,3.4s-3.4-1.5-3.4-3.4v-1H31.6z M37.4,36L35,38l-2.4-2c0.5-0.4,0.7-1,0.7-1.6v-0.9c0.5,0.2,1.1,0.3,1.7,0.3
	c0.6,0,1.2-0.1,1.7-0.3v0.9C36.7,35,37,35.6,37.4,36z M43.8,51.5c-0.8,0.4-1.5,0.8-2.3,1.1v-9.9c0-0.6-0.5-1-1-1s-1,0.5-1,1v10.5
	c-2.9,0.7-6,0.7-8.9,0V42.7c0-0.6-0.5-1-1-1c-0.6,0-1,0.5-1,1v9.9c-0.8-0.3-1.6-0.6-2.3-1.1V39.7c0-0.5,0.3-0.9,0.7-1.1l3.7-1.6
	l3.4,2.9v2.8c0,0.6,0.5,1,1,1c0.6,0,1-0.5,1-1v-2.8l3.4-2.9l3.7,1.6c0.4,0.2,0.7,0.6,0.7,1.1v11.8H43.8z"/>
</svg>
