<svg width="70" height="70" viewBox="0 0 70 70" fill="none" xmlns="http://www.w3.org/2000/svg">
<path d="M63.1641 6.01562H56.6471V4.10156C56.6471 1.83996 54.8071 0 52.5455 0C50.2839 0 48.444 1.83996 48.444 4.10156V6.01562H25.4752V4.10156C25.4752 1.83996 23.6353 0 21.3737 0C19.112 0 17.2721 1.83996 17.2721 4.10156V6.06621C17.1559 6.03408 17.0341 6.01562 16.9076 6.01562H11.4602C7.69084 6.01562 4.62424 9.08223 4.62424 12.8516V36.1393C4.62424 36.8944 5.23646 37.5065 5.99143 37.5065C6.74639 37.5065 7.35861 36.8944 7.35861 36.1393V20.0977H56.6471C57.4021 20.0977 58.0143 19.4856 58.0143 18.7305C58.0143 17.9754 57.4021 17.3633 56.6471 17.3633H7.35861V12.8516C7.35861 10.59 9.19857 8.75 11.4602 8.75H16.9076C17.0341 8.75 17.1559 8.73141 17.2721 8.69941V10.459C17.2721 12.7206 19.112 14.5605 21.3737 14.5605C23.6353 14.5605 25.4752 12.7206 25.4752 10.459V8.75H48.444V10.459C48.444 12.7206 50.2839 14.5605 52.5455 14.5605C54.8071 14.5605 56.6471 12.7206 56.6471 10.459V8.75H63.1641C65.4257 8.75 67.2656 10.59 67.2656 12.8516V64.8039C67.2656 66.1612 66.1613 67.2656 64.8039 67.2656C63.4464 67.2656 62.3421 66.1612 62.3421 64.8039V61.2671C62.3421 60.512 61.7299 59.8999 60.9749 59.8999H45.0717C44.3167 59.8999 43.7045 60.512 43.7045 61.2671C43.7045 62.0222 44.3167 62.6343 45.0717 62.6343H59.6077V64.8039C59.6077 65.694 59.833 66.5324 60.2291 67.2656H5.19531C3.83838 67.2656 2.73438 66.1616 2.73438 64.8047V62.6343H33.3354C34.0904 62.6343 34.7026 62.0222 34.7026 61.2671C34.7026 60.512 34.0904 59.8999 33.3354 59.8999H19.6751C22.0641 57.8424 23.5811 54.7991 23.5811 51.4062C23.5811 45.2245 18.5519 40.1953 12.3702 40.1953C6.18844 40.1953 1.15924 45.2245 1.15924 51.4062C1.15924 54.7991 2.67627 57.8424 5.06529 59.8999H1.36719C0.612227 59.8999 0 60.512 0 61.2671V64.8047C0 67.6694 2.33064 70 5.19531 70H64.8039C67.6689 70 70 67.6691 70 64.8039V12.8516C70 9.08223 66.9334 6.01562 63.1641 6.01562ZM22.7408 10.459C22.7408 11.2129 22.1275 11.8262 21.3737 11.8262C20.6198 11.8262 20.0065 11.2129 20.0065 10.459V4.10156C20.0065 3.3477 20.6198 2.73438 21.3737 2.73438C22.1275 2.73438 22.7408 3.3477 22.7408 4.10156V10.459ZM53.9127 10.459C53.9127 11.2129 53.2994 11.8262 52.5455 11.8262C51.7917 11.8262 51.1783 11.2129 51.1783 10.459V4.10156C51.1783 3.3477 51.7917 2.73438 52.5455 2.73438C53.2994 2.73438 53.9127 3.3477 53.9127 4.10156V10.459ZM3.89361 51.4062C3.89361 46.7322 7.69617 42.9297 12.3702 42.9297C17.0442 42.9297 20.8467 46.7322 20.8467 51.4062C20.8467 56.0803 17.0442 59.8828 12.3702 59.8828C7.69617 59.8828 3.89361 56.0803 3.89361 51.4062Z" fill="black"/>
<path d="M64.0265 17.7639C63.7724 17.5096 63.4196 17.3633 63.0601 17.3633C62.7004 17.3633 62.3478 17.5096 62.0935 17.7639C61.8392 18.0182 61.6929 18.3709 61.6929 18.7305C61.6929 19.09 61.839 19.4428 62.0935 19.6971C62.3479 19.9514 62.7004 20.0977 63.0601 20.0977C63.4196 20.0977 63.7724 19.9514 64.0265 19.6971C64.2808 19.4428 64.4272 19.09 64.4272 18.7305C64.4272 18.3709 64.281 18.0182 64.0265 17.7639Z" fill="black"/>
<path d="M40.8307 60.2999C40.5766 60.0456 40.2238 59.9006 39.8643 59.9006C39.5047 59.9006 39.152 60.0456 38.8977 60.2999C38.6434 60.5555 38.4971 60.9069 38.4971 61.2665C38.4971 61.6274 38.6432 61.9788 38.8977 62.2344C39.152 62.4887 39.5047 62.6336 39.8643 62.6336C40.2238 62.6336 40.5766 62.4887 40.8307 62.2344C41.085 61.9788 41.2314 61.626 41.2314 61.2665C41.2314 60.9069 41.0852 60.5555 40.8307 60.2999Z" fill="black"/>
<path d="M30.9321 41.5625C28.0675 41.5625 25.7368 43.8931 25.7368 46.7578C25.7368 49.6225 28.0675 51.9531 30.9321 51.9531C33.7968 51.9531 36.1274 49.6225 36.1274 46.7578C36.1274 43.8931 33.7968 41.5625 30.9321 41.5625ZM30.9321 49.2188C29.5752 49.2188 28.4712 48.1147 28.4712 46.7578C28.4712 45.4009 29.5752 44.2969 30.9321 44.2969C32.2891 44.2969 33.3931 45.4009 33.3931 46.7578C33.3931 48.1147 32.2891 49.2188 30.9321 49.2188Z" fill="#0071B3"/>
<path d="M43.6924 41.5625C40.8277 41.5625 38.4971 43.8931 38.4971 46.7578C38.4971 49.6225 40.8277 51.9531 43.6924 51.9531C46.5571 51.9531 48.8877 49.6225 48.8877 46.7578C48.8877 43.8931 46.5571 41.5625 43.6924 41.5625ZM43.6924 49.2188C42.3354 49.2188 41.2314 48.1147 41.2314 46.7578C41.2314 45.4009 42.3354 44.2969 43.6924 44.2969C45.0493 44.2969 46.1533 45.4009 46.1533 46.7578C46.1533 48.1147 45.0493 49.2188 43.6924 49.2188Z" fill="#0071B3"/>
<path d="M56.4526 41.5625C53.588 41.5625 51.2573 43.8931 51.2573 46.7578C51.2573 49.6225 53.588 51.9531 56.4526 51.9531C59.3173 51.9531 61.6479 49.6225 61.6479 46.7578C61.6479 43.8931 59.3173 41.5625 56.4526 41.5625ZM56.4526 49.2188C55.0957 49.2188 53.9917 48.1147 53.9917 46.7578C53.9917 45.4009 55.0957 44.2969 56.4526 44.2969C57.8096 44.2969 58.9136 45.4009 58.9136 46.7578C58.9136 48.1147 57.8096 49.2188 56.4526 49.2188Z" fill="#0071B3"/>
<path d="M18.1714 27.3438C15.3067 27.3438 12.9761 29.6744 12.9761 32.5391C12.9761 35.4037 15.3067 37.7344 18.1714 37.7344C21.0361 37.7344 23.3667 35.4037 23.3667 32.5391C23.3667 29.6744 21.0361 27.3438 18.1714 27.3438ZM18.1714 35C16.8145 35 15.7104 33.896 15.7104 32.5391C15.7104 31.1821 16.8145 30.0781 18.1714 30.0781C19.5283 30.0781 20.6323 31.1821 20.6323 32.5391C20.6323 33.896 19.5283 35 18.1714 35Z" fill="#0071B3"/>
<path d="M43.6924 27.3438C40.8277 27.3438 38.4971 29.6744 38.4971 32.5391C38.4971 35.4037 40.8277 37.7344 43.6924 37.7344C46.5571 37.7344 48.8877 35.4037 48.8877 32.5391C48.8877 29.6744 46.5571 27.3438 43.6924 27.3438ZM43.6924 35C42.3354 35 41.2314 33.896 41.2314 32.5391C41.2314 31.1821 42.3354 30.0781 43.6924 30.0781C45.0493 30.0781 46.1533 31.1821 46.1533 32.5391C46.1533 33.896 45.0493 35 43.6924 35Z" fill="#0071B3"/>
<path d="M56.4526 27.3438C53.588 27.3438 51.2573 29.6744 51.2573 32.5391C51.2573 35.4037 53.588 37.7344 56.4526 37.7344C59.3173 37.7344 61.6479 35.4037 61.6479 32.5391C61.6479 29.6744 59.3173 27.3438 56.4526 27.3438ZM56.4526 35C55.0957 35 53.9917 33.896 53.9917 32.5391C53.9917 31.1821 55.0957 30.0781 56.4526 30.0781C57.8096 30.0781 58.9136 31.1821 58.9136 32.5391C58.9136 33.896 57.8096 35 56.4526 35Z" fill="#0071B3"/>
<path d="M30.9321 27.3438C28.0675 27.3438 25.7368 29.6744 25.7368 32.5391C25.7368 35.4037 28.0675 37.7344 30.9321 37.7344C33.7968 37.7344 36.1274 35.4037 36.1274 32.5391C36.1274 29.6744 33.7968 27.3438 30.9321 27.3438ZM30.9321 35C29.5752 35 28.4712 33.896 28.4712 32.5391C28.4712 31.1821 29.5752 30.0781 30.9321 30.0781C32.2891 30.0781 33.3931 31.1821 33.3931 32.5391C33.3931 33.896 32.2891 35 30.9321 35Z" fill="#0071B3"/>
<path d="M17.2406 48.0742C16.7066 47.5404 15.8411 47.5404 15.307 48.0742L10.8546 52.5268L9.33305 51.0052C8.79903 50.4713 7.9336 50.4713 7.39944 51.0052C6.86555 51.5391 6.86555 52.4048 7.39944 52.9388L9.88786 55.427C10.1443 55.6833 10.492 55.8274 10.8546 55.8274C11.2172 55.8274 11.5648 55.6833 11.8213 55.427L17.2406 50.0077C17.7745 49.4738 17.7745 48.6081 17.2406 48.0742Z" fill="black"/>
</svg>
