<svg id="postgresql.svg" xmlns="http://www.w3.org/2000/svg" width="155" height="55" viewBox="0 0 155 55">
  <defs>
    <style>
      .cls-1 {
        fill: #3f597e;
        fill-opacity: 0;
      }

      .cls-2 {
        fill: #fff;
        fill-rule: evenodd;
      }
    </style>
  </defs>
  <rect id="Прямоугольник_1_копия_2" data-name="Прямоугольник 1 копия 2" class="cls-1" width="155" height="55"/>
  <path id="PostgreSQL.png" class="cls-2" d="M467.651,77.325a4.54,4.54,0,0,1-4.342-3.344c-0.569-1.424-.693-6.744-0.564-11.386a0.624,0.624,0,0,1,1.247.035c-0.144,5.17.059,9.851,0.475,10.889,0.644,1.608,1.622,3.015,4.382,2.424,2.662-.57,3.609-1.528,4.052-4.1,0.34-1.963,1.011-7.555,1.094-8.66a0.624,0.624,0,0,1,1.244.093c-0.087,1.151-.756,6.738-1.109,8.779-0.526,3.049-1.887,4.432-5.02,5.1A6.962,6.962,0,0,1,467.651,77.325Zm-16.122-11.49a2.454,2.454,0,0,1-.78-0.129c-1.947-.648-3.8-3.8-5.5-9.371a56.334,56.334,0,0,1-2.184-10.087c-0.214-4.27.889-7.291,3.278-8.982,4.721-3.34,12.65-.164,12.985-0.028a0.623,0.623,0,1,1-.472,1.153c-0.091-.037-7.639-3.051-11.794-0.107-2.017,1.429-2.943,4.087-2.752,7.9a55.8,55.8,0,0,0,2.132,9.786c1.511,4.944,3.224,8.062,4.7,8.554,0.227,0.075.917,0.305,1.914-.893,1.918-2.3,3.68-4.144,3.7-4.162a0.623,0.623,0,0,1,.9.862c-0.018.018-1.75,1.827-3.639,4.1A3.261,3.261,0,0,1,451.529,65.835Zm25.083-4.852a0.623,0.623,0,0,1-.516-0.971c5.361-7.943,7.249-17.531,5.643-19.58a10.531,10.531,0,0,0-8.485-4.008,16.036,16.036,0,0,0-5.157.743A0.591,0.591,0,0,1,468,37.2a0.624,0.624,0,0,1-.531-1.122,16.017,16.017,0,0,1,5.625-.906,11.91,11.91,0,0,1,9.623,4.488c1.53,1.953.52,6.707,0.015,8.66a41.761,41.761,0,0,1-5.606,12.383A0.623,0.623,0,0,1,476.612,60.983Zm0.276,3.682a4.723,4.723,0,0,1-2.256-.428,1.2,1.2,0,0,1-.637-0.97c-0.136-2.388,1.143-2.861,1.853-3.065-0.09-.129-0.209-0.277-0.332-0.431a8.649,8.649,0,0,1-1.369-2.2c-0.064-.157-0.27-0.525-0.508-0.951-1.3-2.324-4-7.161-2.252-9.653,0.8-1.145,2.385-1.6,4.711-1.368a13.92,13.92,0,0,0-2.516-4.31,12.043,12.043,0,0,0-9.2-4.39,7.5,7.5,0,0,0-5.679,2.122c-3.22,3.243-3.111,9.144-3.109,9.2a0.623,0.623,0,0,1-1.246.032c-0.007-.263-0.129-6.483,3.465-10.108a8.706,8.706,0,0,1,6.589-2.495,14.015,14.015,0,0,1,13.1,10.457,0.7,0.7,0,0,1-.522.825l-0.225.005c-1.57-.251-3.6-0.327-4.346.74-1.3,1.853,1.238,6.394,2.32,8.333,0.279,0.5.479,0.858,0.572,1.082a7.462,7.462,0,0,0,1.19,1.9,3.273,3.273,0,0,1,.723,1.2c0.055,0.088.747,1.029,4.652,0.225,1.026-.212,1.643-0.025,1.835.554,0.37,1.119-1.672,2.408-2.8,2.933A10.519,10.519,0,0,1,476.888,64.665Zm-1.651-1.519a3.856,3.856,0,0,0,2.061.265,9.1,9.1,0,0,0,3.073-.639,6.886,6.886,0,0,0,1.774-1.144l-0.028.005c-2.561.528-4.375,0.456-5.392-.215a2.076,2.076,0,0,1-.175-0.128c-0.085.03-.174,0.055-0.264,0.08C475.71,61.534,475.165,61.686,475.237,63.147Zm-16.508,3.286h0a8.24,8.24,0,0,1-1.991-.258c-0.2-.049-1.934-0.515-1.91-1.623,0.021-1.015,1.469-1.313,2.015-1.425,1.918-.395,2.042-0.552,2.638-1.307,0.177-.224.4-0.5,0.7-0.838a1.985,1.985,0,0,1,1.477-.764,2.2,2.2,0,0,1,.862.2,2.524,2.524,0,0,1,1.371,1.642,2.111,2.111,0,0,1-.263,1.847A5.805,5.805,0,0,1,458.729,66.433Zm-2.52-1.823a2.756,2.756,0,0,0,.832.357,6.98,6.98,0,0,0,1.688.221,4.543,4.543,0,0,0,3.881-2,0.929,0.929,0,0,0,.079-0.781,1.318,1.318,0,0,0-.649-0.834,1.094,1.094,0,0,0-.385-0.11,0.839,0.839,0,0,0-.548.349c-0.274.306-.472,0.557-0.647,0.778-0.761.965-1.109,1.292-3.365,1.756A4.071,4.071,0,0,0,456.209,64.61Zm4.343-2.616a0.623,0.623,0,0,1-.615-0.528q-0.02-.124-0.027-0.25a5.689,5.689,0,0,1-3.95-1.791A6.479,6.479,0,0,1,454.249,54a25.338,25.338,0,0,0,.13-5.126c-0.018-.288-0.029-0.5-0.029-0.641,0-.19,0-0.694,1.648-1.526a9.067,9.067,0,0,1,3-.934c2.114-.219,3.509.723,3.926,2.651,1.115,5.149.088,7.428-.662,9.092-0.139.308-.27,0.6-0.375,0.88l-0.093.249a6.171,6.171,0,0,0-.629,2.63A0.624,0.624,0,0,1,460.552,61.994ZM455.6,48.414c0.005,0.1.013,0.236,0.021,0.386a26.434,26.434,0,0,1-.139,5.371,5.239,5.239,0,0,0,1.377,4.391,4.439,4.439,0,0,0,3.183,1.409,16.212,16.212,0,0,1,.586-1.761l0.093-.248c0.119-.321.258-0.63,0.406-0.958,0.716-1.59,1.609-3.57.581-8.318a1.889,1.889,0,0,0-1.461-1.63C458.531,46.665,456.122,47.954,455.6,48.414Zm3.431-.267a1.1,1.1,0,0,0,.9.82,0.968,0.968,0,0,0,1-.556,1.419,1.419,0,0,0-1.9-.264h0Zm1.018,1.036a1.1,1.1,0,0,1-.149-0.01,1.4,1.4,0,0,1-.89-0.554,0.588,0.588,0,0,1,.7-0.938,2.56,2.56,0,0,1,.352.025,1.02,1.02,0,0,1,1.075.735A1.141,1.141,0,0,1,460.051,49.183Zm-0.81-.995a1,1,0,0,0,.719.574,0.641,0.641,0,0,0,.091.007,0.821,0.821,0,0,0,.67-0.373A1.224,1.224,0,0,0,460,48.117a2.115,2.115,0,0,0-.294-0.021A0.881,0.881,0,0,0,459.241,48.188Zm15.738-.456a1.1,1.1,0,0,1-.9.82,0.969,0.969,0,0,1-1-.555,1.421,1.421,0,0,1,1.9-.264h0Zm-1.018.932a1.045,1.045,0,0,1-.983-0.653,0.957,0.957,0,0,1,.986-0.618,2.468,2.468,0,0,1,.337-0.024,0.7,0.7,0,0,1,.781.349,0.791,0.791,0,0,1-.27.545,1.268,1.268,0,0,1-.717.392A0.989,0.989,0,0,1,473.961,48.664Zm0.34-1.088a2.239,2.239,0,0,0-.308.022,0.943,0.943,0,0,0-.81.384,0.883,0.883,0,0,0,.778.474,0.755,0.755,0,0,0,.106-0.007,1.06,1.06,0,0,0,.595-0.329,0.655,0.655,0,0,0,.214-0.373A0.629,0.629,0,0,0,474.3,47.577Zm24.464,2.083h4.818c1.36,0,2.32.5,2.32,2.209,0,1.329-.575,2.241-2.56,2.241h-4.578V49.66ZM497.58,60h1.185V55.2h4.45c2.545,0,3.969-1.168,3.969-3.329,0-2.417-1.681-3.3-3.441-3.3H497.58V60Zm11.493-4.162a3.539,3.539,0,1,1,3.538,3.425A3.258,3.258,0,0,1,509.073,55.838Zm-1.184,0c0,2.321,1.52,4.418,4.722,4.418s4.722-2.1,4.722-4.418-1.521-4.418-4.722-4.418S507.889,53.517,507.889,55.838Zm18.285-1.7c-0.145-1.745-1.25-2.721-3.954-2.721-2.417,0-3.586,1.024-3.586,2.465,0,1.473.913,2.081,3.506,2.337s3.185,0.624,3.185,1.456c0,1.248-1.12,1.585-2.769,1.585-2.129,0-2.913-.48-3.121-1.873h-1.089c0,2,1.569,2.865,4.21,2.865,2.609,0,3.953-.992,3.953-2.641,0-1.617-1.056-2.065-3.6-2.4-2.529-.336-3.089-0.512-3.089-1.377,0-1.152,1.152-1.424,2.4-1.424,1.728,0,2.561.384,2.865,1.728h1.089Zm2.528-2.465h-1.809v0.9H528.7v5.49c0,1.344.4,2.065,2.241,2.065a9.564,9.564,0,0,0,1.3-.1V59.04a5.7,5.7,0,0,1-1.169.1c-0.96,0-1.185-.336-1.185-1.056V52.573h2.354v-0.9h-2.354V49.051H528.7v2.625Zm12.227,3.986a3.221,3.221,0,0,1-3.457,3.345c-2,0-3.522-.913-3.522-3.345a3.092,3.092,0,0,1,3.425-3.249A3.214,3.214,0,0,1,540.929,55.662ZM540.9,53.293h-0.033a3.627,3.627,0,0,0-3.553-1.873c-3.137,0-4.546,2.033-4.546,4.242,0,3.249,2.305,4.338,4.418,4.338a3.885,3.885,0,0,0,3.681-1.889H540.9V59.6c0,2-1.265,3.025-3.441,3.025-2.8,0-3.042-.912-3.218-1.809h-1.089c0.1,0.9.465,2.705,4.258,2.705,2.193,0,4.674-.768,4.674-3.842v-8H540.9v1.617ZM544.038,60h1.184V55.758c0-2.369,1.552-3.153,2.833-3.153a6.279,6.279,0,0,1,1.089.1V51.485a3.5,3.5,0,0,0-.705-0.064,3.2,3.2,0,0,0-3.185,2.161h-0.032v-1.9h-1.184V60Zm6.689-4.77a3.491,3.491,0,0,1,6.851,0h-6.851Zm6.643,2.113c-0.416,1.264-1.312,1.921-3.3,1.921a3.093,3.093,0,0,1-3.346-3.137h8.036c0-3.778-2.546-4.706-4.69-4.706a4.419,4.419,0,1,0,0,8.836c2.753,0,4-1.441,4.482-2.913H557.37Zm16.353-5.506c-0.081-2.721-2.434-3.554-4.77-3.554-2.209,0-4.514.816-4.514,3.313,0,1.841,1.456,2.609,4.177,3.041,2.081,0.336,4.162.544,4.162,2.289,0,1.809-1.777,2.273-3.489,2.273-2.194,0-3.794-.576-4-2.977H564.1c0.175,3.073,2.288,4.066,5.186,4.066,2.225,0,4.769-.768,4.769-3.569,0-2.193-2.08-2.673-4.161-3.025-2.786-.464-4.177-0.816-4.177-2.3,0-1.3,1.391-2.017,3.233-2.017s3.425,0.512,3.585,2.465h1.185Zm8.319,5.73,1.489,1.152a5.3,5.3,0,0,1-2.29.48,4.612,4.612,0,0,1-4.93-4.914,4.93,4.93,0,0,1,9.86,0,4.581,4.581,0,0,1-1.712,3.874l-1.793-1.377Zm5.089,2.657L585.419,58.9a5.6,5.6,0,0,0,2.033-4.61c0-4.033-2.961-6-6.211-6s-6.211,1.969-6.211,6,2.962,6,6.211,6a6.749,6.749,0,0,0,3.3-.8l1.969,1.521Zm2.1-.224h8.436V58.911H590.42V48.571h-1.185V60Z" transform="translate(-443 -25)"/>
</svg>
