<?xml version="1.0" encoding="utf-8"?>
<!-- Generator: Adobe Illustrator 23.0.1, SVG Export Plug-In . SVG Version: 6.00 Build 0)  -->
<svg version="1.1" id="Слой_1" xmlns="http://www.w3.org/2000/svg" xmlns:xlink="http://www.w3.org/1999/xlink" x="0px" y="0px"
	 width="70px" height="70px" viewBox="0 0 70 70" style="enable-background:new 0 0 70 70;" xml:space="preserve">
<path d="M28.2,33.7c0.1-0.5-0.2-1.1-0.8-1.2c-0.9-0.2-1.9-0.3-2.8-0.3c-7,0-12.7,5.7-12.7,12.7c0,2.5,0.7,5,2.1,7.1
	c0.3,0.4,1,0.6,1.4,0.3c0.5-0.3,0.6-0.9,0.3-1.4c-1.2-1.8-1.8-3.8-1.8-5.9c0-5.9,4.8-10.7,10.7-10.7c0.8,0,1.6,0.1,2.4,0.3
	C27.5,34.6,28.1,34.2,28.2,33.7z"/>
<path d="M18.7,53.7c-0.2-0.1-0.4-0.2-0.6-0.2c-0.3,0-0.7,0.2-0.8,0.5c-0.2,0.2-0.2,0.5-0.2,0.8c0.1,0.3,0.2,0.5,0.4,0.6
	c2.1,1.4,4.5,2.1,7.1,2.1c7,0,12.7-5.7,12.7-12.7c0-1-0.1-1.9-0.3-2.8c-0.1-0.5-0.7-0.9-1.2-0.8c-0.5,0.1-0.9,0.7-0.8,1.2
	c0.2,0.8,0.3,1.6,0.3,2.4c0,5.9-4.8,10.7-10.7,10.7C22.5,55.5,20.4,54.9,18.7,53.7z"/>
<path d="M34.7,37.6c0-0.3,0-0.5-0.2-0.7c-0.6-0.7-1.2-1.3-1.9-1.9c-0.2-0.1-0.4-0.2-0.6-0.2c0,0-0.1,0-0.1,0c-0.3,0-0.5,0.2-0.7,0.4
	c-0.4,0.4-0.3,1.1,0.2,1.4c0.6,0.5,1.1,1,1.6,1.6c0.3,0.4,1,0.5,1.4,0.2C34.6,38.1,34.7,37.9,34.7,37.6z"/>
<path d="M24.6,37.3c-4.1,0-7.5,3.4-7.5,7.5s3.4,7.5,7.5,7.5s7.5-3.4,7.5-7.5S28.7,37.3,24.6,37.3z M24.6,50.3c-3,0-5.5-2.5-5.5-5.5
	s2.5-5.5,5.5-5.5s5.5,2.5,5.5,5.5S27.6,50.3,24.6,50.3z"/>
<path d="M49,47.4v-5.2c0-1.3-1-2.3-2.3-2.3h-2.2l0-0.2c-0.5-1.9-1.2-3.7-2.2-5.4l-0.1-0.1l1.5-1.5c0.4-0.4,0.7-1,0.7-1.6
	s-0.2-1.2-0.7-1.6L40,25.8c-0.9-0.9-2.4-0.9-3.3,0l-1.5,1.5l-0.1-0.1c-1.7-1-3.5-1.8-5.4-2.2l-0.2,0v-2.2c0-1.3-1-2.3-2.3-2.3H22
	c-1.3,0-2.3,1-2.3,2.3v2.2l-0.2,0c-1.9,0.5-3.7,1.2-5.4,2.2L14,27.3l-1.5-1.5c-0.9-0.9-2.4-0.9-3.3,0l-3.7,3.7
	c-0.4,0.4-0.7,1-0.7,1.6s0.2,1.2,0.7,1.6l1.5,1.5L7,34.4c-1,1.7-1.8,3.5-2.2,5.4l0,0.2H2.5c0,0,0,0,0,0c-0.6,0-1.2,0.2-1.6,0.7
	c-0.4,0.4-0.7,1-0.7,1.6v5.2c0,1.3,1,2.3,2.3,2.3h2.2l0,0.2C5.2,51.8,6,53.6,7,55.3l0.1,0.1L5.5,57c-0.9,0.9-0.9,2.4,0,3.3l3.7,3.7
	c0.4,0.4,1,0.7,1.6,0.7c0.6,0,1.2-0.2,1.6-0.7l1.5-1.5l0.1,0.1c1.7,1,3.5,1.8,5.4,2.2l0.2,0v2.2c0,1.3,1,2.3,2.3,2.3h5.2
	c1.3,0,2.3-1,2.3-2.3v-2.2l0.2,0c1.9-0.5,3.7-1.2,5.4-2.2l0.1-0.1l1.5,1.5c0.9,0.9,2.4,0.9,3.3,0l3.7-3.7c0.9-0.9,0.9-2.4,0-3.3
	l-1.5-1.5l0.1-0.1c1-1.7,1.8-3.5,2.2-5.4l0-0.2h2.2C48,49.8,49,48.7,49,47.4z M43.7,47.7c-0.5,0-0.9,0.3-1,0.8
	C42.2,50.9,41.3,53,40,55c-0.3,0.4-0.2,0.9,0.1,1.3l2.1,2.1c0.1,0.1,0.1,0.3,0,0.4l-3.7,3.7c-0.1,0.1-0.3,0.1-0.4,0l-2.1-2.1
	c-0.3-0.3-0.9-0.4-1.3-0.1c-2,1.3-4.2,2.2-6.5,2.7c-0.5,0.1-0.8,0.5-0.8,1v3c0,0.2-0.1,0.3-0.3,0.3H22c-0.2,0-0.3-0.1-0.3-0.3v-3
	c0-0.5-0.3-0.9-0.8-1c-2.3-0.5-4.5-1.4-6.5-2.7C14,60,13.5,60,13.1,60.4L11,62.5c-0.1,0.1-0.3,0.1-0.4,0L7,58.8
	c-0.1-0.1-0.1-0.1-0.1-0.2c0-0.1,0-0.1,0.1-0.2l2.1-2.1C9.4,56,9.5,55.4,9.2,55c-1.3-2-2.2-4.2-2.7-6.5c-0.1-0.5-0.5-0.8-1-0.8h-3
	c-0.2,0-0.3-0.1-0.3-0.3v-5.2c0-0.2,0.1-0.3,0.3-0.3h3c0.5,0,0.9-0.3,1-0.8c0.5-2.3,1.4-4.5,2.7-6.5c0.3-0.4,0.2-0.9-0.1-1.3L7,31.3
	c-0.1-0.1-0.1-0.3,0-0.4l3.7-3.7c0.1-0.1,0.3-0.1,0.4,0l2.1,2.1c0.3,0.3,0.9,0.4,1.3,0.1c2-1.3,4.2-2.2,6.5-2.7
	c0.5-0.1,0.8-0.5,0.8-1v-3c0-0.2,0.1-0.3,0.3-0.3h5.2c0.2,0,0.3,0.1,0.3,0.3v3c0,0.5,0.3,0.9,0.8,1c2.3,0.5,4.5,1.4,6.5,2.7
	c0.4,0.3,0.9,0.2,1.3-0.1l2.1-2.1c0.1-0.1,0.3-0.1,0.4,0l3.7,3.7c0.1,0.1,0.1,0.3,0,0.4l-2.1,2.1c-0.3,0.3-0.4,0.9-0.1,1.3
	c1.3,2,2.2,4.2,2.7,6.5c0.1,0.5,0.5,0.8,1,0.8h3c0.2,0,0.3,0.1,0.3,0.3v5.2c0,0.2-0.1,0.3-0.3,0.3H43.7z"/>
<path d="M54.5,10.8c0.4,0,0.7,0,1,0.1c0.6,0.1,1.1-0.2,1.2-0.7c0.1-0.3,0-0.5-0.1-0.8C56.5,9.2,56.3,9,56,8.9
	c-0.5-0.1-1-0.2-1.6-0.2c-3.4,0-6.2,2.8-6.2,6.2c0,0.5,0.1,1,0.2,1.6c0.1,0.5,0.7,0.9,1.2,0.7c0.3-0.1,0.5-0.2,0.6-0.5
	c0.1-0.2,0.2-0.5,0.1-0.8c-0.1-0.3-0.1-0.7-0.1-1C50.3,12.7,52.2,10.8,54.5,10.8z"/>
<path d="M52.2,19.7c-0.1,0.3,0,0.5,0.1,0.8c0.1,0.2,0.4,0.4,0.6,0.5c0.5,0.1,1,0.2,1.6,0.2c3.4,0,6.2-2.8,6.2-6.2
	c0-0.5-0.1-1-0.2-1.6c-0.1-0.3-0.2-0.5-0.5-0.6c-0.2-0.1-0.5-0.2-0.8-0.1c-0.5,0.1-0.9,0.7-0.7,1.2c0.1,0.3,0.1,0.7,0.1,1
	c0,2.3-1.9,4.2-4.2,4.2c-0.4,0-0.7,0-1-0.1c-0.1,0-0.2,0-0.3,0c-0.2,0-0.4,0-0.5,0.1C52.4,19.3,52.3,19.5,52.2,19.7z"/>
<path d="M69.8,16.3v-2.6c0-1.3-1-2.3-2.3-2.3h-2.2l0-0.1c-0.5-1.4-1.2-2.6-2.1-3.7L63,7.4l1.1-1.9c0.6-1.1,0.3-2.5-0.8-3.2L61,1.1
	c-0.5-0.3-1.2-0.4-1.8-0.2c-0.6,0.2-1.1,0.5-1.4,1.1l-1.1,1.9l-0.1,0c-1.4-0.3-2.8-0.3-4.3,0l-0.1,0l-1.1-1.9
	c-0.3-0.5-0.8-0.9-1.4-1.1c-0.6-0.2-1.2-0.1-1.8,0.2l-2.3,1.3c-0.5,0.3-0.9,0.8-1.1,1.4S44.6,5,44.9,5.5l1.1,1.9l-0.1,0.1
	c-0.9,1.1-1.7,2.3-2.1,3.7l0,0.1h-2.2c-1.3,0-2.3,1-2.3,2.3v2.6c0,1.3,1,2.3,2.3,2.3h2.2l0,0.1c0.5,1.4,1.2,2.6,2.1,3.7l0.1,0.1
	l-1.1,1.9c-0.3,0.5-0.4,1.2-0.2,1.8s0.5,1.1,1.1,1.4l2.3,1.3c0.4,0.2,0.8,0.3,1.2,0.3c0.8,0,1.6-0.4,2-1.2l1.1-1.9l0.1,0
	c1.4,0.3,2.8,0.3,4.3,0l0.1,0l1.1,1.9c0.6,1.1,2.1,1.5,3.2,0.8l2.3-1.3c1.1-0.6,1.5-2.1,0.8-3.2L63,22.5l0.1-0.1
	c0.9-1.1,1.7-2.3,2.1-3.7l0-0.1h2.2C68.8,18.6,69.8,17.5,69.8,16.3z M64.5,16.5c-0.5,0-0.9,0.3-1,0.8c-0.4,1.7-1.3,3.2-2.5,4.3
	c-0.3,0.3-0.4,0.8-0.2,1.2l1.5,2.5c0,0.1,0,0.1,0,0.2c0,0.1-0.1,0.1-0.1,0.2L60,27.1c-0.1,0.1-0.3,0-0.4-0.1l-1.5-2.5
	c-0.2-0.4-0.7-0.6-1.2-0.5c-1.7,0.5-3.3,0.5-5,0c-0.4-0.1-0.9,0.1-1.2,0.5L49.4,27c0,0.1-0.1,0.1-0.2,0.1c0,0,0,0-0.1,0
	c0,0-0.1,0-0.1,0l-2.2-1.3c-0.1-0.1-0.2-0.2-0.1-0.4l1.5-2.5c0.2-0.4,0.2-0.9-0.2-1.2c-1.2-1.2-2.1-2.7-2.5-4.3
	c-0.1-0.4-0.5-0.8-1-0.8h-2.9c-0.2,0-0.3-0.1-0.3-0.3v-2.6c0-0.2,0.1-0.3,0.3-0.3h2.9c0.5,0,0.9-0.3,1-0.8c0.4-1.7,1.3-3.2,2.5-4.3
	C48.3,8,48.3,7.4,48.1,7l-1.5-2.5c0-0.1,0-0.1,0-0.2c0-0.1,0.1-0.1,0.1-0.2L49,2.8c0.1,0,0.2,0,0.2,0c0.1,0,0.1,0.1,0.2,0.1l1.5,2.5
	c0.2,0.4,0.7,0.6,1.2,0.5c1.7-0.5,3.3-0.5,5,0c0.4,0.1,0.9-0.1,1.2-0.5l1.5-2.5c0-0.1,0.1-0.1,0.2-0.1c0,0,0.1,0,0.2,0l2.3,1.3
	c0.1,0,0.1,0.1,0.1,0.2c0,0.1,0,0.1,0,0.2L60.9,7c-0.2,0.4-0.2,0.9,0.2,1.2c1.2,1.2,2.1,2.7,2.5,4.3c0.1,0.4,0.5,0.8,1,0.8h2.9
	c0.2,0,0.3,0.1,0.3,0.3v2.6c0,0.2-0.1,0.3-0.3,0.3H64.5z"/>
<path d="M69.8,41c0-0.6-0.5-1-1-1h-1.7l0-0.2c-0.2-0.8-0.5-1.6-1-2.3L66,37.3l1.2-1.2c0.2-0.2,0.3-0.4,0.3-0.7
	c0-0.3-0.1-0.5-0.3-0.7c-0.4-0.4-1-0.4-1.4,0l-1.2,1.2l-0.1-0.1c-0.7-0.5-1.5-0.8-2.3-1l-0.2,0v-1.7c0-0.6-0.5-1-1-1s-1,0.5-1,1v1.7
	l-0.2,0c-0.8,0.2-1.6,0.5-2.3,1l-0.1,0.1l-1.2-1.2c-0.4-0.4-1-0.4-1.4,0c-0.2,0.2-0.3,0.4-0.3,0.7c0,0.3,0.1,0.5,0.3,0.7l1.2,1.2
	l-0.1,0.1c-0.5,0.7-0.8,1.5-1,2.3l0,0.2h-1.7c-0.6,0-1,0.5-1,1s0.5,1,1,1h1.7l0,0.2c0.2,0.8,0.5,1.6,1,2.3l0.1,0.1l-1.2,1.2
	c-0.4,0.4-0.4,1,0,1.4c0.4,0.4,1.1,0.4,1.4,0l1.2-1.2l0.1,0.1c0.7,0.5,1.5,0.8,2.3,1l0.2,0v1.7c0,0.6,0.5,1,1,1s1-0.5,1-1v-1.7
	l0.2,0c0.8-0.2,1.6-0.5,2.3-1l0.1-0.1l1.2,1.2c0.4,0.4,1.1,0.4,1.4,0c0.4-0.4,0.4-1,0-1.4L66,44.6l0.1-0.1c0.5-0.7,0.8-1.5,1-2.3
	l0-0.2h1.7C69.3,42,69.8,41.5,69.8,41z M61,45.1c-2.3,0-4.2-1.9-4.2-4.2c0-2.3,1.9-4.2,4.2-4.2s4.2,1.9,4.2,4.2
	C65.2,43.3,63.3,45.1,61,45.1z"/>
<circle cx="61" cy="41" r="1"/>
</svg>
