<svg xmlns="http://www.w3.org/2000/svg" width="767.92" height="202.38" viewBox="0 0 767.92 202.38"><defs><style>.cls-1{opacity:0.38;}.cls-2{fill:#677f93;}.cls-3{fill:#fff;}.cls-4{fill:#f55;}.cls-5{fill:#506a7c;}.cls-6{fill:#005688;}</style></defs><title>tablet</title><g id="Слой_2" data-name="Слой 2"><g id="Слой_1-2" data-name="Слой 1"><g class="cls-1"><path class="cls-2" d="M759.92,23.52a7,7,0,0,1,7,7v86.71a7,7,0,0,1-7,7H8a7,7,0,0,1-7-7V30.52a7,7,0,0,1,7-7H759.92m0-1H8a8,8,0,0,0-8,8v86.71a8,8,0,0,0,8,8H759.92a8,8,0,0,0,8-8V30.52a8,8,0,0,0-8-8Z"/></g><rect class="cls-3" x="214.62" width="338.68" height="45.05"/><circle class="cls-3" cx="79.96" cy="125.52" r="68"/><circle class="cls-3" cx="231.96" cy="125.52" r="68"/><circle class="cls-3" cx="383.96" cy="125.52" r="68"/><circle class="cls-3" cx="535.96" cy="125.52" r="68"/><circle class="cls-3" cx="687.96" cy="124.52" r="68"/><path class="cls-4" d="M54.73,120.52A20.74,20.74,0,1,0,75.47,99.78,20.76,20.76,0,0,0,54.73,120.52ZM92.3,111.2a19.22,19.22,0,0,1-16.81,28.56h0a19.22,19.22,0,0,1-19.23-19.21,20.15,20.15,0,0,1,.11-2.06l0-.22h4.45l0,.19a3.71,3.71,0,0,0,5.51,2.28l.16-.1,4.83,4.82-.11.17a3.74,3.74,0,1,0,7,1.89,3.69,3.69,0,0,0-.53-1.89l-.1-.17,6.82-6.82.17.1a3.69,3.69,0,0,0,1.89.53,3.76,3.76,0,0,0,3.75-3.75,3.82,3.82,0,0,0-.53-1.89l-.11-.16,2.56-2.56Zm-30.07,6.32a2.25,2.25,0,1,1,2.25,2.25A2.25,2.25,0,0,1,62.23,117.52Zm10,10a2.25,2.25,0,1,1,2.25,2.25A2.25,2.25,0,0,1,72.22,127.52Zm12-12a2.25,2.25,0,1,1,2.25,2.25A2.25,2.25,0,0,1,84.22,115.52Zm-8.75-14.24h0a19.25,19.25,0,0,1,15.72,8.17l.12.17-2.79,2.79-.17-.1a3.69,3.69,0,0,0-1.88-.54,3.76,3.76,0,0,0-3.75,3.75,3.69,3.69,0,0,0,.53,1.89l.1.17-6.82,6.82-.17-.1a3.62,3.62,0,0,0-3.78,0l-.16.1-4.83-4.82.1-.17a3.7,3.7,0,0,0-.56-4.53,3.68,3.68,0,0,0-2.64-1.1h0a3.74,3.74,0,0,0-3.62,2.8l0,.19H56.6l.07-.3A19.37,19.37,0,0,1,75.47,101.28Z"/><polygon class="cls-4" points="102.98 152.61 102.98 152.61 102.98 152.61 102.98 152.61"/><path class="cls-4" d="M105.22,155.26a5,5,0,0,0,3.53-8.52L96.13,134.12l.11-.17a24.71,24.71,0,0,0,0-26.86l-.11-.17,2.28-2.28.16.1a3.73,3.73,0,0,0,1.89.54,3.77,3.77,0,0,0,3.62-2.81l0-.19h6.09v-1.5h-6.09l0-.19a3.74,3.74,0,0,0-7.37.94,3.82,3.82,0,0,0,.53,1.89l.11.16-2.1,2.1-.17-.23a24.74,24.74,0,1,0-6.18,35.83l.17-.1,12.62,12.62A5,5,0,0,0,105.22,155.26Zm-4.76-56a2.25,2.25,0,1,1-2.25,2.25A2.25,2.25,0,0,1,100.46,99.28ZM89,139.43a23.13,23.13,0,0,1-13.48,4.34,24.27,24.27,0,0,1-3.88-.32A23.28,23.28,0,1,1,94.38,134h0c-.35.49-.68.91-1,1.3l-.2.23-.11.13c-.31.36-.64.71-1,1-.14.15-.29.3-.44.44-.34.33-.69.66-1,1l-.17.15-.19.16C89.88,138.75,89.46,139.07,89,139.43Zm1.35.88.23-.18.22-.18.18-.15.45-.37.64-.55.31-.3c.4-.37.8-.77,1.18-1.18l.3-.32c.19-.2.37-.42.56-.63l.36-.45.14-.17a2.23,2.23,0,0,0,.19-.24l.18-.22,3.14,3.14-4.94,4.94Zm9.14-.74,8.23,8.23a3.49,3.49,0,0,1,0,4.93,3.44,3.44,0,0,1-2.46,1.05h0a3.49,3.49,0,0,1-2.44-1l-8.28-8.28Z"/><path class="cls-4" d="M257.69,155.07a.78.78,0,0,0,.95-.49l1.63-5.23a27.5,27.5,0,0,0,1.27-8.26V131.3a3.54,3.54,0,0,0-5.23-3.12l-.42.23-.17-.45a3.59,3.59,0,0,0-3.31-2.27,3.5,3.5,0,0,0-2.49,1l-.3.29-.3-.29a3.54,3.54,0,0,0-3.94-.72l-.59.26v-4.49l.45,0H255a3.22,3.22,0,0,0,3.22-3.21v-5a.76.76,0,0,0-1.51,0v5a1.71,1.71,0,0,1-1.71,1.71l-10.18,0-.07-.46v-2.51a3.55,3.55,0,0,0-7.09,0v2.93h-2.11a1.72,1.72,0,0,1-1.71-1.71V99.15a1.71,1.71,0,0,1,1.71-1.7H255a1.7,1.7,0,0,1,1.71,1.7v5a.76.76,0,1,0,1.51,0v-5A3.22,3.22,0,0,0,255,95.94H235.59a3.21,3.21,0,0,0-3.21,3.21v19.46a3.21,3.21,0,0,0,3.21,3.21h2.11v10.49l-4.11,6a6.43,6.43,0,0,0-.51,6.33l4.69,10a.76.76,0,0,0,1,.36.74.74,0,0,0,.36-1l-4.69-10a4.93,4.93,0,0,1,.39-4.84L237.7,135v3.58a.75.75,0,0,0,1.5,0V117.39a2,2,0,1,1,4.08,0V134.7a.76.76,0,1,0,1.51,0v-5.46a2,2,0,1,1,4.08,0v5.46a.75.75,0,1,0,1.5,0v-5.46a2,2,0,0,1,4.08,0v5.46a.76.76,0,1,0,1.51,0v-3.4a2,2,0,1,1,4.08,0v9.79a26.15,26.15,0,0,1-1.2,7.81l-1.64,5.23A.76.76,0,0,0,257.69,155.07Z"/><path class="cls-4" d="M220,121.82h5a3.22,3.22,0,0,0,3.22-3.21V99.15A3.22,3.22,0,0,0,225,95.94H205.59a3.21,3.21,0,0,0-3.21,3.21v19.46a3.21,3.21,0,0,0,3.21,3.21h5a.75.75,0,0,0,0-1.5h-5a1.72,1.72,0,0,1-1.71-1.71V99.15a1.71,1.71,0,0,1,1.71-1.7H225a1.7,1.7,0,0,1,1.71,1.7v19.46a1.71,1.71,0,0,1-1.71,1.71h-5a.75.75,0,1,0,0,1.5Z"/><path class="cls-4" d="M220,112.47l-3.58-3.59L220,105.3a.75.75,0,0,0,.22-.53.76.76,0,0,0-1.29-.54l-3.58,3.59-3.59-3.59a.77.77,0,0,0-1.06,0,.79.79,0,0,0-.22.54.75.75,0,0,0,.22.53l3.58,3.58-3.58,3.59a.75.75,0,0,0,0,1.06.77.77,0,0,0,1.06,0l3.59-3.58,3.58,3.58a.79.79,0,0,0,1.07,0A.75.75,0,0,0,220,112.47Z"/><path class="cls-4" d="M244.15,111.2a.79.79,0,0,0,1.07,0l6.67-6.67a.75.75,0,1,0-1.07-1.06l-6.13,6.13-2.75-2.75a.76.76,0,0,0-1.29.54.77.77,0,0,0,.22.53Z"/><path class="cls-4" d="M215.32,120.32a.75.75,0,0,0-.53,1.28.77.77,0,0,0,1.06,0,.75.75,0,0,0-.53-1.28Z"/><path class="cls-4" d="M257.51,108.13a.77.77,0,0,0-.54.22.75.75,0,0,0,0,1.06.79.79,0,0,0,1.07,0,.75.75,0,0,0,0-1.06A.77.77,0,0,0,257.51,108.13Z"/><path class="cls-4" d="M396.86,109.75a.77.77,0,0,0-.54-.22.75.75,0,0,0-.53.22.78.78,0,0,0-.23.54.76.76,0,0,0,.23.53.78.78,0,0,0,1.07,0,.75.75,0,0,0,.22-.53.77.77,0,0,0-.22-.54Z"/><path class="cls-4" d="M413.54,115a5.45,5.45,0,0,0-5.44-5.45h-7.47a.76.76,0,0,0-.76.76.75.75,0,0,0,.76.75h7.47A3.94,3.94,0,0,1,412,115v16.87a3.93,3.93,0,0,1-3.93,3.93h-1.64a.79.79,0,0,0-.54.22l-4.15,4.16L397.62,136a.76.76,0,0,0-.54-.22H381.61a3.94,3.94,0,0,1-3.93-3.93v-4.22a.76.76,0,0,0-1.51,0v4.22a5.45,5.45,0,0,0,5.44,5.44h15.16l4.47,4.47a.78.78,0,0,0,1.07,0l4.46-4.47h1.33a5.45,5.45,0,0,0,5.44-5.44Z"/><path class="cls-4" d="M391.75,101.38a5.45,5.45,0,0,0-5.45-5.44H359.82a5.45,5.45,0,0,0-5.44,5.44v16.88a5.45,5.45,0,0,0,5.44,5.44h2.63l4.47,4.47a.79.79,0,0,0,1.07,0l4.47-4.47H386.3a5.45,5.45,0,0,0,5.45-5.44Zm-1.51,16.88a4,4,0,0,1-3.94,3.93H372.14a.75.75,0,0,0-.53.22l-4.16,4.15-4.15-4.15a.75.75,0,0,0-.53-.22h-2.95a3.94,3.94,0,0,1-3.93-3.93V101.38a3.93,3.93,0,0,1,3.93-3.93H386.3a3.94,3.94,0,0,1,3.94,3.93Z"/><path class="cls-4" d="M400.77,129a.75.75,0,0,0,.41-.41.78.78,0,0,0,0-.58h0L397,118.2a.76.76,0,0,0-.7-.47.77.77,0,0,0-.7.47L391.47,128a.78.78,0,0,0,0,.58.75.75,0,0,0,.41.41.76.76,0,0,0,1-.4l.7-1.65h5.53l.69,1.65A.77.77,0,0,0,400.77,129Zm-6.57-3.56,2.12-5,2.13,5Z"/><path class="cls-4" d="M367.56,110.76a5,5,0,0,0,5,5,4.92,4.92,0,0,0,3.13-1.12l.25-.2,1.44,1.06a.78.78,0,0,0,1.06-.16.76.76,0,0,0-.16-1.06l-1.39-1,.15-.31a4.91,4.91,0,0,0,.49-2.16v-1.88a5,5,0,0,0-9.95,0Zm1.51-1.88a3.47,3.47,0,0,1,6.93,0v1.88a3.63,3.63,0,0,1-.16,1l-.17.55L374,111.09a.75.75,0,1,0-.9,1.21l1.66,1.22-.59.31a3.52,3.52,0,0,1-1.59.39,3.47,3.47,0,0,1-3.47-3.46Z"/><path class="cls-4" d="M389.16,142.78a.87.87,0,0,0-.36-.09H358.09a3.73,3.73,0,0,0-3.72,3.72v5a3.73,3.73,0,0,0,3.72,3.72H388.8a.74.74,0,0,0,.36-.09l10.16-5.45a.77.77,0,0,0,.4-.67.78.78,0,0,0-.4-.67h0ZM362,153.59h-3.93a2.21,2.21,0,0,1-2.2-2.2v-5a2.21,2.21,0,0,1,2.2-2.2H362Zm26,0H363.53v-4h15.33a.76.76,0,0,0,0-1.52H363.53v-3.84h24.52Zm1.51-.5v-8.37l7.8,4.18Z"/><path class="cls-4" d="M383.37,148.05a.75.75,0,0,0-.53.22.77.77,0,0,0-.22.54.75.75,0,0,0,.22.53.77.77,0,0,0,1.07,0,.75.75,0,0,0,.22-.53.75.75,0,0,0-.76-.76Z"/><path class="cls-4" d="M573.53,117.39a.75.75,0,0,0-.34-.63l-5.14-3.37a.79.79,0,0,0-.42-.15h-3v-5.79a1,1,0,0,0-.36-.67l-11.7-11.92a1.38,1.38,0,0,0-.2-.21l-.06-.06a.79.79,0,0,0-.54-.22H524.48A5.51,5.51,0,0,0,519,98.79l0,.18-.18,0a5.46,5.46,0,0,0-4.7,5.24v47.13a5.48,5.48,0,0,0,5.62,5.31h34.52a5.5,5.5,0,0,0,5.5-4.42l0-.19.18,0a5.37,5.37,0,0,0,4.68-5.24V121.46h3.06a.68.68,0,0,0,.42-.11l5.13-3.33A.77.77,0,0,0,573.53,117.39ZM552.67,97.12l9.28,9.53h-7.7a1.61,1.61,0,0,1-1.58-1.56Zm5.42,55.33a4,4,0,0,1-3.9,2.72H519.67a4,4,0,0,1-4.11-3.8V104.24a4,4,0,0,1,3-3.67l.33-.09V146.8a5.48,5.48,0,0,0,5.62,5.32h33.71Zm5-5.65a4,4,0,0,1-4.07,3.81H524.48a4,4,0,0,1-4.11-3.81v-47a.57.57,0,0,1,0-.16.2.2,0,0,0,0-.11,4,4,0,0,1,4.08-3.69h26.69v9.22a3.09,3.09,0,0,0,3.09,3.06h8.81v5.08h-33a.86.86,0,0,0-.8.82v.39l-3.28-.07a.79.79,0,0,0-.76.79l0,4.41a.76.76,0,0,0,.76.74h3.25v.41a.78.78,0,0,0,.8.73h2.41l0,1.78a2,2,0,0,0,.54,1.39,1.65,1.65,0,0,0,1.13.51H546.4a.76.76,0,1,0,0-1.51H534v-.34l0-1.83h29.1ZM529.25,116v2.87h-2.5l0-2.9Zm37.62,4H530.76v-5.21h36.11Zm1.51-.62v-3.9l3,2Z"/><path class="cls-4" d="M542.67,128.32H526a.75.75,0,0,0,0,1.5h16.66a.75.75,0,0,0,0-1.5Z"/><path class="cls-4" d="M555,133.26H526a.75.75,0,0,0,0,1.5h29a.75.75,0,0,0,0-1.5Z"/><path class="cls-4" d="M555,138.2H526a.75.75,0,0,0,0,1.5h29a.75.75,0,0,0,0-1.5Z"/><path class="cls-4" d="M555,143.14H526a.75.75,0,0,0,0,1.5h29a.75.75,0,0,0,0-1.5Z"/><path class="cls-4" d="M717.56,107.36a.76.76,0,0,0-.23-.55h0L706.67,96.15a.76.76,0,0,0-.55-.23h-34.8A3.12,3.12,0,0,0,668.2,99v2.5l-.25.1a15.2,15.2,0,0,0-9.59,14,.76.76,0,0,0,.77.77h14.31a.77.77,0,0,0,.77-.77V101.38a.78.78,0,0,0-.77-.77,15.69,15.69,0,0,0-3.21.34l-.48.11V99a1.57,1.57,0,0,1,1.57-1.57h34V105a3.12,3.12,0,0,0,3.12,3.12H716V152a1.57,1.57,0,0,1-1.57,1.57H671.32a1.57,1.57,0,0,1-1.57-1.57V142a.78.78,0,0,0-1.55,0v10a3.12,3.12,0,0,0,3.12,3.11h43.12a3.12,3.12,0,0,0,3.12-3.11Zm-45.33-5.15.44,0v12.75H659.92l0-.44A13.51,13.51,0,0,1,672.23,102.21Zm36.24,4.38a1.58,1.58,0,0,1-1.58-1.58V98.56l8,8Z"/><path class="cls-4" d="M669.52,137.16a.78.78,0,0,0-1.32.55.74.74,0,0,0,.23.54.8.8,0,0,0,1.09,0,.83.83,0,0,0,.23-.55.78.78,0,0,0-.23-.54Z"/><path class="cls-4" d="M677.63,104.81a.77.77,0,0,0-.77.77v13.54H663.33a.76.76,0,0,0-.77.77,15.08,15.08,0,1,0,15.07-15.08Zm.78,1.56.43,0a13.49,13.49,0,0,1,7.47,3.1l.33.29L678.41,118Zm-.78,27a13.63,13.63,0,0,1-13.48-12.33l0-.43h13.52a.76.76,0,0,0,.55-.23l9.56-9.55.28.33a13.53,13.53,0,0,1-10.39,22.21Z"/><path class="cls-4" d="M709.3,139.14a3.12,3.12,0,1,0-3.12-3.12,3,3,0,0,0,.25,1.22l.1.25-7.14,7.14-.26-.13a3.13,3.13,0,0,0-2.69,0l-.25.12-4.87-4.87.09-.24a2.92,2.92,0,0,0,.22-1.13,3.12,3.12,0,1,0-6.23,0,3.07,3.07,0,0,0,.28,1.3l.12.25-4.7,4.7-.25-.12a3.12,3.12,0,0,0-4.46,2.81,3.12,3.12,0,1,0,5.93-1.34l-.12-.26,4.68-4.68.25.13a3.17,3.17,0,0,0,2.92-.08l.26-.16,4.78,4.78L695,146a3.18,3.18,0,0,0-.3,1.36,3.12,3.12,0,1,0,5.93-1.33l-.12-.25,7.1-7.1.26.14A3.11,3.11,0,0,0,709.3,139.14Zm-29.79,9.74a1.57,1.57,0,1,1,0-3.14,1.59,1.59,0,0,1,1.09.44,1.62,1.62,0,0,1,.48,1.13A1.57,1.57,0,0,1,679.51,148.88Zm9-8.94a1.58,1.58,0,1,1,1.58-1.57A1.58,1.58,0,0,1,688.51,139.94Zm9.26,8.94a1.57,1.57,0,1,1,1.57-1.57A1.57,1.57,0,0,1,697.77,148.88Zm11.53-14.43a1.57,1.57,0,1,1-1.58,1.57A1.58,1.58,0,0,1,709.3,134.45Z"/><path class="cls-4" d="M697.25,123.46a.77.77,0,1,0,0,1.54h6.19a.77.77,0,0,0,0-1.54Z"/><path class="cls-4" d="M709.32,123.69a.76.76,0,0,0-.55-.23.79.79,0,0,0-.77.77.76.76,0,0,0,.23.55.79.79,0,0,0,1.09,0,.79.79,0,0,0,0-1.09Z"/><path class="cls-4" d="M697.25,112.21a.77.77,0,1,0,0,1.54h14.32a.77.77,0,0,0,0-1.54Z"/><path class="cls-4" d="M697.25,117.84a.77.77,0,1,0,0,1.54h14.32a.77.77,0,0,0,0-1.54Z"/><path class="cls-5" d="M44.45,183h-2l-1.7-3.15a1.38,1.38,0,0,0-.58-.63,1.83,1.83,0,0,0-.89-.19H38v4H36.17v-9.87h4.37a3.85,3.85,0,0,1,2.56.75A2.68,2.68,0,0,1,44,176a2.74,2.74,0,0,1-.64,1.87,3,3,0,0,1-1.79,1,2.06,2.06,0,0,1,1.26,1.1Zm-2.66-5.74a1.44,1.44,0,0,0,.47-1.18,1.41,1.41,0,0,0-.47-1.18,2.44,2.44,0,0,0-1.5-.37H37.94v3.12h2.35A2.36,2.36,0,0,0,41.79,177.21Z"/><path class="cls-5" d="M51.76,179.84H47.09a2.14,2.14,0,0,0,.58,1.41,1.94,1.94,0,0,0,1.4.46,3.34,3.34,0,0,0,2.07-.72l.5,1.2a3.62,3.62,0,0,1-1.19.63,4.59,4.59,0,0,1-1.45.24,3.67,3.67,0,0,1-2.66-.95,3.53,3.53,0,0,1-1-2.61,4,4,0,0,1,.42-1.86A3.12,3.12,0,0,1,47,176.38a3.36,3.36,0,0,1,1.73-.45,2.89,2.89,0,0,1,2.24.91,3.65,3.65,0,0,1,.82,2.51Zm-4.14-2.23a2.19,2.19,0,0,0-.53,1.29h3.17a2,2,0,0,0-.42-1.29,1.37,1.37,0,0,0-1.09-.45A1.48,1.48,0,0,0,47.62,177.61Z"/><path class="cls-5" d="M59.79,176.1v9.37H58v-3.6a2.13,2.13,0,0,1-.89.87,2.7,2.7,0,0,1-1.31.32,2.91,2.91,0,0,1-1.58-.44,2.87,2.87,0,0,1-1.07-1.23,4.18,4.18,0,0,1-.38-1.86,4.3,4.3,0,0,1,.38-1.88,3,3,0,0,1,1.08-1.27,2.83,2.83,0,0,1,1.57-.45,2.75,2.75,0,0,1,1.33.32,2.18,2.18,0,0,1,.89.89v-1Zm-2.19,5a3.14,3.14,0,0,0,0-3.27,1.72,1.72,0,0,0-2.58,0,2.59,2.59,0,0,0-.46,1.65,2.46,2.46,0,0,0,.46,1.6,1.57,1.57,0,0,0,1.3.57A1.54,1.54,0,0,0,57.6,181.13Z"/><path class="cls-5" d="M67.88,176.1V183h-1.7v-1a2.32,2.32,0,0,1-.87.86,2.54,2.54,0,0,1-1.23.3c-1.68,0-2.52-.94-2.52-2.83V176.1h1.75v4.14a1.62,1.62,0,0,0,.29,1.08,1.12,1.12,0,0,0,.92.35,1.5,1.5,0,0,0,1.17-.48,1.8,1.8,0,0,0,.44-1.28V176.1Z"/><path class="cls-5" d="M69.61,172.92h1.93v1.72H69.61Zm.09,10V176.1h1.75V183Z"/><path class="cls-5" d="M77.77,177.39l-1,.1c-1.16.12-1.74.71-1.74,1.76V183H73.26V176.1h1.67v1.2A2.32,2.32,0,0,1,77.12,176l.54,0Z"/><path class="cls-5" d="M84.49,179.84H79.82a2.14,2.14,0,0,0,.58,1.41,2,2,0,0,0,1.4.46,3.32,3.32,0,0,0,2.07-.72l.51,1.2a3.78,3.78,0,0,1-1.2.63,4.59,4.59,0,0,1-1.45.24,3.63,3.63,0,0,1-2.65-.95,3.5,3.5,0,0,1-1-2.61,4,4,0,0,1,.42-1.86,3.08,3.08,0,0,1,1.19-1.26,3.29,3.29,0,0,1,1.72-.45,2.89,2.89,0,0,1,2.24.91,3.65,3.65,0,0,1,.82,2.51Zm-4.14-2.23a2.25,2.25,0,0,0-.53,1.29H83a2,2,0,0,0-.42-1.29,1.37,1.37,0,0,0-1.09-.45A1.48,1.48,0,0,0,80.35,177.61Z"/><path class="cls-5" d="M95.78,176.63a3.21,3.21,0,0,1,.58,2.12V183H94.61v-4.13a1.93,1.93,0,0,0-.27-1.15,1,1,0,0,0-.85-.35,1.34,1.34,0,0,0-1.09.47,2,2,0,0,0-.39,1.33V183H90.26v-4.13a2,2,0,0,0-.26-1.15,1,1,0,0,0-.86-.35,1.34,1.34,0,0,0-1.08.47,2,2,0,0,0-.39,1.33V183H85.92V176.1h1.7v1a2,2,0,0,1,.86-.85,2.64,2.64,0,0,1,1.24-.29,2,2,0,0,1,2.06,1.29,2.28,2.28,0,0,1,.93-.94,2.63,2.63,0,0,1,1.34-.35A2.09,2.09,0,0,1,95.78,176.63Z"/><path class="cls-5" d="M104.14,179.84H99.48a2.18,2.18,0,0,0,.57,1.41,2,2,0,0,0,1.4.46,3.35,3.35,0,0,0,2.08-.72l.5,1.2a3.78,3.78,0,0,1-1.2.63,4.53,4.53,0,0,1-1.44.24,3.65,3.65,0,0,1-2.66-.95,3.49,3.49,0,0,1-1-2.61,4,4,0,0,1,.42-1.86,3.05,3.05,0,0,1,1.18-1.26,3.36,3.36,0,0,1,1.73-.45,2.86,2.86,0,0,1,2.23.91,3.6,3.6,0,0,1,.82,2.51ZM100,177.61a2.19,2.19,0,0,0-.53,1.29h3.16a1.88,1.88,0,0,0-.42-1.29,1.36,1.36,0,0,0-1.09-.45A1.47,1.47,0,0,0,100,177.61Z"/><path class="cls-5" d="M111.38,176.63a3.19,3.19,0,0,1,.6,2.12V183h-1.75v-4.11a1.81,1.81,0,0,0-.3-1.16,1.15,1.15,0,0,0-.94-.36,1.6,1.6,0,0,0-1.21.47,1.76,1.76,0,0,0-.46,1.28V183h-1.75V176.1h1.71v1a2.35,2.35,0,0,1,.94-.88,2.87,2.87,0,0,1,1.33-.31A2.3,2.3,0,0,1,111.38,176.63Z"/><path class="cls-5" d="M117.91,181.7l-.09,1.3a7.23,7.23,0,0,1-.77,0,3,3,0,0,1-2.13-.66,2.65,2.65,0,0,1-.68-2v-3h-1.32V176.1h1.32v-2H116v2h1.8v1.32H116v3c0,.92.42,1.37,1.27,1.37A4.93,4.93,0,0,0,117.91,181.7Z"/><path class="cls-5" d="M119.77,182.83a3.71,3.71,0,0,1-1.29-.64L119,181a4.14,4.14,0,0,0,2.5.8,1.65,1.65,0,0,0,.92-.2.62.62,0,0,0,.32-.56.57.57,0,0,0-.22-.47,2.21,2.21,0,0,0-.78-.31l-1.12-.25a2.75,2.75,0,0,1-1.41-.69,1.69,1.69,0,0,1-.46-1.23,1.86,1.86,0,0,1,.35-1.11,2.34,2.34,0,0,1,1-.75,3.71,3.71,0,0,1,1.47-.27,4.43,4.43,0,0,1,1.41.23,4,4,0,0,1,1.2.63l-.49,1.19a3.58,3.58,0,0,0-2.13-.77,1.66,1.66,0,0,0-.9.21.66.66,0,0,0-.32.58.61.61,0,0,0,.21.47,1.47,1.47,0,0,0,.65.28l1.16.26a3,3,0,0,1,1.5.71,1.9,1.9,0,0,1-.3,2.78,3.49,3.49,0,0,1-2.08.56A5.93,5.93,0,0,1,119.77,182.83Z"/><path class="cls-5" d="M60.32,193.43a3,3,0,0,1,.7,2.16v4.16H59.35V198.7a1.87,1.87,0,0,1-.75.85,2.28,2.28,0,0,1-1.18.31,2.87,2.87,0,0,1-1.25-.28,2.28,2.28,0,0,1-.88-.77,1.91,1.91,0,0,1-.32-1.09,1.75,1.75,0,0,1,.38-1.19,2.34,2.34,0,0,1,1.26-.63,11.29,11.29,0,0,1,2.39-.2h.35v-.32a1.42,1.42,0,0,0-.3-1,1.39,1.39,0,0,0-1-.31,3.89,3.89,0,0,0-1.14.19,5.55,5.55,0,0,0-1.17.53l-.49-1.21a6,6,0,0,1,2.92-.84A2.91,2.91,0,0,1,60.32,193.43Zm-1.41,4.7a1.71,1.71,0,0,0,.44-1.21v-.3H59.1a9.08,9.08,0,0,0-1.46.09,1.38,1.38,0,0,0-.74.29.75.75,0,0,0-.22.58,1,1,0,0,0,.3.73,1.13,1.13,0,0,0,.79.29A1.51,1.51,0,0,0,58.91,198.13Z"/><path class="cls-5" d="M68.6,193.43a3.14,3.14,0,0,1,.61,2.12v4.2H67.46v-4.11a1.81,1.81,0,0,0-.3-1.16,1.19,1.19,0,0,0-1-.36,1.62,1.62,0,0,0-1.21.47,1.81,1.81,0,0,0-.46,1.28v3.88H62.79V192.9H64.5v1a2.48,2.48,0,0,1,.94-.88,2.9,2.9,0,0,1,1.33-.31A2.27,2.27,0,0,1,68.6,193.43Z"/><path class="cls-5" d="M76.07,193.43a3,3,0,0,1,.7,2.16v4.16H75.1V198.7a1.87,1.87,0,0,1-.75.85,2.28,2.28,0,0,1-1.18.31,2.87,2.87,0,0,1-1.25-.28,2.28,2.28,0,0,1-.88-.77,1.91,1.91,0,0,1-.32-1.09,1.75,1.75,0,0,1,.38-1.19,2.34,2.34,0,0,1,1.26-.63,11.29,11.29,0,0,1,2.39-.2h.35v-.32a1.42,1.42,0,0,0-.3-1,1.39,1.39,0,0,0-1-.31,3.89,3.89,0,0,0-1.14.19,5.55,5.55,0,0,0-1.17.53L71,193.57a6,6,0,0,1,2.92-.84A2.91,2.91,0,0,1,76.07,193.43Zm-1.41,4.7a1.71,1.71,0,0,0,.44-1.21v-.3h-.25a9.08,9.08,0,0,0-1.46.09,1.38,1.38,0,0,0-.74.29.75.75,0,0,0-.22.58,1,1,0,0,0,.3.73,1.13,1.13,0,0,0,.79.29A1.51,1.51,0,0,0,74.66,198.13Z"/><path class="cls-5" d="M78.54,199.75v-9.87h1.75v9.87Z"/><path class="cls-5" d="M86.9,192.91h1.72l-4.11,9.36H82.74L84,199.48l-2.86-6.57H83l1.93,4.83Z"/><path class="cls-5" d="M90.21,199.63a3.71,3.71,0,0,1-1.29-.64l.49-1.22a4.14,4.14,0,0,0,2.5.8,1.74,1.74,0,0,0,.92-.2.62.62,0,0,0,.32-.56.57.57,0,0,0-.22-.47,2.21,2.21,0,0,0-.78-.31L91,196.78a2.75,2.75,0,0,1-1.41-.69,1.69,1.69,0,0,1-.46-1.23,1.79,1.79,0,0,1,.35-1.11,2.2,2.2,0,0,1,1-.75,3.71,3.71,0,0,1,1.47-.27,4.43,4.43,0,0,1,1.41.23,4,4,0,0,1,1.2.63l-.49,1.19A3.58,3.58,0,0,0,92,194a1.66,1.66,0,0,0-.9.21.66.66,0,0,0-.32.58.63.63,0,0,0,.2.47,1.57,1.57,0,0,0,.66.28l1.16.26a3,3,0,0,1,1.5.71,1.75,1.75,0,0,1,.47,1.27A1.77,1.77,0,0,1,94,199.3a3.49,3.49,0,0,1-2.08.56A5.93,5.93,0,0,1,90.21,199.63Z"/><path class="cls-5" d="M96.06,189.72H98v1.72H96.06Zm.1,10V192.9h1.75v6.85Z"/><path class="cls-5" d="M100.56,199.63a3.86,3.86,0,0,1-1.3-.64l.49-1.22a4.17,4.17,0,0,0,2.51.8,1.77,1.77,0,0,0,.92-.2.61.61,0,0,0,.31-.56.55.55,0,0,0-.22-.47,2.14,2.14,0,0,0-.77-.31l-1.12-.25a2.74,2.74,0,0,1-1.42-.69,1.73,1.73,0,0,1-.46-1.23,1.8,1.8,0,0,1,.36-1.11,2.22,2.22,0,0,1,1-.75,3.79,3.79,0,0,1,1.48-.27,4.53,4.53,0,0,1,1.41.23,3.86,3.86,0,0,1,1.19.63l-.49,1.19a3.57,3.57,0,0,0-2.12-.77,1.62,1.62,0,0,0-.9.21.64.64,0,0,0-.32.58.63.63,0,0,0,.2.47,1.52,1.52,0,0,0,.65.28l1.16.26a3,3,0,0,1,1.5.71,1.71,1.71,0,0,1,.48,1.27,1.79,1.79,0,0,1-.77,1.51,3.52,3.52,0,0,1-2.09.56A5.86,5.86,0,0,1,100.56,199.63Z"/><path class="cls-5" d="M221.94,183v-8.39h-3.22v-1.48H227v1.48h-3.22V183Z"/><path class="cls-5" d="M233,179.84H228.3a2.09,2.09,0,0,0,.57,1.41,2,2,0,0,0,1.4.46,3.3,3.3,0,0,0,2.07-.72l.51,1.2a3.78,3.78,0,0,1-1.2.63,4.54,4.54,0,0,1-1.45.24,3.64,3.64,0,0,1-2.65-.95,3.49,3.49,0,0,1-1-2.61,4,4,0,0,1,.42-1.86,3.05,3.05,0,0,1,1.18-1.26,3.33,3.33,0,0,1,1.73-.45,2.88,2.88,0,0,1,2.23.91,3.6,3.6,0,0,1,.82,2.51Zm-4.14-2.23a2.18,2.18,0,0,0-.52,1.29h3.16a2,2,0,0,0-.42-1.29,1.36,1.36,0,0,0-1.09-.45A1.49,1.49,0,0,0,228.82,177.61Z"/><path class="cls-5" d="M235.23,182.83a3.8,3.8,0,0,1-1.29-.64l.49-1.22a4.15,4.15,0,0,0,2.51.8,1.64,1.64,0,0,0,.91-.2.62.62,0,0,0,.32-.56.55.55,0,0,0-.22-.47,2.13,2.13,0,0,0-.78-.31l-1.12-.25a2.75,2.75,0,0,1-1.41-.69,1.69,1.69,0,0,1-.46-1.23,1.86,1.86,0,0,1,.35-1.11,2.34,2.34,0,0,1,1-.75,3.76,3.76,0,0,1,1.48-.27,4.42,4.42,0,0,1,1.4.23,3.92,3.92,0,0,1,1.2.63l-.49,1.19a3.58,3.58,0,0,0-2.13-.77,1.6,1.6,0,0,0-.89.21.65.65,0,0,0-.33.58.61.61,0,0,0,.21.47,1.47,1.47,0,0,0,.65.28l1.16.26a3,3,0,0,1,1.5.71,1.9,1.9,0,0,1-.3,2.78,3.49,3.49,0,0,1-2.08.56A5.93,5.93,0,0,1,235.23,182.83Z"/><path class="cls-5" d="M245.25,181.7l-.08,1.3a7.23,7.23,0,0,1-.77,0,3,3,0,0,1-2.13-.66,2.62,2.62,0,0,1-.69-2v-3h-1.31V176.1h1.31v-2h1.75v2h1.81v1.32h-1.81v3c0,.92.43,1.37,1.28,1.37A4.78,4.78,0,0,0,245.25,181.7Z"/><path class="cls-5" d="M218.05,189.88v9.87h-1.74v-1.11a2.2,2.2,0,0,1-.89.9,2.69,2.69,0,0,1-1.32.32,2.8,2.8,0,0,1-1.57-.45,2.94,2.94,0,0,1-1.08-1.27,4.3,4.3,0,0,1-.39-1.88,4.18,4.18,0,0,1,.39-1.86,2.93,2.93,0,0,1,1.07-1.23,2.89,2.89,0,0,1,1.58-.44,2.83,2.83,0,0,1,1.32.31,2.17,2.17,0,0,1,.88.87v-4Zm-2.19,8.05a2.62,2.62,0,0,0,.45-1.64,2.57,2.57,0,0,0-.45-1.63,1.55,1.55,0,0,0-1.28-.57,1.59,1.59,0,0,0-1.3.56,2.45,2.45,0,0,0-.47,1.61,2.59,2.59,0,0,0,.47,1.65,1.53,1.53,0,0,0,1.28.59A1.58,1.58,0,0,0,215.86,197.93Z"/><path class="cls-5" d="M225.86,196.64H221.2a2.18,2.18,0,0,0,.57,1.41,2,2,0,0,0,1.4.46,3.35,3.35,0,0,0,2.08-.72l.5,1.2a3.78,3.78,0,0,1-1.2.63,4.54,4.54,0,0,1-1.45.24,3.64,3.64,0,0,1-2.65-1,3.49,3.49,0,0,1-1-2.61,4,4,0,0,1,.42-1.86,3.05,3.05,0,0,1,1.18-1.26,3.36,3.36,0,0,1,1.73-.45,2.86,2.86,0,0,1,2.23.91,3.6,3.6,0,0,1,.82,2.51Zm-4.14-2.23a2.18,2.18,0,0,0-.52,1.29h3.16a1.93,1.93,0,0,0-.42-1.29,1.36,1.36,0,0,0-1.09-.45A1.49,1.49,0,0,0,221.72,194.41Z"/><path class="cls-5" d="M228.14,199.63a3.86,3.86,0,0,1-1.3-.64l.49-1.22a4.15,4.15,0,0,0,2.51.8,1.73,1.73,0,0,0,.91-.2.62.62,0,0,0,.32-.56.55.55,0,0,0-.22-.47,2.13,2.13,0,0,0-.78-.31l-1.11-.25a2.74,2.74,0,0,1-1.42-.69,1.69,1.69,0,0,1-.46-1.23,1.8,1.8,0,0,1,.36-1.11,2.17,2.17,0,0,1,1-.75,3.76,3.76,0,0,1,1.48-.27,4.42,4.42,0,0,1,1.4.23,3.81,3.81,0,0,1,1.2.63l-.49,1.19a3.58,3.58,0,0,0-2.13-.77,1.6,1.6,0,0,0-.89.21.64.64,0,0,0-.32.58.6.6,0,0,0,.2.47,1.47,1.47,0,0,0,.65.28l1.16.26a3,3,0,0,1,1.5.71,1.71,1.71,0,0,1,.48,1.27,1.79,1.79,0,0,1-.77,1.51,3.52,3.52,0,0,1-2.09.56A5.81,5.81,0,0,1,228.14,199.63Z"/><path class="cls-5" d="M234,189.72h1.93v1.72H234Zm.1,10V192.9h1.75v6.85Z"/><path class="cls-5" d="M244.3,192.9v6.22a3.16,3.16,0,0,1-.89,2.43,3.74,3.74,0,0,1-2.63.83,6.55,6.55,0,0,1-1.72-.23,5,5,0,0,1-1.44-.65l.49-1.24a5,5,0,0,0,2.63.77,1.59,1.59,0,0,0,1.82-1.79v-.89a2.1,2.1,0,0,1-.89.88,2.72,2.72,0,0,1-1.35.32,3,3,0,0,1-1.59-.43,2.9,2.9,0,0,1-1.08-1.19,3.92,3.92,0,0,1-.39-1.78,4.09,4.09,0,0,1,.38-1.79,2.82,2.82,0,0,1,1.09-1.2,2.94,2.94,0,0,1,1.59-.43,2.83,2.83,0,0,1,1.35.32,2.07,2.07,0,0,1,.89.89v-1Zm-2.21,4.75a2.21,2.21,0,0,0,.47-1.5,2.19,2.19,0,0,0-.47-1.51,1.6,1.6,0,0,0-1.31-.55,1.62,1.62,0,0,0-1.3.55,2.63,2.63,0,0,0,0,3,1.83,1.83,0,0,0,2.61,0Z"/><path class="cls-5" d="M251.92,193.43a3.19,3.19,0,0,1,.6,2.12v4.2h-1.75v-4.11a1.81,1.81,0,0,0-.3-1.16,1.17,1.17,0,0,0-.95-.36,1.62,1.62,0,0,0-1.21.47,1.8,1.8,0,0,0-.45,1.28v3.88h-1.75V192.9h1.7v1a2.48,2.48,0,0,1,.94-.88,2.9,2.9,0,0,1,1.33-.31A2.3,2.3,0,0,1,251.92,193.43Z"/><path class="cls-5" d="M368.92,182.94a2.46,2.46,0,0,1,.49.61l1,1.64-1.51.72-1.36-2.19a1.43,1.43,0,0,0-1.33-.65,4.9,4.9,0,0,1-2.5-.61,4.12,4.12,0,0,1-1.63-1.77,6.61,6.61,0,0,1,0-5.37,4.12,4.12,0,0,1,1.63-1.75,5.33,5.33,0,0,1,5,0,4.18,4.18,0,0,1,1.63,1.75,6.6,6.6,0,0,1-.09,5.56,3.92,3.92,0,0,1-1.92,1.74A1.54,1.54,0,0,1,368.92,182.94Zm-.58-2.25a5.12,5.12,0,0,0,0-5.37,2.89,2.89,0,0,0-4.25,0,5.07,5.07,0,0,0,0,5.37,2.87,2.87,0,0,0,4.25,0Z"/><path class="cls-5" d="M378.86,176.1V183h-1.71v-1a2.22,2.22,0,0,1-.86.86,2.56,2.56,0,0,1-1.24.3c-1.68,0-2.52-.94-2.52-2.83V176.1h1.75v4.14a1.62,1.62,0,0,0,.3,1.08,1.1,1.1,0,0,0,.92.35,1.5,1.5,0,0,0,1.17-.48,1.8,1.8,0,0,0,.44-1.28V176.1Z"/><path class="cls-5" d="M385.76,176.63a2.94,2.94,0,0,1,.7,2.16V183H384.8v-1a1.87,1.87,0,0,1-.75.85,2.21,2.21,0,0,1-1.18.31,2.83,2.83,0,0,1-1.25-.28,2.2,2.2,0,0,1-.88-.77,1.91,1.91,0,0,1-.32-1.09,1.7,1.7,0,0,1,.38-1.19,2.3,2.3,0,0,1,1.25-.63,11.47,11.47,0,0,1,2.4-.2h.35v-.32a1.42,1.42,0,0,0-.3-1,1.39,1.39,0,0,0-1-.31,4,4,0,0,0-1.15.19,5.72,5.72,0,0,0-1.16.53l-.49-1.21a6,6,0,0,1,2.92-.84A2.93,2.93,0,0,1,385.76,176.63Zm-1.4,4.7a1.71,1.71,0,0,0,.44-1.21v-.3h-.25a9,9,0,0,0-1.46.09,1.35,1.35,0,0,0-.74.29.75.75,0,0,0-.23.58,1,1,0,0,0,.31.73,1.13,1.13,0,0,0,.79.29A1.52,1.52,0,0,0,384.36,181.33Z"/><path class="cls-5" d="M388.24,183v-9.87H390V183Z"/><path class="cls-5" d="M391.7,172.92h1.93v1.72H391.7Zm.1,10V176.1h1.75V183Z"/><path class="cls-5" d="M399.5,181.7l-.09,1.3a7.1,7.1,0,0,1-.77,0,2.94,2.94,0,0,1-2.12-.66,2.62,2.62,0,0,1-.69-2v-3h-1.32V176.1h1.32v-2h1.75v2h1.81v1.32h-1.81v3c0,.92.42,1.37,1.27,1.37A4.93,4.93,0,0,0,399.5,181.7Z"/><path class="cls-5" d="M405.43,176.11h1.73L403,185.47h-1.76l1.24-2.79-2.85-6.57h1.84l1.94,4.83Z"/><path class="cls-5" d="M363.55,199.42a3,3,0,0,1-1.21-1.23,4.28,4.28,0,0,1,0-3.74,3.08,3.08,0,0,1,1.26-1.27,3.78,3.78,0,0,1,1.87-.45,4.54,4.54,0,0,1,1.42.23,2.94,2.94,0,0,1,1.12.63l-.51,1.23a3.28,3.28,0,0,0-.92-.53,2.72,2.72,0,0,0-1-.19,1.8,1.8,0,0,0-1.42.57,2.89,2.89,0,0,0,0,3.25,1.8,1.8,0,0,0,1.42.57,2.72,2.72,0,0,0,1-.19,3.28,3.28,0,0,0,.92-.53L368,199a3.25,3.25,0,0,1-1.15.64,4.74,4.74,0,0,1-1.46.23A3.83,3.83,0,0,1,363.55,199.42Z"/><path class="cls-5" d="M370.41,199.42a3,3,0,0,1-1.22-1.24,3.94,3.94,0,0,1-.44-1.89,3.87,3.87,0,0,1,.44-1.88,3,3,0,0,1,1.22-1.24,3.76,3.76,0,0,1,1.84-.44,3.8,3.8,0,0,1,1.85.44,3,3,0,0,1,1.21,1.24,3.87,3.87,0,0,1,.43,1.88,3.93,3.93,0,0,1-.43,1.89,3,3,0,0,1-1.21,1.24,3.8,3.8,0,0,1-1.85.44A3.76,3.76,0,0,1,370.41,199.42Zm3.13-1.48a2.58,2.58,0,0,0,.45-1.65,2.62,2.62,0,0,0-.45-1.65,1.77,1.77,0,0,0-2.58,0,2.61,2.61,0,0,0-.46,1.65,2.58,2.58,0,0,0,.45,1.65,1.78,1.78,0,0,0,2.59,0Z"/><path class="cls-5" d="M383,193.43a3.19,3.19,0,0,1,.6,2.12v4.2h-1.75v-4.11a1.81,1.81,0,0,0-.3-1.16,1.15,1.15,0,0,0-.94-.36,1.6,1.6,0,0,0-1.21.47,1.76,1.76,0,0,0-.46,1.28v3.88h-1.75V192.9h1.71v1a2.41,2.41,0,0,1,.94-.88,2.87,2.87,0,0,1,1.33-.31A2.27,2.27,0,0,1,383,193.43Z"/><path class="cls-5" d="M389.52,198.5l-.09,1.3a7.23,7.23,0,0,1-.77,0,3,3,0,0,1-2.13-.66,2.65,2.65,0,0,1-.68-2v-3h-1.32V192.9h1.32v-2h1.75v2h1.8v1.32h-1.8v2.95c0,.92.42,1.37,1.27,1.37A4.93,4.93,0,0,0,389.52,198.5Z"/><path class="cls-5" d="M395.05,194.19l-1,.1c-1.15.12-1.73.71-1.73,1.76v3.7h-1.75V192.9h1.66v1.2a2.35,2.35,0,0,1,2.2-1.34l.53,0Z"/><path class="cls-5" d="M397,199.42a2.92,2.92,0,0,1-1.22-1.24,3.94,3.94,0,0,1-.44-1.89,3.87,3.87,0,0,1,.44-1.88,2.92,2.92,0,0,1,1.22-1.24,4.07,4.07,0,0,1,3.68,0,2.92,2.92,0,0,1,1.22,1.24,4,4,0,0,1,.43,1.88,4.05,4.05,0,0,1-.43,1.89,2.92,2.92,0,0,1-1.22,1.24,4.07,4.07,0,0,1-3.68,0Zm3.13-1.48a2.58,2.58,0,0,0,.45-1.65,2.62,2.62,0,0,0-.45-1.65,1.77,1.77,0,0,0-2.58,0,3.22,3.22,0,0,0,0,3.3,1.78,1.78,0,0,0,2.59,0Z"/><path class="cls-5" d="M403.81,199.75v-9.87h1.75v9.87Z"/><path class="cls-5" d="M515.74,183l-1-2.31H510L509,183h-1.82l4.47-9.87h1.47l4.46,9.87Zm-5.21-3.71h3.62l-1.81-4.2Z"/><path class="cls-5" d="M519.68,182.62a2.93,2.93,0,0,1-1.21-1.23,4.28,4.28,0,0,1,0-3.74,3.08,3.08,0,0,1,1.26-1.27,3.78,3.78,0,0,1,1.87-.45,4.54,4.54,0,0,1,1.42.23,2.94,2.94,0,0,1,1.12.63l-.51,1.23a3.38,3.38,0,0,0-.91-.53,2.82,2.82,0,0,0-1-.19,1.8,1.8,0,0,0-1.42.57,2.89,2.89,0,0,0,0,3.25,1.8,1.8,0,0,0,1.42.57,2.6,2.6,0,0,0,1-.19,3.13,3.13,0,0,0,.91-.53l.51,1.22a3.34,3.34,0,0,1-1.15.64,4.74,4.74,0,0,1-1.46.23A3.83,3.83,0,0,1,519.68,182.62Z"/><path class="cls-5" d="M526.52,182.62a2.9,2.9,0,0,1-1.22-1.23,3.93,3.93,0,0,1-.42-1.86,3.82,3.82,0,0,1,.45-1.88,3.06,3.06,0,0,1,1.25-1.27,3.78,3.78,0,0,1,1.87-.45,4.65,4.65,0,0,1,1.43.23,3,3,0,0,1,1.11.63l-.51,1.23a3.23,3.23,0,0,0-.91-.53,2.73,2.73,0,0,0-1-.19,1.8,1.8,0,0,0-1.42.57,2.89,2.89,0,0,0,0,3.25,1.8,1.8,0,0,0,1.42.57,2.53,2.53,0,0,0,1-.19,3,3,0,0,0,.91-.53l.51,1.22a3.25,3.25,0,0,1-1.15.64,4.74,4.74,0,0,1-1.46.23A3.79,3.79,0,0,1,526.52,182.62Z"/><path class="cls-5" d="M538.38,176.1V183h-1.71v-1a2.18,2.18,0,0,1-.87.86,2.49,2.49,0,0,1-1.23.3c-1.68,0-2.52-.94-2.52-2.83V176.1h1.75v4.14a1.62,1.62,0,0,0,.3,1.08,1.1,1.1,0,0,0,.92.35,1.5,1.5,0,0,0,1.17-.48,1.84,1.84,0,0,0,.44-1.28V176.1Z"/><path class="cls-5" d="M544.71,177.39l-1,.1c-1.16.12-1.74.71-1.74,1.76V183H540.2V176.1h1.67v1.2a2.32,2.32,0,0,1,2.19-1.34l.54,0Z"/><path class="cls-5" d="M550.62,176.63a3,3,0,0,1,.7,2.16V183h-1.67v-1a1.87,1.87,0,0,1-.75.85,2.19,2.19,0,0,1-1.18.31,2.87,2.87,0,0,1-1.25-.28,2.2,2.2,0,0,1-.88-.77,2,2,0,0,1-.32-1.09,1.75,1.75,0,0,1,.38-1.19,2.34,2.34,0,0,1,1.26-.63,11.29,11.29,0,0,1,2.39-.2h.35v-.32a1.42,1.42,0,0,0-.3-1,1.39,1.39,0,0,0-1-.31,3.89,3.89,0,0,0-1.14.19A5.55,5.55,0,0,0,546,178l-.49-1.21a6,6,0,0,1,2.92-.84A3,3,0,0,1,550.62,176.63Zm-1.41,4.7a1.71,1.71,0,0,0,.44-1.21v-.3h-.25a9.08,9.08,0,0,0-1.46.09,1.38,1.38,0,0,0-.74.29.75.75,0,0,0-.22.58,1,1,0,0,0,.3.73,1.13,1.13,0,0,0,.79.29A1.51,1.51,0,0,0,549.21,181.33Z"/><path class="cls-5" d="M557.24,181.7l-.09,1.3a7.1,7.1,0,0,1-.77,0,2.94,2.94,0,0,1-2.12-.66,2.62,2.62,0,0,1-.69-2v-3h-1.32V176.1h1.32v-2h1.75v2h1.81v1.32h-1.81v3c0,.92.42,1.37,1.27,1.37A4.93,4.93,0,0,0,557.24,181.7Z"/><path class="cls-5" d="M564.27,179.84H559.6a2.14,2.14,0,0,0,.58,1.41,1.94,1.94,0,0,0,1.4.46,3.34,3.34,0,0,0,2.07-.72l.5,1.2a3.62,3.62,0,0,1-1.19.63,4.59,4.59,0,0,1-1.45.24,3.67,3.67,0,0,1-2.66-.95,3.53,3.53,0,0,1-1-2.61,4,4,0,0,1,.42-1.86,3.12,3.12,0,0,1,1.18-1.26,3.36,3.36,0,0,1,1.73-.45,2.89,2.89,0,0,1,2.24.91,3.65,3.65,0,0,1,.82,2.51Zm-4.14-2.23a2.19,2.19,0,0,0-.53,1.29h3.17a2,2,0,0,0-.42-1.29,1.37,1.37,0,0,0-1.09-.45A1.48,1.48,0,0,0,560.13,177.61Z"/><path class="cls-5" d="M511.13,194.19l-1,.1c-1.16.12-1.74.71-1.74,1.76v3.7h-1.75V192.9h1.67v1.2a2.32,2.32,0,0,1,2.2-1.34l.53,0Z"/><path class="cls-5" d="M517.85,196.64h-4.66a2.09,2.09,0,0,0,.57,1.41,2,2,0,0,0,1.4.46,3.3,3.3,0,0,0,2.07-.72l.51,1.2a3.78,3.78,0,0,1-1.2.63,4.54,4.54,0,0,1-1.45.24,3.64,3.64,0,0,1-2.65-1,3.49,3.49,0,0,1-1-2.61,4,4,0,0,1,.42-1.86,3.05,3.05,0,0,1,1.18-1.26,3.33,3.33,0,0,1,1.73-.45,2.88,2.88,0,0,1,2.23.91,3.6,3.6,0,0,1,.82,2.51Zm-4.14-2.23a2.18,2.18,0,0,0-.52,1.29h3.16a2,2,0,0,0-.42-1.29,1.36,1.36,0,0,0-1.09-.45A1.49,1.49,0,0,0,513.71,194.41Z"/><path class="cls-5" d="M524.79,193.18a2.92,2.92,0,0,1,1.07,1.27,4.3,4.3,0,0,1,.39,1.88,4.18,4.18,0,0,1-.39,1.86,2.84,2.84,0,0,1-2.65,1.67,2.77,2.77,0,0,1-1.3-.31,2.19,2.19,0,0,1-.88-.85v3.57h-1.75V192.9H521v1a2.07,2.07,0,0,1,.89-.89,2.74,2.74,0,0,1,1.32-.32A2.86,2.86,0,0,1,524.79,193.18Zm-.75,4.75a2.46,2.46,0,0,0,.46-1.6,2.59,2.59,0,0,0-.46-1.65,1.56,1.56,0,0,0-1.29-.59,1.58,1.58,0,0,0-1.3.57,3.2,3.2,0,0,0,0,3.27,1.76,1.76,0,0,0,2.59,0Z"/><path class="cls-5" d="M529,199.42a3,3,0,0,1-1.22-1.24,3.94,3.94,0,0,1-.44-1.89,3.87,3.87,0,0,1,.44-1.88,3,3,0,0,1,1.22-1.24,4.07,4.07,0,0,1,3.68,0,2.92,2.92,0,0,1,1.22,1.24,3.87,3.87,0,0,1,.43,1.88,3.93,3.93,0,0,1-.43,1.89,2.92,2.92,0,0,1-1.22,1.24,4.07,4.07,0,0,1-3.68,0Zm3.13-1.48a2.58,2.58,0,0,0,.45-1.65,2.62,2.62,0,0,0-.45-1.65,1.77,1.77,0,0,0-2.58,0,2.61,2.61,0,0,0-.46,1.65,2.58,2.58,0,0,0,.45,1.65,1.78,1.78,0,0,0,2.59,0Z"/><path class="cls-5" d="M540.25,194.19l-1,.1c-1.16.12-1.74.71-1.74,1.76v3.7h-1.75V192.9h1.67v1.2a2.32,2.32,0,0,1,2.2-1.34l.53,0Z"/><path class="cls-5" d="M545.88,198.5l-.09,1.3a7.1,7.1,0,0,1-.77,0,2.94,2.94,0,0,1-2.12-.66,2.62,2.62,0,0,1-.69-2v-3h-1.32V192.9h1.32v-2H544v2h1.81v1.32H544v2.95c0,.92.42,1.37,1.27,1.37A4.93,4.93,0,0,0,545.88,198.5Z"/><path class="cls-5" d="M546.8,189.72h1.93v1.72H546.8Zm.1,10V192.9h1.75v6.85Z"/><path class="cls-5" d="M556.27,193.43a3.19,3.19,0,0,1,.6,2.12v4.2h-1.75v-4.11a1.81,1.81,0,0,0-.3-1.16,1.17,1.17,0,0,0-1-.36,1.62,1.62,0,0,0-1.21.47,1.8,1.8,0,0,0-.45,1.28v3.88h-1.75V192.9h1.7v1a2.48,2.48,0,0,1,.94-.88,2.9,2.9,0,0,1,1.33-.31A2.3,2.3,0,0,1,556.27,193.43Z"/><path class="cls-5" d="M565.31,192.9v6.22a3.16,3.16,0,0,1-.89,2.43,3.73,3.73,0,0,1-2.62.83,6.57,6.57,0,0,1-1.73-.23,5,5,0,0,1-1.44-.65l.49-1.24a5,5,0,0,0,2.63.77,1.59,1.59,0,0,0,1.82-1.79v-.89a2.1,2.1,0,0,1-.89.88,2.72,2.72,0,0,1-1.35.32,3,3,0,0,1-1.59-.43,2.9,2.9,0,0,1-1.08-1.19,3.92,3.92,0,0,1-.39-1.78,4.09,4.09,0,0,1,.38-1.79,2.82,2.82,0,0,1,1.09-1.2,2.94,2.94,0,0,1,1.59-.43,2.83,2.83,0,0,1,1.35.32,2.07,2.07,0,0,1,.89.89v-1Zm-2.21,4.75a2.21,2.21,0,0,0,.47-1.5,2.19,2.19,0,0,0-.47-1.51,1.6,1.6,0,0,0-1.3-.55,1.63,1.63,0,0,0-1.31.55,2.63,2.63,0,0,0,0,3,1.83,1.83,0,0,0,2.61,0Z"/><path class="cls-5" d="M677.94,183v-8.39h-3.22v-1.48H683v1.48h-3.22V183Z"/><path class="cls-5" d="M689,179.84H684.3a2.09,2.09,0,0,0,.57,1.41,2,2,0,0,0,1.4.46,3.3,3.3,0,0,0,2.07-.72l.51,1.2a3.78,3.78,0,0,1-1.2.63,4.54,4.54,0,0,1-1.45.24,3.64,3.64,0,0,1-2.65-.95,3.49,3.49,0,0,1-1-2.61,4,4,0,0,1,.42-1.86,3.05,3.05,0,0,1,1.18-1.26,3.33,3.33,0,0,1,1.73-.45,2.88,2.88,0,0,1,2.23.91,3.6,3.6,0,0,1,.82,2.51Zm-4.14-2.23a2.18,2.18,0,0,0-.52,1.29h3.16a2,2,0,0,0-.42-1.29,1.36,1.36,0,0,0-1.09-.45A1.49,1.49,0,0,0,684.82,177.61Z"/><path class="cls-5" d="M691.23,182.83a3.8,3.8,0,0,1-1.29-.64l.49-1.22a4.15,4.15,0,0,0,2.51.8,1.64,1.64,0,0,0,.91-.2.62.62,0,0,0,.32-.56.55.55,0,0,0-.22-.47,2.13,2.13,0,0,0-.78-.31l-1.12-.25a2.75,2.75,0,0,1-1.41-.69,1.69,1.69,0,0,1-.46-1.23,1.86,1.86,0,0,1,.35-1.11,2.34,2.34,0,0,1,1-.75,3.76,3.76,0,0,1,1.48-.27,4.42,4.42,0,0,1,1.4.23,3.92,3.92,0,0,1,1.2.63l-.49,1.19a3.58,3.58,0,0,0-2.13-.77,1.6,1.6,0,0,0-.89.21.65.65,0,0,0-.33.58.61.61,0,0,0,.21.47,1.47,1.47,0,0,0,.65.28l1.16.26a3,3,0,0,1,1.5.71,1.9,1.9,0,0,1-.3,2.78,3.49,3.49,0,0,1-2.08.56A5.93,5.93,0,0,1,691.23,182.83Z"/><path class="cls-5" d="M701.25,181.7l-.08,1.3a7.23,7.23,0,0,1-.77,0,3,3,0,0,1-2.13-.66,2.62,2.62,0,0,1-.69-2v-3h-1.31V176.1h1.31v-2h1.75v2h1.81v1.32h-1.81v3c0,.92.43,1.37,1.28,1.37A4.78,4.78,0,0,0,701.25,181.7Z"/><path class="cls-5" d="M668.32,193.43a3,3,0,0,1,.7,2.16v4.16h-1.67V198.7a1.87,1.87,0,0,1-.75.85,2.28,2.28,0,0,1-1.18.31,2.87,2.87,0,0,1-1.25-.28,2.35,2.35,0,0,1-.88-.77,2,2,0,0,1-.32-1.09,1.75,1.75,0,0,1,.38-1.19,2.34,2.34,0,0,1,1.26-.63,11.29,11.29,0,0,1,2.39-.2h.35v-.32a1.42,1.42,0,0,0-.3-1,1.39,1.39,0,0,0-1-.31,3.89,3.89,0,0,0-1.14.19,5.55,5.55,0,0,0-1.17.53l-.49-1.21a6,6,0,0,1,2.92-.84A2.91,2.91,0,0,1,668.32,193.43Zm-1.41,4.7a1.71,1.71,0,0,0,.44-1.21v-.3h-.25a9.08,9.08,0,0,0-1.46.09,1.38,1.38,0,0,0-.74.29.75.75,0,0,0-.22.58,1,1,0,0,0,.3.73,1.13,1.13,0,0,0,.79.29A1.49,1.49,0,0,0,666.91,198.13Z"/><path class="cls-5" d="M676.6,193.43a3.14,3.14,0,0,1,.61,2.12v4.2h-1.75v-4.11a1.81,1.81,0,0,0-.3-1.16,1.19,1.19,0,0,0-.95-.36,1.62,1.62,0,0,0-1.21.47,1.81,1.81,0,0,0-.46,1.28v3.88h-1.75V192.9h1.71v1a2.48,2.48,0,0,1,.94-.88,2.9,2.9,0,0,1,1.33-.31A2.27,2.27,0,0,1,676.6,193.43Z"/><path class="cls-5" d="M684.07,193.43a3,3,0,0,1,.7,2.16v4.16H683.1V198.7a1.87,1.87,0,0,1-.75.85,2.28,2.28,0,0,1-1.18.31,2.87,2.87,0,0,1-1.25-.28,2.35,2.35,0,0,1-.88-.77,2,2,0,0,1-.32-1.09,1.75,1.75,0,0,1,.38-1.19,2.34,2.34,0,0,1,1.26-.63,11.29,11.29,0,0,1,2.39-.2h.35v-.32a1.42,1.42,0,0,0-.3-1,1.39,1.39,0,0,0-1-.31,3.89,3.89,0,0,0-1.14.19,5.55,5.55,0,0,0-1.17.53l-.49-1.21a6,6,0,0,1,2.92-.84A2.91,2.91,0,0,1,684.07,193.43Zm-1.41,4.7a1.71,1.71,0,0,0,.44-1.21v-.3h-.25a9.08,9.08,0,0,0-1.46.09,1.38,1.38,0,0,0-.74.29.75.75,0,0,0-.22.58,1,1,0,0,0,.3.73,1.13,1.13,0,0,0,.79.29A1.49,1.49,0,0,0,682.66,198.13Z"/><path class="cls-5" d="M686.54,199.75v-9.87h1.75v9.87Z"/><path class="cls-5" d="M694.9,192.91h1.72l-4.11,9.36h-1.77l1.25-2.79-2.86-6.57H691l1.93,4.83Z"/><path class="cls-5" d="M698.21,199.63a3.71,3.71,0,0,1-1.29-.64l.49-1.22a4.14,4.14,0,0,0,2.5.8,1.74,1.74,0,0,0,.92-.2.62.62,0,0,0,.32-.56.57.57,0,0,0-.22-.47,2.21,2.21,0,0,0-.78-.31l-1.12-.25a2.75,2.75,0,0,1-1.41-.69,1.69,1.69,0,0,1-.46-1.23,1.86,1.86,0,0,1,.35-1.11,2.2,2.2,0,0,1,1-.75,3.71,3.71,0,0,1,1.47-.27,4.43,4.43,0,0,1,1.41.23,4,4,0,0,1,1.2.63l-.49,1.19A3.58,3.58,0,0,0,700,194a1.66,1.66,0,0,0-.9.21.66.66,0,0,0-.32.58.61.61,0,0,0,.21.47,1.47,1.47,0,0,0,.65.28l1.16.26a3,3,0,0,1,1.5.71,1.75,1.75,0,0,1,.47,1.27,1.77,1.77,0,0,1-.77,1.51,3.49,3.49,0,0,1-2.08.56A5.93,5.93,0,0,1,698.21,199.63Z"/><path class="cls-5" d="M704.06,189.72H706v1.72h-1.93Zm.1,10V192.9h1.75v6.85Z"/><path class="cls-5" d="M708.56,199.63a3.86,3.86,0,0,1-1.3-.64l.49-1.22a4.17,4.17,0,0,0,2.51.8,1.77,1.77,0,0,0,.92-.2.61.61,0,0,0,.31-.56.57.57,0,0,0-.21-.47,2.3,2.3,0,0,0-.78-.31l-1.12-.25a2.74,2.74,0,0,1-1.42-.69,1.73,1.73,0,0,1-.46-1.23,1.8,1.8,0,0,1,.36-1.11,2.22,2.22,0,0,1,1-.75,3.79,3.79,0,0,1,1.48-.27,4.48,4.48,0,0,1,1.41.23,3.86,3.86,0,0,1,1.19.63l-.49,1.19a3.55,3.55,0,0,0-2.12-.77,1.62,1.62,0,0,0-.9.21.66.66,0,0,0-.32.58.63.63,0,0,0,.2.47,1.52,1.52,0,0,0,.65.28l1.16.26a3,3,0,0,1,1.5.71,1.71,1.71,0,0,1,.48,1.27,1.79,1.79,0,0,1-.77,1.51,3.52,3.52,0,0,1-2.09.56A5.91,5.91,0,0,1,708.56,199.63Z"/><path class="cls-6" d="M265.18,29V16.27h8.75v2.18h-6v3h5.66V23.6h-5.66v3.19h6V29Z"/><path class="cls-6" d="M282.15,22.54,287,29h-3.27l-3.15-4.37L277.4,29h-3.26L279,22.54l-4.71-6.27h3.26l3,4.22,3.06-4.22h3.26Z"/><path class="cls-6" d="M290.06,28.32A5.5,5.5,0,0,1,287.87,26a7.31,7.31,0,0,1-.77-3.42,7.31,7.31,0,0,1,.77-3.42,5.47,5.47,0,0,1,2.19-2.28,6.82,6.82,0,0,1,3.36-.8,7.47,7.47,0,0,1,2.41.39,5.23,5.23,0,0,1,1.89,1.07l-.9,2a6,6,0,0,0-1.65-.92,5.1,5.1,0,0,0-1.7-.29,3.22,3.22,0,0,0-2.6,1.08,4.85,4.85,0,0,0-.91,3.17,4.9,4.9,0,0,0,.91,3.18,3.23,3.23,0,0,0,2.6,1.09,5.1,5.1,0,0,0,1.7-.29,6,6,0,0,0,1.65-.92l.9,2a5.09,5.09,0,0,1-1.89,1.07,7.47,7.47,0,0,1-2.41.39A6.71,6.71,0,0,1,290.06,28.32Z"/><path class="cls-6" d="M299.66,29V16.27h8.75v2.18h-6v3h5.65V23.6H302.4v3.19h6V29Z"/><path class="cls-6" d="M310.34,29V16.27h2.81V26.68h5.67V29Z"/><path class="cls-6" d="M320.47,29V16.27h2.81V26.68H329V29Z"/><path class="cls-6" d="M330.61,29V16.27h8.74v2.18h-6v3H339V23.6h-5.65v3.19h6V29Z"/><path class="cls-6" d="M349.67,16.27h2.63V29h-2.09l-6.32-8.08V29h-2.61V16.27h2.07l6.32,8.05Z"/><path class="cls-6" d="M357.75,29V18.56h-4V16.27h10.77v2.29h-4V29Z"/><path class="cls-6" d="M380.72,29l-1.21-2.8h-5.9L372.4,29h-2.82l5.83-12.69h2.25L383.49,29ZM374.53,24h4.06l-2-4.75Z"/><path class="cls-6" d="M384.55,16.27h5.83a4.63,4.63,0,0,1,3.23,1.05,3.75,3.75,0,0,1,1.15,2.91,3.76,3.76,0,0,1-1.15,2.92,4.63,4.63,0,0,1-3.23,1.05h-3V29h-2.81Zm5.47,5.8c1.41,0,2.11-.61,2.11-1.82a1.72,1.72,0,0,0-.52-1.38,2.39,2.39,0,0,0-1.59-.45h-2.66v3.65Z"/><path class="cls-6" d="M396.58,16.27h5.83a4.61,4.61,0,0,1,3.22,1.05,3.72,3.72,0,0,1,1.15,2.91,3.72,3.72,0,0,1-1.15,2.92,4.61,4.61,0,0,1-3.22,1.05h-3V29h-2.8Zm5.47,5.8c1.4,0,2.1-.61,2.1-1.82a1.72,1.72,0,0,0-.52-1.38,2.36,2.36,0,0,0-1.58-.45h-2.67v3.65Z"/><path class="cls-6" d="M408.6,29V16.27h2.81V26.68h5.67V29Z"/><path class="cls-6" d="M418.73,29V16.27h2.81V29Z"/><path class="cls-6" d="M426.66,28.32A5.5,5.5,0,0,1,424.47,26a7.31,7.31,0,0,1-.77-3.42,7.31,7.31,0,0,1,.77-3.42,5.47,5.47,0,0,1,2.19-2.28,6.82,6.82,0,0,1,3.36-.8,7.47,7.47,0,0,1,2.41.39,5.23,5.23,0,0,1,1.89,1.07l-.9,2a6,6,0,0,0-1.65-.92,5.1,5.1,0,0,0-1.7-.29,3.22,3.22,0,0,0-2.6,1.08,4.85,4.85,0,0,0-.91,3.17,4.9,4.9,0,0,0,.91,3.18,3.23,3.23,0,0,0,2.6,1.09,5.1,5.1,0,0,0,1.7-.29,6,6,0,0,0,1.65-.92l.9,2a5.09,5.09,0,0,1-1.89,1.07,7.47,7.47,0,0,1-2.41.39A6.71,6.71,0,0,1,426.66,28.32Z"/><path class="cls-6" d="M445.77,29l-1.21-2.8h-5.9L437.45,29h-2.82l5.83-12.69h2.25L448.54,29ZM439.58,24h4.07l-2-4.75Z"/><path class="cls-6" d="M450.92,29V18.56h-4V16.27H457.7v2.29h-4V29Z"/><path class="cls-6" d="M459.18,29V16.27H462V29Z"/><path class="cls-6" d="M467.05,28.33a5.48,5.48,0,0,1-2.15-2.27,7.5,7.5,0,0,1-.75-3.45,7.5,7.5,0,0,1,.75-3.45,5.37,5.37,0,0,1,2.15-2.25,7.14,7.14,0,0,1,6.57,0,5.31,5.31,0,0,1,2.15,2.25,7.37,7.37,0,0,1,.76,3.45,7.37,7.37,0,0,1-.76,3.45,5.42,5.42,0,0,1-2.15,2.27,7.14,7.14,0,0,1-6.57,0Zm5.78-2.5a5,5,0,0,0,.91-3.22,5,5,0,0,0-.9-3.21,3,3,0,0,0-2.5-1.11,3,3,0,0,0-2.49,1.11,5,5,0,0,0-.9,3.21,5,5,0,0,0,.9,3.22,3.33,3.33,0,0,0,5,0Z"/><path class="cls-6" d="M487.06,16.27h2.63V29H487.6l-6.32-8.08V29h-2.61V16.27h2.07l6.32,8.05Z"/></g></g></svg>