<svg xmlns="http://www.w3.org/2000/svg" width="1239.6" height="447.37" viewBox="0 0 1239.6 447.37"><defs><style>.cls-1{fill:#fff;}.cls-2{fill:#2e383d;}.cls-3{opacity:0.1;isolation:isolate;}.cls-4{fill:#005688;}.cls-5{opacity:0.38;}.cls-6{fill:#677f93;}.cls-7{fill:#f55;}</style></defs><title>Desktop</title><g id="Слой_2" data-name="Слой 2"><g id="Слой_1-2" data-name="Слой 1"><path class="cls-1" d="M823.3,430.27a5,5,0,0,1-1.72-.83l.7-1.55a5.49,5.49,0,0,0,3.2,1,2.82,2.82,0,0,0,1.43-.3.93.93,0,0,0,.49-.83A.84.84,0,0,0,827,427a6.73,6.73,0,0,0-1.62-.51,8.69,8.69,0,0,1-2.08-.65,2.68,2.68,0,0,1-1.13-.93,2.44,2.44,0,0,1-.36-1.36,2.71,2.71,0,0,1,.5-1.6,3.29,3.29,0,0,1,1.39-1.1,5.16,5.16,0,0,1,2.07-.4,6.89,6.89,0,0,1,2,.31,4.16,4.16,0,0,1,1.54.83l-.7,1.55a4.74,4.74,0,0,0-2.85-1,2.41,2.41,0,0,0-1.35.33,1,1,0,0,0-.49.9.78.78,0,0,0,.19.55,1.55,1.55,0,0,0,.63.39,10,10,0,0,0,1.25.35,6.91,6.91,0,0,1,2.74,1.08,2.16,2.16,0,0,1,.83,1.82,2.62,2.62,0,0,1-1.07,2.2,4.94,4.94,0,0,1-3,.81A7.72,7.72,0,0,1,823.3,430.27Z"/><path class="cls-1" d="M831.11,420.58h4.54a3.58,3.58,0,0,1,2.5.81,3.31,3.31,0,0,1,0,4.54,3.58,3.58,0,0,1-2.5.81H833.3v3.71h-2.19Zm4.26,4.51c1.09,0,1.64-.47,1.64-1.42a1.34,1.34,0,0,0-.41-1.07,1.81,1.81,0,0,0-1.23-.35H833.3v2.84Z"/><path class="cls-1" d="M849,430.45h-2.38l-1.71-3.15a1.35,1.35,0,0,0-.5-.53,1.62,1.62,0,0,0-.74-.16h-1.08v3.84h-2.16v-9.87H845a3.9,3.9,0,0,1,2.62.76,2.74,2.74,0,0,1,.89,2.21,2.81,2.81,0,0,1-.62,1.87,3,3,0,0,1-1.76,1,2.18,2.18,0,0,1,1.31,1.1Zm-3-5.82a1.22,1.22,0,0,0,.42-1,1.21,1.21,0,0,0-.42-1,2.23,2.23,0,0,0-1.36-.32h-2.09V425h2.09A2.23,2.23,0,0,0,846,424.63Z"/><path class="cls-1" d="M850.28,430.45v-9.87h2.18v9.87Z"/><path class="cls-1" d="M861,420.58h2v9.87h-1.62l-4.92-6.29v6.29h-2v-9.87H856l4.92,6.26Z"/><path class="cls-1" d="M867.23,430.45v-8.09h-3.09v-1.78h8.37v1.78h-3.09v8.09Z"/><path class="cls-1" d="M882.37,428.7h2.12v1.75h-6.44V428.7h2.13V423l-1.68,1-.82-1.57,3.13-1.83h1.56Z"/><path class="cls-1" d="M885.89,427.52v-1.65h4.33v1.65Z"/><path class="cls-1" d="M898.65,420.58h2v9.87h-1.62l-4.92-6.29v6.29h-2v-9.87h1.61l4.92,6.26Z"/><path class="cls-1" d="M830,447.25h-2.38l-1.71-3.15a1.43,1.43,0,0,0-.5-.53,1.67,1.67,0,0,0-.75-.16h-1.07v3.84h-2.16v-9.87H826a3.92,3.92,0,0,1,2.62.76,2.77,2.77,0,0,1,.89,2.21,2.87,2.87,0,0,1-.62,1.87,3,3,0,0,1-1.76,1,2.17,2.17,0,0,1,1.3,1.1Zm-3-5.82a1.22,1.22,0,0,0,.42-1,1.21,1.21,0,0,0-.42-1,2.21,2.21,0,0,0-1.36-.33h-2.08v2.72h2.08A2.21,2.21,0,0,0,827,441.43Z"/><path class="cls-1" d="M831.27,447.25v-9.87h6.81v1.69H833.4v2.31h4.4v1.7h-4.4v2.47h4.68v1.7Z"/><path class="cls-1" d="M839.58,437.38h4.53a3.62,3.62,0,0,1,2.51.81,3.34,3.34,0,0,1,0,4.54,3.62,3.62,0,0,1-2.51.81h-2.35v3.71h-2.18Zm4.25,4.51c1.09,0,1.64-.47,1.64-1.42a1.34,1.34,0,0,0-.41-1.07,1.81,1.81,0,0,0-1.23-.36h-2.07v2.85Z"/><path class="cls-1" d="M850.91,446.75a4.12,4.12,0,0,1-1.67-1.76,6.38,6.38,0,0,1,0-5.36,4.12,4.12,0,0,1,1.67-1.76,5.07,5.07,0,0,1,2.55-.62,5.13,5.13,0,0,1,2.56.62,4.18,4.18,0,0,1,1.67,1.76,6.38,6.38,0,0,1,0,5.36,4.18,4.18,0,0,1-1.67,1.76,5,5,0,0,1-2.56.62A5,5,0,0,1,850.91,446.75Zm4.49-1.94a4.79,4.79,0,0,0,0-5,2.63,2.63,0,0,0-3.89,0,4.84,4.84,0,0,0,0,5,2.59,2.59,0,0,0,3.87,0Z"/><path class="cls-1" d="M868.51,447.25h-2.38l-1.71-3.15a1.35,1.35,0,0,0-.5-.53,1.62,1.62,0,0,0-.74-.16H862.1v3.84h-2.16v-9.87h4.54a4,4,0,0,1,2.63.76,2.76,2.76,0,0,1,.88,2.21,2.81,2.81,0,0,1-.62,1.87,3,3,0,0,1-1.76,1,2.18,2.18,0,0,1,1.31,1.1Zm-3-5.82a1.22,1.22,0,0,0,.42-1,1.21,1.21,0,0,0-.42-1,2.23,2.23,0,0,0-1.36-.33h-2.09v2.72h2.09A2.23,2.23,0,0,0,865.52,441.43Z"/><path class="cls-1" d="M871.76,447.25v-8.09h-3.09v-1.78H877v1.78h-3.1v8.09Z"/><path class="cls-1" d="M878.19,447.25v-9.87h2.18v9.87Z"/><path class="cls-1" d="M888.85,437.38h2v9.87h-1.63L884.36,441v6.29h-2v-9.87h1.61l4.91,6.26Z"/><path class="cls-1" d="M901.34,441.8v4.83a6.5,6.5,0,0,1-1.68.55,10,10,0,0,1-2,.19,5.76,5.76,0,0,1-2.71-.6,4.27,4.27,0,0,1-1.77-1.75,5.65,5.65,0,0,1-.61-2.71,5.55,5.55,0,0,1,.61-2.68,4.16,4.16,0,0,1,1.74-1.76,5.49,5.49,0,0,1,2.65-.62,6.32,6.32,0,0,1,2,.3,4.24,4.24,0,0,1,1.52.81l-.69,1.55a5.09,5.09,0,0,0-1.34-.7,4.24,4.24,0,0,0-1.4-.22c-1.91,0-2.86,1.1-2.86,3.32a3.8,3.8,0,0,0,.74,2.55,2.84,2.84,0,0,0,2.24.84,6.77,6.77,0,0,0,1.61-.21v-2.17h-1.93V441.8Z"/><rect class="cls-2" x="0.04" width="145.36" height="154.81" rx="5"/><g class="cls-3"><path d="M909.2,161.25l-11.12-11.13V5a5,5,0,0,0-5-5H169.75a5,5,0,0,0-5,5V321.73a5,5,0,0,0,5,5H893.08a5,5,0,0,0,5-5V176.61l11.12-11.12A3,3,0,0,0,909.2,161.25Z"/></g><g class="cls-3"><path d="M1106.39,161.25l-11-11V5a5,5,0,0,0-5-5H927.34a5,5,0,0,0-5,5V321.73a5,5,0,0,0,5,5h163.07a5,5,0,0,0,5-5V176.47l11-11A3,3,0,0,0,1106.39,161.25Z"/></g><g class="cls-3"><path d="M156.5,247.67l-11.14-11.14V178a5,5,0,0,0-5-5H5a5,5,0,0,0-5,5V321.54a5,5,0,0,0,5,5H140.36a5,5,0,0,0,5-5V263l11.14-11.13A3,3,0,0,0,156.5,247.67Z"/></g><rect class="cls-4" x="194.59" y="29.95" width="158.25" height="266.83"/><rect class="cls-4" x="382.84" y="29.95" width="485.25" height="266.83"/><g id="_1-4" data-name=" 1-4" class="cls-5"><polygon class="cls-6" points="332.72 94.14 214.72 94.14 214.72 95.14 332.72 95.14 332.72 94.14 332.72 94.14"/></g><g id="_1-4-2" data-name=" 1-4" class="cls-5"><polygon class="cls-6" points="847.17 94.14 402.18 94.14 402.18 95.14 847.17 95.14 847.17 94.14 847.17 94.14"/></g><g class="cls-3"><path class="cls-1" d="M533.68,162l-11.14-11.14v-30.5a5,5,0,0,0-5-5H407.17a5,5,0,0,0-5,5V271.87a5,5,0,0,0,5,5H517.54a5,5,0,0,0,5-5V177.38l11.14-11.14A3,3,0,0,0,533.68,162Z"/></g><path class="cls-1" d="M419,134h-2.87v-1h7v1h-2.89v8.4H419Z"/><path class="cls-1" d="M423.82,139.2a2.17,2.17,0,0,0,2.32,2.35,4.41,4.41,0,0,0,1.88-.35l.21.88a5.43,5.43,0,0,1-2.26.42,3.15,3.15,0,0,1-3.33-3.41c0-2.05,1.21-3.66,3.18-3.66,2.21,0,2.8,1.95,2.8,3.19,0,.25,0,.45,0,.58Zm3.61-.88a1.75,1.75,0,0,0-1.71-2,2.05,2.05,0,0,0-1.89,2Z"/><path class="cls-1" d="M430,141.1a3.2,3.2,0,0,0,1.62.49c.9,0,1.32-.45,1.32-1s-.35-.91-1.26-1.24c-1.22-.44-1.8-1.11-1.8-1.92a2.1,2.1,0,0,1,2.34-2,3.44,3.44,0,0,1,1.67.42l-.31.9a2.57,2.57,0,0,0-1.38-.4c-.73,0-1.14.42-1.14.93s.41.81,1.29,1.15c1.18.44,1.78,1,1.78,2,0,1.19-.93,2-2.54,2a3.84,3.84,0,0,1-1.9-.46Z"/><path class="cls-1" d="M437.17,133.64v1.94h1.77v.94h-1.77v3.66c0,.84.24,1.32.93,1.32a2.73,2.73,0,0,0,.71-.09l.06.92a3,3,0,0,1-1.09.17,1.71,1.71,0,0,1-1.33-.51,2.53,2.53,0,0,1-.48-1.77v-3.7h-1.05v-.94H436V134Z"/><path class="cls-1" d="M441.7,133.68a.77.77,0,0,1-1.53,0,.75.75,0,0,1,.77-.77A.73.73,0,0,1,441.7,133.68Zm-1.38,8.68v-6.78h1.24v6.78Z"/><path class="cls-1" d="M443.6,137.42c0-.7,0-1.28-.06-1.84h1.1l.06,1.12h0a2.5,2.5,0,0,1,2.24-1.27c.94,0,2.4.56,2.4,2.89v4h-1.23v-3.9c0-1.1-.41-2-1.57-2a1.76,1.76,0,0,0-1.65,1.26,1.72,1.72,0,0,0-.09.58v4.07H443.6Z"/><path class="cls-1" d="M457.21,135.58c0,.49-.06,1-.06,1.87v3.93c0,1.56-.3,2.51-1,3.1a3.63,3.63,0,0,1-2.47.81,4.39,4.39,0,0,1-2.25-.56l.3-.94a3.84,3.84,0,0,0,2,.53c1.26,0,2.19-.65,2.19-2.36v-.76h0a2.43,2.43,0,0,1-2.16,1.13,3,3,0,0,1-2.88-3.3c0-2.3,1.5-3.6,3.05-3.6a2.27,2.27,0,0,1,2.12,1.18h0l.05-1Zm-1.28,2.68a2,2,0,0,0-.06-.56,1.78,1.78,0,0,0-1.73-1.3c-1.17,0-2,1-2,2.56,0,1.33.68,2.44,2,2.44a1.82,1.82,0,0,0,1.71-1.26,2.15,2.15,0,0,0,.09-.66Z"/><path class="cls-1" d="M417.17,154.5c0-.8,0-1.49-.06-2.12h1.08l0,1.33h.06a2,2,0,0,1,1.87-1.48,1.25,1.25,0,0,1,.35,0v1.16a2.39,2.39,0,0,0-.42,0,1.74,1.74,0,0,0-1.65,1.58,3.39,3.39,0,0,0-.05.58v3.61h-1.22Z"/><path class="cls-1" d="M422.29,156a2.17,2.17,0,0,0,2.33,2.35,4.36,4.36,0,0,0,1.87-.35l.21.88a5.38,5.38,0,0,1-2.25.42,3.15,3.15,0,0,1-3.34-3.41c0-2,1.21-3.66,3.18-3.66,2.22,0,2.81,2,2.81,3.19a3.66,3.66,0,0,1-.05.58Zm3.62-.88a1.77,1.77,0,0,0-1.71-2,2,2,0,0,0-1.89,2Z"/><path class="cls-1" d="M433.24,158.11h0a2.4,2.4,0,0,1-2.21,1.21c-1.58,0-2.87-1.38-2.87-3.43,0-2.54,1.64-3.66,3.07-3.66a2.21,2.21,0,0,1,2.08,1.18h0l0-1h1.17c0,.58,0,1.17,0,1.87v7.69h-1.23Zm0-3a2.19,2.19,0,0,0-.05-.52,1.81,1.81,0,0,0-1.77-1.4c-1.27,0-2,1.08-2,2.61,0,1.34.64,2.52,2,2.52a1.83,1.83,0,0,0,1.76-1.35,1.92,1.92,0,0,0,.1-.59Z"/><path class="cls-1" d="M442.17,157.31c0,.7,0,1.32.06,1.85h-1.09l-.07-1.1h0a2.56,2.56,0,0,1-2.24,1.26c-1.07,0-2.34-.59-2.34-3v-4h1.23v3.76c0,1.29.39,2.15,1.51,2.15a1.73,1.73,0,0,0,1.74-1.75v-4.16h1.23Z"/><path class="cls-1" d="M445.59,150.48a.77.77,0,0,1-1.53,0,.75.75,0,0,1,.77-.77A.73.73,0,0,1,445.59,150.48Zm-1.38,8.68v-6.78h1.24v6.78Z"/><path class="cls-1" d="M447.49,154.5c0-.8,0-1.49-.06-2.12h1.08l.05,1.33h.05a2,2,0,0,1,1.88-1.48,1.25,1.25,0,0,1,.35,0v1.16a2.5,2.5,0,0,0-.42,0,1.72,1.72,0,0,0-1.65,1.58,3.34,3.34,0,0,0-.06.58v3.61h-1.22Z"/><path class="cls-1" d="M452.62,156a2.17,2.17,0,0,0,2.32,2.35,4.45,4.45,0,0,0,1.88-.35l.21.88a5.47,5.47,0,0,1-2.26.42,3.14,3.14,0,0,1-3.33-3.41c0-2,1.2-3.66,3.18-3.66,2.21,0,2.8,2,2.8,3.19,0,.25,0,.45,0,.58Zm3.61-.88a1.76,1.76,0,0,0-1.71-2,2,2,0,0,0-1.89,2Z"/><path class="cls-1" d="M458.94,154.22c0-.7,0-1.28-.05-1.84H460l.06,1.1h0a2.33,2.33,0,0,1,2.13-1.25,2,2,0,0,1,1.92,1.36h0a2.77,2.77,0,0,1,.76-.88,2.28,2.28,0,0,1,1.49-.48c.9,0,2.23.59,2.23,2.94v4h-1.2v-3.83c0-1.31-.48-2.09-1.47-2.09a1.6,1.6,0,0,0-1.46,1.12,1.9,1.9,0,0,0-.1.61v4.19h-1.2V155.1c0-1.08-.48-1.86-1.42-1.86a1.66,1.66,0,0,0-1.52,1.23,1.68,1.68,0,0,0-.1.6v4.09h-1.21Z"/><path class="cls-1" d="M471.31,156a2.17,2.17,0,0,0,2.32,2.35,4.45,4.45,0,0,0,1.88-.35l.21.88a5.47,5.47,0,0,1-2.26.42,3.14,3.14,0,0,1-3.33-3.41c0-2,1.2-3.66,3.18-3.66,2.21,0,2.8,2,2.8,3.19,0,.25,0,.45,0,.58Zm3.61-.88a1.76,1.76,0,0,0-1.71-2,2,2,0,0,0-1.89,2Z"/><path class="cls-1" d="M477.63,154.22c0-.7,0-1.28-.05-1.84h1.09l.07,1.12h0a2.49,2.49,0,0,1,2.24-1.27c.94,0,2.39.56,2.39,2.89v4h-1.23v-3.91c0-1.09-.41-2-1.57-2a1.76,1.76,0,0,0-1.65,1.26,1.73,1.73,0,0,0-.08.58v4.07h-1.24Z"/><path class="cls-1" d="M486.83,150.44v1.94h1.77v.94h-1.77V157c0,.84.24,1.31.93,1.31a2.82,2.82,0,0,0,.71-.08l.06.92a3,3,0,0,1-1.1.17,1.74,1.74,0,0,1-1.33-.51,2.53,2.53,0,0,1-.47-1.77v-3.7h-1.05v-.94h1.05v-1.62Z"/><path class="cls-1" d="M489.81,157.9a3.24,3.24,0,0,0,1.63.49c.89,0,1.31-.45,1.31-1s-.35-.91-1.26-1.24c-1.22-.44-1.79-1.11-1.79-1.92a2.09,2.09,0,0,1,2.34-2,3.44,3.44,0,0,1,1.67.42l-.31.9a2.64,2.64,0,0,0-1.39-.4c-.73,0-1.13.42-1.13.93s.4.81,1.28,1.15c1.18.44,1.78,1,1.78,2,0,1.19-.92,2-2.53,2a3.91,3.91,0,0,1-1.91-.46Z"/><path class="cls-1" d="M417.29,176v-5.84h-1v-.94h1v-.32a3.19,3.19,0,0,1,.79-2.37,2.39,2.39,0,0,1,1.65-.63,2.83,2.83,0,0,1,1,.2l-.17.95a1.88,1.88,0,0,0-.78-.15c-1.05,0-1.32.92-1.32,2v.36h1.64v.94h-1.64V176Z"/><path class="cls-1" d="M427.21,172.52a3.32,3.32,0,0,1-3.38,3.6,3.23,3.23,0,0,1-3.25-3.49,3.31,3.31,0,0,1,3.36-3.6A3.21,3.21,0,0,1,427.21,172.52Zm-5.38.07c0,1.48.85,2.6,2.06,2.6s2.06-1.1,2.06-2.63c0-1.15-.58-2.61-2-2.61S421.83,171.3,421.83,172.59Z"/><path class="cls-1" d="M428.76,171.3c0-.8,0-1.49-.06-2.12h1.08l0,1.33h.06a2,2,0,0,1,1.88-1.48,1.29,1.29,0,0,1,.35,0v1.16a2.61,2.61,0,0,0-.42,0,1.74,1.74,0,0,0-1.66,1.58,4.83,4.83,0,0,0,0,.58V176h-1.22Z"/><path class="cls-1" d="M437.79,167.24v1.94h1.76v.94h-1.76v3.66c0,.84.24,1.31.92,1.31a2.91,2.91,0,0,0,.72-.08l.05.92a2.91,2.91,0,0,1-1.09.17,1.71,1.71,0,0,1-1.33-.52,2.49,2.49,0,0,1-.48-1.76v-3.7h-1.05v-.94h1.05v-1.62Z"/><path class="cls-1" d="M440.94,166h1.23v4.23h0a2.3,2.3,0,0,1,.88-.87,2.56,2.56,0,0,1,1.26-.35c.91,0,2.37.56,2.37,2.9v4h-1.23v-3.89c0-1.09-.41-2-1.57-2a1.76,1.76,0,0,0-1.65,1.23,1.5,1.5,0,0,0-.09.59V176h-1.23Z"/><path class="cls-1" d="M449.39,172.8a2.18,2.18,0,0,0,2.33,2.35,4.45,4.45,0,0,0,1.88-.35l.21.88a5.47,5.47,0,0,1-2.26.42,3.14,3.14,0,0,1-3.33-3.41c0-2.05,1.2-3.66,3.18-3.66,2.21,0,2.8,1.95,2.8,3.19,0,.25,0,.45,0,.58Zm3.62-.88a1.76,1.76,0,0,0-1.71-2,2,2,0,0,0-1.89,2Z"/><path class="cls-1" d="M458.52,174.7a3.24,3.24,0,0,0,1.63.49c.89,0,1.31-.45,1.31-1s-.35-.91-1.26-1.24c-1.22-.44-1.79-1.11-1.79-1.92a2.09,2.09,0,0,1,2.34-2,3.44,3.44,0,0,1,1.67.42l-.31.9a2.64,2.64,0,0,0-1.39-.4c-.73,0-1.13.42-1.13.93s.4.81,1.29,1.15c1.17.44,1.77,1,1.77,2,0,1.19-.92,2-2.53,2a3.91,3.91,0,0,1-1.91-.46Z"/><path class="cls-1" d="M464.23,171.4c0-.87,0-1.57-.05-2.22h1.11l0,1.17h0a2.65,2.65,0,0,1,2.41-1.32c1.64,0,2.87,1.39,2.87,3.44,0,2.44-1.49,3.65-3.08,3.65a2.39,2.39,0,0,1-2.09-1.07h0v3.69h-1.22Zm1.22,1.8a2.64,2.64,0,0,0,.06.51,1.9,1.9,0,0,0,1.85,1.44c1.3,0,2.06-1.06,2.06-2.62,0-1.36-.72-2.52-2-2.52a2,2,0,0,0-1.86,1.53,2,2,0,0,0-.09.5Z"/><path class="cls-1" d="M472.2,171.3c0-.8,0-1.49-.06-2.12h1.08l0,1.33h.06A2,2,0,0,1,475.2,169a1.25,1.25,0,0,1,.35,0v1.16a2.5,2.5,0,0,0-.42,0,1.74,1.74,0,0,0-1.66,1.58,4.83,4.83,0,0,0-.05.58V176H472.2Z"/><path class="cls-1" d="M478.21,167.28a.77.77,0,0,1-1.53,0,.75.75,0,0,1,.77-.77A.73.73,0,0,1,478.21,167.28ZM476.83,176v-6.78h1.24V176Z"/><path class="cls-1" d="M480.11,171c0-.7,0-1.28-.06-1.84h1.1l.07,1.12h0a2.52,2.52,0,0,1,2.25-1.27c.93,0,2.39.56,2.39,2.89v4h-1.23v-3.91c0-1.09-.41-2-1.57-2a1.76,1.76,0,0,0-1.65,1.26,1.72,1.72,0,0,0-.09.58V176h-1.23Z"/><path class="cls-1" d="M489.31,167.24v1.94h1.76v.94h-1.76v3.66c0,.84.24,1.31.92,1.31A2.91,2.91,0,0,0,491,175l.05.92a2.91,2.91,0,0,1-1.09.17,1.69,1.69,0,0,1-1.33-.52,2.49,2.49,0,0,1-.48-1.76v-3.7h-1.05v-.94h1.05v-1.62Z"/><path class="cls-1" d="M423.81,201.05a6,6,0,0,1-2.5.45,4.41,4.41,0,0,1-4.66-4.77,4.7,4.7,0,0,1,4.93-5,5,5,0,0,1,2.24.42l-.29,1a4.54,4.54,0,0,0-1.91-.39c-2.21,0-3.68,1.42-3.68,3.89,0,2.32,1.33,3.8,3.63,3.8a4.81,4.81,0,0,0,2-.39Z"/><path class="cls-1" d="M425.29,191.42h1.23v4.23h0a2.23,2.23,0,0,1,.88-.87,2.53,2.53,0,0,1,1.26-.35c.91,0,2.37.56,2.37,2.9v4h-1.23v-3.89c0-1.09-.41-2-1.57-2a1.79,1.79,0,0,0-1.66,1.23,1.53,1.53,0,0,0-.08.59v4.09h-1.23Z"/><path class="cls-1" d="M433.74,198.2a2.18,2.18,0,0,0,2.33,2.35,4.45,4.45,0,0,0,1.88-.35l.21.88a5.47,5.47,0,0,1-2.26.42,3.14,3.14,0,0,1-3.33-3.41c0-2.05,1.2-3.66,3.18-3.66,2.21,0,2.8,1.95,2.8,3.19,0,.25,0,.45,0,.58Zm3.62-.88a1.77,1.77,0,0,0-1.71-2,2,2,0,0,0-1.89,2Z"/><path class="cls-1" d="M444.9,201.11a4.47,4.47,0,0,1-1.94.39,3.22,3.22,0,0,1-3.38-3.46,3.45,3.45,0,0,1,3.64-3.6,4.23,4.23,0,0,1,1.71.35l-.28,1a2.83,2.83,0,0,0-1.43-.33,2.35,2.35,0,0,0-2.39,2.57,2.32,2.32,0,0,0,2.35,2.53,3.56,3.56,0,0,0,1.51-.33Z"/><path class="cls-1" d="M447.56,197.69h0c.17-.23.41-.53.6-.77l2-2.34h1.49l-2.62,2.79,3,4h-1.5l-2.34-3.25-.63.7v2.55h-1.22v-9.94h1.22Z"/><path class="cls-1" d="M455.88,191.42h1.23v9.94h-1.23Z"/><path class="cls-1" d="M460.55,192.68a.76.76,0,0,1-1.52,0,.75.75,0,0,1,.77-.77A.72.72,0,0,1,460.55,192.68Zm-1.37,8.68v-6.78h1.23v6.78Z"/><path class="cls-1" d="M462.29,200.1a3.2,3.2,0,0,0,1.62.49c.9,0,1.32-.45,1.32-1s-.35-.91-1.26-1.24c-1.22-.44-1.79-1.11-1.79-1.92a2.09,2.09,0,0,1,2.34-2,3.43,3.43,0,0,1,1.66.42l-.31.9a2.57,2.57,0,0,0-1.38-.4c-.73,0-1.14.42-1.14.93s.41.81,1.29,1.15c1.18.44,1.78,1,1.78,2,0,1.19-.92,2-2.54,2A3.87,3.87,0,0,1,462,201Z"/><path class="cls-1" d="M469.48,192.64v1.94h1.77v.94h-1.77v3.66c0,.84.24,1.32.93,1.32a2.73,2.73,0,0,0,.71-.09l.06.92a3,3,0,0,1-1.09.17,1.71,1.71,0,0,1-1.33-.51,2.53,2.53,0,0,1-.48-1.77v-3.7h-1v-.94h1V193Z"/><path class="cls-1" d="M472.47,200.1a3.17,3.17,0,0,0,1.62.49c.9,0,1.32-.45,1.32-1s-.35-.91-1.26-1.24c-1.22-.44-1.8-1.11-1.8-1.92a2.1,2.1,0,0,1,2.34-2,3.44,3.44,0,0,1,1.67.42l-.31.9a2.58,2.58,0,0,0-1.39-.4c-.72,0-1.13.42-1.13.93s.41.81,1.29,1.15c1.18.44,1.78,1,1.78,2,0,1.19-.93,2-2.54,2a3.84,3.84,0,0,1-1.9-.46Z"/><path class="cls-1" d="M419,221.46h-2.87v-1h7v1h-2.89v8.4H419Z"/><path class="cls-1" d="M423.82,226.7a2.17,2.17,0,0,0,2.32,2.35,4.41,4.41,0,0,0,1.88-.35l.21.88A5.43,5.43,0,0,1,426,230a3.15,3.15,0,0,1-3.33-3.41c0-2.05,1.21-3.66,3.18-3.66,2.21,0,2.8,1.95,2.8,3.19,0,.25,0,.45,0,.58Zm3.61-.88a1.75,1.75,0,0,0-1.71-2,2.05,2.05,0,0,0-1.89,2Z"/><path class="cls-1" d="M430,228.6a3.2,3.2,0,0,0,1.62.49c.9,0,1.32-.45,1.32-1s-.35-.91-1.26-1.24c-1.22-.44-1.8-1.11-1.8-1.92a2.1,2.1,0,0,1,2.34-2,3.44,3.44,0,0,1,1.67.42l-.31.9a2.57,2.57,0,0,0-1.38-.4c-.73,0-1.14.42-1.14.93s.41.81,1.29,1.15c1.18.44,1.78,1,1.78,2,0,1.19-.93,2-2.54,2a3.84,3.84,0,0,1-1.9-.46Z"/><path class="cls-1" d="M437.17,221.14v1.94h1.77V224h-1.77v3.66c0,.84.24,1.32.93,1.32a2.73,2.73,0,0,0,.71-.09l.06.92a3,3,0,0,1-1.09.17,1.71,1.71,0,0,1-1.33-.51,2.53,2.53,0,0,1-.48-1.77V224h-1.05v-.94H436v-1.62Z"/><path class="cls-1" d="M448.12,229.61a4.47,4.47,0,0,1-1.94.39,3.22,3.22,0,0,1-3.38-3.46,3.45,3.45,0,0,1,3.64-3.6,4.27,4.27,0,0,1,1.71.35l-.28,1a2.83,2.83,0,0,0-1.43-.33,2.35,2.35,0,0,0-2.39,2.57A2.32,2.32,0,0,0,446.4,229a3.56,3.56,0,0,0,1.51-.33Z"/><path class="cls-1" d="M453.32,229.86l-.1-.85h0a2.54,2.54,0,0,1-2.08,1,1.93,1.93,0,0,1-2.07-2c0-1.64,1.46-2.53,4.08-2.52v-.14a1.4,1.4,0,0,0-1.54-1.57,3.48,3.48,0,0,0-1.77.5l-.28-.81a4.24,4.24,0,0,1,2.23-.6c2.07,0,2.58,1.41,2.58,2.77v2.54a8.9,8.9,0,0,0,.11,1.62Zm-.19-3.46c-1.34,0-2.87.21-2.87,1.53a1.1,1.1,0,0,0,1.17,1.18,1.67,1.67,0,0,0,1.63-1.14,1,1,0,0,0,.07-.39Z"/><path class="cls-1" d="M456.14,228.6a3.24,3.24,0,0,0,1.63.49c.89,0,1.31-.45,1.31-1s-.35-.91-1.26-1.24c-1.22-.44-1.79-1.11-1.79-1.92a2.09,2.09,0,0,1,2.34-2,3.44,3.44,0,0,1,1.67.42l-.31.9a2.64,2.64,0,0,0-1.39-.4c-.73,0-1.13.42-1.13.93s.4.81,1.29,1.15c1.17.44,1.77,1,1.77,2,0,1.19-.92,2-2.53,2a3.91,3.91,0,0,1-1.91-.46Z"/><path class="cls-1" d="M462.54,226.7a2.17,2.17,0,0,0,2.33,2.35,4.36,4.36,0,0,0,1.87-.35l.21.88a5.38,5.38,0,0,1-2.25.42,3.15,3.15,0,0,1-3.34-3.41c0-2.05,1.21-3.66,3.18-3.66,2.22,0,2.81,1.95,2.81,3.19a3.66,3.66,0,0,1-.05.58Zm3.61-.88a1.75,1.75,0,0,0-1.7-2,2,2,0,0,0-1.89,2Z"/><path class="cls-1" d="M468.7,228.6a3.21,3.21,0,0,0,1.63.49c.89,0,1.31-.45,1.31-1s-.35-.91-1.26-1.24c-1.22-.44-1.79-1.11-1.79-1.92a2.09,2.09,0,0,1,2.34-2,3.39,3.39,0,0,1,1.66.42l-.3.9a2.64,2.64,0,0,0-1.39-.4c-.73,0-1.14.42-1.14.93s.41.81,1.29,1.15c1.18.44,1.78,1,1.78,2,0,1.19-.92,2-2.53,2a3.88,3.88,0,0,1-1.91-.46Z"/><g class="cls-3"><path class="cls-1" d="M683,162l-11.14-11.14v-30.5a5,5,0,0,0-5-5H556.48a5,5,0,0,0-5,5V271.87a5,5,0,0,0,5,5H666.85a5,5,0,0,0,5-5V177.38L683,166.24A3,3,0,0,0,683,162Z"/></g><path class="cls-1" d="M566.54,133.55a17.84,17.84,0,0,1,2.59-.2,5.43,5.43,0,0,1,3.83,1.18,4.34,4.34,0,0,1,1.33,3.39,5,5,0,0,1-1.36,3.67,5.82,5.82,0,0,1-4.17,1.36,17.54,17.54,0,0,1-2.22-.12Zm1.22,8.35A8.51,8.51,0,0,0,569,142c2.61,0,4-1.46,4-4,0-2.23-1.24-3.64-3.82-3.64a7,7,0,0,0-1.43.12Z"/><path class="cls-1" d="M576.57,139.7a2.17,2.17,0,0,0,2.32,2.35,4.41,4.41,0,0,0,1.88-.35l.21.88a5.47,5.47,0,0,1-2.26.42,3.15,3.15,0,0,1-3.33-3.41c0-2.05,1.2-3.66,3.18-3.66,2.21,0,2.8,1.95,2.8,3.19,0,.25,0,.45,0,.58Zm3.61-.88a1.76,1.76,0,0,0-1.71-2,2,2,0,0,0-1.89,2Z"/><path class="cls-1" d="M583.37,136.08l1.33,3.81c.22.62.41,1.18.55,1.74h0c.15-.56.35-1.12.57-1.74l1.32-3.81h1.29l-2.66,6.78h-1.18l-2.58-6.78Z"/><path class="cls-1" d="M590.17,139.7a2.18,2.18,0,0,0,2.33,2.35,4.45,4.45,0,0,0,1.88-.35l.21.88a5.47,5.47,0,0,1-2.26.42,3.14,3.14,0,0,1-3.33-3.41c0-2.05,1.2-3.66,3.18-3.66,2.21,0,2.8,1.95,2.8,3.19,0,.25,0,.45,0,.58Zm3.62-.88a1.76,1.76,0,0,0-1.71-2,2,2,0,0,0-1.89,2Z"/><path class="cls-1" d="M596.5,132.92h1.23v9.94H596.5Z"/><path class="cls-1" d="M605.94,139.42a3.32,3.32,0,0,1-3.37,3.6,3.22,3.22,0,0,1-3.25-3.49,3.31,3.31,0,0,1,3.36-3.6A3.21,3.21,0,0,1,605.94,139.42Zm-5.38.07c0,1.48.86,2.6,2.06,2.6s2.06-1.1,2.06-2.63c0-1.15-.57-2.61-2-2.61S600.56,138.2,600.56,139.49Z"/><path class="cls-1" d="M607.49,138.3c0-.87,0-1.57,0-2.22h1.1l.06,1.17h0a2.65,2.65,0,0,1,2.41-1.32c1.63,0,2.87,1.39,2.87,3.44,0,2.44-1.49,3.65-3.08,3.65a2.38,2.38,0,0,1-2.09-1.07h0v3.69h-1.22Zm1.22,1.8a2.64,2.64,0,0,0,.06.51,1.9,1.9,0,0,0,1.85,1.44c1.3,0,2-1.06,2-2.62,0-1.36-.71-2.52-2-2.52a2,2,0,0,0-1.87,1.53,2,2,0,0,0-.08.5Z"/><path class="cls-1" d="M615.46,137.92c0-.7,0-1.28-.06-1.84h1.08l.06,1.1h0a2.33,2.33,0,0,1,2.13-1.25,2,2,0,0,1,1.92,1.36h0a2.77,2.77,0,0,1,.76-.88,2.3,2.3,0,0,1,1.5-.48c.9,0,2.23.59,2.23,2.94v4h-1.21V139c0-1.31-.47-2.09-1.47-2.09a1.6,1.6,0,0,0-1.46,1.12,2.24,2.24,0,0,0-.09.61v4.19H619.7V138.8c0-1.08-.47-1.86-1.41-1.86a1.84,1.84,0,0,0-1.63,1.83v4.09h-1.2Z"/><path class="cls-1" d="M627.82,139.7a2.17,2.17,0,0,0,2.32,2.35,4.38,4.38,0,0,0,1.88-.35l.21.88A5.38,5.38,0,0,1,630,143a3.15,3.15,0,0,1-3.34-3.41c0-2.05,1.21-3.66,3.18-3.66,2.22,0,2.8,1.95,2.8,3.19a3.91,3.91,0,0,1,0,.58Zm3.61-.88a1.75,1.75,0,0,0-1.71-2,2.05,2.05,0,0,0-1.89,2Z"/><path class="cls-1" d="M634.15,137.92c0-.7,0-1.28-.06-1.84h1.09l.07,1.12h0a2.5,2.5,0,0,1,2.24-1.27c.94,0,2.4.56,2.4,2.89v4h-1.23V139c0-1.1-.41-2-1.57-2a1.76,1.76,0,0,0-1.66,1.26,2,2,0,0,0-.08.58v4.07h-1.23Z"/><path class="cls-1" d="M643.35,134.14v1.94h1.76V137h-1.76v3.66c0,.84.23,1.32.92,1.32a2.73,2.73,0,0,0,.71-.09l.06.92A3,3,0,0,1,644,143a1.71,1.71,0,0,1-1.33-.51,2.53,2.53,0,0,1-.48-1.77V137h-1v-.94h1v-1.62Z"/><g class="cls-3"><path class="cls-1" d="M832.3,162l-11.14-11.14v-30.5a5,5,0,0,0-5-5H705.8a5,5,0,0,0-5,5V271.87a5,5,0,0,0,5,5H816.16a5,5,0,0,0,5-5V177.38l11.14-11.14A3,3,0,0,0,832.3,162Z"/></g><path class="cls-1" d="M715.88,133.42H721v1h-3.87v3.14h3.58v1h-3.58v4.27h-1.21Z"/><path class="cls-1" d="M727.83,141c0,.7,0,1.32.06,1.85H726.8l-.07-1.1h0a2.56,2.56,0,0,1-2.24,1.26c-1.07,0-2.34-.59-2.34-3v-4h1.23v3.76c0,1.29.39,2.16,1.52,2.16a1.74,1.74,0,0,0,1.73-1.76v-4.16h1.23Z"/><path class="cls-1" d="M729.88,137.92c0-.7,0-1.28-.06-1.84h1.09l.07,1.12h0a2.5,2.5,0,0,1,2.24-1.27c.94,0,2.4.56,2.4,2.89v4h-1.24V139c0-1.1-.4-2-1.56-2a1.76,1.76,0,0,0-1.66,1.26,2,2,0,0,0-.08.58v4.07h-1.23Z"/><path class="cls-1" d="M742.48,142.61a4.53,4.53,0,0,1-2,.39,3.22,3.22,0,0,1-3.37-3.46,3.44,3.44,0,0,1,3.64-3.6,4.27,4.27,0,0,1,1.71.35l-.28,1a2.86,2.86,0,0,0-1.43-.33,2.35,2.35,0,0,0-2.4,2.57,2.32,2.32,0,0,0,2.36,2.53,3.56,3.56,0,0,0,1.51-.33Z"/><path class="cls-1" d="M745.58,134.14v1.94h1.77V137h-1.77v3.66c0,.84.24,1.32.93,1.32a2.73,2.73,0,0,0,.71-.09l.06.92a3,3,0,0,1-1.09.17,1.71,1.71,0,0,1-1.33-.51,2.53,2.53,0,0,1-.48-1.77V137h-1v-.94h1v-1.62Z"/><path class="cls-1" d="M750.11,134.18a.77.77,0,0,1-1.53,0,.75.75,0,0,1,.77-.77A.73.73,0,0,1,750.11,134.18Zm-1.38,8.68v-6.78H750v6.78Z"/><path class="cls-1" d="M758.14,139.42a3.31,3.31,0,0,1-3.37,3.6,3.22,3.22,0,0,1-3.25-3.49,3.31,3.31,0,0,1,3.36-3.6A3.2,3.2,0,0,1,758.14,139.42Zm-5.37.07c0,1.48.85,2.6,2.05,2.6s2.06-1.1,2.06-2.63c0-1.15-.57-2.61-2-2.61S752.77,138.2,752.77,139.49Z"/><path class="cls-1" d="M759.69,137.92c0-.7,0-1.28-.05-1.84h1.09l.07,1.12h0a2.5,2.5,0,0,1,2.24-1.27c.94,0,2.4.56,2.4,2.89v4h-1.24V139c0-1.1-.4-2-1.57-2a1.76,1.76,0,0,0-1.65,1.26,2,2,0,0,0-.08.58v4.07h-1.24Z"/><path class="cls-1" d="M771.22,142.86l-.1-.85h0a2.54,2.54,0,0,1-2.07,1,1.94,1.94,0,0,1-2.08-2c0-1.64,1.46-2.53,4.08-2.52v-.14a1.4,1.4,0,0,0-1.54-1.57,3.48,3.48,0,0,0-1.77.5l-.28-.81a4.27,4.27,0,0,1,2.23-.6c2.07,0,2.58,1.41,2.58,2.77v2.54a9.9,9.9,0,0,0,.11,1.62ZM771,139.4c-1.35,0-2.87.21-2.87,1.53a1.09,1.09,0,0,0,1.16,1.18A1.69,1.69,0,0,0,771,141a1.28,1.28,0,0,0,.07-.39Z"/><path class="cls-1" d="M774.21,132.92h1.24v9.94h-1.24Z"/><path class="cls-1" d="M784.24,142.86l-.1-.85h0a2.54,2.54,0,0,1-2.07,1,1.94,1.94,0,0,1-2.08-2c0-1.64,1.46-2.53,4.08-2.52v-.14a1.4,1.4,0,0,0-1.54-1.57,3.48,3.48,0,0,0-1.77.5l-.28-.81a4.24,4.24,0,0,1,2.23-.6c2.07,0,2.58,1.41,2.58,2.77v2.54a8.9,8.9,0,0,0,.11,1.62Zm-.18-3.46c-1.35,0-2.88.21-2.88,1.53a1.1,1.1,0,0,0,1.17,1.18A1.69,1.69,0,0,0,784,141a1.28,1.28,0,0,0,.07-.39Z"/><path class="cls-1" d="M787.23,137.92c0-.7,0-1.28-.05-1.84h1.09l.07,1.12h0a2.49,2.49,0,0,1,2.24-1.27c.94,0,2.39.56,2.39,2.89v4h-1.23V139c0-1.1-.41-2-1.57-2a1.76,1.76,0,0,0-1.65,1.26,1.73,1.73,0,0,0-.08.58v4.07h-1.24Z"/><path class="cls-1" d="M800.86,132.92v8.19c0,.6,0,1.29,0,1.75h-1.1l-.06-1.17h0a2.51,2.51,0,0,1-2.31,1.33c-1.64,0-2.9-1.39-2.9-3.45,0-2.25,1.39-3.64,3-3.64a2.27,2.27,0,0,1,2.05,1h0v-4.05Zm-1.24,5.92a2.21,2.21,0,0,0,0-.51,1.81,1.81,0,0,0-1.78-1.43c-1.27,0-2,1.12-2,2.62s.67,2.5,2,2.5a1.85,1.85,0,0,0,1.81-1.47,2.22,2.22,0,0,0,0-.53Z"/><path class="cls-1" d="M715.83,154.72c0-.7,0-1.28-.05-1.84h1.09l.07,1.12h0a2.49,2.49,0,0,1,2.24-1.27c.94,0,2.39.56,2.39,2.89v4h-1.23v-3.91c0-1.09-.4-2-1.57-2a1.76,1.76,0,0,0-1.65,1.26,1.73,1.73,0,0,0-.08.58v4.07h-1.24Z"/><path class="cls-1" d="M729.74,156.22a3.32,3.32,0,0,1-3.38,3.6,3.23,3.23,0,0,1-3.25-3.49,3.31,3.31,0,0,1,3.36-3.6A3.21,3.21,0,0,1,729.74,156.22Zm-5.38.07c0,1.48.85,2.6,2.06,2.6s2.06-1.1,2.06-2.63c0-1.15-.58-2.61-2-2.61S724.36,155,724.36,156.29Z"/><path class="cls-1" d="M731.29,154.72c0-.7,0-1.28-.06-1.84h1.1l.07,1.12h0a2.51,2.51,0,0,1,2.25-1.27c.93,0,2.39.56,2.39,2.89v4h-1.23v-3.91c0-1.09-.41-2-1.57-2a1.76,1.76,0,0,0-1.65,1.26,1.72,1.72,0,0,0-.09.58v4.07h-1.23Z"/><path class="cls-1" d="M741.92,155.42v.91h-3.46v-.91Z"/><path class="cls-1" d="M743.48,159.66v-5.84h-1v-.94h1v-.32a3.19,3.19,0,0,1,.79-2.37,2.39,2.39,0,0,1,1.65-.63,2.83,2.83,0,0,1,1.05.2l-.17,1a1.88,1.88,0,0,0-.78-.15c-1,0-1.32.92-1.32,2v.36h1.64v.94H744.7v5.84Z"/><path class="cls-1" d="M753.12,157.81c0,.7,0,1.32,0,1.85h-1.09l-.07-1.1h0a2.55,2.55,0,0,1-2.24,1.26c-1.06,0-2.34-.59-2.34-3v-4h1.24v3.76c0,1.29.39,2.15,1.51,2.15a1.76,1.76,0,0,0,1.74-1.75v-4.16h1.23Z"/><path class="cls-1" d="M755.16,154.72c0-.7,0-1.28-.06-1.84h1.1l.07,1.12h0a2.5,2.5,0,0,1,2.24-1.27c.94,0,2.4.56,2.4,2.89v4H759.7v-3.91c0-1.09-.41-2-1.57-2a1.76,1.76,0,0,0-1.65,1.26,1.72,1.72,0,0,0-.09.58v4.07h-1.23Z"/><path class="cls-1" d="M767.76,159.41a4.53,4.53,0,0,1-2,.39,3.22,3.22,0,0,1-3.37-3.46,3.45,3.45,0,0,1,3.64-3.6,4.27,4.27,0,0,1,1.71.35l-.28,1a2.83,2.83,0,0,0-1.43-.33,2.35,2.35,0,0,0-2.4,2.57,2.32,2.32,0,0,0,2.36,2.53,3.56,3.56,0,0,0,1.51-.33Z"/><path class="cls-1" d="M770.87,150.94v1.94h1.76v.94h-1.76v3.66c0,.84.24,1.31.92,1.31a3,3,0,0,0,.72-.08l0,.92a3,3,0,0,1-1.09.17,1.72,1.72,0,0,1-1.33-.51,2.53,2.53,0,0,1-.48-1.77v-3.7h-1v-.94h1v-1.62Z"/><path class="cls-1" d="M775.39,151a.77.77,0,0,1-1.53,0,.75.75,0,0,1,.77-.77A.73.73,0,0,1,775.39,151ZM774,159.66v-6.78h1.23v6.78Z"/><path class="cls-1" d="M783.43,156.22a3.32,3.32,0,0,1-3.38,3.6,3.23,3.23,0,0,1-3.25-3.49,3.31,3.31,0,0,1,3.36-3.6A3.21,3.21,0,0,1,783.43,156.22Zm-5.38.07c0,1.48.85,2.6,2.06,2.6s2.06-1.1,2.06-2.63c0-1.15-.58-2.61-2-2.61S778.05,155,778.05,156.29Z"/><path class="cls-1" d="M785,154.72c0-.7,0-1.28-.06-1.84H786l.07,1.12h0a2.5,2.5,0,0,1,2.24-1.27c.94,0,2.4.56,2.4,2.89v4h-1.23v-3.91c0-1.09-.41-2-1.57-2A1.76,1.76,0,0,0,786.3,155a1.72,1.72,0,0,0-.09.58v4.07H785Z"/><path class="cls-1" d="M796.5,159.66l-.1-.85h0a2.52,2.52,0,0,1-2.07,1,1.93,1.93,0,0,1-2.07-1.95c0-1.64,1.45-2.54,4.07-2.52v-.14a1.4,1.4,0,0,0-1.54-1.57,3.42,3.42,0,0,0-1.76.5l-.28-.81a4.23,4.23,0,0,1,2.22-.6c2.08,0,2.58,1.41,2.58,2.77V158a9.9,9.9,0,0,0,.11,1.62Zm-.18-3.46c-1.35,0-2.87.21-2.87,1.53a1.09,1.09,0,0,0,1.16,1.18,1.69,1.69,0,0,0,1.64-1.14,1.28,1.28,0,0,0,.07-.39Z"/><path class="cls-1" d="M799.5,149.72h1.23v9.94H799.5Z"/><path class="cls-1" d="M717.32,167.74v1.94h1.76v.94h-1.76v3.66c0,.84.24,1.31.92,1.31a3,3,0,0,0,.72-.08l0,.92a2.91,2.91,0,0,1-1.09.17,1.69,1.69,0,0,1-1.33-.52,2.49,2.49,0,0,1-.48-1.76v-3.7h-1.05v-.94h1.05v-1.62Z"/><path class="cls-1" d="M721.07,173.3a2.17,2.17,0,0,0,2.32,2.35,4.38,4.38,0,0,0,1.88-.35l.21.88a5.38,5.38,0,0,1-2.25.42,3.15,3.15,0,0,1-3.34-3.41c0-2.05,1.21-3.66,3.18-3.66,2.22,0,2.8,1.95,2.8,3.19a3.91,3.91,0,0,1,0,.58Zm3.61-.88a1.75,1.75,0,0,0-1.71-2,2.05,2.05,0,0,0-1.89,2Z"/><path class="cls-1" d="M727.23,175.2a3.2,3.2,0,0,0,1.62.49c.9,0,1.32-.45,1.32-1s-.35-.91-1.26-1.24c-1.22-.44-1.79-1.11-1.79-1.92a2.09,2.09,0,0,1,2.34-2,3.39,3.39,0,0,1,1.66.42l-.3.9a2.64,2.64,0,0,0-1.39-.4c-.73,0-1.14.42-1.14.93s.41.81,1.29,1.15c1.18.44,1.78,1,1.78,2,0,1.19-.92,2-2.53,2a3.88,3.88,0,0,1-1.91-.46Z"/><path class="cls-1" d="M734.43,167.74v1.94h1.76v.94h-1.76v3.66c0,.84.23,1.31.92,1.31a2.82,2.82,0,0,0,.71-.08l.06.92a3,3,0,0,1-1.09.17,1.68,1.68,0,0,1-1.33-.52,2.49,2.49,0,0,1-.48-1.76v-3.7h-1.05v-.94h1.05v-1.62Z"/><path class="cls-1" d="M739,167.78a.77.77,0,0,1-1.53,0,.75.75,0,0,1,.77-.77A.73.73,0,0,1,739,167.78Zm-1.37,8.68v-6.78h1.23v6.78Z"/><path class="cls-1" d="M740.85,171.52c0-.7,0-1.28-.06-1.84h1.1l.07,1.12h0a2.49,2.49,0,0,1,2.24-1.27c.94,0,2.39.56,2.39,2.89v4h-1.23v-3.91c0-1.09-.41-2-1.57-2a1.76,1.76,0,0,0-1.65,1.26,1.72,1.72,0,0,0-.09.58v4.07h-1.23Z"/><path class="cls-1" d="M754.46,169.68c0,.49-.05,1-.05,1.87v3.93c0,1.56-.31,2.51-1,3.1a3.63,3.63,0,0,1-2.47.81,4.41,4.41,0,0,1-2.25-.56l.31-.94a3.84,3.84,0,0,0,2,.53c1.26,0,2.18-.65,2.18-2.36v-.76h0a2.4,2.4,0,0,1-2.15,1.13,3,3,0,0,1-2.89-3.3c0-2.3,1.5-3.6,3-3.6a2.26,2.26,0,0,1,2.12,1.18h0l0-1Zm-1.27,2.68a2,2,0,0,0-.07-.56,1.78,1.78,0,0,0-1.73-1.3c-1.17,0-2,1-2,2.56,0,1.33.67,2.44,2,2.44a1.81,1.81,0,0,0,1.71-1.26,2.16,2.16,0,0,0,.1-.66Z"/><path class="cls-1" d="M217,68.69a5.2,5.2,0,0,1-1.72-.83l.7-1.56a5.49,5.49,0,0,0,3.21,1,2.68,2.68,0,0,0,1.42-.3.92.92,0,0,0,.49-.83.82.82,0,0,0-.45-.74A6.09,6.09,0,0,0,219,64.9a9.22,9.22,0,0,1-2.08-.64,2.75,2.75,0,0,1-1.13-.93,2.47,2.47,0,0,1-.36-1.37,2.66,2.66,0,0,1,.5-1.59,3.21,3.21,0,0,1,1.39-1.1,5,5,0,0,1,2.07-.4,6.88,6.88,0,0,1,2,.3A4.31,4.31,0,0,1,223,60l-.7,1.56a4.69,4.69,0,0,0-2.85-1,2.41,2.41,0,0,0-1.35.33,1,1,0,0,0-.49.9.86.86,0,0,0,.19.56,1.66,1.66,0,0,0,.63.38,9.77,9.77,0,0,0,1.26.35,6.92,6.92,0,0,1,2.73,1.08,2.19,2.19,0,0,1,.84,1.82,2.59,2.59,0,0,1-1.08,2.2,4.92,4.92,0,0,1-3,.81A7.72,7.72,0,0,1,217,68.69Z"/><path class="cls-1" d="M224.81,59h4.54a3.58,3.58,0,0,1,2.51.82,3.33,3.33,0,0,1,0,4.53,3.62,3.62,0,0,1-2.51.81H227v3.71h-2.19Zm4.26,4.51c1.09,0,1.64-.47,1.64-1.41A1.34,1.34,0,0,0,230.3,61a1.86,1.86,0,0,0-1.23-.35H227V63.5Z"/><path class="cls-1" d="M242.73,68.86h-2.38l-1.7-3.15a1.41,1.41,0,0,0-.51-.52,1.48,1.48,0,0,0-.74-.16h-1.08v3.83h-2.16V59h4.54a4,4,0,0,1,2.63.77,2.73,2.73,0,0,1,.88,2.2,2.84,2.84,0,0,1-.62,1.88,3,3,0,0,1-1.76,1,2.17,2.17,0,0,1,1.31,1.11Zm-3-5.81a1.49,1.49,0,0,0,0-2.07,2.31,2.31,0,0,0-1.36-.32h-2.09v2.71h2.09A2.23,2.23,0,0,0,239.74,63.05Z"/><path class="cls-1" d="M244,68.86V59h2.18v9.87Z"/><path class="cls-1" d="M254.65,59h2v9.87h-1.62l-4.92-6.28v6.28h-2V59h1.61l4.92,6.26Z"/><path class="cls-1" d="M260.93,68.86V60.77h-3.09V59h8.37v1.78h-3.09v8.09Z"/><path class="cls-1" d="M271.75,67.69a6.38,6.38,0,0,1-.95-3.77,6.26,6.26,0,0,1,.95-3.73,3.21,3.21,0,0,1,2.74-1.29,3.17,3.17,0,0,1,2.72,1.29,6.19,6.19,0,0,1,1,3.73,6.38,6.38,0,0,1-.95,3.77,3.53,3.53,0,0,1-5.47,0Zm3.92-1.18a6.78,6.78,0,0,0,.37-2.59,6.64,6.64,0,0,0-.37-2.56,1.28,1.28,0,0,0-2.37,0,6.45,6.45,0,0,0-.37,2.56,6.59,6.59,0,0,0,.37,2.59,1.27,1.27,0,0,0,2.37,0Z"/><path class="cls-1" d="M404.46,68.69a5.26,5.26,0,0,1-1.73-.83l.7-1.56a5.54,5.54,0,0,0,3.21,1,2.66,2.66,0,0,0,1.42-.3.92.92,0,0,0,.5-.83.81.81,0,0,0-.46-.74,6,6,0,0,0-1.61-.52,9.22,9.22,0,0,1-2.08-.64,2.79,2.79,0,0,1-1.14-.93,2.56,2.56,0,0,1-.35-1.37,2.65,2.65,0,0,1,.49-1.59,3.3,3.3,0,0,1,1.4-1.1,4.93,4.93,0,0,1,2.07-.4,6.81,6.81,0,0,1,2,.3,4.28,4.28,0,0,1,1.55.83l-.7,1.56a4.74,4.74,0,0,0-2.86-1,2.37,2.37,0,0,0-1.34.33,1,1,0,0,0-.49.9.81.81,0,0,0,.19.56,1.51,1.51,0,0,0,.63.38,9.54,9.54,0,0,0,1.25.35,7,7,0,0,1,2.74,1.08A2.21,2.21,0,0,1,410.7,66a2.59,2.59,0,0,1-1.08,2.2,4.92,4.92,0,0,1-3,.81A7.7,7.7,0,0,1,404.46,68.69Z"/><path class="cls-1" d="M412.27,59h4.53a3.56,3.56,0,0,1,2.51.82,3.3,3.3,0,0,1,0,4.53,3.61,3.61,0,0,1-2.51.81h-2.35v3.71h-2.18Zm4.25,4.51c1.1,0,1.64-.47,1.64-1.41a1.34,1.34,0,0,0-.4-1.08,1.87,1.87,0,0,0-1.24-.35h-2.07V63.5Z"/><path class="cls-1" d="M430.19,68.86h-2.38l-1.71-3.15a1.39,1.39,0,0,0-.5-.52,1.54,1.54,0,0,0-.75-.16h-1.07v3.83h-2.16V59h4.54a3.92,3.92,0,0,1,2.62.77,2.73,2.73,0,0,1,.89,2.2,2.9,2.9,0,0,1-.62,1.88,3,3,0,0,1-1.76,1,2.15,2.15,0,0,1,1.3,1.11Zm-3-5.81a1.49,1.49,0,0,0,0-2.07,2.29,2.29,0,0,0-1.36-.32h-2.08v2.71h2.08A2.21,2.21,0,0,0,427.19,63.05Z"/><path class="cls-1" d="M431.43,68.86V59h2.19v9.87Z"/><path class="cls-1" d="M442.1,59h2v9.87h-1.63l-4.91-6.28v6.28h-2V59h1.61l4.91,6.26Z"/><path class="cls-1" d="M448.39,68.86V60.77h-3.1V59h8.38v1.78h-3.1v8.09Z"/><path class="cls-1" d="M463.52,67.11h2.13v1.75h-6.44V67.11h2.13V61.42l-1.68,1-.83-1.57L462,59h1.55Z"/><path class="cls-1" d="M467.05,65.94V64.29h4.33v1.65Z"/><path class="cls-1" d="M479.8,59h2.05v9.87h-1.63l-4.91-6.28v6.28h-2V59h1.61l4.91,6.26Z"/><path class="cls-1" d="M218,165.36v-8.09h-3.09v-1.78h8.37v1.78h-3.1v8.09Z"/><path class="cls-1" d="M229.31,162.33h-4.48a1.69,1.69,0,0,0,.54,1.19,1.87,1.87,0,0,0,1.25.37,3.56,3.56,0,0,0,1.06-.17,3.19,3.19,0,0,0,.95-.5l.57,1.42a3.93,3.93,0,0,1-1.23.61,4.83,4.83,0,0,1-1.45.23,3.8,3.8,0,0,1-2.74-1,3.47,3.47,0,0,1-1-2.61,3.91,3.91,0,0,1,.44-1.87,3.17,3.17,0,0,1,1.2-1.26,3.32,3.32,0,0,1,1.75-.46,2.91,2.91,0,0,1,2.29.94,3.67,3.67,0,0,1,.85,2.55Zm-4-2.17a1.88,1.88,0,0,0-.44,1.12h2.7a1.82,1.82,0,0,0-.37-1.12,1.14,1.14,0,0,0-.93-.38A1.27,1.27,0,0,0,225.27,160.16Z"/><path class="cls-1" d="M231.48,165.26a4.48,4.48,0,0,1-1.36-.62l.56-1.46a4.66,4.66,0,0,0,1.23.59,4.54,4.54,0,0,0,1.36.21,1.56,1.56,0,0,0,.76-.16.51.51,0,0,0,.27-.45.48.48,0,0,0-.18-.39,2.31,2.31,0,0,0-.71-.25l-1.12-.25a3,3,0,0,1-1.46-.69,1.72,1.72,0,0,1-.47-1.29,1.82,1.82,0,0,1,.37-1.13,2.42,2.42,0,0,1,1.05-.77,4.16,4.16,0,0,1,1.55-.28,5,5,0,0,1,1.44.22,4.65,4.65,0,0,1,1.26.63l-.56,1.41a3.76,3.76,0,0,0-2.16-.76,1.42,1.42,0,0,0-.77.17.52.52,0,0,0-.28.47.41.41,0,0,0,.17.35,1.6,1.6,0,0,0,.59.24l1.16.27a3.12,3.12,0,0,1,1.53.72,1.78,1.78,0,0,1,.48,1.31,1.81,1.81,0,0,1-.79,1.56,3.63,3.63,0,0,1-2.17.57A6.81,6.81,0,0,1,231.48,165.26Z"/><path class="cls-1" d="M241.81,163.88l-.11,1.54a5.55,5.55,0,0,1-.82.06,3.21,3.21,0,0,1-2.28-.69,2.76,2.76,0,0,1-.73-2.09v-2.63h-1.3v-1.58h1.3v-2H240v2h1.72v1.58H240v2.62c0,.82.38,1.23,1.15,1.23A5.22,5.22,0,0,0,241.81,163.88Z"/><path class="cls-1" d="M246.82,155.49h4.54a3.54,3.54,0,0,1,2.5.82,3.3,3.3,0,0,1,0,4.53,3.58,3.58,0,0,1-2.5.81H249v3.71h-2.18Zm4.26,4.51c1.09,0,1.63-.47,1.63-1.41a1.34,1.34,0,0,0-.4-1.08,1.86,1.86,0,0,0-1.23-.35H249V160Z"/><path class="cls-1" d="M256,165.36v-9.87h2.12v9.87Z"/><path class="cls-1" d="M265.07,159.05a3.06,3.06,0,0,1,.73,2.25v4.06h-2v-1a1.63,1.63,0,0,1-.7.83,2.15,2.15,0,0,1-1.15.31,2.91,2.91,0,0,1-1.26-.28,2.23,2.23,0,0,1-.9-.79,2,2,0,0,1-.33-1.12,1.72,1.72,0,0,1,.39-1.19,2.27,2.27,0,0,1,1.24-.63,11,11,0,0,1,2.33-.19h.37V161a1.12,1.12,0,0,0-.27-.86,1.3,1.3,0,0,0-.92-.26,4,4,0,0,0-1.12.18,5.85,5.85,0,0,0-1.18.51l-.56-1.42a5.75,5.75,0,0,1,1.45-.6,5.69,5.69,0,0,1,1.6-.25A3.11,3.11,0,0,1,265.07,159.05Zm-1.66,4.56a1.56,1.56,0,0,0,.38-1.07v-.24h-.24a4.81,4.81,0,0,0-1.59.18.66.66,0,0,0-.45.66.82.82,0,0,0,.26.63.88.88,0,0,0,.65.25A1.29,1.29,0,0,0,263.41,163.61Z"/><path class="cls-1" d="M273.53,159a3.36,3.36,0,0,1,.6,2.18v4.14H272v-4a1.67,1.67,0,0,0-.26-1,1,1,0,0,0-.8-.32,1.39,1.39,0,0,0-1.06.42,1.55,1.55,0,0,0-.4,1.12v3.85h-2.11v-6.87h2.05v1a2.42,2.42,0,0,1,.95-.85,2.81,2.81,0,0,1,1.31-.3A2.25,2.25,0,0,1,273.53,159Z"/><path class="cls-1" d="M223.21,182.07a2.68,2.68,0,0,1,.5.58l1,1.71-1.87.87-1.45-2.38a1.3,1.3,0,0,0-1.2-.56,5.08,5.08,0,0,1-2.56-.62A4.26,4.26,0,0,1,216,179.9a6.38,6.38,0,0,1,0-5.36,4.18,4.18,0,0,1,1.67-1.76,5.66,5.66,0,0,1,5.11,0,4.18,4.18,0,0,1,1.67,1.76,6.37,6.37,0,0,1-.05,5.46,4,4,0,0,1-1.81,1.74A1.64,1.64,0,0,1,223.21,182.07Zm-1-2.34a4.8,4.8,0,0,0,0-5,2.37,2.37,0,0,0-1.94-.86,2.35,2.35,0,0,0-1.94.86,3.88,3.88,0,0,0-.7,2.5,4,4,0,0,0,.7,2.51,2.61,2.61,0,0,0,3.87,0Z"/><path class="cls-1" d="M234,182.16,233,180h-4.59l-.94,2.18h-2.2l4.54-9.87h1.75l4.53,9.87Zm-4.82-3.83h3.17l-1.59-3.7Z"/><path class="cls-1" d="M242.16,182a5.11,5.11,0,0,1-1.72-.83l.7-1.56a5.49,5.49,0,0,0,3.2,1,2.66,2.66,0,0,0,1.42-.3.92.92,0,0,0,.5-.83.82.82,0,0,0-.45-.74,6.22,6.22,0,0,0-1.62-.52,9.22,9.22,0,0,1-2.08-.64,2.69,2.69,0,0,1-1.13-.93,2.47,2.47,0,0,1-.36-1.37,2.6,2.6,0,0,1,.5-1.59,3.21,3.21,0,0,1,1.39-1.1,5,5,0,0,1,2.07-.4,6.81,6.81,0,0,1,2,.3,4.28,4.28,0,0,1,1.55.83l-.7,1.56a4.74,4.74,0,0,0-2.86-1,2.39,2.39,0,0,0-1.34.33,1,1,0,0,0-.49.9.81.81,0,0,0,.19.56,1.66,1.66,0,0,0,.63.38,9.54,9.54,0,0,0,1.25.35,7,7,0,0,1,2.74,1.08,2.2,2.2,0,0,1,.83,1.82,2.6,2.6,0,0,1-1.07,2.2,5,5,0,0,1-3,.81A7.7,7.7,0,0,1,242.16,182Z"/><path class="cls-1" d="M254.14,180.68l-.11,1.54a5.52,5.52,0,0,1-.81.06,3.22,3.22,0,0,1-2.29-.69,2.76,2.76,0,0,1-.72-2.09v-2.63h-1.3v-1.58h1.3v-2h2.11v2H254v1.58h-1.72v2.62c0,.82.38,1.23,1.15,1.23A5.12,5.12,0,0,0,254.14,180.68Z"/><path class="cls-1" d="M260,176.86l-1.19.12a1.88,1.88,0,0,0-1.24.5,1.62,1.62,0,0,0-.37,1.1v3.58h-2.11v-6.87h2v1.16a2.27,2.27,0,0,1,2.14-1.3l.62,0Z"/><path class="cls-1" d="M266,175.85a3,3,0,0,1,.74,2.25v4.06h-2v-1a1.63,1.63,0,0,1-.7.83,2.14,2.14,0,0,1-1.14.31,2.92,2.92,0,0,1-1.27-.28,2.23,2.23,0,0,1-.9-.79,2,2,0,0,1-.33-1.12,1.72,1.72,0,0,1,.39-1.19,2.3,2.3,0,0,1,1.24-.63,11.07,11.07,0,0,1,2.34-.19h.36v-.26a1.12,1.12,0,0,0-.27-.86,1.3,1.3,0,0,0-.92-.26,4,4,0,0,0-1.12.18,5.85,5.85,0,0,0-1.18.51l-.56-1.42a5.91,5.91,0,0,1,1.45-.6,5.7,5.7,0,0,1,1.61-.25A3.1,3.1,0,0,1,266,175.85Zm-1.66,4.56a1.56,1.56,0,0,0,.38-1.08v-.23h-.24a4.89,4.89,0,0,0-1.59.18.66.66,0,0,0-.45.66.82.82,0,0,0,.26.63.88.88,0,0,0,.65.25A1.29,1.29,0,0,0,264.36,180.41Z"/><path class="cls-1" d="M272.82,180.68l-.11,1.54a5.66,5.66,0,0,1-.82.06,3.21,3.21,0,0,1-2.28-.69,2.72,2.72,0,0,1-.73-2.09v-2.63h-1.3v-1.58h1.3v-2H271v2h1.72v1.58H271v2.62c0,.82.38,1.23,1.15,1.23A5.33,5.33,0,0,0,272.82,180.68Z"/><path class="cls-1" d="M279.94,179.12h-4.48a1.78,1.78,0,0,0,.54,1.2,1.89,1.89,0,0,0,1.26.37,3.49,3.49,0,0,0,1.05-.17,3.38,3.38,0,0,0,1-.5l.56,1.42a3.77,3.77,0,0,1-1.22.61,4.88,4.88,0,0,1-1.45.23,3.8,3.8,0,0,1-2.74-1,3.44,3.44,0,0,1-1-2.61,3.88,3.88,0,0,1,.43-1.87,3.12,3.12,0,0,1,1.21-1.26,3.29,3.29,0,0,1,1.75-.46,2.93,2.93,0,0,1,2.29.94,3.66,3.66,0,0,1,.84,2.55Zm-4-2.16a2,2,0,0,0-.45,1.12h2.71a1.82,1.82,0,0,0-.38-1.12,1.12,1.12,0,0,0-.93-.38A1.23,1.23,0,0,0,275.91,177Z"/><path class="cls-1" d="M288.23,175.29v6.13a3.23,3.23,0,0,1-1,2.52,4.07,4.07,0,0,1-2.81.85,6.81,6.81,0,0,1-1.77-.22,5.38,5.38,0,0,1-1.5-.63l.56-1.45a5.54,5.54,0,0,0,2.65.72c1.16,0,1.74-.54,1.74-1.63v-.76a2.13,2.13,0,0,1-.89.84A2.84,2.84,0,0,1,284,182a3,3,0,0,1-1.59-.42,3,3,0,0,1-1.09-1.2,4.35,4.35,0,0,1,0-3.6,3,3,0,0,1,1.09-1.2,2.91,2.91,0,0,1,1.59-.43,2.76,2.76,0,0,1,1.29.3,2.11,2.11,0,0,1,.89.83v-1Zm-2.51,4.59a2,2,0,0,0,.41-1.33,2,2,0,0,0-.41-1.34,1.64,1.64,0,0,0-2.32,0,2,2,0,0,0-.42,1.34,1.94,1.94,0,0,0,.42,1.32,1.63,1.63,0,0,0,2.32,0Z"/><path class="cls-1" d="M294.62,175.3h2.07l-4.15,9.38H290.4l1.32-2.89-2.83-6.49h2.2l1.73,4.37Z"/><path class="cls-7" d="M72.72,39.27A19.34,19.34,0,0,0,61.47,74.35l.05.05.07,0,0,0c.27.19.54.36.81.53l.63.38c.26.16.53.3.8.44s.52.26.79.39l.19.08.52.24c.51.21,1,.39,1.52.55l.28.08.18,0c.44.13.85.24,1.23.32l.48.1.12,0c.38.07.79.13,1.22.18l.14,0,.4.05c.68.06,1.24.09,1.78.09s1.12,0,1.78-.09l.4-.05.15,0c.43,0,.84-.11,1.22-.18l.11,0,.48-.1c.39-.08.79-.19,1.24-.32l.18,0,.28-.08c.5-.16,1-.34,1.52-.55l.51-.23.2-.09c.27-.13.53-.25.79-.39s.54-.28.8-.44L83,75c.27-.17.54-.34.8-.53l0,0,.07,0,0-.05A19.34,19.34,0,0,0,72.72,39.27Zm-4,27.94A3.27,3.27,0,0,0,68,65a6.48,6.48,0,0,1-1.09-2.89,1.78,1.78,0,0,0-1.12-1.43c-.31-.15-.63-.3-.75-1.87,0-.7.24-1,.3-1a.77.77,0,0,0,.42-.84s-.17-.95-.33-2.07C65,52,65,48.87,68.6,47.4s6.35-.44,6.61,0a1.11,1.11,0,0,0,.61.4l.15,0H76A3.87,3.87,0,0,1,78.92,49c1.5,1.75,1,6.48.75,8a.8.8,0,0,0,.4.83s.31.21.32.95c-.13,1.63-.45,1.79-.75,1.93a1.78,1.78,0,0,0-1.12,1.43A6.48,6.48,0,0,1,77.43,65a3.27,3.27,0,0,0-.71,2.18c0,3.36,1.29,5.09,5.06,6.71l-.1.06-.15.08-.48.28c-.39.2-.8.4-1.23.59l-.38.16-.16.06c-.31.12-.63.24-1,.35l-.11,0-.39.12c-.53.16-1,.29-1.45.38l-.15,0-.12,0c-.44.08-.88.15-1.33.2l-.43,0a14.54,14.54,0,0,1-3.23,0l-.43,0c-.45,0-.89-.12-1.33-.2l-.12,0-.15,0c-.44-.09-.92-.22-1.45-.38l-.43-.13-.07,0c-.33-.11-.65-.23-1-.35L66,75.1l-.39-.16c-.42-.18-.83-.38-1.22-.59l-.46-.27-.17-.1-.1,0C67.44,72.31,68.72,70.58,68.72,67.21Zm10-1.29a7.66,7.66,0,0,0,1.34-3.49c0-.19,0-.19.26-.3.76-.37,1.46-.89,1.64-3.28a2.81,2.81,0,0,0-.68-2c.24-1.63.78-6.59-1.16-8.84a5.31,5.31,0,0,0-3.84-1.74c-1.12-1.09-4.36-1.89-8.26-.3-4.67,1.88-4.65,5.92-4.11,9.22.1.66.2,1.28.27,1.67a3,3,0,0,0-.67,2.06c.18,2.33.88,2.85,1.64,3.22.22.11.22.11.25.3a7.75,7.75,0,0,0,1.35,3.49,1.83,1.83,0,0,1,.42,1.3c0,2.61-.7,4-5.06,5.65a17.8,17.8,0,1,1,21.25,0c-4.36-1.67-5.06-3-5.06-5.65A1.82,1.82,0,0,1,78.71,65.92Z"/><path class="cls-1" d="M39.1,98.11h4.54a3.62,3.62,0,0,1,2.51.81,3.33,3.33,0,0,1,0,4.53,3.58,3.58,0,0,1-2.51.82H41.29V108H39.1Zm4.26,4.5c1.09,0,1.64-.47,1.64-1.41a1.37,1.37,0,0,0-.41-1.08,1.86,1.86,0,0,0-1.23-.35H41.29v2.84Z"/><path class="cls-1" d="M57,108H54.64l-1.7-3.15a1.31,1.31,0,0,0-.51-.53,1.48,1.48,0,0,0-.74-.16H50.61V108H48.46V98.11H53a4,4,0,0,1,2.63.76,2.75,2.75,0,0,1,.89,2.2,2.83,2.83,0,0,1-.63,1.88,2.94,2.94,0,0,1-1.75,1,2.21,2.21,0,0,1,1.3,1.11Zm-3-5.82a1.49,1.49,0,0,0,0-2.07,2.31,2.31,0,0,0-1.36-.32H50.58v2.72h2.09A2.23,2.23,0,0,0,54,102.16Z"/><path class="cls-1" d="M60.18,107.48a4.23,4.23,0,0,1-1.67-1.76,6.4,6.4,0,0,1,0-5.37,4.15,4.15,0,0,1,1.67-1.75,5.57,5.57,0,0,1,5.11,0A4.15,4.15,0,0,1,67,100.35a6.4,6.4,0,0,1,0,5.37,4.23,4.23,0,0,1-1.67,1.76,5.57,5.57,0,0,1-5.11,0Zm4.49-1.94a4.79,4.79,0,0,0,0-5,2.35,2.35,0,0,0-1.94-.87,2.33,2.33,0,0,0-1.94.87,3.83,3.83,0,0,0-.7,2.49,4,4,0,0,0,.7,2.51,2.59,2.59,0,0,0,3.87,0Z"/><path class="cls-1" d="M69.22,98.11h3.83a6.13,6.13,0,0,1,2.78.58,4.15,4.15,0,0,1,1.77,1.7,6,6,0,0,1,0,5.3,4.09,4.09,0,0,1-1.77,1.7,6.15,6.15,0,0,1-2.79.59H69.22Zm3.68,8.1q3.15,0,3.15-3.18c0-2.1-1-3.16-3.15-3.16H71.4v6.34Z"/><path class="cls-1" d="M80.93,107a4.18,4.18,0,0,1-1.09-3.13V98.11H82V104a2.64,2.64,0,0,0,.54,1.79,2.29,2.29,0,0,0,3.13,0A2.61,2.61,0,0,0,86.2,104V98.11h2.14v5.79A4.16,4.16,0,0,1,87.25,107a4.32,4.32,0,0,1-3.17,1.08A4.26,4.26,0,0,1,80.93,107Z"/><path class="cls-1" d="M92.27,107.47a4.26,4.26,0,0,1-1.71-1.78,6.29,6.29,0,0,1,0-5.32,4.29,4.29,0,0,1,1.71-1.77A5.3,5.3,0,0,1,94.88,98a5.92,5.92,0,0,1,1.88.3,4,4,0,0,1,1.46.83l-.7,1.56a4.47,4.47,0,0,0-1.28-.72,4.15,4.15,0,0,0-1.32-.22,2.48,2.48,0,0,0-2,.84,3.74,3.74,0,0,0-.71,2.46,3.8,3.8,0,0,0,.71,2.48,2.48,2.48,0,0,0,2,.84,3.89,3.89,0,0,0,1.32-.22,4.67,4.67,0,0,0,1.28-.71l.7,1.55a4,4,0,0,1-1.46.83,5.92,5.92,0,0,1-1.88.3A5.2,5.2,0,0,1,92.27,107.47Z"/><path class="cls-1" d="M101.88,108v-8.1H98.79V98.11h8.37v1.77h-3.1V108Z"/><path class="cls-1" d="M48.19,124.28a4.23,4.23,0,0,1-1.67-1.76,6.4,6.4,0,0,1,0-5.37,4.15,4.15,0,0,1,1.67-1.75,5.57,5.57,0,0,1,5.11,0A4.15,4.15,0,0,1,55,117.15a6.4,6.4,0,0,1,0,5.37,4.23,4.23,0,0,1-1.67,1.76,5.57,5.57,0,0,1-5.11,0Zm4.49-1.94a4.8,4.8,0,0,0,0-5,2.38,2.38,0,0,0-1.95-.86,2.34,2.34,0,0,0-1.93.86,3.88,3.88,0,0,0-.7,2.5,4,4,0,0,0,.7,2.51,2.59,2.59,0,0,0,3.87,0Z"/><path class="cls-1" d="M69.25,114.91h2.07l-3.51,9.87H66.06l-2.28-6.54-2.31,6.54H59.72l-3.5-9.87h2.21l2.25,6.81,2.4-6.81H64.6l2.31,6.88Z"/><path class="cls-1" d="M79.08,114.91h2v9.87H79.5l-4.91-6.29v6.29h-2v-9.87h1.61l4.91,6.25Z"/><path class="cls-1" d="M83.08,124.78v-9.87h6.81v1.69H85.21v2.31h4.4v1.69h-4.4v2.48h4.68v1.7Z"/><path class="cls-1" d="M100,124.78H97.57l-1.7-3.15a1.31,1.31,0,0,0-.51-.53,1.48,1.48,0,0,0-.74-.16H93.54v3.84H91.39v-9.87h4.53a4,4,0,0,1,2.63.76,2.75,2.75,0,0,1,.89,2.2,2.83,2.83,0,0,1-.63,1.88,2.94,2.94,0,0,1-1.75,1,2.18,2.18,0,0,1,1.3,1.11ZM97,119a1.49,1.49,0,0,0,0-2.07,2.29,2.29,0,0,0-1.36-.32H93.51v2.72H95.6A2.21,2.21,0,0,0,97,119Z"/><path class="cls-1" d="M88.14,217a.77.77,0,0,0-.23-.56l-7-7a.81.81,0,0,0-1.38.57v6a1.82,1.82,0,0,0,1.82,1.81h5.17v28.38a.2.2,0,0,1-.2.2H60.92a.19.19,0,0,1-.19-.2V211.05a.19.19,0,0,1,.19-.2h15.4a.81.81,0,0,0,0-1.61H60.92a1.81,1.81,0,0,0-1.81,1.81v35.17A1.81,1.81,0,0,0,60.92,248H86.33a1.81,1.81,0,0,0,1.81-1.81Zm-6.78-.8a.21.21,0,0,1-.21-.2v-4l4.24,4.23Z"/><path class="cls-1" d="M81.71,221.73H73.6a.81.81,0,0,0,0,1.62h8.11a.81.81,0,1,0,0-1.62Z"/><path class="cls-1" d="M81.71,230H73.6a.81.81,0,0,0,0,1.61h8.11a.81.81,0,1,0,0-1.61Z"/><path class="cls-1" d="M78.73,238.27H73.65a.81.81,0,1,0,0,1.61h5.08a.81.81,0,1,0,0-1.61Z"/><path class="cls-1" d="M64.83,224.61a.72.72,0,0,0,.72.72h4.14a.71.71,0,0,0,.71-.72v-4.14a.71.71,0,0,0-.71-.71H65.55a.71.71,0,0,0-.72.71Zm1.43-3.43H69v2.72H66.26Z"/><path class="cls-1" d="M64.83,232.88a.71.71,0,0,0,.72.71h4.14a.71.71,0,0,0,.71-.71v-4.14a.71.71,0,0,0-.71-.72H65.55a.72.72,0,0,0-.72.72Zm1.43-3.43H69v2.71H66.26Z"/><path class="cls-1" d="M64.83,241.14a.72.72,0,0,0,.72.72h4.14a.71.71,0,0,0,.71-.72V237a.71.71,0,0,0-.71-.71H65.55a.71.71,0,0,0-.72.71Zm1.43-3.42H69v2.71H66.26Z"/><path class="cls-1" d="M26.29,279.37H23.91l-1.71-3.15a1.39,1.39,0,0,0-.5-.52,1.54,1.54,0,0,0-.75-.16H19.88v3.83H17.72V269.5h4.54a3.92,3.92,0,0,1,2.62.77,2.75,2.75,0,0,1,.89,2.2,2.9,2.9,0,0,1-.62,1.88,3,3,0,0,1-1.76,1,2.15,2.15,0,0,1,1.3,1.11Zm-3-5.81a1.49,1.49,0,0,0,0-2.07,2.29,2.29,0,0,0-1.36-.32H19.85v2.72h2.08A2.21,2.21,0,0,0,23.29,273.56Z"/><path class="cls-1" d="M27.53,279.37V269.5h6.81v1.7H29.66v2.31h4.4v1.69h-4.4v2.48h4.68v1.69Z"/><path class="cls-1" d="M43.35,279.28a2.48,2.48,0,0,1,.49.59l1,1.7-1.86.87-1.45-2.38a1.31,1.31,0,0,0-1.21-.56,5.07,5.07,0,0,1-2.55-.62,4.28,4.28,0,0,1-1.68-1.77,6.48,6.48,0,0,1,0-5.36A4.17,4.17,0,0,1,37.82,270a5,5,0,0,1,2.55-.62,5,5,0,0,1,2.56.62,4.15,4.15,0,0,1,1.67,1.75,5.82,5.82,0,0,1,.59,2.68,5.65,5.65,0,0,1-.64,2.78A4.08,4.08,0,0,1,42.74,279,1.56,1.56,0,0,1,43.35,279.28Zm-1-2.34a4.8,4.8,0,0,0,0-5,2.63,2.63,0,0,0-3.89,0,3.94,3.94,0,0,0-.69,2.5,3.89,3.89,0,0,0,.7,2.51,2.59,2.59,0,0,0,3.87,0Z"/><path class="cls-1" d="M47.88,278.43a4.22,4.22,0,0,1-1.08-3.13v-5.8h2.14v5.9a2.64,2.64,0,0,0,.54,1.79,2.27,2.27,0,0,0,3.13,0,2.63,2.63,0,0,0,.54-1.78v-5.9H55.3v5.8a4.19,4.19,0,0,1-1.1,3.12A4.29,4.29,0,0,1,51,279.5,4.35,4.35,0,0,1,47.88,278.43Z"/><path class="cls-1" d="M57.2,279.37V269.5h2.18v9.87Z"/><path class="cls-1" d="M69.91,279.37H67.53l-1.71-3.15a1.32,1.32,0,0,0-.5-.52,1.5,1.5,0,0,0-.74-.16H63.5v3.83H61.34V269.5h4.54a3.9,3.9,0,0,1,2.62.77,2.72,2.72,0,0,1,.89,2.2,2.84,2.84,0,0,1-.62,1.88,3,3,0,0,1-1.76,1,2.17,2.17,0,0,1,1.31,1.11Zm-3-5.81a1.49,1.49,0,0,0,0-2.07,2.31,2.31,0,0,0-1.36-.32H63.47v2.72h2.09A2.23,2.23,0,0,0,66.92,273.56Z"/><path class="cls-1" d="M71.16,279.37V269.5H78v1.7H73.29v2.31h4.39v1.69H73.29v2.48H78v1.69Z"/><path class="cls-1" d="M87.57,269.5h1.69v9.87H87.34v-5.85l-2.27,4.23h-1.4l-2.26-4.17v5.79H79.49V269.5h1.72l3.18,6Z"/><path class="cls-1" d="M91.25,279.37V269.5h6.8v1.7H93.37v2.31h4.4v1.69h-4.4v2.48h4.68v1.69Z"/><path class="cls-1" d="M106.07,269.5h2.05v9.87h-1.63l-4.91-6.28v6.28h-2V269.5h1.61l4.91,6.26Z"/><path class="cls-1" d="M112.36,279.37v-8.09h-3.09V269.5h8.37v1.78h-3.1v8.09Z"/><path class="cls-1" d="M119.81,279.2a5.26,5.26,0,0,1-1.73-.83l.71-1.56a5.42,5.42,0,0,0,3.2,1,2.75,2.75,0,0,0,1.42-.3.94.94,0,0,0,.5-.84.82.82,0,0,0-.46-.74,6,6,0,0,0-1.61-.52,8.73,8.73,0,0,1-2.08-.64,2.71,2.71,0,0,1-1.14-.93,2.56,2.56,0,0,1-.35-1.37,2.68,2.68,0,0,1,.49-1.59,3.3,3.3,0,0,1,1.4-1.1,5,5,0,0,1,2.07-.4,6.51,6.51,0,0,1,2,.31,4.12,4.12,0,0,1,1.55.82l-.7,1.56a4.74,4.74,0,0,0-2.86-1,2.37,2.37,0,0,0-1.34.33,1,1,0,0,0-.49.9.81.81,0,0,0,.19.56,1.51,1.51,0,0,0,.63.38,8.18,8.18,0,0,0,1.25.35,7,7,0,0,1,2.74,1.08,2.21,2.21,0,0,1,.83,1.82A2.62,2.62,0,0,1,125,278.7a5,5,0,0,1-3,.8A7.7,7.7,0,0,1,119.81,279.2Z"/><path class="cls-1" d="M57.85,296.17V286.3H60v8.1h4.41v1.77Z"/><path class="cls-1" d="M65.73,296.17V286.3h2.19v9.87Z"/><path class="cls-1" d="M71.18,296a5.11,5.11,0,0,1-1.72-.83l.7-1.56a5.42,5.42,0,0,0,3.2,1,2.75,2.75,0,0,0,1.42-.3.92.92,0,0,0,.5-.84.83.83,0,0,0-.45-.74,6.22,6.22,0,0,0-1.62-.52,8.73,8.73,0,0,1-2.08-.64,2.62,2.62,0,0,1-1.13-.93,2.47,2.47,0,0,1-.36-1.37,2.62,2.62,0,0,1,.5-1.59,3.21,3.21,0,0,1,1.39-1.1,5,5,0,0,1,2.07-.4,6.51,6.51,0,0,1,2,.31,4.12,4.12,0,0,1,1.55.82l-.7,1.56a4.72,4.72,0,0,0-2.86-1,2.37,2.37,0,0,0-1.34.33,1,1,0,0,0-.49.9.81.81,0,0,0,.19.56,1.66,1.66,0,0,0,.63.38,8.18,8.18,0,0,0,1.25.35,7,7,0,0,1,2.74,1.08,2.21,2.21,0,0,1,.83,1.82,2.62,2.62,0,0,1-1.08,2.21,5,5,0,0,1-3,.8A7.7,7.7,0,0,1,71.18,296Z"/><path class="cls-1" d="M81.06,296.17v-8.09H78V286.3h8.37v1.78H83.25v8.09Z"/><path class="cls-4" d="M364,165.49l-11.17,11.17V150.07L364,161.25A3,3,0,0,1,364,165.49Z"/><path class="cls-2" d="M70.6,166,59.43,154.87H86L74.85,166A3,3,0,0,1,70.6,166Z"/><path class="cls-4" d="M879.19,165.49,868,176.66V150.07l11.18,11.18A3,3,0,0,1,879.19,165.49Z"/><path class="cls-1" d="M879.12,368.81,878,367.69a3.08,3.08,0,0,0-4.33,0l-.94.95v-5.56a1.93,1.93,0,0,0-1.93-1.93H851.33a.82.82,0,0,0-.57.24l-7.85,7.85a.79.79,0,0,0-.23.56v28.39a1.93,1.93,0,0,0,1.92,1.93h26.2a1.93,1.93,0,0,0,1.93-1.93V385a.81.81,0,0,0-1.61,0v13.21a.32.32,0,0,1-.32.32H844.6a.32.32,0,0,1-.32-.32V370.61h5.92a1.93,1.93,0,0,0,1.93-1.93v-5.92H870.8a.32.32,0,0,1,.32.32v7.16l0,0-6.3,6.3H849.37a.81.81,0,0,0-.8.81.8.8,0,0,0,.8.8h13.81l-6,6h-7.81a.81.81,0,0,0,0,1.61h6.21l-.26.25a1,1,0,0,0-.21.36l-1.49,5.38h-4.25a.8.8,0,1,0,0,1.6h5l.1,0,6-1.66a.84.84,0,0,0,.35-.21l18.36-18.35a3.08,3.08,0,0,0,0-4.33Zm-28.59-.13a.32.32,0,0,1-.33.32h-4.78l5.11-5.11Zm4.85,22.75.91-3.27,2.36,2.36Zm20.06-16.89-15.25,15.25L857,386.62l.11-.11,15.25-15.25,3.17,3.17ZM878,372l-1.29,1.3-3.18-3.18,1.3-1.29a1.42,1.42,0,0,1,1-.43,1.44,1.44,0,0,1,1,.43l1.11,1.11A1.45,1.45,0,0,1,878,372Z"/><rect class="cls-7" x="851.57" y="157.27" width="11.96" height="11.96" rx="2.58" transform="translate(366.61 -558.57) rotate(45)"/><rect class="cls-7" x="857.05" y="168.37" width="1" height="178.63"/><path class="cls-1" d="M362.67,368.81l-1.11-1.12a3.08,3.08,0,0,0-4.33,0l-.94.95v-5.56a1.94,1.94,0,0,0-1.93-1.93H334.88a.8.8,0,0,0-.56.24l-7.85,7.85a.8.8,0,0,0-.24.56v28.39a1.94,1.94,0,0,0,1.93,1.93h26.2a1.94,1.94,0,0,0,1.93-1.93V385a.81.81,0,0,0-1.61,0v13.21a.32.32,0,0,1-.32.32h-26.2a.32.32,0,0,1-.32-.32V370.61h5.92a1.94,1.94,0,0,0,1.93-1.93v-5.92h18.67a.32.32,0,0,1,.32.32v7.16l-.05,0-6.3,6.3H332.93a.81.81,0,0,0-.8.81.8.8,0,0,0,.8.8h13.8l-6,6h-7.81a.81.81,0,0,0,0,1.61h6.21l-.26.25a.83.83,0,0,0-.21.36l-1.5,5.38h-4.24a.8.8,0,0,0,0,1.6h5l.09,0,6-1.66a.82.82,0,0,0,.36-.21l18.35-18.35a3.05,3.05,0,0,0,0-4.33Zm-28.59-.13a.32.32,0,0,1-.32.32H329l5.11-5.11Zm4.86,22.75.91-3.27,2.36,2.36ZM359,374.54l-15.25,15.25-3.17-3.17.1-.11,15.25-15.25,3.18,3.17Zm2.54-2.54-1.3,1.3-3.17-3.18,1.3-1.29a1.44,1.44,0,0,1,2.05,0l1.12,1.11A1.45,1.45,0,0,1,361.54,372Z"/><rect class="cls-7" x="336.15" y="157.27" width="11.96" height="11.96" rx="2.58" transform="translate(215.64 -194.11) rotate(45)"/><rect class="cls-7" x="341.64" y="168.37" width="1" height="178.63"/><path class="cls-1" d="M311.2,430.08a5,5,0,0,1-1.72-.83l.7-1.55a5.49,5.49,0,0,0,3.2,1,2.82,2.82,0,0,0,1.43-.3.93.93,0,0,0,.49-.83.84.84,0,0,0-.45-.75,6.17,6.17,0,0,0-1.62-.51,8.69,8.69,0,0,1-2.08-.65,2.68,2.68,0,0,1-1.13-.93,2.44,2.44,0,0,1-.36-1.36,2.71,2.71,0,0,1,.5-1.6,3.29,3.29,0,0,1,1.39-1.1,5.16,5.16,0,0,1,2.07-.4,6.89,6.89,0,0,1,2,.31,4.16,4.16,0,0,1,1.54.83l-.7,1.55a4.74,4.74,0,0,0-2.85-1,2.41,2.41,0,0,0-1.35.33,1,1,0,0,0-.49.9.83.83,0,0,0,.19.55,1.55,1.55,0,0,0,.63.39,10,10,0,0,0,1.25.35,7.08,7.08,0,0,1,2.74,1.07,2.18,2.18,0,0,1,.83,1.82,2.6,2.6,0,0,1-1.07,2.21,4.94,4.94,0,0,1-3,.8A7.37,7.37,0,0,1,311.2,430.08Z"/><path class="cls-1" d="M319,420.39h4.54a3.58,3.58,0,0,1,2.5.81,3.31,3.31,0,0,1,0,4.54,3.58,3.58,0,0,1-2.5.81H321.2v3.71H319Zm4.26,4.51c1.09,0,1.64-.47,1.64-1.42a1.34,1.34,0,0,0-.41-1.07,1.81,1.81,0,0,0-1.23-.36H321.2v2.85Z"/><path class="cls-1" d="M336.93,430.26h-2.38l-1.71-3.15a1.35,1.35,0,0,0-.5-.53,1.62,1.62,0,0,0-.74-.16h-1.08v3.84h-2.16v-9.87h4.54a4,4,0,0,1,2.63.76,2.76,2.76,0,0,1,.88,2.21,2.81,2.81,0,0,1-.62,1.87,3,3,0,0,1-1.76,1,2.18,2.18,0,0,1,1.31,1.1Zm-3-5.82a1.22,1.22,0,0,0,.42-1,1.21,1.21,0,0,0-.42-1,2.23,2.23,0,0,0-1.36-.33h-2.09v2.72h2.09A2.23,2.23,0,0,0,333.94,424.44Z"/><path class="cls-1" d="M338.18,430.26v-9.87h2.18v9.87Z"/><path class="cls-1" d="M348.85,420.39h2v9.87h-1.62L344.35,424v6.29h-2v-9.87h1.61l4.92,6.26Z"/><path class="cls-1" d="M355.13,430.26v-8.09H352v-1.78h8.37v1.78h-3.09v8.09Z"/><path class="cls-1" d="M366,429.08a6.34,6.34,0,0,1-.95-3.76,6.24,6.24,0,0,1,.95-3.73,3.52,3.52,0,0,1,5.46,0,6.17,6.17,0,0,1,1,3.73,6.34,6.34,0,0,1-.95,3.76,3.53,3.53,0,0,1-5.47,0Zm3.92-1.17a6.81,6.81,0,0,0,.37-2.59,6.6,6.6,0,0,0-.37-2.56,1.28,1.28,0,0,0-2.37,0,6.42,6.42,0,0,0-.37,2.56,6.62,6.62,0,0,0,.37,2.59,1.27,1.27,0,0,0,2.37,0Z"/><path class="cls-1" d="M309.58,447.06H307.2l-1.7-3.15a1.37,1.37,0,0,0-.51-.53,1.59,1.59,0,0,0-.74-.16h-1.08v3.84H301v-9.87h4.53a4,4,0,0,1,2.63.76,2.77,2.77,0,0,1,.89,2.21,2.82,2.82,0,0,1-.63,1.87,3,3,0,0,1-1.75,1,2.19,2.19,0,0,1,1.3,1.1Zm-3-5.82a1.22,1.22,0,0,0,.42-1,1.21,1.21,0,0,0-.42-1,2.23,2.23,0,0,0-1.36-.32h-2.09v2.71h2.09A2.23,2.23,0,0,0,306.59,441.24Z"/><path class="cls-1" d="M310.83,447.06v-9.87h6.8v1.69H313v2.31h4.39v1.7H313v2.48h4.67v1.69Z"/><path class="cls-1" d="M319.13,437.19h4.54a3.58,3.58,0,0,1,2.5.81,3.31,3.31,0,0,1,0,4.54,3.58,3.58,0,0,1-2.5.81h-2.35v3.71h-2.19Zm4.26,4.51c1.09,0,1.64-.47,1.64-1.42a1.34,1.34,0,0,0-.41-1.07,1.81,1.81,0,0,0-1.23-.35h-2.07v2.84Z"/><path class="cls-1" d="M330.46,446.56a4.18,4.18,0,0,1-1.67-1.76,6.38,6.38,0,0,1,0-5.36,4.18,4.18,0,0,1,1.67-1.76,5.13,5.13,0,0,1,2.56-.62,5.07,5.07,0,0,1,2.55.62,4.14,4.14,0,0,1,1.68,1.76,6.38,6.38,0,0,1,0,5.36,4.14,4.14,0,0,1-1.68,1.76,5,5,0,0,1-2.55.63A5,5,0,0,1,330.46,446.56Zm4.5-1.94a3.88,3.88,0,0,0,.71-2.5,3.92,3.92,0,0,0-.7-2.5,2.36,2.36,0,0,0-2-.86,2.33,2.33,0,0,0-1.94.86,3.92,3.92,0,0,0-.69,2.5,3.88,3.88,0,0,0,.7,2.5,2.33,2.33,0,0,0,1.93.87A2.37,2.37,0,0,0,335,444.62Z"/><path class="cls-1" d="M348.07,447.06h-2.38L344,443.91a1.43,1.43,0,0,0-.5-.53,1.67,1.67,0,0,0-.75-.16h-1.07v3.84H339.5v-9.87H344a3.92,3.92,0,0,1,2.62.76,2.77,2.77,0,0,1,.89,2.21,2.87,2.87,0,0,1-.62,1.87,3,3,0,0,1-1.76,1,2.17,2.17,0,0,1,1.3,1.1Zm-3-5.82a1.22,1.22,0,0,0,.42-1,1.21,1.21,0,0,0-.42-1,2.21,2.21,0,0,0-1.36-.32h-2.08v2.71h2.08A2.21,2.21,0,0,0,345.07,441.24Z"/><path class="cls-1" d="M351.32,447.06V439h-3.1v-1.78h8.38V439h-3.1v8.09Z"/><path class="cls-1" d="M357.74,447.06v-9.87h2.19v9.87Z"/><path class="cls-1" d="M368.41,437.19h2v9.87h-1.62l-4.91-6.29v6.29h-2v-9.87h1.61l4.91,6.26Z"/><path class="cls-1" d="M380.9,441.61v4.83a6.76,6.76,0,0,1-1.68.55,10,10,0,0,1-2,.2,5.76,5.76,0,0,1-2.71-.61,4.21,4.21,0,0,1-1.77-1.75,6.31,6.31,0,0,1,0-5.39,4.24,4.24,0,0,1,1.75-1.76,5.42,5.42,0,0,1,2.64-.62,6.32,6.32,0,0,1,2,.3,4.16,4.16,0,0,1,1.52.81l-.68,1.55a5.24,5.24,0,0,0-1.34-.7,4.25,4.25,0,0,0-1.41-.22c-1.9,0-2.85,1.1-2.85,3.32a3.73,3.73,0,0,0,.74,2.55,2.86,2.86,0,0,0,2.24.84,5.9,5.9,0,0,0,1.61-.22v-2.17H377v-1.51Z"/><rect class="cls-4" x="952.05" y="224.71" width="113.25" height="71.67"/><rect class="cls-4" x="952.05" y="122.71" width="113.25" height="71.67"/><path class="cls-1" d="M987.25,264.58h-2.38l-1.71-3.15a1.39,1.39,0,0,0-.5-.52,1.5,1.5,0,0,0-.74-.16h-1.08v3.83h-2.16v-9.87h4.54a3.9,3.9,0,0,1,2.62.77,2.72,2.72,0,0,1,.89,2.2,2.84,2.84,0,0,1-.62,1.88,3,3,0,0,1-1.76,1,2.17,2.17,0,0,1,1.31,1.11Zm-3-5.81a1.49,1.49,0,0,0,0-2.07,2.27,2.27,0,0,0-1.35-.32h-2.09v2.72h2.09A2.19,2.19,0,0,0,984.25,258.77Z"/><path class="cls-1" d="M988.5,264.58v-9.87h6.8v1.7h-4.68v2.31H995v1.69h-4.4v2.48h4.68v1.69Z"/><path class="cls-1" d="M996.8,264.58v-9.87H999v8.1h4.41v1.77Z"/><path class="cls-1" d="M1004.68,264.58v-9.87h6.8v1.7h-4.67v2.31h4.39v1.69h-4.39v2.48h4.67v1.69Z"/><path class="cls-1" d="M1020.37,264.58l-.93-2.18h-4.6l-.93,2.18h-2.2l4.53-9.87H1018l4.54,9.87Zm-4.81-3.83h3.16l-1.58-3.7Z"/><path class="cls-1" d="M1024.52,264.41a5.11,5.11,0,0,1-1.72-.83l.7-1.56a5.42,5.42,0,0,0,3.2,1,2.75,2.75,0,0,0,1.42-.3.94.94,0,0,0,.5-.84.82.82,0,0,0-.46-.74,6,6,0,0,0-1.61-.52,8.73,8.73,0,0,1-2.08-.64,2.71,2.71,0,0,1-1.14-.93,2.56,2.56,0,0,1-.35-1.37,2.68,2.68,0,0,1,.49-1.59,3.3,3.3,0,0,1,1.4-1.1,5,5,0,0,1,2.07-.4,6.51,6.51,0,0,1,2,.31,4.12,4.12,0,0,1,1.55.82l-.7,1.56a4.74,4.74,0,0,0-2.86-1,2.37,2.37,0,0,0-1.34.33,1,1,0,0,0-.49.9.81.81,0,0,0,.19.56,1.66,1.66,0,0,0,.63.38,8.18,8.18,0,0,0,1.25.35,7,7,0,0,1,2.74,1.08,2.21,2.21,0,0,1,.83,1.82,2.62,2.62,0,0,1-1.08,2.21,5,5,0,0,1-3,.8A7.7,7.7,0,0,1,1024.52,264.41Z"/><path class="cls-1" d="M1032.33,264.58v-9.87h6.8v1.7h-4.67v2.31h4.39v1.69h-4.39v2.48h4.67v1.69Z"/><path class="cls-1" d="M970.9,154.18,970,152h-4.59l-.94,2.18h-2.2l4.54-9.87h1.75l4.53,9.87Zm-4.82-3.83h3.17l-1.59-3.7Z"/><path class="cls-1" d="M975.62,153.68a4.17,4.17,0,0,1-1.7-1.78,6.2,6.2,0,0,1,0-5.32,4.21,4.21,0,0,1,1.7-1.77,5.36,5.36,0,0,1,2.61-.62,5.88,5.88,0,0,1,1.88.3,4,4,0,0,1,1.47.83l-.7,1.56a4.75,4.75,0,0,0-1.28-.72,4,4,0,0,0-1.32-.22,2.51,2.51,0,0,0-2,.84,4.69,4.69,0,0,0,0,4.93,2.48,2.48,0,0,0,2,.85,4,4,0,0,0,1.32-.22,4.75,4.75,0,0,0,1.28-.72l.7,1.56a4,4,0,0,1-1.47.83,5.88,5.88,0,0,1-1.88.3A5.25,5.25,0,0,1,975.62,153.68Z"/><path class="cls-1" d="M984.91,153.68a4.14,4.14,0,0,1-1.71-1.78,6.2,6.2,0,0,1,0-5.32,4.17,4.17,0,0,1,1.71-1.77,5.3,5.3,0,0,1,2.61-.62,5.81,5.81,0,0,1,1.87.3,4,4,0,0,1,1.47.83l-.7,1.56a4.6,4.6,0,0,0-1.28-.72,3.89,3.89,0,0,0-1.32-.22,2.48,2.48,0,0,0-2,.84,4.63,4.63,0,0,0,0,4.93,2.46,2.46,0,0,0,2,.85,3.89,3.89,0,0,0,1.32-.22,4.6,4.6,0,0,0,1.28-.72l.7,1.56a4,4,0,0,1-1.47.83,5.81,5.81,0,0,1-1.87.3A5.2,5.2,0,0,1,984.91,153.68Z"/><path class="cls-1" d="M992.37,154.18v-9.87h6.81V146H994.5v2.31h4.4V150h-4.4v2.48h4.68v1.69Z"/><path class="cls-1" d="M1000.68,144.31h4.53a3.56,3.56,0,0,1,2.51.82,3.33,3.33,0,0,1,0,4.53,3.61,3.61,0,0,1-2.51.81h-2.35v3.71h-2.18Zm4.25,4.51c1.09,0,1.64-.47,1.64-1.41a1.34,1.34,0,0,0-.41-1.08,1.86,1.86,0,0,0-1.23-.35h-2.07v2.84Z"/><path class="cls-1" d="M1012.1,154.18v-8.09H1009v-1.78h8.37v1.78h-3.1v8.09Z"/><path class="cls-1" d="M1024.8,154.18l-.94-2.18h-4.59l-.94,2.18h-2.2l4.54-9.87h1.75l4.53,9.87Zm-4.82-3.83h3.17l-1.59-3.7Z"/><path class="cls-1" d="M1034.3,144.31h2v9.87h-1.63l-4.91-6.28v6.28h-2v-9.87h1.61l4.91,6.26Z"/><path class="cls-1" d="M1040.33,153.68a4.26,4.26,0,0,1-1.71-1.78,6.29,6.29,0,0,1,0-5.32,4.29,4.29,0,0,1,1.71-1.77,5.3,5.3,0,0,1,2.61-.62,5.88,5.88,0,0,1,1.88.3,4,4,0,0,1,1.47.83l-.7,1.56a4.75,4.75,0,0,0-1.28-.72,4,4,0,0,0-1.33-.22,2.5,2.5,0,0,0-2,.84,4.63,4.63,0,0,0,0,4.93,2.47,2.47,0,0,0,2,.85,4,4,0,0,0,1.33-.22,4.75,4.75,0,0,0,1.28-.72l.7,1.56a4,4,0,0,1-1.47.83,5.88,5.88,0,0,1-1.88.3A5.2,5.2,0,0,1,1040.33,153.68Z"/><path class="cls-1" d="M1047.8,154.18v-9.87h6.8V146h-4.67v2.31h4.39V150h-4.39v2.48h4.67v1.69Z"/><path class="cls-1" d="M990.36,171v-8.09h-3.1v-1.78h8.38v1.78h-3.1V171Z"/><path class="cls-1" d="M996.78,171v-9.87h6.81v1.7h-4.68v2.31h4.4v1.69h-4.4v2.48h4.68V171Z"/><path class="cls-1" d="M1006.25,170.81a5.11,5.11,0,0,1-1.72-.83l.7-1.56a5.49,5.49,0,0,0,3.2,1,2.75,2.75,0,0,0,1.42-.3,1,1,0,0,0,.5-.84.82.82,0,0,0-.45-.74,6.22,6.22,0,0,0-1.62-.52,9.22,9.22,0,0,1-2.08-.64,2.69,2.69,0,0,1-1.13-.93,2.47,2.47,0,0,1-.36-1.37,2.65,2.65,0,0,1,.49-1.59,3.3,3.3,0,0,1,1.4-1.1,5,5,0,0,1,2.07-.4,6.81,6.81,0,0,1,2,.3,4.28,4.28,0,0,1,1.55.83l-.7,1.56a4.74,4.74,0,0,0-2.86-1,2.37,2.37,0,0,0-1.34.33,1,1,0,0,0-.49.9.81.81,0,0,0,.19.56,1.66,1.66,0,0,0,.63.38,9.54,9.54,0,0,0,1.25.35,7,7,0,0,1,2.74,1.08,2.21,2.21,0,0,1,.83,1.82,2.59,2.59,0,0,1-1.08,2.2,4.9,4.9,0,0,1-3,.81A7.7,7.7,0,0,1,1006.25,170.81Z"/><path class="cls-1" d="M1016.13,171v-8.09H1013v-1.78h8.37v1.78h-3.09V171Z"/><path class="cls-1" d="M1023.58,170.81a5.2,5.2,0,0,1-1.72-.83l.7-1.56a5.49,5.49,0,0,0,3.2,1,2.82,2.82,0,0,0,1.43-.3.94.94,0,0,0,.49-.84.82.82,0,0,0-.45-.74,6.22,6.22,0,0,0-1.62-.52,9.22,9.22,0,0,1-2.08-.64,2.75,2.75,0,0,1-1.13-.93,2.47,2.47,0,0,1-.36-1.37,2.66,2.66,0,0,1,.5-1.59,3.21,3.21,0,0,1,1.39-1.1,5,5,0,0,1,2.07-.4,6.88,6.88,0,0,1,2,.3,4.31,4.31,0,0,1,1.54.83l-.7,1.56a4.69,4.69,0,0,0-2.85-1,2.41,2.41,0,0,0-1.35.33,1,1,0,0,0-.49.9.86.86,0,0,0,.19.56,1.66,1.66,0,0,0,.63.38,10,10,0,0,0,1.25.35,6.91,6.91,0,0,1,2.74,1.08,2.18,2.18,0,0,1,.83,1.82,2.6,2.6,0,0,1-1.07,2.2,4.94,4.94,0,0,1-3,.81A7.72,7.72,0,0,1,1023.58,170.81Z"/><path class="cls-1" d="M1003.69,51.28l-.94-2.18h-4.59l-.94,2.18H995l4.54-9.87h1.75l4.53,9.87Zm-4.82-3.84H1002l-1.59-3.69Z"/><path class="cls-1" d="M1006.67,51.28V41.41h2.18V49.5h4.41v1.78Z"/><path class="cls-1" d="M1014.55,51.28V41.41h2.18V49.5h4.41v1.78Z"/><path class="cls-1" d="M952.77,68.08V58.21h6.66v1.72h-4.5V62.2h4.22v1.72h-4.22v4.16Z"/><path class="cls-1" d="M961.81,67.13A4.16,4.16,0,0,1,960.72,64v-5.8h2.14V64.1a2.65,2.65,0,0,0,.54,1.8,2,2,0,0,0,1.56.61,2,2,0,0,0,1.57-.62,2.61,2.61,0,0,0,.55-1.79V58.21h2.14V64a4.19,4.19,0,0,1-1.09,3.12A4.33,4.33,0,0,1,965,68.21,4.27,4.27,0,0,1,961.81,67.13Z"/><path class="cls-1" d="M977.65,58.21h2v9.87h-1.62l-4.92-6.29v6.29h-2V58.21h1.61l4.92,6.26Z"/><path class="cls-1" d="M983.67,67.58A4.23,4.23,0,0,1,982,65.8a6.2,6.2,0,0,1,0-5.32,4.09,4.09,0,0,1,1.7-1.77,5.26,5.26,0,0,1,2.62-.63,5.86,5.86,0,0,1,1.87.3,4,4,0,0,1,1.47.84l-.7,1.55a4.82,4.82,0,0,0-1.28-.71,3.94,3.94,0,0,0-1.32-.23,2.52,2.52,0,0,0-2,.84,4.71,4.71,0,0,0,0,4.94,2.53,2.53,0,0,0,2,.85,3.94,3.94,0,0,0,1.32-.23,4.82,4.82,0,0,0,1.28-.71l.7,1.55a4,4,0,0,1-1.47.84,5.86,5.86,0,0,1-1.87.3A5.26,5.26,0,0,1,983.67,67.58Z"/><path class="cls-1" d="M993.29,68.08V60h-3.1V58.21h8.37V60h-3.09v8.09Z"/><path class="cls-1" d="M999.71,68.08V58.21h2.19v9.87Z"/><path class="cls-1" d="M1005.84,67.58a4.14,4.14,0,0,1-1.68-1.76,6.48,6.48,0,0,1,0-5.36,4.14,4.14,0,0,1,1.68-1.76,5.07,5.07,0,0,1,2.55-.62,5.13,5.13,0,0,1,2.56.62,4.18,4.18,0,0,1,1.67,1.76,6.38,6.38,0,0,1,0,5.36,4.18,4.18,0,0,1-1.67,1.76,5,5,0,0,1-2.56.63A5,5,0,0,1,1005.84,67.58Zm4.49-1.94a3.86,3.86,0,0,0,.71-2.5,3.92,3.92,0,0,0-.7-2.5,2.39,2.39,0,0,0-2-.86,2.36,2.36,0,0,0-1.94.86,3.92,3.92,0,0,0-.69,2.5,3.86,3.86,0,0,0,.7,2.5,2.59,2.59,0,0,0,3.87,0Z"/><path class="cls-1" d="M1021.4,58.21h2v9.87h-1.62l-4.92-6.29v6.29h-2V58.21h1.61l4.92,6.26Z"/><path class="cls-1" d="M1032.93,68.08,1032,65.9h-4.6l-.94,2.18h-2.19l4.53-9.87h1.75l4.54,9.87Zm-4.81-3.84h3.16l-1.58-3.69Z"/><path class="cls-1" d="M1035.91,68.08V58.21h2.19V66.3h4.41v1.78Z"/><path class="cls-1" d="M1043.8,68.08V58.21H1046v9.87Z"/><path class="cls-1" d="M1050.22,68.08V60h-3.09V58.21h8.37V60h-3.09v8.09Z"/><path class="cls-1" d="M1065.57,58.21l-4.09,5.4v4.47h-2.19V63.61l-4.07-5.4h2.48l2.67,3.65,2.72-3.65Z"/><path class="cls-1" d="M974,84.88V75h2.18v9.87Z"/><path class="cls-1" d="M979.43,84.71a5.17,5.17,0,0,1-1.73-.84l.7-1.55a5.52,5.52,0,0,0,3.21,1A2.75,2.75,0,0,0,983,83a.94.94,0,0,0,.5-.83.8.8,0,0,0-.46-.74,6,6,0,0,0-1.62-.52,8.6,8.6,0,0,1-2.07-.65,2.71,2.71,0,0,1-1.14-.93,2.44,2.44,0,0,1-.35-1.36,2.71,2.71,0,0,1,.49-1.6,3.4,3.4,0,0,1,1.4-1.1,5.09,5.09,0,0,1,2.07-.4,6.82,6.82,0,0,1,2,.31,4.21,4.21,0,0,1,1.55.83l-.7,1.55a4.79,4.79,0,0,0-2.86-1,2.35,2.35,0,0,0-1.34.33,1,1,0,0,0-.49.9.78.78,0,0,0,.19.55,1.42,1.42,0,0,0,.63.39,9.54,9.54,0,0,0,1.25.35,7,7,0,0,1,2.74,1.08,2.18,2.18,0,0,1,.83,1.82,2.6,2.6,0,0,1-1.08,2.2,4.92,4.92,0,0,1-3,.81A7.65,7.65,0,0,1,979.43,84.71Z"/><path class="cls-1" d="M993.42,84.88V76.79h-3.09V75h8.37v1.78h-3.09v8.09Z"/><path class="cls-1" d="M999.85,84.88V75h6.81V76.7H1002V79h4.39v1.7H1002v2.48h4.68v1.69Z"/><path class="cls-1" d="M1009.31,84.71a5.21,5.21,0,0,1-1.72-.84l.7-1.55a5.49,5.49,0,0,0,3.21,1,2.78,2.78,0,0,0,1.42-.3.94.94,0,0,0,.5-.83.82.82,0,0,0-.46-.74,6,6,0,0,0-1.62-.52,8.6,8.6,0,0,1-2.07-.65,2.71,2.71,0,0,1-1.14-.93,2.44,2.44,0,0,1-.36-1.36,2.71,2.71,0,0,1,.5-1.6,3.43,3.43,0,0,1,1.39-1.1,5.18,5.18,0,0,1,2.08-.4,6.82,6.82,0,0,1,2,.31,4.21,4.21,0,0,1,1.55.83l-.7,1.55a4.79,4.79,0,0,0-2.86-1,2.35,2.35,0,0,0-1.34.33,1,1,0,0,0-.49.9.78.78,0,0,0,.19.55,1.42,1.42,0,0,0,.63.39,9.54,9.54,0,0,0,1.25.35,7,7,0,0,1,2.74,1.08,2.18,2.18,0,0,1,.83,1.82,2.6,2.6,0,0,1-1.08,2.2,4.92,4.92,0,0,1-3,.81A7.72,7.72,0,0,1,1009.31,84.71Z"/><path class="cls-1" d="M1019.2,84.88V76.79h-3.1V75h8.38v1.78h-3.1v8.09Z"/><path class="cls-1" d="M1025.62,84.88V75h6.81V76.7h-4.68V79h4.4v1.7h-4.4v2.48h4.68v1.69Z"/><path class="cls-1" d="M1033.93,75h3.83a6.09,6.09,0,0,1,2.77.59,4,4,0,0,1,1.78,1.69,5.38,5.38,0,0,1,.62,2.65,5.52,5.52,0,0,1-.61,2.65,4.09,4.09,0,0,1-1.77,1.7,6.17,6.17,0,0,1-2.79.59h-3.83Zm3.68,8.11q3.15,0,3.15-3.18t-3.15-3.17h-1.5v6.35Z"/><path class="cls-2" d="M1237.23,326.67H1120.88a2.37,2.37,0,0,1-2.38-2.38h0V2.42a2.36,2.36,0,0,1,2.38-2.37h116.35a2.36,2.36,0,0,1,2.37,2.37h0V324.29a2.36,2.36,0,0,1-2.37,2.38Z"/><path class="cls-7" d="M1196.6,134.48h-4.86a.76.76,0,0,0-.75.76V156h-1.52V140.27a.76.76,0,0,0-.76-.76h-4.86a.76.76,0,0,0-.76.76V156h-1.52V145.58a.76.76,0,0,0-.76-.75H1176a.76.76,0,0,0-.76.75V156h-1.52v-6.05a.76.76,0,0,0-.76-.76h-4.86a.76.76,0,0,0-.75.76V156h-6.53a.76.76,0,0,1-.76-.76V120.91a.76.76,0,0,1,.76-.76h19.58v5a2.29,2.29,0,0,0,2.28,2.28h5v9.34a.76.76,0,0,0,1.52,0v-10.1a.77.77,0,0,0-.22-.54l-7.29-7.29a.77.77,0,0,0-.54-.22h-20.34a2.28,2.28,0,0,0-2.28,2.28v34.32a2.29,2.29,0,0,0,2.28,2.28h35.83a.76.76,0,0,0,.76-.76V135.24A.76.76,0,0,0,1196.6,134.48Zm-14.73-13.26,4.7,4.7h-3.94a.76.76,0,0,1-.76-.76ZM1172.16,156h-3.35V150.7h3.35Zm7.89,0h-3.34v-9.65h3.34Zm7.9,0h-3.34V141H1188Zm7.89,0h-3.34V136h3.34Z"/><path class="cls-7" d="M1169.54,122.79a.76.76,0,0,0-.76.76v1.36a7,7,0,1,0,7.7,7.7h1.37a.76.76,0,0,0,.76-.76A9.07,9.07,0,0,0,1169.54,122.79Zm0,14.53a5.47,5.47,0,0,1-.76-10.88v5.41a.76.76,0,0,0,.76.76H1175A5.47,5.47,0,0,1,1169.54,137.32Zm.76-6.23h0v-6.75a7.56,7.56,0,0,1,6.75,6.75Z"/><path class="cls-7" d="M1177.85,141h-14.5a.76.76,0,1,0,0,1.52h14.5a.76.76,0,0,0,0-1.52Z"/><path class="cls-7" d="M1172.21,144.64h-8.86a.76.76,0,1,0,0,1.51h8.86a.76.76,0,1,0,0-1.51Z"/><path class="cls-1" d="M1160.13,187.44v-9.87h6.66v1.72h-4.5v2.27h4.22v1.72h-4.22v4.16Z"/><path class="cls-1" d="M1168.14,187.44v-9.87h2.18v9.87Z"/><path class="cls-1" d="M1178.8,177.57h2v9.87h-1.63l-4.91-6.29v6.29h-2v-9.87h1.61l4.91,6.25Z"/><path class="cls-1" d="M1190.34,187.44l-.94-2.19h-4.59l-.94,2.19h-2.2l4.54-9.87H1188l4.54,9.87Zm-4.82-3.84h3.17l-1.58-3.7Z"/><path class="cls-1" d="M1193.32,187.44v-9.87h2.19v8.09h4.41v1.78Z"/><path class="cls-1" d="M1160.87,204.24h-2.38l-1.71-3.15a1.35,1.35,0,0,0-.5-.53,1.53,1.53,0,0,0-.74-.16h-1.08v3.84h-2.16v-9.87h4.54a3.9,3.9,0,0,1,2.62.76,2.72,2.72,0,0,1,.89,2.2,2.88,2.88,0,0,1-.62,1.88,3,3,0,0,1-1.76,1,2.13,2.13,0,0,1,1.3,1.11Zm-3-5.82a1.49,1.49,0,0,0,0-2.07,2.27,2.27,0,0,0-1.35-.32h-2.09v2.72h2.09A2.19,2.19,0,0,0,1157.87,198.42Z"/><path class="cls-1" d="M1162.12,204.24v-9.87h6.8v1.69h-4.68v2.31h4.4v1.69h-4.4v2.48h4.68v1.7Z"/><path class="cls-1" d="M1170.42,194.37H1175a3.61,3.61,0,0,1,2.51.81,3.3,3.3,0,0,1,0,4.53,3.56,3.56,0,0,1-2.51.82h-2.35v3.71h-2.18Zm4.25,4.5c1.1,0,1.64-.47,1.64-1.41a1.37,1.37,0,0,0-.4-1.08,1.89,1.89,0,0,0-1.24-.35h-2.07v2.84Z"/><path class="cls-1" d="M1181.75,203.74a4.23,4.23,0,0,1-1.67-1.76,6.4,6.4,0,0,1,0-5.37,4.15,4.15,0,0,1,1.67-1.75,5.57,5.57,0,0,1,5.11,0,4.15,4.15,0,0,1,1.67,1.75,6.4,6.4,0,0,1,0,5.37,4.23,4.23,0,0,1-1.67,1.76,5.57,5.57,0,0,1-5.11,0Zm4.5-1.94a4.83,4.83,0,0,0,0-5,2.62,2.62,0,0,0-3.88,0,4.83,4.83,0,0,0,0,5,2.6,2.6,0,0,0,3.88,0Z"/><path class="cls-1" d="M1199.36,204.24H1197l-1.71-3.15a1.31,1.31,0,0,0-.51-.53,1.48,1.48,0,0,0-.74-.16h-1.08v3.84h-2.15v-9.87h4.53a3.93,3.93,0,0,1,2.63.76,2.75,2.75,0,0,1,.89,2.2,2.83,2.83,0,0,1-.63,1.88,2.94,2.94,0,0,1-1.75,1,2.15,2.15,0,0,1,1.3,1.11Zm-3-5.82a1.49,1.49,0,0,0,0-2.07A2.29,2.29,0,0,0,1195,196h-2.08v2.72H1195A2.21,2.21,0,0,0,1196.36,198.42Z"/><path class="cls-1" d="M1202.6,204.24v-8.1h-3.09v-1.77h8.37v1.77h-3.09v8.1Z"/></g></g></svg>