<svg id="react.svg" xmlns="http://www.w3.org/2000/svg" width="97" height="55" viewBox="0 0 97 55">
  <defs>
    <style>
      .cls-1 {
        fill: #3f597e;
        fill-opacity: 0;
      }

      .cls-2 {
        fill: #fff;
        fill-rule: evenodd;
      }
    </style>
  </defs>
  <rect id="Прямоугольник_1_копия_29" data-name="Прямоугольник 1 копия 29" class="cls-1" width="97" height="55"/>
  <path id="React.png" class="cls-2" d="M4566.88,45.445q-0.57-.193-1.14-0.358,0.09-.386.18-0.775c0.86-4.175.29-7.539-1.63-8.647-1.84-1.062-4.85.045-7.9,2.692-0.29.262-.59,0.531-0.87,0.807-0.2-.184-0.39-0.364-0.59-0.54-3.19-2.831-6.39-4.023-8.3-2.913-1.84,1.065-2.39,4.227-1.61,8.185,0.07,0.392.16,0.782,0.26,1.169-0.46.128-.89,0.265-1.31,0.411-3.74,1.3-6.13,3.345-6.13,5.463,0,2.188,2.57,4.382,6.46,5.712,0.32,0.108.63,0.207,0.96,0.3-0.11.417-.2,0.838-0.28,1.26-0.74,3.888-.16,6.976,1.67,8.034,1.9,1.093,5.08-.031,8.18-2.738,0.24-.214.49-0.441,0.73-0.679q0.465,0.449.96,0.871c3,2.582,5.96,3.624,7.8,2.563,1.89-1.1,2.51-4.413,1.71-8.448q-0.09-.462-0.21-0.944c0.22-.066.44-0.134,0.65-0.205,4.05-1.341,6.69-3.508,6.69-5.725,0-2.126-2.47-4.182-6.28-5.494h0ZM4566,55.233c-0.19.064-.39,0.126-0.59,0.185a35.562,35.562,0,0,0-1.79-4.472,37,37,0,0,0,1.72-4.407q0.54,0.157,1.05.331c3.26,1.124,5.26,2.787,5.26,4.068,0,1.365-2.16,3.136-5.65,4.294h0Zm-1.45,2.873a12.932,12.932,0,0,1,.17,4.659,3.09,3.09,0,0,1-1.16,2.191c-1.11.644-3.49-.193-6.06-2.4-0.29-.253-0.59-0.524-0.89-0.809a34.758,34.758,0,0,0,2.96-3.757,35.458,35.458,0,0,0,4.79-.737c0.07,0.291.13,0.575,0.19,0.854h0Zm-14.67,6.739a3.1,3.1,0,0,1-2.47.093c-1.12-.642-1.58-3.121-0.95-6.446,0.08-.393.16-0.784,0.26-1.172a35.362,35.362,0,0,0,4.76.689,35.917,35.917,0,0,0,3.03,3.744c-0.22.212-.45,0.419-0.68,0.619a12.657,12.657,0,0,1-3.95,2.474h0Zm-5.09-9.62a12.759,12.759,0,0,1-4.12-2.187,3.1,3.1,0,0,1-1.32-2.1c0-1.285,1.92-2.925,5.12-4.039,0.4-.139.8-0.267,1.21-0.382a35.772,35.772,0,0,0,1.72,4.458,37.1,37.1,0,0,0-1.74,4.521Q4545.225,55.372,4544.79,55.225Zm1.71-11.618c-0.67-3.391-.23-5.948.88-6.59,1.18-.684,3.8.291,6.55,2.735,0.17,0.156.35,0.32,0.53,0.489a35.793,35.793,0,0,0-3.01,3.721,36.809,36.809,0,0,0-4.71.732q-0.135-.541-0.24-1.088h0Zm15.23,3.76q-0.525-.894-1.08-1.765c1.13,0.142,2.21.331,3.22,0.563a30.209,30.209,0,0,1-1.13,3.04c-0.32-.619-0.66-1.232-1.01-1.837h0Zm-6.21-6.048a32.313,32.313,0,0,1,2.07,2.508q-2.085-.1-4.17,0c0.69-.9,1.39-1.744,2.1-2.507h0Zm-6.26,6.058q-0.51.9-.99,1.825a31.122,31.122,0,0,1-1.12-3.054c1-.226,2.08-0.41,3.2-0.55C4549.97,46.182,4549.61,46.775,4549.26,47.377Zm1.12,9.011a31.6,31.6,0,0,1-3.25-.523,32.856,32.856,0,0,1,1.14-3.116c0.32,0.617.65,1.226,1,1.827S4550,55.793,4550.38,56.388Zm5.18,4.279c-0.72-.771-1.43-1.624-2.13-2.542q1.02,0.04,2.07.04,1.08,0,2.13-.047C4556.94,59.052,4556.25,59.906,4555.56,60.667Zm7.2-7.972a30.888,30.888,0,0,1,1.18,3.105,32.031,32.031,0,0,1-3.29.561q0.555-.887,1.08-1.8c0.36-.616.7-1.239,1.03-1.87h0Zm-2.33,1.117c-0.54.929-1.1,1.84-1.7,2.732-1.04.075-2.13,0.113-3.23,0.113s-2.17-.034-3.2-0.1c-0.61-.89-1.18-1.8-1.72-2.736s-1.04-1.877-1.51-2.844c0.46-.967.97-1.916,1.5-2.846h0q0.81-1.395,1.71-2.725c1.05-.079,2.13-0.121,3.22-0.121s2.17,0.042,3.22.122c0.6,0.885,1.17,1.791,1.7,2.716s1.05,1.872,1.52,2.832c-0.47.97-.97,1.923-1.51,2.857h0Zm3.11-16.839c1.18,0.682,1.64,3.431.9,7.036-0.05.235-.1,0.469-0.16,0.7a36.465,36.465,0,0,0-4.72-.746,35.312,35.312,0,0,0-2.99-3.724q0.405-.382.81-0.745c2.61-2.268,5.05-3.163,6.16-2.523h0Zm-8.04,10.815a3.152,3.152,0,1,1-3.15,3.152,3.151,3.151,0,0,1,3.15-3.152M4591.65,58l-3.96-5.985a4.059,4.059,0,0,0,3.81-4.268,4.278,4.278,0,0,0-4.6-4.423H4581V58h1.83V52.169h2.93L4589.5,58h2.15Zm-4.97-7.437h-3.85V44.952h3.85A2.808,2.808,0,1,1,4586.68,50.563Zm12.43,7.7a5.749,5.749,0,0,0,4.22-1.628l-0.79-1.078a4.639,4.639,0,0,1-3.28,1.342,3.75,3.75,0,0,1-3.83-3.675h8.61V52.807c0-3.19-1.9-5.7-5.11-5.7a5.313,5.313,0,0,0-5.23,5.567A5.266,5.266,0,0,0,4599.11,58.264Zm3.3-6.249h-6.98a3.548,3.548,0,0,1,3.48-3.542A3.445,3.445,0,0,1,4602.41,52.015ZM4614.99,58V50.695c0-2.574-1.87-3.586-4.11-3.586a5.577,5.577,0,0,0-4.25,1.76l0.77,1.144a4.228,4.228,0,0,1,3.26-1.474c1.54,0,2.68.814,2.68,2.244V52.7a4.42,4.42,0,0,0-3.52-1.452,3.484,3.484,0,0,0-3.72,3.5,3.542,3.542,0,0,0,3.72,3.521,4.6,4.6,0,0,0,3.52-1.474V58h1.65Zm-4.57-.924a2.338,2.338,0,1,1,0-4.643,3.543,3.543,0,0,1,2.92,1.32v2A3.544,3.544,0,0,1,4610.42,57.076Zm12.56,1.188a4.53,4.53,0,0,0,3.89-1.848l-1.1-1.012a3.188,3.188,0,0,1-2.7,1.386c-2.27,0-3.68-1.76-3.68-4.114s1.41-4.093,3.68-4.093a3.136,3.136,0,0,1,2.7,1.386l1.1-1.012a4.53,4.53,0,0,0-3.89-1.848,5.247,5.247,0,0,0-5.3,5.567A5.253,5.253,0,0,0,4622.98,58.264Zm8.89,0a2.713,2.713,0,0,0,1.98-.682l-0.49-1.232a1.591,1.591,0,0,1-1.12.44,1.145,1.145,0,0,1-1.08-1.364v-6.6h2.16V47.372h-2.16v-2.9h-1.65v2.9h-1.76v1.452h1.76v6.953A2.175,2.175,0,0,0,4631.87,58.264Z" transform="translate(-4537 -25)"/>
</svg>
