<?xml version="1.0" encoding="utf-8"?>
<!-- Generator: Adobe Illustrator 23.0.1, SVG Export Plug-In . SVG Version: 6.00 Build 0)  -->
<svg version="1.1" id="Слой_1" xmlns="http://www.w3.org/2000/svg" xmlns:xlink="http://www.w3.org/1999/xlink" x="0px" y="0px"
	 width="70px" height="70px" viewBox="0 0 70 70" style="enable-background:new 0 0 70 70;" xml:space="preserve">
<style type="text/css">
	.st0{fill:#0071B3;}
</style>
<g>
	<path class="st0" d="M69.3,56.6h-1.2V33.5l0.4,0.5c0.2,0.3,0.5,0.4,0.8,0.4c0.2,0,0.5-0.1,0.7-0.2c0.4-0.4,0.5-1,0.1-1.5L53,11.7
		c-0.2-0.2-0.5-0.4-0.8-0.4c-0.3,0-0.6,0.1-0.8,0.4L46,18.3v-3.8h0.1c0.6,0,1-0.5,1-1c0-0.6-0.5-1-1-1h-6.6c-0.6,0-1,0.5-1,1
		c0,0.6,0.5,1,1,1h0.1v4.6H14.1c-0.3,0-0.5,0.1-0.7,0.3L0.1,32.6c-0.3,0.3-0.4,0.7-0.2,1.1c0.2,0.4,0.5,0.6,1,0.6H2V51
		c0,0.6,0.5,1,1,1c0.6,0,1-0.5,1-1V34.4h31c0.3,0,0.6-0.1,0.8-0.4l16.3-20l13.9,17v25.6H50.5V38.9c0-0.6-0.5-1-1-1h-6.6
		c-0.6,0-1,0.5-1,1v17.7h-3.5V37.8c0-0.6-0.5-1-1-1c-0.6,0-1,0.5-1,1v12c-1.4-1.7-3.4-2.8-5.7-3.1v-7.9c0-0.6-0.5-1-1-1h-6.6
		c-0.6,0-1,0.5-1,1v10c0,0,0,0-0.1,0c-1.2,0-2.4,0.3-3.4,0.8V38.9c0-0.6-0.5-1-1-1h-6.6c-0.6,0-1,0.5-1,1v11c0,0.6,0.5,1,1,1h5.8
		c-1.5,1.4-2.4,3.4-2.4,5.6c0,0,0,0,0,0.1H4.1v-1.2c0-0.6-0.5-1-1-1c-0.6,0-1,0.5-1,1v1.2H0.9c-0.6,0-1,0.5-1,1c0,0.6,0.5,1,1,1
		h68.4c0.6,0,1-0.5,1-1C70.3,57.1,69.9,56.6,69.3,56.6z M44,14.5v6.3l-2.3,2.9v-9.2H44z M11.8,25.5h4.6v2.3h-4.6V25.5z M34.6,32.3
		H3.4l6.4-6.4v3c0,0.6,0.5,1,1,1h6.6c0.6,0,1-0.5,1-1v-4.4c0-0.6-0.5-1-1-1h-5.2l2.3-2.3h25v5.1L34.6,32.3z M16.4,39.9v2.3h-4.6
		v-2.3H16.4z M11.8,48.9v-4.6h4.6v4.6H11.8z M48.4,39.9v9h-4.6v-9H48.4z M24,48.7v-4.4h4.6v2.4C26.9,46.9,25.3,47.6,24,48.7z
		 M28.5,39.9v2.3H24v-2.3H28.5z M16.2,56.5c0-3.1,2.5-5.6,5.6-5.6c0.6,0,1.2,0.1,1.7,0.3c0.4,0.1,0.8,0,1.1-0.3
		c1.3-1.4,3.1-2.2,4.9-2.2c3.7,0,6.7,3,6.7,6.7v1.2L16.2,56.5C16.2,56.6,16.2,56.5,16.2,56.5z M43.8,56.6v-5.7h4.6v5.7H43.8z"/>
	<path class="st0" d="M29.6,23.5h-6.6c-0.6,0-1,0.5-1,1v4.4c0,0.6,0.5,1,1,1h6.6c0.6,0,1-0.5,1-1v-4.4
		C30.6,23.9,30.1,23.5,29.6,23.5z M28.5,27.9H24v-2.3h4.6V27.9z"/>
	<path class="st0" d="M56.1,23.5h-7.7c-0.6,0-1,0.5-1,1v4.4c0,0.6,0.5,1,1,1h7.7c0.6,0,1-0.5,1-1v-4.4
		C57.1,23.9,56.6,23.5,56.1,23.5z M55,27.9h-5.7v-2.3H55V27.9z"/>
	<path class="st0" d="M53.9,38.9v11c0,0.6,0.5,1,1,1h6.6c0.6,0,1-0.5,1-1v-11c0-0.6-0.5-1-1-1H55C54.4,37.8,53.9,38.3,53.9,38.9z
		 M56,48.9v-4.6h4.6v4.6H56z M60.5,39.9v2.3H56v-2.3H60.5z"/>
</g>
</svg>
