<svg width="71" height="68" viewBox="0 0 71 68" fill="none" xmlns="http://www.w3.org/2000/svg">
<path d="M35.9863 39.4519C28.1687 39.4519 21.8081 45.8125 21.8081 53.6301C21.8081 61.4481 28.1687 67.8082 35.9863 67.8082C43.8043 67.8082 50.1644 61.4481 50.1644 53.6301C50.1644 45.8125 43.8043 39.4519 35.9863 39.4519ZM35.9863 65.7537C29.3015 65.7537 23.8632 60.3149 23.8632 53.6301C23.8632 46.9453 29.3015 41.507 35.9863 41.507C42.6711 41.507 48.1094 46.9453 48.1094 53.6301C48.1094 60.3149 42.6711 65.7537 35.9863 65.7537Z" fill="#0071B3"/>
<path d="M34.8904 48.0822H40.3698C40.9375 48.0822 41.3973 47.6224 41.3973 47.0547C41.3973 46.4875 40.9375 46.0272 40.3698 46.0272H37.0138V43.767C37.0138 43.1999 36.554 42.7395 35.9863 42.7395C35.4191 42.7395 34.9587 43.1999 34.9587 43.767V46.0272H34.8904C32.5112 46.0272 30.5752 47.9631 30.5752 50.3423C30.5752 52.7216 32.5112 54.6575 34.8904 54.6575H37.0822C38.3286 54.6575 39.3423 55.6717 39.3423 56.9177C39.3423 58.1642 38.3286 59.1783 37.0822 59.1783H31.6027C31.0356 59.1783 30.5752 59.6382 30.5752 60.2053C30.5752 60.773 31.0356 61.2329 31.6027 61.2329H34.9587V63.493C34.9587 64.0607 35.4191 64.5205 35.9863 64.5205C36.554 64.5205 37.0138 64.0607 37.0138 63.493V61.2329H37.0822C39.4614 61.2329 41.3973 59.2969 41.3973 56.9177C41.3973 54.5384 39.4614 52.6025 37.0822 52.6025H34.8904C33.6439 52.6025 32.6302 51.5888 32.6302 50.3423C32.6302 49.0964 33.6439 48.0822 34.8904 48.0822Z" fill="#0071B3"/>
<path d="M35.1417 34.4889C35.3335 34.7661 35.6491 34.9317 35.9861 34.9317C36.3236 34.9317 36.6392 34.7661 36.831 34.4889L46.6939 20.2424C46.9113 19.9284 46.9369 19.5193 46.7596 19.1807C46.5818 18.8421 46.2314 18.6301 45.8491 18.6301H42.493V1.02753C42.493 0.459824 42.0332 0 41.4655 0H30.5066C29.9395 0 29.4791 0.459824 29.4791 1.02753V18.6301H26.1231C25.7407 18.6301 25.3904 18.8421 25.2131 19.1807C25.0358 19.5193 25.0609 19.9284 25.2782 20.2424L35.1417 34.4889ZM30.5066 20.6851C31.0738 20.6851 31.5342 20.2248 31.5342 19.6576V2.05505H40.438V19.6576C40.438 20.2248 40.8978 20.6851 41.4655 20.6851H43.8885L35.9861 32.099L28.0842 20.6851H30.5066Z" fill="#0071B3"/>
<path d="M70.8694 32.3313C70.6916 31.9927 70.3413 31.7807 69.9589 31.7807H66.6029V8.80129C66.6029 8.23412 66.143 7.77429 65.5753 7.77429H54.6165C54.0493 7.77429 53.5889 8.23412 53.5889 8.80129V31.7807H50.2329C49.8511 31.7807 49.5002 31.9927 49.3229 32.3313C49.1456 32.6699 49.1707 33.079 49.3886 33.393L59.2515 47.6396C59.4433 47.9168 59.7589 48.0823 60.0959 48.0823C60.4334 48.0823 60.749 47.9168 60.9408 47.6396L70.8038 33.393C71.0211 33.079 71.0467 32.6699 70.8694 32.3313ZM60.0959 45.2502L52.194 33.8358H54.6165C55.1842 33.8358 55.644 33.376 55.644 32.8083V9.82881H64.5483V32.8083C64.5483 33.376 65.0082 33.8358 65.5753 33.8358H67.9983L60.0959 45.2502Z" fill="#0071B3"/>
<path d="M22.6497 40.0025C22.4724 39.6639 22.1221 39.4519 21.7397 39.4519H18.3837V26.7354C18.3837 26.1677 17.9233 25.7079 17.3561 25.7079C16.789 25.7079 16.3286 26.1677 16.3286 26.7354V40.4794C16.3286 41.0471 16.789 41.5069 17.3561 41.5069H19.7786L11.8767 52.9213L3.97478 41.5069H6.39727C6.96444 41.5069 7.42479 41.0471 7.42479 40.4794V17.5H16.3286V21.9866C16.3286 22.5537 16.789 23.0136 17.3561 23.0136C17.9233 23.0136 18.3837 22.5537 18.3837 21.9866V16.4724C18.3837 15.9053 17.9233 15.4454 17.3561 15.4454H6.39727C5.82956 15.4454 5.36974 15.9053 5.36974 16.4724V39.4519H2.01372C1.63133 39.4519 1.28099 39.6639 1.10368 40.0025C0.926377 40.3411 0.951478 40.7502 1.16884 41.0642L11.0318 55.3107C11.2235 55.5879 11.5397 55.7535 11.8767 55.7535C12.2137 55.7535 12.5293 55.5879 12.7216 55.3107L22.5846 41.0642C22.8019 40.7502 22.827 40.3411 22.6497 40.0025Z" fill="#0071B3"/>
</svg>
