<?xml version="1.0" encoding="utf-8"?>
<!-- Generator: Adobe Illustrator 23.0.1, SVG Export Plug-In . SVG Version: 6.00 Build 0)  -->
<svg version="1.1" id="Слой_1" xmlns="http://www.w3.org/2000/svg" xmlns:xlink="http://www.w3.org/1999/xlink" x="0px" y="0px"
	 width="70px" height="70px" viewBox="0 0 70 70" style="enable-background:new 0 0 70 70;" xml:space="preserve">
<style type="text/css">
	.st0{fill:#0071B3;}
</style>
<g>
	<path class="st0" d="M15.5,43.1c0,3,1.2,5.8,3.4,7.8c2.1,2.1,4.9,3.3,7.9,3.3c3,0,5.8-1.2,7.8-3.4c2.1-2.1,3.3-4.9,3.3-7.9
		c0-0.5-0.4-0.9-0.9-0.9s-0.9,0.4-0.9,0.9c0,2.4-0.9,4.8-2.6,6.7c-1.8,1.8-4.1,2.7-6.6,2.7h-0.1c-2.4,0-4.8-0.9-6.6-2.6
		c-1.8-1.8-2.7-4.1-2.7-6.6c0-2.4,0.9-4.8,2.6-6.7c1.8-1.8,4.1-2.7,6.6-2.7c0.5,0,0.9-0.4,0.9-0.9c0-0.5-0.5-1-1-1
		c-3,0-5.8,1.2-7.8,3.4C16.6,37.3,15.5,40,15.5,43.1z"/>
	<path class="st0" d="M51.4,47.7l-3.3-1.4c-0.3-0.1-0.5-0.1-0.8,0c-0.2,0.1-0.4,0.3-0.5,0.5c-0.1,0.3-0.1,0.5,0,0.8
		c0.1,0.2,0.3,0.4,0.5,0.5l3.3,1.4c0.3,0.1,0.6,0.4,0.8,0.8c0.1,0.3,0.1,0.7-0.1,1l-1.5,3.5c-0.2,0.3-0.4,0.6-0.7,0.7
		c-0.3,0.2-0.7,0.2-1,0L44.8,54c-0.4-0.1-0.9,0-1.1,0.4c-1.4,2.1-3.3,4-5.6,5.6c-0.4,0.2-0.5,0.7-0.4,1.1l1.4,3.3
		c0.2,0.3,0.2,0.7,0,1c-0.2,0.3-0.4,0.6-0.7,0.7l-3.6,1.5c-0.3,0.2-0.7,0.2-1,0c-0.3-0.2-0.6-0.4-0.7-0.7l-1.4-3.3
		c-0.1-0.2-0.2-0.4-0.4-0.5c-0.2-0.1-0.4-0.1-0.6-0.1c-2.7,0.5-5.4,0.5-8,0c-0.2-0.1-0.4,0-0.6,0.1c-0.2,0.1-0.4,0.3-0.4,0.5
		L20.1,67c-0.2,0.3-0.4,0.6-0.7,0.7c-0.3,0.2-0.7,0.2-1,0l-3.5-1.5c-0.3-0.1-0.6-0.4-0.8-0.8c-0.1-0.3-0.1-0.7,0.1-1l1.4-3.3
		c0.1-0.4,0-0.9-0.4-1.1c-2.1-1.4-4-3.3-5.6-5.6C9.3,54,8.8,53.9,8.4,54l-3.3,1.4c-0.3,0.2-0.7,0.2-1,0c-0.3-0.2-0.6-0.4-0.7-0.7
		l-1.5-3.6c-0.2-0.3-0.2-0.7,0-1c0.2-0.3,0.4-0.6,0.7-0.7L5.9,48c0.2-0.1,0.4-0.2,0.5-0.4s0.1-0.4,0.1-0.6c-0.5-2.6-0.5-5.4,0-8
		c0.1-0.4-0.1-0.9-0.5-1l-3.3-1.3c-0.3-0.2-0.6-0.4-0.7-0.7c-0.2-0.3-0.2-0.7,0-1l1.5-3.5c0.2-0.3,0.4-0.6,0.7-0.7
		c0.3-0.2,0.7-0.2,1,0l3.3,1.4c0.4,0.1,0.9,0,1.1-0.4c1.4-2.1,3.3-4,5.6-5.6c0.4-0.2,0.5-0.7,0.4-1.1l-1.4-3.4c-0.2-0.3-0.2-0.7,0-1
		c0.2-0.3,0.4-0.6,0.7-0.7l3.6-1.5c0.3-0.2,0.7-0.2,1,0c0.3,0.2,0.6,0.4,0.7,0.7l1.4,3.3c0.1,0.2,0.3,0.4,0.5,0.5
		c0.3,0.1,0.5,0.1,0.7,0c0.2-0.1,0.3-0.2,0.5-0.5c0.1-0.3,0.1-0.5,0-0.7l-1.4-3.3c-0.3-0.8-0.9-1.4-1.7-1.7c-0.7-0.3-1.7-0.3-2.5,0
		l-3.6,1.5c-0.8,0.3-1.4,0.9-1.7,1.7c-0.3,0.7-0.3,1.7,0,2.5l1,2.6c-1.9,1.3-3.6,3-5.2,5.2l-2.4-1.2c-0.7-0.3-1.7-0.3-2.4,0
		c-0.8,0.3-1.4,0.9-1.7,1.7L0.2,34c-0.3,0.7-0.3,1.7,0,2.5c0.3,0.7,1,1.4,1.7,1.7l2.6,1c-0.4,2.4-0.4,4.9,0,7.2l-2.6,1.2
		c-0.7,0.3-1.4,1-1.7,1.7c-0.3,0.7-0.3,1.7,0,2.5l1.5,3.6c0.3,0.8,0.9,1.4,1.7,1.7c0.7,0.3,1.7,0.3,2.5,0l2.6-1
		c1.3,1.9,3,3.6,5.2,5.2l0,0l-1,2.6c-0.3,0.7-0.3,1.7,0,2.5c0.3,0.7,1,1.4,1.7,1.7l3.6,1.5c1.6,0.6,3.5-0.1,4.2-1.7l1-2.6
		c2.4,0.4,4.9,0.4,7.2,0l1,2.6c0.3,0.8,0.9,1.4,1.7,1.7c0.4,0.2,0.8,0.2,1.2,0.2c0.4,0,0.9-0.1,1.2-0.2l3.6-1.5
		c0.8-0.3,1.4-0.9,1.7-1.7c0.3-0.7,0.3-1.7,0-2.5l-1.1-2.6c2.2-1.7,3.8-3.4,5-5.2l2.5,1c0.7,0.3,1.7,0.3,2.4,0
		c0.8-0.3,1.4-0.9,1.7-1.7l1.5-3.6C53.7,50.3,53,48.3,51.4,47.7z"/>
	<path class="st0" d="M49.5,12.8c-4.4,0-8,3.6-8,8c0,4.4,3.6,8,8,8s8-3.6,8-8C57.5,16.3,54,12.8,49.5,12.8z M49.5,26.9
		c-3.4,0-6.2-2.8-6.2-6.2s2.8-6.2,6.2-6.2s6.2,2.8,6.2,6.2C55.7,24.1,52.9,26.9,49.5,26.9z"/>
	<path class="st0" d="M67.5,16.8h-1.8c-0.4-1.8-1.1-3.3-1.9-4.6l1.3-1.3c0.5-0.5,0.8-1.1,0.8-1.8c0-0.7-0.3-1.3-0.8-1.8l-2-2
		c-0.5-0.5-1.1-0.8-1.8-0.8c-0.7,0-1.3,0.3-1.8,0.8l-1.3,1.3c-1.3-0.8-2.8-1.4-4.6-1.9V2.8c0-1.4-1.2-2.6-2.6-2.6h-2.8
		c-1.4,0-2.6,1.2-2.6,2.6v1.8c-1.8,0.4-3.3,1.1-4.6,1.9l-1.3-1.3c-0.5-0.5-1.1-0.8-1.8-0.8S36.5,4.7,36,5.3l-2,2
		c-0.5,0.5-0.8,1.1-0.8,1.8c0,0.7,0.3,1.3,0.8,1.8l1.3,1.3c-0.8,1.3-1.4,2.8-1.9,4.6h-1.8c-1.4,0-2.6,1.2-2.6,2.6v2.8
		c0,1.4,1.2,2.6,2.6,2.6h1.8c0.4,1.8,1.1,3.3,1.9,4.6L34,30.7c-0.5,0.5-0.8,1.1-0.8,1.8c0,0.7,0.3,1.3,0.8,1.8l2,2
		c0.5,0.5,1.1,0.8,1.8,0.8s1.3-0.2,1.8-0.8l1.3-1.3c1.3,0.8,2.8,1.4,4.6,1.9v1.8c0,1.4,1.2,2.6,2.6,2.6h2.8c1.4,0,2.6-1.2,2.6-2.6
		V37c1.8-0.4,3.3-1.1,4.6-1.9l1.3,1.3c0.5,0.5,1.1,0.8,1.8,0.8c0.7,0,1.3-0.3,1.8-0.8l2-2c0.5-0.5,0.8-1.1,0.8-1.8
		c0-0.7-0.3-1.3-0.8-1.8l-1.3-1.3c0.8-1.3,1.4-2.8,1.9-4.6h1.8c1.4,0,2.6-1.2,2.6-2.6v-2.8C70.1,18,68.9,16.8,67.5,16.8z M64,23.7
		c-0.4,2.1-1.2,3.9-2.2,5.3c-0.3,0.4-0.2,0.9,0.1,1.2l1.8,1.8c0.2,0.2,0.2,0.3,0.2,0.6c0,0.2-0.1,0.4-0.2,0.6l-2,2
		c-0.2,0.2-0.3,0.2-0.6,0.2c-0.2,0-0.4-0.1-0.6-0.2l-1.8-1.8c-0.3-0.3-0.8-0.4-1.2-0.1c-1.5,1-3.3,1.8-5.3,2.2
		c-0.4,0.1-0.7,0.5-0.7,0.9v2.6c0,0.4-0.3,0.7-0.7,0.7h-2.8c-0.4,0-0.7-0.3-0.7-0.7v-2.6c0-0.4-0.3-0.8-0.8-0.9
		c-2.1-0.4-3.9-1.2-5.3-2.2C41.1,33,40.9,33,40.8,33c-0.2,0-0.5,0.1-0.6,0.3l-1.8,1.8c-0.2,0.2-0.4,0.3-0.6,0.2
		c-0.2,0-0.3-0.1-0.4-0.2l-2-2c-0.2-0.2-0.2-0.3-0.2-0.6c0-0.2,0.1-0.4,0.2-0.6l1.8-1.8c0.3-0.3,0.4-0.8,0.1-1.2
		c-1-1.5-1.8-3.3-2.2-5.4c-0.1-0.4-0.5-0.7-0.9-0.7h-2.6c-0.4,0-0.7-0.3-0.7-0.7v-2.8c0-0.4,0.3-0.7,0.7-0.7h2.6
		c0.4,0,0.8-0.3,0.9-0.8c0.4-2.1,1.2-3.9,2.2-5.3c0.1-0.2,0.2-0.5,0.2-0.7c0-0.2-0.1-0.4-0.3-0.4l-1.8-1.8c-0.2-0.2-0.2-0.3-0.2-0.6
		c0-0.2,0.1-0.4,0.2-0.6l2-2c0.2-0.2,0.4-0.3,0.6-0.2c0.2,0,0.3,0.1,0.4,0.2l1.8,1.8c0.3,0.3,0.8,0.4,1.2,0.1c1.5-1,3.3-1.8,5.3-2.2
		c0.4-0.1,0.7-0.5,0.7-0.9V2.8c0-0.4,0.3-0.7,0.7-0.7h2.8c0.4,0,0.7,0.3,0.7,0.7v2.6c0,0.4,0.3,0.8,0.8,0.9c2.1,0.4,3.9,1.2,5.3,2.2
		c0.4,0.3,0.9,0.1,1.2-0.1l1.8-1.8c0.2-0.2,0.3-0.2,0.6-0.2c0.2,0,0.4,0.1,0.6,0.2l2,2C63.9,8.7,64,8.9,64,9.1
		c0,0.2-0.1,0.4-0.2,0.6l-1.9,1.8c-0.3,0.3-0.4,0.8-0.1,1.2c1,1.5,1.8,3.3,2.2,5.4c0.1,0.4,0.5,0.7,0.9,0.7h2.6
		c0.4,0,0.7,0.3,0.7,0.7l0,2.8c0,0.2,0,0.4-0.1,0.4c-0.1,0.1-0.3,0.2-0.5,0.2h-2.6C64.5,22.9,64.1,23.2,64,23.7z"/>
</g>
</svg>
