<?xml version="1.0" encoding="utf-8"?>
<!-- Generator: Adobe Illustrator 24.0.1, SVG Export Plug-In . SVG Version: 6.00 Build 0)  -->
<svg version="1.1" id="founded.svg" xmlns="http://www.w3.org/2000/svg" xmlns:xlink="http://www.w3.org/1999/xlink" x="0px"
	 y="0px" viewBox="0 0 98 87" style="enable-background:new 0 0 98 87;" xml:space="preserve">
<style type="text/css">
	.st0{fill:#FFFFFF;fill-opacity:0;}
	.st1{fill:#2678BD;}
</style>
<title>all_logos</title>
<rect class="st0" width="98" height="87"/>
<g>
	<path class="st1" d="M49,86L16.7,73.6V1.4h64.6v72.2L49,86z M18.4,72.4L49,84.2l30.6-11.8V3.1H18.4L18.4,72.4z"/>
	<polygon class="st1" points="21.8,65.8 21.8,69.8 21.8,69.8 49,80.3 76.2,69.8 76.2,69.8 76.2,65.8 49,76.2 	"/>
	<polygon class="st1" points="21.8,60.1 21.8,64.1 21.8,64.2 49,74.6 76.2,64.2 76.2,64.1 76.2,60.1 49,70.6 	"/>
	<polygon class="st1" points="21.8,54.4 21.8,58.4 21.8,58.5 49,69 76.2,58.5 76.2,58.4 76.2,54.4 49,64.9 	"/>
	<path class="st1" d="M47.6,9.4c0,0-2.9,0.4-2.9,0.5c0,0.1,2.1,2.1,2.1,2.1s-0.5,2.8-0.4,2.9c0.1,0.1,2.6-1.3,2.6-1.3
		s2.5,1.4,2.6,1.3c0.1-0.1-0.4-2.9-0.4-2.9s2.1-2,2.1-2.1c0-0.1-2.9-0.5-2.9-0.5S49,6.8,48.9,6.8S47.6,9.4,47.6,9.4z"/>
	<path class="st1" d="M44.4,25.5v1.6h-2.3v6.8h-2v-6.8h-2.3v-1.6H44.4z"/>
	<path class="st1" d="M51.4,25.9c0.6,0.4,1.2,0.9,1.5,1.5c0.7,1.4,0.7,3.1,0,4.4c-0.4,0.6-0.9,1.2-1.5,1.5c-1.3,0.7-2.9,0.7-4.3,0
		c-0.6-0.4-1.2-0.9-1.5-1.5c-0.8-1.4-0.8-3,0-4.4c0.4-0.6,0.9-1.2,1.5-1.5C48.4,25.2,50,25.2,51.4,25.9L51.4,25.9z M47.6,27.9
		c-0.4,0.4-0.6,1-0.6,1.8c0,0.7,0.2,1.3,0.6,1.8c0.9,0.9,2.3,0.9,3.2,0c0.4-0.4,0.6-1,0.6-1.8c0-0.7-0.2-1.3-0.6-1.8
		C49.9,27,48.5,27,47.6,27.9L47.6,27.9z"/>
	<path class="st1" d="M56.6,30.9v2.9h-2v-8.4h3.3c1,0,1.8,0.2,2.3,0.7c0.5,0.5,0.8,1.2,0.8,2c0,0.5-0.1,1-0.4,1.4
		c-0.2,0.4-0.6,0.8-1,1c-0.5,0.2-1.1,0.4-1.7,0.4H56.6z M58.8,28.2c0-0.7-0.4-1.1-1.2-1.1h-1v2.2h1C58.4,29.3,58.8,28.9,58.8,28.2
		L58.8,28.2z"/>
	<path class="st1" d="M38.2,41.3c-0.1,0.2-0.3,0.4-0.5,0.5c-0.3,0.1-0.5,0.2-0.8,0.2c-0.4,0-0.8-0.1-1.2-0.4c-0.3-0.2-0.5-0.6-0.5-1
		h1.1c0,0.1,0.1,0.3,0.2,0.4c0.1,0.1,0.2,0.1,0.4,0.1c0.1,0,0.2,0,0.3-0.1c0.1-0.1,0.1-0.2,0.1-0.3c0-0.1,0-0.2-0.1-0.3
		c-0.1-0.1-0.2-0.1-0.3-0.2c-0.1,0-0.3-0.1-0.4-0.2c-0.2-0.1-0.5-0.2-0.7-0.3c-0.2-0.1-0.3-0.2-0.4-0.4c-0.3-0.4-0.2-0.9,0-1.3
		c0.1-0.2,0.3-0.3,0.5-0.4c0.2-0.1,0.5-0.2,0.8-0.1c0.4,0,0.8,0.1,1.1,0.3c0.3,0.2,0.5,0.6,0.5,0.9h-1.1c0-0.1-0.1-0.2-0.2-0.3
		c-0.1-0.1-0.2-0.1-0.3-0.1c-0.1,0-0.2,0-0.3,0.1c-0.1,0.1-0.1,0.2-0.1,0.3c0,0.1,0,0.2,0.1,0.3c0.1,0.1,0.2,0.1,0.3,0.2
		c0.1,0,0.2,0.1,0.4,0.2c0.2,0.1,0.5,0.2,0.7,0.3c0.2,0.1,0.3,0.2,0.4,0.4c0.1,0.2,0.2,0.4,0.2,0.7C38.4,40.9,38.3,41.1,38.2,41.3z"
		/>
	<path class="st1" d="M41.4,38.7c0.3,0.1,0.5,0.3,0.6,0.6c0.3,0.6,0.3,1.3,0,1.9c-0.1,0.3-0.4,0.5-0.6,0.6c-0.6,0.3-1.2,0.3-1.8,0
		c-0.3-0.1-0.5-0.3-0.6-0.6c-0.3-0.6-0.3-1.3,0-1.9c0.1-0.3,0.4-0.5,0.6-0.6C40.2,38.4,40.9,38.4,41.4,38.7z M40,39.6
		c-0.1,0.2-0.2,0.4-0.2,0.6c0,0.2,0.1,0.4,0.2,0.6c0.1,0.1,0.3,0.2,0.5,0.2c0.2,0,0.4-0.1,0.5-0.2c0.1-0.2,0.2-0.4,0.2-0.6
		c0-0.2-0.1-0.4-0.2-0.6c-0.1-0.1-0.3-0.2-0.5-0.2C40.3,39.3,40.2,39.4,40,39.6z"/>
	<path class="st1" d="M44.5,38c-0.1,0-0.3,0-0.4,0.1C44,38.2,44,38.4,44,38.5h0.6v0.9H44v2.5h-1v-2.5h-0.4v-0.9h0.4v0
		c0-0.4,0.1-0.7,0.4-1c0.2-0.2,0.6-0.3,1.1-0.3c0.1,0,0.2,0,0.2,0V38L44.5,38z"/>
	<path class="st1" d="M47,41v0.9h-0.5c-0.3,0-0.7-0.1-0.9-0.3c-0.2-0.2-0.3-0.5-0.3-1v-1.2h-0.5v-0.9h0.5v-0.8h1v0.8H47v0.9h-0.7
		v1.3c0,0.1,0,0.2,0.1,0.3c0.1,0.1,0.2,0.1,0.3,0.1L47,41z"/>
	<path class="st1" d="M52.5,38.5l-0.9,3.4h-1.2l-0.6-2.3l-0.6,2.3h-1.2l-0.9-3.4h1l0.4,2.4l0.6-2.4h1.1l0.7,2.5l0.4-2.5H52.5z"/>
	<path class="st1" d="M54.9,38.6c0.2,0.1,0.3,0.3,0.4,0.5v-0.6h1v3.4h-1v-0.6c-0.1,0.2-0.2,0.4-0.4,0.5c-0.2,0.1-0.4,0.2-0.7,0.2
		c-0.3,0-0.5-0.1-0.8-0.2c-0.2-0.1-0.4-0.4-0.5-0.6c-0.3-0.6-0.3-1.3,0-1.9c0.1-0.2,0.3-0.5,0.5-0.6c0.2-0.1,0.5-0.2,0.8-0.2
		C54.4,38.4,54.7,38.5,54.9,38.6z M54,39.6c-0.3,0.4-0.3,0.9,0,1.2c0.3,0.3,0.8,0.3,1.1,0c0,0,0,0,0,0c0.3-0.4,0.3-0.9,0-1.2
		C54.8,39.3,54.3,39.3,54,39.6L54,39.6z"/>
	<path class="st1" d="M58.6,38.6c0.2-0.1,0.4-0.2,0.7-0.2v1.1H59c-0.2,0-0.5,0-0.6,0.2c-0.2,0.2-0.3,0.4-0.2,0.6v1.5h-1v-3.4h1v0.6
		C58.2,38.9,58.4,38.8,58.6,38.6z"/>
	<path class="st1" d="M62.9,40.4h-2.4c0,0.2,0.1,0.4,0.2,0.6c0.1,0.1,0.3,0.2,0.4,0.2c0.1,0,0.3,0,0.4-0.1c0.1-0.1,0.2-0.2,0.2-0.3
		h1.1c0,0.2-0.1,0.5-0.3,0.6c-0.2,0.2-0.4,0.3-0.6,0.4c-0.2,0.1-0.5,0.2-0.8,0.2c-0.3,0-0.6-0.1-0.9-0.2c-0.3-0.1-0.5-0.4-0.6-0.6
		c-0.2-0.3-0.2-0.6-0.2-0.9c0-0.3,0.1-0.6,0.2-0.9c0.1-0.3,0.3-0.5,0.6-0.6c0.6-0.3,1.2-0.3,1.8,0c0.3,0.1,0.5,0.3,0.6,0.6
		c0.1,0.3,0.2,0.6,0.2,0.9C62.9,40.2,62.9,40.3,62.9,40.4z M61.7,39.4c-0.1-0.1-0.3-0.2-0.5-0.2c-0.2,0-0.3,0.1-0.5,0.2
		c-0.1,0.1-0.2,0.3-0.2,0.5h1.3C61.9,39.8,61.8,39.6,61.7,39.4z"/>
	<path class="st1" d="M35.3,47.6c-0.2,0.3-0.5,0.6-0.8,0.8c-0.4,0.2-0.8,0.3-1.2,0.3h-1.6v-4.3h1.6c0.4,0,0.8,0.1,1.2,0.3
		c0.3,0.2,0.6,0.4,0.8,0.8C35.6,46.1,35.6,46.9,35.3,47.6L35.3,47.6z M34.1,47.4c0.5-0.5,0.5-1.3,0-1.8c-0.3-0.2-0.6-0.3-0.9-0.3
		h-0.5v2.5h0.5C33.5,47.7,33.9,47.6,34.1,47.4L34.1,47.4z"/>
	<path class="st1" d="M39.3,47.1H37c0,0.2,0.1,0.4,0.2,0.6c0.1,0.1,0.3,0.2,0.4,0.2c0.1,0,0.3,0,0.4-0.1c0.1-0.1,0.2-0.2,0.2-0.3
		h1.1c0,0.2-0.1,0.5-0.3,0.6c-0.2,0.2-0.4,0.3-0.6,0.4c-0.2,0.1-0.5,0.2-0.8,0.2c-0.3,0-0.6-0.1-0.9-0.2c-0.3-0.1-0.5-0.4-0.6-0.6
		c-0.3-0.6-0.3-1.3,0-1.9c0.1-0.3,0.4-0.5,0.6-0.6c0.6-0.3,1.2-0.3,1.8,0c0.2,0.1,0.5,0.3,0.6,0.6c0.1,0.3,0.2,0.6,0.2,0.9
		C39.3,47,39.3,47,39.3,47.1z M38.1,46.2C38,46.1,37.8,46,37.6,46c-0.2,0-0.3,0.1-0.5,0.2C37,46.3,37,46.5,37,46.7h1.3
		C38.3,46.5,38.2,46.3,38.1,46.2L38.1,46.2z"/>
	<path class="st1" d="M41.5,47.6l0.7-2.4h1.1l-1.2,3.4h-1.3l-1.2-3.4h1.1L41.5,47.6z"/>
	<path class="st1" d="M46.9,47.1h-2.4c0,0.2,0.1,0.4,0.2,0.6c0.1,0.1,0.3,0.2,0.4,0.2c0.1,0,0.3,0,0.4-0.1c0.1-0.1,0.2-0.2,0.2-0.3
		h1.1c0,0.2-0.1,0.5-0.3,0.6c-0.2,0.2-0.3,0.3-0.6,0.4c-0.2,0.1-0.5,0.2-0.8,0.2c-0.3,0-0.6-0.1-0.9-0.2c-0.3-0.1-0.5-0.4-0.6-0.6
		c-0.2-0.3-0.2-0.6-0.2-0.9c0-0.3,0.1-0.6,0.2-0.9c0.1-0.3,0.3-0.5,0.6-0.6c0.6-0.3,1.2-0.3,1.8,0c0.3,0.1,0.5,0.3,0.6,0.6
		c0.1,0.3,0.2,0.6,0.2,0.9C47,47,46.9,47,46.9,47.1z M45.7,46.2c-0.1-0.1-0.3-0.2-0.5-0.2c-0.2,0-0.3,0.1-0.5,0.2
		c-0.1,0.1-0.2,0.3-0.2,0.5h1.3C45.9,46.5,45.9,46.3,45.7,46.2z"/>
	<path class="st1" d="M48.5,44.1v4.5h-1v-4.5H48.5z"/>
	<path class="st1" d="M51.7,45.4c0.3,0.1,0.5,0.3,0.6,0.6c0.3,0.6,0.3,1.3,0,1.8c-0.1,0.3-0.4,0.5-0.6,0.6c-0.3,0.1-0.6,0.2-0.9,0.2
		c-0.3,0-0.6-0.1-0.9-0.2c-0.3-0.1-0.5-0.3-0.6-0.6c-0.3-0.6-0.3-1.3,0-1.8c0.1-0.3,0.4-0.5,0.6-0.6c0.3-0.1,0.6-0.2,0.9-0.2
		C51.2,45.2,51.5,45.3,51.7,45.4z M50.3,46.3c-0.1,0.2-0.2,0.4-0.2,0.6c0,0.2,0.1,0.4,0.2,0.6c0.1,0.1,0.3,0.2,0.5,0.2
		c0.2,0,0.4-0.1,0.5-0.2c0.1-0.2,0.2-0.4,0.2-0.6c0-0.2-0.1-0.4-0.2-0.6c-0.1-0.1-0.3-0.2-0.5-0.2C50.7,46.1,50.5,46.2,50.3,46.3z"
		/>
	<path class="st1" d="M56,45.4c0.2,0.1,0.4,0.4,0.5,0.6c0.3,0.6,0.3,1.3,0,1.9c-0.1,0.2-0.3,0.5-0.5,0.6c-0.2,0.1-0.5,0.2-0.8,0.2
		c-0.2,0-0.5,0-0.7-0.2c-0.2-0.1-0.3-0.3-0.4-0.5v2.2h-1v-5h1v0.6c0.1-0.2,0.2-0.4,0.4-0.5c0.2-0.1,0.4-0.2,0.7-0.2
		C55.5,45.2,55.8,45.3,56,45.4z M54.4,46.3c-0.3,0.4-0.3,0.9,0,1.2c0.3,0.3,0.8,0.3,1.1,0c0,0,0,0,0,0c0.3-0.4,0.3-0.9,0-1.2
		C55.2,46,54.7,46,54.4,46.3L54.4,46.3z"/>
	<path class="st1" d="M60.5,47.1h-2.4c0,0.2,0.1,0.4,0.2,0.6c0.1,0.1,0.3,0.2,0.5,0.2c0.1,0,0.3,0,0.4-0.1c0.1-0.1,0.2-0.2,0.2-0.3
		h1.1c0,0.2-0.1,0.5-0.3,0.6c-0.2,0.2-0.3,0.3-0.6,0.4c-0.2,0.1-0.5,0.2-0.8,0.2c-0.3,0-0.6-0.1-0.9-0.2c-0.3-0.1-0.5-0.3-0.6-0.6
		c-0.2-0.3-0.2-0.6-0.2-0.9c0-0.3,0.1-0.6,0.2-0.9c0.1-0.3,0.3-0.5,0.6-0.6c0.6-0.3,1.2-0.3,1.8,0c0.2,0.1,0.5,0.3,0.6,0.6
		c0.1,0.3,0.2,0.6,0.2,0.9C60.5,47,60.5,47.1,60.5,47.1z M59.3,46.2C59.1,46.1,59,46,58.8,46c-0.2,0-0.3,0.1-0.5,0.2
		c-0.1,0.1-0.2,0.3-0.2,0.5h1.3C59.5,46.5,59.4,46.3,59.3,46.2L59.3,46.2z"/>
	<path class="st1" d="M62.6,45.4c0.2-0.1,0.4-0.2,0.7-0.2v1.1H63c-0.2,0-0.5,0-0.6,0.2c-0.2,0.2-0.3,0.4-0.2,0.6v1.5h-1v-3.4h1v0.6
		C62.2,45.7,62.4,45.5,62.6,45.4z"/>
	<path class="st1" d="M66,45.5c0.3,0.2,0.4,0.5,0.5,0.8h-1c0-0.1-0.1-0.2-0.2-0.3c-0.1-0.1-0.2-0.1-0.4-0.1c-0.1,0-0.2,0-0.3,0.1
		c-0.1,0.1-0.1,0.1-0.1,0.2c0,0.1,0.1,0.2,0.2,0.2c0.2,0.1,0.3,0.1,0.5,0.2c0.2,0,0.4,0.1,0.6,0.2c0.2,0.1,0.3,0.2,0.4,0.3
		c0.1,0.2,0.2,0.4,0.2,0.6c0,0.2-0.1,0.4-0.2,0.5c-0.1,0.2-0.3,0.3-0.5,0.4c-0.2,0.1-0.5,0.1-0.7,0.1c-0.4,0-0.8-0.1-1.1-0.3
		c-0.3-0.2-0.5-0.5-0.5-0.9h1c0,0.1,0.1,0.3,0.2,0.3c0.1,0.1,0.3,0.1,0.4,0.1c0.1,0,0.2,0,0.3-0.1c0.1-0.1,0.1-0.1,0.1-0.2
		c0-0.1-0.1-0.2-0.2-0.3c-0.2-0.1-0.4-0.1-0.5-0.2c-0.2,0-0.4-0.1-0.6-0.2c-0.2-0.1-0.3-0.2-0.4-0.3c-0.1-0.2-0.2-0.4-0.2-0.6
		c0-0.3,0.1-0.6,0.3-0.7c0.3-0.2,0.6-0.3,1-0.3C65.3,45.2,65.7,45.3,66,45.5z"/>
	<path class="st1" d="M44.9,54.7c0-0.3-0.1-0.4-0.3-0.4c-0.1,0-0.2,0-0.3,0.1c-0.1,0.1-0.1,0.3-0.1,0.4h-0.8c0-0.3,0.1-0.7,0.4-0.9
		c0.2-0.2,0.5-0.3,0.9-0.3c0.3,0,0.6,0.1,0.8,0.3c0.2,0.2,0.3,0.4,0.3,0.7c0,0.4-0.1,0.7-0.4,1c-0.3,0.3-0.6,0.6-0.9,0.8h1.3v0.7
		h-2.4v-0.6C44.4,55.7,44.9,55.2,44.9,54.7z"/>
	<path class="st1" d="M46.1,55.4c0-0.4,0.1-0.9,0.3-1.2c0.2-0.3,0.6-0.5,1-0.5c0.5,0,0.8,0.2,1,0.5c0.4,0.8,0.4,1.7,0,2.5
		c-0.2,0.3-0.6,0.5-1,0.5s-0.8-0.2-1-0.5C46.2,56.3,46.1,55.8,46.1,55.4z M48,55.4c0-0.2,0-0.5-0.1-0.7c-0.1-0.2-0.2-0.3-0.4-0.2
		c-0.2,0-0.4,0.1-0.4,0.2c-0.1,0.2-0.1,0.5-0.1,0.7c0,0.2,0,0.5,0.1,0.7c0.1,0.2,0.2,0.3,0.4,0.2c0.2,0,0.3-0.1,0.4-0.2
		C48,55.9,48,55.6,48,55.4L48,55.4z"/>
	<path class="st1" d="M50.7,54.7c0-0.3-0.1-0.4-0.3-0.4c-0.1,0-0.2,0-0.3,0.1C50,54.6,50,54.8,50,54.9h-0.8c0-0.3,0.1-0.7,0.4-0.9
		c0.2-0.2,0.5-0.3,0.9-0.3c0.3,0,0.6,0.1,0.8,0.3c0.2,0.2,0.3,0.4,0.3,0.7c0,0.4-0.1,0.7-0.4,1c-0.3,0.3-0.6,0.6-0.9,0.8h1.3v0.7
		h-2.4v-0.6C50.2,55.7,50.7,55.2,50.7,54.7z"/>
	<path class="st1" d="M51.9,55.4c0-0.4,0.1-0.9,0.3-1.2c0.2-0.3,0.6-0.5,1-0.5c0.5,0,0.8,0.2,1,0.5c0.4,0.8,0.4,1.7,0,2.5
		c-0.2,0.3-0.6,0.5-1,0.5c-0.5,0-0.8-0.2-1-0.5C52,56.3,51.9,55.8,51.9,55.4z M53.7,55.4c0-0.2,0-0.5-0.1-0.7
		c-0.1-0.2-0.2-0.3-0.4-0.2c-0.2,0-0.4,0.1-0.4,0.2c-0.1,0.2-0.1,0.5-0.1,0.7c0,0.2,0,0.5,0.1,0.7c0.1,0.2,0.2,0.3,0.4,0.2
		c0.2,0,0.3-0.1,0.4-0.2C53.7,55.9,53.7,55.6,53.7,55.4L53.7,55.4z"/>
	<path class="st1" d="M37.8,18v0.4h-0.2c-0.2,0-0.3,0-0.4-0.1c-0.1-0.1-0.2-0.3-0.2-0.5V17h-0.2v-0.4H37v-0.4h0.4v0.4h0.4V17h-0.4
		v0.7c0,0.1,0,0.1,0,0.2c0,0,0.1,0.1,0.2,0L37.8,18z"/>
	<path class="st1" d="M39.6,17.6h-1.2c0,0.1,0,0.2,0.1,0.3c0.1,0.1,0.2,0.1,0.3,0.1c0.1,0,0.2,0,0.2-0.1c0.1,0,0.1-0.1,0.1-0.2h0.5
		c0,0.1-0.1,0.2-0.1,0.3c-0.1,0.1-0.2,0.2-0.3,0.2c-0.1,0.1-0.3,0.1-0.4,0.1c-0.2,0-0.3,0-0.4-0.1c-0.1-0.1-0.2-0.2-0.3-0.3
		c-0.1-0.3-0.1-0.6,0-0.9c0.1-0.1,0.2-0.2,0.3-0.3c0.1-0.1,0.3-0.1,0.4-0.1c0.2,0,0.3,0,0.4,0.1c0.1,0.1,0.2,0.2,0.3,0.3
		C39.7,17.2,39.7,17.4,39.6,17.6L39.6,17.6z M39.1,17.1C39,17,38.9,17,38.8,17c-0.1,0-0.2,0-0.3,0.1c-0.1,0.1-0.1,0.2-0.1,0.3h0.8
		C39.2,17.3,39.2,17.1,39.1,17.1L39.1,17.1z"/>
	<path class="st1" d="M41.3,16.8c0.1,0.1,0.2,0.3,0.3,0.5h-0.5c0-0.1-0.1-0.2-0.1-0.2C40.9,17,40.8,17,40.7,17c-0.1,0-0.2,0-0.3,0.1
		c-0.2,0.2-0.2,0.5,0,0.7c0.1,0.1,0.2,0.1,0.3,0.1c0.1,0,0.2,0,0.2-0.1c0.1-0.1,0.1-0.1,0.1-0.2h0.5c0,0.2-0.1,0.4-0.3,0.5
		c-0.2,0.1-0.3,0.2-0.5,0.2c-0.2,0-0.3,0-0.4-0.1c-0.1-0.1-0.2-0.2-0.3-0.3c-0.1-0.3-0.1-0.6,0-0.9c0.1-0.1,0.2-0.2,0.3-0.3
		c0.1-0.1,0.3-0.1,0.4-0.1C40.9,16.6,41.1,16.7,41.3,16.8z"/>
	<path class="st1" d="M43.3,16.8c0.1,0.2,0.2,0.3,0.2,0.5v1h-0.4v-0.9c0-0.1,0-0.2-0.1-0.3C42.9,17,42.8,17,42.7,17
		c-0.1,0-0.2,0-0.3,0.1c-0.1,0.1-0.1,0.2-0.1,0.3v0.9h-0.4v-2.3h0.4V17c0-0.1,0.1-0.2,0.2-0.3c0.1-0.1,0.2-0.1,0.4-0.1
		C43,16.6,43.2,16.7,43.3,16.8z"/>
	<path class="st1" d="M44.5,16.7c0.1-0.1,0.2-0.1,0.3-0.1v0.5h-0.1c-0.3,0-0.5,0.1-0.5,0.4v0.8h-0.4v-1.7h0.4V17
		C44.4,16.9,44.4,16.8,44.5,16.7z"/>
	<path class="st1" d="M46.7,17.6h-1.2c0,0.1,0,0.2,0.1,0.3c0.1,0.1,0.2,0.1,0.3,0.1c0.1,0,0.2,0,0.2-0.1c0.1,0,0.1-0.1,0.1-0.2h0.5
		c0,0.1-0.1,0.2-0.1,0.3c-0.1,0.1-0.2,0.2-0.3,0.2c-0.1,0.1-0.3,0.1-0.4,0.1c-0.2,0-0.3,0-0.4-0.1c-0.1-0.1-0.2-0.2-0.3-0.3
		c-0.1-0.3-0.1-0.6,0-0.9c0.1-0.1,0.2-0.2,0.3-0.3c0.1-0.1,0.3-0.1,0.4-0.1c0.2,0,0.3,0,0.4,0.1c0.1,0.1,0.2,0.2,0.3,0.3
		c0.1,0.1,0.1,0.3,0.1,0.4C46.7,17.5,46.7,17.5,46.7,17.6z M46.2,17.1C46.1,17,46,17,45.9,17c-0.1,0-0.2,0-0.3,0.1
		c-0.1,0.1-0.1,0.2-0.1,0.3h0.8C46.3,17.3,46.3,17.1,46.2,17.1L46.2,17.1z"/>
	<path class="st1" d="M47.8,17.9l0.4-1.3h0.5L48,18.3h-0.5l-0.6-1.7h0.5L47.8,17.9z"/>
	<path class="st1" d="M48.9,16c0.1,0,0.1-0.1,0.2-0.1c0.1,0,0.1,0,0.2,0.1c0.1,0.1,0.1,0.2,0,0.3c0,0,0,0,0,0
		c-0.1,0-0.1,0.1-0.2,0.1c-0.1,0-0.1,0-0.2-0.1C48.8,16.2,48.8,16.1,48.9,16C48.9,16,48.9,16,48.9,16z M49.3,16.6v1.7h-0.4v-1.7
		L49.3,16.6z"/>
	<path class="st1" d="M51.3,17.6H50c0,0.1,0,0.2,0.1,0.3c0.1,0.1,0.2,0.1,0.3,0.1c0.1,0,0.2,0,0.2-0.1c0.1,0,0.1-0.1,0.1-0.2h0.5
		c0,0.1-0.1,0.2-0.1,0.3c-0.1,0.1-0.2,0.2-0.3,0.2c-0.1,0.1-0.3,0.1-0.4,0.1c-0.2,0-0.3,0-0.4-0.1c-0.1-0.1-0.2-0.2-0.3-0.3
		c-0.1-0.3-0.1-0.6,0-0.9c0.1-0.1,0.2-0.2,0.3-0.3c0.1-0.1,0.3-0.1,0.4-0.1c0.2,0,0.3,0,0.4,0.1c0.1,0.1,0.2,0.2,0.3,0.3
		c0.1,0.1,0.1,0.3,0.1,0.4C51.3,17.5,51.3,17.5,51.3,17.6z M50.7,17.1C50.7,17,50.6,17,50.5,17c-0.1,0-0.2,0-0.3,0.1
		c-0.1,0.1-0.1,0.2-0.1,0.3h0.8C50.9,17.3,50.8,17.1,50.7,17.1L50.7,17.1z"/>
	<path class="st1" d="M54,16.6l-0.4,1.7h-0.5l-0.4-1.2l-0.4,1.2h-0.5l-0.4-1.7h0.4l0.3,1.3l0.4-1.3h0.5l0.4,1.3l0.3-1.3H54z"/>
	<path class="st1" d="M55.8,17.6h-1.2c0,0.1,0,0.2,0.1,0.3c0.1,0.1,0.2,0.1,0.3,0.1c0.1,0,0.2,0,0.2-0.1c0.1,0,0.1-0.1,0.1-0.2h0.5
		c0,0.1-0.1,0.2-0.1,0.3c-0.1,0.1-0.2,0.2-0.3,0.2c-0.1,0.1-0.3,0.1-0.4,0.1c-0.2,0-0.3,0-0.4-0.1c-0.1-0.1-0.2-0.2-0.3-0.3
		c-0.1-0.3-0.1-0.6,0-0.9c0.1-0.1,0.2-0.2,0.3-0.3c0.1-0.1,0.3-0.1,0.4-0.1c0.2,0,0.3,0,0.4,0.1c0.1,0.1,0.2,0.2,0.3,0.3
		C55.8,17.2,55.8,17.4,55.8,17.6L55.8,17.6z M55.3,17.1C55.2,17,55.1,17,55,17c-0.1,0-0.2,0-0.3,0.1c-0.1,0.1-0.1,0.2-0.1,0.3h0.8
		C55.4,17.3,55.3,17.1,55.3,17.1L55.3,17.1z"/>
	<path class="st1" d="M56.8,16.7c0.1-0.1,0.2-0.1,0.3-0.1v0.5H57c-0.3,0-0.5,0.1-0.5,0.4v0.8h-0.4v-1.7h0.4V17
		C56.6,16.9,56.7,16.8,56.8,16.7z"/>
	<path class="st1" d="M57.7,17.9v0.4h-0.5v-0.4H57.7z"/>
	<path class="st1" d="M59.3,16.8c0.1,0.1,0.2,0.3,0.3,0.5h-0.4c0-0.1-0.1-0.2-0.1-0.2C58.9,17,58.8,17,58.8,17c-0.1,0-0.2,0-0.3,0.1
		c-0.2,0.2-0.2,0.5,0,0.7c0.1,0.1,0.2,0.1,0.3,0.1c0.1,0,0.2,0,0.2-0.1c0.1-0.1,0.1-0.1,0.1-0.2h0.5c0,0.2-0.1,0.4-0.3,0.5
		c-0.2,0.1-0.3,0.2-0.5,0.2c-0.2,0-0.3,0-0.4-0.1c-0.1-0.1-0.2-0.2-0.3-0.3c-0.1-0.3-0.1-0.6,0-0.9c0.1-0.1,0.2-0.2,0.3-0.3
		c0.1-0.1,0.3-0.1,0.4-0.1C59,16.6,59.2,16.7,59.3,16.8z"/>
	<path class="st1" d="M61.1,16.7c0.1,0.1,0.2,0.2,0.3,0.3c0.2,0.3,0.2,0.6,0,0.9c-0.1,0.1-0.2,0.2-0.3,0.3c-0.3,0.1-0.6,0.1-0.9,0
		c-0.1-0.1-0.2-0.2-0.3-0.3c-0.1-0.3-0.1-0.6,0-0.9c0.1-0.1,0.2-0.2,0.3-0.3C60.5,16.6,60.8,16.6,61.1,16.7z M60.4,17.1
		c-0.1,0.1-0.1,0.2-0.1,0.4c0,0.1,0,0.3,0.1,0.4c0.2,0.2,0.4,0.2,0.6,0c0,0,0,0,0,0c0.1-0.1,0.1-0.2,0.1-0.4c0-0.1,0-0.3-0.1-0.4
		C60.8,17,60.5,17,60.4,17.1z"/>
</g>
</svg>
