<svg id="ruby.svg" xmlns="http://www.w3.org/2000/svg" width="41" height="55" viewBox="0 0 41 55">
  <defs>
    <style>
      .cls-1 {
        fill: #3f597e;
        fill-opacity: 0;
      }

      .cls-2 {
        fill: #fff;
        fill-rule: evenodd;
      }
    </style>
  </defs>
  <rect id="Прямоугольник_1_копия_30" data-name="Прямоугольник 1 копия 30" class="cls-1" width="41" height="55"/>
  <path id="ruby" class="cls-2" d="M4658,52.488q0-10.524.01-21.047a3.574,3.574,0,0,1,.09-0.865,2.073,2.073,0,0,1,2.05-1.568c2.02-.006,4.05,0,6.08,0h30.5a2.118,2.118,0,0,1,2.19,1.628,3.433,3.433,0,0,1,.07.717q0.015,21.138.01,42.275a2.18,2.18,0,0,1-2.38,2.368h-36.25a2.178,2.178,0,0,1-2.37-2.369V52.488Zm4.32,16.08c0.07,0.127.13,0.213,0.18,0.3q1.11,2.141,2.23,4.283a1.794,1.794,0,0,0,.2.27l0.09-.065c-0.84-1.605-1.67-3.211-2.54-4.9,4.29,1.375,8.49,2.722,12.75,4.086-0.52.467-.98,0.889-1.47,1.329a0.474,0.474,0,0,0,.58-0.093c0.31-.292.63-0.571,0.94-0.854a0.393,0.393,0,0,1,.63-0.009c0.38,0.34.78,0.674,1.15,1.027a0.642,0.642,0,0,0,.66.154c-0.6-.536-1.18-1.046-1.76-1.561a56.123,56.123,0,0,0,5.6-7.1c0.44,2.966.87,5.859,1.29,8.754,0.03,0.254.13,0.3,0.36,0.221-0.07-.508-0.15-1-0.22-1.5-0.37-2.527-.74-5.054-1.13-7.579a0.791,0.791,0,0,1,.12-0.562,32.578,32.578,0,0,0,2.78-5.146,0.635,0.635,0,0,1,.11-0.156c-0.4,5.046-.79,10.017-1.18,15.007a3.155,3.155,0,0,1,.36.033c0.25,0.056.33-.043,0.34-0.3,0.01-.451.06-0.9,0.11-1.352q0.24-2.278.51-4.555,0.3-2.727.64-5.452c0.22-1.806.42-3.616,0.71-5.412a15.945,15.945,0,0,0-.23-6.525,6.155,6.155,0,0,0-5.64-4.356l-6.09.024c-0.53,0-.53,0-0.68-0.489-0.03-.074-0.06-0.146-0.09-0.219l-0.03.007c0.02,0.224.04,0.448,0.07,0.684a1.81,1.81,0,0,1-.18.022c-1.18.012-2.36,0.014-3.54,0.04a1.916,1.916,0,0,0-.72.16c-2.08.927-4.15,1.869-6.22,2.808a1.077,1.077,0,0,0-.18.108c-0.96.815-1.92,1.63-2.87,2.449a0.352,0.352,0,0,0-.12.168c-0.01.345,0,.691,0,1.117,0.15-.113.21-0.151,0.26-0.2a25.333,25.333,0,0,1,3.74-2.7,14.625,14.625,0,0,1,5.42-2.052,4.49,4.49,0,0,1,2.41.223,2.532,2.532,0,0,1,1.29,1.2c-0.17-.047-0.27-0.078-0.38-0.109,0.15,0.235.39,0.392,0.53,0.611a1.934,1.934,0,0,1,.22.754,0.915,0.915,0,0,1-.42.217c-1.15.4-2.31,0.784-3.46,1.176-0.17.058-.34,0.122-0.5,0.183a0.07,0.07,0,0,0,.01.043l4.47-.841c-0.04.346-.06,0.636-0.11,0.922a13.3,13.3,0,0,1-1.75,4.466,27.959,27.959,0,0,1-5,6.069,26.687,26.687,0,0,1-5.77,4.31,0.418,0.418,0,0,0-.16.3c0.04,0.8.1,1.608,0.14,2.411,0.01,0.271.01,0.542,0.39,0.527-0.02.618-.5,1.169-0.12,1.79C4661.47,71.373,4661.88,70,4662.32,68.567Zm-0.71-35.632c-0.5-.031-1.02-0.075-1.55-0.087a0.87,0.87,0,0,0-.32.175,0.873,0.873,0,0,0,.24.292,2.866,2.866,0,0,0,.49.116,1.313,1.313,0,0,1,1.09,1.275c0.02,0.27.04,0.542,0.04,0.813,0,2.1-.01,4.206,0,6.308a1.4,1.4,0,0,1-.98,1.674,0.3,0.3,0,0,0-.14.251,0.3,0.3,0,0,0,.23.175,5.568,5.568,0,0,0,.6-0.02c1.13-.02,2.25-0.038,3.38-0.056a0.78,0.78,0,0,0,.27,0,0.357,0.357,0,0,0,.21-0.2,0.323,0.323,0,0,0-.16-0.246,1.051,1.051,0,0,0-.35-0.077,1.086,1.086,0,0,1-1.04-.976c-0.09-1.14-.11-2.285-0.13-3.428a0.368,0.368,0,0,1,.24-0.26,7.684,7.684,0,0,1,1.12-.014,0.875,0.875,0,0,1,.73.471c0.31,0.561.6,1.138,0.92,1.693a23.361,23.361,0,0,0,1.32,2.124c0.88,1.167,1.94,1.159,3.23.359a0.887,0.887,0,0,0,.18-0.369,1.1,1.1,0,0,0-.35-0.06,1.24,1.24,0,0,1-1.27-.465,10.242,10.242,0,0,1-.62-0.925c-0.55-.957-1.09-1.923-1.64-2.885-0.21-.375-0.21-0.374.17-0.569a2.638,2.638,0,0,0,.41-4.523,3.82,3.82,0,0,0-2.58-.76C4664.11,32.794,4662.87,32.869,4661.61,32.936Zm21.18-.727a0.965,0.965,0,0,0-.2.053,6.776,6.776,0,0,1-2.21.878,0.643,0.643,0,0,0-.2.248,0.752,0.752,0,0,0,.25.153,0.736,0.736,0,0,1,.73.735,3.88,3.88,0,0,1,.04.481v7.816c0,0.4-.05.8-0.06,1.206a1.159,1.159,0,0,0,.08.306,1.341,1.341,0,0,0,.29-0.171,4.981,4.981,0,0,0,.34-0.422,0.251,0.251,0,0,1,.42-0.068,3.616,3.616,0,0,0,4.28-.177,4.049,4.049,0,0,0,1.29-4.158,2.46,2.46,0,0,0-2.03-2.03,2.57,2.57,0,0,0-2.77,1.038,2.119,2.119,0,0,1-.17.185,0.775,0.775,0,0,0-.08-0.025v-6.05Zm-6,10.619c0.05,0.027.1,0.053,0.14,0.08,0,0.223,0,.447.01,0.67,0,0.2.02,0.377,0.32,0.34,0.7-.088,1.41-0.148,2.12-0.223a0.743,0.743,0,0,0,.32-0.067,0.357,0.357,0,0,0,.16-0.253,0.339,0.339,0,0,0-.22-0.164,0.884,0.884,0,0,0-.27-0.007c-0.62-.006-0.75-0.085-0.76-0.7-0.02-1.8-.02-3.6-0.02-5.4a0.52,0.52,0,0,0,0-.177,0.4,0.4,0,0,0-.21-0.16c-0.69.06-1.38,0.136-2.07,0.211a0.743,0.743,0,0,0-.29.061,0.34,0.34,0,0,0-.13.209,0.252,0.252,0,0,0,.15.157,3.353,3.353,0,0,0,.47.1,0.449,0.449,0,0,1,.41.48c0,1.288.03,2.575-.01,3.862a1.183,1.183,0,0,1-1.07,1.2c-1.09.145-1.6-.229-1.71-1.157a11.717,11.717,0,0,1-.1-1.321c0.01-1.167.05-2.333,0.07-3.5,0.01-.325-0.04-0.346-0.34-0.3-0.58.081-1.16,0.139-1.73,0.206a2.073,2.073,0,0,0-.45.06,0.928,0.928,0,0,0-.24.225c0.09,0.067.17,0.139,0.26,0.2a0.283,0.283,0,0,0,.12.008,0.529,0.529,0,0,1,.61.661c0,0.493-.04.986-0.04,1.478,0,0.824-.02,1.651.04,2.471a1.9,1.9,0,0,0,1.24,1.752,2.538,2.538,0,0,0,2.87-.557C4676.57,43.144,4676.67,42.978,4676.79,42.827Zm15.98-1.025a1.751,1.751,0,0,1-.2-0.274c-0.53-1-1.06-1.987-1.57-2.994-0.29-.581-0.15-0.8.49-0.957a0.4,0.4,0,0,0,.25-0.256c0.02-.2-0.16-0.184-0.3-0.175-0.46.027-.91,0.075-1.36,0.075-0.52,0-1.03-.049-1.54-0.057a1.1,1.1,0,0,0-.34.128,3.08,3.08,0,0,0,.22.278,3.018,3.018,0,0,1,.53.548c0.93,1.793,1.83,3.6,2.76,5.4a1.034,1.034,0,0,1-.02,1.11c-0.33.506-.68,1-1.02,1.494-0.07.1-.13,0.21-0.23,0.375,0.24,0.02.4,0.036,0.57,0.047,0.45,0.031.5,0,.67-0.425,0.47-1.174.94-2.349,1.42-3.523,0.54-1.351,1.08-2.7,1.63-4.052a1.623,1.623,0,0,1,.81-1,0.719,0.719,0,0,0,.22-0.271,1.01,1.01,0,0,0-.31-0.109c-0.7-.022-1.4-0.031-2.11-0.044a0.5,0.5,0,0,0-.18,0,0.247,0.247,0,0,0-.14.122,0.284,0.284,0,0,0,.1.187,0.807,0.807,0,0,0,.23.08,0.836,0.836,0,0,1,.64,1.113c-0.3.995-.69,1.966-1.04,2.945A1.217,1.217,0,0,1,4692.77,41.8Zm-17.61,30.364c-4.19-1.343-8.35-2.676-12.53-4.013,0.02-.045.03-0.076,0.04-0.092q2.94-2.7,5.89-5.385a0.873,0.873,0,0,1,.51-0.2c1.01-.073,2.02-0.118,3.04-0.184,0.51-.033.54-0.031,0.66,0.426,0.8,3.1,1.59,6.206,2.39,9.309v0.134Zm6.13-7.5a48.334,48.334,0,0,1-5.55,7.133c-1.04-4.134-2.08-8.254-3.14-12.446C4675.54,61.156,4678.41,62.913,4681.29,64.669Zm-5.02-6.578-0.27-1.9c-0.14-1.024-.28-2.049-0.43-3.073-0.03-.181.06-0.221,0.21-0.263a1.654,1.654,0,0,1,1.56.113,0.25,0.25,0,0,0,.04-0.07c-0.07-.095-0.15-0.19-0.23-0.3a0.461,0.461,0,0,1,.65.044q2.61,2.114,5.22,4.218c0.39,0.32.79,0.643,1.25,1.017l-11.81.788c0.22-.712.44-1.4,0.66-2.081q0.48-1.53.99-3.058a0.6,0.6,0,0,1,.22-0.325c0.37-.193.51-0.125,0.62,0.276,0.4,1.443.79,2.887,1.18,4.33,0.03,0.1.06,0.191,0.08,0.286h0.06Zm8.26,0.394a31.037,31.037,0,0,1-3.12,6.061q-4.29-2.615-8.53-5.214V59.264Zm-7.96-7.306a14.908,14.908,0,0,1,1.72-.52,3.51,3.51,0,0,1,1.07.1c1.94,0.267,3.87.547,5.81,0.8a0.415,0.415,0,0,1,.41.428,11.5,11.5,0,0,1-.15,4.374c-0.08.373-.18,0.743-0.28,1.111-0.12.444-.27,0.487-0.64,0.186q-0.8-.647-1.59-1.3-3.045-2.473-6.07-4.945C4676.77,51.354,4676.7,51.288,4676.57,51.179Zm8.77,0.245-6.51-.913c0-.014-0.01-0.029-0.01-0.043,0.72-.23,1.43-0.46,2.15-0.689a0.075,0.075,0,0,1-.01-0.045c-1.05.183-2.1,0.4-3.15,0.534a6.419,6.419,0,0,1-1.35-.085c-0.18-.017-0.37-0.057-0.59-0.091a1.105,1.105,0,0,1,.55-0.816c1.17-.616,2.33-1.265,3.49-1.914a0.891,0.891,0,0,1,.66-0.11,6.406,6.406,0,0,1,3.66,1.947A4.85,4.85,0,0,1,4685.34,51.424Zm-11.19-4.148h5.33a2.01,2.01,0,0,1-.23.151c-0.89.495-1.79,0.99-2.69,1.481-0.35.189-.7,0.364-1.05,0.549-0.15.076-.27,0.095-0.36-0.076-0.32-.636-0.65-1.271-0.97-1.908A0.675,0.675,0,0,1,4674.15,47.276Zm2.69,3.175c-0.29.053-.57,0.122-0.86,0.149a0.558,0.558,0,0,1-.25-0.18,0.576,0.576,0,0,1,.25-0.132c0.29,0.022.58,0.077,0.86,0.12v0.043Zm-13.36-14.678c0-.553-0.02-1.106.01-1.658a0.686,0.686,0,0,1,.8-0.762,2.716,2.716,0,0,1,2.89,3.233,1.545,1.545,0,0,1-1.56,1.356c-0.53.011-1.06,0.02-1.6,0.008a0.435,0.435,0,0,1-.54-0.519c-0.02-.552,0-1.105,0-1.658h0Zm19.33,4.776V39.343a1.27,1.27,0,0,1,1.02-1.269,1.875,1.875,0,0,1,1.8.532,3.144,3.144,0,0,1,.9,2.02,3.713,3.713,0,0,1-.21,1.866,1.675,1.675,0,0,1-1.68,1.093,1.934,1.934,0,0,1-1.76-1.294,5.639,5.639,0,0,1-.07-1.167C4682.8,40.932,4682.81,40.741,4682.81,40.55Z" transform="translate(-4658 -25)"/>
</svg>
