<svg id="ror.svg" xmlns="http://www.w3.org/2000/svg" width="157.063" height="55" viewBox="0 0 157.063 55">
  <defs>
    <style>
      .cls-1 {
        fill: #3f597e;
        fill-opacity: 0;
      }

      .cls-2 {
        fill: #fff;
        fill-rule: evenodd;
      }
    </style>
  </defs>
  <rect id="Прямоугольник_1" data-name="Прямоугольник 1" class="cls-1" width="157" height="55"/>
  <path id="ror.png" class="cls-2" d="M92.677,60L90.5,56.078a3.235,3.235,0,0,0,2.129-3.2,3.438,3.438,0,0,0-3.714-3.553H83.569V60h2.753V56.415h1.409L89.523,60h3.153ZM88.5,54.013H86.322V51.725H88.5A1.157,1.157,0,1,1,88.5,54.013Zm10.7,6.179c3.409,0,5.026-1.873,5.026-4.53V49.324h-2.785v6.259a2.25,2.25,0,0,1-4.5,0V49.324h-2.8v6.355C94.145,58.3,95.762,60.192,99.2,60.192ZM112.387,60a2.841,2.841,0,0,0,3.138-2.9,2.557,2.557,0,0,0-2.033-2.609,2.385,2.385,0,0,0,1.825-2.449,2.8,2.8,0,0,0-3.122-2.721h-6.05V60h6.242Zm-0.816-6.579H108.9V51.645h2.673A0.89,0.89,0,1,1,111.571,53.421Zm0.1,4.258H108.9V55.758h2.769a0.962,0.962,0,0,1,1.057.961A0.945,0.945,0,0,1,111.667,57.679ZM122.691,60V55.694l4.034-6.371H123.6l-2.288,3.937-2.321-3.937h-3.106l4.05,6.371V60h2.753Zm14.08,0.192a5.525,5.525,0,1,0-5.714-5.522A5.42,5.42,0,0,0,136.771,60.192Zm0-2.433a3.1,3.1,0,1,1,2.9-3.089A2.889,2.889,0,0,1,136.771,57.759ZM153.781,60V49.324h-2.769V55.2l-4.322-5.874h-2.833V60h2.753V53.821L151.124,60h2.657ZM168.9,60l-2.177-3.922a3.234,3.234,0,0,0,2.129-3.2,3.438,3.438,0,0,0-3.713-3.553h-5.347V60h2.753V56.415h1.409L165.747,60H168.9Zm-4.178-5.987h-2.177V51.725h2.177A1.157,1.157,0,1,1,164.722,54.013ZM180.741,60l-4.034-10.676H173.25L169.232,60h3.121l0.528-1.537h4.21L177.619,60h3.122Zm-4.4-3.938h-2.721l1.36-4.018ZM184.273,60V49.324H181.52V60h2.753Zm8.962,0V57.6h-4.29V49.324h-2.753V60h7.043Zm5.39,0.192c2.866,0,4.45-1.424,4.45-3.569,0-3.97-6.034-2.977-6.034-4.338,0-.448.352-0.768,1.152-0.768a5.029,5.029,0,0,1,3.122,1.1l1.5-1.969a6.512,6.512,0,0,0-4.338-1.489c-2.737,0-4.257,1.6-4.257,3.393,0,4.114,6.05,2.945,6.05,4.4,0,0.512-.576.881-1.52,0.881a4.826,4.826,0,0,1-3.41-1.409L193.888,58.5A6.529,6.529,0,0,0,198.625,60.192ZM46.049,71.92s0.054-8.693.054-17.529C46.1,37.275,44.7,36,52.156,36H72.9V60.688C72.9,68.816,74.373,72,66.085,72S46.049,71.92,46.049,71.92h0Zm2.568-8.576v5.393h1.335v-1.4l1.215,1.252h2.048L51.59,66.91s1.169-.019,1.257-1.761c0-1.6-1.17-1.8-2.521-1.8H48.617Zm1.4,1.463h1.151v0.961H50.015V64.807Zm5.777-1.441c-0.731,0-1.745.066-1.745,1.485V68.6h1.37V67.682h1.328v0.9h1.377v-3.93c0-1.233-1.329-1.281-2.041-1.281h-0.29Zm-0.353,1.354h1.286V66.2H55.439V64.719Zm4.057-1.35h1.418v5.159H59.5V63.369Zm2.9,0.069V68.6h3.411v-1.37H63.794V63.415Zm7.931-.046v1.393H68.047v0.5h0.975a1.36,1.36,0,0,1,1.573,1.621c0,1.644-.731,1.735-2.215,1.735H66.585V67.387h2.06c0.62,0,.654-0.208.654-0.389s-0.317-.266-0.962-0.266A1.682,1.682,0,0,1,66.5,65.127c0-1.278.62-1.758,1.861-1.758s1.971,0.023,1.971.023h0ZM49.859,61.817H61.645S59.031,55.7,59.7,50.083s4.962-8.173,7.4-8.447a4.445,4.445,0,0,1,3.766,1.278l0.532-.822s-3.5-3.653-7.931-3.241-7.488,3.424-9.393,7.077A33.769,33.769,0,0,0,50.3,55.973,18.849,18.849,0,0,0,49.859,61.817ZM47.511,55.7l2.3,0.183-0.4,2.374-2.171-.274Zm3.633-5.022,0.62-1.781-2.038-.822-0.665,1.917Zm2.88-6.118,1.2-1.461-1.551-1.05-1.241,1.416ZM57.17,38.9l1.063,1.324,1.462-.868L58.632,38.12Zm5.184-1.507,0.266,1.324,1.817-.046-0.177-1.187Zm6.158,1.415-0.044.822,1.24,0.685,0.266-.411Zm-0.266,3.516v0.684l1.2,0.137V42.6Zm-3.81.593,0.576,1.1,0.842-.685-0.177-.73ZM62.619,44.33l0.886,1.37-0.532.959L61.689,45.2ZM60.847,48.12l-0.576,1.187,1.506,1.324,0.354-1.507Zm-0.62,4.155-0.089,1.6L62,54.694,61.91,53.187Zm0.532,5.662L61.2,59.58l2.348,0.137-0.842-1.781H60.758Z" transform="translate(-46 -25)"/>
</svg>
