<?xml version="1.0" encoding="utf-8"?>
<!-- Generator: Adobe Illustrator 23.0.1, SVG Export Plug-In . SVG Version: 6.00 Build 0)  -->
<svg version="1.1" id="Слой_1" xmlns="http://www.w3.org/2000/svg" xmlns:xlink="http://www.w3.org/1999/xlink" x="0px" y="0px"
	 width="70px" height="70px" viewBox="0 0 70 70" style="enable-background:new 0 0 70 70;" xml:space="preserve">
<style type="text/css">
	.st0{fill:none;stroke:#FFFFFF;stroke-width:2;}
	.st1{fill:#FFFFFF;}
</style>
<path class="st0" d="M47.8,22.4V3.5c0-1.1-0.9-2-2-2H3.5c-1.1,0-2,0.9-2,2v42.3c0,1.1,0.9,2,2,2h18.9"/>
<path class="st0" d="M62.6,46V29.6c0-1.1-0.9-2-2-2h-31c-1.1,0-2,0.9-2,2v31c0,1.1,0.9,2,2,2H46"/>
<path class="st0" d="M52.5,50.5h14c1.1,0,2,0.9,2,2v14c0,1.1-0.9,2-2,2h-14c-1.1,0-2-0.9-2-2v-14C50.5,51.4,51.4,50.5,52.5,50.5z"/>
<path class="st0" d="M34.6,34.6l12.7,11.8 M34.6,34.6v6.1 M34.6,34.6h6.1"/>
<path class="st0" d="M7.5,7.5l12.7,11.8 M7.5,7.5v6.1 M7.5,7.5h6.1"/>
<rect x="6.5" y="6.5" class="st1" width="1.7" height="1.7"/>
<rect x="33.6" y="33.6" class="st1" width="1.7" height="1.7"/>
</svg>
