<svg xmlns="http://www.w3.org/2000/svg" width="1240.1" height="399.83" viewBox="0 0 1240.1 399.83"><defs><style>.cls-1{fill:#2e383d;}.cls-2{opacity:0.1;}.cls-3{fill:#fff;}.cls-4{fill:#506a7c;}.cls-5{fill:#e3edf6;}.cls-6{opacity:0.2;}.cls-7{fill:#677f93;}.cls-8{fill:#f55;}.cls-9{opacity:0.5;}.cls-10{fill:#006ec9;}</style></defs><title>desktop</title><g id="Слой_2" data-name="Слой 2"><g id="Слой_1-2" data-name="Слой 1"><rect class="cls-1" x="1035.79" y="0.09" width="204.31" height="322" rx="5"/><g class="cls-2"><path class="cls-3" d="M1222.17,307.59H1053.73a3.5,3.5,0,0,1-3.5-3.5V179.75a3.5,3.5,0,0,1,3.5-3.5h168.44a3.5,3.5,0,0,1,3.5,3.5V304.09A3.5,3.5,0,0,1,1222.17,307.59ZM1053.73,177.25a2.5,2.5,0,0,0-2.5,2.5V304.09a2.51,2.51,0,0,0,2.5,2.5h168.44a2.51,2.51,0,0,0,2.5-2.5V179.75a2.51,2.51,0,0,0-2.5-2.5Z"/></g><path class="cls-1" d="M80.78,151.69,69.61,140.51H96.2L85,151.69A3,3,0,0,1,80.78,151.69Z"/><path class="cls-4" d="M612.6,389.83h1.7v9.87h-1.92v-5.85l-2.27,4.23h-1.4l-2.27-4.18v5.8h-1.92v-9.87h1.73l3.17,6Z"/><path class="cls-4" d="M616.28,399.7v-9.87h2.19v9.87Z"/><path class="cls-4" d="M622.45,399.2a4.31,4.31,0,0,1-1.71-1.78,6.29,6.29,0,0,1,0-5.32,4.17,4.17,0,0,1,1.71-1.77,5.2,5.2,0,0,1,2.61-.63,5.92,5.92,0,0,1,1.88.3,4.2,4.2,0,0,1,1.47.84l-.7,1.55a4.7,4.7,0,0,0-1.28-.71,4,4,0,0,0-1.33-.23,2.5,2.5,0,0,0-2,.84,4.65,4.65,0,0,0,0,4.94,2.5,2.5,0,0,0,2,.85,4,4,0,0,0,1.33-.23,5,5,0,0,0,1.28-.71l.7,1.55a4.2,4.2,0,0,1-1.47.84,6.22,6.22,0,0,1-1.88.3A5.2,5.2,0,0,1,622.45,399.2Z"/><path class="cls-4" d="M638.49,399.7h-2.38l-1.71-3.15a1.32,1.32,0,0,0-.5-.52,1.54,1.54,0,0,0-.75-.17h-1.07v3.84h-2.16v-9.87h4.54a3.92,3.92,0,0,1,2.62.76,2.77,2.77,0,0,1,.89,2.21,2.87,2.87,0,0,1-.62,1.87,3,3,0,0,1-1.76,1,2.17,2.17,0,0,1,1.3,1.1Zm-3-5.82a1.22,1.22,0,0,0,.42-1,1.21,1.21,0,0,0-.42-1,2.21,2.21,0,0,0-1.36-.32h-2.08v2.71h2.08A2.21,2.21,0,0,0,635.49,393.88Z"/><path class="cls-4" d="M641.64,399.2a4.18,4.18,0,0,1-1.67-1.76,6.38,6.38,0,0,1,0-5.36,4.18,4.18,0,0,1,1.67-1.76,5.13,5.13,0,0,1,2.56-.62,5.07,5.07,0,0,1,2.55.62,4.14,4.14,0,0,1,1.68,1.76,6.48,6.48,0,0,1,0,5.36,4.14,4.14,0,0,1-1.68,1.76,5,5,0,0,1-2.55.63A5,5,0,0,1,641.64,399.2Zm4.5-1.94a3.86,3.86,0,0,0,.7-2.5,3.92,3.92,0,0,0-.69-2.5,2.39,2.39,0,0,0-1.95-.86,2.36,2.36,0,0,0-1.94.86,3.92,3.92,0,0,0-.69,2.5,3.86,3.86,0,0,0,.7,2.5,2.33,2.33,0,0,0,1.93.87A2.37,2.37,0,0,0,646.14,397.26Z"/><path class="cls-4" d="M659.25,399.7h-2.38l-1.71-3.15a1.32,1.32,0,0,0-.5-.52,1.53,1.53,0,0,0-.74-.17h-1.08v3.84h-2.16v-9.87h4.54a3.92,3.92,0,0,1,2.62.76,2.77,2.77,0,0,1,.89,2.21,2.87,2.87,0,0,1-.62,1.87,3,3,0,0,1-1.76,1,2.17,2.17,0,0,1,1.3,1.1Zm-3-5.82a1.22,1.22,0,0,0,.42-1,1.21,1.21,0,0,0-.42-1,2.2,2.2,0,0,0-1.35-.32h-2.09v2.71h2.09A2.19,2.19,0,0,0,656.25,393.88Z"/><path class="cls-4" d="M660.5,399.7v-9.87h6.8v1.69h-4.68v2.31H667v1.7h-4.4V398h4.68v1.69Z"/><path class="cls-4" d="M668.8,399.7v-9.87H671v8.09h4.41v1.78Z"/><path class="cls-4" d="M676.68,399.7v-9.87h6.8v1.69h-4.67v2.31h4.39v1.7h-4.39V398h4.67v1.69Z"/><path class="cls-4" d="M692.37,399.7l-.94-2.18h-4.59l-.94,2.18h-2.19l4.53-9.87H690l4.54,9.87Zm-4.81-3.84h3.16l-1.58-3.69Z"/><path class="cls-4" d="M696.52,399.53a5.27,5.27,0,0,1-1.73-.84l.7-1.55a5.52,5.52,0,0,0,3.21,1,2.75,2.75,0,0,0,1.42-.3.94.94,0,0,0,.5-.83.8.8,0,0,0-.46-.74,6,6,0,0,0-1.61-.52,8.69,8.69,0,0,1-2.08-.65,2.71,2.71,0,0,1-1.14-.93,2.44,2.44,0,0,1-.35-1.36,2.71,2.71,0,0,1,.49-1.6,3.32,3.32,0,0,1,1.4-1.1,5.09,5.09,0,0,1,2.07-.4,6.82,6.82,0,0,1,2,.31,4.13,4.13,0,0,1,1.55.83l-.7,1.55a4.79,4.79,0,0,0-2.86-1,2.35,2.35,0,0,0-1.34.33,1,1,0,0,0-.49.9.78.78,0,0,0,.19.55,1.42,1.42,0,0,0,.63.39,9.54,9.54,0,0,0,1.25.35,7,7,0,0,1,2.74,1.08,2.18,2.18,0,0,1,.83,1.82,2.6,2.6,0,0,1-1.08,2.2,4.92,4.92,0,0,1-3,.81A8.09,8.09,0,0,1,696.52,399.53Z"/><path class="cls-4" d="M704.33,399.7v-9.87h6.8v1.69h-4.67v2.31h4.39v1.7h-4.39V398h4.67v1.69Z"/><path class="cls-4" d="M887.1,399.7v-9.87h6.66v1.72h-4.51v2.27h4.23v1.72h-4.23v4.16Z"/><path class="cls-4" d="M895.11,399.7v-9.87h2.18v9.87Z"/><path class="cls-4" d="M905.77,389.83h2.05v9.87h-1.63l-4.91-6.29v6.29h-2v-9.87h1.61l4.91,6.26Z"/><path class="cls-4" d="M917.31,399.7l-.94-2.18h-4.59l-.94,2.18h-2.2l4.54-9.87h1.75l4.54,9.87Zm-4.82-3.84h3.17l-1.58-3.69Z"/><path class="cls-4" d="M920.29,399.7v-9.87h2.19v8.09h4.41v1.78Z"/><path class="cls-4" d="M940.65,399.7h-2.38l-1.71-3.15a1.32,1.32,0,0,0-.5-.52,1.54,1.54,0,0,0-.75-.17h-1.07v3.84h-2.16v-9.87h4.54a3.92,3.92,0,0,1,2.62.76,2.77,2.77,0,0,1,.89,2.21,2.87,2.87,0,0,1-.62,1.87,3,3,0,0,1-1.76,1,2.17,2.17,0,0,1,1.3,1.1Zm-3-5.82a1.22,1.22,0,0,0,.42-1,1.21,1.21,0,0,0-.42-1,2.21,2.21,0,0,0-1.36-.32h-2.08v2.71h2.08A2.21,2.21,0,0,0,937.65,393.88Z"/><path class="cls-4" d="M941.89,399.7v-9.87h6.81v1.69H944v2.31h4.4v1.7H944V398h4.68v1.69Z"/><path class="cls-4" d="M950.19,399.7v-9.87h2.19v8.09h4.41v1.78Z"/><path class="cls-4" d="M958.08,399.7v-9.87h6.8v1.69H960.2v2.31h4.4v1.7h-4.4V398h4.68v1.69Z"/><path class="cls-4" d="M973.77,399.7l-.94-2.18h-4.59l-.94,2.18h-2.2l4.54-9.87h1.75l4.54,9.87ZM969,395.86h3.17l-1.58-3.69Z"/><path class="cls-4" d="M977.92,399.53a5.17,5.17,0,0,1-1.73-.84l.7-1.55a5.49,5.49,0,0,0,3.21,1,2.78,2.78,0,0,0,1.42-.3.94.94,0,0,0,.5-.83.82.82,0,0,0-.46-.74,6,6,0,0,0-1.62-.52,8.6,8.6,0,0,1-2.07-.65,2.71,2.71,0,0,1-1.14-.93,2.44,2.44,0,0,1-.36-1.36,2.71,2.71,0,0,1,.5-1.6,3.35,3.35,0,0,1,1.39-1.1,5.18,5.18,0,0,1,2.08-.4,6.82,6.82,0,0,1,2,.31,4.21,4.21,0,0,1,1.55.83l-.7,1.55a4.79,4.79,0,0,0-2.86-1,2.35,2.35,0,0,0-1.34.33,1,1,0,0,0-.49.9.78.78,0,0,0,.19.55,1.44,1.44,0,0,0,.62.39,10.26,10.26,0,0,0,1.26.35,7,7,0,0,1,2.74,1.08,2.18,2.18,0,0,1,.83,1.82,2.6,2.6,0,0,1-1.08,2.2,4.92,4.92,0,0,1-3,.81A8,8,0,0,1,977.92,399.53Z"/><path class="cls-4" d="M985.73,399.7v-9.87h6.8v1.69h-4.68v2.31h4.4v1.7h-4.4V398h4.68v1.69Z"/><rect class="cls-5" x="211.5" width="771.22" height="322.09" rx="5"/><rect class="cls-3" x="236" y="27.51" width="207.02" height="267.25" rx="3"/><rect class="cls-3" x="468.06" y="27.16" width="207.02" height="267.25" rx="3"/><rect class="cls-3" x="750.81" y="27.16" width="207.02" height="267.25" rx="3"/><path class="cls-3" d="M454.23,163.25l-11.17,11.17V147.83L454.23,159A3,3,0,0,1,454.23,163.25Z"/><path class="cls-3" d="M686.24,162.9l-11.17,11.18V147.49l11.17,11.17A3,3,0,0,1,686.24,162.9Z"/><path class="cls-3" d="M969,162.9l-11.17,11.18V147.49L969,158.66A3,3,0,0,1,969,162.9Z"/><path class="cls-5" d="M993.84,162.9l-11.17,11.18V147.49l11.17,11.17A3,3,0,0,1,993.84,162.9Z"/><g id="_1-4" data-name=" 1-4" class="cls-6"><polygon class="cls-7" points="429.67 78.85 249.35 78.85 249.35 79.85 429.67 79.85 429.67 78.85 429.67 78.85"/></g><g id="_1-4-2" data-name=" 1-4" class="cls-6"><polygon class="cls-7" points="661.73 78.85 481.42 78.85 481.42 79.85 661.73 79.85 661.73 78.85 661.73 78.85"/></g><g id="_1-4-3" data-name=" 1-4" class="cls-6"><polygon class="cls-7" points="944.48 78.85 764.17 78.85 764.17 79.85 944.48 79.85 944.48 78.85 944.48 78.85"/></g><rect class="cls-8" x="651.6" y="155.52" width="11.96" height="11.96" rx="2.58" transform="translate(306.8 -417.68) rotate(45)"/><rect class="cls-8" x="657.08" y="166.63" width="1" height="202.63"/><rect class="cls-8" x="934.3" y="155.52" width="11.96" height="11.96" rx="2.58" transform="translate(389.6 -617.58) rotate(45)"/><rect class="cls-8" x="939.78" y="166.63" width="1" height="202.63"/><path class="cls-4" d="M251.64,59.86a5.26,5.26,0,0,1-1.73-.83l.7-1.56a5.52,5.52,0,0,0,3.21,1,2.66,2.66,0,0,0,1.42-.3.92.92,0,0,0,.5-.83.81.81,0,0,0-.46-.74,6,6,0,0,0-1.61-.52,9.06,9.06,0,0,1-2.08-.64,2.79,2.79,0,0,1-1.14-.93,2.47,2.47,0,0,1-.35-1.37,2.65,2.65,0,0,1,.49-1.59,3.24,3.24,0,0,1,1.4-1.1,4.93,4.93,0,0,1,2.07-.4,6.81,6.81,0,0,1,2,.3,4.28,4.28,0,0,1,1.55.83l-.7,1.56a4.74,4.74,0,0,0-2.86-1,2.35,2.35,0,0,0-1.34.33,1,1,0,0,0-.49.9.81.81,0,0,0,.19.56,1.51,1.51,0,0,0,.63.38,9.54,9.54,0,0,0,1.25.35,7,7,0,0,1,2.74,1.08,2.21,2.21,0,0,1,.83,1.82,2.59,2.59,0,0,1-1.08,2.2,4.92,4.92,0,0,1-3,.81A7.7,7.7,0,0,1,251.64,59.86Z"/><path class="cls-4" d="M259.45,50.16H264a3.56,3.56,0,0,1,2.51.82,3.3,3.3,0,0,1,0,4.53,3.61,3.61,0,0,1-2.51.81h-2.35V60h-2.18Zm4.25,4.51c1.1,0,1.64-.47,1.64-1.41a1.34,1.34,0,0,0-.4-1.08,1.89,1.89,0,0,0-1.24-.35h-2.07v2.84Z"/><path class="cls-4" d="M277.37,60H275l-1.71-3.15a1.39,1.39,0,0,0-.5-.52,1.54,1.54,0,0,0-.75-.16H271V60H268.8V50.16h4.54a3.92,3.92,0,0,1,2.62.77,2.73,2.73,0,0,1,.89,2.2,2.9,2.9,0,0,1-.62,1.88,3,3,0,0,1-1.76,1,2.15,2.15,0,0,1,1.3,1.11Zm-3-5.81a1.49,1.49,0,0,0,0-2.07,2.29,2.29,0,0,0-1.36-.32h-2.08v2.71H273A2.21,2.21,0,0,0,274.37,54.22Z"/><path class="cls-4" d="M278.61,60V50.16h2.19V60Z"/><path class="cls-4" d="M289.28,50.16h2.05V60H289.7l-4.91-6.28V60h-2V50.16h1.61l4.91,6.26Z"/><path class="cls-4" d="M295.57,60V51.94h-3.1V50.16h8.38v1.78h-3.1V60Z"/><path class="cls-4" d="M310.7,58.28h2.13V60h-6.44V58.28h2.13v-5.7l-1.68,1L306,52l3.14-1.84h1.55Z"/><path class="cls-4" d="M483.7,59.86A5.11,5.11,0,0,1,482,59l.7-1.56a5.49,5.49,0,0,0,3.2,1,2.66,2.66,0,0,0,1.42-.3.91.91,0,0,0,.5-.83.82.82,0,0,0-.45-.74,6.22,6.22,0,0,0-1.62-.52,9.22,9.22,0,0,1-2.08-.64,2.69,2.69,0,0,1-1.13-.93,2.47,2.47,0,0,1-.36-1.37,2.66,2.66,0,0,1,.5-1.59,3.21,3.21,0,0,1,1.39-1.1,5,5,0,0,1,2.07-.4,6.77,6.77,0,0,1,2,.3,4.28,4.28,0,0,1,1.55.83l-.7,1.56a4.74,4.74,0,0,0-2.86-1,2.39,2.39,0,0,0-1.34.33,1,1,0,0,0-.49.9.81.81,0,0,0,.19.56,1.66,1.66,0,0,0,.63.38,9.54,9.54,0,0,0,1.25.35,7,7,0,0,1,2.74,1.08,2.18,2.18,0,0,1,.83,1.82,2.6,2.6,0,0,1-1.07,2.2,5,5,0,0,1-3,.81A7.7,7.7,0,0,1,483.7,59.86Z"/><path class="cls-4" d="M491.51,50.16h4.54a3.54,3.54,0,0,1,2.5.82,3.3,3.3,0,0,1,0,4.53,3.58,3.58,0,0,1-2.5.81h-2.36V60h-2.18Zm4.26,4.51c1.09,0,1.64-.47,1.64-1.41a1.34,1.34,0,0,0-.41-1.08,1.86,1.86,0,0,0-1.23-.35h-2.08v2.84Z"/><path class="cls-4" d="M509.43,60h-2.38l-1.71-3.15a1.39,1.39,0,0,0-.5-.52,1.5,1.5,0,0,0-.74-.16H503V60h-2.16V50.16h4.54a3.9,3.9,0,0,1,2.62.77,2.7,2.7,0,0,1,.89,2.2,2.84,2.84,0,0,1-.62,1.88,3,3,0,0,1-1.76,1,2.13,2.13,0,0,1,1.3,1.11Zm-3-5.81a1.49,1.49,0,0,0,0-2.07,2.25,2.25,0,0,0-1.35-.32H503v2.71h2.09A2.18,2.18,0,0,0,506.43,54.22Z"/><path class="cls-4" d="M510.68,60V50.16h2.18V60Z"/><path class="cls-4" d="M521.34,50.16h2V60h-1.63l-4.91-6.28V60h-2V50.16h1.61l4.91,6.26Z"/><path class="cls-4" d="M527.63,60V51.94h-3.09V50.16h8.37v1.78h-3.1V60Z"/><path class="cls-4" d="M544.7,58.28V60h-6.79V58.42l3.29-3.48a3.09,3.09,0,0,0,1-2c0-.78-.45-1.17-1.34-1.17a3.85,3.85,0,0,0-1.29.24,5.31,5.31,0,0,0-1.32.71l-.68-1.56a4.49,4.49,0,0,1,1.51-.8A6.12,6.12,0,0,1,541,50a3.76,3.76,0,0,1,2.46.74,2.42,2.42,0,0,1,.91,2,3.65,3.65,0,0,1-.35,1.58,7,7,0,0,1-1.2,1.62l-2.2,2.31Z"/><path class="cls-4" d="M766.45,59.86a5.11,5.11,0,0,1-1.72-.83l.7-1.56a5.49,5.49,0,0,0,3.2,1,2.66,2.66,0,0,0,1.42-.3.92.92,0,0,0,.5-.83.81.81,0,0,0-.46-.74,6,6,0,0,0-1.61-.52,9.22,9.22,0,0,1-2.08-.64,2.79,2.79,0,0,1-1.14-.93,2.56,2.56,0,0,1-.35-1.37,2.6,2.6,0,0,1,.5-1.59,3.21,3.21,0,0,1,1.39-1.1,5,5,0,0,1,2.07-.4,6.81,6.81,0,0,1,2,.3,4.28,4.28,0,0,1,1.55.83l-.7,1.56a4.74,4.74,0,0,0-2.86-1,2.37,2.37,0,0,0-1.34.33,1,1,0,0,0-.49.9.81.81,0,0,0,.19.56,1.66,1.66,0,0,0,.63.38,9.54,9.54,0,0,0,1.25.35,7,7,0,0,1,2.74,1.08,2.21,2.21,0,0,1,.83,1.82,2.59,2.59,0,0,1-1.08,2.2,4.9,4.9,0,0,1-3,.81A7.7,7.7,0,0,1,766.45,59.86Z"/><path class="cls-4" d="M774.26,50.16h4.54a3.55,3.55,0,0,1,2.5.82,3.3,3.3,0,0,1,0,4.53,3.6,3.6,0,0,1-2.5.81h-2.36V60h-2.18Zm4.26,4.51c1.09,0,1.63-.47,1.63-1.41a1.34,1.34,0,0,0-.4-1.08,1.86,1.86,0,0,0-1.23-.35h-2.08v2.84Z"/><path class="cls-4" d="M792.18,60H789.8l-1.71-3.15a1.39,1.39,0,0,0-.5-.52,1.53,1.53,0,0,0-.74-.16h-1.08V60h-2.16V50.16h4.54a3.9,3.9,0,0,1,2.62.77,2.7,2.7,0,0,1,.89,2.2A2.9,2.9,0,0,1,791,55a3,3,0,0,1-1.76,1,2.15,2.15,0,0,1,1.3,1.11Zm-3-5.81a1.49,1.49,0,0,0,0-2.07,2.27,2.27,0,0,0-1.35-.32h-2.09v2.71h2.09A2.2,2.2,0,0,0,789.18,54.22Z"/><path class="cls-4" d="M793.43,60V50.16h2.18V60Z"/><path class="cls-4" d="M804.09,50.16h2V60h-1.63l-4.91-6.28V60h-2V50.16h1.61l4.91,6.26Z"/><path class="cls-4" d="M810.38,60V51.94h-3.09V50.16h8.37v1.78h-3.1V60Z"/><path class="cls-4" d="M827.24,50.16h2V60h-1.62l-4.92-6.28V60h-2V50.16h1.61l4.92,6.26Z"/><g id="_1-3" data-name=" 1-3" class="cls-9"><path class="cls-4" d="M704.53,157.84a3.25,3.25,0,1,1-3.25,3.25,3.29,3.29,0,0,1,3.25-3.25Zm11.14,0a3.25,3.25,0,1,1-3.25,3.25h0A3.29,3.29,0,0,1,715.67,157.84Zm11.14,0a3.25,3.25,0,1,1-3.25,3.25h0A3.29,3.29,0,0,1,726.81,157.84Z"/></g><path class="cls-4" d="M250.42,105.7a15.14,15.14,0,0,1,2.34-.18,3.88,3.88,0,0,1,2.65.79,2.54,2.54,0,0,1,.82,2,2.76,2.76,0,0,1-.73,2,3.87,3.87,0,0,1-2.88,1,4.18,4.18,0,0,1-1-.08V115h-1.22Zm1.22,4.56a4.1,4.1,0,0,0,1,.09c1.47,0,2.36-.71,2.36-2s-.88-1.85-2.22-1.85a4.82,4.82,0,0,0-1.15.1Z"/><path class="cls-4" d="M257.6,110.37c0-.8,0-1.49-.06-2.12h1.08l.05,1.33h.05a2,2,0,0,1,1.88-1.48,1.25,1.25,0,0,1,.35,0v1.16a2.5,2.5,0,0,0-.42,0,1.72,1.72,0,0,0-1.65,1.58,3.34,3.34,0,0,0-.06.58V115H257.6Z"/><path class="cls-4" d="M268.17,111.59a3.31,3.31,0,0,1-3.37,3.6,3.22,3.22,0,0,1-3.25-3.49,3.31,3.31,0,0,1,3.36-3.6A3.2,3.2,0,0,1,268.17,111.59Zm-5.38.07c0,1.48.86,2.6,2.06,2.6s2.06-1.1,2.06-2.63c0-1.15-.57-2.61-2-2.61S262.79,110.37,262.79,111.66Z"/><path class="cls-4" d="M275.58,105.09v8.19c0,.6,0,1.29.06,1.75h-1.11l-.06-1.17h0a2.53,2.53,0,0,1-2.32,1.33c-1.63,0-2.9-1.39-2.9-3.45,0-2.25,1.39-3.64,3-3.64a2.27,2.27,0,0,1,2.05,1h0v-4ZM274.35,111a2.22,2.22,0,0,0-.06-.51,1.8,1.8,0,0,0-1.78-1.43c-1.27,0-2,1.12-2,2.62s.67,2.5,2,2.5a1.84,1.84,0,0,0,1.81-1.47,2.2,2.2,0,0,0,.06-.53Z"/><path class="cls-4" d="M283.29,113.18c0,.7,0,1.32.06,1.85h-1.09l-.07-1.1h0a2.56,2.56,0,0,1-2.24,1.26c-1.07,0-2.34-.59-2.34-3v-4h1.23V112c0,1.29.39,2.16,1.51,2.16a1.74,1.74,0,0,0,1.74-1.76v-4.16h1.23Z"/><path class="cls-4" d="M290.17,114.78a4.57,4.57,0,0,1-1.95.39,3.22,3.22,0,0,1-3.38-3.46,3.45,3.45,0,0,1,3.65-3.6,4.31,4.31,0,0,1,1.71.35l-.28,1a2.86,2.86,0,0,0-1.43-.33,2.35,2.35,0,0,0-2.4,2.57,2.32,2.32,0,0,0,2.35,2.53,3.61,3.61,0,0,0,1.52-.33Z"/><path class="cls-4" d="M293.27,106.31v1.94H295v.94h-1.77v3.66c0,.84.24,1.32.93,1.32a2.73,2.73,0,0,0,.71-.09l.06.92a3,3,0,0,1-1.09.17,1.75,1.75,0,0,1-1.34-.51,2.53,2.53,0,0,1-.47-1.77v-3.7H291v-.94h1.05v-1.62Z"/><path class="cls-4" d="M299.43,105.72a12,12,0,0,1,2.23-.2,3.88,3.88,0,0,1,2.59.69,2,2,0,0,1,.79,1.67,2.25,2.25,0,0,1-1.6,2.07v0a2.43,2.43,0,0,1,1.95,2.36,2.55,2.55,0,0,1-.8,1.89,4.72,4.72,0,0,1-3.27.89,13.35,13.35,0,0,1-1.89-.12Zm1.22,3.86h1.11c1.29,0,2-.67,2-1.58,0-1.11-.84-1.54-2.07-1.54a5.54,5.54,0,0,0-1.08.08Zm0,4.53a6.69,6.69,0,0,0,1,.06c1.26,0,2.43-.47,2.43-1.84s-1.11-1.82-2.44-1.82h-1Z"/><path class="cls-4" d="M310.73,115l-.1-.85h0a2.52,2.52,0,0,1-2.07,1,1.93,1.93,0,0,1-2.07-2c0-1.64,1.45-2.53,4.07-2.52v-.14A1.4,1.4,0,0,0,309,109a3.42,3.42,0,0,0-1.76.5l-.28-.81a4.23,4.23,0,0,1,2.22-.6c2.08,0,2.58,1.41,2.58,2.77v2.54a9.9,9.9,0,0,0,.11,1.62Zm-.18-3.46c-1.34,0-2.87.21-2.87,1.53a1.09,1.09,0,0,0,1.16,1.18,1.69,1.69,0,0,0,1.64-1.14,1.28,1.28,0,0,0,.07-.39Z"/><path class="cls-4" d="M318.56,114.78a4.53,4.53,0,0,1-1.95.39,3.22,3.22,0,0,1-3.37-3.46,3.44,3.44,0,0,1,3.64-3.6,4.27,4.27,0,0,1,1.71.35l-.28,1a2.86,2.86,0,0,0-1.43-.33,2.35,2.35,0,0,0-2.4,2.57,2.32,2.32,0,0,0,2.35,2.53,3.57,3.57,0,0,0,1.52-.33Z"/><path class="cls-4" d="M321.22,111.36h0c.17-.23.41-.53.61-.77l2-2.34h1.48L322.7,111l3,4h-1.49l-2.34-3.25-.63.7V115H320v-9.94h1.22Z"/><path class="cls-4" d="M326.8,105.09H328V115H326.8Z"/><path class="cls-4" d="M336.24,111.59a3.32,3.32,0,0,1-3.37,3.6,3.22,3.22,0,0,1-3.25-3.49,3.31,3.31,0,0,1,3.36-3.6A3.21,3.21,0,0,1,336.24,111.59Zm-5.38.07c0,1.48.86,2.6,2.06,2.6s2.06-1.1,2.06-2.63c0-1.15-.57-2.61-2-2.61S330.86,110.37,330.86,111.66Z"/><path class="cls-4" d="M343.63,108.25c0,.49-.05,1-.05,1.87v3.93c0,1.56-.31,2.51-1,3.1a3.62,3.62,0,0,1-2.46.81,4.43,4.43,0,0,1-2.26-.56l.31-.94a3.84,3.84,0,0,0,2,.53c1.26,0,2.18-.65,2.18-2.36v-.76h0a2.4,2.4,0,0,1-2.15,1.13,3,3,0,0,1-2.89-3.3c0-2.3,1.5-3.6,3.05-3.6a2.26,2.26,0,0,1,2.12,1.18h0l.05-1Zm-1.27,2.68a2,2,0,0,0-.07-.56,1.77,1.77,0,0,0-1.72-1.3c-1.18,0-2,1-2,2.56,0,1.33.67,2.44,2,2.44a1.81,1.81,0,0,0,1.71-1.26,2.16,2.16,0,0,0,.1-.66Z"/><path class="cls-4" d="M250.42,134.72a11.91,11.91,0,0,1,2.23-.2,3.89,3.89,0,0,1,2.59.69,2,2,0,0,1,.78,1.67,2.24,2.24,0,0,1-1.6,2.07v0a2.42,2.42,0,0,1,2,2.36,2.51,2.51,0,0,1-.8,1.89,4.68,4.68,0,0,1-3.26.89,13.35,13.35,0,0,1-1.89-.12Zm1.22,3.86h1.1c1.29,0,2-.67,2-1.58,0-1.11-.84-1.54-2.07-1.54a5.46,5.46,0,0,0-1.08.08Zm0,4.53a6.69,6.69,0,0,0,1,.06c1.26,0,2.42-.47,2.42-1.84s-1.1-1.82-2.43-1.82h-1Z"/><path class="cls-4" d="M263.64,142.18c0,.7,0,1.32.05,1.85H262.6l-.07-1.1h0a2.55,2.55,0,0,1-2.24,1.26c-1.06,0-2.34-.59-2.34-3v-4h1.24V141c0,1.29.39,2.16,1.51,2.16a1.77,1.77,0,0,0,1.74-1.76v-4.16h1.23Z"/><path class="cls-4" d="M271.53,134.09v8.19c0,.6,0,1.29.06,1.75h-1.11l-.05-1.17h0a2.53,2.53,0,0,1-2.31,1.33c-1.64,0-2.9-1.39-2.9-3.45,0-2.25,1.39-3.64,3-3.64a2.26,2.26,0,0,1,2,1h0v-4ZM270.3,140a2.21,2.21,0,0,0-.05-.51,1.82,1.82,0,0,0-1.78-1.43c-1.28,0-2,1.12-2,2.62s.68,2.5,2,2.5a1.86,1.86,0,0,0,1.81-1.47,2.22,2.22,0,0,0,.05-.53Z"/><path class="cls-4" d="M279.42,137.25c0,.49-.06,1-.06,1.87v3.93c0,1.56-.31,2.51-1,3.1a3.62,3.62,0,0,1-2.46.81,4.45,4.45,0,0,1-2.26-.56l.31-.94a3.84,3.84,0,0,0,2,.53c1.26,0,2.19-.65,2.19-2.36v-.76h0A2.43,2.43,0,0,1,276,144a3,3,0,0,1-2.89-3.3c0-2.3,1.5-3.6,3.06-3.6a2.25,2.25,0,0,1,2.11,1.18h0l.06-1Zm-1.28,2.68a1.66,1.66,0,0,0-.07-.56,1.77,1.77,0,0,0-1.72-1.3c-1.18,0-2,1-2,2.56,0,1.33.67,2.44,2,2.44a1.8,1.8,0,0,0,1.71-1.26,2.16,2.16,0,0,0,.1-.66Z"/><path class="cls-4" d="M282.09,140.87a2.17,2.17,0,0,0,2.32,2.35,4.41,4.41,0,0,0,1.88-.35l.21.88a5.47,5.47,0,0,1-2.26.42,3.15,3.15,0,0,1-3.33-3.41c0-2,1.2-3.66,3.18-3.66,2.21,0,2.8,2,2.8,3.19,0,.25,0,.45,0,.58Zm3.61-.88a1.76,1.76,0,0,0-1.71-2,2.05,2.05,0,0,0-1.89,2Z"/><path class="cls-4" d="M289.9,135.31v1.94h1.76v.94H289.9v3.66c0,.84.24,1.32.92,1.32a2.82,2.82,0,0,0,.72-.09l0,.92a2.91,2.91,0,0,1-1.09.17,1.72,1.72,0,0,1-1.33-.51,2.53,2.53,0,0,1-.48-1.77v-3.7h-1.05v-.94h1.05v-1.62Z"/><path class="cls-4" d="M296.06,134.7a15.14,15.14,0,0,1,2.34-.18,3.84,3.84,0,0,1,2.64.79,2.51,2.51,0,0,1,.83,2,2.76,2.76,0,0,1-.73,2,3.87,3.87,0,0,1-2.88,1,4.18,4.18,0,0,1-1-.08V144h-1.22Zm1.22,4.56a4.1,4.1,0,0,0,1,.09c1.47,0,2.36-.71,2.36-2s-.88-1.85-2.23-1.85a4.78,4.78,0,0,0-1.14.1Z"/><path class="cls-4" d="M303.39,134.09h1.24V144h-1.24Z"/><path class="cls-4" d="M310.45,144l-.1-.85h0a2.52,2.52,0,0,1-2.07,1,1.93,1.93,0,0,1-2.07-1.95c0-1.64,1.45-2.53,4.07-2.52v-.14A1.4,1.4,0,0,0,308.7,138a3.42,3.42,0,0,0-1.76.5l-.28-.81a4.23,4.23,0,0,1,2.22-.6c2.08,0,2.58,1.41,2.58,2.77v2.54a9.9,9.9,0,0,0,.11,1.62Zm-.18-3.46c-1.35,0-2.87.21-2.87,1.53a1.09,1.09,0,0,0,1.16,1.18,1.69,1.69,0,0,0,1.64-1.14,1.28,1.28,0,0,0,.07-.39Z"/><path class="cls-4" d="M313.45,139.09c0-.7,0-1.28-.06-1.84h1.09l.07,1.12h0a2.5,2.5,0,0,1,2.24-1.27c.94,0,2.4.56,2.4,2.89v4H318v-3.9c0-1.1-.4-2-1.56-2a1.76,1.76,0,0,0-1.66,1.26,2,2,0,0,0-.08.58V144h-1.23Z"/><path class="cls-4" d="M321.22,139.09c0-.7,0-1.28-.06-1.84h1.09l.07,1.12h0a2.5,2.5,0,0,1,2.24-1.27c.94,0,2.4.56,2.4,2.89v4h-1.24v-3.9c0-1.1-.4-2-1.57-2a1.76,1.76,0,0,0-1.65,1.26,2,2,0,0,0-.08.58V144h-1.23Z"/><path class="cls-4" d="M330.36,135.35a.77.77,0,0,1-1.53,0,.75.75,0,0,1,.77-.77A.73.73,0,0,1,330.36,135.35ZM329,144v-6.78h1.23V144Z"/><path class="cls-4" d="M332.26,139.09c0-.7,0-1.28-.05-1.84h1.09l.07,1.12h0a2.49,2.49,0,0,1,2.24-1.27c.94,0,2.39.56,2.39,2.89v4H336.8v-3.9c0-1.1-.41-2-1.57-2a1.76,1.76,0,0,0-1.65,1.26,1.72,1.72,0,0,0-.09.58V144h-1.23Z"/><path class="cls-4" d="M345.87,137.25c0,.49-.05,1-.05,1.87v3.93c0,1.56-.31,2.51-1,3.1a3.63,3.63,0,0,1-2.47.81,4.41,4.41,0,0,1-2.25-.56l.31-.94a3.84,3.84,0,0,0,2,.53c1.26,0,2.18-.65,2.18-2.36v-.76h0a2.4,2.4,0,0,1-2.15,1.13,3,3,0,0,1-2.89-3.3c0-2.3,1.5-3.6,3-3.6a2.26,2.26,0,0,1,2.12,1.18h0l.05-1Zm-1.27,2.68a2,2,0,0,0-.07-.56,1.78,1.78,0,0,0-1.73-1.3c-1.17,0-2,1-2,2.56,0,1.33.67,2.44,2,2.44a1.81,1.81,0,0,0,1.71-1.26,2.16,2.16,0,0,0,.1-.66Z"/><path class="cls-4" d="M250.42,163.72a12.3,12.3,0,0,1,2.34-.2,3.88,3.88,0,0,1,2.73.77,2.35,2.35,0,0,1,.74,1.8,2.48,2.48,0,0,1-1.78,2.41v0a2.33,2.33,0,0,1,1.39,1.9,14.55,14.55,0,0,0,.73,2.59h-1.26a11,11,0,0,1-.63-2.25c-.28-1.3-.79-1.79-1.89-1.84h-1.15V173h-1.22Zm1.22,4.3h1.24c1.31,0,2.13-.72,2.13-1.79s-.88-1.76-2.17-1.77a5.29,5.29,0,0,0-1.2.11Z"/><path class="cls-4" d="M258.65,169.87a2.17,2.17,0,0,0,2.33,2.35,4.36,4.36,0,0,0,1.87-.35l.21.88a5.38,5.38,0,0,1-2.25.42,3.15,3.15,0,0,1-3.34-3.41c0-2,1.21-3.66,3.18-3.66,2.22,0,2.81,2,2.81,3.19a3.66,3.66,0,0,1,0,.58Zm3.61-.88a1.75,1.75,0,0,0-1.7-2,2,2,0,0,0-1.89,2Z"/><path class="cls-4" d="M265,163.09h1.23V173H265Z"/><path class="cls-4" d="M269,169.87a2.17,2.17,0,0,0,2.32,2.35,4.38,4.38,0,0,0,1.88-.35l.21.88a5.41,5.41,0,0,1-2.25.42,3.15,3.15,0,0,1-3.34-3.41c0-2,1.21-3.66,3.18-3.66,2.21,0,2.8,2,2.8,3.19a3.91,3.91,0,0,1,0,.58Zm3.61-.88a1.75,1.75,0,0,0-1.71-2,2.05,2.05,0,0,0-1.89,2Z"/><path class="cls-4" d="M279.05,173l-.1-.85h0a2.54,2.54,0,0,1-2.07,1,1.94,1.94,0,0,1-2.08-1.95c0-1.64,1.46-2.53,4.08-2.52v-.14A1.4,1.4,0,0,0,277.3,167a3.48,3.48,0,0,0-1.77.5l-.28-.81a4.27,4.27,0,0,1,2.23-.6c2.07,0,2.58,1.41,2.58,2.77v2.54a9.9,9.9,0,0,0,.11,1.62Zm-.18-3.46c-1.35,0-2.87.21-2.87,1.53a1.09,1.09,0,0,0,1.16,1.18,1.69,1.69,0,0,0,1.64-1.14,1.28,1.28,0,0,0,.07-.39Z"/><path class="cls-4" d="M281.88,171.77a3.17,3.17,0,0,0,1.62.49c.9,0,1.32-.45,1.32-1s-.35-.91-1.26-1.24c-1.22-.44-1.8-1.11-1.8-1.92a2.1,2.1,0,0,1,2.34-2,3.44,3.44,0,0,1,1.67.42l-.31.9a2.57,2.57,0,0,0-1.38-.4c-.73,0-1.14.42-1.14.93s.41.81,1.29,1.15c1.18.44,1.78,1,1.78,2,0,1.19-.93,2-2.54,2a3.84,3.84,0,0,1-1.9-.46Z"/><path class="cls-4" d="M288.27,169.87a2.18,2.18,0,0,0,2.33,2.35,4.45,4.45,0,0,0,1.88-.35l.21.88a5.47,5.47,0,0,1-2.26.42,3.14,3.14,0,0,1-3.33-3.41c0-2,1.2-3.66,3.18-3.66,2.21,0,2.8,2,2.8,3.19,0,.25,0,.45,0,.58Zm3.62-.88a1.76,1.76,0,0,0-1.71-2,2,2,0,0,0-1.89,2Z"/><path class="cls-4" d="M294.43,171.77a3.24,3.24,0,0,0,1.63.49c.9,0,1.32-.45,1.32-1s-.36-.91-1.27-1.24c-1.21-.44-1.79-1.11-1.79-1.92a2.09,2.09,0,0,1,2.34-2,3.44,3.44,0,0,1,1.67.42l-.31.9a2.64,2.64,0,0,0-1.39-.4c-.73,0-1.13.42-1.13.93s.4.81,1.29,1.15c1.17.44,1.78,1,1.78,2,0,1.19-.93,2-2.54,2a3.84,3.84,0,0,1-1.9-.46Z"/><path class="cls-4" d="M303.16,163.7a14.92,14.92,0,0,1,2.34-.18,3.84,3.84,0,0,1,2.64.79,2.51,2.51,0,0,1,.83,2,2.76,2.76,0,0,1-.73,2,3.88,3.88,0,0,1-2.89,1,4.27,4.27,0,0,1-1-.08V173h-1.21Zm1.21,4.56a4.2,4.2,0,0,0,1,.09c1.47,0,2.37-.71,2.37-2s-.88-1.85-2.23-1.85a4.88,4.88,0,0,0-1.15.1Z"/><path class="cls-4" d="M310.49,163.09h1.23V173h-1.23Z"/><path class="cls-4" d="M317.55,173l-.1-.85h0a2.54,2.54,0,0,1-2.07,1,1.94,1.94,0,0,1-2.08-1.95c0-1.64,1.46-2.53,4.08-2.52v-.14A1.4,1.4,0,0,0,315.8,167a3.48,3.48,0,0,0-1.77.5l-.28-.81a4.27,4.27,0,0,1,2.23-.6c2.07,0,2.58,1.41,2.58,2.77v2.54a9.9,9.9,0,0,0,.11,1.62Zm-.18-3.46c-1.35,0-2.87.21-2.87,1.53a1.09,1.09,0,0,0,1.16,1.18,1.69,1.69,0,0,0,1.64-1.14,1.28,1.28,0,0,0,.07-.39Z"/><path class="cls-4" d="M320.54,168.09c0-.7,0-1.28-.05-1.84h1.09l.07,1.12h0a2.49,2.49,0,0,1,2.24-1.27c.94,0,2.39.56,2.39,2.89v4h-1.23v-3.9c0-1.1-.4-2-1.57-2a1.76,1.76,0,0,0-1.65,1.26,1.73,1.73,0,0,0-.08.58V173h-1.24Z"/><path class="cls-4" d="M328.31,168.09c0-.7,0-1.28-.05-1.84h1.09l.07,1.12h0a2.49,2.49,0,0,1,2.24-1.27c.94,0,2.39.56,2.39,2.89v4h-1.23v-3.9c0-1.1-.4-2-1.57-2a1.76,1.76,0,0,0-1.65,1.26,1.73,1.73,0,0,0-.08.58V173h-1.24Z"/><path class="cls-4" d="M337.46,164.35a.77.77,0,0,1-1.53,0,.75.75,0,0,1,.77-.77A.73.73,0,0,1,337.46,164.35ZM336.08,173v-6.78h1.24V173Z"/><path class="cls-4" d="M339.36,168.09c0-.7,0-1.28-.06-1.84h1.1l.07,1.12h0a2.51,2.51,0,0,1,2.25-1.27c.93,0,2.39.56,2.39,2.89v4H343.9v-3.9c0-1.1-.41-2-1.57-2a1.76,1.76,0,0,0-1.65,1.26,1.72,1.72,0,0,0-.09.58V173h-1.23Z"/><path class="cls-4" d="M353,166.25c0,.49-.06,1-.06,1.87v3.93c0,1.56-.3,2.51-1,3.1a3.63,3.63,0,0,1-2.47.81,4.39,4.39,0,0,1-2.25-.56l.31-.94a3.77,3.77,0,0,0,2,.53c1.27,0,2.19-.65,2.19-2.36v-.76h0a2.41,2.41,0,0,1-2.16,1.13,3,3,0,0,1-2.88-3.3c0-2.3,1.5-3.6,3.05-3.6a2.27,2.27,0,0,1,2.12,1.18h0l.06-1Zm-1.27,2.68a2,2,0,0,0-.07-.56,1.78,1.78,0,0,0-1.73-1.3c-1.17,0-2,1-2,2.56,0,1.33.67,2.44,2,2.44a1.81,1.81,0,0,0,1.71-1.26,2.16,2.16,0,0,0,.1-.66Z"/><path class="cls-4" d="M250.42,202v-9.44h1.33l3,4.78a25.67,25.67,0,0,1,1.7,3.07l0,0c-.11-1.26-.14-2.41-.14-3.88v-3.95h1.15V202h-1.24l-3-4.79a30.61,30.61,0,0,1-1.77-3.15h0c.07,1.2.1,2.33.1,3.9v4Z"/><path class="cls-4" d="M265.26,200.18c0,.7,0,1.32.06,1.85h-1.09l-.07-1.1h0a2.58,2.58,0,0,1-2.24,1.26c-1.07,0-2.34-.59-2.34-3v-4h1.23V199c0,1.29.39,2.16,1.51,2.16a1.79,1.79,0,0,0,1.63-1.13,1.77,1.77,0,0,0,.11-.63v-4.16h1.23Z"/><path class="cls-4" d="M267.3,197.09c0-.7,0-1.28-.05-1.84h1.08l.05,1.1h0a2.33,2.33,0,0,1,2.13-1.25,2,2,0,0,1,1.92,1.36h0a2.88,2.88,0,0,1,.75-.88,2.32,2.32,0,0,1,1.5-.48c.9,0,2.23.59,2.23,2.94v4h-1.2V198.2c0-1.31-.48-2.09-1.47-2.09a1.6,1.6,0,0,0-1.46,1.12,1.9,1.9,0,0,0-.1.61V202h-1.2V198c0-1.08-.48-1.86-1.42-1.86a1.69,1.69,0,0,0-1.53,1.23,1.93,1.93,0,0,0-.09.6V202H267.3Z"/><path class="cls-4" d="M278.92,202c0-.46.06-1.15.06-1.75v-8.19h1.22v4.26h0a2.53,2.53,0,0,1,2.32-1.25c1.68,0,2.87,1.4,2.85,3.46,0,2.42-1.52,3.63-3,3.63a2.42,2.42,0,0,1-2.27-1.28h0L280,202Zm1.28-2.71a2.12,2.12,0,0,0,.05.44,1.91,1.91,0,0,0,1.85,1.45c1.29,0,2.06-1.05,2.06-2.61,0-1.36-.7-2.52-2-2.52a2,2,0,0,0-1.87,1.51,2.32,2.32,0,0,0-.07.51Z"/><path class="cls-4" d="M287.63,198.87a2.17,2.17,0,0,0,2.33,2.35,4.36,4.36,0,0,0,1.87-.35l.21.88a5.38,5.38,0,0,1-2.25.42,3.15,3.15,0,0,1-3.34-3.41c0-2,1.21-3.66,3.18-3.66,2.22,0,2.8,2,2.8,3.19a3.91,3.91,0,0,1,0,.58Zm3.61-.88a1.75,1.75,0,0,0-1.7-2,2.05,2.05,0,0,0-1.9,2Z"/><path class="cls-4" d="M294,197.37c0-.8,0-1.49-.06-2.12H295l0,1.33h.06A2,2,0,0,1,297,195.1a1.29,1.29,0,0,1,.35,0v1.16a2.61,2.61,0,0,0-.42,0,1.74,1.74,0,0,0-1.66,1.58,3.39,3.39,0,0,0-.05.58V202H294Z"/><path class="cls-4" d="M307.64,198.59a3.32,3.32,0,0,1-3.38,3.6A3.23,3.23,0,0,1,301,198.7a3.31,3.31,0,0,1,3.37-3.6A3.21,3.21,0,0,1,307.64,198.59Zm-5.38.07c0,1.48.85,2.6,2.06,2.6s2.06-1.1,2.06-2.63c0-1.15-.58-2.61-2-2.61S302.26,197.37,302.26,198.66Z"/><path class="cls-4" d="M309.32,202v-5.84h-1v-.94h1v-.32a3.23,3.23,0,0,1,.78-2.37,2.39,2.39,0,0,1,1.65-.63,2.75,2.75,0,0,1,1.05.2l-.16,1a2,2,0,0,0-.79-.15c-1.05,0-1.32.92-1.32,2v.36h1.64v.94h-1.64V202Z"/><path class="cls-4" d="M316.12,200.55a4.37,4.37,0,0,0,2.18.62c1.25,0,2-.66,2-1.62s-.5-1.38-1.78-1.87C317,197.13,316,196.33,316,195s1.22-2.56,3.05-2.56a4.27,4.27,0,0,1,2.09.46l-.34,1a3.89,3.89,0,0,0-1.79-.44c-1.29,0-1.78.77-1.78,1.41,0,.88.57,1.32,1.88,1.82,1.59.62,2.41,1.39,2.41,2.78s-1.08,2.71-3.31,2.71a4.86,4.86,0,0,1-2.41-.6Z"/><path class="cls-4" d="M323.15,197.47c0-.87,0-1.57-.06-2.22h1.11l.05,1.17h0a2.66,2.66,0,0,1,2.41-1.32c1.64,0,2.87,1.39,2.87,3.44,0,2.44-1.48,3.65-3.08,3.65a2.39,2.39,0,0,1-2.09-1.07h0v3.69h-1.22Zm1.22,1.8a2.67,2.67,0,0,0,.05.51,1.91,1.91,0,0,0,1.85,1.44c1.3,0,2.06-1.06,2.06-2.62,0-1.36-.71-2.52-2-2.52a2,2,0,0,0-1.86,1.53,2,2,0,0,0-.08.5Z"/><path class="cls-4" d="M331.11,197.37c0-.8,0-1.49-.05-2.12h1.08l0,1.33h.05a2,2,0,0,1,1.88-1.48,1.25,1.25,0,0,1,.35,0v1.16a2.5,2.5,0,0,0-.42,0,1.73,1.73,0,0,0-1.65,1.58,3.34,3.34,0,0,0-.06.58V202h-1.22Z"/><path class="cls-4" d="M337.12,193.35a.77.77,0,0,1-1.53,0,.75.75,0,0,1,.77-.77A.73.73,0,0,1,337.12,193.35ZM335.75,202v-6.78H337V202Z"/><path class="cls-4" d="M339,197.09c0-.7,0-1.28,0-1.84h1.09l.07,1.12h0a2.49,2.49,0,0,1,2.24-1.27c.94,0,2.39.56,2.39,2.89v4h-1.23v-3.9c0-1.1-.4-2-1.57-2a1.76,1.76,0,0,0-1.65,1.26,1.73,1.73,0,0,0-.08.58V202H339Z"/><path class="cls-4" d="M348.22,193.31v1.94H350v.94h-1.77v3.66c0,.84.24,1.32.93,1.32a2.73,2.73,0,0,0,.71-.09l.06.92a3,3,0,0,1-1.1.17,1.74,1.74,0,0,1-1.33-.51,2.53,2.53,0,0,1-.47-1.77v-3.7h-1v-.94h1v-1.62Z"/><path class="cls-4" d="M351.2,200.77a3.24,3.24,0,0,0,1.63.49c.89,0,1.31-.45,1.31-1s-.35-.91-1.26-1.24c-1.21-.44-1.79-1.11-1.79-1.92a2.09,2.09,0,0,1,2.34-2,3.44,3.44,0,0,1,1.67.42l-.31.9a2.64,2.64,0,0,0-1.39-.4c-.73,0-1.13.42-1.13.93s.4.81,1.29,1.15c1.17.44,1.77,1,1.77,2,0,1.19-.92,2-2.53,2a3.91,3.91,0,0,1-1.91-.46Z"/><path class="cls-4" d="M250.42,221.7a15.14,15.14,0,0,1,2.34-.18,3.88,3.88,0,0,1,2.65.79,2.54,2.54,0,0,1,.82,2,2.76,2.76,0,0,1-.73,2,3.87,3.87,0,0,1-2.88,1,4.18,4.18,0,0,1-1-.08V231h-1.22Zm1.22,4.56a4.1,4.1,0,0,0,1,.09c1.47,0,2.36-.71,2.36-2s-.88-1.85-2.22-1.85a4.82,4.82,0,0,0-1.15.1Z"/><path class="cls-4" d="M257.6,226.37c0-.8,0-1.49-.06-2.12h1.08l.05,1.33h.05a2,2,0,0,1,1.88-1.48,1.25,1.25,0,0,1,.35,0v1.16a2.5,2.5,0,0,0-.42,0,1.72,1.72,0,0,0-1.65,1.58,3.34,3.34,0,0,0-.06.58V231H257.6Z"/><path class="cls-4" d="M268.17,227.59a3.31,3.31,0,0,1-3.37,3.6,3.22,3.22,0,0,1-3.25-3.49,3.31,3.31,0,0,1,3.36-3.6A3.2,3.2,0,0,1,268.17,227.59Zm-5.38.07c0,1.48.86,2.6,2.06,2.6s2.06-1.1,2.06-2.63c0-1.15-.57-2.61-2-2.61S262.79,226.37,262.79,227.66Z"/><path class="cls-4" d="M271.21,222.31v1.94H273v.94h-1.76v3.66c0,.84.24,1.32.92,1.32a2.82,2.82,0,0,0,.72-.09l0,.92a2.91,2.91,0,0,1-1.09.17,1.74,1.74,0,0,1-1.33-.51,2.53,2.53,0,0,1-.48-1.77v-3.7H269v-.94H270v-1.62Z"/><path class="cls-4" d="M280.41,227.59a3.32,3.32,0,0,1-3.38,3.6,3.23,3.23,0,0,1-3.25-3.49,3.31,3.31,0,0,1,3.37-3.6A3.21,3.21,0,0,1,280.41,227.59Zm-5.38.07c0,1.48.86,2.6,2.06,2.6s2.06-1.1,2.06-2.63c0-1.15-.57-2.61-2-2.61S275,226.37,275,227.66Z"/><path class="cls-4" d="M283.45,222.31v1.94h1.76v.94h-1.76v3.66c0,.84.23,1.32.92,1.32a2.73,2.73,0,0,0,.71-.09l.06.92a3,3,0,0,1-1.09.17,1.71,1.71,0,0,1-1.33-.51,2.53,2.53,0,0,1-.48-1.77v-3.7h-1.05v-.94h1.05v-1.62Z"/><path class="cls-4" d="M287.17,224.25l1.48,4c.16.45.33,1,.44,1.39h0c.12-.41.26-.93.43-1.42l1.34-4h1.31l-1.85,4.84c-.88,2.32-1.49,3.51-2.33,4.24a3.39,3.39,0,0,1-1.51.8l-.31-1a3.2,3.2,0,0,0,1.08-.6,3.72,3.72,0,0,0,1-1.37,1.14,1.14,0,0,0,.1-.3,1.05,1.05,0,0,0-.09-.32l-2.51-6.25Z"/><path class="cls-4" d="M293.31,226.47c0-.87,0-1.57-.05-2.22h1.1l.06,1.17h0a2.65,2.65,0,0,1,2.41-1.32c1.64,0,2.87,1.39,2.87,3.44,0,2.44-1.48,3.65-3.08,3.65a2.39,2.39,0,0,1-2.09-1.07h0v3.69h-1.22Zm1.22,1.8a2.64,2.64,0,0,0,.06.51,1.9,1.9,0,0,0,1.85,1.44c1.3,0,2.06-1.06,2.06-2.62,0-1.36-.72-2.52-2-2.52a2,2,0,0,0-1.86,1.53,2,2,0,0,0-.09.5Z"/><path class="cls-4" d="M302,227.87a2.17,2.17,0,0,0,2.32,2.35,4.41,4.41,0,0,0,1.88-.35l.21.88a5.47,5.47,0,0,1-2.26.42,3.15,3.15,0,0,1-3.33-3.41c0-2,1.2-3.66,3.18-3.66,2.21,0,2.8,2,2.8,3.19,0,.25,0,.45,0,.58Zm3.61-.88a1.76,1.76,0,0,0-1.71-2,2,2,0,0,0-1.89,2Z"/><path class="cls-4" d="M482.33,113.21a4.25,4.25,0,0,0,2.18.62c1.25,0,2-.66,2-1.61s-.51-1.39-1.78-1.88c-1.54-.54-2.5-1.34-2.5-2.67s1.22-2.56,3.06-2.56a4.26,4.26,0,0,1,2.08.46l-.33,1a3.74,3.74,0,0,0-1.79-.45c-1.29,0-1.78.77-1.78,1.42,0,.88.57,1.31,1.87,1.82,1.6.61,2.41,1.39,2.41,2.77s-1.08,2.72-3.3,2.72a4.94,4.94,0,0,1-2.41-.6Z"/><path class="cls-4" d="M489.35,110.13c0-.86,0-1.57-.05-2.21h1.11l0,1.16h0a2.67,2.67,0,0,1,2.41-1.31c1.64,0,2.87,1.38,2.87,3.44,0,2.44-1.49,3.64-3.08,3.64a2.38,2.38,0,0,1-2.09-1.06h0v3.68h-1.22Zm1.22,1.81a2.74,2.74,0,0,0,.06.51,1.9,1.9,0,0,0,1.85,1.44c1.3,0,2.06-1.07,2.06-2.62,0-1.36-.72-2.52-2-2.52a2,2,0,0,0-1.86,1.52,1.76,1.76,0,0,0-.09.51Z"/><path class="cls-4" d="M497.32,110c0-.8,0-1.49-.06-2.12h1.08l0,1.33h.06a2,2,0,0,1,1.88-1.48,1.25,1.25,0,0,1,.35,0V109a1.76,1.76,0,0,0-.42,0,1.74,1.74,0,0,0-1.66,1.58,4.83,4.83,0,0,0,0,.58v3.61h-1.22Z"/><path class="cls-4" d="M503.33,106a.77.77,0,0,1-1.53,0,.75.75,0,0,1,.77-.78A.74.74,0,0,1,503.33,106ZM502,114.7v-6.78h1.24v6.78Z"/><path class="cls-4" d="M505.23,109.76c0-.71,0-1.28-.06-1.84h1.1l.07,1.12h0a2.52,2.52,0,0,1,2.25-1.27c.93,0,2.39.56,2.39,2.88v4h-1.23v-3.91c0-1.09-.41-2-1.57-2a1.74,1.74,0,0,0-1.65,1.26,1.62,1.62,0,0,0-.09.57v4.08h-1.23Z"/><path class="cls-4" d="M514.43,106v2h1.76v.94h-1.76v3.65c0,.85.24,1.32.92,1.32a3,3,0,0,0,.72-.08l0,.92a2.91,2.91,0,0,1-1.09.17,1.71,1.71,0,0,1-1.33-.52,2.49,2.49,0,0,1-.48-1.76v-3.7h-1.05v-.94h1.05v-1.63Z"/><path class="cls-4" d="M520.59,105.38a12,12,0,0,1,2.23-.19,3.89,3.89,0,0,1,2.59.69,2,2,0,0,1,.78,1.66,2.25,2.25,0,0,1-1.6,2.08v0a2.44,2.44,0,0,1,1.95,2.37,2.53,2.53,0,0,1-.8,1.89,4.75,4.75,0,0,1-3.26.88,13.58,13.58,0,0,1-1.89-.11Zm1.22,3.87h1.1c1.29,0,2.05-.67,2.05-1.58,0-1.11-.84-1.54-2.08-1.54a5.33,5.33,0,0,0-1.07.08Zm0,4.53a6.77,6.77,0,0,0,1,0c1.26,0,2.42-.46,2.42-1.83s-1.1-1.82-2.43-1.82h-1Z"/><path class="cls-4" d="M531.89,114.7l-.1-.85h0a2.54,2.54,0,0,1-2.08,1,1.93,1.93,0,0,1-2.07-1.94c0-1.64,1.46-2.54,4.08-2.53v-.13a1.4,1.4,0,0,0-1.54-1.57,3.39,3.39,0,0,0-1.77.5l-.28-.81a4.15,4.15,0,0,1,2.23-.6c2.07,0,2.58,1.41,2.58,2.77v2.53a9,9,0,0,0,.11,1.63Zm-.18-3.46c-1.35,0-2.88.21-2.88,1.53a1.1,1.1,0,0,0,1.17,1.17,1.7,1.7,0,0,0,1.64-1.13,1.4,1.4,0,0,0,.07-.39Z"/><path class="cls-4" d="M539.71,114.45a4.47,4.47,0,0,1-1.94.39,3.22,3.22,0,0,1-3.38-3.46,3.44,3.44,0,0,1,3.64-3.6,4.07,4.07,0,0,1,1.71.35l-.28,1a2.81,2.81,0,0,0-1.43-.32,2.56,2.56,0,0,0,0,5.1,3.4,3.4,0,0,0,1.51-.34Z"/><path class="cls-4" d="M542.37,111h0c.17-.24.41-.53.6-.77l2-2.34h1.49l-2.62,2.79,3,4h-1.5L543,111.45l-.63.7v2.55h-1.22v-10h1.22Z"/><path class="cls-4" d="M548,104.75h1.23v10H548Z"/><path class="cls-4" d="M557.4,111.25a3.31,3.31,0,0,1-3.38,3.6,3.22,3.22,0,0,1-3.25-3.48,3.31,3.31,0,0,1,3.36-3.6A3.21,3.21,0,0,1,557.4,111.25Zm-5.38.07c0,1.49.85,2.61,2.06,2.61s2.06-1.11,2.06-2.64c0-1.14-.58-2.6-2-2.6S552,110,552,111.32Z"/><path class="cls-4" d="M564.79,107.92c0,.49-.06,1-.06,1.86v3.94c0,1.55-.31,2.51-1,3.09a3.59,3.59,0,0,1-2.47.82,4.45,4.45,0,0,1-2.26-.56l.31-.94a3.84,3.84,0,0,0,2,.53c1.26,0,2.19-.66,2.19-2.37v-.75h0a2.43,2.43,0,0,1-2.16,1.13,3,3,0,0,1-2.88-3.3c0-2.3,1.5-3.6,3-3.6a2.26,2.26,0,0,1,2.12,1.17h0l.06-1Zm-1.28,2.68a1.59,1.59,0,0,0-.07-.56,1.77,1.77,0,0,0-1.72-1.31c-1.18,0-2,1-2,2.56,0,1.34.68,2.44,2,2.44a1.8,1.8,0,0,0,1.71-1.26,2.15,2.15,0,0,0,.09-.66Z"/><path class="cls-4" d="M484,140.73l-1,3h-1.26l3.21-9.44h1.47l3.22,9.44h-1.3l-1-3Zm3.1-.95-.93-2.72c-.21-.62-.35-1.18-.49-1.72h0c-.14.56-.29,1.13-.47,1.71l-.93,2.73Z"/><path class="cls-4" d="M491,138.76c0-.71,0-1.28-.06-1.84H492l.07,1.12h0a2.5,2.5,0,0,1,2.24-1.27c.94,0,2.4.56,2.4,2.88v4h-1.23v-3.91c0-1.09-.41-2-1.57-2a1.74,1.74,0,0,0-1.65,1.26,1.62,1.62,0,0,0-.09.57v4.08H491Z"/><path class="cls-4" d="M502.5,143.7l-.1-.85h0a2.53,2.53,0,0,1-2.07,1,1.93,1.93,0,0,1-2.07-1.94c0-1.64,1.45-2.54,4.07-2.53v-.13a1.4,1.4,0,0,0-1.54-1.57,3.33,3.33,0,0,0-1.76.5l-.28-.81a4.14,4.14,0,0,1,2.22-.6c2.08,0,2.58,1.41,2.58,2.77v2.53a10,10,0,0,0,.11,1.63Zm-.18-3.46c-1.34,0-2.87.21-2.87,1.53a1.09,1.09,0,0,0,1.16,1.17,1.7,1.7,0,0,0,1.64-1.13,1.4,1.4,0,0,0,.07-.39Z"/><path class="cls-4" d="M505.5,133.75h1.23v9.95H505.5Z"/><path class="cls-4" d="M509.25,136.92l1.48,4c.16.45.33,1,.44,1.38h0c.12-.4.26-.92.43-1.41l1.34-4h1.31l-1.85,4.83c-.88,2.33-1.49,3.52-2.33,4.25a3.24,3.24,0,0,1-1.51.79l-.31-1a3.38,3.38,0,0,0,1.08-.6,3.77,3.77,0,0,0,1-1.38,1,1,0,0,0,.1-.29,1,1,0,0,0-.09-.32l-2.51-6.25Z"/><path class="cls-4" d="M515.14,142.44a3.24,3.24,0,0,0,1.63.49c.89,0,1.31-.45,1.31-1s-.35-.91-1.26-1.25c-1.22-.43-1.79-1.1-1.79-1.91a2.09,2.09,0,0,1,2.34-2,3.33,3.33,0,0,1,1.67.42l-.31.89a2.65,2.65,0,0,0-1.39-.39c-.73,0-1.13.42-1.13.93s.4.81,1.29,1.14c1.17.45,1.77,1,1.77,2.05,0,1.19-.92,2-2.53,2a3.91,3.91,0,0,1-1.91-.46Z"/><path class="cls-4" d="M522.23,135a.77.77,0,0,1-1.53,0,.75.75,0,0,1,.77-.78A.74.74,0,0,1,522.23,135Zm-1.38,8.68v-6.78h1.24v6.78Z"/><path class="cls-4" d="M524,142.44a3.24,3.24,0,0,0,1.63.49c.89,0,1.31-.45,1.31-1s-.35-.91-1.26-1.25c-1.22-.43-1.79-1.1-1.79-1.91a2.09,2.09,0,0,1,2.34-2,3.33,3.33,0,0,1,1.67.42l-.31.89a2.65,2.65,0,0,0-1.39-.39c-.73,0-1.13.42-1.13.93s.4.81,1.29,1.14c1.17.45,1.77,1,1.77,2.05,0,1.19-.92,2-2.53,2a3.91,3.91,0,0,1-1.91-.46Z"/><path class="cls-4" d="M482.49,163.38a17.94,17.94,0,0,1,2.59-.19,5.42,5.42,0,0,1,3.83,1.18,4.33,4.33,0,0,1,1.33,3.39,5,5,0,0,1-1.36,3.67,5.82,5.82,0,0,1-4.17,1.35,19.89,19.89,0,0,1-2.22-.11Zm1.22,8.35a7.34,7.34,0,0,0,1.24.07c2.6,0,4-1.45,4-4,0-2.23-1.25-3.65-3.83-3.65a7,7,0,0,0-1.43.13Z"/><path class="cls-4" d="M492.52,169.53a2.17,2.17,0,0,0,2.32,2.36,4.54,4.54,0,0,0,1.88-.35l.21.88a5.41,5.41,0,0,1-2.25.42,3.15,3.15,0,0,1-3.34-3.42c0-2,1.21-3.65,3.18-3.65,2.22,0,2.8,1.94,2.8,3.19a5.55,5.55,0,0,1,0,.57Zm3.61-.88a1.75,1.75,0,0,0-1.71-2,2,2,0,0,0-1.89,2Z"/><path class="cls-4" d="M498.68,171.44a3.2,3.2,0,0,0,1.62.49c.9,0,1.32-.45,1.32-1s-.35-.91-1.26-1.25c-1.22-.43-1.79-1.1-1.79-1.91a2.09,2.09,0,0,1,2.34-2,3.32,3.32,0,0,1,1.66.42l-.31.89a2.58,2.58,0,0,0-1.38-.39c-.73,0-1.14.42-1.14.93s.41.81,1.29,1.14c1.18.45,1.78,1,1.78,2.05,0,1.19-.92,2-2.54,2a3.87,3.87,0,0,1-1.9-.46Z"/><path class="cls-4" d="M505.76,164a.76.76,0,0,1-1.52,0,.75.75,0,0,1,.77-.78A.73.73,0,0,1,505.76,164Zm-1.37,8.68v-6.78h1.23v6.78Z"/><path class="cls-4" d="M513.51,165.92c0,.49-.06,1-.06,1.86v3.94c0,1.55-.31,2.51-1,3.09a3.56,3.56,0,0,1-2.46.82,4.45,4.45,0,0,1-2.26-.56l.31-.94a3.84,3.84,0,0,0,2,.53c1.26,0,2.19-.66,2.19-2.37v-.75h0a2.43,2.43,0,0,1-2.16,1.13,3,3,0,0,1-2.89-3.3c0-2.3,1.5-3.6,3.06-3.6a2.23,2.23,0,0,1,2.11,1.17h0l.06-1Zm-1.28,2.68a1.59,1.59,0,0,0-.07-.56,1.77,1.77,0,0,0-1.72-1.31c-1.18,0-2,1-2,2.56,0,1.34.67,2.44,2,2.44a1.79,1.79,0,0,0,1.71-1.26,2.16,2.16,0,0,0,.1-.66Z"/><path class="cls-4" d="M515.41,167.76c0-.71,0-1.28-.06-1.84h1.09l.07,1.12h0a2.5,2.5,0,0,1,2.24-1.27c.94,0,2.4.56,2.4,2.88v4H520v-3.91c0-1.09-.41-2-1.57-2a1.76,1.76,0,0,0-1.66,1.26,1.91,1.91,0,0,0-.08.57v4.08h-1.23Z"/><path class="cls-4" d="M482.49,192.38a17.94,17.94,0,0,1,2.59-.19,5.42,5.42,0,0,1,3.83,1.18,4.33,4.33,0,0,1,1.33,3.39,5,5,0,0,1-1.36,3.67,5.82,5.82,0,0,1-4.17,1.35,19.89,19.89,0,0,1-2.22-.11Zm1.22,8.35a7.34,7.34,0,0,0,1.24.07c2.6,0,4-1.45,4-4,0-2.23-1.25-3.65-3.83-3.65a7,7,0,0,0-1.43.13Z"/><path class="cls-4" d="M492.52,198.53a2.17,2.17,0,0,0,2.32,2.36,4.54,4.54,0,0,0,1.88-.35l.21.88a5.41,5.41,0,0,1-2.25.42,3.15,3.15,0,0,1-3.34-3.42c0-2,1.21-3.65,3.18-3.65,2.22,0,2.8,1.94,2.8,3.19a5.55,5.55,0,0,1,0,.57Zm3.61-.88a1.75,1.75,0,0,0-1.71-2,2,2,0,0,0-1.89,2Z"/><path class="cls-4" d="M499.32,194.92l1.33,3.81a16.38,16.38,0,0,1,.55,1.74h0c.16-.56.35-1.12.58-1.74l1.31-3.81h1.29l-2.66,6.78h-1.18L498,194.92Z"/><path class="cls-4" d="M506.13,198.53a2.17,2.17,0,0,0,2.32,2.36,4.57,4.57,0,0,0,1.88-.35l.21.88a5.47,5.47,0,0,1-2.26.42,3.15,3.15,0,0,1-3.33-3.42c0-2,1.2-3.65,3.18-3.65,2.21,0,2.8,1.94,2.8,3.19a5.55,5.55,0,0,1,0,.57Zm3.61-.88a1.76,1.76,0,0,0-1.71-2,2,2,0,0,0-1.89,2Z"/><path class="cls-4" d="M512.45,191.75h1.24v9.95h-1.24Z"/><path class="cls-4" d="M521.89,198.25a3.31,3.31,0,0,1-3.37,3.6,3.22,3.22,0,0,1-3.25-3.48,3.31,3.31,0,0,1,3.36-3.6A3.2,3.2,0,0,1,521.89,198.25Zm-5.38.07c0,1.49.86,2.61,2.06,2.61s2.06-1.11,2.06-2.64c0-1.14-.57-2.6-2-2.6S516.51,197,516.51,198.32Z"/><path class="cls-4" d="M523.44,197.13c0-.86,0-1.57-.05-2.21h1.1l.06,1.16h0a2.67,2.67,0,0,1,2.41-1.31c1.64,0,2.87,1.38,2.87,3.44,0,2.44-1.49,3.64-3.08,3.64a2.38,2.38,0,0,1-2.09-1.06h0v3.68h-1.22Zm1.22,1.81a2.74,2.74,0,0,0,.06.51,1.9,1.9,0,0,0,1.85,1.44c1.3,0,2.06-1.07,2.06-2.62,0-1.36-.72-2.52-2-2.52a2,2,0,0,0-1.86,1.52,1.76,1.76,0,0,0-.09.51Z"/><path class="cls-4" d="M531.41,196.76c0-.71,0-1.28-.06-1.84h1.08l.06,1.09h0a2.34,2.34,0,0,1,2.13-1.24,2,2,0,0,1,1.92,1.36h0a2.79,2.79,0,0,1,.75-.89,2.32,2.32,0,0,1,1.5-.47c.9,0,2.23.58,2.23,2.94v4h-1.21v-3.84c0-1.3-.47-2.08-1.47-2.08a1.58,1.58,0,0,0-1.45,1.11,2,2,0,0,0-.1.62v4.19h-1.21v-4.06c0-1.08-.47-1.86-1.41-1.86a1.84,1.84,0,0,0-1.63,1.83v4.09h-1.2Z"/><path class="cls-4" d="M543.77,198.53a2.18,2.18,0,0,0,2.33,2.36,4.52,4.52,0,0,0,1.87-.35l.21.88a5.38,5.38,0,0,1-2.25.42,3.15,3.15,0,0,1-3.34-3.42c0-2,1.21-3.65,3.18-3.65,2.22,0,2.81,1.94,2.81,3.19a3.4,3.4,0,0,1-.05.57Zm3.62-.88a1.76,1.76,0,0,0-1.71-2,2,2,0,0,0-1.89,2Z"/><path class="cls-4" d="M550.1,196.76c0-.71,0-1.28-.06-1.84h1.1l.07,1.12h0a2.51,2.51,0,0,1,2.25-1.27c.93,0,2.39.56,2.39,2.88v4h-1.23v-3.91c0-1.09-.41-2-1.57-2a1.74,1.74,0,0,0-1.65,1.26,1.62,1.62,0,0,0-.09.57v4.08H550.1Z"/><path class="cls-4" d="M559.3,193v1.95h1.76v.94H559.3v3.65c0,.85.24,1.32.92,1.32a3,3,0,0,0,.72-.08l0,.92a3,3,0,0,1-1.09.17,1.69,1.69,0,0,1-1.33-.52,2.49,2.49,0,0,1-.48-1.76v-3.7H557v-.94h1.05v-1.63Z"/><path class="cls-4" d="M484.29,222.29h-2.87v-1h7v1h-2.89v8.41h-1.23Z"/><path class="cls-4" d="M489.1,227.53a2.18,2.18,0,0,0,2.33,2.36,4.52,4.52,0,0,0,1.87-.35l.21.88a5.38,5.38,0,0,1-2.25.42,3.14,3.14,0,0,1-3.33-3.42c0-2,1.2-3.65,3.18-3.65,2.21,0,2.8,1.94,2.8,3.19a5.55,5.55,0,0,1,0,.57Zm3.62-.88a1.76,1.76,0,0,0-1.71-2,2,2,0,0,0-1.89,2Z"/><path class="cls-4" d="M495.26,229.44a3.24,3.24,0,0,0,1.63.49c.89,0,1.31-.45,1.31-1s-.35-.91-1.26-1.25c-1.22-.43-1.79-1.1-1.79-1.91a2.09,2.09,0,0,1,2.34-2,3.33,3.33,0,0,1,1.67.42l-.31.89a2.65,2.65,0,0,0-1.39-.39c-.73,0-1.13.42-1.13.93s.4.81,1.29,1.14c1.17.45,1.77,1,1.77,2.05,0,1.19-.92,2-2.53,2a3.91,3.91,0,0,1-1.91-.46Z"/><path class="cls-4" d="M502.46,222v1.95h1.76v.94h-1.76v3.65c0,.85.24,1.32.92,1.32a2.91,2.91,0,0,0,.72-.08l0,.92a2.91,2.91,0,0,1-1.09.17,1.69,1.69,0,0,1-1.33-.52,2.49,2.49,0,0,1-.48-1.76v-3.7H500.2v-.94h1.05v-1.63Z"/><path class="cls-4" d="M507,222a.72.72,0,0,1-.78.75.73.73,0,0,1-.75-.75.76.76,0,0,1,.77-.78A.73.73,0,0,1,507,222Zm-1.37,8.68v-6.78h1.23v6.78Z"/><path class="cls-4" d="M508.88,225.76c0-.71,0-1.28-.05-1.84h1.09L510,225h0a2.49,2.49,0,0,1,2.24-1.27c.94,0,2.4.56,2.4,2.88v4h-1.24v-3.91c0-1.09-.4-2-1.57-2a1.74,1.74,0,0,0-1.65,1.26,1.64,1.64,0,0,0-.08.57v4.08h-1.24Z"/><path class="cls-4" d="M522.5,223.92c0,.49-.06,1-.06,1.86v3.94c0,1.55-.31,2.51-1,3.09a3.58,3.58,0,0,1-2.46.82,4.43,4.43,0,0,1-2.26-.56l.31-.94a3.84,3.84,0,0,0,2,.53c1.26,0,2.18-.66,2.18-2.37v-.75h0a2.43,2.43,0,0,1-2.16,1.13,3,3,0,0,1-2.89-3.3c0-2.3,1.5-3.6,3.06-3.6a2.25,2.25,0,0,1,2.11,1.17h0l.06-1Zm-1.28,2.68a1.59,1.59,0,0,0-.07-.56,1.77,1.77,0,0,0-1.72-1.31c-1.18,0-2,1-2,2.56,0,1.34.67,2.44,2,2.44a1.79,1.79,0,0,0,1.71-1.26,2.16,2.16,0,0,0,.1-.66Z"/><path class="cls-4" d="M482.49,250.38a17.94,17.94,0,0,1,2.59-.19,5.42,5.42,0,0,1,3.83,1.18,4.33,4.33,0,0,1,1.33,3.39,5,5,0,0,1-1.36,3.67,5.82,5.82,0,0,1-4.17,1.35,19.89,19.89,0,0,1-2.22-.11Zm1.22,8.35a7.34,7.34,0,0,0,1.24.07c2.6,0,4-1.45,4-4,0-2.23-1.25-3.65-3.83-3.65a7,7,0,0,0-1.43.13Z"/><path class="cls-4" d="M492.52,256.53a2.17,2.17,0,0,0,2.32,2.36,4.54,4.54,0,0,0,1.88-.35l.21.88a5.41,5.41,0,0,1-2.25.42,3.15,3.15,0,0,1-3.34-3.42c0-2,1.21-3.65,3.18-3.65,2.22,0,2.8,1.94,2.8,3.19a5.55,5.55,0,0,1,0,.57Zm3.61-.88a1.75,1.75,0,0,0-1.71-2,2,2,0,0,0-1.89,2Z"/><path class="cls-4" d="M498.85,255.13c0-.86,0-1.57-.06-2.21h1.11l.05,1.16h0a2.68,2.68,0,0,1,2.41-1.31c1.64,0,2.87,1.38,2.87,3.44,0,2.44-1.48,3.64-3.08,3.64a2.38,2.38,0,0,1-2.09-1.06h0v3.68h-1.21Zm1.21,1.81a2.74,2.74,0,0,0,.06.51,1.9,1.9,0,0,0,1.85,1.44c1.3,0,2.06-1.07,2.06-2.62,0-1.36-.72-2.52-2-2.52a2,2,0,0,0-1.86,1.52,2.18,2.18,0,0,0-.09.51Z"/><path class="cls-4" d="M506.81,249.75H508v9.95h-1.23Z"/><path class="cls-4" d="M516.25,256.25a3.31,3.31,0,0,1-3.37,3.6,3.22,3.22,0,0,1-3.25-3.48,3.31,3.31,0,0,1,3.36-3.6A3.21,3.21,0,0,1,516.25,256.25Zm-5.38.07c0,1.49.86,2.61,2.06,2.61s2.06-1.11,2.06-2.64c0-1.14-.57-2.6-2-2.6S510.87,255,510.87,256.32Z"/><path class="cls-4" d="M518.15,252.92l1.49,4c.15.45.32,1,.43,1.38h0c.13-.4.27-.92.43-1.41l1.35-4h1.3l-1.85,4.83c-.88,2.33-1.48,3.52-2.32,4.25a3.31,3.31,0,0,1-1.52.79l-.3-1a3.46,3.46,0,0,0,1.07-.6,3.77,3.77,0,0,0,1-1.38.76.76,0,0,0,.1-.29,1,1,0,0,0-.09-.32l-2.5-6.25Z"/><path class="cls-4" d="M524.3,254.76c0-.71,0-1.28-.06-1.84h1.08l.06,1.09h0a2.34,2.34,0,0,1,2.13-1.24,2,2,0,0,1,1.92,1.36h0a2.81,2.81,0,0,1,.76-.89,2.3,2.3,0,0,1,1.5-.47c.9,0,2.23.58,2.23,2.94v4h-1.21v-3.84c0-1.3-.47-2.08-1.47-2.08a1.59,1.59,0,0,0-1.46,1.11,2.31,2.31,0,0,0-.09.62v4.19h-1.21v-4.06c0-1.08-.47-1.86-1.41-1.86a1.84,1.84,0,0,0-1.63,1.83v4.09h-1.2Z"/><path class="cls-4" d="M536.66,256.53a2.18,2.18,0,0,0,2.33,2.36,4.52,4.52,0,0,0,1.87-.35l.21.88a5.38,5.38,0,0,1-2.25.42,3.15,3.15,0,0,1-3.34-3.42c0-2,1.21-3.65,3.18-3.65,2.22,0,2.8,1.94,2.8,3.19a3.65,3.65,0,0,1,0,.57Zm3.61-.88a1.75,1.75,0,0,0-1.7-2,2.05,2.05,0,0,0-1.9,2Z"/><path class="cls-4" d="M543,254.76c0-.71,0-1.28-.06-1.84H544l.07,1.12h0a2.5,2.5,0,0,1,2.24-1.27c.94,0,2.4.56,2.4,2.88v4h-1.23v-3.91c0-1.09-.41-2-1.57-2a1.75,1.75,0,0,0-1.66,1.26,1.91,1.91,0,0,0-.08.57v4.08H543Z"/><path class="cls-4" d="M552.19,251v1.95H554v.94h-1.76v3.65c0,.85.23,1.32.92,1.32a3,3,0,0,0,.72-.08l0,.92a3,3,0,0,1-1.09.17,1.68,1.68,0,0,1-1.33-.52,2.49,2.49,0,0,1-.48-1.76v-3.7h-1.05v-.94H551v-1.63Z"/><path class="cls-4" d="M765.08,109.71a4.25,4.25,0,0,0,2.18.62c1.25,0,2-.66,2-1.61s-.51-1.39-1.78-1.88c-1.54-.54-2.5-1.34-2.5-2.67s1.22-2.56,3.06-2.56a4.27,4.27,0,0,1,2.09.46l-.34,1a3.74,3.74,0,0,0-1.79-.45c-1.29,0-1.78.77-1.78,1.42,0,.88.57,1.31,1.88,1.82,1.59.61,2.4,1.39,2.4,2.77s-1.07,2.72-3.3,2.72a4.94,4.94,0,0,1-2.41-.6Z"/><path class="cls-4" d="M772.1,106.63c0-.86,0-1.57-.05-2.21h1.11l.05,1.16h0a2.67,2.67,0,0,1,2.41-1.31c1.64,0,2.87,1.38,2.87,3.44,0,2.44-1.48,3.64-3.08,3.64a2.38,2.38,0,0,1-2.09-1.06h0V114H772.1Zm1.22,1.81a2.74,2.74,0,0,0,.06.51,1.9,1.9,0,0,0,1.85,1.44c1.3,0,2.06-1.07,2.06-2.62,0-1.36-.72-2.52-2-2.52a2,2,0,0,0-1.86,1.52,2.18,2.18,0,0,0-.09.51Z"/><path class="cls-4" d="M780.07,106.54c0-.8,0-1.49-.06-2.12h1.08l0,1.33h.05a2,2,0,0,1,1.88-1.48,1.25,1.25,0,0,1,.35,0v1.16a1.76,1.76,0,0,0-.42,0,1.72,1.72,0,0,0-1.65,1.58,3.34,3.34,0,0,0-.06.58v3.61h-1.22Z"/><path class="cls-4" d="M786.08,102.52a.77.77,0,0,1-1.53,0,.75.75,0,0,1,.77-.78A.74.74,0,0,1,786.08,102.52Zm-1.38,8.68v-6.78h1.24v6.78Z"/><path class="cls-4" d="M788,106.26c0-.71,0-1.28-.06-1.84H789l.07,1.12h0a2.49,2.49,0,0,1,2.24-1.27c.93,0,2.39.56,2.39,2.88v4h-1.23v-3.91c0-1.09-.41-2-1.57-2a1.74,1.74,0,0,0-1.65,1.26,1.62,1.62,0,0,0-.09.57v4.08H788Z"/><path class="cls-4" d="M797.18,102.47v2h1.76v.94h-1.76V109c0,.85.24,1.32.92,1.32a2.85,2.85,0,0,0,.72-.08l0,.92a2.91,2.91,0,0,1-1.09.17,1.71,1.71,0,0,1-1.33-.52,2.49,2.49,0,0,1-.47-1.76v-3.7h-1.06v-.94H796v-1.63Z"/><path class="cls-4" d="M803.34,101.88a12,12,0,0,1,2.23-.19,3.89,3.89,0,0,1,2.59.69,2,2,0,0,1,.78,1.66,2.25,2.25,0,0,1-1.6,2.08v0a2.44,2.44,0,0,1,1.95,2.37,2.53,2.53,0,0,1-.8,1.89,4.75,4.75,0,0,1-3.26.88,13.69,13.69,0,0,1-1.89-.11Zm1.22,3.87h1.1c1.29,0,2.05-.67,2.05-1.58,0-1.11-.84-1.54-2.07-1.54a5.46,5.46,0,0,0-1.08.08Zm0,4.53a6.93,6.93,0,0,0,1,0c1.26,0,2.42-.46,2.42-1.83s-1.1-1.82-2.43-1.82h-1Z"/><path class="cls-4" d="M814.64,111.2l-.1-.85h0a2.54,2.54,0,0,1-2.08,1,1.93,1.93,0,0,1-2.07-1.94c0-1.64,1.46-2.54,4.08-2.53v-.13a1.4,1.4,0,0,0-1.54-1.57,3.39,3.39,0,0,0-1.77.5l-.28-.81a4.15,4.15,0,0,1,2.23-.6c2.07,0,2.58,1.41,2.58,2.77v2.53a9,9,0,0,0,.11,1.63Zm-.18-3.46c-1.35,0-2.88.21-2.88,1.53a1.1,1.1,0,0,0,1.17,1.17,1.7,1.7,0,0,0,1.64-1.13,1.4,1.4,0,0,0,.07-.39Z"/><path class="cls-4" d="M822.46,111a4.47,4.47,0,0,1-1.94.39,3.22,3.22,0,0,1-3.38-3.46,3.44,3.44,0,0,1,3.64-3.6,4.07,4.07,0,0,1,1.71.35l-.28,1a2.81,2.81,0,0,0-1.43-.32,2.56,2.56,0,0,0,0,5.1,3.36,3.36,0,0,0,1.51-.34Z"/><path class="cls-4" d="M825.12,107.53h0c.17-.24.41-.53.6-.77l2-2.34h1.49l-2.62,2.79,3,4h-1.5L825.75,108l-.63.7v2.55H823.9v-10h1.22Z"/><path class="cls-4" d="M830.71,101.25h1.23v10h-1.23Z"/><path class="cls-4" d="M840.15,107.75a3.31,3.31,0,0,1-3.38,3.6,3.22,3.22,0,0,1-3.25-3.48,3.31,3.31,0,0,1,3.36-3.6A3.21,3.21,0,0,1,840.15,107.75Zm-5.38.07c0,1.49.85,2.61,2.06,2.61s2.06-1.11,2.06-2.64c0-1.14-.58-2.6-2-2.6S834.77,106.54,834.77,107.82Z"/><path class="cls-4" d="M847.54,104.42c0,.49-.06,1-.06,1.86v3.94c0,1.55-.31,2.51-1,3.09a3.59,3.59,0,0,1-2.47.82,4.39,4.39,0,0,1-2.25-.56l.3-.94a3.84,3.84,0,0,0,2,.53c1.26,0,2.19-.66,2.19-2.37V110h0a2.43,2.43,0,0,1-2.16,1.13,3,3,0,0,1-2.88-3.3c0-2.3,1.5-3.6,3-3.6a2.26,2.26,0,0,1,2.12,1.17h0l.06-1Zm-1.28,2.68a1.59,1.59,0,0,0-.07-.56,1.77,1.77,0,0,0-1.72-1.31c-1.18,0-2,1-2,2.56,0,1.34.68,2.44,2,2.44a1.8,1.8,0,0,0,1.71-1.26,2.15,2.15,0,0,0,.09-.66Z"/><path class="cls-4" d="M766.77,137.23l-1,3h-1.26l3.21-9.44h1.47l3.22,9.44h-1.3l-1-3Zm3.1-.95-.93-2.72c-.21-.62-.35-1.18-.49-1.72h0c-.14.56-.29,1.13-.47,1.71l-.93,2.73Z"/><path class="cls-4" d="M773.73,135.26c0-.71,0-1.28-.06-1.84h1.1l.07,1.12h0a2.52,2.52,0,0,1,2.25-1.27c.93,0,2.39.56,2.39,2.88v4h-1.23v-3.91c0-1.09-.41-2-1.57-2a1.74,1.74,0,0,0-1.65,1.26,1.62,1.62,0,0,0-.09.57v4.08h-1.23Z"/><path class="cls-4" d="M785.25,140.2l-.09-.85h0a2.5,2.5,0,0,1-2.07,1,1.93,1.93,0,0,1-2.07-1.94c0-1.64,1.45-2.54,4.07-2.53v-.13a1.4,1.4,0,0,0-1.54-1.57,3.33,3.33,0,0,0-1.76.5l-.28-.81a4.14,4.14,0,0,1,2.22-.6c2.08,0,2.58,1.41,2.58,2.77v2.53a10,10,0,0,0,.11,1.63Zm-.18-3.46c-1.34,0-2.87.21-2.87,1.53a1.09,1.09,0,0,0,1.16,1.17,1.69,1.69,0,0,0,1.64-1.13,1.4,1.4,0,0,0,.07-.39Z"/><path class="cls-4" d="M788.25,130.25h1.23v9.95h-1.23Z"/><path class="cls-4" d="M792,133.42l1.48,4c.16.45.33,1,.44,1.38h0c.12-.4.26-.92.43-1.41l1.35-4H797l-1.85,4.83c-.88,2.33-1.49,3.52-2.33,4.25a3.24,3.24,0,0,1-1.51.79l-.31-1a3.38,3.38,0,0,0,1.08-.6,3.77,3.77,0,0,0,1-1.38,1,1,0,0,0,.1-.29,1,1,0,0,0-.09-.32l-2.51-6.25Z"/><path class="cls-4" d="M797.89,138.94a3.24,3.24,0,0,0,1.63.49c.9,0,1.31-.45,1.31-1s-.35-.91-1.26-1.25c-1.21-.43-1.79-1.1-1.79-1.91a2.09,2.09,0,0,1,2.34-2,3.33,3.33,0,0,1,1.67.42l-.31.89a2.65,2.65,0,0,0-1.39-.39c-.73,0-1.13.42-1.13.93s.4.81,1.29,1.14c1.17.45,1.78,1,1.78,2.05,0,1.19-.93,2-2.54,2a3.91,3.91,0,0,1-1.91-.46Z"/><path class="cls-4" d="M805,131.52a.77.77,0,0,1-1.53,0,.75.75,0,0,1,.77-.78A.74.74,0,0,1,805,131.52Zm-1.38,8.68v-6.78h1.24v6.78Z"/><path class="cls-4" d="M806.71,138.94a3.24,3.24,0,0,0,1.63.49c.89,0,1.31-.45,1.31-1s-.35-.91-1.26-1.25c-1.22-.43-1.79-1.1-1.79-1.91a2.09,2.09,0,0,1,2.34-2,3.33,3.33,0,0,1,1.67.42l-.31.89a2.65,2.65,0,0,0-1.39-.39c-.73,0-1.13.42-1.13.93s.4.81,1.29,1.14c1.17.45,1.77,1,1.77,2.05,0,1.19-.92,2-2.53,2a3.84,3.84,0,0,1-1.9-.46Z"/><path class="cls-4" d="M765.25,159.88a17.72,17.72,0,0,1,2.59-.19,5.41,5.41,0,0,1,3.82,1.18,4.33,4.33,0,0,1,1.33,3.39,5,5,0,0,1-1.36,3.67,5.82,5.82,0,0,1-4.17,1.35,19.57,19.57,0,0,1-2.21-.11Zm1.21,8.35a7.34,7.34,0,0,0,1.24.07c2.6,0,4-1.45,4-4,0-2.23-1.25-3.65-3.83-3.65a7,7,0,0,0-1.43.13Z"/><path class="cls-4" d="M775.27,166a2.17,2.17,0,0,0,2.32,2.36,4.54,4.54,0,0,0,1.88-.35l.21.88a5.41,5.41,0,0,1-2.25.42,3.15,3.15,0,0,1-3.34-3.42c0-2,1.21-3.65,3.18-3.65,2.22,0,2.8,1.94,2.8,3.19a3.65,3.65,0,0,1,0,.57Zm3.61-.88a1.75,1.75,0,0,0-1.71-2,2,2,0,0,0-1.89,2Z"/><path class="cls-4" d="M781.43,167.94a3.2,3.2,0,0,0,1.62.49c.9,0,1.32-.45,1.32-1s-.35-.91-1.26-1.25c-1.22-.43-1.79-1.1-1.79-1.91a2.09,2.09,0,0,1,2.34-2,3.32,3.32,0,0,1,1.66.42l-.31.89a2.58,2.58,0,0,0-1.38-.39c-.73,0-1.14.42-1.14.93s.41.81,1.29,1.14c1.18.45,1.78,1,1.78,2.05,0,1.19-.92,2-2.53,2a3.88,3.88,0,0,1-1.91-.46Z"/><path class="cls-4" d="M788.51,160.52a.76.76,0,0,1-1.52,0,.75.75,0,0,1,.77-.78A.73.73,0,0,1,788.51,160.52Zm-1.37,8.68v-6.78h1.23v6.78Z"/><path class="cls-4" d="M796.26,162.42c0,.49-.06,1-.06,1.86v3.94c0,1.55-.31,2.51-1,3.09a3.6,3.6,0,0,1-2.47.82,4.45,4.45,0,0,1-2.26-.56l.31-.94a3.84,3.84,0,0,0,2,.53c1.26,0,2.19-.66,2.19-2.37V168h0a2.43,2.43,0,0,1-2.16,1.13,3,3,0,0,1-2.88-3.3c0-2.3,1.49-3.6,3.05-3.6a2.23,2.23,0,0,1,2.11,1.17h0l.06-1ZM795,165.1a1.59,1.59,0,0,0-.07-.56,1.77,1.77,0,0,0-1.72-1.31c-1.18,0-2,1-2,2.56,0,1.34.67,2.44,2,2.44a1.78,1.78,0,0,0,1.7-1.26,1.89,1.89,0,0,0,.1-.66Z"/><path class="cls-4" d="M798.16,164.26c0-.71,0-1.28-.06-1.84h1.1l.07,1.12h0a2.5,2.5,0,0,1,2.24-1.27c.94,0,2.4.56,2.4,2.88v4H802.7v-3.91c0-1.09-.41-2-1.57-2a1.74,1.74,0,0,0-1.65,1.26,1.62,1.62,0,0,0-.09.57v4.08h-1.23Z"/><path class="cls-4" d="M765.25,188.88a17.72,17.72,0,0,1,2.59-.19,5.41,5.41,0,0,1,3.82,1.18,4.33,4.33,0,0,1,1.33,3.39,5,5,0,0,1-1.36,3.67,5.82,5.82,0,0,1-4.17,1.35,19.57,19.57,0,0,1-2.21-.11Zm1.21,8.35a7.34,7.34,0,0,0,1.24.07c2.6,0,4-1.45,4-4,0-2.23-1.25-3.65-3.83-3.65a7,7,0,0,0-1.43.13Z"/><path class="cls-4" d="M775.27,195a2.17,2.17,0,0,0,2.32,2.36,4.54,4.54,0,0,0,1.88-.35l.21.88a5.41,5.41,0,0,1-2.25.42,3.15,3.15,0,0,1-3.34-3.42c0-2,1.21-3.65,3.18-3.65,2.22,0,2.8,1.94,2.8,3.19a3.65,3.65,0,0,1,0,.57Zm3.61-.88a1.75,1.75,0,0,0-1.71-2,2,2,0,0,0-1.89,2Z"/><path class="cls-4" d="M782.07,191.42l1.33,3.81A16.38,16.38,0,0,1,784,197h0c.16-.56.35-1.12.58-1.74l1.31-3.81h1.29l-2.66,6.78h-1.18l-2.57-6.78Z"/><path class="cls-4" d="M788.88,195a2.17,2.17,0,0,0,2.32,2.36,4.57,4.57,0,0,0,1.88-.35l.21.88a5.47,5.47,0,0,1-2.26.42,3.15,3.15,0,0,1-3.33-3.42c0-2,1.21-3.65,3.18-3.65,2.21,0,2.8,1.94,2.8,3.19a5.55,5.55,0,0,1,0,.57Zm3.61-.88a1.76,1.76,0,0,0-1.71-2,2,2,0,0,0-1.89,2Z"/><path class="cls-4" d="M795.2,188.25h1.24v9.95H795.2Z"/><path class="cls-4" d="M804.64,194.75a3.31,3.31,0,0,1-3.37,3.6,3.22,3.22,0,0,1-3.25-3.48,3.31,3.31,0,0,1,3.36-3.6A3.2,3.2,0,0,1,804.64,194.75Zm-5.38.07c0,1.49.86,2.61,2.06,2.61s2.06-1.11,2.06-2.64c0-1.14-.57-2.6-2-2.6S799.26,193.54,799.26,194.82Z"/><path class="cls-4" d="M806.19,193.63c0-.86,0-1.57-.05-2.21h1.11l0,1.16h0a2.67,2.67,0,0,1,2.41-1.31c1.64,0,2.87,1.38,2.87,3.44,0,2.44-1.48,3.64-3.08,3.64a2.38,2.38,0,0,1-2.09-1.06h0V201h-1.22Zm1.22,1.81a2.74,2.74,0,0,0,.06.51,1.9,1.9,0,0,0,1.85,1.44c1.3,0,2.06-1.07,2.06-2.62,0-1.36-.72-2.52-2-2.52a2,2,0,0,0-1.86,1.52,2.18,2.18,0,0,0-.09.51Z"/><path class="cls-4" d="M814.16,193.26c0-.71,0-1.28-.06-1.84h1.08l.06,1.09h0a2.34,2.34,0,0,1,2.13-1.24,2,2,0,0,1,1.92,1.36h0a2.79,2.79,0,0,1,.75-.89,2.32,2.32,0,0,1,1.5-.47c.9,0,2.23.58,2.23,2.94v4h-1.21v-3.84c0-1.3-.47-2.08-1.47-2.08a1.58,1.58,0,0,0-1.45,1.11,2,2,0,0,0-.1.62v4.19H818.4v-4.06c0-1.08-.47-1.86-1.41-1.86a1.84,1.84,0,0,0-1.63,1.83v4.09h-1.2Z"/><path class="cls-4" d="M826.52,195a2.18,2.18,0,0,0,2.33,2.36,4.52,4.52,0,0,0,1.87-.35l.21.88a5.38,5.38,0,0,1-2.25.42,3.14,3.14,0,0,1-3.33-3.42c0-2,1.2-3.65,3.18-3.65,2.21,0,2.8,1.94,2.8,3.19a5.55,5.55,0,0,1,0,.57Zm3.62-.88a1.76,1.76,0,0,0-1.71-2,2,2,0,0,0-1.89,2Z"/><path class="cls-4" d="M832.85,193.26c0-.71,0-1.28-.06-1.84h1.1l.07,1.12h0a2.49,2.49,0,0,1,2.24-1.27c.94,0,2.39.56,2.39,2.88v4h-1.23v-3.91c0-1.09-.41-2-1.57-2a1.74,1.74,0,0,0-1.65,1.26,1.62,1.62,0,0,0-.09.57v4.08h-1.23Z"/><path class="cls-4" d="M842.05,189.47v1.95h1.76v.94h-1.76V196c0,.85.24,1.32.92,1.32a2.91,2.91,0,0,0,.72-.08l0,.92a2.91,2.91,0,0,1-1.09.17,1.69,1.69,0,0,1-1.33-.52,2.49,2.49,0,0,1-.48-1.76v-3.7h-1.05v-.94h1.05v-1.63Z"/><path class="cls-4" d="M767,218.79h-2.87v-1h7v1h-2.89v8.41H767Z"/><path class="cls-4" d="M771.85,224a2.18,2.18,0,0,0,2.33,2.36,4.61,4.61,0,0,0,1.88-.35l.21.88a5.47,5.47,0,0,1-2.26.42,3.14,3.14,0,0,1-3.33-3.42c0-2,1.2-3.65,3.18-3.65,2.21,0,2.8,1.94,2.8,3.19a5.55,5.55,0,0,1,0,.57Zm3.62-.88a1.76,1.76,0,0,0-1.71-2,2,2,0,0,0-1.89,2Z"/><path class="cls-4" d="M778,225.94a3.24,3.24,0,0,0,1.63.49c.89,0,1.31-.45,1.31-1s-.35-.91-1.26-1.25c-1.21-.43-1.79-1.1-1.79-1.91a2.09,2.09,0,0,1,2.34-2,3.33,3.33,0,0,1,1.67.42l-.31.89a2.65,2.65,0,0,0-1.39-.39c-.73,0-1.13.42-1.13.93s.4.81,1.29,1.14c1.17.45,1.78,1,1.78,2.05,0,1.19-.93,2-2.54,2a3.84,3.84,0,0,1-1.9-.46Z"/><path class="cls-4" d="M785.21,218.47v1.95H787v.94h-1.77V225c0,.85.24,1.32.92,1.32a2.91,2.91,0,0,0,.72-.08l.06.92a3,3,0,0,1-1.1.17,1.71,1.71,0,0,1-1.33-.52,2.49,2.49,0,0,1-.48-1.76v-3.7h-1v-.94h1v-1.63Z"/><path class="cls-4" d="M789.73,218.52a.76.76,0,0,1-1.52,0,.75.75,0,0,1,.77-.78A.73.73,0,0,1,789.73,218.52Zm-1.37,8.68v-6.78h1.23v6.78Z"/><path class="cls-4" d="M791.63,222.26c0-.71,0-1.28,0-1.84h1.09l.07,1.12h0a2.5,2.5,0,0,1,2.24-1.27c.94,0,2.4.56,2.4,2.88v4h-1.24v-3.91c0-1.09-.4-2-1.57-2a1.74,1.74,0,0,0-1.65,1.26,1.91,1.91,0,0,0-.08.57v4.08h-1.24Z"/><path class="cls-4" d="M805.25,220.42c0,.49-.06,1-.06,1.86v3.94c0,1.55-.31,2.51-1,3.09a3.56,3.56,0,0,1-2.46.82,4.45,4.45,0,0,1-2.26-.56l.31-.94a3.84,3.84,0,0,0,2,.53c1.26,0,2.19-.66,2.19-2.37V226h0a2.43,2.43,0,0,1-2.16,1.13,3,3,0,0,1-2.88-3.3c0-2.3,1.49-3.6,3.05-3.6a2.23,2.23,0,0,1,2.11,1.17h0l.06-1ZM804,223.1a1.59,1.59,0,0,0-.07-.56,1.77,1.77,0,0,0-1.72-1.31c-1.18,0-2,1-2,2.56,0,1.34.67,2.44,2,2.44a1.78,1.78,0,0,0,1.7-1.26,2.16,2.16,0,0,0,.1-.66Z"/><path class="cls-4" d="M765.25,246.88a17.72,17.72,0,0,1,2.59-.19,5.41,5.41,0,0,1,3.82,1.18,4.33,4.33,0,0,1,1.33,3.39,5,5,0,0,1-1.36,3.67,5.82,5.82,0,0,1-4.17,1.35,19.57,19.57,0,0,1-2.21-.11Zm1.21,8.35a7.34,7.34,0,0,0,1.24.07c2.6,0,4-1.45,4-4,0-2.23-1.25-3.65-3.83-3.65a7,7,0,0,0-1.43.13Z"/><path class="cls-4" d="M775.27,253a2.17,2.17,0,0,0,2.32,2.36,4.54,4.54,0,0,0,1.88-.35l.21.88a5.41,5.41,0,0,1-2.25.42,3.15,3.15,0,0,1-3.34-3.42c0-2,1.21-3.65,3.18-3.65,2.22,0,2.8,1.94,2.8,3.19a3.65,3.65,0,0,1,0,.57Zm3.61-.88a1.75,1.75,0,0,0-1.71-2,2,2,0,0,0-1.89,2Z"/><path class="cls-4" d="M781.6,251.63c0-.86,0-1.57-.06-2.21h1.11l.05,1.16h0a2.68,2.68,0,0,1,2.41-1.31c1.64,0,2.87,1.38,2.87,3.44,0,2.44-1.48,3.64-3.08,3.64a2.38,2.38,0,0,1-2.09-1.06h0V259H781.6Zm1.22,1.81a2.76,2.76,0,0,0,0,.51,1.91,1.91,0,0,0,1.85,1.44c1.3,0,2.06-1.07,2.06-2.62,0-1.36-.71-2.52-2-2.52a2,2,0,0,0-1.86,1.52,2.17,2.17,0,0,0-.08.51Z"/><path class="cls-4" d="M789.56,246.25h1.24v9.95h-1.24Z"/><path class="cls-4" d="M799,252.75a3.31,3.31,0,0,1-3.37,3.6,3.22,3.22,0,0,1-3.25-3.48,3.31,3.31,0,0,1,3.36-3.6A3.21,3.21,0,0,1,799,252.75Zm-5.38.07c0,1.49.86,2.61,2.06,2.61s2.06-1.11,2.06-2.64c0-1.14-.57-2.6-2-2.6S793.62,251.54,793.62,252.82Z"/><path class="cls-4" d="M800.9,249.42l1.49,4c.15.45.32,1,.43,1.38h0c.13-.4.27-.92.43-1.41l1.35-4h1.3l-1.85,4.83c-.88,2.33-1.48,3.52-2.32,4.25a3.28,3.28,0,0,1-1.51.79l-.31-1a3.35,3.35,0,0,0,1.07-.6,3.77,3.77,0,0,0,1-1.38.76.76,0,0,0,.1-.29,1.2,1.2,0,0,0-.08-.32l-2.51-6.25Z"/><path class="cls-4" d="M807.05,251.26c0-.71,0-1.28-.06-1.84h1.08l.06,1.09h0a2.34,2.34,0,0,1,2.13-1.24,2,2,0,0,1,1.92,1.36h0a2.79,2.79,0,0,1,.75-.89,2.32,2.32,0,0,1,1.5-.47c.9,0,2.23.58,2.23,2.94v4h-1.21v-3.84c0-1.3-.47-2.08-1.47-2.08a1.6,1.6,0,0,0-1.46,1.11,2.31,2.31,0,0,0-.09.62v4.19h-1.21v-4.06c0-1.08-.47-1.86-1.41-1.86a1.84,1.84,0,0,0-1.63,1.83v4.09h-1.2Z"/><path class="cls-4" d="M819.41,253a2.18,2.18,0,0,0,2.33,2.36,4.52,4.52,0,0,0,1.87-.35l.21.88a5.38,5.38,0,0,1-2.25.42,3.15,3.15,0,0,1-3.34-3.42c0-2,1.21-3.65,3.18-3.65,2.22,0,2.81,1.94,2.81,3.19a3.4,3.4,0,0,1-.05.57Zm3.61-.88a1.75,1.75,0,0,0-1.7-2,2.05,2.05,0,0,0-1.9,2Z"/><path class="cls-4" d="M825.74,251.26c0-.71,0-1.28-.06-1.84h1.09l.07,1.12h0a2.5,2.5,0,0,1,2.24-1.27c.94,0,2.4.56,2.4,2.88v4h-1.23v-3.91c0-1.09-.41-2-1.57-2a1.74,1.74,0,0,0-1.65,1.26,1.62,1.62,0,0,0-.09.57v4.08h-1.23Z"/><path class="cls-4" d="M834.94,247.47v1.95h1.76v.94h-1.76V254c0,.85.23,1.32.92,1.32a3,3,0,0,0,.72-.08l0,.92a3,3,0,0,1-1.09.17,1.68,1.68,0,0,1-1.33-.52,2.49,2.49,0,0,1-.48-1.76v-3.7h-1.05v-.94h1.05v-1.63Z"/><path class="cls-8" d="M1091.48,85.33H1096a3.58,3.58,0,0,1,2.5.81,3.31,3.31,0,0,1,0,4.54,3.58,3.58,0,0,1-2.5.81h-2.35V95.2h-2.19Zm4.26,4.51c1.09,0,1.64-.47,1.64-1.42a1.34,1.34,0,0,0-.41-1.07,1.81,1.81,0,0,0-1.23-.35h-2.07v2.84Z"/><path class="cls-8" d="M1109.4,95.2H1107l-1.71-3.15a1.26,1.26,0,0,0-.5-.52,1.5,1.5,0,0,0-.74-.17H1103V95.2h-2.16V85.33h4.54a4,4,0,0,1,2.63.76,2.76,2.76,0,0,1,.88,2.21,2.81,2.81,0,0,1-.62,1.87,3,3,0,0,1-1.76,1,2.18,2.18,0,0,1,1.31,1.1Zm-3-5.82a1.22,1.22,0,0,0,.42-1,1.21,1.21,0,0,0-.42-1,2.23,2.23,0,0,0-1.36-.32H1103v2.71h2.09A2.23,2.23,0,0,0,1106.41,89.38Z"/><path class="cls-8" d="M1112.56,94.7a4.18,4.18,0,0,1-1.67-1.76,6.38,6.38,0,0,1,0-5.36,4.18,4.18,0,0,1,1.67-1.76,5.57,5.57,0,0,1,5.11,0,4.18,4.18,0,0,1,1.67,1.76,6.38,6.38,0,0,1,0,5.36,4.18,4.18,0,0,1-1.67,1.76,5.5,5.5,0,0,1-5.11,0Zm4.49-1.94a4.79,4.79,0,0,0,0-5,2.38,2.38,0,0,0-2-.86,2.34,2.34,0,0,0-1.93.86,3.86,3.86,0,0,0-.7,2.5,3.92,3.92,0,0,0,.7,2.5,2.59,2.59,0,0,0,3.87,0Z"/><path class="cls-8" d="M1121.6,85.33h3.83a6.09,6.09,0,0,1,2.77.59,4.1,4.1,0,0,1,1.78,1.69,6,6,0,0,1,0,5.3,4.09,4.09,0,0,1-1.77,1.7,6.17,6.17,0,0,1-2.79.59h-3.83Zm3.68,8.11q3.15,0,3.15-3.18t-3.15-3.17h-1.5v6.35Z"/><path class="cls-8" d="M1133.31,94.25a4.16,4.16,0,0,1-1.09-3.12v-5.8h2.14v5.89a2.65,2.65,0,0,0,.54,1.8,2.3,2.3,0,0,0,3.13,0,2.61,2.61,0,0,0,.55-1.79V85.33h2.14v5.8a4.19,4.19,0,0,1-1.09,3.12,4.33,4.33,0,0,1-3.17,1.08A4.27,4.27,0,0,1,1133.31,94.25Z"/><path class="cls-8" d="M1144.65,94.7a4.25,4.25,0,0,1-1.71-1.78,6.2,6.2,0,0,1,0-5.32,4.12,4.12,0,0,1,1.71-1.77,5.2,5.2,0,0,1,2.61-.63,5.81,5.81,0,0,1,1.87.3,4,4,0,0,1,1.47.84l-.7,1.55a4.56,4.56,0,0,0-1.28-.71,3.9,3.9,0,0,0-1.32-.23,2.48,2.48,0,0,0-2,.84,4.65,4.65,0,0,0,0,4.94,2.49,2.49,0,0,0,2,.85,3.9,3.9,0,0,0,1.32-.23,4.82,4.82,0,0,0,1.28-.71l.7,1.55a4,4,0,0,1-1.47.84,6.1,6.1,0,0,1-1.87.3A5.2,5.2,0,0,1,1144.65,94.7Z"/><path class="cls-8" d="M1154.26,95.2V87.11h-3.1V85.33h8.38v1.78h-3.1V95.2Z"/><path class="cls-8" d="M1160.68,95.2V85.33h2.19V95.2Z"/><path class="cls-8" d="M1166.81,94.7a4.12,4.12,0,0,1-1.67-1.76,6.38,6.38,0,0,1,0-5.36,4.12,4.12,0,0,1,1.67-1.76,5.57,5.57,0,0,1,5.11,0,4.18,4.18,0,0,1,1.67,1.76,6.38,6.38,0,0,1,0,5.36,4.18,4.18,0,0,1-1.67,1.76,5.5,5.5,0,0,1-5.11,0Zm4.49-1.94a4.79,4.79,0,0,0,0-5,2.63,2.63,0,0,0-3.89,0,3.92,3.92,0,0,0-.69,2.5,3.86,3.86,0,0,0,.7,2.5,2.59,2.59,0,0,0,3.87,0Z"/><path class="cls-8" d="M1182.37,85.33h2V95.2h-1.62l-4.91-6.29V95.2h-2V85.33h1.61l4.91,6.26Z"/><path class="cls-8" d="M1104.89,102.13h3.83a6.13,6.13,0,0,1,2.78.59,4.07,4.07,0,0,1,1.77,1.69,6,6,0,0,1,0,5.3,4.09,4.09,0,0,1-1.77,1.7,6.12,6.12,0,0,1-2.79.59h-3.83Zm3.68,8.11q3.15,0,3.15-3.18t-3.15-3.17h-1.5v6.35Z"/><path class="cls-8" d="M1115.57,112v-9.87h6.8v1.69h-4.67v2.31h4.39v1.7h-4.39v2.47h4.67V112Z"/><path class="cls-8" d="M1123.87,112v-9.87h2.19v8.09h4.41V112Z"/><path class="cls-8" d="M1131.75,112v-9.87h2.19V112Z"/><path class="cls-8" d="M1143.12,102.13h2.21L1140.9,112h-1.75l-4.46-9.87H1137l3.08,7.15Z"/><path class="cls-8" d="M1146.09,112v-9.87h6.8v1.69h-4.67v2.31h4.39v1.7h-4.39v2.47h4.67V112Z"/><path class="cls-8" d="M1163,112h-2.38l-1.71-3.15a1.43,1.43,0,0,0-.5-.53,1.67,1.67,0,0,0-.75-.16h-1.07V112h-2.16v-9.87h4.54a3.92,3.92,0,0,1,2.62.76,2.77,2.77,0,0,1,.89,2.21,2.87,2.87,0,0,1-.62,1.87,3,3,0,0,1-1.76,1,2.17,2.17,0,0,1,1.3,1.1Zm-3-5.82a1.22,1.22,0,0,0,.42-1,1.21,1.21,0,0,0-.42-1,2.21,2.21,0,0,0-1.36-.33h-2.08v2.72h2.08A2.21,2.21,0,0,0,1160,106.18Z"/><path class="cls-8" d="M1172.72,102.13l-4.09,5.4V112h-2.19v-4.47l-4.07-5.4h2.48l2.67,3.65,2.72-3.65Z"/><path class="cls-3" d="M1106.52,276.86a5.11,5.11,0,0,1-1.72-.83l.7-1.56a5.49,5.49,0,0,0,3.2,1,2.66,2.66,0,0,0,1.42-.3.92.92,0,0,0,.5-.83.82.82,0,0,0-.45-.74,6.22,6.22,0,0,0-1.62-.52,9.22,9.22,0,0,1-2.08-.64,2.79,2.79,0,0,1-1.14-.93,2.56,2.56,0,0,1-.35-1.37,2.6,2.6,0,0,1,.5-1.59,3.21,3.21,0,0,1,1.39-1.1,5,5,0,0,1,2.07-.4,6.81,6.81,0,0,1,2,.3,4.28,4.28,0,0,1,1.55.83l-.7,1.56a4.72,4.72,0,0,0-2.86-1,2.37,2.37,0,0,0-1.34.33,1,1,0,0,0-.49.9.81.81,0,0,0,.19.56,1.66,1.66,0,0,0,.63.38,9.54,9.54,0,0,0,1.25.35,7,7,0,0,1,2.74,1.08,2.21,2.21,0,0,1,.83,1.82,2.59,2.59,0,0,1-1.08,2.2,4.9,4.9,0,0,1-3,.81A7.7,7.7,0,0,1,1106.52,276.86Z"/><path class="cls-3" d="M1115.36,276.09a4.24,4.24,0,0,1-1.09-3.13v-5.8h2.15v5.9a2.64,2.64,0,0,0,.54,1.79,2.29,2.29,0,0,0,3.12,0,2.58,2.58,0,0,0,.55-1.78v-5.9h2.14V273a4.19,4.19,0,0,1-1.09,3.12,5.18,5.18,0,0,1-6.32,0Z"/><path class="cls-3" d="M1124.68,267.16h4.53a3.56,3.56,0,0,1,2.51.82,3.33,3.33,0,0,1,0,4.53,3.61,3.61,0,0,1-2.51.81h-2.35V277h-2.18Zm4.25,4.51c1.09,0,1.64-.47,1.64-1.41a1.34,1.34,0,0,0-.41-1.08,1.86,1.86,0,0,0-1.23-.35h-2.07v2.84Z"/><path class="cls-3" d="M1134,267.16h4.53a3.56,3.56,0,0,1,2.51.82,3.3,3.3,0,0,1,0,4.53,3.61,3.61,0,0,1-2.51.81h-2.35V277H1134Zm4.25,4.51c1.1,0,1.64-.47,1.64-1.41a1.34,1.34,0,0,0-.4-1.08,1.89,1.89,0,0,0-1.24-.35h-2.07v2.84Z"/><path class="cls-3" d="M1145.36,276.54a4.26,4.26,0,0,1-1.67-1.77,6.38,6.38,0,0,1,0-5.36,4.18,4.18,0,0,1,1.67-1.76,5.66,5.66,0,0,1,5.11,0,4.18,4.18,0,0,1,1.67,1.76,6.38,6.38,0,0,1,0,5.36,4.26,4.26,0,0,1-1.67,1.77,5.57,5.57,0,0,1-5.11,0Zm4.49-1.94a4.8,4.8,0,0,0,0-5,2.62,2.62,0,0,0-3.88,0,3.88,3.88,0,0,0-.7,2.5,4,4,0,0,0,.7,2.51,2.61,2.61,0,0,0,3.87,0Z"/><path class="cls-3" d="M1163,277h-2.38l-1.71-3.15a1.34,1.34,0,0,0-.51-.52,1.48,1.48,0,0,0-.74-.16h-1.08V277h-2.15v-9.87h4.53a3.93,3.93,0,0,1,2.63.77,2.73,2.73,0,0,1,.89,2.2,2.9,2.9,0,0,1-.62,1.88,3,3,0,0,1-1.76,1,2.18,2.18,0,0,1,1.3,1.11Zm-3-5.81a1.49,1.49,0,0,0,0-2.07,2.29,2.29,0,0,0-1.36-.32h-2.08v2.71h2.08A2.21,2.21,0,0,0,1160,271.22Z"/><path class="cls-3" d="M1166.21,277v-8.09h-3.09v-1.78h8.37v1.78h-3.09V277Z"/><path class="cls-3" d="M1156.63,230.53v-3.14a3,3,0,0,0-2.49-3h0l-2-.34-.06-.18c-.17-.45-.35-.89-.55-1.32l-.08-.17,1.2-1.68a3,3,0,0,0-.32-3.86l-2.23-2.23a3,3,0,0,0-3.86-.33l-1.69,1.2-.17-.08c-.46-.21-.93-.41-1.41-.58l-.17-.06-.34-2a3,3,0,0,0-3-2.51h-3.14a3,3,0,0,0-3,2.51l-.35,2.07-.18.06c-.44.16-.88.35-1.31.55l-.17.08-1.66-1.19a3.07,3.07,0,0,0-3.87.32l-2.24,2.23a3,3,0,0,0-.32,3.87l1.22,1.71-.08.17c-.2.43-.38.88-.54,1.32l-.06.18-2,.34a3,3,0,0,0-2.51,3v3.15a3,3,0,0,0,2.5,3l2.07.36.07.17c.16.45.35.89.55,1.32l.08.17-1.19,1.65a3,3,0,0,0,.33,3.87l2.22,2.22a3,3,0,0,0,3.86.33l1.71-1.22.17.08c.41.19.83.36,1.25.51l.17.06.34,2a3,3,0,0,0,3,2.51h3.15a3,3,0,0,0,3-2.5l.35-2,.18-.07q.67-.24,1.32-.54l.17-.08,1.67,1.19a3,3,0,0,0,3.87-.32l2.23-2.22a3,3,0,0,0,.32-3.87l-1.2-1.69.08-.17A12.67,12.67,0,0,0,1152,234l.07-.17,2-.34A3,3,0,0,0,1156.63,230.53Zm-1.59,0a1.41,1.41,0,0,1-1.18,1.4l-2.51.42a.79.79,0,0,0-.63.55,13.16,13.16,0,0,1-1,2.3.8.8,0,0,0,0,.83l1.48,2.08a1.41,1.41,0,0,1-.15,1.82l-2.23,2.23a1.44,1.44,0,0,1-1.83.16l-2.06-1.48a.8.8,0,0,0-.84-.06,12.23,12.23,0,0,1-2.3.95.8.8,0,0,0-.54.63l-.43,2.51a1.4,1.4,0,0,1-1.4,1.18h-3.15a1.4,1.4,0,0,1-1.4-1.18l-.42-2.51a.79.79,0,0,0-.55-.63,13,13,0,0,1-2.23-.91.8.8,0,0,0-.83.05l-2.1,1.5a1.41,1.41,0,0,1-1.81-.16L1124.8,240a1.39,1.39,0,0,1-.16-1.81l1.48-2a.82.82,0,0,0,.05-.84,13.44,13.44,0,0,1-1-2.29.76.76,0,0,0-.62-.55L1122,232a1.43,1.43,0,0,1-1.19-1.4v-3.15a1.43,1.43,0,0,1,1.19-1.4l2.48-.42a.8.8,0,0,0,.63-.55,12.87,12.87,0,0,1,.93-2.3.8.8,0,0,0,0-.83l-1.5-2.1a1.42,1.42,0,0,1,.16-1.83l2.23-2.22a1.43,1.43,0,0,1,1.82-.16l2.06,1.48a.79.79,0,0,0,.84.05,13.39,13.39,0,0,1,2.29-1,.8.8,0,0,0,.54-.63l.44-2.54a1.41,1.41,0,0,1,1.4-1.18h3.14a1.41,1.41,0,0,1,1.4,1.18l.42,2.48a.79.79,0,0,0,.56.63,13.43,13.43,0,0,1,2.38,1,.8.8,0,0,0,.83,0l2.08-1.49a1.43,1.43,0,0,1,1.82.16l2.23,2.23a1.41,1.41,0,0,1,.15,1.82l-1.48,2.07a.78.78,0,0,0-.06.83,12.51,12.51,0,0,1,1,2.3.79.79,0,0,0,.63.55l2.51.43a1.38,1.38,0,0,1,1.17,1.39Z"/><path class="cls-3" d="M1138,218.48A10.48,10.48,0,1,0,1148.42,229,10.49,10.49,0,0,0,1138,218.48Zm0,19.37a8.89,8.89,0,1,1,8.89-8.89A8.9,8.9,0,0,1,1138,237.85Z"/><rect class="cls-1" x="0.5" width="163.33" height="140.96" rx="5"/><g class="cls-6"><path class="cls-7" d="M158.83,322.59H5.5a5.51,5.51,0,0,1-5.5-5.5v-131a5.51,5.51,0,0,1,5.5-5.5H158.83a5.5,5.5,0,0,1,5.5,5.5v52.36L175,249.13a3.49,3.49,0,0,1,0,5l-10.64,10.64v52.37A5.5,5.5,0,0,1,158.83,322.59ZM5.5,181.63a4.51,4.51,0,0,0-4.5,4.5v131a4.51,4.51,0,0,0,4.5,4.5H158.83a4.51,4.51,0,0,0,4.5-4.5V264.3l10.93-10.92a2.5,2.5,0,0,0,0-3.54l-10.93-10.93V186.13a4.51,4.51,0,0,0-4.5-4.5Z"/></g><path class="cls-4" d="M57.35,290.7l-.93-2.18h-4.6l-.93,2.18h-2.2l4.53-9.87H55l4.54,9.87Zm-4.81-3.84H55.7l-1.58-3.69Z"/><path class="cls-4" d="M66.86,280.83h2v9.87H67.28l-4.92-6.29v6.29h-2v-9.87h1.61l4.92,6.26Z"/><path class="cls-4" d="M78.4,290.7l-.94-2.18H72.87l-.94,2.18h-2.2l4.53-9.87H76l4.54,9.87Zm-4.82-3.84h3.16l-1.58-3.69Z"/><path class="cls-4" d="M81.38,290.7v-9.87h2.18v8.09H88v1.78Z"/><path class="cls-4" d="M96.16,280.83l-4.09,5.4v4.47H89.89v-4.47l-4.07-5.4h2.47L91,284.48l2.71-3.65Z"/><path class="cls-4" d="M97.43,290.53a5.21,5.21,0,0,1-1.72-.84l.7-1.55a5.49,5.49,0,0,0,3.21,1,2.75,2.75,0,0,0,1.42-.3.94.94,0,0,0,.5-.83.8.8,0,0,0-.46-.74,6,6,0,0,0-1.62-.52,8.6,8.6,0,0,1-2.07-.65,2.71,2.71,0,0,1-1.14-.93,2.44,2.44,0,0,1-.35-1.36,2.71,2.71,0,0,1,.49-1.6,3.35,3.35,0,0,1,1.39-1.1,5.18,5.18,0,0,1,2.08-.4,6.82,6.82,0,0,1,2,.31,4.21,4.21,0,0,1,1.55.83l-.7,1.55a4.79,4.79,0,0,0-2.86-1,2.35,2.35,0,0,0-1.34.33,1,1,0,0,0-.49.9.78.78,0,0,0,.19.55,1.42,1.42,0,0,0,.63.39,9.54,9.54,0,0,0,1.25.35,7,7,0,0,1,2.74,1.08,2.18,2.18,0,0,1,.83,1.82,2.6,2.6,0,0,1-1.08,2.2,4.92,4.92,0,0,1-3,.81A8.16,8.16,0,0,1,97.43,290.53Z"/><path class="cls-4" d="M105.25,290.7v-9.87h2.18v9.87Z"/><path class="cls-4" d="M110.69,290.53a5.21,5.21,0,0,1-1.72-.84l.7-1.55a5.49,5.49,0,0,0,3.21,1,2.78,2.78,0,0,0,1.42-.3.93.93,0,0,0,.49-.83.81.81,0,0,0-.45-.74,6,6,0,0,0-1.62-.52,8.69,8.69,0,0,1-2.08-.65,2.74,2.74,0,0,1-1.13-.93,2.44,2.44,0,0,1-.36-1.36,2.71,2.71,0,0,1,.5-1.6,3.35,3.35,0,0,1,1.39-1.1,5.16,5.16,0,0,1,2.07-.4,6.89,6.89,0,0,1,2,.31,4.08,4.08,0,0,1,1.54.83l-.69,1.55a4.79,4.79,0,0,0-2.86-1,2.41,2.41,0,0,0-1.35.33,1,1,0,0,0-.49.9.83.83,0,0,0,.19.55,1.55,1.55,0,0,0,.63.39,10.26,10.26,0,0,0,1.26.35A6.86,6.86,0,0,1,116.1,286a2.17,2.17,0,0,1,.84,1.82,2.6,2.6,0,0,1-1.08,2.2,4.92,4.92,0,0,1-3,.81A8.11,8.11,0,0,1,110.69,290.53Z"/><path class="cls-10" d="M79.19,224.83a13.57,13.57,0,1,0,13.57,13.56A13.58,13.58,0,0,0,79.19,224.83Zm5.82,24a12,12,0,0,1-5.83,1.5,12,12,0,0,1-12-12,10.55,10.55,0,0,1,.06-1.13h2.31a2.72,2.72,0,0,0,2.58,1.91,2.65,2.65,0,0,0,1.26-.32l2.73,2.73a2.62,2.62,0,0,0-.32,1.26,2.72,2.72,0,0,0,5.43,0,2.75,2.75,0,0,0-.33-1.26l4-4a2.65,2.65,0,0,0,1.26.32,2.71,2.71,0,0,0,2.72-2.71,2.77,2.77,0,0,0-.32-1.26l1.15-1.15A12,12,0,0,1,85,248.86Zm-5.34-6a1.12,1.12,0,1,1-1.12-1.12A1.12,1.12,0,0,1,79.67,242.86Zm-7.5-7.5a1.12,1.12,0,1,1-1.12,1.12A1.12,1.12,0,0,1,72.17,235.36Zm14,1a1.12,1.12,0,1,1,1.12-1.12A1.12,1.12,0,0,1,86.21,236.32Zm1.26-3.51a2.62,2.62,0,0,0-1.26-.32,2.71,2.71,0,0,0-2.71,2.71,2.65,2.65,0,0,0,.32,1.26l-4,4a2.59,2.59,0,0,0-2.53,0l-2.73-2.73a2.65,2.65,0,0,0,.32-1.26,2.7,2.7,0,0,0-5.29-.8h-2a11.95,11.95,0,0,1,21.35-4.28Z"/><path class="cls-10" d="M95.15,229a2.74,2.74,0,0,0,2.59-1.92h4v-1.6h-4a2.71,2.71,0,0,0-5.3.8,2.62,2.62,0,0,0,.32,1.26l-.91.91a16.12,16.12,0,1,0-4,23.56l7.88,7.88a3.5,3.5,0,0,0,5,0,3.52,3.52,0,0,0,0-5L92.79,247a16.07,16.07,0,0,0,0-17.28l1.1-1.1A2.78,2.78,0,0,0,95.15,229Zm0-1.6a1.12,1.12,0,1,1,1.12-1.12A1.12,1.12,0,0,1,95.15,227.38ZM89,250.8h0l.32.15.29-.24.42-.36.2-.19c.26-.24.52-.5.77-.77l.19-.21a4.59,4.59,0,0,0,.36-.41l.24-.29.09-.11,0,0,1.52,1.53-2.7,2.7-1.53-1.53h0Zm2-4h0c-.22.31-.42.58-.62.82l-.19.22-.6.66-.27.27q-.33.32-.66.6l-.22.19c-.25.2-.51.41-.82.62a14.54,14.54,0,1,1-8.49-26.37,14.31,14.31,0,0,1,2.43.2A14.53,14.53,0,0,1,91,246.82ZM99.54,256a1.91,1.91,0,0,1-2.67,2.73l-5.06-5.06,2.7-2.7Z"/><path class="cls-8" d="M1154.57,39.63h-8.73l1-.69a10.79,10.79,0,0,0,1.27-1,4.59,4.59,0,0,0,0-6.46,4.53,4.53,0,0,0-3.22-1.3h0a4.53,4.53,0,0,0-3.22,1.3c-1.1,1.11-3.62,5.19-3.28,7.73l.06.43h-1l.06-.43c.34-2.54-2.17-6.63-3.28-7.73a4.52,4.52,0,0,0-3.21-1.3h0a4.5,4.5,0,0,0-3.21,1.3,4.58,4.58,0,0,0,0,6.45,8.59,8.59,0,0,0,1.27,1l1,.69h-8.73a2,2,0,0,0-2,2v5.93a.82.82,0,0,0,.81.82h1.57V63a2,2,0,0,0,2,2h28.5a2,2,0,0,0,2-2V48.38h1.56a.82.82,0,0,0,.81-.82V41.63A2,2,0,0,0,1154.57,39.63Zm-25.64-2.85a3,3,0,0,1,0-4.17h0a3,3,0,0,1,4.13,0c1.47,1.48,3.52,5.92,2.64,6.82a1,1,0,0,1-.71.2C1133.24,39.63,1130,37.88,1128.93,36.78Zm8.2,26.6h-13.81v-15h13.81Zm0-16.63H1121v-5.5h16.18Zm5.71-14.14h0a3.07,3.07,0,0,1,4.12,0,3,3,0,0,1,0,4.17c-1.1,1.1-4.31,2.85-6.07,2.85a1,1,0,0,1-.73-.22C1139.32,38.53,1141.37,34.09,1142.84,32.61Zm9.73,30.77h-13.81v-15h13.81ZM1155,46.75h-16.19v-5.5H1155Z"/><polygon class="cls-3" points="1147.01 142.52 1138.82 142.52 1138.82 134.34 1137.07 134.34 1137.07 142.52 1128.88 142.52 1128.88 144.27 1137.07 144.27 1137.07 152.46 1138.82 152.46 1138.82 144.27 1147.01 144.27 1147.01 142.52"/><path class="cls-8" d="M54.35,100.68l-4.09,5.41v4.46H48.08v-4.46L44,100.68h2.48l2.68,3.66,2.71-3.66Z"/><path class="cls-8" d="M56,110.06a4.26,4.26,0,0,1-1.67-1.77,6.38,6.38,0,0,1,0-5.36A4.18,4.18,0,0,1,56,101.17a5.13,5.13,0,0,1,2.56-.61,5.07,5.07,0,0,1,2.55.61,4.2,4.2,0,0,1,1.68,1.76,6.48,6.48,0,0,1,0,5.36,4.28,4.28,0,0,1-1.68,1.77,5.07,5.07,0,0,1-2.55.62A5.13,5.13,0,0,1,56,110.06Zm4.5-1.94a4.83,4.83,0,0,0,0-5,2.62,2.62,0,0,0-3.88,0,4.86,4.86,0,0,0,0,5,2.33,2.33,0,0,0,1.93.87A2.38,2.38,0,0,0,60.52,108.12Z"/><path class="cls-8" d="M66.09,109.61A4.24,4.24,0,0,1,65,106.48v-5.8h2.15v5.9a2.69,2.69,0,0,0,.53,1.79,2,2,0,0,0,1.57.62,1.94,1.94,0,0,0,1.56-.63,2.58,2.58,0,0,0,.55-1.78v-5.9H73.5v5.8a4.19,4.19,0,0,1-1.09,3.12,5.18,5.18,0,0,1-6.32,0Z"/><path class="cls-8" d="M84,110.55H81.59l-1.7-3.15a1.34,1.34,0,0,0-.51-.52,1.48,1.48,0,0,0-.74-.16H77.56v3.83H75.41v-9.87h4.53a4,4,0,0,1,2.63.77,2.75,2.75,0,0,1,.89,2.2,2.85,2.85,0,0,1-.63,1.88,3,3,0,0,1-1.75,1,2.18,2.18,0,0,1,1.3,1.11Zm-3-5.81a1.49,1.49,0,0,0,0-2.07,2.29,2.29,0,0,0-1.36-.32H77.53v2.72h2.09A2.21,2.21,0,0,0,81,104.74Z"/><path class="cls-8" d="M89.13,110.55v-9.87h2.18v9.87Z"/><path class="cls-8" d="M93.27,100.68h3.84a6.12,6.12,0,0,1,2.77.59,4.17,4.17,0,0,1,1.78,1.7,5.31,5.31,0,0,1,.61,2.64,5.38,5.38,0,0,1-.61,2.65A4,4,0,0,1,99.89,110a6.1,6.1,0,0,1-2.78.58H93.27ZM97,108.79q3.15,0,3.15-3.18T97,102.45h-1.5v6.34Z"/><path class="cls-8" d="M104,110.55v-9.87h6.8v1.7h-4.67v2.31h4.39v1.69h-4.39v2.48h4.67v1.69Z"/><path class="cls-8" d="M119.65,110.55l-.94-2.18h-4.59l-.94,2.18H111l4.53-9.87h1.75l4.54,9.87Zm-4.82-3.83H118l-1.58-3.7Z"/><path class="cls-8" d="M94.93,54A13.09,13.09,0,0,0,83.37,42.37l-.54,0a9.69,9.69,0,0,0-1.32,0,5.3,5.3,0,0,1-.57,0A13.16,13.16,0,0,0,73.38,65a10.12,10.12,0,0,1,2.92,4.88v7.48a.77.77,0,0,0,.8.8H78l1.09,1.45a2.68,2.68,0,0,0,2.16,1.08h1.9a2.64,2.64,0,0,0,2.16-1.08l1.09-1.45h.86a.77.77,0,0,0,.8-.8V69.86A9.49,9.49,0,0,1,91,65,13.24,13.24,0,0,0,94.93,54ZM84.37,78.11,84,78.6a1.13,1.13,0,0,1-.88.44h-1.9a1.13,1.13,0,0,1-.88-.44L80,78.11ZM86.44,74H82.8a.8.8,0,1,0,0,1.59h3.64v.94H77.9v-.94h1.73a.8.8,0,1,0,0-1.59H77.9V70.51h8.54Zm-8.07-18a1.1,1.1,0,0,1,1.1,1.1v1.1h-1.1a1.1,1.1,0,0,1,0-2.2Zm4.9,3.8v9.17h-2.2V59.74Zm2.7-1.6h-1.1V57a1.1,1.1,0,1,1,1.1,1.1Zm-1.1,1.6H86a2.7,2.7,0,1,0-2.7-2.7v1.1h-2.2V57a2.7,2.7,0,1,0-2.7,2.7h1.1v9.17H77.73a12.36,12.36,0,0,0-3.24-5.15A11.54,11.54,0,0,1,71,54.15,11.74,11.74,0,0,1,81.15,44l.48,0a6.37,6.37,0,0,1,1.07,0l.46,0a11.52,11.52,0,0,1,6.68,19.79h0a12.46,12.46,0,0,0-3.24,5.15H84.87Z"/></g></g></svg>