<?xml version="1.0" encoding="utf-8"?>
<!-- Generator: Adobe Illustrator 24.0.1, SVG Export Plug-In . SVG Version: 6.00 Build 0)  -->
<svg version="1.1" id="Слой_1" xmlns="http://www.w3.org/2000/svg" xmlns:xlink="http://www.w3.org/1999/xlink" x="0px" y="0px"
	 viewBox="0 0 66 70" style="enable-background:new 0 0 66 70;" xml:space="preserve">
<style type="text/css">
	.st0{fill:#FF5555;}
</style>
<g>
</g>
<g>
</g>
<g>
</g>
<g>
</g>
<g>
</g>
<g>
</g>
<g>
</g>
<g>
</g>
<g>
</g>
<g>
</g>
<g>
</g>
<g>
</g>
<g>
</g>
<g>
</g>
<g>
	<g>
		<path d="M44.1,8.2c0,0-0.8,0.2-2.1,0.6c-0.2-0.7-0.6-1.6-1-2.5C39.5,3.5,37.3,2,34.7,2l0,0c-0.2,0-0.3,0-0.6,0.1
			c-0.1-0.1-0.2-0.2-0.2-0.3c-1.1-1.2-2.6-1.8-4.4-1.8c-3.4,0.1-6.8,2.5-9.5,6.9c-1.9,3.1-3.4,6.9-3.8,9.9c-3.9,1.2-6.6,2-6.7,2.1
			c-2,0.6-2,0.7-2.3,2.5C7.2,22.8,2,62.6,2,62.6L44.7,70V8.1C44.4,8.1,44.2,8.2,44.1,8.2z M34.2,11.2c-2.3,0.7-4.7,1.5-7.2,2.2
			c0.7-2.7,2-5.3,3.6-7.1c0.6-0.6,1.5-1.4,2.4-1.8C34,6.6,34.3,9.4,34.2,11.2z M29.6,2.3c0.8,0,1.5,0.2,2,0.5
			c-0.9,0.5-1.8,1.2-2.7,2c-2.1,2.3-3.8,5.9-4.5,9.4c-2,0.6-4.1,1.2-5.9,1.8C19.8,10.6,24.4,2.4,29.6,2.3z M23,33.4
			c0.2,3.6,9.8,4.4,10.3,12.9c0.4,6.7-3.6,11.3-9.3,11.6c-6.9,0.5-10.7-3.6-10.7-3.6l1.5-6.2c0,0,3.8,2.9,6.8,2.7
			c2-0.1,2.7-1.8,2.7-2.9c-0.3-4.7-8.1-4.5-8.6-12.3c-0.5-6.6,3.8-13.2,13.3-13.8c3.7-0.2,5.5,0.7,5.5,0.7l-2.1,8.1
			c0,0-2.4-1.1-5.3-0.9C23,30.1,23,32.7,23,33.4z M36.5,10.6c0-1.7-0.2-4.1-1-6.2c2.6,0.5,3.8,3.4,4.4,5.1
			C38.8,9.8,37.7,10.2,36.5,10.6z"/>
		<path class="st0" d="M46,69.9l17.7-4.4c0,0-7.6-51.6-7.7-51.9S55.7,13,55.4,13s-5.3-0.1-5.3-0.1S47.1,9.9,46,8.8V69.9z"/>
	</g>
</g>
</svg>
