<svg width="70" height="71" viewBox="0 0 70 71" fill="none" xmlns="http://www.w3.org/2000/svg">
<path d="M21.331 36.683L19.7135 35.1294L12.5635 42.5778L16.798 46.8123L18.3842 45.2262L15.7044 42.5452L21.331 36.683Z" fill="#0071B3"/>
<path d="M70 32.5182L50.9427 13.4609H42.6262V0H11.8748L0 11.8748V53.8436H17.4835L33.6646 70.0247L70 32.5182ZM29.9886 17.9479H6.73045V13.4609H13.4609V6.73045H35.8957V13.4609H34.2961L29.9886 17.9479ZM3.82962 11.2174L11.2174 3.82962V11.2174H3.82962ZM47.7705 15.7044L42.6262 20.8487L37.4819 15.7044H47.7705ZM40.3827 13.4609H38.1392V4.48696H13.4609V2.24348H40.3827V13.4609ZM2.24348 51.6001V13.4609H4.48696V20.1913H27.8349L25.6811 22.4348H8.97393V24.6783H23.5274L6.28175 42.6419L15.24 51.6001H2.24348ZM9.42262 42.6105L34.7908 16.1856L42.6262 24.021L50.4783 16.1688L66.8524 32.5428L33.6399 66.8277L9.42262 42.6105Z" fill="#0071B3"/>
<path d="M42.1134 38.1606L44.9223 34.5856L44.0406 33.8924C41.0422 31.5345 37.4504 30.2871 33.6521 30.2871C29.8539 30.2871 26.2621 31.5345 23.2637 33.8924L22.382 34.5856L25.1908 38.1606C22.7197 40.4893 21.313 43.6885 21.313 47.1132C21.313 53.9166 26.8488 59.4524 33.6521 59.4524C40.4555 59.4524 45.9913 53.9166 45.9913 47.1132C45.9913 43.6885 44.5846 40.4893 42.1134 38.1606ZM43.6839 45.9915H35.9596L40.7258 39.9251C42.3905 41.5561 43.4292 43.6852 43.6839 45.9915ZM33.6521 32.5306C36.5675 32.5306 39.3439 33.3798 41.7466 34.9962L33.6521 45.2971L25.5577 34.9951C27.9604 33.3797 30.7367 32.5306 33.6521 32.5306ZM26.5773 39.9251L32.1546 47.0235L25.7719 53.4062C24.3888 51.6798 23.5565 49.4936 23.5565 47.1132C23.5565 44.3807 24.6468 41.8175 26.5773 39.9251ZM33.6521 57.2089C31.2718 57.2089 29.0855 56.3766 27.3581 54.9935L34.1165 48.235H43.6816C43.1208 53.2749 38.8391 57.2089 33.6521 57.2089Z" fill="#0071B3"/>
<path d="M48.5557 22.1104L50.1418 20.5242L62.4788 32.8612L60.8927 34.4474L48.5557 22.1104Z" fill="#0071B3"/>
<path d="M45.1904 25.4746L46.7766 23.8885L59.1136 36.2255L57.5274 37.8116L45.1904 25.4746Z" fill="#0071B3"/>
<path d="M33.9746 20.9868L35.5608 19.4007L55.7492 39.5891L54.163 41.1752L33.9746 20.9868Z" fill="#0071B3"/>
<path d="M4.48706 22.4346H6.73054V24.6781H4.48706V22.4346Z" fill="#0071B3"/>
<path d="M4.48706 26.9219H16.8262V29.1654H4.48706V26.9219Z" fill="#0071B3"/>
<path d="M4.48706 31.4087H12.3392V33.6522H4.48706V31.4087Z" fill="#0071B3"/>
</svg>
