<svg width="71" height="70" viewBox="0 0 71 70" fill="none" xmlns="http://www.w3.org/2000/svg">
<path d="M8.56214 30.3333V30.3334C8.56597 33.581 11.1978 36.2128 14.4454 36.2167H15.5621V38.45H14.4455C9.96496 38.4449 6.33388 34.8139 6.32881 30.3333L6.32881 17.5C6.32881 7.86266 14.1415 0.05 23.7788 0.05C33.4162 0.05 41.2288 7.86266 41.2288 17.5V30.3333C41.2237 34.8139 37.5927 38.4449 33.1121 38.45H31.9955V36.2167H33.1121C36.3598 36.2128 38.9916 33.581 38.9955 30.3334V17.5C38.9955 9.09601 32.1828 2.28333 23.7788 2.28333C15.3748 2.28333 8.56214 9.09601 8.56214 17.5V30.3333Z" fill="black" stroke="white" stroke-width="0.1"/>
<path d="M10.0176 54.957L10.0176 54.957C7.87832 58.3274 8.11628 62.6846 10.61 65.802C10.7684 66.0001 10.8546 66.2463 10.8545 66.4999V66.4999V69.9499H8.62117V66.8978V66.8812L8.61131 66.868C5.75394 63.0194 5.56328 57.8082 8.13155 53.761L8.95759 52.4593L10.8436 53.6563L10.0176 54.957Z" fill="black" stroke="white" stroke-width="0.1"/>
<path d="M51.8285 23.3333V23.2833H51.7785H49.4452C46.2528 23.2796 43.6656 20.6924 43.6618 17.4999L43.6618 5.83336C43.6656 2.64094 46.2528 0.0537592 49.4452 0.05L64.6118 0.05C67.8042 0.0537745 70.3914 2.64097 70.3951 5.83339V17.4999C70.3914 20.6924 67.8042 23.2796 64.6117 23.2833H59.2615H59.2408L59.2261 23.298L53.7346 28.7895C53.5252 28.9989 53.2413 29.1167 52.9451 29.1167L52.945 29.1167C52.7982 29.1171 52.653 29.0883 52.5176 29.0318L52.5175 29.0318C52.1003 28.8589 51.8283 28.4516 51.8285 28V23.3333ZM54.0618 25.1837V25.3044L54.1472 25.219L57.989 21.3772C58.1984 21.1678 58.4823 21.05 58.7785 21.05H64.6118C66.5724 21.05 68.1618 19.4606 68.1618 17.5V5.83333C68.1618 3.8727 66.5724 2.28333 64.6118 2.28333H49.4451C47.4845 2.28333 45.8951 3.8727 45.8951 5.83333V17.5C45.8951 19.4606 47.4845 21.05 49.4451 21.05H52.9451C53.5618 21.05 54.0618 21.55 54.0618 22.1667V25.1837Z" fill="#FF5555" stroke="white" stroke-width="0.1"/>
<path d="M49.4953 8.11671V5.88337H57.562V8.11671H49.4953Z" fill="#FF5555" stroke="white" stroke-width="0.1"/>
<path d="M59.9953 8.11671V5.88337H64.562V8.11671H59.9953Z" fill="#FF5555" stroke="white" stroke-width="0.1"/>
<path d="M49.4953 12.7833V10.55H64.562V12.7833H49.4953Z" fill="#FF5555" stroke="white" stroke-width="0.1"/>
<path d="M49.4953 17.45V15.2166H57.562V17.45H49.4953Z" fill="#FF5555" stroke="white" stroke-width="0.1"/>
<path d="M38.5996 52.4593L39.4257 53.761C41.9939 57.8082 41.8033 63.0194 38.9459 66.868L38.936 66.8812V66.8978V69.9499H36.7027L36.7027 66.4999L36.7027 66.4999C36.7026 66.2463 36.7888 66.0001 36.9472 65.802C39.4411 62.685 39.679 58.3281 37.5396 54.9581L36.7135 53.6564L38.5996 52.4593Z" fill="black" stroke="white" stroke-width="0.1"/>
<path d="M50.672 47.5251L50.6778 47.5147L50.6783 47.5028C50.8554 43.1559 54.4282 39.7217 58.7786 39.7166H69.2786C69.8953 39.7166 70.3953 40.2166 70.3953 40.8332C70.3902 45.3138 66.7592 48.9449 62.2786 48.9499H61.812H61.7822L61.768 48.9761L50.4025 69.9499H47.8621L59.1971 49.0238L59.2371 48.9499H59.1531H52.4646H52.4352L52.4209 48.9757L46.9213 58.8748C46.7245 59.2289 46.3514 59.4485 45.9463 59.4489C45.3296 59.4495 44.8292 58.9499 44.8286 58.3333V48.9999C44.8248 45.7523 42.1929 43.1204 38.9454 43.1166H35.7953H35.7704L35.7554 43.1365L24.6721 57.8365L24.672 57.8366C24.4611 58.1177 24.1301 58.2833 23.7786 58.2833L23.7641 58.2833C23.7641 58.2833 23.764 58.2833 23.7639 58.2833C23.4089 58.2784 23.0773 58.1052 22.8708 57.8165L22.8301 57.8456L22.8708 57.8165L12.365 43.1375L12.35 43.1166H12.3243H8.61198C5.36435 43.1204 2.73247 45.7523 2.72865 48.9999V69.9499H0.495313V48.9999C0.500401 44.5194 4.13147 40.8883 8.61203 40.8833H15.612C16.9283 40.8833 17.9953 39.8163 17.9953 38.4999V35.7548V35.7259L17.9703 35.7115C14.3809 33.6391 12.1675 29.8112 12.162 25.6665V20.6418V20.6418C12.1618 20.2092 12.4116 19.8154 12.8029 19.6312C12.8029 19.6312 12.8029 19.6312 12.8029 19.6312L32.5497 10.34C32.5497 10.3399 32.5498 10.3399 32.5498 10.3399C33.0845 10.0917 33.72 10.302 34.0013 10.82C34.9147 12.5143 35.3936 14.4086 35.3953 16.3333V25.6665C35.3898 29.8112 33.1764 33.6391 29.587 35.7115L29.562 35.7259V35.7548V38.4999C29.562 39.8163 30.629 40.8833 31.9453 40.8833H34.6286H34.6516L34.6566 40.8775L34.664 40.8833H34.6811H38.9453C43.4258 40.8883 47.0569 44.5194 47.062 48.9999V53.8311V54.0241L47.1557 53.8554L50.672 47.5251ZM14.424 21.3374L14.3953 21.3509V21.3826V25.6666C14.3953 30.8488 18.5964 35.0499 23.7786 35.0499C28.9609 35.0499 33.162 30.8488 33.162 25.6666V16.3333C33.162 15.1536 32.9396 13.9845 32.5063 12.8872L32.4867 12.8377L32.4385 12.8604L14.424 21.3374ZM23.7625 55.2264L23.8021 55.2817L23.8431 55.2274L27.6347 50.1967L27.6951 50.1166H27.5948H20.2028H20.1055L20.1622 50.1957L23.7625 55.2264ZM29.36 47.8833H29.3849L29.3999 47.8634L32.9186 43.1967L32.979 43.1166H32.8786H31.9453C29.3956 43.1166 27.3286 41.0496 27.3286 38.4999V36.7954V36.7273L27.2636 36.7477C24.9952 37.4617 22.5621 37.4617 20.2937 36.7477L20.2286 36.7273V36.7954V38.4999C20.2286 41.0496 18.1617 43.1166 15.612 43.1166H15.1885H15.0912L15.1478 43.1957L18.488 47.8624L18.5029 47.8833H18.5286H29.36ZM53.013 46.6565L53.0007 46.7166H53.062H62.2786C65.0735 46.7135 67.4817 44.7476 68.0443 42.01L68.0566 41.9499H67.9953H58.7786C55.9837 41.953 53.5756 43.9189 53.013 46.6565Z" fill="black" stroke="white" stroke-width="0.1"/>
</svg>
