<svg width="70" height="70" viewBox="0 0 70 70" fill="none" xmlns="http://www.w3.org/2000/svg">
<path d="M15.016 67.8414L12.9577 64.9421C12.5208 64.3264 11.6672 64.1816 11.0515 64.6187C10.4358 65.0558 10.2909 65.9092 10.7281 66.5249L12.7864 69.4243C13.053 69.7999 13.4744 70.0002 13.9024 70.0002C14.1761 70.0002 14.4525 69.9181 14.6927 69.7477C15.3083 69.3106 15.4532 68.4572 15.016 67.8414Z" fill="black"/>
<path d="M30.7896 68.3517L28.5496 57.6756C27.4604 52.4841 24.4362 47.9951 20.0344 45.0353L15.2519 41.8194C13.3341 40.5302 10.7564 40.8075 9.15356 42.4419V25.9679C9.15356 23.8056 7.67933 21.9684 5.5684 21.4998C4.206 21.1971 2.80081 21.525 1.7124 22.3982C0.624119 23.2714 0 24.5726 0 25.9679V47.1664C0 49.9435 0.84984 52.6086 2.45751 54.8733L4.89561 58.3078C5.16221 58.6834 5.58357 58.8837 6.01164 58.8837C6.28535 58.8837 6.56165 58.8016 6.80187 58.6311C7.41751 58.194 7.56243 57.3407 7.12521 56.7249L4.68711 53.2904C3.40962 51.4908 2.73436 49.3731 2.73436 47.1662V25.9679C2.73436 25.4063 2.98565 24.8825 3.4237 24.5309C3.86161 24.1794 4.42721 24.0474 4.976 24.1693C5.8257 24.3578 6.41919 25.0974 6.41919 25.9679V42.7865C6.41919 45.1673 7.29392 47.4356 8.88299 49.2003C8.95108 49.2819 9.02108 49.3627 9.09504 49.4411C10.003 50.4032 11.0705 51.5368 12.0759 52.6054L13.4834 54.1034C13.4879 54.1082 13.4929 54.1123 13.4975 54.117C14.7016 55.3976 15.5896 56.3433 15.6082 56.363C16.1248 56.9133 16.9902 56.9406 17.5407 56.4237C18.0911 55.9067 18.1183 55.0416 17.6012 54.4912C17.5764 54.4646 15.9759 52.7605 14.1483 50.8178L11.0135 47.4815C11.0055 47.473 10.9983 47.4641 10.9904 47.4557C10.2554 46.5766 10.2645 45.3019 11.0349 44.4321C11.7165 43.663 12.8737 43.5153 13.7264 44.0886L18.5086 47.3044C22.316 49.8645 24.9315 53.747 25.8735 58.2371L28.1136 68.9133C28.2489 69.5577 28.8172 69.9999 29.4503 69.9999C29.5433 69.9999 29.6378 69.9904 29.7324 69.9705C30.4713 69.8155 30.9447 69.0906 30.7896 68.3517Z" fill="black"/>
<path d="M10.1291 60.9566L10.1203 60.9443C9.68147 60.3296 8.8278 60.1869 8.21325 60.6255C7.5987 61.0641 7.45597 61.9179 7.89442 62.5324L7.90317 62.5447C8.17005 62.9186 8.59046 63.118 9.01729 63.118C9.29209 63.118 9.5695 63.0354 9.81026 62.8635C10.4247 62.4249 10.5675 61.5711 10.1291 60.9566Z" fill="black"/>
<path d="M68.2873 22.398C67.199 21.5248 65.7932 21.1975 64.4314 21.4996C62.3205 21.968 60.8461 23.8054 60.8461 25.9677V42.4417C59.2434 40.8072 56.6654 40.53 54.7478 41.8192L49.9653 45.035C45.5634 47.9947 42.5393 52.4838 41.4501 57.6753L39.2101 68.3515C39.055 69.0904 39.5284 69.8152 40.2673 69.9702C40.3619 69.99 40.4565 69.9996 40.5494 69.9996C41.1826 69.9996 41.7508 69.5572 41.8861 68.9128L44.1261 58.2366C45.0682 53.7467 47.6836 49.864 51.4909 47.3041L56.2735 44.0883C57.1259 43.5149 58.2831 43.6626 58.9649 44.4318C59.7343 45.3005 59.7446 46.5731 59.0123 47.4522C59.0036 47.4617 58.9953 47.4716 58.9865 47.4811C58.9865 47.4811 52.4233 54.4646 52.3986 54.4908C51.8817 55.0413 51.9089 55.9064 52.4592 56.4233C53.0096 56.9403 53.8747 56.9131 54.3917 56.3626C54.4103 56.3429 59.9968 50.403 60.9048 49.4409C60.9788 49.3625 61.0488 49.2817 61.1168 49.2001C62.7058 47.4353 63.5806 45.167 63.5806 42.7862V25.9676C63.5806 25.0971 64.1741 24.3574 65.024 24.1689C65.5726 24.0472 66.1381 24.1792 66.5763 24.5305C67.0143 24.882 67.2656 25.4058 67.2656 25.9676V47.166C67.2656 49.3729 66.5904 51.4905 65.3129 53.2902L54.9837 67.8407C54.5466 68.4563 54.6914 69.3099 55.307 69.7469C55.5474 69.9174 55.8235 69.9995 56.0972 69.9995C56.5252 69.9995 56.9467 69.799 57.2133 69.4236L67.5425 54.8731C69.1501 52.6084 70 49.9433 70 47.1661V25.9676C69.9996 24.5722 69.3756 23.2712 68.2873 22.398Z" fill="black"/>
<path d="M52.3163 26.2034L49.8839 25.6224V25.1863C51.4648 24.0788 52.5014 22.245 52.5014 20.1727V17.0105C52.5014 13.6364 49.7565 10.8915 46.3824 10.8915C44.8683 10.8915 43.4819 11.4455 42.4124 12.3599C41.2216 9.4437 38.3562 7.38281 35.017 7.38281C31.6737 7.38281 28.8054 9.44903 27.6173 12.3708C26.5461 11.4499 25.1547 10.8913 23.6344 10.8913C20.2604 10.8913 17.5155 13.6362 17.5155 17.0102V17.2204V20.1724C17.5155 22.2448 18.5521 24.0786 20.1329 25.186V25.6221L17.7006 26.2032C14.7964 26.897 12.7681 29.4669 12.7681 32.4528V35.0062C12.7681 35.7613 13.3803 36.3734 14.1352 36.3734H20.4177C20.408 36.5392 20.4013 36.7059 20.4013 36.8739V41.79C20.4013 42.5451 21.0135 43.1572 21.7685 43.1572H29.9866C30.7416 43.1572 31.3538 42.5451 31.3538 41.79C31.3538 41.0349 30.7416 40.4228 29.9866 40.4228H28.5741V37.5975C28.5741 36.8424 27.9618 36.2304 27.2069 36.2304C26.4519 36.2304 25.8397 36.8424 25.8397 37.5975V40.4231H23.1358V36.8742C23.1358 34.2373 24.9268 31.9665 27.4908 31.3521L31.2427 30.4531L33.7535 36.1654C33.9717 36.6618 34.4628 36.9824 35.0049 36.9824H35.005C35.5472 36.9824 36.0383 36.662 36.2565 36.1656L38.7648 30.4617L42.5047 31.3551C45.0712 31.9683 46.8637 34.2393 46.8637 36.8781V40.4231H44.1598V37.5975C44.1598 36.8424 43.5476 36.2304 42.7926 36.2304C42.0377 36.2304 41.4254 36.8424 41.4254 37.5975V40.4231H39.876C39.121 40.4231 38.5088 41.0352 38.5088 41.7903C38.5088 42.5454 39.121 43.1575 39.876 43.1575H48.231C48.986 43.1575 49.5982 42.5454 49.5982 41.7903V36.8781C49.5982 36.7087 49.5913 36.5408 49.5815 36.3736H55.8817C56.6367 36.3736 57.2489 35.7615 57.2489 35.0065V32.4531C57.2489 29.4672 55.2206 26.8972 52.3163 26.2034ZM46.3824 13.6256C48.1737 13.6256 49.6442 15.0244 49.7596 16.787H47.8588C46.2609 16.787 44.6884 16.4022 43.2748 15.6697C43.7948 14.4682 44.9921 13.6256 46.3824 13.6256ZM42.9978 19.9728C42.9995 19.9062 43.0029 19.8399 43.0029 19.7729V18.5553C44.537 19.1902 46.1868 19.5213 47.8588 19.5213H49.767V20.1725C49.767 22.0387 48.2488 23.5571 46.3824 23.5571C44.5161 23.5571 42.9978 22.0387 42.9978 20.1724V19.9728ZM29.7657 15.3685C29.7657 12.473 32.1214 10.1172 35.017 10.1172C37.6288 10.1172 39.8011 12.0337 40.2022 14.534L37.9006 13.1817C37.3248 12.8435 36.589 12.9705 36.1601 13.4825C35.0354 14.8248 33.3859 15.5947 31.6345 15.5947H29.7657V15.3685ZM23.6346 13.6256C25.0249 13.6256 26.2221 14.4684 26.7422 15.6696C25.3285 16.4021 23.7561 16.7868 22.1581 16.7868H20.2574C20.3727 15.0244 21.8434 13.6256 23.6346 13.6256ZM20.25 19.5212H22.1581C23.832 19.5212 25.4835 19.1894 27.0192 18.5531V20.1723C27.0192 22.0385 25.5009 23.5569 23.6346 23.5569C21.7682 23.5569 20.25 22.0387 20.25 20.1724V19.5212ZM26.8537 28.6929C24.1639 29.3374 22.05 31.2128 21.0439 33.6391H15.5024V32.453C15.5024 30.7377 16.6675 29.2613 18.3359 28.8627L21.8179 28.031C22.4332 27.884 22.8674 27.334 22.8674 26.7012V26.2416C23.119 26.2732 23.3747 26.2914 23.6346 26.2914C23.8926 26.2914 24.1464 26.2734 24.3961 26.2423V26.6323C24.3951 26.6527 24.3947 26.6731 24.3946 26.6934C24.3943 27.142 24.6148 27.5814 25.0198 27.8434C25.1724 27.9422 25.3373 28.0065 25.5056 28.0386L27.545 28.5272L26.8537 28.6929ZM30.6674 26.5705C30.3161 26.4156 29.95 26.2918 29.5726 26.2014L27.1303 25.6161V25.1901C27.5711 24.8821 27.9696 24.518 28.3153 24.1076C28.9258 25.0482 29.7281 25.8525 30.6674 26.4651V26.5705ZM36.6053 28.5793L35.0054 32.2181L33.4019 28.57V27.5944C33.9237 27.702 34.4639 27.7587 35.017 27.7587C35.5608 27.7587 36.0918 27.7036 36.6053 27.5996V28.5793ZM35.017 25.0242C32.1214 25.0244 29.7657 22.6686 29.7657 19.7729V18.3289H31.6345C33.8026 18.3289 35.864 17.5227 37.4439 16.0847L40.2633 17.7411V19.9729C40.1578 22.7761 37.8457 25.0242 35.017 25.0242ZM39.3397 26.5749V26.4823C40.2866 25.8701 41.0959 25.0638 41.7113 24.119C42.0546 24.5248 42.4497 24.8849 42.8863 25.1901V25.6161L40.4438 26.2014C40.0632 26.2927 39.6939 26.4181 39.3397 26.5749ZM54.5144 33.6391H48.9541C47.947 31.2128 45.8316 29.3385 43.1402 28.6955L42.4537 28.5316L44.5041 28.0403C44.6747 28.0085 44.8423 27.9435 44.9969 27.8434C45.4012 27.5818 45.621 27.1424 45.621 26.6938C45.621 26.6832 45.6209 26.6724 45.6206 26.6617V26.2423C45.8704 26.2734 46.1242 26.2914 46.3822 26.2914C46.6421 26.2914 46.8977 26.2732 47.1493 26.2416V26.7012C47.1493 27.334 47.5835 27.884 48.1989 28.031L51.6808 28.8627C53.3492 29.2614 54.5144 30.7377 54.5144 32.453V33.6391Z" fill="#0071B3"/>
<path d="M35.9662 40.823C35.7107 40.5687 35.3593 40.4238 34.9998 40.4238C34.6387 40.4238 34.2874 40.5687 34.0332 40.823C33.7775 41.0787 33.6326 41.4301 33.6326 41.791C33.6326 42.1506 33.7775 42.5019 34.0332 42.7576C34.2874 43.0119 34.6388 43.1582 34.9998 43.1582C35.3593 43.1582 35.7107 43.0119 35.9662 42.7576C36.2205 42.5019 36.3669 42.1506 36.3669 41.791C36.3669 41.4301 36.2206 41.0787 35.9662 40.823Z" fill="#0071B3"/>
<path d="M34.9988 0C34.2438 0 33.6316 0.612087 33.6316 1.36718V3.4129C33.6316 4.16799 34.2438 4.78008 34.9988 4.78008C35.7537 4.78008 36.366 4.16799 36.366 3.4129V1.36718C36.366 0.612087 35.7539 0 34.9988 0Z" fill="#0071B3"/>
<path d="M29.9627 4.45982L28.5285 3.02701C27.9944 2.49326 27.1288 2.49367 26.5951 3.02783C26.0613 3.56199 26.0619 4.42769 26.596 4.9613L28.0303 6.39411C28.2972 6.66084 28.6469 6.79414 28.9965 6.79414C29.3466 6.79414 29.6966 6.66043 29.9637 6.39329C30.4971 5.85913 30.4969 4.99343 29.9627 4.45982Z" fill="#0071B3"/>
<path d="M43.3698 3.06112C42.8356 2.52751 41.9698 2.52778 41.4363 3.06208L40.0132 4.48654C39.4796 5.0207 39.48 5.8864 40.0142 6.42001C40.2812 6.68675 40.6308 6.82005 40.9805 6.82005C41.3306 6.82005 41.6808 6.68634 41.9477 6.41906L43.3708 4.99459C43.9044 4.46043 43.904 3.59473 43.3698 3.06112Z" fill="#0071B3"/>
</svg>
