<?xml version="1.0" encoding="utf-8"?>
<!-- Generator: Adobe Illustrator 23.0.1, SVG Export Plug-In . SVG Version: 6.00 Build 0)  -->
<svg version="1.1" id="Слой_1" xmlns="http://www.w3.org/2000/svg" xmlns:xlink="http://www.w3.org/1999/xlink" x="0px" y="0px"
	 width="70px" height="70px" viewBox="0 0 70 70" style="enable-background:new 0 0 70 70;" xml:space="preserve">
<path d="M59.4,33.7H69c0.6,0,1-0.4,1-1s-0.4-1-1-1h-9.6c-0.6,0-1,0.4-1,1S58.9,33.7,59.4,33.7z"/>
<path d="M66.7,5.9c-0.3,0-0.5,0.1-0.7,0.3L59.2,13c-0.4,0.4-0.4,1,0,1.4c0.2,0.2,0.4,0.3,0.7,0.3c0.3,0,0.5-0.1,0.7-0.3l6.8-6.8
	c0.2-0.2,0.3-0.4,0.3-0.7s-0.1-0.5-0.3-0.7C67.2,6,66.9,5.9,66.7,5.9z"/>
<path d="M66.7,59.4c0.3,0,0.5-0.1,0.7-0.3c0.2-0.2,0.3-0.4,0.3-0.7c0-0.3-0.1-0.5-0.3-0.7l-6.8-6.8c-0.2-0.2-0.4-0.3-0.7-0.3
	c0,0,0,0,0,0c-0.3,0-0.5,0.1-0.7,0.3c-0.4,0.4-0.4,1,0,1.4l6.8,6.8C66.1,59.3,66.4,59.4,66.7,59.4z"/>
<path d="M51.1,57.2c2.4,0,4.4-2,4.4-4.4V12.5c0-2.4-2-4.4-4.4-4.4c-2.3,0-4.1,1.7-4.4,4v0l0,0c-1.5,1.5-9.7,8.8-23.9,8.8
	c-0.2,0-0.3,0-0.5,0c-8.4,0-13.7,0.8-17.1,2.6C1.7,25.2,0,28.1,0,32.7c0,4.5,1.7,7.5,5.2,9.3C6.1,42.3,7,42.7,8,43l0,0l0,0
	c3,3,4.7,8,5.1,15.1c0.2,3.3,2.9,5.9,6.2,5.9h3.6c1.9,0,3.5-1.6,3.5-3.5s-1.6-3.5-3.5-3.5c-0.5,0-1-0.4-1-0.9
	c-0.1-1.3-0.3-3.4-0.6-5.5l0,0l0,0c0.7-0.1,1.8-0.3,2.8-0.8c2.2-1,3.6-2.7,3.9-4.9l0,0l0,0c5.7,0.8,10.1,2.7,12.7,4.2
	c3.2,1.8,5.2,3.6,5.9,4.3l0,0v0C47,55.5,48.9,57.2,51.1,57.2z M48.7,12.5c0-1.3,1.1-2.4,2.4-2.4s2.4,1.1,2.4,2.4v40.4
	c0,1.3-1.1,2.4-2.4,2.4s-2.4-1.1-2.4-2.4V12.5z M22.9,59.1c0.8,0,1.5,0.7,1.5,1.5s-0.7,1.5-1.5,1.5h-3.6c-2.2,0-4.1-1.8-4.2-4
	c-0.3-6.2-1.6-10.9-3.9-14.3l0,0l0.1,0c1.8,0.3,3.9,0.5,6.4,0.6c0,0,0,0,0,0l0,0l0,0c0.7,1.5,1.9,5.1,2.3,11.9
	C20,57.8,21.3,59.1,22.9,59.1z M26.1,44.7c-0.2,1.5-1.1,2.6-2.7,3.3c-0.9,0.4-1.8,0.6-2.4,0.6l0,0l0-0.1c-0.3-1.4-0.6-2.5-1-3.6
	c0,0,0,0,0,0c-0.1-0.2-0.1-0.3-0.1-0.3l0,0l0,0c0.7,0,1.4,0,2.2,0C23.3,44.5,24.7,44.5,26.1,44.7L26.1,44.7L26.1,44.7z M46.7,50.6
	L46.7,50.6c-1.5-1.2-3.1-2.3-4.8-3.3c-5.5-3.1-11.9-4.7-18.5-4.8l0,0V31.1c0-0.6-0.4-1-1-1s-1,0.4-1,1v11.4h0
	c-1.1,0-2.4-0.1-2.8-0.1h0c-5.8-0.2-9.8-1-12.3-2.3C3.3,38.7,2,36.4,2,32.7c0-3.8,1.2-6,4.1-7.5c2.9-1.5,7.8-2.2,15.2-2.3l0,0V27
	c0,0.5,0.5,1,1,1s1-0.5,1-1v-4.1h0c8.4-0.1,14.7-2.7,18.5-4.8c1.8-1,3.4-2.1,4.8-3.2l0,0V50.6z"/>
</svg>
