<svg width="50" height="50" viewBox="0 0 50 50" fill="none" xmlns="http://www.w3.org/2000/svg">
<path d="M48.8876 3.40123C48.7618 3.25191 48.5818 3.15865 48.3873 3.14205L37.5057 2.21266L37.3084 0.644492C37.2576 0.241074 36.8886 -0.0448631 36.4861 0.00582052L26.3917 1.27496C26.352 1.26461 26.3112 1.2568 26.2689 1.25318L12.3942 0.0680275C11.9947 0.0328713 11.632 0.340098 11.5981 0.738828L11.3912 3.1607L0.644247 4.51187C0.246591 4.56187 -0.0443269 4.93619 0.00557546 5.33414L5.49132 48.9677C5.51622 49.1667 5.47354 49.358 5.55489 49.5504C5.66895 49.8201 5.94044 50 6.23331 50H42.3572C42.764 50 43.0935 49.6706 43.0935 49.2638V48.3049L44.5193 48.4267C44.9188 48.4614 45.2815 48.1548 45.3155 47.7559L49.058 3.93844C49.0747 3.74381 49.0135 3.55064 48.8876 3.40123ZM5.49708 37.2092L1.5585 5.88092L5.49708 5.3858V37.2092ZM13.0025 1.59781L19.4459 2.14811L12.8852 2.97301L13.0025 1.59781ZM35.9394 1.55865L36.3155 4.55055H12.1406L35.9394 1.55865ZM43.9111 46.8969L43.0935 46.8271V25.312C43.0935 24.9053 42.764 24.5757 42.3572 24.5757C41.9505 24.5757 41.621 24.9052 41.621 25.312V48.5275H6.96954V6.02301H41.6211V21.8763C41.6211 22.2831 41.9506 22.6126 42.3573 22.6126C42.7641 22.6126 43.0936 22.2831 43.0936 21.8763V5.28678C43.0936 4.88014 42.7641 4.55055 42.3573 4.55055H37.7996L37.6935 3.7065L47.5283 4.54654L43.9111 46.8969Z" fill="black"/>
<path d="M38.4307 8.47711H34.5041C34.258 8.47711 34.0281 8.60006 33.8916 8.80494L32.2252 11.3046C30.4316 10.0197 28.2356 9.26237 25.8659 9.26237C25.4592 9.26237 25.1296 9.59186 25.1296 9.9986V20.2076C25.1296 20.6142 25.4591 20.9438 25.8659 20.9438H36.0749C36.4816 20.9438 36.8111 20.6143 36.8111 20.2076C36.8111 17.0731 35.4863 14.2426 33.3677 12.2454L34.8983 9.94957H38.4308C38.8375 9.94957 39.167 9.62008 39.167 9.21334C39.167 8.8066 38.8374 8.47711 38.4307 8.47711ZM35.3103 19.4713H26.6021V10.7631C28.3875 10.901 30.0347 11.5378 31.4074 12.5314L30.7504 13.5169C30.5453 13.8245 30.6054 14.2505 30.8888 14.4885C31.2207 14.7672 31.7354 14.6937 31.9755 14.3337L32.5377 13.4903C34.1031 15.0452 35.1302 17.1413 35.3103 19.4713Z" fill="black"/>
<path d="M38.4309 32.8215H31.7712L30.5978 30.944C32.4987 28.9743 33.67 26.2958 33.67 23.3488C33.67 22.9421 33.3405 22.6126 32.9337 22.6126H23.461V13.1398C23.461 12.7332 23.1314 12.4036 22.7248 12.4036C16.6896 12.4036 11.7795 17.3136 11.7795 23.3488C11.7795 29.3839 16.6896 34.294 22.7248 34.294C25.2758 34.294 27.6256 33.4167 29.4888 31.948L30.7388 33.948C30.8734 34.1632 31.1093 34.294 31.3631 34.294H38.4309C38.8376 34.294 39.1671 33.9645 39.1671 33.5578C39.1671 33.151 38.8376 32.8215 38.4309 32.8215ZM28.0611 26.8851C27.8457 26.5401 27.3913 26.4354 27.0465 26.6509C26.7017 26.8664 26.5968 27.3207 26.8124 27.6655L28.7034 30.6911C27.0716 32.0222 24.9899 32.8216 22.7249 32.8216C17.5016 32.8216 13.2521 28.5721 13.2521 23.3489C13.2521 18.3733 17.1081 14.2814 21.9886 13.9045V23.3489C21.9886 23.7555 22.3182 24.0851 22.7249 24.0851H32.1693C32.0048 26.2141 31.1334 28.148 29.7902 29.6519L28.0611 26.8851Z" fill="black"/>
<path d="M16.4422 36.748H10.1598C9.75327 36.748 9.42358 37.0775 9.42358 37.4842C9.42358 37.891 9.75317 38.2205 10.1598 38.2205H16.4422C16.8489 38.2205 17.1785 37.891 17.1785 37.4842C17.1785 37.0775 16.8489 36.748 16.4422 36.748Z" fill="black"/>
<path d="M25.8661 36.748H19.5836C19.177 36.748 18.8474 37.0775 18.8474 37.4842C18.8474 37.891 19.177 38.2205 19.5836 38.2205H25.8661C26.2727 38.2205 26.6023 37.891 26.6023 37.4842C26.6023 37.0775 26.2727 36.748 25.8661 36.748Z" fill="black"/>
<path d="M20.3688 40.6746H10.1598C9.75327 40.6746 9.42358 41.0041 9.42358 41.4108C9.42358 41.8175 9.75317 42.147 10.1598 42.147H20.3688C20.7754 42.147 21.105 41.8175 21.105 41.4108C21.105 41.0041 20.7753 40.6746 20.3688 40.6746Z" fill="black"/>
<path d="M25.8659 40.6746H23.5099C23.1034 40.6746 22.7737 41.0041 22.7737 41.4108C22.7737 41.8175 23.1033 42.147 23.5099 42.147H25.8659C26.2725 42.147 26.6021 41.8175 26.6021 41.4108C26.602 41.0041 26.2725 40.6746 25.8659 40.6746Z" fill="black"/>
<path d="M13.301 44.601H10.1598C9.75327 44.601 9.42358 44.9305 9.42358 45.3373C9.42358 45.744 9.75317 46.0735 10.1598 46.0735H13.301C13.7077 46.0735 14.0373 45.744 14.0373 45.3373C14.0373 44.9305 13.7077 44.601 13.301 44.601Z" fill="black"/>
<path d="M25.8662 44.601H16.4425C16.036 44.601 15.7063 44.9305 15.7063 45.3373C15.7063 45.744 16.0359 46.0735 16.4425 46.0735H25.8662C26.2728 46.0735 26.6024 45.744 26.6024 45.3373C26.6024 44.9305 26.2728 44.601 25.8662 44.601Z" fill="black"/>
</svg>
