<?xml version="1.0" encoding="utf-8"?>
<!-- Generator: Adobe Illustrator 23.0.1, SVG Export Plug-In . SVG Version: 6.00 Build 0)  -->
<svg version="1.1" id="Слой_1" xmlns="http://www.w3.org/2000/svg" xmlns:xlink="http://www.w3.org/1999/xlink" x="0px" y="0px"
	 width="70px" height="70px" viewBox="0 0 70 70" style="enable-background:new 0 0 70 70;" xml:space="preserve">
<path d="M60.6,65.9V8.2c0-2.1-1.7-3.8-3.8-3.8h-8.6l-0.1-0.3c-0.6-2.3-2.6-3.8-5-3.8H26.8c-2.3,0-4.4,1.6-5,3.8l-0.1,0.3h-8.6
	c-2.1,0-3.8,1.7-3.8,3.8v57.7c0,2.1,1.7,3.8,3.8,3.8h43.8C58.9,69.7,60.6,68,60.6,65.9z M23.7,5.5c0-1.7,1.4-3.1,3.1-3.1h16.4
	c1.7,0,3.1,1.4,3.1,3.1v3.1H23.7V5.5z M11.4,65.9V8.2c0-0.9,0.8-1.7,1.7-1.7h8.6v3.1c0,0.6,0.5,1,1,1h24.6c0.6,0,1-0.5,1-1V6.5h8.6
	c0.9,0,1.7,0.8,1.7,1.7v57.7c0,0.9-0.8,1.7-1.7,1.7H13.1C12.2,67.6,11.4,66.8,11.4,65.9z"/>
<path d="M51.4,50.8H18.6c-0.6,0-1,0.5-1,1s0.5,1,1,1h32.8c0.6,0,1-0.5,1-1S51.9,50.8,51.4,50.8z"/>
<path d="M51.4,59H18.6c-0.6,0-1,0.5-1,1s0.5,1,1,1h32.8c0.6,0,1-0.5,1-1S51.9,59,51.4,59z"/>
<path d="M35,17.6c-7.3,0-13.3,6-13.3,13.3s6,13.3,13.3,13.3s13.3-6,13.3-13.3S42.3,17.6,35,17.6z M46.2,32.3
	c-0.7,5.6-5.5,9.9-11.2,9.9c-6.2,0-11.3-5.1-11.3-11.3c0-5.7,4.2-10.5,9.9-11.2l0.4,0v11.2c0,0.3,0.1,0.5,0.3,0.7
	c0.2,0.2,0.4,0.3,0.7,0.3c0,0,0,0,0,0h11.2L46.2,32.3z M46.2,29.9H36V19.7l0.4,0c5.1,0.6,9.1,4.7,9.8,9.8L46.2,29.9z"/>
</svg>
