<?xml version="1.0" encoding="utf-8"?>
<!-- Generator: Adobe Illustrator 23.0.1, SVG Export Plug-In . SVG Version: 6.00 Build 0)  -->
<svg version="1.1" id="Слой_1" xmlns="http://www.w3.org/2000/svg" xmlns:xlink="http://www.w3.org/1999/xlink" x="0px" y="0px"
	 width="70px" height="70px" viewBox="0 0 70 70" style="enable-background:new 0 0 70 70;" xml:space="preserve">
<path d="M0.2,12.8v51.3c0,3.1,2.5,5.7,5.7,5.7H56c3.1,0,5.7-2.5,5.7-5.7V41h-2v23.2c0,2-1.6,3.7-3.7,3.7H5.8c-2,0-3.7-1.6-3.7-3.7
	V12.8c0-2,1.6-3.7,3.7-3.7h34.8v-2H5.8C2.7,7.2,0.2,9.7,0.2,12.8z"/>
<rect x="4.8" y="11.8" width="2" height="2"/>
<rect x="9.5" y="11.8" width="2" height="2"/>
<rect x="14.2" y="11.8" width="2" height="2"/>
<rect x="4.8" y="16.5" width="32.3" height="2"/>
<path d="M69.6,14.6l-3.1-4.3l-0.8-5.2c-0.1-0.4-0.4-0.8-0.8-0.8l-5.2-0.9l-4.2-3.1c-0.4-0.3-0.8-0.3-1.2,0l-4.3,3.1l-5.2,0.8
	c-0.4,0.1-0.8,0.4-0.8,0.8l-0.9,5.2L40,14.6c-0.3,0.4-0.3,0.8,0,1.2l3.1,4.3l0.8,5.2c0.1,0.4,0.3,0.6,0.7,0.8l0.2,0.1l-3.7,7.3
	c-0.2,0.3-0.1,0.7,0,1c0.2,0.3,0.5,0.5,0.9,0.5h4.1l0,0.1l2,3c0.2,0.3,0.5,0.4,0.8,0.4c0,0,0,0,0,0h0.1c0.3,0,0.7-0.2,0.8-0.6l4-8
	l0.3,0.2c0.4,0.3,0.8,0.3,1.2,0l0.3-0.2l0.1,0.2l3.9,7.9c0.2,0.3,0.5,0.5,0.8,0.6l0.1,0c0.3,0,0.6-0.2,0.8-0.4l2-3.1h4.1
	c0,0,0,0,0,0c0.3,0,0.7-0.2,0.9-0.5c0.2-0.3,0.2-0.7,0-1l-3.7-7.3l0.2-0.1c0.3-0.1,0.6-0.4,0.7-0.8l0.9-5.2l3.1-4.2
	C69.9,15.4,69.9,14.9,69.6,14.6z M48.9,35.3l-1.4-2.1c-0.2-0.3-0.5-0.4-0.8-0.4h-3l3.2-6.4l3.2,0.5l2.3,1.6L48.9,35.3z M66,32.8h-3
	c-0.3,0-0.6,0.2-0.8,0.4l-1.4,2.1l-3.4-6.8l2.3-1.7l3.1-0.5L66,32.8z M64.8,19c-0.1,0.1-0.2,0.3-0.2,0.4l-0.8,4.7l-4.7,0.8
	c-0.2,0-0.3,0.1-0.4,0.2l-3.9,2.8L51,25.1C50.8,25,50.7,25,50.5,25l-4.7-0.8L45,19.5c0-0.2-0.1-0.3-0.2-0.4l-2.8-3.9l2.8-3.9
	C45,11.2,45,11,45,10.9l0.8-4.7l4.7-0.8c0.2,0,0.3-0.1,0.4-0.2l3.9-2.8l3.9,2.8c0.1,0.1,0.3,0.2,0.4,0.2l4.7,0.8l0.8,4.7
	c0,0.2,0.1,0.3,0.2,0.4l2.8,3.9L64.8,19z"/>
<path d="M54.8,7.2c-4.4,0-8,3.6-8,8c0,4.4,3.6,8,8,8s8-3.6,8-8C62.8,10.8,59.2,7.2,54.8,7.2z M54.8,21.2c-3.3,0-6-2.7-6-6s2.7-6,6-6
	s6,2.7,6,6C60.8,18.5,58.1,21.2,54.8,21.2z"/>
<path d="M53.1,14.8l0.7-0.4v4h2v-5.7c0-0.4-0.2-0.7-0.5-0.9c-0.3-0.2-0.7-0.2-1,0L52.2,13L53.1,14.8z"/>
<path d="M15.2,22.3H5.8c-0.6,0-1,0.5-1,1v9.3c0,0.6,0.5,1,1,1h9.3c0.6,0,1-0.5,1-1v-9.3C16.2,22.8,15.7,22.3,15.2,22.3z M14.2,31.7
	H6.8v-7.3h7.3V31.7z"/>
<rect x="18.8" y="22.3" width="7.8" height="2"/>
<rect x="18.8" y="27" width="19.5" height="2"/>
<path d="M15.2,37.5H5.8c-0.6,0-1,0.5-1,1v9.3c0,0.6,0.5,1,1,1h9.3c0.6,0,1-0.5,1-1v-9.3C16.2,37.9,15.7,37.5,15.2,37.5z M14.2,46.8
	H6.8v-7.3h7.3V46.8z"/>
<rect x="18.8" y="37.5" width="7.8" height="2"/>
<rect x="18.8" y="42.2" width="26.5" height="2"/>
<path d="M15.2,52.7H5.8c-0.6,0-1,0.5-1,1V63c0,0.6,0.5,1,1,1h9.3c0.6,0,1-0.5,1-1v-9.3C16.2,53.1,15.7,52.7,15.2,52.7z M14.2,62H6.8
	v-7.3h7.3V62z"/>
<rect x="18.8" y="52.7" width="7.8" height="2"/>
<rect x="18.8" y="57.3" width="26.5" height="2"/>
</svg>
