<?xml version="1.0" encoding="utf-8"?>
<!-- Generator: Adobe Illustrator 23.0.1, SVG Export Plug-In . SVG Version: 6.00 Build 0)  -->
<svg version="1.1" id="Слой_1" xmlns="http://www.w3.org/2000/svg" xmlns:xlink="http://www.w3.org/1999/xlink" x="0px" y="0px"
	 viewBox="0 0 70 70" style="enable-background:new 0 0 70 70;" xml:space="preserve">
<style type="text/css">
	.st0{fill:#0071B3;stroke:#FFFFFF;stroke-width:0.2;}
	.st1{stroke:#FFFFFF;stroke-width:0.2;}
</style>
<path class="st0" d="M35,65.3L35,65.3c-5.9,0.1-11.8-0.9-17.3-3.2l0.9-2c5.2,2.1,10.7,3.1,16.3,3c2.7,0,5.5-0.2,8.2-0.6l0.4,2.2
	C40.7,65.1,37.9,65.3,35,65.3z"/>
<path class="st0" d="M16.2,58.8L15,60.6c-0.9-0.6-1.8-1.4-2.5-2.2l1.7-1.4C14.8,57.7,15.5,58.3,16.2,58.8z"/>
<path class="st1" d="M35.5,5.3l33.7,16.9v0l0.1,0c0.2,0.1,0.4,0.3,0.5,0.5c0.3,0.5,0.1,1.2-0.5,1.5l-4.2,2.1l-0.1,0v0.1v17.6V44
	l0.1,0c0.5,0.2,1,0.5,1.3,0.8c1.4,1.4,1.4,3.6,0,5l0,0l0,0.1l2.2,5.4l0,0c0.1,0.1,0.1,0.3,0.1,0.4c0,0.6-0.5,1.1-1.1,1.1h-7.2
	c-0.1,0-0.3,0-0.4-0.1l0,0c-0.6-0.2-0.8-0.9-0.6-1.4v0l2.2-5.4l0-0.1l0,0c-0.4-0.4-0.7-0.8-0.8-1.3C60,46.7,61,44.7,62.8,44l0.1,0
	v-0.1V27.5v-0.2l-0.1,0.1l-6,3l-0.1,0v0.1v19.2c0,3-2.3,5.7-6.2,7.6c-3.9,1.9-9.3,3.1-15.4,3.1s-11.5-1.2-15.4-3.1
	c-3.9-1.9-6.2-4.6-6.2-7.6V30.6v-0.1l-0.1,0L0.7,24.2h0c-0.2-0.1-0.4-0.3-0.5-0.5c-0.3-0.5-0.1-1.2,0.5-1.5l0,0L34.5,5.3
	C34.8,5.1,35.2,5.1,35.5,5.3z M15.8,48.7l-0.2-0.2v0.2v1c0,1.1,0.5,2.1,1.4,3.1c0.9,1,2.3,1.9,4,2.7c3.4,1.6,8.2,2.7,14,2.7
	c5.8,0,10.6-1.1,14-2.7c1.7-0.8,3-1.7,4-2.7c0.9-1,1.4-2.1,1.4-3.1v-1v-0.2l-0.2,0.2c-3.5,3.5-10.7,5.8-19.2,5.8
	C26.5,54.5,19.3,52.1,15.8,48.7z M15.7,31.7l-0.1-0.1v0.2v11.9c0,1.1,0.5,2.1,1.4,3.1c0.9,1,2.3,1.9,4,2.7c3.4,1.6,8.2,2.7,14,2.7
	c5.8,0,10.6-1.1,14-2.7c1.7-0.8,3-1.7,4-2.7c0.9-1,1.4-2.1,1.4-3.1V31.8v-0.2l-0.1,0.1l-18.8,9.4l0,0c-0.3,0.2-0.7,0.2-1,0l0,0
	L15.7,31.7z M65.8,54.7h0.1l-0.1-0.1l-1.5-3.7l0-0.1l-0.1,0c0,0-0.1,0-0.1,0c0,0,0,0-0.1,0c-0.1,0-0.1,0-0.2,0c-0.1,0-0.2,0-0.2,0
	c0,0-0.1,0-0.1,0l-0.1,0l0,0.1L62,54.5L62,54.7h0.1H65.8z M63.7,24.5L63.7,24.5L63.7,24.5l2.4-1.2l0.2-0.1l-0.2-0.1L35,7.5l0,0l0,0
	L3.9,23.1l-0.2,0.1l0.2,0.1L35,38.8l0,0l0,0l24.7-12.3l0.3-0.2l-0.3,0l-19-1.9l-0.1,0l0,0.1c-0.8,1.3-2.9,2.3-5.6,2.3
	c-1.7,0-3.2-0.4-4.3-1c-1.1-0.6-1.7-1.5-1.7-2.5c0-1,0.6-1.9,1.7-2.5c1.1-0.6,2.5-1,4.3-1c1.4,0,2.6,0.3,3.6,0.7
	c1,0.4,1.7,1,2.1,1.8l0,0l0.1,0L63.7,24.5z M65.3,47.3c0-0.7-0.6-1.3-1.3-1.3c-0.7,0-1.3,0.6-1.3,1.3c0,0.7,0.6,1.3,1.3,1.3
	C64.7,48.6,65.3,48,65.3,47.3z M35,24.5c1.2,0,2.1-0.2,2.7-0.5c0.3-0.1,0.6-0.3,0.7-0.4c0.1-0.1,0.1-0.1,0.2-0.2
	c0-0.1,0.1-0.1,0.1-0.2s0-0.1-0.1-0.2c0-0.1-0.1-0.1-0.2-0.2c-0.2-0.1-0.4-0.3-0.7-0.4c-0.6-0.3-1.5-0.5-2.7-0.5
	c-1.2,0-2.1,0.2-2.7,0.5c-0.3,0.1-0.6,0.3-0.7,0.4c-0.1,0.1-0.1,0.1-0.2,0.2c0,0.1-0.1,0.1-0.1,0.2s0,0.1,0.1,0.2
	c0,0.1,0.1,0.1,0.2,0.2c0.2,0.1,0.4,0.3,0.7,0.4C32.9,24.3,33.8,24.5,35,24.5z"/>
<path class="st0" d="M62.4,16.4l1-2l2.2,1.1l-1,2L62.4,16.4z"/>
<path class="st0" d="M41.8,6.1l1-2l17.9,9l-1,2L41.8,6.1z"/>
</svg>
