<?xml version="1.0" encoding="utf-8"?>
<!-- Generator: Adobe Illustrator 23.0.1, SVG Export Plug-In . SVG Version: 6.00 Build 0)  -->
<svg version="1.1" id="Слой_1" xmlns="http://www.w3.org/2000/svg" xmlns:xlink="http://www.w3.org/1999/xlink" x="0px" y="0px"
	 width="70px" height="70px" viewBox="0 0 70 70" style="enable-background:new 0 0 70 70;" xml:space="preserve">
<style type="text/css">
	.st0{fill:#0071B3;}
</style>
<path class="st0" d="M54.9,63.7h11.9c1.7,0,3.1-1.4,3.1-3.1v-8.5c0-1.7-1.4-3.1-3.1-3.1h-5v-6.7h5c1.7,0,3.1-1.4,3.1-3.1v-8.5
	c0-1.7-1.4-3.1-3.1-3.1H54.9c-1.7,0-3.1,1.4-3.1,3.1V34h-8v-3.2c0-1.7-1.4-3.1-3.1-3.1h-4.9V21h4.9c1.7,0,3.1-1.4,3.1-3.1V9.4
	c0-1.7-1.4-3.1-3.1-3.1H28.9c-1.7,0-3.1,1.4-3.1,3.1v8.5c0,1.7,1.4,3.1,3.1,3.1h4.9v6.7h-4.9c-1.7,0-3.1,1.4-3.1,3.1V34h-7.6v-3.2
	c0-1.7-1.4-3.1-3.1-3.1H3.2c-1.7,0-3.1,1.4-3.1,3.1v8.5c0,1.7,1.4,3.1,3.1,3.1h4.9V49H3.2c-1.7,0-3.1,1.4-3.1,3.1v8.5
	c0,1.7,1.4,3.1,3.1,3.1h11.9c1.7,0,3.1-1.4,3.1-3.1v-8.5c0-1.7-1.4-3.1-3.1-3.1h-4.9v-6.7h4.9c1.7,0,3.1-1.4,3.1-3.1V36h7.6v3.2
	c0,1.7,1.4,3.1,3.1,3.1h4.9v14c0,0.6,0.5,1,1,1h17v3.2C51.8,62.3,53.2,63.7,54.9,63.7z M2.1,30.8c0-0.6,0.5-1,1-1h11.9
	c0.6,0,1,0.5,1,1v2h-14V30.8z M16.1,60.6c0,0.6-0.5,1-1,1H3.2c-0.6,0-1-0.5-1-1v-4.5h14V60.6z M15.1,51.1c0.6,0,1,0.5,1,1v2h-14v-2
	c0-0.6,0.5-1,1-1H15.1z M16.1,39.2c0,0.6-0.5,1-1,1H3.2c-0.6,0-1-0.5-1-1v-4.5h14V39.2z M67.9,60.6c0,0.6-0.5,1-1,1H54.9
	c-0.6,0-1-0.5-1-1v-4.5h14V60.6z M66.8,51.1c0.6,0,1,0.5,1,1v2h-14v-2c0-0.6,0.5-1,1-1H66.8z M53.9,30.8c0-0.6,0.5-1,1-1h11.9
	c0.6,0,1,0.5,1,1v2h-14V30.8z M53.9,34.8h14v4.5c0,0.6-0.5,1-1,1H54.9c-0.6,0-1-0.5-1-1V34.8z M27.8,9.4c0-0.6,0.5-1,1-1h11.9
	c0.6,0,1,0.5,1,1v2h-14V9.4z M28.9,18.9c-0.6,0-1-0.5-1-1v-4.5h14v4.5c0,0.6-0.5,1-1,1H28.9z M27.8,30.8c0-0.6,0.5-1,1-1h11.9
	c0.6,0,1,0.5,1,1v2h-14V30.8z M28.9,40.3c-0.6,0-1-0.5-1-1v-4.5h14v4.5c0,0.6-0.5,1-1,1H28.9z M35.8,55.3v-13h4.9
	c1.7,0,3.1-1.4,3.1-3.1V36h8v3.2c0,1.7,1.4,3.1,3.1,3.1h4.8v6.6h-0.1l0,0.1h-4.7c-1.7,0-3.1,1.4-3.1,3.1v3.2H35.8z"/>
</svg>
