<svg width="70" height="71" viewBox="0 0 70 71" fill="none" xmlns="http://www.w3.org/2000/svg">
<path d="M63.8741 51.1726L55.3226 49.199V46.9757C56.5293 46.0059 57.4803 44.7325 58.0625 43.2727C59.4716 43.1497 60.8007 42.5284 61.7594 41.4738C62.7021 40.4374 63.1911 39.0757 63.1944 37.6782H63.2258V28.829C63.2258 26.3008 61.6712 24.0543 59.3293 23.153L58.4996 22.3233C57.8673 21.691 57.181 21.1336 56.4527 20.6512V0.420166H0V47.8395H44.0323V49.199L35.4807 51.1726C31.8737 52.0045 29.3548 55.1716 29.3548 58.8735V70.4202H70V58.8735C70 55.1716 67.4812 52.0045 63.8741 51.1726ZM44.9049 51.3159L47.6575 53.3799L44.8261 55.079L44.11 51.499L44.9049 51.3159ZM48.4299 60.2589H50.9239L51.8021 68.1621H47.5517L48.4299 60.2589ZM51.1212 58.0008H48.2325L47.5842 56.0564L49.6774 54.8012L51.7695 56.0564L51.1212 58.0008ZM51.6984 53.3799L54.451 51.3159L55.2471 51.5001L54.5309 55.079L51.6984 53.3799ZM53.0645 49.5331L49.6774 52.0734L46.2903 49.5331V48.3037C47.3367 48.7293 48.4795 48.9686 49.6774 48.9686C50.8754 48.9686 52.0182 48.7293 53.0645 48.3037V49.5331ZM49.6774 46.7105C45.9414 46.7105 42.9032 43.6724 42.9032 39.9363V34.2911H46.7363C49.1967 34.2911 51.5898 33.6759 53.7305 32.5028L54.6247 34.2911H56.4516V39.9363C56.4516 43.6724 53.4135 46.7105 49.6774 46.7105ZM40.6937 40.8691C40.154 40.686 39.6573 40.3845 39.2675 39.9567C38.6186 39.2417 38.3105 38.3139 38.4031 37.343C38.5249 36.0646 39.4301 34.9957 40.6452 34.5348V39.9363C40.6452 40.2511 40.6623 40.562 40.6937 40.8691ZM60.0884 39.9567C59.6987 40.3856 59.2009 40.686 58.6623 40.8691C58.6926 40.562 58.7097 40.2511 58.7097 39.9363V34.5337C59.9247 34.9946 60.8299 36.0635 60.9518 37.3419C61.0444 38.3128 60.7373 39.2417 60.0884 39.9567ZM58.1 25.1166L58.353 25.2004C59.9164 25.7231 60.9677 27.1807 60.9677 28.829V33.258C59.9688 32.5017 58.729 32.0331 57.3866 32.0331H56.0205L54.6318 29.2557L53.5678 29.9646C51.5369 31.3175 49.1752 32.0331 46.7363 32.0331H41.9682C40.6259 32.0331 39.386 32.5017 38.3871 33.258V31.5882C38.3871 25.6089 43.2533 20.7427 49.2325 20.7427C52.1295 20.7427 54.854 21.8707 56.902 23.9187L58.1 25.1166ZM2.25806 2.67823H54.1936V19.4544C52.64 18.8199 50.9625 18.4847 49.2325 18.4847C42.0079 18.4847 36.129 24.3636 36.129 31.5882V37.6782H36.1605C36.1638 39.0768 36.6528 40.4374 37.5955 41.4738C38.5541 42.5284 39.8833 43.1497 41.2924 43.2727C41.6276 44.1117 42.0813 44.8885 42.6381 45.5815H2.25806V2.67823ZM31.6129 58.8735C31.6129 56.2284 33.4128 53.9665 35.9879 53.3728L41.9087 52.0067L43.2395 58.6635L45.6018 57.2455L46.2688 59.2495L45.2798 68.1621H39.5161V59.1298H37.2581V68.1621H31.6129V58.8735ZM67.7419 68.1621H62.0968V59.1298H59.8387V68.1621H54.075L53.0849 59.2506L53.752 57.2467L56.1142 58.6646L57.445 52.0078L63.3658 53.3739C65.942 53.9682 67.7419 56.2295 67.7419 58.8735V68.1621Z" fill="white"/>
<path d="M16.9356 20.7427C10.7099 20.7427 5.64526 25.8074 5.64526 32.0331C5.64526 38.2587 10.7099 43.3234 16.9356 43.3234C23.1613 43.3234 28.2259 38.2587 28.2259 32.0331C28.2259 25.8074 23.1613 20.7427 16.9356 20.7427ZM24.1194 26.5808L22.153 27.7165C21.8817 27.3896 21.5791 27.0869 21.2522 26.8157L22.3878 24.8493C23.0405 25.346 23.6227 25.9281 24.1194 26.5808ZM23.6083 30.904C23.5372 30.4795 23.4253 30.0699 23.2787 29.6758L25.2611 28.5307C25.5759 29.2761 25.7859 30.0743 25.8901 30.904H23.6083ZM16.9356 36.5492C14.4449 36.5492 12.4195 34.5238 12.4195 32.0331C12.4195 29.5424 14.4449 27.5169 16.9356 27.5169C19.4263 27.5169 21.4517 29.5424 21.4517 32.0331C21.4517 34.5238 19.4263 36.5492 16.9356 36.5492ZM18.0646 25.3603V23.0785C18.8954 23.1827 19.6926 23.3928 20.4379 23.7075L19.2929 25.69C18.8987 25.5433 18.4891 25.4325 18.0646 25.3603ZM15.8066 23.0785V25.3603C12.9763 25.8383 10.7419 28.0737 10.2628 30.904H7.98106C8.49376 26.8262 11.7287 23.5912 15.8066 23.0785ZM7.98106 33.1621H10.2628C10.7408 35.9924 12.9763 38.2267 15.8066 38.7058V40.9876C11.7287 40.4749 8.49376 37.2399 7.98106 33.1621ZM18.0646 40.9876V38.7058C20.8949 38.2279 23.1293 35.9924 23.6083 33.1621H25.8901C25.3774 37.2399 22.1425 40.4749 18.0646 40.9876Z" fill="white"/>
<path d="M42.9032 4.93631H29.7859L24.1408 16.2266H22.5806V4.93631H20.3226V16.2266H18.0645V7.19437H15.8064V16.2266H13.5484V10.5815H11.2903V16.2266H9.03224V12.8395H6.77418V16.2266H4.51611V18.4847H25.5366L31.1818 7.19437H42.9032V4.93631Z" fill="white"/>
<path d="M45.1614 4.93631H47.4194V7.19437H45.1614V4.93631Z" fill="white"/>
<path d="M49.6775 4.93631H51.9356V7.19437H49.6775V4.93631Z" fill="white"/>
<path d="M31.6128 9.45242H51.9354V11.7105H31.6128V9.45242Z" fill="white"/>
<path d="M31.6128 13.9686H51.9354V16.2266H31.6128V13.9686Z" fill="white"/>
</svg>
