<svg width="77" height="75" viewBox="0 0 77 75" fill="none" xmlns="http://www.w3.org/2000/svg">
<rect x="36" y="72" width="33" height="3" fill="black"/>
<path fill-rule="evenodd" clip-rule="evenodd" d="M23.3066 72C17.479 69.4841 12.5091 65.1257 9.18019 59.3599C0.845968 44.9246 5.85757 26.2211 20.2929 17.8869C20.9803 17.49 21.6216 17.8071 21.9193 18.3227C22.0645 18.5743 22.0645 18.787 22.0645 19.0566C22.0645 19.1553 22.0645 19.2617 22.0716 19.3803C21.999 19.6514 21.7545 20.0217 21.5827 20.1209C8.35033 27.7606 3.77452 44.8378 11.4142 58.0701C16.6727 67.1781 26.9609 72.6948 37.4916 71.8849L37.4741 72H38V75H0V72H23.3066Z" fill="black"/>
<path d="M28.5754 15.1671L36.3333 5.18897C36.5778 4.81869 36.7496 4.71947 37.1925 4.69289C37.6355 4.6663 37.9065 4.73893 38.105 5.08263C38.5745 5.49896 38.7995 6.28557 38.2113 6.85429L32.6803 13.9428L33.8372 13.9623C45.353 13.2711 56.0115 19.0323 61.766 28.9995C70.1003 43.4348 65.0887 62.1383 50.6534 70.4726C49.966 70.8694 49.3246 70.5523 49.027 70.0368C48.7293 69.5212 48.9472 68.708 49.4628 68.4104C62.6951 60.7707 67.2709 43.6935 59.6312 30.4612C54.3727 21.3532 44.0846 15.8365 33.5538 16.6464L32.4961 16.7987L40.2066 23.8037C40.5769 24.0482 40.5042 24.3193 40.7027 24.663C40.9011 25.0067 40.6566 25.3769 40.3129 25.5754C40.0684 25.9457 39.7974 25.873 39.4537 26.0715C39.11 26.2699 38.7397 26.0254 38.5413 25.6817L29.1247 16.9122C28.2849 16.2514 28.1591 15.6366 28.5754 15.1671Z" fill="#FF5555"/>
</svg>
