<?xml version="1.0" encoding="utf-8"?>
<!-- Generator: Adobe Illustrator 24.0.1, SVG Export Plug-In . SVG Version: 6.00 Build 0)  -->
<svg version="1.1" id="Слой_1" xmlns="http://www.w3.org/2000/svg" xmlns:xlink="http://www.w3.org/1999/xlink" x="0px" y="0px"
	 viewBox="0 0 70 70" style="enable-background:new 0 0 70 70;" xml:space="preserve">
<style type="text/css">
	.st0{fill:#FFFFFF;}
</style>
<path class="st0" d="M69.1,47.1L58.6,36.5c2.5-3.3,4.1-7.4,4.5-11.6c0.5-5.2-0.8-10.4-3.6-14.7c-0.3-0.5-0.9-0.6-1.4-0.3
	c-0.5,0.3-0.6,0.9-0.3,1.4c5.4,8.2,4.2,19.1-2.7,26c-8.1,8.1-21.2,8.1-29.3,0c-8.1-8.1-8.1-21.2,0-29.3C33.9,0,47,0,55.1,8.1
	l0.1,0.1c0.4,0.4,1,0.4,1.4,0c0.4-0.4,0.4-1,0-1.4l-0.1-0.1c-8.9-8.9-23.3-8.9-32.2,0c-0.3,0.3-0.5,0.6-0.8,0.9H1c-0.6,0-1,0.5-1,1
	v4.5c0,0.6,0.5,1,1,1c0.6,0,1-0.5,1-1V9.6h19.9c-0.8,1.1-1.5,2.3-2,3.5H7.1c-0.6,0-1,0.5-1,1c0,0.6,0.5,1,1,1H19
	c-0.3,0.8-0.5,1.7-0.7,2.5H7.1c-0.6,0-1,0.5-1,1c0,0.6,0.5,1,1,1h10.8c-0.1,0.8-0.2,1.7-0.2,2.5H7.1c-0.6,0-1,0.5-1,1
	c0,0.6,0.5,1,1,1h10.6c0.2,3,0.9,5.9,2.3,8.7h-1.7c-0.6,0-1,0.5-1,1v30.4c0,0.6,0.5,1,1,1h8.2c0.6,0,1-0.5,1-1V41.5
	c0.9,0.6,1.9,1.2,2.9,1.7v21c0,0.6,0.5,1,1,1h8.2c0.6,0,1-0.5,1-1V45.5c0.8,0,1.6-0.1,2.4-0.1v15.8c0,0.6,0.5,1,1,1c0.6,0,1-0.5,1-1
	V45c3.2-0.7,6.4-2.1,9.1-4.2l10.5,10.5c0.6,0.6,1.4,0.9,2.2,0.9c0.8,0,1.6-0.3,2.2-0.9C70.3,50.2,70.3,48.3,69.1,47.1z M25.5,63.2
	h-6.2V34.9h1.8c0.9,1.4,1.9,2.7,3.2,4c0.4,0.4,0.7,0.7,1.1,1.1V63.2z M32.5,63.2V44.1c2,0.7,4.1,1.2,6.2,1.4v17.8H32.5z M67.7,50
	c-0.2,0.2-0.5,0.3-0.7,0.3s-0.5-0.1-0.7-0.3L55.8,39.6c0.3-0.2,0.5-0.5,0.7-0.7c0.2-0.2,0.5-0.5,0.7-0.7l10.4,10.4
	C68.1,48.9,68.1,49.6,67.7,50z"/>
<path class="st0" d="M44.1,64.6c-0.6,0-1,0.5-1,1v2.3h-41V17.5c0-0.6-0.5-1-1-1c-0.6,0-1,0.5-1,1V69c0,0.6,0.5,1,1,1h43.1
	c0.6,0,1-0.5,1-1v-3.4C45.1,65.1,44.7,64.6,44.1,64.6z"/>
<path class="st0" d="M4.4,42.1v22.2c0,0.6,0.5,1,1,1h8.2c0.6,0,1-0.5,1-1V42.1c0-0.6-0.5-1-1-1H5.5C4.9,41,4.4,41.5,4.4,42.1z
	 M6.5,43.1h6.2v20.1H6.5V43.1z"/>
<path class="st0" d="M14.8,28.7c0.6,0,1-0.5,1-1c0-0.6-0.5-1-1-1H7.1c-0.6,0-1,0.5-1,1c0,0.6,0.5,1,1,1H14.8z"/>
<path class="st0" d="M40.5,4.1c-5,0-9.7,1.9-13.2,5.5c-3.5,3.5-5.5,8.2-5.5,13.2c0,5,1.9,9.7,5.5,13.2c3.5,3.5,8.2,5.5,13.2,5.5
	s9.7-1.9,13.2-5.5c3.5-3.5,5.5-8.2,5.5-13.2c0-5-1.9-9.7-5.5-13.2C50.1,6,45.4,4.1,40.5,4.1z M52.2,34.5c-3.1,3.1-7.3,4.9-11.7,4.9
	c-4.4,0-8.6-1.7-11.7-4.9c-3.1-3.1-4.9-7.3-4.9-11.7c0-4.4,1.7-8.6,4.9-11.7c3.2-3.2,7.5-4.9,11.7-4.9S49,7.8,52.2,11
	c3.1,3.1,4.9,7.3,4.9,11.7C57.1,27.2,55.3,31.4,52.2,34.5z"/>
</svg>
