<svg width="69" height="70" viewBox="0 0 69 70" fill="none" xmlns="http://www.w3.org/2000/svg">
<path d="M68.4426 4.76172C68.2665 4.55267 68.0145 4.42211 67.7422 4.39887L52.5079 3.09772L52.2317 0.902288C52.1606 0.337504 51.644 -0.0628082 51.0805 0.00814872L36.9484 1.78494C36.8927 1.77045 36.8357 1.75951 36.7764 1.75446L17.3519 0.0952385C16.7926 0.0460198 16.2848 0.476136 16.2373 1.03436L15.9477 4.42498L0.901945 6.31662C0.345227 6.38662 -0.0620576 6.91066 0.00780563 7.46779L7.68784 68.5548C7.7227 68.8334 7.66295 69.1011 7.77684 69.3706C7.93653 69.748 8.31661 70 8.72662 70H59.3001C59.8695 70 60.3308 69.5387 60.3308 68.9693V67.6268L62.327 67.7973C62.8863 67.8459 63.3941 67.4167 63.4417 66.8582L68.6812 5.51381C68.7045 5.24133 68.6188 4.9709 68.4426 4.76172ZM7.6959 52.0929L2.1819 8.23328L7.6959 7.54011V52.0929ZM18.2035 2.23694L27.2242 3.00734L18.0392 4.16221L18.2035 2.23694ZM50.3151 2.18211L50.8417 6.37076H16.9969L50.3151 2.18211ZM61.4755 65.6556L60.3308 65.5579V35.4367C60.3308 34.8674 59.8695 34.406 59.3001 34.406C58.7306 34.406 58.2693 34.8673 58.2693 35.4367V67.9384H9.75735V8.4322H58.2695V30.6268C58.2695 31.1963 58.7308 31.6575 59.3002 31.6575C59.8696 31.6575 60.3309 31.1963 60.3309 30.6268V7.40148C60.3309 6.83218 59.8696 6.37076 59.3002 6.37076H52.9194L52.7708 5.1891L66.5396 6.36515L61.4755 65.6556Z" fill="black"/>
<path d="M53.8031 11.8682H48.3059C47.9613 11.8682 47.6394 12.0403 47.4484 12.3271L45.1155 15.8266C42.6044 14.0278 39.53 12.9675 36.2124 12.9675C35.6431 12.9675 35.1816 13.4288 35.1816 13.9982V28.2908C35.1816 28.8601 35.6429 29.3215 36.2124 29.3215H50.5049C51.0744 29.3215 51.5356 28.8602 51.5356 28.2908C51.5356 23.9025 49.6809 19.9399 46.7149 17.1437L48.8577 13.9296H53.8033C54.3726 13.9296 54.834 13.4683 54.834 12.8989C54.834 12.3295 54.3724 11.8682 53.8031 11.8682ZM49.4346 27.2601H37.2431V15.0686C39.7427 15.2617 42.0487 16.1531 43.9705 17.5442L43.0508 18.9238C42.7635 19.3545 42.8477 19.951 43.2445 20.2842C43.7091 20.6743 44.4297 20.5714 44.7659 20.0673L45.553 18.8866C47.7444 21.0634 49.1824 23.998 49.4346 27.2601Z" fill="#FF5555"/>
<path d="M53.8031 45.9502H44.4796L42.8368 43.3218C45.498 40.5642 47.1378 36.8143 47.1378 32.6885C47.1378 32.1191 46.6765 31.6578 46.1071 31.6578H32.8452V18.396C32.8452 17.8267 32.3838 17.3652 31.8145 17.3652C23.3653 17.3652 16.4912 24.2393 16.4912 32.6885C16.4912 41.1377 23.3653 48.0118 31.8145 48.0118C35.386 48.0118 38.6757 46.7835 41.2842 44.7274L43.0342 47.5274C43.2226 47.8287 43.5529 48.0118 43.9082 48.0118H53.8031C54.3724 48.0118 54.8338 47.5505 54.8338 46.9811C54.8338 46.4116 54.3724 45.9502 53.8031 45.9502ZM39.2854 37.6394C38.9838 37.1563 38.3476 37.0098 37.865 37.3115C37.3822 37.6131 37.2354 38.2491 37.5371 38.7319L40.1845 42.9677C37.9001 44.8313 34.9857 45.9505 31.8146 45.9505C24.5021 45.9505 18.5528 40.0012 18.5528 32.6887C18.5528 25.7228 23.9511 19.9942 30.7839 19.4665V32.6887C30.7839 33.258 31.2453 33.7194 31.8146 33.7194H45.0368C44.8066 36.7 43.5865 39.4074 41.7061 41.5129L39.2854 37.6394Z" fill="#FF5555"/>
<path d="M23.019 51.4473H14.2236C13.6544 51.4473 13.1929 51.9086 13.1929 52.478C13.1929 53.0474 13.6543 53.5087 14.2236 53.5087H23.019C23.5883 53.5087 24.0497 53.0474 24.0497 52.478C24.0497 51.9086 23.5883 51.4473 23.019 51.4473Z" fill="black"/>
<path d="M36.2123 51.4473H27.417C26.8477 51.4473 26.3862 51.9086 26.3862 52.478C26.3862 53.0474 26.8477 53.5087 27.417 53.5087H36.2123C36.7816 53.5087 37.2431 53.0474 37.2431 52.478C37.2431 51.9086 36.7816 51.4473 36.2123 51.4473Z" fill="black"/>
<path d="M28.5162 56.9443H14.2236C13.6544 56.9443 13.1929 57.4056 13.1929 57.9751C13.1929 58.5445 13.6543 59.0058 14.2236 59.0058H28.5162C29.0855 59.0058 29.5469 58.5445 29.5469 57.9751C29.5469 57.4056 29.0853 56.9443 28.5162 56.9443Z" fill="black"/>
<path d="M36.2124 56.9443H32.914C32.3449 56.9443 31.8833 57.4056 31.8833 57.9751C31.8833 58.5445 32.3447 59.0058 32.914 59.0058H36.2124C36.7817 59.0058 37.2431 58.5445 37.2431 57.9751C37.2429 57.4056 36.7817 56.9443 36.2124 56.9443Z" fill="black"/>
<path d="M18.6213 62.4414H14.2236C13.6544 62.4414 13.1929 62.9027 13.1929 63.4721C13.1929 64.0416 13.6543 64.5028 14.2236 64.5028H18.6213C19.1906 64.5028 19.652 64.0416 19.652 63.4721C19.652 62.9027 19.1906 62.4414 18.6213 62.4414Z" fill="black"/>
<path d="M36.2123 62.4414H23.0192C22.4501 62.4414 21.9885 62.9027 21.9885 63.4721C21.9885 64.0416 22.4499 64.5028 23.0192 64.5028H36.2123C36.7816 64.5028 37.243 64.0416 37.243 63.4721C37.243 62.9027 36.7816 62.4414 36.2123 62.4414Z" fill="black"/>
</svg>
