<svg width="70" height="71" viewBox="0 0 70 71" fill="none" xmlns="http://www.w3.org/2000/svg">
<path d="M28.0692 58.0336C26.9901 52.8873 23.9881 48.4328 19.6304 45.5L14.7885 42.249C14.0553 41.7648 13.2115 41.502 12.3261 41.502C11.1364 41.502 9.97431 41.9862 9.14427 42.83L8.43874 43.5494V42.5395V25.8557C8.43874 23.8636 7.083 22.1759 5.13241 21.7332C4.82806 21.664 4.52372 21.6364 4.20553 21.6364C3.25099 21.6364 2.32411 21.9684 1.57708 22.5632C0.581028 23.3794 0 24.5692 0 25.8557V47.3122C0 50.0375 0.83004 52.6522 2.40711 54.8656L4.86957 58.3379C5.04941 58.5869 5.33992 58.7391 5.6581 58.7391C5.86561 58.7391 6.05929 58.6838 6.21146 58.5593C6.41897 58.4071 6.55731 58.1858 6.59881 57.9367C6.64032 57.6877 6.58498 57.4249 6.43281 57.2174L3.97036 53.745C2.64229 51.8498 1.93676 49.6364 1.93676 47.3122V25.8557C1.93676 25.164 2.24111 24.5138 2.79447 24.0711C3.19565 23.753 3.70751 23.5731 4.21937 23.5731C4.38538 23.5731 4.55138 23.5869 4.71739 23.6284C5.76877 23.8636 6.50198 24.7767 6.50198 25.8557V42.8715C6.50198 45.168 7.34585 47.3814 8.89526 49.083L8.90909 49.0968C8.97826 49.1798 9.04743 49.2628 9.10277 49.3182C10.0158 50.2866 11.1087 51.4348 12.1186 52.5138L13.5296 54.0217L13.5435 54.0356C14.4704 55.0178 15.2036 55.8063 15.5217 56.1383L15.5356 56.1522L15.6877 56.3043C15.8676 56.498 16.1304 56.6087 16.3933 56.6087C16.6423 56.6087 16.8775 56.5118 17.0573 56.3458C17.251 56.166 17.3478 55.9308 17.3617 55.668C17.3755 55.4051 17.2787 55.1699 17.0988 54.9763C17.0711 54.9486 15.4526 53.2194 13.5988 51.2549L10.4308 47.8794C10.417 47.8656 10.417 47.8656 10.4032 47.8518L10.3893 47.8379V47.8241C9.50395 46.7727 9.53162 45.251 10.4447 44.2273C10.915 43.6877 11.6067 43.3834 12.3123 43.3834C12.8103 43.3834 13.2945 43.5356 13.7095 43.8122L18.5514 47.0632C22.4941 49.7194 25.2055 53.7312 26.1739 58.3794L28.4427 69.1838C28.5395 69.6265 28.9407 69.9585 29.3834 69.9585C29.4526 69.9585 29.5217 69.9447 29.5771 69.9308C29.8261 69.8755 30.0474 69.7233 30.1858 69.5158C30.3241 69.2945 30.3794 69.0454 30.3241 68.7826L28.0692 58.0336Z" fill="black"/>
<path d="M12.3539 65.5316C12.1741 65.2826 11.8836 65.1304 11.5654 65.1304C11.3579 65.1304 11.1642 65.1858 11.012 65.3103C10.8045 65.4625 10.6662 65.6838 10.6247 65.9328C10.5832 66.1818 10.6385 66.4447 10.7907 66.6522L12.8658 69.5988C13.0456 69.8478 13.3361 70 13.6543 70C13.8618 70 14.0555 69.9447 14.2077 69.8202C14.4152 69.668 14.5535 69.4466 14.595 69.1976C14.6365 68.9486 14.5812 68.6858 14.429 68.4783L12.3539 65.5316Z" fill="black"/>
<path d="M68.4227 22.5771C67.6757 21.9822 66.735 21.6502 65.7943 21.6502C65.4899 21.6502 65.1717 21.6779 64.8674 21.747C62.9168 22.1759 61.5611 23.8775 61.5611 25.8696V42.5395V43.5494L60.8555 42.83C60.0255 41.9862 58.8773 41.502 57.6737 41.502C56.7884 41.502 55.9306 41.7648 55.2113 42.249L50.3694 45.5C46.0117 48.4328 43.0097 52.8874 41.9307 58.0336L39.6619 68.838C39.5512 69.3636 39.8832 69.8755 40.4089 69.9862C40.4781 70 40.5473 70.0138 40.6026 70.0138C41.0591 70.0138 41.4603 69.6957 41.5433 69.2391L43.8121 58.4348C44.7943 53.7866 47.4919 49.7609 51.4346 47.1186L56.2765 43.8676C56.6915 43.5909 57.1757 43.4387 57.6737 43.4387C58.3931 43.4387 59.071 43.7431 59.5413 44.2826C60.4544 45.3063 60.482 46.8281 59.5966 47.8795L59.5828 47.8933L59.569 47.9071L59.5551 47.9348C59.2508 48.2668 52.9148 55.004 52.8872 55.0316C52.5275 55.419 52.5413 56.0277 52.9287 56.4012C53.1085 56.5672 53.3437 56.664 53.5927 56.664C53.8694 56.664 54.1184 56.5534 54.2982 56.3597L54.6026 56.0415C58.2548 52.168 60.3714 49.913 60.897 49.3597C60.9524 49.2905 61.0216 49.2214 61.0907 49.1383V49.1245C62.6263 47.4091 63.484 45.2095 63.484 42.9131V25.8972C63.484 24.8182 64.2172 23.9051 65.2686 23.67C65.4346 23.6285 65.6006 23.6146 65.7666 23.6146C66.2785 23.6146 66.7903 23.7945 67.1915 24.1127C67.731 24.5415 68.0492 25.1917 68.0492 25.8972V47.3123C68.0492 49.6364 67.3437 51.8636 66.0018 53.7451L55.5433 68.4644C55.3911 68.6719 55.3358 68.9348 55.3773 69.1838C55.4188 69.4328 55.5571 69.668 55.7646 69.8063C55.9306 69.917 56.1243 69.9862 56.318 69.9862C56.6362 69.9862 56.9267 69.834 57.1065 69.585L67.565 54.8656C69.1698 52.6522 69.9998 50.0376 69.9998 47.3123V25.8557C69.9998 24.5692 69.4188 23.3795 68.4227 22.5771Z" fill="black"/>
<path d="M48.3911 42.8439C48.9306 42.8439 49.3595 42.415 49.3595 41.8755V36.9091C49.3595 36.7708 49.3595 36.6048 49.3456 36.4249L49.318 35.9822H49.7607H56.1381C56.6776 35.9822 57.1065 35.5534 57.1065 35.0139V32.4269C57.1065 29.6048 55.1836 27.17 52.4306 26.506L49.9682 25.9111L49.65 25.8281V25.4961V25.0534V24.832L49.8298 24.7075C51.3792 23.6285 52.3061 21.8577 52.3061 19.9763V16.7807C52.3061 13.5988 49.7192 10.998 46.5235 10.998C45.1539 10.998 43.8259 11.4961 42.7745 12.3814L42.3318 12.755L42.1105 12.2293C40.9207 9.32413 38.1401 7.45654 35.0136 7.45654C33.4642 7.45654 31.9701 7.9269 30.6836 8.79844C29.4385 9.65615 28.4701 10.8459 27.9029 12.2431L27.6816 12.7826L27.2389 12.4091C26.1875 11.5099 24.8595 11.0119 23.4761 11.0119C20.2943 11.0119 17.6935 13.5988 17.6935 16.7945V17.002V19.9901C17.6935 21.8716 18.6203 23.6423 20.1697 24.7214L20.3496 24.8459V25.0672V25.5099V25.8419L20.0314 25.9249L17.569 26.5198C14.816 27.1838 12.8931 29.6048 12.8931 32.4407V35C12.8931 35.5395 13.3219 35.9684 13.8614 35.9684H20.2251H20.6678L20.6401 36.4111C20.6263 36.5909 20.6263 36.7431 20.6263 36.8953V41.8755C20.6263 42.415 21.0551 42.8439 21.5946 42.8439H29.9089C30.4484 42.8439 30.8773 42.415 30.8773 41.8755C30.8773 41.336 30.4484 40.9071 29.9089 40.9071H28.4978H28.0828V40.4921V37.6285C28.0828 37.089 27.6539 36.6601 27.1144 36.6601C26.5749 36.6601 26.146 37.089 26.146 37.6285V40.4921V40.9071H25.731H22.9919H22.5769V40.4921V36.8953C22.5769 34.0316 24.5136 31.5692 27.3081 30.9052L31.0986 29.9921L31.4306 29.9091L31.569 30.2273L34.1144 36.0099C34.2666 36.3558 34.6124 36.5909 34.9998 36.5909C35.3871 36.5909 35.733 36.3696 35.8852 36.0099L38.4168 30.2411L38.5551 29.9229L38.8871 30.006L42.6777 30.9052C45.4583 31.5692 47.4089 34.0316 47.4089 36.8953V40.4783V40.8933H46.9939H44.2686H43.8535V40.4783V37.6285C43.8535 37.089 43.4247 36.6601 42.8852 36.6601C42.3456 36.6601 41.9168 37.089 41.9168 37.6285V40.4921V40.9071H41.5018H39.9385C39.399 40.9071 38.9701 41.336 38.9701 41.8755C38.9701 42.415 39.399 42.8439 39.9385 42.8439H48.3911ZM42.6085 19.7826H42.6777V19.7135V19.6996C42.6777 19.6581 42.6777 19.6305 42.6777 19.589V18.3577V17.7352L43.2448 17.9704C44.7666 18.5929 46.3575 18.9111 48.0037 18.9111H49.9405H50.3555V19.3261V19.9901C50.3555 22.1067 48.6263 23.836 46.5097 23.836C44.3931 23.836 42.6638 22.1067 42.6638 19.9901V19.7826H42.6085ZM50.3832 16.9882H49.9405H48.0176C46.3437 16.9882 44.6697 16.587 43.1895 15.8123L42.8437 15.6324L42.9958 15.2727C43.6045 13.8617 44.9879 12.9486 46.5235 12.9486C48.5433 12.9486 50.2172 14.5257 50.3555 16.5316L50.3832 16.9882ZM42.4425 28.0554L44.5176 27.5573H44.5314H44.5452C44.6697 27.5297 44.7804 27.4882 44.8911 27.419C45.1678 27.2392 45.3338 26.9348 45.3338 26.6028V26.589V26.5751V26.1463V25.6759L45.8041 25.7312C46.0531 25.7589 46.2883 25.7727 46.5235 25.7727C46.7587 25.7727 46.9939 25.7589 47.2429 25.7312L47.7132 25.6759V26.1463V26.6166C47.7132 27.0731 48.0176 27.4605 48.4603 27.5573L51.9879 28.4012C53.8693 28.8439 55.1697 30.504 55.1697 32.4407V33.6443V34.0593H54.7547H49.1243H48.8476L48.7369 33.8103C47.7547 31.4309 45.652 29.6601 43.1342 29.0514L42.4425 28.8854L40.7547 28.4842L42.4425 28.0554ZM38.9701 26.4783V26.3814V26.1601L39.1638 26.0356C40.063 25.4546 40.8516 24.666 41.4464 23.7668L41.7508 23.2965L42.1105 23.7253C42.4286 24.1127 42.8022 24.4447 43.2172 24.7352L43.397 24.8597V25.081V25.5099V25.8419L43.0788 25.9249L40.6026 26.5198C40.2429 26.6028 39.897 26.7273 39.5512 26.8795L38.9701 27.1423V26.4783ZM40.0492 14.6502L37.7251 13.2807C37.5729 13.1976 37.4069 13.1423 37.2409 13.1423C36.9504 13.1423 36.6875 13.2668 36.4939 13.4882C35.2765 14.9407 33.4919 15.7708 31.5966 15.7708H29.7014H29.2863V15.3558V15.1206C29.2863 11.9664 31.8595 9.3933 35.0136 9.3933C37.8496 9.3933 40.229 11.4131 40.6717 14.2075L40.8101 15.0791L40.0492 14.6502ZM37.1994 15.5494L37.4207 15.3419L37.6836 15.4941L40.5334 17.168L40.7409 17.2925V17.5277V19.7826V19.7965C40.6302 22.8814 38.1124 25.3024 35.0136 25.3024C33.4919 25.3024 32.0531 24.7075 30.9603 23.6285C29.8812 22.5494 29.2863 21.1107 29.2863 19.5751V18.1087V17.6937H29.7014H31.5966C33.6717 17.7214 35.6638 16.9467 37.1994 15.5494ZM26.8377 15.8123C25.3575 16.587 23.6836 16.9882 22.0097 16.9882H20.0867H19.6441L19.6717 16.5455C19.8101 14.5395 21.484 12.9625 23.5037 12.9625C25.0393 12.9625 26.4227 13.8755 27.0314 15.2866L27.1836 15.6463L26.8377 15.8123ZM31.0294 26.1324V26.3538V26.4644V27.1008L30.4484 26.838C30.1164 26.6858 29.7705 26.5751 29.4109 26.4921L26.9346 25.8973L26.6164 25.8143V25.4822V25.0534V24.832L26.7962 24.7075C27.2112 24.417 27.5848 24.0712 27.9168 23.6838L28.2765 23.255L28.5808 23.7253C29.1618 24.6245 29.9504 25.3992 30.8358 25.9941L31.0294 26.1324ZM19.6579 19.3399V18.9249H20.0729H22.0097C23.6559 18.9249 25.2468 18.6067 26.7686 17.9704L27.3358 17.7352V18.3577V19.9901C27.3358 22.1067 25.6065 23.836 23.4899 23.836C21.3733 23.836 19.6441 22.1067 19.6441 19.9901V19.3399H19.6579ZM21.567 27.5435C22.0097 27.4328 22.314 27.0455 22.314 26.6028V26.1324V25.6621L22.7844 25.7174C23.0334 25.7451 23.2686 25.7589 23.5037 25.7589C23.7389 25.7589 23.9741 25.7451 24.2231 25.7174L24.6935 25.6621V26.1324V26.5336V26.5475C24.6935 26.5613 24.6935 26.5751 24.6935 26.589C24.6935 26.921 24.8595 27.2253 25.1361 27.4052C25.2468 27.4743 25.3575 27.5158 25.482 27.5435H25.4958L27.5571 28.0415L29.2448 28.4427L27.5571 28.8439L26.8516 29.0099C24.3338 29.6186 22.2448 31.3894 21.2626 33.7688L21.152 34.0316H20.8753H15.2725H14.8575V33.6166V32.4131C14.8575 30.4901 16.1717 28.8301 18.0393 28.3735L21.567 27.5435ZM32.9662 28.498V27.5158V27.004L33.4642 27.1008C33.9761 27.2115 34.4879 27.253 35.0136 27.253C35.5255 27.253 36.0373 27.1976 36.5354 27.1008L37.0334 27.004V27.5158V28.5119V28.5949L36.9919 28.6779L35.3733 32.3577L34.9998 33.2154L34.6263 32.3577L33.0077 28.6641L32.9662 28.5811V28.498V28.498Z" fill="#FF5555"/>
<path d="M35.0001 40.9071C34.7511 40.9071 34.4883 41.0039 34.3223 41.1838C34.1424 41.3636 34.0317 41.6126 34.0317 41.8755C34.0317 42.1245 34.1286 42.3735 34.3223 42.5533C34.5159 42.7332 34.7511 42.8439 35.0001 42.8439C35.2491 42.8439 35.4981 42.747 35.6918 42.5533C35.8717 42.3735 35.9685 42.1245 35.9685 41.8755C35.9685 41.6265 35.8717 41.3775 35.678 41.1838C35.4981 41.0039 35.2491 40.9071 35.0001 40.9071Z" fill="#FF5555"/>
<path d="M35.0001 4.01186C35.5396 4.01186 35.9685 3.583 35.9685 3.04348V0.96838C35.9685 0.705534 35.8717 0.470356 35.678 0.290514C35.4981 0.0968379 35.263 0 35.0001 0C34.4606 0 34.0317 0.428854 34.0317 0.96838V3.04348C34.0317 3.56917 34.4606 4.01186 35.0001 4.01186Z" fill="#FF5555"/>
<path d="M28.2351 5.75492C28.415 5.93476 28.664 6.0316 28.913 6.0316C29.1758 6.0316 29.411 5.93476 29.6047 5.74109C29.9782 5.36757 29.9782 4.74504 29.6047 4.37152L28.1521 2.91895C27.9723 2.73911 27.7233 2.64227 27.4742 2.64227C27.2114 2.64227 26.9762 2.73911 26.7825 2.93279C26.6027 3.11263 26.5059 3.36164 26.5059 3.62449C26.5059 3.88733 26.6027 4.12251 26.7964 4.30235L28.2351 5.75492Z" fill="#FF5555"/>
<path d="M8.75134 63.3441C8.90095 63.5498 9.13183 63.6843 9.3778 63.7231C9.63743 63.764 9.88483 63.705 10.1063 63.5439C10.5335 63.2332 10.6305 62.6182 10.3198 62.1911L9.11133 60.5299C8.96171 60.3242 8.73084 60.1897 8.48487 60.1509C8.22523 60.11 7.97784 60.169 7.75634 60.3301C7.55067 60.4797 7.41621 60.7106 7.37524 60.9702C7.33428 61.2298 7.39328 61.4772 7.55656 61.6851L8.75134 63.3441Z" fill="black"/>
<path d="M41.0455 6.07313C41.3084 6.07313 41.5436 5.97629 41.7372 5.78261L43.176 4.34388C43.3558 4.16403 43.4526 3.91502 43.4526 3.65218C43.4526 3.38933 43.3558 3.15415 43.1621 2.97431C42.9823 2.79447 42.7333 2.69763 42.4843 2.69763C42.2214 2.69763 41.9862 2.79447 41.7926 2.98815L40.3538 4.42688C40.174 4.60672 40.0771 4.85573 40.0771 5.11858C40.0771 5.38143 40.174 5.6166 40.3677 5.79645C40.5475 5.97629 40.7965 6.07313 41.0455 6.07313Z" fill="#FF5555"/>
</svg>
