<?xml version="1.0" encoding="utf-8"?>
<!-- Generator: Adobe Illustrator 23.0.1, SVG Export Plug-In . SVG Version: 6.00 Build 0)  -->
<svg version="1.1" id="Слой_1" xmlns="http://www.w3.org/2000/svg" xmlns:xlink="http://www.w3.org/1999/xlink" x="0px" y="0px"
	 viewBox="0 0 70 70" style="enable-background:new 0 0 70 70;" xml:space="preserve">
<path d="M62.8,54.1h6.1c0.6,0,1-0.5,1-1V40.3c0-0.2-0.1-0.4-0.2-0.5L59.2,23.4c-0.2-0.3-0.5-0.5-0.9-0.5H46.5v-7.1c0-0.6-0.5-1-1-1
	H1.2c-0.6,0-1,0.5-1,1v37.3c0,0.6,0.5,1,1,1h8.4l0,0.1c0.6,3.3,3.4,5.7,6.7,5.7s6.2-2.4,6.7-5.7l0-0.1h26.1l0,0.1
	c0.6,3.3,3.4,5.7,6.7,5.7s6.2-2.4,6.7-5.7L62.8,54.1z M16.3,57.9c-2.7,0-4.8-2.2-4.8-4.8c0-2.7,2.2-4.8,4.8-4.8s4.8,2.2,4.8,4.8
	C21.1,55.7,19,57.9,16.3,57.9z M44.5,19.4H4.8v2h39.7v26H24.6v2h19.8v2.6H23.1l0-0.1c-0.6-3.3-3.4-5.7-6.7-5.7s-6.2,2.4-6.7,5.7
	l0,0.1H2.2v-2.6H8v-2H2.2V16.8h42.3V19.4z M60.5,29.2l5.7,8.9h-15v-8.5h9.3V29.2z M49.2,52.1h-2.7V24.9h11.3l1.7,2.6h-9.3
	c-0.6,0-1,0.5-1,1v10.5c0,0.6,0.5,1,1,1h17.4l0.3,0.4v6.9h-3.5v2h3.5v2.6h-5l0-0.1c-0.6-3.3-3.4-5.7-6.7-5.7s-6.2,2.4-6.7,5.7
	L49.2,52.1z M56,57.9c-2.7,0-4.8-2.2-4.8-4.8c0-2.7,2.2-4.8,4.8-4.8s4.8,2.2,4.8,4.8C60.8,55.7,58.7,57.9,56,57.9z"/>
<rect x="15.3" y="52.1" width="2" height="2"/>
<rect x="55" y="52.1" width="2" height="2"/>
<rect x="4.8" y="10.1" width="16" height="2"/>
<rect x="0.1" y="10.1" width="2" height="2"/>
</svg>
