<svg width="63" height="70" viewBox="0 0 63 70" fill="none" xmlns="http://www.w3.org/2000/svg">
<path d="M5.93197 39.1504C5.2768 39.1504 4.74561 39.6816 4.74561 40.3368V45.0822C4.74561 45.7374 5.2768 46.2686 5.93197 46.2686C6.58715 46.2686 7.11834 45.7374 7.11834 45.0822V40.3368C7.11834 39.6816 6.58715 39.1504 5.93197 39.1504Z" fill="black"/>
<path d="M10.6773 41.5234C10.0222 41.5234 9.49097 42.0546 9.49097 42.7098V47.4553C9.49097 48.1105 10.0222 48.6417 10.6773 48.6417C11.3325 48.6417 11.8637 48.1105 11.8637 47.4553V42.7098C11.8637 42.0546 11.3325 41.5234 10.6773 41.5234Z" fill="black"/>
<path d="M53.9489 47.8903C53.3959 47.5389 52.6627 47.7024 52.3112 48.2554C51.974 48.7862 52.1094 49.4879 52.6201 49.8549C55.8812 52.0506 56.7447 56.4741 54.5492 59.735C52.3535 62.9961 47.93 63.8597 44.6691 61.6641C41.408 59.4684 40.5444 55.0449 42.74 51.784C44.0621 49.8204 46.2739 48.6425 48.641 48.6413C49.2962 48.6413 49.8274 48.1101 49.8274 47.4549C49.8274 46.7998 49.2962 46.2686 48.641 46.2686C43.3994 46.2696 39.1508 50.5196 39.1519 55.7613C39.1529 61.003 43.4029 65.2515 48.6446 65.2505C53.8863 65.2494 58.1348 60.9994 58.1338 55.7577C58.1332 52.6027 56.5648 49.6542 53.9489 47.8903Z" fill="#0071B3"/>
<path d="M62.3187 51.8191C61.1692 47.8372 58.3409 44.5542 54.573 42.8282V16.6094C54.5732 16.1899 54.3516 15.8015 53.9905 15.588L27.8904 0.165165C27.5178 -0.055055 27.055 -0.055055 26.6826 0.165165L0.582507 15.588C0.557594 15.6022 0.539798 15.6236 0.516071 15.6402C0.492343 15.6568 0.469802 15.6758 0.446075 15.6947C0.343009 15.7759 0.254476 15.8737 0.183887 15.9842C0.183887 15.9925 0.169651 15.9973 0.164905 16.0056V16.0139C0.0980238 16.1344 0.0526453 16.2657 0.0308457 16.4018C0.0308457 16.4374 0.0201683 16.4706 0.0166092 16.5062C0.0130501 16.5418 7.43992e-08 16.5738 7.43992e-08 16.6094V47.455C-0.000148222 47.8746 0.221406 48.263 0.582507 48.4765L26.6826 63.8993C26.7139 63.9144 26.746 63.9279 26.7787 63.9397C26.8111 63.9558 26.8444 63.9701 26.8784 63.9824C27.1395 64.0915 27.4335 64.0915 27.6946 63.9824C27.729 63.9701 27.7627 63.9558 27.7955 63.9397C27.8263 63.9254 27.8595 63.9171 27.8904 63.8993L34.9742 59.7126C37.154 67.2636 45.0422 71.6178 52.5933 69.438C60.1442 67.2584 64.4985 59.3701 62.3187 51.8191ZM27.2865 2.564L33.4556 6.20972L24.3087 11.6148C23.7443 11.9483 23.557 12.6763 23.8905 13.2407C24.224 13.8052 24.952 13.9925 25.5164 13.6589L35.7892 7.59303L41.9583 11.2387L18.1906 25.2794L12.0215 21.6337L21.9597 15.7612C22.5241 15.4277 22.7114 14.6997 22.3779 14.1353C22.0444 13.5708 21.3164 13.3835 20.752 13.7171L9.68908 20.2551L3.51877 16.6094L27.2865 2.564ZM17.0042 27.3354V35.2568L10.8755 31.6348V23.7134L17.0042 27.3354ZM34.8735 52.0923C34.5579 53.289 34.4003 54.522 34.4047 55.7596C34.405 56.2561 34.4311 56.7523 34.483 57.2462L28.4729 60.7993V56.946C28.4729 56.2908 27.9417 55.7596 27.2865 55.7596C26.6313 55.7596 26.1001 56.2908 26.1001 56.946V60.7993L2.37274 46.7788V18.6891L8.50271 22.3111V32.311C8.50227 32.731 8.72367 33.12 9.08522 33.3337L17.5867 38.358C17.7697 38.4656 17.9782 38.5226 18.1906 38.5229C18.8458 38.5229 19.377 37.9917 19.377 37.3365V28.7365L26.1001 32.7097V52.2005C26.1001 52.8557 26.6313 53.3869 27.2865 53.3869C27.9417 53.3869 28.4729 52.8557 28.4729 52.2005V32.7097L49.9746 20.0036C50.5388 19.6701 50.7258 18.9424 50.3922 18.3783C50.0587 17.8142 49.331 17.6272 48.7669 17.9607L27.2865 30.6549L20.5242 26.658L44.2919 12.6126L52.2003 17.2857V41.9977C44.6281 40.0006 36.8706 44.52 34.8735 52.0923ZM48.6412 67.6233C42.089 67.6233 36.7775 62.3118 36.7775 55.7596C36.7775 49.2075 42.089 43.8959 48.6412 43.8959C55.1933 43.8959 60.5049 49.2075 60.5049 55.7596C60.4977 62.3088 55.1904 67.6161 48.6412 67.6233Z" fill="black"/>
<path d="M53.0099 52.548C52.5502 52.1038 51.8212 52.1038 51.3615 52.548L46.8616 57.0479L45.9208 56.1071C45.4495 55.6518 44.6985 55.6648 44.2433 56.1361C43.7991 56.5958 43.7991 57.3249 44.2433 57.7846L46.0228 59.5641C46.4861 60.0273 47.2371 60.0273 47.7003 59.5641L53.039 54.2255C53.4943 53.7542 53.4812 53.0031 53.0099 52.548Z" fill="#0071B3"/>
</svg>
