<svg xmlns="http://www.w3.org/2000/svg" viewBox="0 0 135 40"><defs><style>.cls-1{fill:#fff;opacity:0;}.cls-2{fill:#2678bd;}</style></defs><title>Ресурс 1</title><g id="Слой_2" data-name="Слой 2"><g id="nectarin_l.svg" data-name="nectarin l.svg"><rect id="Прямоугольник_1_копия" data-name="Прямоугольник 1 копия" class="cls-1" width="135" height="40"/><g id="g10"><g id="g3981"><path id="path120" class="cls-2" d="M116.53,22.78h0v7.4h4.15v-7.3c0-2.76,1.07-3.68,3-3.68h1.46V15.52h-1.8c-4.34,0-6.78,2.67-6.78,7.26Z"/><path id="path130" class="cls-2" d="M58,22.78h0v7.4H62.1v-7.3c0-2.76,1.08-3.68,3-3.68h1.46V15.52h-1.8c-4.34,0-6.78,2.67-6.78,7.26Z"/><path id="path140" class="cls-2" d="M126.73,14.41h0a4.19,4.19,0,0,1,1.75-3.58,6.89,6.89,0,0,1,3.67-.68h1.61V13.4h-.93c-.64,0-1.27,0-1.62.67-.24.34-.24.54-.24,1.16v.49h2.79v3.34H131v8.42s-.09,2.7-2.39,2.7h-1.85s0-15.33,0-15.77Z"/><path id="path150" class="cls-2" d="M8.32,26.41h0c.58,0,1.17.05,1.76,0a2.69,2.69,0,0,0,2.29-.92,2.38,2.38,0,0,0,.49-1.55,2.23,2.23,0,0,0-1.81-2.32,14.55,14.55,0,0,0-2.39-.1H5.73v4.31s0,.58.59.58Zm-.15-8.47h0a9.34,9.34,0,0,0,3.22-.24,1.91,1.91,0,0,0,1.08-1.84,1.68,1.68,0,0,0-1.17-1.69,7.43,7.43,0,0,0-2.64-.24H5.73v4ZM8,10.15H8c1.07,0,2.19,0,3.27,0a7.11,7.11,0,0,1,4.54,1.94A4.44,4.44,0,0,1,17,15.23,4.31,4.31,0,0,1,15.05,19a2.92,2.92,0,0,1-1,.48,5.35,5.35,0,0,1,1.32.78,4.73,4.73,0,0,1,2.09,4.16,6,6,0,0,1-1,3.29c-1.9,2.71-5.32,2.51-6.15,2.51H4.12a2.89,2.89,0,0,1-2.88-2.85V10.15Z"/><path id="path160" class="cls-2" d="M35.16,15.67h4.25V30.18H35.16Z"/><path id="path170" class="cls-2" d="M86.66,23h0a4.65,4.65,0,0,0,1.12,3.43,2.42,2.42,0,0,0,2,.87,2.8,2.8,0,0,0,1.66-.48c.88-.63,1.46-1.79,1.46-4,0-.34.1-2.42-1.22-3.53a2.74,2.74,0,0,0-1.8-.63C88.32,18.72,86.66,19.78,86.66,23ZM97.1,10.15h0v20H92.9a13.7,13.7,0,0,1,.1-1.69,3.33,3.33,0,0,1-.92,1.21,5.06,5.06,0,0,1-3.18,1,6.39,6.39,0,0,1-2.73-.53c-1.66-.83-3.76-2.86-3.76-7.07A10.44,10.44,0,0,1,83,19.78a6.25,6.25,0,0,1,6-4.55,5.44,5.44,0,0,1,3.22,1,3.93,3.93,0,0,1,.54.68V12.77a2.56,2.56,0,0,1,2.73-2.62Z"/><path id="path180" class="cls-2" d="M29.06,21.19h0a1.87,1.87,0,0,0-.1-.63,2.72,2.72,0,0,0-2.78-2.08,3.05,3.05,0,0,0-2.93,2c-.09.29-.14.63-.19.72l6,0Zm-5.95,3h0a3.26,3.26,0,0,0,3.27,3.19A2.87,2.87,0,0,0,29,26h4.35a7.11,7.11,0,0,1-7.13,4.75,9.06,9.06,0,0,1-2.78-.49,7.27,7.27,0,0,1-4.64-7.16,8.84,8.84,0,0,1,1.66-5.27,7,7,0,0,1,5.81-2.66,8.13,8.13,0,0,1,3,.58c1.46.63,3.32,2.08,4,5.56a15.46,15.46,0,0,1,.24,2.37,2,2,0,0,1,0,.49Z"/><path id="path190" class="cls-2" d="M51.81,21.19h0a1.87,1.87,0,0,0-.1-.63,2.73,2.73,0,0,0-2.78-2.08,3,3,0,0,0-2.93,2,4.14,4.14,0,0,0-.2.72l6,0Zm-6,3h0A4,4,0,0,0,46.39,26a3.12,3.12,0,0,0,2.68,1.4A2.81,2.81,0,0,0,51.66,26H56a7,7,0,0,1-7.07,4.75,8.68,8.68,0,0,1-2.78-.49,7.24,7.24,0,0,1-4.69-7.16,8.64,8.64,0,0,1,1.71-5.27,7,7,0,0,1,5.76-2.66,7.82,7.82,0,0,1,3,.58c1.47.63,3.37,2.08,4,5.56a16.88,16.88,0,0,1,.24,2.37,1.63,1.63,0,0,1-.05.49Z"/><path id="path200" class="cls-2" d="M76.7,20h0a2,2,0,0,0-.29-.72,2.49,2.49,0,0,0-2.3-1c-.39,0-.68,0-.78,0-.93.24-1.27.82-1.27,1.26a.87.87,0,0,0,.59.77,9.12,9.12,0,0,0,1.65.49l1.57.29,1.37.29c1.46.38,2.68.82,3.36,2.27A5.55,5.55,0,0,1,81,25.59a4.68,4.68,0,0,1-.88,2.8c-.82,1.26-2.44,2.28-5.66,2.28s-4.78-1-5.71-2.08a5.48,5.48,0,0,1-1.17-3.1h4.05A2.14,2.14,0,0,0,72,26.56a3.1,3.1,0,0,0,2.59,1,3.84,3.84,0,0,0,.88-.09c.15-.05,1.32-.34,1.32-1.36s-.93-1.16-2.49-1.5c-2.73-.63-4.1-.92-5.13-1.84A3.65,3.65,0,0,1,68,20a4.84,4.84,0,0,1,.73-2.51c.84-1.21,2.34-2.28,5.42-2.28.68,0,3.71,0,5.47,2.08a4.14,4.14,0,0,1,1,2.71Z"/><path id="path210" class="cls-2" d="M103.39,23h0c0,3.29,1.86,4.3,3.47,4.3a4.07,4.07,0,0,0,1.56-.34c1-.53,1.91-1.69,1.91-4.11a6.27,6.27,0,0,0-.29-2,3.11,3.11,0,0,0-3.18-2.28c-1.61.05-3.47,1-3.47,4.41ZM112,16.93h0a7.75,7.75,0,0,1,2.58,5.95,7.6,7.6,0,0,1-5,7.4,8.86,8.86,0,0,1-2.82.39,9.06,9.06,0,0,1-3.13-.49A7.39,7.39,0,0,1,99.1,23a8.32,8.32,0,0,1,2-5.47A8,8,0,0,1,107,15.23a8.42,8.42,0,0,1,5.08,1.7Z"/><path id="path220" class="cls-2" d="M39.75,11.51h0a2.47,2.47,0,0,1-4.93,0,2.47,2.47,0,0,1,4.93,0Z"/></g></g></g></g></svg>