<svg id="boxfwd_l.svg" xmlns="http://www.w3.org/2000/svg" width="127" height="40" viewBox="0 0 127 40">
  <defs>
    <style>
      .cls-1 {
        fill: #fff;
        fill-opacity: 0;
      }

      .cls-2 {
        fill: #2678bd;
        fill-rule: evenodd;
      }
    </style>
  </defs>
  <rect id="Прямоугольник_1_копия_4" data-name="Прямоугольник 1 копия 4" class="cls-1" width="127" height="40"/>
  <path id="Фигура_5" data-name="Фигура 5" class="cls-2" d="M748.985,62.787l2.406-1.261v-11.3l-2.406-1.261V62.787Zm3.723,1.6,2.406-1.261V48.784l-2.406-1.261v16.86Zm3.824,1.6,4.635-2.42,4.812-2.523V58.282c-2.355,1.261-4.685,2.471-7.041,3.707V50.02l7.041,3.681V50.946l-4.812-2.523L756.532,46V65.978ZM772.715,51.1a1.509,1.509,0,0,1,1.14.438,1.686,1.686,0,0,1,.4,1.184,1.791,1.791,0,0,1-.4,1.21,1.435,1.435,0,0,1-1.114.438h-1.5a0.089,0.089,0,0,1-.1-0.077V51.2a0.11,0.11,0,0,1,.1-0.1h1.469Zm-1.494,5.277h1.925a2.4,2.4,0,0,1,1.773.515,1.953,1.953,0,0,1,.455,1.519A2.179,2.179,0,0,1,775,59.9a2.424,2.424,0,0,1-1.824.515h-1.95a0.09,0.09,0,0,1-.076-0.1h0V56.48a0.09,0.09,0,0,1,.076-0.1h0ZM769.2,62.4h3.951a5.246,5.246,0,0,0,3.469-.927,3.814,3.814,0,0,0,1.115-3.115,3.671,3.671,0,0,0-.633-2.136,2.9,2.9,0,0,0-1.723-1.107,0.065,0.065,0,0,1-.05-0.1l0.025-.052a2.541,2.541,0,0,0,.962-1.107,3.018,3.018,0,0,0,.2-1.158,3.283,3.283,0,0,0-1.038-2.5,4.041,4.041,0,0,0-2.761-.953H769.2a0.226,0.226,0,0,0-.2.232v12.69A0.21,0.21,0,0,0,769.2,62.4Zm14.385-1.8a2.16,2.16,0,0,1-1.722-.566h0a2.3,2.3,0,0,1-.4-1.519V53.108a2.34,2.34,0,0,1,.4-1.519,2.123,2.123,0,0,1,1.722-.566,2.268,2.268,0,0,1,1.823.566h0.026a2.381,2.381,0,0,1,.38,1.519v5.406a2.169,2.169,0,0,1-.431,1.519,2.392,2.392,0,0,1-1.8.566h0Zm0,1.931a4.9,4.9,0,0,0,3.368-.952,3.712,3.712,0,0,0,1.039-2.96V52.98a3.764,3.764,0,0,0-1.013-2.986,5.082,5.082,0,0,0-3.394-.9,4.852,4.852,0,0,0-3.318.9,3.852,3.852,0,0,0-.987,2.986v5.637a3.793,3.793,0,0,0,1.013,2.96A4.682,4.682,0,0,0,783.58,62.529Zm5.951-12.947,2.761,6.126v0.077l-3.014,6.281a0.243,0.243,0,0,0,.2.335h2.076a0.259,0.259,0,0,0,.2-0.129l0.937-1.879h0l1.216-3.037a0.092,0.092,0,0,1,.126-0.052l0.051,0.052,1.14,2.883h0l0.025,0.077h0l0.988,1.956a0.256,0.256,0,0,0,.2.129H798.5a0.261,0.261,0,0,0,.2-0.1,0.2,0.2,0,0,0,0-.232l-2.938-6.281V55.708h0l2.71-6.126a0.251,0.251,0,0,0-.025-0.232,0.256,0.256,0,0,0-.177-0.1h-2.1a0.259,0.259,0,0,0-.2.129L795.1,51.409h0l-1.013,2.78a0.092,0.092,0,0,1-.127.051l-0.05-.051L792.9,51.358h-0.026l-0.861-1.982a0.2,0.2,0,0,0-.2-0.129h-2.077a0.212,0.212,0,0,0-.177.1A0.254,0.254,0,0,0,789.531,49.582Zm18.285-.335h-7.091a0.229,0.229,0,0,0-.228.232v12.69a0.229,0.229,0,0,0,.228.232h1.722a0.229,0.229,0,0,0,.228-0.232V56.815a0.068,0.068,0,0,1,.076-0.077h4.23a0.229,0.229,0,0,0,.228-0.232V54.987a0.229,0.229,0,0,0-.228-0.232h-4.23a0.09,0.09,0,0,1-.076-0.1h0V51.332a0.09,0.09,0,0,1,.076-0.1h5.065a0.225,0.225,0,0,0,.228-0.206V49.479a0.229,0.229,0,0,0-.228-0.232h0Zm59.54,0.232v12.69a0.229,0.229,0,0,0,.228.232h4a5.046,5.046,0,0,0,3.368-.9,3.652,3.652,0,0,0,1.038-2.934V53.134a3.729,3.729,0,0,0-1.013-2.986,5.077,5.077,0,0,0-3.393-.9h-4a0.229,0.229,0,0,0-.228.232h0Zm2.153,10.837h0V51.332a0.11,0.11,0,0,1,.1-0.1h2.027a2.352,2.352,0,0,1,1.8.515,2.125,2.125,0,0,1,.38,1.519v5.174a1.925,1.925,0,0,1-.456,1.493,2.411,2.411,0,0,1-1.773.489H869.61a0.11,0.11,0,0,1-.1-0.1h0ZM865.1,62.04l-2.608-4.582a0.087,0.087,0,0,1,.025-0.129h0.025a2.993,2.993,0,0,0,1.672-1.21,4.214,4.214,0,0,0,.532-2.265v-0.7a3.6,3.6,0,0,0-1.114-2.986,5.252,5.252,0,0,0-3.47-.927h-2.988a0.229,0.229,0,0,0-.228.232v12.69a0.229,0.229,0,0,0,.228.232H858.9a0.229,0.229,0,0,0,.228-0.232V57.793a0.089,0.089,0,0,1,.076-0.1h0.886l0.076,0.051v0.026l2.532,4.5a0.193,0.193,0,0,0,.178.129H864.9a0.224,0.224,0,0,0,.2-0.129,0.2,0.2,0,0,0,0-.232h0Zm-6-6.435V51.358a0.11,0.11,0,0,1,.1-0.1h0.987a2.489,2.489,0,0,1,1.849.515,2.056,2.056,0,0,1,.4,1.493v0.463a1.9,1.9,0,0,1-.481,1.467,2.52,2.52,0,0,1-1.8.489H859.2a0.114,0.114,0,0,1-.1-0.077h0Zm-7.673-6.332h-1.874a0.193,0.193,0,0,0-.2.154l-3.47,12.664a0.276,0.276,0,0,0,.026.206,0.256,0.256,0,0,0,.177.1h1.8a0.241,0.241,0,0,0,.2-0.18l0.608-2.111a0.105,0.105,0,0,1,.1-0.077h3.368a0.107,0.107,0,0,1,.1.077h0l0.582,2.111a0.243,0.243,0,0,0,.228.18h1.773a0.256,0.256,0,0,0,.177-0.1,0.2,0.2,0,0,0,.025-0.206l-3.419-12.664a0.193,0.193,0,0,0-.2-0.154h0Zm-2.153,8.494,1.114-4.942a0.064,0.064,0,0,1,.1-0.051l0.076,0.051,1.09,4.942a0.09,0.09,0,0,1-.076.1h0l-0.026.026h-2.178a0.11,0.11,0,0,1-.1-0.1V57.767h0Zm-10.915-2.5,1.874,6.976a0.222,0.222,0,0,0,.228.154h2a0.221,0.221,0,0,0,.227-0.154L845.83,49.53a0.279,0.279,0,0,0-.051-0.206,0.226,0.226,0,0,0-.177-0.078h-1.773a0.223,0.223,0,0,0-.228.155l-1.215,4.35-0.026.026-0.76,4.891a0.088,0.088,0,0,1-.1.077l-0.076-.077h0l-2.254-8.829a0.221,0.221,0,0,0-.228-0.154h-1.317a0.222,0.222,0,0,0-.228.154l-2.1,8.829a0.088,0.088,0,0,1-.1.077l-0.076-.077h0l-0.937-4.891h0L832.964,49.4a0.242,0.242,0,0,0-.227-0.155h-1.773a0.2,0.2,0,0,0-.177.078,0.216,0.216,0,0,0-.051.206l3.318,12.716a0.221,0.221,0,0,0,.228.154h2a0.194,0.194,0,0,0,.2-0.154l1.7-6.976a0.091,0.091,0,0,1,.126-0.051l0.051,0.051h0ZM814.325,62.5a4.947,4.947,0,0,0,3.368-.926,3.748,3.748,0,0,0,1.039-2.96V52.98a3.736,3.736,0,0,0-1.039-2.986,4.958,4.958,0,0,0-3.368-.9,4.883,4.883,0,0,0-3.343.9,3.906,3.906,0,0,0-.962,2.986v5.637a3.824,3.824,0,0,0,.988,2.96,4.714,4.714,0,0,0,3.317.926h0Zm0-1.93a2.127,2.127,0,0,1-1.722-.541h0a2.2,2.2,0,0,1-.4-1.544v-5.38a2.164,2.164,0,0,1,.4-1.519,2.126,2.126,0,0,1,1.722-.566,2.341,2.341,0,0,1,1.823.566,2.16,2.16,0,0,1,.406,1.519v5.38a2.09,2.09,0,0,1-.456,1.544,2.293,2.293,0,0,1-1.773.541h0Zm15.246,1.467-2.609-4.582a0.087,0.087,0,0,1,.026-0.129h0.025a3,3,0,0,0,1.672-1.21,3.992,3.992,0,0,0,.531-2.265v-0.7a3.6,3.6,0,0,0-1.114-2.986,5.206,5.206,0,0,0-3.47-.927h-2.988a0.229,0.229,0,0,0-.228.232v12.69a0.229,0.229,0,0,0,.228.232h1.722a0.229,0.229,0,0,0,.228-0.232V57.793a0.089,0.089,0,0,1,.076-0.1h0.887l0.075,0.051v0.026l2.533,4.5a0.2,0.2,0,0,0,.2.129h2a0.226,0.226,0,0,0,.2-0.129,0.2,0.2,0,0,0,0-.232h0Zm-6-6.435V51.358a0.109,0.109,0,0,1,.1-0.1h1.013a2.463,2.463,0,0,1,1.824.515,2.056,2.056,0,0,1,.405,1.493v0.463a1.905,1.905,0,0,1-.481,1.467,2.523,2.523,0,0,1-1.8.489H823.67A0.112,0.112,0,0,1,823.569,55.6Zm-62.908.824-0.406-.463V59.7l7.091-3.732-7.091-3.733v3.733Zm0,0h0Z" transform="translate(-749 -34)"/>
</svg>
