<?xml version="1.0" encoding="utf-8"?>
<!-- Generator: Adobe Illustrator 23.0.1, SVG Export Plug-In . SVG Version: 6.00 Build 0)  -->
<svg version="1.1" id="Слой_1" xmlns="http://www.w3.org/2000/svg" xmlns:xlink="http://www.w3.org/1999/xlink" x="0px" y="0px"
	 width="70px" height="70px" viewBox="0 0 70 70" style="enable-background:new 0 0 70 70;" xml:space="preserve">
<style type="text/css">
	.st0{fill:#0071B3;}
</style>
<circle class="st0" cx="41.8" cy="59.6" r="1"/>
<path class="st0" d="M68.6,67.6h-5.3V16.1h5.3c0.4,0,0.8-0.2,0.9-0.6c0.2-0.4,0.1-0.8-0.2-1.1L56.2,0.7c-0.4-0.4-1.1-0.4-1.5,0
	L41.7,14.3c-0.3,0.3-0.4,0.7-0.2,1.1s0.5,0.6,0.9,0.6h5.3v15.2H35c-0.6,0-1,0.5-1,1v12.7H21.3c-0.6,0-1,0.5-1,1v9.9H7.7
	c-0.6,0-1,0.5-1,1v10.7H1.4c-0.6,0-1,0.5-1,1s0.5,1,1,1h67.3c0.6,0,1-0.5,1-1S69.2,67.6,68.6,67.6z M20.3,67.6H8.7v-9.7h11.6V67.6z
	 M34,67.6H22.3V46.9H34V67.6z M47.7,67.6H36V33.3h11.6V67.6z M61.3,15v52.6H49.7V15c0-0.6-0.5-1-1-1h-3.9L55.5,2.8L66.3,14h-3.9
	C61.8,14,61.3,14.5,61.3,15z"/>
<path class="st0" d="M41.8,39.5c-0.6,0-1,0.5-1,1v13.7c0,0.6,0.5,1,1,1s1-0.5,1-1V40.5C42.8,39.9,42.4,39.5,41.8,39.5z"/>
</svg>
