<svg width="70" height="70" viewBox="0 0 70 70" fill="none" xmlns="http://www.w3.org/2000/svg">
<path d="M41.2466 11.875C41.8625 11.875 42.3618 11.3757 42.3618 10.7597C42.3618 10.1438 41.8625 9.64453 41.2466 9.64453C40.6306 9.64453 40.1313 10.1438 40.1313 10.7597C40.1313 11.3757 40.6306 11.875 41.2466 11.875Z" fill="white"/>
<path d="M41.2466 14.6587C41.8625 14.6587 42.3618 14.1594 42.3618 13.5434C42.3618 12.9275 41.8625 12.4282 41.2466 12.4282C40.6306 12.4282 40.1313 12.9275 40.1313 13.5434C40.1313 14.1594 40.6306 14.6587 41.2466 14.6587Z" fill="white"/>
<path d="M41.2466 17.4436C41.8625 17.4436 42.3618 16.9443 42.3618 16.3283C42.3618 15.7124 41.8625 15.2131 41.2466 15.2131C40.6306 15.2131 40.1313 15.7124 40.1313 16.3283C40.1313 16.9443 40.6306 17.4436 41.2466 17.4436Z" fill="white"/>
<path d="M51.2012 9.73389H45.0005C44.4341 9.73389 43.9751 10.1929 43.9751 10.7593C43.9751 11.3257 44.4341 11.7847 45.0005 11.7847H51.2012C51.7677 11.7847 52.2266 11.3257 52.2266 10.7593C52.2266 10.1929 51.7677 9.73389 51.2012 9.73389Z" fill="white"/>
<path d="M51.2012 12.5186H45.0005C44.4341 12.5186 43.9751 12.9775 43.9751 13.5439C43.9751 14.1104 44.4341 14.5693 45.0005 14.5693H51.2012C51.7677 14.5693 52.2266 14.1104 52.2266 13.5439C52.2266 12.9775 51.7677 12.5186 51.2012 12.5186Z" fill="white"/>
<path d="M51.2012 15.3154H45.0005C44.4341 15.3154 43.9751 15.7744 43.9751 16.3408C43.9751 16.9072 44.4341 17.3662 45.0005 17.3662H51.2012C51.7677 17.3662 52.2266 16.9072 52.2266 16.3408C52.2266 15.7744 51.7677 15.3154 51.2012 15.3154Z" fill="white"/>
<path d="M19.5056 11.875C20.1215 11.875 20.6208 11.3757 20.6208 10.7597C20.6208 10.1438 20.1215 9.64453 19.5056 9.64453C18.8897 9.64453 18.3904 10.1438 18.3904 10.7597C18.3904 11.3757 18.8897 11.875 19.5056 11.875Z" fill="white"/>
<path d="M19.5056 14.6587C20.1215 14.6587 20.6208 14.1594 20.6208 13.5434C20.6208 12.9275 20.1215 12.4282 19.5056 12.4282C18.8897 12.4282 18.3904 12.9275 18.3904 13.5434C18.3904 14.1594 18.8897 14.6587 19.5056 14.6587Z" fill="white"/>
<path d="M19.5056 17.4436C20.1215 17.4436 20.6208 16.9443 20.6208 16.3283C20.6208 15.7124 20.1215 15.2131 19.5056 15.2131C18.8897 15.2131 18.3904 15.7124 18.3904 16.3283C18.3904 16.9443 18.8897 17.4436 19.5056 17.4436Z" fill="white"/>
<path d="M29.461 9.73389H23.2603C22.6938 9.73389 22.2349 10.1929 22.2349 10.7593C22.2349 11.3257 22.6938 11.7847 23.2603 11.7847H29.461C30.0274 11.7847 30.4864 11.3257 30.4864 10.7593C30.4864 10.1929 30.0274 9.73389 29.461 9.73389Z" fill="white"/>
<path d="M29.461 12.5186H23.2603C22.6938 12.5186 22.2349 12.9775 22.2349 13.5439C22.2349 14.1104 22.6938 14.5693 23.2603 14.5693H29.461C30.0274 14.5693 30.4864 14.1104 30.4864 13.5439C30.4864 12.9775 30.0274 12.5186 29.461 12.5186Z" fill="white"/>
<path d="M29.461 15.3154H23.2603C22.6938 15.3154 22.2349 15.7744 22.2349 16.3408C22.2349 16.9072 22.6938 17.3662 23.2603 17.3662H29.461C30.0274 17.3662 30.4864 16.9072 30.4864 16.3408C30.4864 15.7744 30.0274 15.3154 29.461 15.3154Z" fill="white"/>
<path d="M66.2402 51.7807C64.5226 51.7807 63.0714 52.939 62.6237 54.5151H52.9368V47.5098H55.9137C58.8938 47.5098 61.3182 45.0909 61.3182 42.1177C61.3182 39.1459 58.896 36.728 55.9178 36.7257V1.02539C55.9178 0.458965 55.4589 0 54.8924 0H37.119C36.5526 0 36.0936 0.458965 36.0936 1.02539V25.988C35.4918 25.6591 34.8493 25.4012 34.1796 25.2254V1.02539C34.1796 0.458965 33.7206 0 33.1542 0H15.3807C14.8143 0 14.3553 0.458965 14.3553 1.02539V21.8066C14.3553 22.3731 14.8143 22.832 15.3807 22.832C15.9471 22.832 16.4061 22.3731 16.4061 21.8066V21.2684H32.1288V24.9523C32.1059 24.9521 32.0832 24.9512 32.0604 24.9512C27.9202 24.9512 24.4677 27.9453 23.765 31.8773C22.982 31.5309 22.1289 31.348 21.2572 31.348C19.2932 31.348 17.5409 32.266 16.4061 33.6938V26.25C16.4061 25.6836 15.9471 25.2246 15.3807 25.2246C14.8143 25.2246 14.3553 25.6836 14.3553 26.25V36.7326C14.2652 36.7281 14.175 36.7255 14.0848 36.7255C11.1054 36.7255 8.6815 39.1444 8.6815 42.1176C8.6815 45.0908 11.1055 47.5098 14.0849 47.5098H17.0632V54.5151H7.37625C6.92863 52.939 5.47736 51.7807 3.75977 51.7807C1.6867 51.7807 0 53.4674 0 55.5405C0 57.6136 1.6867 59.3003 3.75977 59.3003C5.47736 59.3003 6.92863 58.142 7.37625 56.5659H18.0886C18.655 56.5659 19.114 56.1069 19.114 55.5405V47.5098H23.5156V48.1022C23.5156 48.6686 23.9746 49.1276 24.541 49.1276C25.1074 49.1276 25.5664 48.6686 25.5664 48.1022V47.5098H33.9746V57.2234C32.3985 57.671 31.2402 59.1222 31.2402 60.8398C31.2402 62.9129 32.9269 64.5996 35 64.5996C37.0731 64.5996 38.7598 62.9129 38.7598 60.8398C38.7598 59.1222 37.6015 57.671 36.0254 57.2234V47.5098H44.4336V62.6237C42.8575 63.0714 41.6992 64.5226 41.6992 66.2402C41.6992 68.3133 43.3859 70 45.459 70C47.5321 70 49.2188 68.3133 49.2188 66.2402C49.2188 64.5226 48.0605 63.0714 46.4844 62.6237V47.5098H50.886V55.5405C50.886 56.1069 51.345 56.5659 51.9114 56.5659H62.6237C63.0714 58.142 64.5226 59.3003 66.2402 59.3003C68.3133 59.3003 70 57.6136 70 55.5405C70 53.4674 68.3133 51.7807 66.2402 51.7807ZM3.75977 57.2495C2.81736 57.2495 2.05078 56.4829 2.05078 55.5405C2.05078 54.5981 2.81736 53.8315 3.75977 53.8315C4.70217 53.8315 5.46875 54.5981 5.46875 55.5405C5.46875 56.4829 4.70217 57.2495 3.75977 57.2495ZM38.1445 2.05078H53.8672V5.81916H38.1445V2.05078ZM38.1444 21.2685H48.1007C48.6671 21.2685 49.1261 20.8095 49.1261 20.2431C49.1261 19.6767 48.6671 19.2177 48.1007 19.2177H38.1445V7.87008H53.8672V19.2177H52.5228C51.9564 19.2177 51.4974 19.6767 51.4974 20.2431C51.4974 20.8095 51.9564 21.2685 52.5228 21.2685H53.8672V36.7218C53.19 34.9155 51.4429 33.626 49.3996 33.626C49.3012 33.626 49.2033 33.6288 49.1061 33.6347C49.1103 33.5423 49.1125 33.4497 49.1125 33.3569C49.1125 30.0765 46.4379 27.4077 43.1505 27.4077C41.6679 27.4077 40.2747 27.9461 39.2004 28.8971C38.8937 28.4118 38.5387 27.9625 38.1444 27.5535V21.2685ZM16.4062 2.05078H32.1289V5.81916H16.4062V2.05078ZM16.4062 19.2176V7.86994H32.1289V19.2176H16.4062ZM36.709 60.8398C36.709 61.7822 35.9424 62.5488 35 62.5488C34.0576 62.5488 33.291 61.7822 33.291 60.8398C33.291 59.8974 34.0576 59.1309 35 59.1309C35.9424 59.1309 36.709 59.8974 36.709 60.8398ZM47.168 66.2402C47.168 67.1826 46.4014 67.9492 45.459 67.9492C44.5166 67.9492 43.75 67.1826 43.75 66.2402C43.75 65.2978 44.5166 64.5312 45.459 64.5312C46.4014 64.5312 47.168 65.2978 47.168 66.2402ZM14.0849 45.459C12.2363 45.459 10.7324 43.96 10.7324 42.1177C10.7324 40.2753 12.2363 38.7764 14.0849 38.7764C14.6357 38.7764 15.1812 38.9125 15.662 39.1701C16.0035 39.353 16.4186 39.3278 16.7355 39.1053C17.0524 38.8827 17.2169 38.5007 17.1607 38.1176C17.1325 37.9251 17.1181 37.7256 17.1181 37.5248C17.1181 35.2496 18.9749 33.3988 21.2573 33.3988C22.2652 33.3988 23.2356 33.7639 23.9896 34.4269C23.9904 34.4277 23.9915 34.4282 23.9924 34.4289C24.884 35.2126 25.3955 36.3409 25.3955 37.5247C25.3955 38.5309 25.028 39.5001 24.361 40.2534C23.9854 40.6775 24.0248 41.3254 24.4487 41.7009C24.644 41.8738 24.8865 41.9587 25.1282 41.9587C25.4115 41.9587 25.6937 41.842 25.8962 41.6132C26.896 40.4845 27.4464 39.0325 27.4464 37.5248C27.4464 35.9097 26.81 34.3656 25.6888 33.2165C25.7644 29.7772 28.5925 27.0021 32.0605 27.0021C34.5316 27.0021 36.7961 28.4568 37.8357 30.6659C37.4127 31.4969 37.188 32.4162 37.188 33.3576C37.188 35.3929 38.2137 37.2654 39.9316 38.3667C40.103 38.4765 40.2946 38.529 40.4841 38.529C40.8218 38.529 41.1525 38.3622 41.3483 38.0569C41.6538 37.5802 41.5151 36.9458 41.0383 36.6402C39.9115 35.9179 39.2387 34.6909 39.2387 33.3577C39.2387 32.6188 39.4468 31.9 39.8404 31.2791C39.8408 31.2782 39.8415 31.2777 39.8419 31.2769C40.5636 30.1384 41.8004 29.4588 43.1502 29.4588C45.3068 29.4588 47.0613 31.2077 47.0613 33.3573C47.0613 33.807 46.9857 34.2467 46.8367 34.6638C46.6972 35.0543 46.8068 35.4904 47.1141 35.7688C47.4213 36.0471 47.8663 36.113 48.2409 35.9356C48.6031 35.7641 48.9929 35.6772 49.3992 35.6772C50.8975 35.6772 52.1165 36.8919 52.1165 38.385C52.1165 38.4792 52.1123 38.5688 52.1039 38.6508C52.062 39.0646 52.2744 39.4629 52.6415 39.6588C53.0086 39.8547 53.4577 39.8095 53.7782 39.5438C54.3755 39.0492 55.1338 38.7767 55.9133 38.7767C57.7626 38.7767 59.267 40.2757 59.267 42.118C59.267 43.9603 57.7631 45.459 55.9139 45.459H14.0849ZM66.2402 57.2495C65.2978 57.2495 64.5312 56.4829 64.5312 55.5405C64.5312 54.5981 65.2978 53.8315 66.2402 53.8315C67.1826 53.8315 67.9492 54.5981 67.9492 55.5405C67.9492 56.4829 67.1826 57.2495 66.2402 57.2495Z" fill="white"/>
<path d="M25.5664 62.6236V52.4771C25.5664 51.9106 25.1074 51.4517 24.541 51.4517C23.9746 51.4517 23.5156 51.9106 23.5156 52.4771V62.6236C21.9395 63.0712 20.7812 64.5225 20.7812 66.2401C20.7812 68.3132 22.4679 69.9999 24.541 69.9999C26.6141 69.9999 28.3008 68.3132 28.3008 66.2401C28.3008 64.5225 27.1425 63.0712 25.5664 62.6236ZM24.541 67.9491C23.5986 67.9491 22.832 67.1825 22.832 66.2401C22.832 65.2977 23.5986 64.5311 24.541 64.5311C25.4834 64.5311 26.25 65.2977 26.25 66.2401C26.25 67.1825 25.4834 67.9491 24.541 67.9491Z" fill="white"/>
</svg>
