<?xml version="1.0" encoding="utf-8"?>
<!-- Generator: Adobe Illustrator 23.0.1, SVG Export Plug-In . SVG Version: 6.00 Build 0)  -->
<svg version="1.1" id="Слой_1" xmlns="http://www.w3.org/2000/svg" xmlns:xlink="http://www.w3.org/1999/xlink" x="0px" y="0px"
	 width="70px" height="70px" viewBox="0 0 70 70" style="enable-background:new 0 0 70 70;" xml:space="preserve">
<style type="text/css">
	.st0{fill:#FFFFFF;}
</style>
<path class="st0" d="M54.2,21.7V10.9c0-1.8-1.5-3.3-3.3-3.3h-47c-1.8,0-3.3,1.5-3.3,3.3v28.2c0,1.8,1.5,3.3,3.3,3.3h3.7v11.1
	c0,0.4,0.2,0.8,0.6,0.9c0.4,0.1,0.8,0.1,1.1-0.2l11.8-11.8h2.6c0.6,0,1-0.4,1-1s-0.4-1-1-1c0,0-2.9,0-3.1,0c-0.2,0-0.4,0.1-0.6,0.3
	L9.6,51.1l0-1.6c0-2.2,0-8.1,0-8.3c0-0.5-0.5-0.9-1-0.9H3.9c-0.7,0-1.3-0.6-1.3-1.3V10.9c0-0.7,0.6-1.3,1.3-1.3h47
	c0.7,0,1.3,0.6,1.3,1.3v10.8c0,0.6,0.4,1,1,1S54.2,22.2,54.2,21.7z"/>
<path class="st0" d="M66.1,27.8H33.2c-1.8,0-3.3,1.5-3.3,3.3v19.2c0,1.8,1.5,3.3,3.3,3.3H54l8.5,8.5c0.3,0.3,0.7,0.4,1.1,0.2
	c0.4-0.2,0.6-0.5,0.6-0.9v-7.8h1.8c1.8,0,3.3-1.5,3.3-3.3V31.1C69.3,29.3,67.9,27.8,66.1,27.8z M67.3,50.3c0,0.7-0.6,1.3-1.3,1.3
	h-2.8c-0.5,0-1,0.4-1,0.9c0,0.2,0,4.9,0,4.9l0,1.6l-7.1-7.1c-0.2-0.2-0.5-0.3-0.7-0.3H33.2c-0.7,0-1.3-0.6-1.3-1.3V31.1
	c0-0.7,0.6-1.3,1.3-1.3h32.9c0.7,0,1.3,0.6,1.3,1.3V50.3z"/>
<path class="st0" d="M50.6,40.7c0-0.6-0.4-1-1-1s-1,0.4-1,1s0.4,1,1,1S50.6,41.2,50.6,40.7z"/>
<path class="st0" d="M42.4,18.5H12.4c-0.6,0-1,0.4-1,1s0.4,1,1,1h30.1c0.6,0,1-0.4,1-1S43,18.5,42.4,18.5z"/>
<path class="st0" d="M23.8,31.4c0.6,0,1-0.4,1-1s-0.4-1-1-1H12.4c-0.6,0-1,0.4-1,1s0.4,1,1,1H23.8z"/>
<path class="st0" d="M43,40.7c0-0.6-0.4-1-1-1s-1,0.4-1,1s0.4,1,1,1S43,41.2,43,40.7z"/>
<path class="st0" d="M58.3,40.7c0-0.6-0.4-1-1-1s-1,0.4-1,1s0.4,1,1,1S58.3,41.2,58.3,40.7z"/>
</svg>
