<?xml version="1.0" encoding="utf-8"?>
<!-- Generator: Adobe Illustrator 23.0.1, SVG Export Plug-In . SVG Version: 6.00 Build 0)  -->
<svg version="1.1" id="Слой_1" xmlns="http://www.w3.org/2000/svg" xmlns:xlink="http://www.w3.org/1999/xlink" x="0px" y="0px"
	 width="70px" height="70px" viewBox="0 0 70 70" style="enable-background:new 0 0 70 70;" xml:space="preserve">
<style type="text/css">
	.st0{fill:#FFFFFF;}
</style>
<path class="st0" d="M1.4,69.6H35c0.6,0,1-0.5,1-1v-5.8c0-6.3-4.9-11.7-11.2-12.3l-0.1,0c-0.1,0-0.1,0-0.2,0l-0.8,0l0.5-0.6
	c1.5-1.6,2.3-3.6,2.3-5.8v-7.2c0,0,0-0.1,0-0.1c0-0.2,0-0.3,0-0.4v-4.6c0-0.6-0.5-1-1-1h-9.2c-3.7,0-6.6,3-6.6,6.6v6.7
	c0,2.2,0.8,4.2,2.3,5.8l0.5,0.6l-0.8,0c-0.1,0-0.2,0-0.2,0c-6.4,0.6-11.3,6-11.3,12.3v5.8C0.4,69.2,0.8,69.6,1.4,69.6z M11.8,37.4
	c0-2.6,2.1-4.6,4.6-4.6h8.2v3.5c0,1.8-1.5,3.3-3.3,3.3h-9.5V37.4z M11.8,44.1v-2.5h9.5c1,0,1.9-0.3,2.7-0.8l0.5-0.3v3.6
	c0,3.5-2.9,6.4-6.4,6.4S11.8,47.6,11.8,44.1z M22,52.5l-3.8,3.8l-3.8-3.8H22z M2.4,64.2h6c0.6,0,1-0.5,1-1s-0.5-1-1-1h-6l0-0.4
	c0.5-4.7,4.2-8.6,9-9.2l0.2,0l5.9,5.9c0.4,0.4,1,0.4,1.4,0l5.9-5.9l0.2,0c5.1,0.7,9,5.1,9,10.2v4.8H2.4V64.2z"/>
<path class="st0" d="M57.2,39.3h11.4c0.6,0,1-0.5,1-1v-5.8c0-6.3-4.9-11.7-11.2-12.3l-0.1,0c-0.1,0-0.1,0-0.2,0l-0.8,0l0.5-0.6
	c1.5-1.6,2.3-3.6,2.3-5.8V6.5c0,0,0-0.1,0-0.1c0-0.2,0-0.3,0-0.4V1.4c0-0.6-0.5-1-1-1H50c-3.7,0-6.6,3-6.6,6.6v6.7
	c0,2.2,0.8,4.2,2.3,5.8l0.5,0.6l-0.8,0c-0.1,0-0.2,0-0.2,0c-6.4,0.6-11.3,6-11.3,12.3v5.8c0,0.6,0.5,1,1,1h11c0.6,0,1-0.5,1-1
	s-0.5-1-1-1H36v-4.8c0-5.2,3.9-9.6,9-10.2l0.2,0l5.9,5.9c0.4,0.4,1,0.4,1.4,0l5.9-5.9l0.2,0c5.1,0.7,9,5.1,9,10.2v4.8H57.2
	c-0.6,0-1,0.5-1,1S56.6,39.3,57.2,39.3z M45.4,7c0-2.6,2.1-4.6,4.6-4.6h8.2v3.5c0,1.8-1.5,3.3-3.3,3.3h-9.5V7z M51.8,26L48,22.1h7.7
	L51.8,26z M51.8,20.1c-3.5,0-6.4-2.9-6.4-6.4v-2.5h9.5c1,0,1.9-0.3,2.7-0.8l0.5-0.3v3.6C58.2,17.2,55.3,20.1,51.8,20.1z"/>
<path class="st0" d="M52.5,37.6c-0.2-0.2-0.4-0.3-0.7-0.3s-0.5,0.1-0.7,0.3c-0.2,0.2-0.3,0.4-0.3,0.7s0.1,0.5,0.3,0.7
	c0.4,0.4,1.1,0.4,1.4,0c0.2-0.2,0.3-0.4,0.3-0.7S52.7,37.7,52.5,37.6z"/>
<path class="st0" d="M0.4,18.9c0,3.6,2.9,6.5,6.5,6.5H24c2.6,0,5-1.6,6-4l0.1-0.2h5.5c0.4,0,0.8-0.2,0.9-0.6
	c0.2-0.4,0.1-0.8-0.2-1.1l-5.8-5.8V6.8c0-3.6-2.9-6.5-6.5-6.5H6.8c-3.6,0-6.5,2.9-6.5,6.5V18.9z M2.4,6.8c0-2.5,2-4.5,4.5-4.5H24
	c2.5,0,4.5,2,4.5,4.5V14c0,0.3,0.1,0.5,0.3,0.7l4.4,4.4h-3.8c-0.5,0-0.9,0.3-1,0.8c-0.5,2-2.3,3.5-4.3,3.5H6.8c-2.5,0-4.5-2-4.5-4.5
	V6.8z"/>
<path class="st0" d="M46,69.6h17.2c3.6,0,6.5-2.9,6.5-6.5v-12c0-3.6-2.9-6.5-6.5-6.5H46c-2.6,0-5,1.6-6,4l-0.1,0.2h-5.5
	c-0.4,0-0.8,0.2-0.9,0.6c-0.2,0.4-0.1,0.8,0.2,1.1l5.8,5.8v6.7C39.5,66.7,42.4,69.6,46,69.6z M36.8,50.9h3.8c0.5,0,0.9-0.3,1-0.8
	c0.5-2,2.3-3.5,4.3-3.5h17.2c2.5,0,4.5,2,4.5,4.5v12c0,2.5-2,4.5-4.5,4.5H46c-2.5,0-4.5-2-4.5-4.5V56c0-0.3-0.1-0.5-0.3-0.7
	L36.8,50.9z"/>
<path class="st0" d="M60.5,53.8c-0.4-0.4-1-0.4-1.4,0l-3.9,3.9l-1.9-1.9c-0.2-0.2-0.4-0.3-0.7-0.3s-0.5,0.1-0.7,0.3
	c-0.4,0.4-0.4,1,0,1.4l2.7,2.7c0.4,0.4,1,0.4,1.4,0l4.6-4.6C60.9,54.8,60.9,54.2,60.5,53.8z"/>
<path class="st0" d="M16.9,15.3c0.6,0,1-0.5,1-1v-0.7l0.3-0.1c2-0.6,3.2-2.4,3.1-4.5c-0.1-2.2-1.9-3.9-4.1-4.1
	c-1.2-0.1-2.4,0.3-3.3,1.2c-0.9,0.8-1.4,2-1.4,3.2c0,0.6,0.5,1,1,1s1-0.5,1-1c0-0.7,0.3-1.3,0.8-1.7c0.4-0.4,1-0.6,1.6-0.6
	C17,7,17,7,17.1,7c1.2,0.1,2.1,1,2.2,2.2c0.1,1.2-0.7,2.2-1.8,2.5c-0.9,0.2-1.5,1-1.5,1.9v0.7C15.9,14.9,16.4,15.3,16.9,15.3z"/>
<path class="st0" d="M17.6,18.9c-0.2-0.2-0.4-0.3-0.7-0.3s-0.5,0.1-0.7,0.3c-0.2,0.2-0.3,0.4-0.3,0.7s0.1,0.5,0.3,0.7
	c0.4,0.4,1,0.4,1.4,0c0.2-0.2,0.3-0.4,0.3-0.7S17.8,19,17.6,18.9z"/>
<path class="st0" d="M13.2,63.9c0.4,0.4,1,0.4,1.4,0c0.2-0.2,0.3-0.4,0.3-0.7c0-0.3-0.1-0.5-0.3-0.7c-0.2-0.2-0.4-0.3-0.7-0.3
	s-0.5,0.1-0.7,0.3c-0.2,0.2-0.3,0.4-0.3,0.7S13,63.7,13.2,63.9z"/>
</svg>
