<svg width="72" height="65" viewBox="0 0 72 65" fill="none" xmlns="http://www.w3.org/2000/svg">
<mask id="path-1-outside-1" maskUnits="userSpaceOnUse" x="0" y="0" width="72" height="65" fill="black">
<rect fill="white" width="72" height="65"/>
<path fill-rule="evenodd" clip-rule="evenodd" d="M13.513 50.0003C19.3733 58.6756 29.1146 63.8549 39.5725 63.8549C56.9012 63.8549 71 49.7562 71 32.4275C71 15.0988 56.9012 1 39.5725 1C23.2599 1 9.80948 13.4939 8.28827 29.4149L2.81441 21.3501C2.50671 20.8975 1.88733 20.7823 1.43471 21.0861C0.980102 21.3938 0.864961 22.0112 1.17068 22.4658L8.31536 32.9873C8.46425 33.2037 8.69255 33.3545 8.95062 33.4042C9.01216 33.4161 9.07569 33.422 9.13723 33.422C9.33376 33.422 9.52831 33.3644 9.69308 33.2533L20.2146 26.1066C20.6692 25.7989 20.7843 25.1815 20.4786 24.7269C20.1669 24.2743 19.5515 24.1591 19.0989 24.4629L10.1918 30.5134C11.1813 15.1689 23.9807 2.98519 39.5725 2.98519C55.8074 2.98519 69.0148 16.1926 69.0148 32.4275C69.0148 48.6623 55.8074 61.8698 39.5725 61.8698C29.7737 61.8698 20.6478 57.018 15.1567 48.8886C14.849 48.434 14.2316 48.3149 13.779 48.6226C13.3244 48.9283 13.2053 49.5457 13.513 50.0003Z"/>
</mask>
<path fill-rule="evenodd" clip-rule="evenodd" d="M13.513 50.0003C19.3733 58.6756 29.1146 63.8549 39.5725 63.8549C56.9012 63.8549 71 49.7562 71 32.4275C71 15.0988 56.9012 1 39.5725 1C23.2599 1 9.80948 13.4939 8.28827 29.4149L2.81441 21.3501C2.50671 20.8975 1.88733 20.7823 1.43471 21.0861C0.980102 21.3938 0.864961 22.0112 1.17068 22.4658L8.31536 32.9873C8.46425 33.2037 8.69255 33.3545 8.95062 33.4042C9.01216 33.4161 9.07569 33.422 9.13723 33.422C9.33376 33.422 9.52831 33.3644 9.69308 33.2533L20.2146 26.1066C20.6692 25.7989 20.7843 25.1815 20.4786 24.7269C20.1669 24.2743 19.5515 24.1591 19.0989 24.4629L10.1918 30.5134C11.1813 15.1689 23.9807 2.98519 39.5725 2.98519C55.8074 2.98519 69.0148 16.1926 69.0148 32.4275C69.0148 48.6623 55.8074 61.8698 39.5725 61.8698C29.7737 61.8698 20.6478 57.018 15.1567 48.8886C14.849 48.434 14.2316 48.3149 13.779 48.6226C13.3244 48.9283 13.2053 49.5457 13.513 50.0003Z" fill="black"/>
<path d="M13.513 50.0003L13.6787 49.8884L13.6786 49.8882L13.513 50.0003ZM8.28827 29.4149L8.12279 29.5272L8.43456 29.9865L8.48737 29.4339L8.28827 29.4149ZM2.81441 21.3501L2.9799 21.2378L2.97981 21.2377L2.81441 21.3501ZM1.43471 21.0861L1.32327 20.92L1.3226 20.9205L1.43471 21.0861ZM1.17068 22.4658L1.00472 22.5774L1.00522 22.5781L1.17068 22.4658ZM8.31536 32.9873L8.1499 33.0996L8.1506 33.1006L8.31536 32.9873ZM8.95062 33.4042L8.98863 33.2078L8.98839 33.2078L8.95062 33.4042ZM9.69308 33.2533L9.80494 33.4191L9.80546 33.4187L9.69308 33.2533ZM20.2146 26.1066L20.1025 25.941L20.1022 25.9412L20.2146 26.1066ZM20.4786 24.7269L20.6446 24.6153L20.6433 24.6135L20.4786 24.7269ZM19.0989 24.4629L18.9874 24.2968L18.9865 24.2974L19.0989 24.4629ZM10.1918 30.5134L9.99219 30.5005L9.96587 30.9086L10.3042 30.6788L10.1918 30.5134ZM15.1567 48.8886L15.3225 48.7767L15.3224 48.7765L15.1567 48.8886ZM13.779 48.6226L13.8906 48.7886L13.8915 48.788L13.779 48.6226ZM39.5725 63.6549C29.1811 63.6549 19.5019 58.5087 13.6787 49.8884L13.3473 50.1123C19.2447 58.8425 29.048 64.0549 39.5725 64.0549V63.6549ZM70.8 32.4275C70.8 49.6457 56.7908 63.6549 39.5725 63.6549V64.0549C57.0117 64.0549 71.2 49.8666 71.2 32.4275H70.8ZM39.5725 1.2C56.7908 1.2 70.8 15.2092 70.8 32.4275H71.2C71.2 14.9883 57.0117 0.8 39.5725 0.8V1.2ZM8.48737 29.4339C9.99887 13.6145 23.364 1.2 39.5725 1.2V0.8C23.1557 0.8 9.62009 13.3734 8.08918 29.3958L8.48737 29.4339ZM2.64893 21.4624L8.12279 29.5272L8.45376 29.3025L2.9799 21.2378L2.64893 21.4624ZM1.54615 21.2522C1.90867 21.0089 2.40397 21.1021 2.64901 21.4626L2.97981 21.2377C2.60945 20.6929 1.866 20.5558 1.32327 20.92L1.54615 21.2522ZM1.33664 22.3542C1.09154 21.9897 1.18481 21.4967 1.54682 21.2517L1.3226 20.9205C0.775396 21.2908 0.638384 22.0327 1.00472 22.5774L1.33664 22.3542ZM8.48082 32.8749L1.33614 22.3534L1.00522 22.5781L8.1499 33.0996L8.48082 32.8749ZM8.98839 33.2078C8.78263 33.1682 8.59965 33.0476 8.48013 32.8739L8.1506 33.1006C8.32885 33.3597 8.60246 33.5409 8.91285 33.6006L8.98839 33.2078ZM9.13723 33.222C9.08827 33.222 9.03748 33.2173 8.98863 33.2078L8.91261 33.6005C8.98685 33.6149 9.06311 33.622 9.13723 33.622V33.222ZM9.58122 33.0875C9.45038 33.1758 9.29498 33.222 9.13723 33.222V33.622C9.37254 33.622 9.60624 33.5531 9.80494 33.4191L9.58122 33.0875ZM20.1022 25.9412L9.5807 33.0878L9.80546 33.4187L20.3269 26.2721L20.1022 25.9412ZM20.3126 24.8385C20.5577 25.203 20.4645 25.696 20.1025 25.941L20.3267 26.2722C20.8739 25.9019 21.0109 25.16 20.6446 24.6153L20.3126 24.8385ZM19.2103 24.629C19.5722 24.3861 20.0644 24.4781 20.3139 24.8403L20.6433 24.6135C20.2694 24.0705 19.5308 23.9322 18.9874 24.2968L19.2103 24.629ZM10.3042 30.6788L19.2113 24.6283L18.9865 24.2974L10.0794 30.3479L10.3042 30.6788ZM39.5725 2.78519C23.8745 2.78519 10.9884 15.0515 9.99219 30.5005L10.3914 30.5262C11.3741 15.2862 24.087 3.18519 39.5725 3.18519V2.78519ZM69.2148 32.4275C69.2148 16.0822 55.9178 2.78519 39.5725 2.78519V3.18519C55.6969 3.18519 68.8148 16.3031 68.8148 32.4275H69.2148ZM39.5725 62.0698C55.9178 62.0698 69.2148 48.7728 69.2148 32.4275H68.8148C68.8148 48.5519 55.6969 61.6698 39.5725 61.6698V62.0698ZM14.991 49.0006C20.5192 57.1849 29.7071 62.0698 39.5725 62.0698V61.6698C29.8402 61.6698 20.7763 56.851 15.3225 48.7767L14.991 49.0006ZM13.8915 48.788C14.2522 48.5428 14.7451 48.6373 14.9911 49.0007L15.3224 48.7765C14.9529 48.2307 14.2111 48.087 13.6666 48.4572L13.8915 48.788ZM13.6786 49.8882C13.4327 49.5249 13.5282 49.0323 13.8906 48.7886L13.6674 48.4566C13.1206 48.8244 12.9779 49.5665 13.3474 50.1124L13.6786 49.8882Z" fill="black" mask="url(#path-1-outside-1)"/>
<path d="M48.2146 44.579L48.2147 44.5792C48.4309 44.839 48.7413 44.9746 49.0559 44.9746C49.3007 44.9746 49.5496 44.8915 49.7545 44.7236L49.7552 44.7231C50.216 44.3387 50.2841 43.6505 49.8971 43.1848L40.6653 32.0361V13.3955C40.6653 12.7923 40.1758 12.3029 39.5727 12.3029C38.9695 12.3029 38.4801 12.7923 38.4801 13.3955V32.4275C38.4801 32.6813 38.5697 32.928 38.7311 33.1242L38.7313 33.1245L48.2146 44.579Z" fill="#FF5555" stroke="#FF5555" stroke-width="0.2"/>
</svg>
