<?xml version="1.0" encoding="utf-8"?>
<!-- Generator: Adobe Illustrator 23.0.1, SVG Export Plug-In . SVG Version: 6.00 Build 0)  -->
<svg version="1.1" id="Слой_1" xmlns="http://www.w3.org/2000/svg" xmlns:xlink="http://www.w3.org/1999/xlink" x="0px" y="0px"
	 width="90px" height="90px" viewBox="0 0 90 90" style="enable-background:new 0 0 90 90;" xml:space="preserve">
<g id="outline">
	<path d="M23.1,87.4h34v-2.8c0-0.3-0.1-0.6-0.3-0.9c-3.1-3.8-3.5-9.1-1-13.4l1.2-2c0.3-0.6,0.2-1.2-0.2-1.7l-12-12
		c-1.4-1.4-1.3-3.7,0.1-5.1c1.4-1.3,3.6-1.3,5,0l14.9,14.9l2-2L64.1,60V46.1l3.9,4.7c2,2.3,3.2,5.3,3.2,8.4v28.2H74V59.2
		c0-3.8-1.4-7.4-3.8-10.2l-6.1-7.3v-32c0-3.9-3.2-7.1-7.1-7.1h-34c-3.9,0-7.1,3.2-7.1,7.1v70.7C16,84.3,19.2,87.4,23.1,87.4z
		 M18.8,80.4V79h32.7c0.4,2,1.2,4,2.4,5.7H23.1C20.7,84.6,18.8,82.7,18.8,80.4z M58.1,54c0.2-0.6,0.3-1.3,0.3-1.9V45
		c0-3.1-2.5-5.7-5.7-5.7H38.6c-1.6,0-2.8-1.3-2.8-2.8c0-1.6,1.3-2.8,2.8-2.8h9.9v-2.8h-9.9c-3.1,0-5.7,2.5-5.7,5.7s2.5,5.7,5.7,5.7
		h14.1c1.6,0,2.8,1.3,2.8,2.8v6.5l-4-4c-2.5-2.5-6.5-2.5-9,0c-2,1.9-2.4,4.9-1.2,7.4H30.1c-1.6,0-2.8-1.3-2.8-2.8v-2.8h-2.8v2.8
		c0,3.1,2.5,5.7,5.7,5.7h13.6l10.1,10.1L53.2,69c-1.2,2.2-1.9,4.6-1.9,7.2H18.8V13.9h42.4v43.3L58.1,54z M23.1,5.4h34
		c2.3,0,4.2,1.9,4.2,4.2V11H18.8V9.6C18.8,7.3,20.7,5.4,23.1,5.4z"/>
	<path d="M25.9,36.5c-2.3,0-4.2,1.9-4.2,4.2c0,1.3,0.5,2.5,1.4,3.4l1.8,1.8c0.6,0.6,1.4,0.6,2,0l1.8-1.8c0.9-0.9,1.4-2.1,1.4-3.4
		C30.1,38.4,28.2,36.5,25.9,36.5z M26.7,42.2L25.9,43l-0.8-0.8c-0.4-0.4-0.6-0.9-0.6-1.4c0-0.8,0.6-1.4,1.4-1.4s1.4,0.6,1.4,1.4
		C27.3,41.3,27.1,41.8,26.7,42.2z"/>
	<path d="M48.5,18.1c-2.3,0-4.2,1.9-4.2,4.2c0,1.3,0.5,2.5,1.4,3.4l1.8,1.8c0.6,0.6,1.4,0.6,2,0l1.8-1.8c0.9-0.9,1.4-2.1,1.4-3.4
		C52.8,20,50.9,18.1,48.5,18.1z M49.4,23.8l-0.8,0.8l-0.8-0.8c-0.4-0.4-0.6-0.9-0.6-1.4c0-0.8,0.6-1.4,1.4-1.4s1.4,0.6,1.4,1.4
		C49.9,22.9,49.7,23.4,49.4,23.8z"/>
	<rect x="55.6" y="16.7" width="2.8" height="2.8"/>
	<rect x="21.7" y="16.7" width="2.8" height="2.8"/>
	<rect x="27.3" y="16.7" width="2.8" height="2.8"/>
	<rect x="33" y="16.7" width="2.8" height="2.8"/>
	<rect x="21.7" y="63.4" width="25.5" height="2.8"/>
	<rect x="21.7" y="69" width="2.8" height="2.8"/>
	<rect x="27.3" y="69" width="2.8" height="2.8"/>
	<rect x="35.8" y="69" width="2.8" height="2.8"/>
	<rect x="41.5" y="69" width="2.8" height="2.8"/>
</g>
</svg>
