<svg id="nectarin_l.svg" data-name="nectarin l.svg" xmlns="http://www.w3.org/2000/svg" xmlns:xlink="http://www.w3.org/1999/xlink" viewBox="0 0 127.1 40"><defs><style>.cls-1{fill:none;}.cls-2{fill:#fff;fill-opacity:0;}.cls-3{clip-path:url(#clip-path);}.cls-4{fill:#2678bd;}</style><clipPath id="clip-path" transform="translate(0 0)"><rect class="cls-1" x="4.03" y="7.69" width="118.92" height="24.24"/></clipPath></defs><title>daiokan-logo</title><rect id="Прямоугольник_1_копия" data-name="Прямоугольник 1 копия" class="cls-2" width="127.1" height="40"/><g class="cls-3"><path class="cls-4" d="M51.94,7.69a.77.77,0,0,1,.78.77.78.78,0,0,1-.78.78H48.69a.78.78,0,0,1-.77-.78.77.77,0,0,1,.77-.77ZM62.57,22.32a.55.55,0,0,1-.54-.54,2.13,2.13,0,0,0-2.13-2.14.54.54,0,0,1,0-1.08,3.22,3.22,0,0,1,3.22,3.22.55.55,0,0,1-.55.54m-13.66-9V29.08h4.65v2.85H46.79a.73.73,0,0,1-.73-.73v-20a.73.73,0,0,1,.73-.73h6.77v2.85ZM73,10.48a.73.73,0,0,1,.73.73v20a.73.73,0,0,1-.73.73H66.24V29.08h4.64V13.33H66.24V10.48ZM31.7,21.71a4.06,4.06,0,0,0-4.08-4,4.1,4.1,0,1,0,4.08,4m-.05,5a5,5,0,0,1-4.36,2.18,7,7,0,0,1-6.93-7,7.14,7.14,0,0,1,7.09-7.18A4.88,4.88,0,0,1,31.65,17V15h4.83v2.89h-1.7v7.74h1.7v2.88H31.65Zm77.44-8.8h-1.75V15h4.84V17a4.35,4.35,0,0,1,4-2.22,5.34,5.34,0,0,1,3.9,1.67c1.11,1.24,1.14,2.43,1.14,4v5.29H123v2.88h-6.58V25.66h1.75V21.28a3.94,3.94,0,0,0-.53-2.43,3,3,0,0,0-2.38-1.09,3,3,0,0,0-2.45,1.14,4.78,4.78,0,0,0-.58,2.84v3.92h1.74v2.88h-6.58V25.66h1.75Zm-7.6,3.79a4.05,4.05,0,0,0-4.07-4,4.1,4.1,0,1,0,4.07,4m0,5a5,5,0,0,1-4.35,2.18,7,7,0,0,1-6.93-7,7.14,7.14,0,0,1,7.08-7.18,4.85,4.85,0,0,1,4.2,2.27V15h4.84v2.89h-1.7v7.74h1.7v2.88h-4.84ZM84,17.61H82.59V15h6.65v2.89H87.6l-3.73,3.59,3.95,4.15H90v2.88H82.59V25.66h1.13l-3.21-3.54v3.54h1.21v2.88H75.65V25.66h1.77V13.36H75.65V10.48h4.86v10.6ZM64,21.8a4.12,4.12,0,1,0-4.15,4.14A4.15,4.15,0,0,0,64,21.8m-11.33-.05A7.21,7.21,0,1,1,59.87,29a7.24,7.24,0,0,1-7.18-7.28M42.36,25.66H44.1v2.88H37.5V25.66h1.77V17.92H37.52V15h4.84ZM39.27,10.48h3.09v3.26H39.27Zm-23.93,16a5.1,5.1,0,0,1-4.43,2.22,7,7,0,0,1,0-13.94A5.63,5.63,0,0,1,15.34,17V13.36H13.57V10.48h4.86V25.66h1.74v2.88H15.34Zm.08-4.78a4.08,4.08,0,0,0-4.05-4,4.11,4.11,0,1,0,4.05,4" transform="translate(0 0)"/></g></svg>