<?xml version="1.0" encoding="utf-8"?>
<!-- Generator: Adobe Illustrator 23.0.1, SVG Export Plug-In . SVG Version: 6.00 Build 0)  -->
<svg version="1.1" id="Слой_1" xmlns="http://www.w3.org/2000/svg" xmlns:xlink="http://www.w3.org/1999/xlink" x="0px" y="0px"
	 viewBox="0 0 60 60" style="enable-background:new 0 0 60 60;" xml:space="preserve">
<style type="text/css">
	.st0{fill:#0071B3;}
</style>
<path class="st0" d="M0.4,49.5c0,3,2.5,5.5,5.5,5.5h42.4l3.3,3.3c0.9,0.9,2.1,1.4,3.3,1.4c1.3,0,2.5-0.5,3.3-1.4
	c1.8-1.8,1.8-4.9,0-6.7L46.7,40c-0.3-0.3-0.8-0.3-1.1,0l-2.2,2.2l-1.7-1.7l0.2-0.3c2.5-2.9,3.9-6.7,3.9-10.5c0-3.5-1.1-6.8-3.2-9.6
	c-2-2.7-4.9-4.7-8.1-5.7c-0.4-0.1-0.9,0.1-1,0.5c-0.1,0.4,0.1,0.9,0.5,1c6.1,1.9,10.2,7.5,10.2,13.8c0,8-6.5,14.5-14.5,14.5
	s-14.5-6.5-14.5-14.5c0-6.3,4-11.9,10.1-13.8c0.4-0.1,0.7-0.6,0.5-1c-0.1-0.4-0.6-0.7-1-0.5c-3.2,1-6,3-8,5.8
	c-2.1,2.8-3.2,6.1-3.2,9.6c0,8.9,7.2,16.1,16.1,16.1c3.9,0,7.6-1.4,10.5-3.9l0.3-0.2l1.7,1.7L40,45.5c-0.3,0.3-0.3,0.8,0,1.1
	l6.6,6.6H5.9c-2.1,0-3.9-1.7-3.9-3.9V10.4l0.4,0l55.6,0v36.5c0,0.4,0.4,0.8,0.8,0.8s0.8-0.4,0.8-0.8v-41c0-3-2.5-5.5-5.5-5.5H5.9
	c-3,0-5.5,2.5-5.5,5.5V49.5z M45,49.4l2.2-2.2c0.3-0.3,0.3-0.8,0-1.1c-0.3-0.3-0.8-0.3-1.1,0l-2.2,2.2l-2.1-2.1l4.4-4.4l11,11
	c1.2,1.2,1.2,3.2,0,4.4c-0.6,0.6-1.4,0.9-2.2,0.9c-0.8,0-1.6-0.3-2.2-0.9L45,49.4z M2,5.9C2,3.7,3.7,2,5.9,2h48.3
	C56.3,2,58,3.7,58,5.9v2.9l-56,0V5.9z"/>
<path class="st0" d="M52.5,4.6H26c-0.4,0-0.8,0.4-0.8,0.8s0.4,0.8,0.8,0.8h26.5c0.4,0,0.8-0.4,0.8-0.8S52.9,4.6,52.5,4.6z"/>
<path class="st0" d="M12.2,4.6c-0.2,0-0.4,0.1-0.6,0.2c-0.2,0.2-0.2,0.4-0.2,0.6c0,0.2,0.1,0.4,0.2,0.6c0.3,0.3,0.8,0.3,1.1,0
	C12.9,5.8,13,5.6,13,5.4c0-0.2-0.1-0.4-0.2-0.6C12.6,4.7,12.4,4.6,12.2,4.6z"/>
<path class="st0" d="M7.5,4.6c-0.2,0-0.4,0.1-0.6,0.2C6.8,5,6.7,5.2,6.7,5.4c0,0.2,0.1,0.4,0.2,0.6c0.3,0.3,0.8,0.3,1.1,0
	c0.2-0.2,0.2-0.4,0.2-0.6c0-0.2-0.1-0.4-0.2-0.6C7.9,4.7,7.7,4.6,7.5,4.6z"/>
<path class="st0" d="M16.9,4.6c-0.2,0-0.4,0.1-0.6,0.2c-0.2,0.2-0.2,0.4-0.2,0.6c0,0.2,0.1,0.4,0.2,0.6c0.3,0.3,0.8,0.3,1.1,0
	c0.2-0.2,0.2-0.4,0.2-0.6c0-0.2-0.1-0.4-0.2-0.6C17.3,4.7,17.1,4.6,16.9,4.6z"/>
<path class="st0" d="M29.7,13.6L29.7,13.6c-0.5,0-0.9,0.4-0.9,0.8s0.4,0.8,0.8,0.8c0.5,0,0.8-0.4,0.9-0.8c0-0.2-0.1-0.4-0.2-0.6
	C30.2,13.7,30,13.6,29.7,13.6z"/>
<path class="st0" d="M15.5,46.5h-8c-0.4,0-0.8,0.4-0.8,0.8s0.4,0.8,0.8,0.8h8c0.4,0,0.8-0.4,0.8-0.8S16,46.5,15.5,46.5z"/>
<path class="st0" d="M12.7,41.8H7.5c-0.4,0-0.8,0.4-0.8,0.8s0.4,0.8,0.8,0.8h5.2c0.4,0,0.8-0.4,0.8-0.8S13.1,41.8,12.7,41.8z"/>
<path class="st0" d="M20.5,47.9c0.1-0.1,0.2-0.4,0.2-0.6s-0.1-0.4-0.2-0.6c-0.2-0.2-0.4-0.2-0.6-0.2c-0.2,0-0.4,0.1-0.6,0.2
	c-0.2,0.2-0.2,0.4-0.2,0.6s0.1,0.4,0.2,0.6C19.7,48.2,20.2,48.2,20.5,47.9z"/>
<path class="st0" d="M43.3,14.2c-0.4,0-0.8,0.4-0.8,0.8s0.4,0.8,0.8,0.8h9.2c0.4,0,0.8-0.4,0.8-0.8s-0.4-0.8-0.8-0.8H43.3z"/>
<path class="st0" d="M52.5,18.9H48c-0.4,0-0.8,0.4-0.8,0.8s0.4,0.8,0.8,0.8h4.5c0.4,0,0.8-0.4,0.8-0.8S52.9,18.9,52.5,18.9z"/>
<path class="st0" d="M38.6,30.6h-2.1l0-0.3c0-0.3-0.1-0.6-0.1-0.9l0-0.2l1.9-1.9c0.3-0.3,0.3-0.8,0-1.1c-0.3-0.3-0.8-0.3-1.1,0
	l-1.4,1.4l-0.2-0.4c-0.6-1-1.5-1.8-2.5-2.3l-0.2-0.1v-1c0-1.6-1.3-2.9-2.9-2.9h-0.3c-1.6,0-2.9,1.3-2.9,2.9v1l-0.2,0.1
	c-1,0.5-1.9,1.4-2.5,2.4l-0.2,0.4l-1.4-1.4c-0.2-0.2-0.4-0.2-0.6-0.2c0,0,0,0,0,0c-0.2,0-0.4,0.1-0.6,0.2c-0.2,0.2-0.2,0.4-0.2,0.6
	c0,0.2,0.1,0.4,0.2,0.6l2,2l0,0.2C23,29.7,23,30,23,30.2l0,0.3h-2.2c-0.4,0-0.8,0.4-0.8,0.8c0,0.4,0.4,0.8,0.8,0.8H23l0,0.3
	c0,0.3,0.1,0.6,0.1,0.9l0,0.2l-2,2c-0.2,0.2-0.2,0.4-0.2,0.6c0,0.2,0.1,0.4,0.2,0.6c0.3,0.3,0.8,0.3,1.1,0l1.4-1.4l0.2,0.4
	c1.2,2,3.3,3.1,5.6,3.1h0.3c2.3,0,4.4-1.2,5.6-3.1l0.2-0.4l1.4,1.4c0.3,0.3,0.8,0.3,1.1,0c0.2-0.2,0.2-0.4,0.2-0.6s-0.1-0.4-0.2-0.6
	l-1.9-1.9l0-0.2c0.1-0.3,0.1-0.6,0.1-0.9l0-0.3h2.1c0.4,0,0.8-0.4,0.8-0.8C39.4,31,39,30.6,38.6,30.6z M28.3,23.6
	c0-0.7,0.6-1.2,1.2-1.2h0.3c0.7,0,1.2,0.6,1.2,1.2V24l-0.4,0h-2.4V23.6z M34.9,32.2c0,2.8-2.2,5-5,5h-0.3c-2.8,0-5-2.2-5-5v-1.6
	c0-2.8,2.2-5,5-5h0.3c2.8,0,5,2.2,5,5V32.2z"/>
</svg>
