<svg width="70" height="70" viewBox="0 0 70 70" fill="none" xmlns="http://www.w3.org/2000/svg">
<path d="M69.0206 9.92676L60.0714 0.977556C58.7679 -0.325921 56.6469 -0.325784 55.3434 0.977556L38.4938 17.827C38.0719 18.2491 38.0719 18.933 38.4938 19.355C38.9157 19.7768 39.5997 19.7768 40.0216 19.355L56.8711 2.50553C57.0945 2.28213 57.3915 2.15922 57.7073 2.15922C58.0231 2.15922 58.32 2.28213 58.5434 2.50553L67.4928 11.4547C67.716 11.678 67.8391 11.9749 67.8391 12.2909C67.8391 12.6067 67.716 12.9037 67.4928 13.1269L65.2965 15.3232L59.5422 9.56896C59.1203 9.14719 58.4363 9.14719 58.0143 9.56896C57.5924 9.99101 57.5924 10.6749 58.0143 11.0969L63.7686 16.8512L61.2594 19.3603L58.7303 16.8313C58.3084 16.4095 57.6244 16.4095 57.2025 16.8313C56.7806 17.2534 56.7806 17.9372 57.2025 18.3593L59.7315 20.8882L57.2223 23.3974L54.6933 20.8684C54.2714 20.4466 53.5874 20.4466 53.1655 20.8684C52.7436 21.2904 52.7436 21.9743 53.1655 22.3963L55.6945 24.9252L53.1853 27.4344L47.4309 21.6799C47.0092 21.2583 46.325 21.258 45.9031 21.6799C45.4812 22.102 45.4812 22.7858 45.9031 23.2079L51.6575 28.9622L49.1483 31.4714L46.6193 28.9424C46.1973 28.5206 45.5133 28.5206 45.0914 28.9424C44.6695 29.3645 44.6695 30.0483 45.0914 30.4704L47.6203 32.9993L45.4976 35.122L34.8761 24.5004L36.8517 22.5247C37.2736 22.1027 37.2736 21.4188 36.8517 20.9967C36.4297 20.575 35.7457 20.575 35.3238 20.9967L33.3481 22.9725L13.4189 3.04392C12.0328 1.65787 10.19 0.894568 8.22985 0.894568C6.26972 0.894705 4.42688 1.65801 3.04097 3.04406C1.65478 4.43012 0.891475 6.27281 0.891475 8.23308C0.891475 10.1932 1.65478 12.0361 3.04083 13.4221L22.9696 33.3509L0.977607 55.3434C-0.325869 56.647 -0.325869 58.7679 0.977607 60.0715L9.92681 69.0208C10.5582 69.6522 11.3978 70 12.2908 70C13.1839 70 14.0234 69.6522 14.6548 69.0208L36.6471 47.0285L38.2135 48.5949C38.6354 49.0167 39.3194 49.0167 39.7413 48.5949C40.1632 48.1729 40.1632 47.489 39.7413 47.067L37.5793 44.9049C37.5373 44.8384 37.4881 44.7753 37.4302 44.7174C37.3724 44.6596 37.3092 44.6104 37.2429 44.5684L13.8335 21.159L16.7308 18.2618L18.522 20.0531C18.733 20.2639 19.0094 20.3695 19.286 20.3695C19.5626 20.3695 19.8391 20.2639 20.05 20.0531C20.4719 19.6311 20.4719 18.9472 20.05 18.5251L18.2589 16.734L21.1561 13.8368L32.5829 25.2636L32.5842 25.2651L32.5858 25.2665L44.6281 37.3088C44.6579 37.3482 44.6896 37.3867 44.7256 37.4227C44.7615 37.4586 44.7999 37.4904 44.8393 37.5202L60.872 53.5529C50.7961 63.6289 64.2016 50.2232 53.5492 60.875L43.2822 50.6078C42.8603 50.1861 42.1763 50.1861 41.7544 50.6078C41.3325 51.0299 41.3325 51.7138 41.7544 52.1358L52.7854 63.1668C52.8903 63.2717 53.0201 63.3563 53.1584 63.4099L66.212 68.4779C66.4179 68.5578 66.6326 68.5966 66.8456 68.5966C67.3025 68.5966 67.7512 68.4178 68.086 68.0827C68.577 67.5914 68.7315 66.8559 68.4798 66.2087L63.4064 53.1611C63.3528 53.0232 63.2682 52.8931 63.1634 52.7885L47.0253 36.6504L69.0206 14.6549C70.3242 13.3513 70.3242 11.2304 69.0206 9.92676ZM35.1197 45.5007L32.9996 47.6203L30.4706 45.0912C30.0487 44.6695 29.3647 44.6695 28.9427 45.0912C28.5208 45.5133 28.5208 46.1972 28.9427 46.6192L31.4718 49.1482L28.9626 51.6574L23.2082 45.9031C22.7863 45.4813 22.1023 45.4813 21.6804 45.9031C21.2585 46.3251 21.2585 47.009 21.6804 47.431L27.4347 53.1854L24.9255 55.6946L22.3965 53.1656C21.9746 52.7438 21.2906 52.7438 20.8687 53.1656C20.4468 53.5876 20.4468 54.2715 20.8687 54.6935L23.3977 57.2224L20.8885 59.7316L18.3595 57.2026C17.9376 56.7808 17.2536 56.7808 16.8316 57.2026C16.4097 57.6247 16.4097 58.3085 16.8316 58.7306L19.3607 61.2596L16.8515 63.7688L11.0971 58.0144C10.6752 57.5927 9.9912 57.5927 9.56929 58.0144C9.14737 58.4365 9.14737 59.1204 9.56929 59.5424L15.3236 65.2966L13.1274 67.4929C12.904 67.7163 12.607 67.8393 12.2912 67.8393C11.9754 67.8393 11.6784 67.7163 11.455 67.4929L2.50585 58.5435C2.04483 58.0825 2.04483 57.3323 2.50585 56.8713L24.498 34.879L35.1197 45.5007ZM4.56866 11.8943C2.54987 9.87549 2.54987 6.59068 4.56866 4.57189C6.58745 2.55297 9.87226 2.55297 11.891 4.57189L15.3057 7.98658L7.98335 15.309L4.56866 11.8943ZM15.9676 15.9692L15.9662 15.9705L12.3057 19.6311L9.51132 16.8367L16.8337 9.51427L19.6281 12.3087L15.9676 15.9692ZM66.1304 66.1283L55.4849 61.9954L61.9929 55.4875L66.1304 66.1283Z" fill="black"/>
<path d="M41.7983 40.2741L57.9743 56.4501L56.4461 57.9778L22.3633 23.8951C21.9414 23.473 21.9414 22.7892 22.3633 22.3671C22.7852 21.9453 23.4692 21.9453 23.8911 22.3671L35.2857 33.7615C35.2966 33.7716 35.3083 33.7809 35.3189 33.7916L41.7696 40.2424C41.7798 40.2525 41.7886 40.2636 41.7983 40.2741Z" fill="#0071B3"/>
</svg>
