<?xml version="1.0" encoding="utf-8"?>
<!-- Generator: Adobe Illustrator 23.0.1, SVG Export Plug-In . SVG Version: 6.00 Build 0)  -->
<svg version="1.1" id="Слой_1" xmlns="http://www.w3.org/2000/svg" xmlns:xlink="http://www.w3.org/1999/xlink" x="0px" y="0px"
	 width="70px" height="70px" viewBox="0 0 70 70" style="enable-background:new 0 0 70 70;" xml:space="preserve">
<style type="text/css">
	.st0{fill:#0071B3;}
</style>
<g>
	<polygon class="st0" points="16,16 16,16 16,16 	"/>
	<path class="st0" d="M69,10L60,1c-0.6-0.6-1.4-1-2.3-1c-0.9,0-1.7,0.3-2.3,1L38.6,17.9c-0.2,0.2-0.3,0.4-0.3,0.7
		c0,0.3,0.1,0.5,0.3,0.7c0.2,0.2,0.4,0.3,0.7,0.3s0.5-0.1,0.7-0.3L56.8,2.4c0.2-0.2,0.6-0.4,0.9-0.4c0.3,0,0.7,0.1,0.9,0.4l9,8.9
		c0.2,0.2,0.4,0.6,0.4,0.9s-0.1,0.7-0.4,0.9l-2.3,2.3l-5.8-5.8c-0.4-0.4-1-0.4-1.4,0c-0.4,0.4-0.4,1,0,1.4l5.8,5.8l-2.6,2.6
		l-2.6-2.6c-0.2-0.2-0.4-0.3-0.7-0.3c-0.3,0-0.5,0.1-0.7,0.3c-0.4,0.4-0.4,1,0,1.4l2.6,2.6l-2.6,2.6l-2.6-2.6c-0.4-0.4-1-0.4-1.4,0
		c-0.4,0.4-0.4,1,0,1.4l2.6,2.6l-2.6,2.6l-5.8-5.8c-0.4-0.4-1-0.4-1.4,0c-0.4,0.4-0.4,1,0,1.4l5.8,5.8l-2.6,2.6L46.6,29
		c-0.2-0.2-0.4-0.3-0.7-0.3s-0.5,0.1-0.7,0.3c-0.4,0.4-0.4,1,0,1.4l2.6,2.6l-2.2,2.2L34.8,24.5l2-2c0.4-0.4,0.4-1,0-1.4
		c-0.4-0.4-1-0.4-1.4,0l-2,2l-20-20C12,1.7,10.2,1,8.2,1S4.5,1.7,3.1,3.1S1,6.3,1,8.2c0,1.9,0.8,3.8,2.1,5.1l20,20l-22,22
		c-1.3,1.3-1.3,3.3,0,4.6L10,69c0.6,0.6,1.4,1,2.3,1c0.9,0,1.7-0.3,2.3-1l22-22l1.6,1.6c0.2,0.2,0.4,0.3,0.7,0.3s0.5-0.1,0.7-0.3
		c0.2-0.2,0.3-0.4,0.3-0.7s-0.1-0.5-0.3-0.7L37.5,45c-0.1-0.1-0.1-0.1-0.1-0.2c-0.1-0.1-0.1-0.1-0.2-0.1L13.7,21.2l3-3l1.8,1.8
		c0.2,0.2,0.4,0.3,0.7,0.3c0.3,0,0.5-0.1,0.7-0.3c0.4-0.4,0.4-1,0-1.4l-1.8-1.8l3-3l23.5,23.5c0,0,0.1,0.1,0.1,0.1
		c0,0,0.1,0.1,0.1,0.1L61,53.6l-3.3,3.3c-0.1,0.1-0.2,0.2-0.3,0.3c-0.1,0.1-0.2,0.2-0.3,0.3l-0.3,0.3c-0.7,0.7-1.8,1.8-3.3,3.3
		L53.5,61L43.2,50.7c-0.4-0.4-1-0.4-1.4,0c-0.2,0.2-0.3,0.4-0.3,0.7c0,0.3,0.1,0.5,0.3,0.7l11,11c0.1,0.1,0.2,0.2,0.3,0.2l13.1,5.1
		c0.2,0.1,0.4,0.1,0.6,0.1c0.4,0,0.9-0.2,1.2-0.5c0.5-0.5,0.6-1.2,0.4-1.8l-5.1-13c-0.1-0.1-0.1-0.2-0.2-0.3L46.9,36.7L69,14.6
		C70.2,13.3,70.2,11.3,69,10z M35.2,45.5L33,47.7l-2.6-2.6c-0.4-0.4-1-0.4-1.4,0c-0.4,0.4-0.4,1,0,1.4l2.6,2.6L29,51.8L23.2,46
		c-0.4-0.4-1-0.4-1.4,0c-0.4,0.4-0.4,1,0,1.4l5.8,5.8l-2.6,2.6l-2.6-2.6c-0.4-0.4-1-0.4-1.4,0c-0.4,0.4-0.4,1,0,1.4l2.6,2.6
		l-2.6,2.6l-2.6-2.6c-0.4-0.4-1-0.4-1.4,0c-0.4,0.4-0.4,1,0,1.4l2.6,2.6l-2.6,2.6L11,58.1c-0.4-0.4-1-0.4-1.4,0
		c-0.4,0.4-0.4,1,0,1.4l5.8,5.8l-2.3,2.3c-0.2,0.2-0.6,0.4-0.9,0.4s-0.7-0.1-0.9-0.4l-8.9-8.9c-0.5-0.5-0.5-1.3,0-1.8l22-22
		L35.2,45.5z M4.5,12c-2-2.1-2-5.4,0-7.4c1-1,2.3-1.5,3.7-1.5c1.4,0,2.7,0.5,3.7,1.5L15.4,8L8,15.4L4.5,12z M12.3,19.7l-2.9-2.9
		l7.4-7.4l2.9,2.9L12.3,19.7z M62.1,55.5l4.2,10.8l-0.2-0.1L55.3,62l6.7-6.7L62.1,55.5z"/>
</g>
<path class="st0" d="M22.4,23.8l34,34l1.4-1.4L41.7,40.3c0,0,0,0,0,0L23.8,22.4c-0.2-0.2-0.5-0.3-0.7-0.3c-0.3,0-0.5,0.1-0.7,0.3
	C22,22.8,22,23.4,22.4,23.8z"/>
</svg>
