<?xml version="1.0" encoding="utf-8"?>
<!-- Generator: Adobe Illustrator 23.0.1, SVG Export Plug-In . SVG Version: 6.00 Build 0)  -->
<svg version="1.1" id="Слой_1" xmlns="http://www.w3.org/2000/svg" xmlns:xlink="http://www.w3.org/1999/xlink" x="0px" y="0px"
	 width="70px" height="70px" viewBox="0 0 70 70" style="enable-background:new 0 0 70 70;" xml:space="preserve">
<g>
	<polygon points="16.1,16.1 16.1,16.1 16.1,16.1 	"/>
	<path d="M68.7,10.2l-8.9-8.9c-0.6-0.6-1.4-1-2.3-1c-0.9,0-1.7,0.3-2.3,1L38.5,18c-0.2,0.2-0.3,0.4-0.3,0.7c0,0.3,0.1,0.5,0.3,0.7
		c0.4,0.4,1,0.4,1.4,0L56.7,2.7c0.2-0.2,0.5-0.4,0.9-0.4c0.3,0,0.6,0.1,0.9,0.4l8.9,8.9c0.2,0.2,0.4,0.5,0.4,0.9
		c0,0.3-0.1,0.6-0.4,0.9l-2.2,2.2l0,0l-5.7-5.7c-0.2-0.2-0.4-0.3-0.7-0.3c-0.3,0-0.5,0.1-0.7,0.3c-0.2,0.2-0.3,0.4-0.3,0.7
		c0,0.3,0.1,0.5,0.3,0.7l5.8,5.8l0,0l-2.5,2.5l0,0L58.5,17c-0.4-0.4-1-0.4-1.4,0s-0.4,1,0,1.4l2.6,2.6l0,0L57,23.6l0,0L54.5,21
		c-0.4-0.4-1-0.4-1.4,0c-0.2,0.2-0.3,0.4-0.3,0.7c0,0.3,0.1,0.5,0.3,0.7l2.6,2.6l0,0L53,27.6l0,0l-5.7-5.7c-0.2-0.2-0.4-0.3-0.7-0.3
		c-0.3,0-0.5,0.1-0.7,0.3c-0.2,0.2-0.3,0.4-0.3,0.7c0,0.3,0.1,0.5,0.3,0.7l5.8,5.8l0,0L49,31.6l0,0L46.5,29c-0.4-0.4-1-0.4-1.4,0
		c-0.2,0.2-0.3,0.4-0.3,0.7c0,0.3,0.1,0.5,0.3,0.7l2.6,2.6l0,0l-2.1,2.1l0,0L34.8,24.6l2-2c0.4-0.4,0.4-1,0-1.4
		c-0.2-0.2-0.4-0.3-0.7-0.3c-0.3,0-0.5,0.1-0.7,0.3l-2,2L13.5,3.3C12.2,2,10.4,1.2,8.4,1.2C6.5,1.2,4.7,2,3.3,3.3
		C2,4.7,1.2,6.5,1.2,8.4c0,1.9,0.8,3.7,2.1,5.1l19.8,19.8L1.3,55.2c-0.6,0.6-1,1.4-1,2.3s0.3,1.7,1,2.3l8.9,8.9c0.6,0.6,1.4,1,2.3,1
		s1.7-0.3,2.3-1l21.9-21.9l0,0l1.6,1.6c0.2,0.2,0.4,0.3,0.7,0.3c0,0,0,0,0,0c0.3,0,0.5-0.1,0.7-0.3c0.4-0.4,0.4-1,0-1.4l-2.1-2.1
		c0-0.1-0.1-0.1-0.1-0.2c-0.1-0.1-0.1-0.1-0.2-0.1L13.9,21.3l3-3l1.8,1.8c0.2,0.2,0.4,0.3,0.7,0.3c0.3,0,0.5-0.1,0.7-0.3
		c0.2-0.2,0.3-0.4,0.3-0.7c0-0.3-0.1-0.5-0.3-0.7l-1.8-1.8l3-3l23.3,23.3c0,0,0.1,0.1,0.1,0.1c0,0,0.1,0.1,0.1,0.1l16,16l0,0
		l-3.8,3.8c0,0-0.1,0.1-0.1,0.1c-0.1,0.1-0.1,0.1-0.1,0.1c-0.7,0.7-1.7,1.7-3.3,3.3l0,0l0,0L43.2,50.5c-0.4-0.4-1-0.4-1.4,0
		c-0.4,0.4-0.4,1,0,1.4l10.9,10.9c0.1,0.1,0.2,0.2,0.3,0.2l12.9,5c0.2,0.1,0.4,0.1,0.6,0.1c0.4,0,0.9-0.2,1.2-0.5
		c0.5-0.5,0.6-1.2,0.4-1.8l-5-12.9c0-0.1-0.1-0.3-0.2-0.3L46.8,36.6l0,0l21.8-21.8C70,13.5,70,11.4,68.7,10.2z M35.2,45.4L35.2,45.4
		L33,47.6l0,0l-2.5-2.5c-0.4-0.4-1-0.4-1.4,0c-0.4,0.4-0.4,1,0,1.4l2.6,2.6l0,0L29,51.6l0,0l-5.7-5.7c-0.2-0.2-0.4-0.3-0.7-0.3
		s-0.5,0.1-0.7,0.3c-0.2,0.2-0.3,0.4-0.3,0.7c0,0.3,0.1,0.5,0.3,0.7l5.8,5.8l0,0L25,55.6l0,0l-2.5-2.5c-0.4-0.4-1-0.4-1.4,0
		c-0.2,0.2-0.3,0.4-0.3,0.7c0,0.3,0.1,0.5,0.3,0.7l2.6,2.6l0,0L21,59.6l0,0l-2.5-2.5c-0.4-0.4-1-0.4-1.4,0c-0.2,0.2-0.3,0.4-0.3,0.7
		c0,0.3,0.1,0.5,0.3,0.7l2.6,2.6l0,0L17,63.6l0,0l-5.7-5.7c-0.2-0.2-0.4-0.3-0.7-0.3s-0.5,0.1-0.7,0.3c-0.4,0.4-0.4,1,0,1.4l5.8,5.8
		l0,0l-2.2,2.2c-0.2,0.2-0.5,0.4-0.9,0.4s-0.6-0.1-0.9-0.4l-8.9-8.9c-0.5-0.5-0.5-1.3,0-1.7l21.9-21.9L35.2,45.4z M4.8,12.1
		c-2-2-2-5.3,0-7.3c2-2,5.3-2,7.3,0l3.4,3.4l-7.3,7.3L4.8,12.1z M12.5,19.8L9.6,17L17,9.6l2.9,2.9L12.5,19.8z M61.8,55.3L66,66
		l-0.1,0l-10.6-4.1l0.1-0.1L61.8,55.3L61.8,55.3z"/>
</g>
<path d="M22.5,23.9l33.8,33.8l1.4-1.4L35.3,33.8c0,0,0,0,0,0l0,0L23.9,22.5c-0.2-0.2-0.4-0.3-0.7-0.3s-0.5,0.1-0.7,0.3
	C22.1,22.9,22.1,23.5,22.5,23.9z"/>
</svg>
