<?xml version="1.0" encoding="utf-8"?>
<!-- Generator: Adobe Illustrator 23.0.1, SVG Export Plug-In . SVG Version: 6.00 Build 0)  -->
<svg version="1.1" id="Слой_1" xmlns="http://www.w3.org/2000/svg" xmlns:xlink="http://www.w3.org/1999/xlink" x="0px" y="0px"
	 viewBox="0 0 60 60" style="enable-background:new 0 0 60 60;" xml:space="preserve">
<style type="text/css">
	.st0{fill:#FFFFFF;}
</style>
<path class="st0" d="M59.1,8.5l-7.7-7.7C50.9,0.3,50.2,0,49.5,0s-1.5,0.3-2,0.8L33.1,15.3c-0.3,0.3-0.3,0.8,0,1.1s0.8,0.3,1.1,0
	L48.7,2c0.4-0.4,1.2-0.4,1.6,0L58,9.7c0.2,0.2,0.3,0.5,0.3,0.8s-0.1,0.6-0.3,0.8l-2,2l-0.1-0.1L51,8.3c-0.3-0.3-0.8-0.3-1.1,0
	s-0.3,0.8,0,1.1l5,5l-2.3,2.3l-2.3-2.3c-0.3-0.3-0.8-0.3-1.1,0C49,14.6,49,14.8,49,15s0.1,0.4,0.2,0.6l2.3,2.3L49,20.1l-2.3-2.3
	c-0.3-0.3-0.8-0.3-1.1,0s-0.3,0.8,0,1.1l2.3,2.3l-2.3,2.3l-0.1-0.1l-4.9-4.9c-0.3-0.3-0.8-0.3-1.1,0c-0.2,0.2-0.2,0.4-0.2,0.6
	s0.1,0.4,0.2,0.6l5,5L42.2,27l-2.3-2.3c-0.3-0.3-0.8-0.3-1.1,0s-0.3,0.8,0,1.1l2.3,2.3l-2,2L39,30l-9.2-9.2l1.8-1.8
	c0.3-0.3,0.3-0.8,0-1.1c-0.3-0.3-0.8-0.3-1.1,0l-1.8,1.8L11.4,2.6C10.2,1.4,8.7,0.8,7,0.8c-1.6,0-3.2,0.6-4.4,1.8
	C1.5,3.8,0.9,5.3,0.9,7s0.6,3.2,1.8,4.4l17.2,17.2l-19,18.8c-1.1,1.1-1.1,2.8,0,3.9L8.6,59c0.5,0.5,1.2,0.8,1.9,0.8s1.4-0.3,1.9-0.8
	l19-19l1.4,1.4c0.2,0.2,0.4,0.2,0.6,0.2s0.4-0.1,0.6-0.2c0.2-0.2,0.2-0.4,0.2-0.6s-0.1-0.4-0.2-0.6l-1.9-1.9c0-0.1-0.1-0.1-0.1-0.2
	L31.9,38L11.7,18l2.7-2.7L16,17c0.3,0.3,0.8,0.3,1.1,0c0.3-0.3,0.3-0.8,0-1.1l-1.6-1.6l2.7-2.7l20.2,20.2l0.1,0.1l0.1,0.1l13.8,13.8
	l-0.1,0.1l-2.7,2.7c-0.1,0.1-0.2,0.2-0.3,0.3C49.2,49,49.1,49,49,49.1l-0.2,0.2c-0.6,0.6-1.5,1.5-2.8,2.8l-0.1,0.1l-0.1-0.1L37,43.4
	c-0.3-0.3-0.8-0.3-1.1,0s-0.3,0.8,0,1.1l9.5,9.5c0.1,0.1,0.2,0.1,0.3,0.2l11.2,4.3c0.5,0.2,1.1,0.1,1.5-0.3c0.4-0.4,0.5-1,0.3-1.5
	l-4.3-11.2c0-0.1-0.1-0.2-0.2-0.3L40.1,31.3l0.1-0.1l18.9-18.9C60.1,11.3,60.1,9.6,59.1,8.5z M30.3,38.9l-2,2L26,38.6
	c-0.3-0.3-0.8-0.3-1.1,0c-0.2,0.2-0.2,0.4-0.2,0.6s0.1,0.4,0.2,0.6l2.3,2.3l-2.3,2.3l-0.1-0.1l-4.9-4.9c-0.3-0.3-0.8-0.3-1.1,0
	c-0.3,0.3-0.3,0.8,0,1.1l5,5l-2.3,2.3l-2.3-2.3c-0.3-0.3-0.8-0.3-1.1,0c-0.3,0.3-0.3,0.8,0,1.1l2.3,2.3l-2.3,2.3L15.6,49
	c-0.2-0.2-0.4-0.2-0.6-0.2l0,0c-0.2,0-0.4,0.1-0.6,0.2s-0.2,0.4-0.2,0.6s0.1,0.4,0.2,0.6l2.3,2.3l-2.3,2.3l-0.1-0.1l-4.9-4.9
	c-0.3-0.3-0.8-0.3-1.1,0C8,50,8,50.5,8.3,50.9l5,5l-2,2c-0.2,0.2-0.5,0.3-0.8,0.3s-0.6-0.1-0.8-0.3L2,50.2c-0.4-0.4-0.4-1.2,0-1.6
	l19-19L30.3,38.9z M3.8,10.2C3,9.3,2.5,8.2,2.5,7S3,4.6,3.8,3.7s2-1.3,3.2-1.3s2.4,0.5,3.2,1.3l3,3l-6.5,6.5L3.8,10.2z M10.5,16.9
	L8,14.3l6.5-6.5l2.6,2.6L10.5,16.9z M56.9,56.8l-0.3-0.1l-9.3-3.6l5.8-5.8L56.9,56.8z"/>
</svg>
