<svg width="71" height="70" viewBox="0 0 71 70" fill="none" xmlns="http://www.w3.org/2000/svg">
<path d="M8.90039 4.2793C7.12305 4.2793 5.66016 5.74219 5.66016 7.51953C5.66016 9.29688 7.10937 10.7598 8.90039 10.7598C10.6914 10.7598 12.1543 9.31055 12.1543 7.51953C12.1543 5.72852 10.6914 4.2793 8.90039 4.2793ZM8.90039 8.69531C8.25781 8.69531 7.72461 8.16211 7.72461 7.51953C7.72461 6.87695 8.25781 6.34375 8.90039 6.34375C9.54297 6.34375 10.0762 6.87695 10.0762 7.51953C10.0762 8.17578 9.55664 8.69531 8.90039 8.69531Z" fill="#0071B3"/>
<path d="M17.6094 4.2793C15.8184 4.2793 14.3555 5.74219 14.3555 7.51953C14.3555 9.29688 15.8047 10.7598 17.5957 10.7598C19.3867 10.7598 20.8359 9.31055 20.8359 7.51953C20.8359 5.72852 19.3867 4.2793 17.6094 4.2793ZM17.6094 8.69531C16.9668 8.69531 16.4336 8.16211 16.4336 7.51953C16.4336 6.87695 16.9668 6.34375 17.6094 6.34375C18.252 6.34375 18.7852 6.87695 18.7852 7.51953C18.7715 8.17578 18.252 8.69531 17.6094 8.69531Z" fill="#0071B3"/>
<path d="M26.3047 4.2793C24.5137 4.2793 23.0645 5.72852 23.0645 7.51953C23.0645 9.31055 24.5137 10.7598 26.3047 10.7598C28.0957 10.7598 29.5449 9.31055 29.5449 7.51953C29.5449 5.72852 28.0957 4.2793 26.3047 4.2793ZM26.3047 8.69531C25.6621 8.69531 25.1289 8.16211 25.1289 7.51953C25.1289 6.87695 25.6484 6.34375 26.3047 6.34375C26.9609 6.34375 27.4805 6.87695 27.4805 7.51953C27.4805 8.17578 26.9473 8.69531 26.3047 8.69531Z" fill="#0071B3"/>
<path d="M66.1992 0H3.80078C1.70898 0 0 1.70898 0 3.80078V49.4922C0 51.584 1.70898 53.293 3.80078 53.293H10.4863C10.1719 53.7031 10.1992 54.291 10.5684 54.6602L15.5449 59.6367C15.1758 60.4023 14.8477 61.1953 14.5742 61.9883H7.51953C6.94531 61.9883 6.48047 62.4531 6.48047 63.0273V68.9609C6.48047 69.5352 6.94531 70 7.51953 70H27.959C28.5332 70 28.998 69.5352 28.998 68.9609C28.998 65.8027 31.5684 63.2324 34.7266 63.2324C37.8848 63.2324 40.4551 65.8027 40.4551 68.9609C40.4551 69.5352 40.9199 70 41.4941 70H61.9336C62.5078 70 62.9727 69.5352 62.9727 68.9609V63.0273C62.9727 62.4531 62.5078 61.9883 61.9336 61.9883H54.8926C54.6191 61.1816 54.291 60.4023 53.9219 59.6367L58.8984 54.6602C59.2676 54.291 59.2949 53.7031 58.9805 53.293H66.2129C68.3047 53.293 70.0137 51.584 70.0137 49.4922V23.8848C70.0137 23.3105 69.5488 22.8457 68.9746 22.8457C68.4004 22.8457 67.9355 23.3105 67.9355 23.8848V49.4922C67.9355 50.4492 67.1562 51.2148 66.2129 51.2148H56.916L50.8047 45.1172V38.0352C50.8047 37.4609 50.3398 36.9961 49.7656 36.9961H47.9062V30.625L49.3691 29.2715C49.6562 28.998 49.7793 28.5879 49.6562 28.2051L47.168 20.1934C47.0312 19.7559 46.6348 19.4688 46.1836 19.4688H43.4219C42.9707 19.4688 42.5605 19.7695 42.4375 20.1934L39.9492 28.2051C39.8262 28.5879 39.9355 28.998 40.2363 29.2715L41.6992 30.625V37.0098H39.8398C39.2656 37.0098 38.8008 37.4746 38.8008 38.0488V40.7422H30.6523V39.1699L34.6309 35.1914C34.8223 35 34.9316 34.7402 34.9316 34.4531V25.9629C34.9316 25.6895 34.8223 25.416 34.6172 25.2246L29.0938 19.7695C28.793 19.4824 28.3555 19.3867 27.9727 19.5508C27.5898 19.7148 27.3301 20.084 27.3301 20.5078V29.7363L24.6367 31.4316L21.9434 29.7363V29.1484C21.9434 28.5742 21.4785 28.1094 20.9043 28.1094C20.3301 28.1094 19.8652 28.5742 19.8652 29.1484V30.3105C19.8652 30.666 20.043 30.9941 20.3438 31.1855L24.0762 33.5371C24.418 33.7559 24.8418 33.7559 25.1836 33.5371L28.916 31.1855C29.2168 30.9941 29.3945 30.666 29.3945 30.3105V22.9824L32.8398 26.3867V34.0156L28.8613 37.9941C28.6699 38.1855 28.5605 38.4453 28.5605 38.7324V40.7559C28.082 40.8516 27.7266 41.2754 27.7266 41.7676V48.8086C26.9199 49.082 26.1406 49.4102 25.375 49.7793L20.6855 45.0898V38.7324C20.6855 38.459 20.5762 38.1992 20.3848 37.9941L16.4062 34.0156V26.3867L19.8516 22.9824V24.2949C19.8516 24.8691 20.3164 25.334 20.8906 25.334C21.4648 25.334 21.9297 24.8691 21.9297 24.2949V20.5078C21.9297 20.084 21.6836 19.7148 21.2871 19.5508C20.9043 19.3867 20.4531 19.4824 20.166 19.7695L14.6426 25.2246C14.4512 25.416 14.3281 25.6895 14.3281 25.9629V34.4531C14.3281 34.7266 14.4375 34.9863 14.6289 35.1914L18.6074 39.1699V45.1172L12.5098 51.2148H3.80078C2.84375 51.2148 2.07812 50.4355 2.07812 49.4922V15.0391H67.9355V19.0449C67.9355 19.6191 68.4004 20.084 68.9746 20.084C69.5488 20.084 70.0137 19.6191 70.0137 19.0449V3.80078C70 1.70898 68.291 0 66.1992 0ZM43.4355 29.4082L42.123 28.1914L44.1875 21.5332H45.418L47.4824 28.1914L46.1699 29.4082C45.9512 29.5996 45.8418 29.873 45.8418 30.1738V37.0098H43.7773V30.1738C43.7637 29.873 43.6406 29.5996 43.4355 29.4082ZM48.7402 39.0742V45.0898L44.0508 49.7793C43.2852 49.4102 42.4922 49.082 41.6992 48.8086V41.7676C41.6992 41.2617 41.3438 40.8516 40.8652 40.7559V39.0742H48.7402ZM25.6895 51.9531C26.7695 51.3789 27.918 50.9004 29.0938 50.5449C29.5312 50.4082 29.832 50.0117 29.832 49.5605V42.8066H39.6348V49.5605C39.6348 50.0117 39.9355 50.4219 40.373 50.5449C41.5488 50.9004 42.6973 51.3789 43.7773 51.9531C44.1738 52.1719 44.6797 52.0898 44.9941 51.7754L49.7656 47.0039L55.7539 52.9922L56.6973 53.9355L51.9258 58.707C51.5977 59.0352 51.5293 59.5273 51.748 59.9238C52.3223 61.0039 52.8008 62.1523 53.1562 63.3281C53.293 63.7656 53.6895 64.0664 54.1406 64.0664H60.8945V67.9355H50.3672C49.834 59.7734 43.0254 53.3066 34.7266 53.3066C32.5117 53.3066 30.3652 53.7578 28.3555 54.6602C27.8359 54.8926 27.6035 55.5078 27.8359 56.0273C28.0684 56.5469 28.6836 56.7793 29.2031 56.5469C30.9531 55.7676 32.8125 55.3711 34.7266 55.3711C41.877 55.3711 47.7559 60.9219 48.2891 67.9355H42.4648C41.959 64.1211 38.6777 61.168 34.7266 61.168C30.7754 61.168 27.5078 64.1211 26.9883 67.9355H21.1641C21.4102 64.5312 22.9004 61.4141 25.4297 59.0488C25.8535 58.6523 25.8672 57.9961 25.4707 57.5859C25.0742 57.1758 24.418 57.1484 24.0078 57.5449C21.1094 60.2656 19.3594 63.998 19.0859 67.9492H8.55859V64.0801H15.3125C15.7637 64.0801 16.1738 63.7793 16.2969 63.3418C16.6523 62.166 17.1309 61.0176 17.7051 59.9375C17.9238 59.541 17.8418 59.0352 17.5273 58.7207L12.7559 53.9492L13.6992 53.0059L19.6875 47.0176L24.459 51.7891C24.7871 52.0898 25.2793 52.1719 25.6895 51.9531ZM2.06445 12.9746V3.80078C2.06445 2.84375 2.84375 2.07812 3.78711 2.07812H66.1992C67.1562 2.07812 67.9219 2.85742 67.9219 3.80078V12.9883H2.06445V12.9746Z" fill="black"/>
</svg>
