<svg xmlns="http://www.w3.org/2000/svg" viewBox="0 0 82.31 40"><defs><style>.cls-1{fill:#fff;fill-opacity:0;}.cls-2{fill:#2678bd;}</style></defs><title>Ресурс 1</title><g id="Слой_2" data-name="Слой 2"><g id="dragon_sourcing_l.svg" data-name="dragon sourcing l.svg"><rect id="Прямоугольник_1_копия_11" data-name="Прямоугольник 1 копия 11" class="cls-1" width="82.31" height="40"/><g id="Слой_2-2" data-name="Слой 2"><g id="dragon_sourcing_l.svg-2" data-name="dragon sourcing l.svg"><rect id="Прямоугольник_1_копия_11-2" data-name="Прямоугольник 1 копия 11" class="cls-1" x="0.93" y="0.45" width="80.37" height="39.07"/><g id="logo"><path id="Path_378" data-name="Path 378" class="cls-2" d="M3,20.19V12.85a.18.18,0,0,1,.18-.17h8.37a5.63,5.63,0,0,1,1.95.29c.22.08.45.08.67.16a8.89,8.89,0,0,1,2.36,1.29,5.76,5.76,0,0,1,.88,1,7,7,0,0,1,1.17,2.32,12.37,12.37,0,0,1,.3,1.72,5.13,5.13,0,0,1-.1,1.95,10.43,10.43,0,0,1-.45,1.54,6.66,6.66,0,0,1-1,1.72,7.78,7.78,0,0,1-2,1.87,5.7,5.7,0,0,1-1.19.58c-.55.19-1.11.25-1.67.4a3.18,3.18,0,0,1-.75.07H3.38A.36.36,0,0,1,3,27.2C3,24.87,3,22.54,3,20.19Zm5.86,4.75h2.76a5,5,0,0,0,2-.49,4.48,4.48,0,0,0,1.41-1.11A5.49,5.49,0,0,0,15.86,22a5.17,5.17,0,0,0,.16-.68A4.84,4.84,0,0,0,16.23,20a4.22,4.22,0,0,0-.07-.61c-.08-.39-.15-.78-.25-1.16a3,3,0,0,0-.16-.31,3.53,3.53,0,0,0-.82-1.24,4.47,4.47,0,0,0-1.83-1.08,5.6,5.6,0,0,0-1.68-.25H5.9c-.19,0-.26.05-.26.24v8.77a.67.67,0,0,1,0,.2.31.31,0,0,0,.2.39A.3.3,0,0,0,6,25H8.89Z"/><path id="Path_379" data-name="Path 379" class="cls-2" d="M46.48,21.71a3.09,3.09,0,0,0,2.19-1.78l.19.13,4.71,5.23c.55.59,1.09,1.2,1.64,1.81l.11.13.24-.36c.41-.65.82-1.3,1.22-1.95s.81-1.36,1.21-2l.92-1.5.74-1.25L61,18c.47-.77,1-1.54,1.42-2.32L63,14.64l.64-1.05a4.62,4.62,0,0,1,.28-.48,1.42,1.42,0,0,1,1-.58,1.21,1.21,0,0,1,1,.36A4.35,4.35,0,0,1,66.61,14c.32.5.63,1,.93,1.51s.56,1,.84,1.43c.41.67.81,1.35,1.22,2l1,1.53c.45.75.9,1.49,1.34,2.24L73.31,25l1.19,2c.06.09.14.15.18.23a.48.48,0,0,1,.08.31.32.32,0,0,1-.26.12H72a.48.48,0,0,1-.48-.32c-.16-.32-.35-.63-.54-1s-.5-.84-.75-1.26-.48-.72-.72-1.08a.42.42,0,0,0-.45-.16H62.69a.22.22,0,0,1-.19-.24.19.19,0,0,1,.07-.12l.25-.3a9.52,9.52,0,0,0,.56-1,.75.75,0,0,1,.75-.49h3.78c.08,0,.19,0,.21-.07a.81.81,0,0,0,0-.22L67.18,20l-.8-1.3L65.3,16.86c-.09-.14-.18-.27-.28-.4a.16.16,0,0,0-.22,0h0a.11.11,0,0,0-.06.07c-.22.39-.43.78-.67,1.17L62.7,20c-.5.84-1,1.69-1.48,2.53-.39.65-.79,1.3-1.17,1.95s-.6,1-.89,1.52-.49.8-.72,1.21a.82.82,0,0,1-.86.41H55.74a2.3,2.3,0,0,1-.51-.1,2.52,2.52,0,0,0-.54-.14H51.62c-.18,0-.48-.27-.65-.5l-.84-1L49,24.55l-1.13-1.36c-.3-.36-.61-.73-.92-1.08A2.68,2.68,0,0,0,46.48,21.71Z"/><path id="Path_380" data-name="Path 380" class="cls-2" d="M27.63,12.68H34a.31.31,0,0,1,.28.34.09.09,0,0,1,0,.05v1.1a3,3,0,0,0,.06.78.28.28,0,0,1-.21.31h0a4.63,4.63,0,0,1-.52.07H23.75a.22.22,0,0,0-.2.24h0v8.92a.35.35,0,0,0,.33.38h10c.35,0,.47.2.43.5a10.46,10.46,0,0,0,0,1.12v.62a.32.32,0,0,1-.24.38H21.8q-.35,0-.69,0c-.16,0-.21-.13-.21-.29v-14c0-.67.06-.51.52-.51Z"/><path id="Path_383" data-name="Path 383" class="cls-2" d="M77.83,12.68h1c.32,0,.43.13.43.45v14c0,.29-.09.39-.37.39H77.39a4.86,4.86,0,0,1-.54,0c-.35,0-.35-.25-.32-.47a5.61,5.61,0,0,0,0-.58v-13a1.63,1.63,0,0,0-.06-.54c-.06-.17.08-.32.31-.32Z"/><path id="Path_384" data-name="Path 384" class="cls-2" d="M48.9,18.84a3.1,3.1,0,0,0-1.3-2.61l.2-.21,1-1,.9-1,1-1.05c.17-.17.33-.34.48-.52a1,1,0,0,1,.73-.3H55c.23,0,.23,0,.25.07a.26.26,0,0,1,0,.27,2.9,2.9,0,0,1-.34.36l-2.43,2.49c-.3.32-.62.62-1,1l-1.83,1.87c-.14.14-.26.31-.39.45A.51.51,0,0,1,48.9,18.84Z"/><path id="Path_385" data-name="Path 385" class="cls-2" d="M29.56,21.14H25.85c-.42,0-.53-.18-.48-.6a6.63,6.63,0,0,0,0-1.26c0-.29,0-.4.34-.4h7.66c.26,0,.41.12.4.44s0,.91,0,1.37c0,.28-.14.45-.48.46H29.56Z"/><path id="Path_386" data-name="Path 386" class="cls-2" d="M26.53,36.69l-1.11-.1c-.29,0-.41-.19-.41-.53V32.21a4.34,4.34,0,0,1,0-.51.24.24,0,0,1,.22-.22A7.23,7.23,0,0,1,27,31.4a2.37,2.37,0,0,1,.65.09,1.65,1.65,0,0,1,1,.78,1.19,1.19,0,0,1-.1,1.39c-.23.23-.24.3,0,.53A1.36,1.36,0,0,1,29,35.38a1.34,1.34,0,0,1-.65.92,2.21,2.21,0,0,1-1.26.33h-.52Zm.38-1.08h.21a1.06,1.06,0,0,0,.39-.13.55.55,0,0,0,.17-.59.62.62,0,0,0-.5-.46,3.11,3.11,0,0,0-.61,0,.27.27,0,0,0-.3.22v0a.09.09,0,0,0,0,.07,4.51,4.51,0,0,1,0,.52c0,.18,0,.31.2.35a3.55,3.55,0,0,0,.47.06ZM26.33,33v.11c0,.29.06.41.33.43a2.74,2.74,0,0,0,.75-.08.46.46,0,0,0,.34-.48.52.52,0,0,0-.4-.51,5.75,5.75,0,0,0-.83,0,.21.21,0,0,0-.21.22h0V33Z"/><path id="Path_387" data-name="Path 387" class="cls-2" d="M4.58,31.38a6.2,6.2,0,0,1,1,.09,1.61,1.61,0,0,1,1.25,1.21,1.49,1.49,0,0,1-.71,1.68.19.19,0,0,0-.11.22v.05c.23.44.46.87.7,1.3a1.44,1.44,0,0,0,.18.25c.16.22.07.43-.19.44a6,6,0,0,1-.85,0,.38.38,0,0,1-.24-.19c-.23-.4-.46-.81-.67-1.22,0-.09-.09-.19-.15-.28a.63.63,0,0,0-.26-.2c-.24-.06-.34,0-.33.31s0,.45,0,.67a2,2,0,0,0,0,.35c.06.38,0,.56-.42.58H3.18c-.14,0-.2-.11-.2-.26V31.76c0-.23.11-.28.32-.3Zm.13,1.05H4.53a.27.27,0,0,0-.28.25h0v.72a.31.31,0,0,0,.25.33h.06c.2,0,.41,0,.61,0a.44.44,0,0,0,.39-.22.66.66,0,0,0-.18-.88,1.11,1.11,0,0,0-.67-.15Z"/><path id="Path_388" data-name="Path 388" class="cls-2" d="M40,34.06a3.59,3.59,0,0,1-.14,1.38,2,2,0,0,1-.73.91,1.71,1.71,0,0,1-1.14.31,3.42,3.42,0,0,1-.78-.06,1.88,1.88,0,0,1-1.38-1.77V33.67A3.05,3.05,0,0,1,36,32.55a1.78,1.78,0,0,1,.86-.91,2.27,2.27,0,0,1,2.16.07,1.94,1.94,0,0,1,1,1.73Zm-2.93.18h0v.54a.86.86,0,0,0,.21.58.8.8,0,0,0,1.13,0h0a1.18,1.18,0,0,0,.22-.75V33.44a1,1,0,0,0-.31-.75.68.68,0,0,0-.74-.14.71.71,0,0,0-.5.63Z"/><path id="Path_389" data-name="Path 389" class="cls-2" d="M18,34.11a8.92,8.92,0,0,1-.08,1.16,1.73,1.73,0,0,1-.74,1.07,1.63,1.63,0,0,1-1.11.32,3.91,3.91,0,0,1-.83-.06,1.94,1.94,0,0,1-1-.71,1.78,1.78,0,0,1-.27-.77A5.58,5.58,0,0,1,14,32.68a1.93,1.93,0,0,1,1.45-1.2,2.7,2.7,0,0,1,1.2.06,1.84,1.84,0,0,1,1.28,1.68C17.94,33.46,18,33.76,18,34.11Zm-2.93,0h0v.69a.86.86,0,0,0,.78.84.68.68,0,0,0,.76-.57h0a6.86,6.86,0,0,0,0-1.81.74.74,0,0,0-.92-.74.74.74,0,0,0-.57.56,7.32,7.32,0,0,0-.1,1Z"/><path id="Path_391" data-name="Path 391" class="cls-2" d="M77.07,36.68l-.92-.09c-.31,0-.4-.23-.44-.52h0c0-.36,0-.44.41-.44h1.07a.67.67,0,0,0,.56-.18.33.33,0,0,0,0-.42,1.26,1.26,0,0,0-.31-.3c-.41-.27-.83-.51-1.23-.8a1.36,1.36,0,0,1-.43-1.88h0l.09-.13a1.29,1.29,0,0,1,.88-.47h1.79a.39.39,0,0,1,.36.25A1.42,1.42,0,0,1,79,32a.47.47,0,0,1-.58.51,8.16,8.16,0,0,0-1.31-.07.38.38,0,0,0-.26.18.26.26,0,0,0,.07.33,5,5,0,0,0,.44.32c.39.24.81.45,1.19.72a1.53,1.53,0,0,1,.61,1.12.67.67,0,0,1,0,.2,1.76,1.76,0,0,1-1.27,1.27A5.93,5.93,0,0,1,77.07,36.68Z"/><path id="Path_393" data-name="Path 393" class="cls-2" d="M65.62,34v-1a1.6,1.6,0,0,1,.41-1,1.81,1.81,0,0,1,1.21-.69,4.43,4.43,0,0,1,1.36,0,.31.31,0,0,1,.25.26,1.55,1.55,0,0,1,.06.31c0,.36-.1.47-.44.45h-.79a.76.76,0,0,0-.76.72v1.59a.89.89,0,0,0,.24.68.73.73,0,0,0,.54.2h.87c.27,0,.38.11.38.38v.36c0,.11-.17.28-.39.29a10.09,10.09,0,0,1-1.1,0A1.75,1.75,0,0,1,66,35.83a1.78,1.78,0,0,1-.39-1.19A6,6,0,0,0,65.62,34Z"/><path id="Path_394" data-name="Path 394" class="cls-2" d="M48.44,31.4H50c.32,0,.44.1.48.4V32c0,.32-.14.41-.42.44h-.6c-.22,0-.31.08-.31.29v2.29a9.48,9.48,0,0,0,.05,1.19.36.36,0,0,1-.31.39h0a1.67,1.67,0,0,1-.77,0c-.22-.07-.26-.2-.24-.44V32.83c0-.21-.13-.31-.36-.32s-.45,0-.67,0-.35-.19-.31-.46v-.16c0-.31.11-.38.42-.38h1.37Z"/><path id="Path_395" data-name="Path 395" class="cls-2" d="M58.57,33.93v2.48a.21.21,0,0,1-.21.21,2.22,2.22,0,0,1-.89,0c-.17,0-.23-.16-.2-.35a2.25,2.25,0,0,0,0-.45V31.75c0-.2,0-.3.23-.31a5.75,5.75,0,0,1,.83,0c.14,0,.23.15.23.32Z"/><g id="Group_1303" data-name="Group 1303"><path id="Path_381" data-name="Path 381" class="cls-2" d="M41.67,6.6l1.62-.12L45,6.31A1.83,1.83,0,0,0,46,6a.84.84,0,0,0,.34-.52c0-.18.09-.35.14-.52a.47.47,0,0,1,.41-.27c.4-.07.8-.15,1.2-.18,1.19-.1,2.39-.15,3.57-.36a.77.77,0,0,1,.9.59v.09l.19,2.38a5.37,5.37,0,0,0,0,.89.38.38,0,0,1-.28.46h0c-.33.06-.66.12-1,.16-.76.08-1.53.12-2.29.2-.5.05-1,.12-1.49.18S47,9,46.7,8.48a4.36,4.36,0,0,0-.35-.59.85.85,0,0,0-.89-.3l-1,.17a.46.46,0,0,1-.57-.31h0a.79.79,0,0,0-1-.5.58.58,0,0,0-.3.18,1.35,1.35,0,0,0-.31.53c-.06.26-.3.32-.52.36-.51.09-1,.14-1.56.2L39,8.41l-1,.11a17.2,17.2,0,0,0-2.15.21c-.36.08-.73.08-1.09.14s-.83.15-1.24.2-.52.07-.78.09a14.13,14.13,0,0,0-1.46.12,3,3,0,0,1-1.49,0,1,1,0,0,1-.58-1,1.39,1.39,0,0,1,.17-.6,1,1,0,0,1,.81-.49C31,7.09,31.85,7,32.66,7s1.51,0,2.27-.07S36.3,6.79,37,6.74l1.81-.09a.71.71,0,0,0,.49-.19l.82-.69a.65.65,0,0,1,.64-.11.33.33,0,0,1,.22.41v.06c-.13.33-.07.42.29.44h.45Zm6-.77.75-.1L51,5.5a3.4,3.4,0,0,0,.7-.17c.09,0,.2-.16.19-.23a.35.35,0,0,0-.22-.24,1,1,0,0,0-.45-.06l-1.3.13L48,5.12a4.08,4.08,0,0,0-.7.11.27.27,0,0,0-.22.24.24.24,0,0,0,.2.26l.38.09Zm3.77.26h-.19L50.2,6.2l-1.28.11-1.32.17a.35.35,0,0,0-.22.08.21.21,0,0,0-.09.28h0a.19.19,0,0,0,.11.09.93.93,0,0,0,.61.12l1.11-.14,2.38-.23A.64.64,0,0,0,52,6.5a.17.17,0,0,0,0-.26h0a.58.58,0,0,0-.5-.17Zm.21,1.25h0l-.92.11-2.82.3a.88.88,0,0,0-.36.1.35.35,0,0,0-.15.24.26.26,0,0,0,.16.21,1.09,1.09,0,0,0,.47.08,8,8,0,0,0,.81-.09L51.66,8A.82.82,0,0,0,52,7.87a.2.2,0,0,0,.09-.29h0A.3.3,0,0,0,52,7.5,2,2,0,0,0,51.67,7.34Z"/><path id="Path_382" data-name="Path 382" class="cls-2" d="M46.4,21.74a3.07,3.07,0,0,1-.22.6c-.38.61-.77,1.22-1.16,1.82-.15.23-.32.46-.48.68a.51.51,0,0,0,0,.58,4.75,4.75,0,0,1,.32.73A5.37,5.37,0,0,1,45,27a.27.27,0,0,1-.22.3H36.22a.81.81,0,0,1-.22,0c-.28-.07-.32-.16-.24-.44s.07-.43.12-.64a4,4,0,0,1,1.25-2.09c.16-.13.29-.28.45-.39a3.33,3.33,0,0,1,.62-.38,8.71,8.71,0,0,1,1.19-.48,3.81,3.81,0,0,1,.75-.07.67.67,0,0,0,.36-.14c.31-.26.59-.55.88-.84l1.07-1c.14-.15.29-.31.45-.45s.29-.14.42.05a2.92,2.92,0,0,0,2.55,1.41Z"/><path id="Path_390" data-name="Path 390" class="cls-2" d="M40.78,12.87l.18.07.43.3L43,14.54l1.46,1.18.1.09c.07.08.08.15,0,.22a2.91,2.91,0,0,0-1.63,2c0,.14-.11.16-.21.11a1.1,1.1,0,0,1-.22-.21,4.42,4.42,0,0,1-.39-.47l-1.48-1.69L39.38,14.3c-.19-.22-.17-.4.13-.47a1.7,1.7,0,0,0,1-.77A1.17,1.17,0,0,1,40.78,12.87Z"/><path id="Path_392" data-name="Path 392" class="cls-2" d="M47.67,18.72A1.76,1.76,0,0,1,46,20.51h-.08a1.78,1.78,0,0,1-1.78-1.78h0a1.79,1.79,0,0,1,3.57,0h0Z"/><path id="Path_396" data-name="Path 396" class="cls-2" d="M41.13,11.82a.54.54,0,0,1-.49-.49c0-.22,0-.33.28-.43l.78-.35a.54.54,0,0,0,.26-.33,10.07,10.07,0,0,0,.27-1c.08-.34.11-.56.18-.83s.17-.57.24-.84.61-.27.76-.06a.62.62,0,0,1,.1.59c-.19.74-.38,1.49-.56,2.24a.74.74,0,0,0,0,.21,1,1,0,0,1-.55.83,4.08,4.08,0,0,1-1.11.44Z"/><path id="Path_397" data-name="Path 397" class="cls-2" d="M38.94,11.12a1,1,0,0,1,1,.92v.05a1,1,0,0,1-1,1h0a1,1,0,1,1,0-2Z"/><path id="Path_398" data-name="Path 398" class="cls-2" d="M37.76,10a3.64,3.64,0,0,0-.07-.44.38.38,0,0,1,.23-.47h0a.6.6,0,0,1,.3-.05.3.3,0,0,1,.4.17.14.14,0,0,1,0,.06v.08a5,5,0,0,1,0,.55.58.58,0,0,1-.58.57h-.13a.29.29,0,0,1-.24-.3V10Z"/></g></g></g></g></g></g></svg>