<?xml version="1.0" encoding="utf-8"?>
<!-- Generator: Adobe Illustrator 23.0.1, SVG Export Plug-In . SVG Version: 6.00 Build 0)  -->
<svg version="1.1" id="Слой_1" xmlns="http://www.w3.org/2000/svg" xmlns:xlink="http://www.w3.org/1999/xlink" x="0px" y="0px"
	 viewBox="0 0 70 70" style="enable-background:new 0 0 70 70;" xml:space="preserve">
<style type="text/css">
	.st0{fill:#0071B3;}
</style>
<path class="st0" d="M24.1,20.4H8.8v2.1h15.3V20.4z"/>
<path class="st0" d="M19.7,24.8H8.8v2.1h10.9V24.8z"/>
<path class="st0" d="M24.1,31.4H8.8v2.1h15.3V31.4z"/>
<path class="st0" d="M19.7,35.7H8.8v2.1h10.9V35.7z"/>
<path class="st0" d="M24.1,42.3H8.8v2.1h15.3V42.3z"/>
<path class="st0" d="M17.5,46.7H8.8v2.1h8.8V46.7z"/>
<path class="st0" d="M68.8,57.9L57.1,46.2l-2.2,2.2l-4.6-4.6c2.1-2.5,3.5-5.7,3.5-9.3c0-7.2-5.4-13.2-12.4-14V5.1H9.4L0,14.4V64
	h41.4V52h-2.1v10H2.1V15.9h8.8V7.2h28.6v13.2c-7.7,0.1-13.9,6.4-13.9,14.1c0,7.8,6.3,14.2,14.2,14.2c3.5,0,6.8-1.3,9.3-3.5l4.6,4.6
	L51.3,52L63,63.7c0.8,0.8,1.8,1.2,2.9,1.2c1.1,0,2.1-0.4,2.9-1.2C70.4,62.1,70.4,59.5,68.8,57.9z M8.8,13.9H3.5l5.2-5.3V13.9z
	 M39.6,46.6c-6.7,0-12.1-5.4-12.1-12.1c0-6.7,5.4-12.1,12.1-12.1s12.1,5.4,12.1,12.1C51.7,41.2,46.3,46.6,39.6,46.6z M67.3,62.2
	c-0.4,0.4-0.9,0.6-1.5,0.6c-0.6,0-1.1-0.2-1.5-0.6L54.2,52l2.9-2.9l10.2,10.2C68.2,60.1,68.2,61.4,67.3,62.2z"/>
<path class="st0" d="M39.9,29.1c-0.1,0-0.2,0-0.3,0c-0.1,0-0.2,0-0.3,0c-5.1,0.2-9.1,4.5-9.2,4.7l1.5,1.4c0,0,1.1-1.2,2.8-2.3
	c-0.2,0.5-0.3,1.1-0.3,1.6c0,3,2.4,5.4,5.4,5.4c3,0,5.4-2.4,5.4-5.4c0-0.6-0.1-1.1-0.3-1.6c1.7,1.1,2.8,2.3,2.8,2.3l1.5-1.4
	C49,33.6,45,29.3,39.9,29.1z M39.6,37.9c-1.8,0-3.3-1.5-3.3-3.3c0-1.8,1.4-3.2,3.2-3.3c0.1,0,0.1,0,0.2,0c0.1,0,0.1,0,0.2,0
	c1.8,0.1,3.2,1.6,3.2,3.3C43,36.4,41.5,37.9,39.6,37.9z"/>
</svg>
