<?xml version="1.0" encoding="utf-8"?>
<!-- Generator: Adobe Illustrator 23.0.1, SVG Export Plug-In . SVG Version: 6.00 Build 0)  -->
<svg version="1.1" id="Слой_1" xmlns="http://www.w3.org/2000/svg" xmlns:xlink="http://www.w3.org/1999/xlink" x="0px" y="0px"
	 viewBox="0 0 27 27" style="enable-background:new 0 0 27 27;" xml:space="preserve">
<style type="text/css">
	.st0{fill-rule:evenodd;clip-rule:evenodd;fill:#0071B3;}
	.st1{fill-rule:evenodd;clip-rule:evenodd;fill:#FFFFFF;filter:url(#Adobe_OpacityMaskFilter);}
	.st2{mask:url(#path-1-inside-1_1_);fill:#0071B3;}
	.st3{fill:#0071B3;}
	.st4{fill:#FFFFFF;}
</style>
<path class="st0" d="M13.5,25C19.9,25,25,19.9,25,13.5C25,7.1,19.9,2,13.5,2C7.1,2,2,7.1,2,13.5C2,19.9,7.1,25,13.5,25z M13.5,27
	C21,27,27,21,27,13.5C27,6,21,0,13.5,0C6,0,0,6,0,13.5C0,21,6,27,13.5,27z"/>
<defs>
	<filter id="Adobe_OpacityMaskFilter" filterUnits="userSpaceOnUse" x="-2" y="-2" width="31" height="31">
		<feColorMatrix  type="matrix" values="1 0 0 0 0  0 1 0 0 0  0 0 1 0 0  0 0 0 1 0"/>
	</filter>
</defs>
<mask maskUnits="userSpaceOnUse" x="-2" y="-2" width="31" height="31" id="path-1-inside-1_1_">
	<path class="st1" d="M13.5,25C19.9,25,25,19.9,25,13.5C25,7.1,19.9,2,13.5,2C7.1,2,2,7.1,2,13.5C2,19.9,7.1,25,13.5,25z M13.5,27
		C21,27,27,21,27,13.5C27,6,21,0,13.5,0C6,0,0,6,0,13.5C0,21,6,27,13.5,27z"/>
</mask>
<path class="st2" d="M23,13.5c0,5.2-4.3,9.5-9.5,9.5v4C21,27,27,21,27,13.5H23z M13.5,4c5.2,0,9.5,4.3,9.5,9.5h4C27,6,21,0,13.5,0V4
	z M4,13.5C4,8.3,8.3,4,13.5,4V0C6,0,0,6,0,13.5H4z M13.5,23C8.3,23,4,18.7,4,13.5H0C0,21,6,27,13.5,27V23z M25,13.5
	C25,19.9,19.9,25,13.5,25v4C22.1,29,29,22.1,29,13.5H25z M13.5,2C19.9,2,25,7.1,25,13.5h4C29,4.9,22.1-2,13.5-2V2z M2,13.5
	C2,7.1,7.1,2,13.5,2v-4C4.9-2-2,4.9-2,13.5H2z M13.5,25C7.1,25,2,19.9,2,13.5h-4C-2,22.1,4.9,29,13.5,29V25z"/>
<g>
	<path class="st3" d="M11.8,18.9c-0.4,0-0.7-0.1-1-0.4L7.5,15c-0.5-0.6-0.5-1.5,0-2c0.3-0.3,0.6-0.4,1-0.4s0.7,0.1,1,0.4l2,2
		c0.1,0.1,0.2,0.2,0.4,0.2c0.1,0,0.3-0.1,0.4-0.2l5.3-5.5c0.3-0.3,0.6-0.4,1-0.4s0.7,0.1,1,0.4c0.3,0.3,0.4,0.6,0.4,1
		c0,0.4-0.1,0.7-0.4,1l-6.7,6.9C12.5,18.7,12.2,18.9,11.8,18.9z"/>
	<path class="st4" d="M18.5,9.2c0.3,0,0.7,0.1,0.9,0.4c0.2,0.2,0.4,0.6,0.4,0.9c0,0.3-0.1,0.7-0.4,0.9l-6.7,6.9
		c-0.2,0.2-0.6,0.4-0.9,0.4c-0.3,0-0.7-0.1-0.9-0.4L7.6,15c-0.5-0.5-0.5-1.3,0-1.9c0.2-0.2,0.6-0.4,0.9-0.4c0.3,0,0.7,0.1,0.9,0.4
		l2,2c0.1,0.1,0.3,0.2,0.4,0.2c0.2,0,0.3-0.1,0.4-0.2l5.3-5.5C17.8,9.4,18.2,9.2,18.5,9.2 M18.5,9c-0.4,0-0.8,0.2-1.1,0.5L12.1,15
		c-0.1,0.1-0.2,0.1-0.3,0.1c-0.1,0-0.2,0-0.3-0.1l-2-2c-0.3-0.3-0.7-0.5-1.1-0.5s-0.8,0.2-1.1,0.5c-0.6,0.6-0.6,1.6,0,2.2l3.3,3.4
		c0.3,0.3,0.7,0.5,1.1,0.5s0.8-0.2,1.1-0.5l6.7-6.9c0.3-0.3,0.4-0.7,0.4-1.1c0-0.4-0.2-0.8-0.4-1.1C19.3,9.2,18.9,9,18.5,9L18.5,9z"
		/>
</g>
</svg>
