<svg width="54" height="70" viewBox="0 0 54 70" fill="none" xmlns="http://www.w3.org/2000/svg">
<path d="M35.4726 8.72215C27.7728 4.8314 18.4977 6.31904 12.393 12.4238C5.298 19.5187 4.58788 30.8317 10.7413 38.7387C10.9589 39.0181 11.284 39.1644 11.6126 39.1644C11.8494 39.1644 12.088 39.0885 12.2894 38.9317C12.7702 38.5575 12.8567 37.8645 12.4826 37.3836C7.01123 30.3533 7.64355 20.2935 13.9533 13.9838C19.3824 8.5544 27.6304 7.23123 34.4778 10.6912C35.0214 10.9663 35.685 10.7478 35.9599 10.204C36.2345 9.66032 36.0166 8.99682 35.4726 8.72215Z" fill="black"/>
<path d="M44.2813 17.5327C44.0065 16.989 43.3433 16.7708 42.7991 17.0453C42.2554 17.32 42.037 17.9833 42.3117 18.5273C45.7692 25.3737 44.4453 33.6206 39.0175 39.0483C32.7076 45.3579 22.6479 45.9901 15.6176 40.519C15.1366 40.145 14.4437 40.2314 14.0695 40.7121C13.6953 41.1929 13.7818 41.8859 14.2627 42.2601C17.8644 45.0632 22.1726 46.4418 26.4671 46.4418C31.6004 46.4418 36.7144 44.4716 40.5777 40.6083C46.681 34.5052 48.1693 25.2318 44.2813 17.5327Z" fill="black"/>
<path d="M41.4316 13.3312C41.1583 13.0219 40.8712 12.7165 40.5782 12.4236C40.2852 12.1306 39.98 11.8435 39.6707 11.5702C39.2142 11.1666 38.5169 11.2098 38.1137 11.6663C37.71 12.1227 37.7529 12.8198 38.2094 13.2233C38.4849 13.4667 38.757 13.7226 39.0181 13.9836C39.279 14.2447 39.5349 14.5167 39.7784 14.7922C39.9964 15.0388 40.3002 15.1647 40.6054 15.1647C40.8651 15.1647 41.1257 15.0735 41.3355 14.8881C41.7922 14.4848 41.8351 13.7877 41.4316 13.3312Z" fill="black"/>
<path d="M39.4457 23.1051C39.2027 22.3567 38.5662 21.8342 37.7847 21.7415L31.1469 20.9544L28.3472 14.8847C28.0175 14.1702 27.324 13.7263 26.537 13.7263C25.7502 13.7263 25.0565 14.1702 24.7268 14.8847L21.9271 20.9545L15.2893 21.7416C14.5078 21.8343 13.8712 22.3568 13.6283 23.1052C13.3852 23.8532 13.593 24.6502 14.1705 25.1843L19.078 29.7227L17.7754 36.2789C17.6221 37.0509 17.9223 37.8176 18.559 38.28C18.9103 38.5351 19.3178 38.6643 19.728 38.6643C20.0614 38.6643 20.3964 38.579 20.7042 38.4067L26.5369 35.142L32.3696 38.4067C33.0563 38.7911 33.8781 38.7426 34.5148 38.2801C35.1515 37.8176 35.4518 37.0507 35.2984 36.2789L33.9957 29.7229L38.9032 25.1845C39.481 24.6503 39.6888 23.8535 39.4457 23.1051ZM32.0446 28.5223C31.763 28.7828 31.6369 29.1709 31.7115 29.5472L33.0446 36.2561L27.0757 32.9151C26.9083 32.8214 26.7227 32.7746 26.5369 32.7746C26.3511 32.7746 26.1655 32.8213 25.9981 32.9151L20.0292 36.2561L21.3622 29.5472C21.4371 29.1708 21.3109 28.7828 21.0291 28.5223L16.0072 23.878L22.8002 23.0726C23.1811 23.0274 23.5113 22.7875 23.6721 22.4393L26.537 16.228L29.402 22.4393C29.5627 22.7875 29.8928 23.0274 30.2738 23.0726L37.0666 23.878L32.0446 28.5223Z" fill="#FF5555"/>
<path d="M52.5231 28.4936C53.2586 27.2868 53.2586 25.7878 52.5228 24.5813L51.0715 22.2014C50.8804 21.8878 50.8064 21.5154 50.8636 21.1528L51.2961 18.4043C51.5167 17.0036 50.9412 15.6155 49.7947 14.7814L47.5455 13.1454C47.2482 12.929 47.0368 12.6133 46.9502 12.2559L46.2952 9.54902C45.9627 8.17404 44.9019 7.11337 43.5271 6.7806L40.82 6.12544C40.4627 6.0389 40.1467 5.82753 39.9305 5.53017L38.2943 3.28045C37.4603 2.13393 36.0721 1.5582 34.6718 1.77887L31.9224 2.21145C31.5598 2.26846 31.1872 2.19463 30.8739 2.0035L28.4936 0.551815C27.2869 -0.184007 25.7879 -0.18387 24.5812 0.551815L22.2012 2.00309C21.8879 2.19436 21.5156 2.26791 21.1526 2.21104L18.404 1.77846C17.0037 1.55807 15.6153 2.13352 14.7814 3.28004L13.1454 5.52921C12.929 5.82657 12.6131 6.03794 12.2556 6.12448L9.54871 6.7795C8.174 7.112 7.11306 8.17281 6.78029 9.54765L6.12513 12.2547C6.03859 12.6121 5.82736 12.928 5.52986 13.1442L3.28015 14.7804C2.13362 15.6143 1.55831 17.0023 1.77856 18.4029L2.21114 21.1525C2.26815 21.5152 2.19432 21.8876 2.00319 22.201L0.551644 24.5814C-0.183904 25.7881 -0.183904 27.2871 0.551781 28.4936L2.00305 30.8736C2.19419 31.1873 2.26815 31.5597 2.211 31.9223L1.77842 34.6709C1.5579 36.0714 2.13335 37.4597 3.27987 38.2937L5.52904 39.9296C5.8264 40.1458 6.03777 40.4617 6.12431 40.8191L6.77933 43.526C7.11183 44.901 8.17264 45.9617 9.54748 46.2944L10.6779 46.568L3.0279 63.6325C2.86534 63.9952 2.91032 64.4171 3.14589 64.7373C3.38132 65.0575 3.77056 65.2263 4.1654 65.179L10.3208 64.4431L13.8667 69.5278C14.0742 69.8252 14.4129 69.9999 14.7712 69.9999C14.8056 69.9999 14.8403 69.9983 14.8747 69.9951C15.2704 69.9579 15.6156 69.7106 15.7782 69.3481L23.591 51.9193L24.581 52.523C25.1843 52.8909 25.8607 53.0748 26.5371 53.0748C27.2136 53.0748 27.89 52.8907 28.4933 52.523L29.519 51.8976L37.3416 69.3481C37.5042 69.7109 37.8493 69.9579 38.2451 69.9951C38.2797 69.9984 38.3143 70 38.3486 70C38.7069 70 39.0457 69.8253 39.2531 69.5279L42.799 64.4432L48.9544 65.1792C49.349 65.2261 49.7385 65.0576 49.9739 64.7374C50.2094 64.4172 50.2546 63.9953 50.0919 63.6326L42.438 46.5587L43.5258 46.2955C44.9006 45.963 45.9615 44.9022 46.2943 43.5274L46.9494 40.8204C47.036 40.463 47.2473 40.147 47.5447 39.9309L49.7944 38.2946C50.9409 37.4608 51.5163 36.0728 51.296 34.6721L50.8634 31.9225C50.8064 31.5598 50.8802 31.1874 51.0714 30.874L52.5231 28.4936ZM14.5619 66.6679L11.7518 62.6383C11.5188 62.3041 11.1204 62.1253 10.716 62.174L5.83802 62.7572L12.8078 47.2091C12.9352 47.3027 13.0495 47.415 13.1437 47.5447L14.78 49.7945C14.9354 50.0081 15.1102 50.2019 15.3006 50.3744L11.632 58.558C11.3829 59.114 11.6315 59.7666 12.1874 60.0158C12.334 60.0816 12.4872 60.1126 12.6379 60.1126C13.0592 60.1126 13.4617 59.8698 13.6451 59.4605L17.3007 51.306C17.6604 51.3554 18.0308 51.3546 18.4025 51.296L21.1519 50.8635C21.3165 50.8376 21.4829 50.8399 21.6449 50.8667L14.5619 66.6679ZM47.2821 62.7569L42.4039 62.174C41.9991 62.1254 41.6011 62.3041 41.3682 62.6383L38.558 66.6679L31.472 50.8606C31.6206 50.8404 31.7723 50.8404 31.9222 50.8639L34.6707 51.2965C35.0575 51.3573 35.4429 51.3554 35.8163 51.2997L39.4746 59.4608C39.6582 59.8702 40.0604 60.1129 40.4818 60.1129C40.6326 60.1129 40.7859 60.0819 40.9323 60.0161C41.4882 59.767 41.7369 59.1142 41.4876 58.5583L37.8051 50.3435C37.9827 50.1786 38.1469 49.9961 38.2933 49.7949L39.9293 47.5457C40.0324 47.4039 40.1587 47.2824 40.3006 47.1841L47.2821 62.7569ZM50.6392 27.3449L49.1877 29.7253C48.7249 30.4847 48.5458 31.3867 48.684 32.2653L49.1166 35.0147C49.2075 35.5929 48.9699 36.1659 48.4967 36.5102L46.2468 38.1465C45.5267 38.6704 45.0146 39.4357 44.8051 40.3012L44.15 43.0083C44.0126 43.5758 43.5748 44.0137 43.0071 44.1511L40.3001 44.8061C39.4344 45.0156 38.669 45.5277 38.1451 46.248L36.5092 48.4971C36.1649 48.9706 35.592 49.2079 35.0136 49.1169L32.265 48.6843C31.3863 48.5461 30.4841 48.7249 29.7246 49.188L27.3447 50.6392C26.8467 50.9428 26.2276 50.9428 25.7298 50.6392L23.3494 49.1878C22.7574 48.8268 22.0787 48.6386 21.392 48.6386C21.1979 48.6386 21.0028 48.6537 20.8093 48.6842L18.0597 49.1167C17.4814 49.2078 16.9086 48.97 16.5643 48.4969L14.9279 46.2471C14.404 45.527 13.6388 45.0149 12.7732 44.8054L10.0662 44.1503C9.49867 44.0129 9.06076 43.5751 8.92336 43.0075L8.26834 40.3006C8.05889 39.4348 7.54687 38.6694 6.8265 38.1455L4.57747 36.5093C4.10415 36.1651 3.86667 35.5919 3.95773 35.0138L4.3903 32.2652C4.52853 31.3865 4.3497 30.4844 3.88663 29.7249L2.43536 27.3448C2.13171 26.8467 2.13171 26.2278 2.43536 25.7299L3.88691 23.3494C4.34984 22.5901 4.5288 21.688 4.39058 20.8095L3.958 18.0601C3.86708 17.4819 4.1047 16.9089 4.57788 16.5646L6.82773 14.9282C7.54783 14.4043 8.05998 13.6391 8.26943 12.7735L8.92459 10.0665C9.06199 9.49898 9.49977 9.06107 10.0674 8.92367L12.7745 8.26865C13.6402 8.05919 14.4055 7.54704 14.9293 6.82681L16.5653 4.57764C16.9095 4.10432 17.4824 3.86657 18.0608 3.95776L20.8094 4.39034C21.6883 4.52884 22.5905 4.34973 23.3498 3.88667L25.7297 2.43539C26.2277 2.13188 26.8468 2.13188 27.3446 2.43539L29.725 3.8868C30.4844 4.35001 31.3867 4.52897 32.2651 4.39061L35.0147 3.95803C35.5927 3.86739 36.1659 4.10473 36.5101 4.57792L38.1465 6.82763C38.6704 7.54773 39.4356 8.05988 40.3012 8.26933L43.0082 8.92449C43.5757 9.06189 44.0137 9.49967 44.1511 10.0673L44.8061 12.7742C45.0155 13.6399 45.5275 14.4054 46.2479 14.9293L48.4971 16.5653C48.9704 16.9096 49.2079 17.4827 49.1168 18.0609L48.6843 20.8095C48.546 21.6882 48.7249 22.5902 49.1879 23.3497L50.6392 25.7299C50.943 26.2279 50.943 26.8468 50.6392 27.3449Z" fill="black"/>
</svg>
