<svg width="70" height="70" viewBox="0 0 70 70" fill="none" xmlns="http://www.w3.org/2000/svg">
<path d="M11.0905 56.1715V56.2687L11.1877 56.2714C14.0124 56.3522 16.6521 57.6292 18.466 59.8095L21.8808 63.9141C23.2725 65.5871 25.3191 66.5467 27.4953 66.5467H41.7747C42.6488 66.5467 43.3595 65.836 43.3595 64.9621C43.3595 64.0882 42.6486 63.3774 41.7747 63.3774H36.4702C35.7705 63.3774 35.2032 62.8103 35.2032 62.1104C35.2032 61.4105 35.7705 60.8433 36.4702 60.8433H41.7747C44.0457 60.8433 45.8935 62.691 45.8935 64.9621C45.8935 67.2331 44.0457 69.0808 41.7747 69.0808H27.4953C24.5638 69.0808 21.8076 67.7885 19.9328 65.5348L16.518 61.4303C15.1352 59.768 13.1058 58.8111 10.9452 58.7987L10.8773 58.7984L10.8519 58.8613C10.3641 60.0684 9.181 60.9221 7.80198 60.9221H6.38229C5.68256 60.9221 5.11524 60.3548 5.11524 59.6551C5.11524 58.9552 5.68256 58.388 6.38229 58.388H7.80211C8.21829 58.388 8.55659 58.0496 8.55659 57.6335V46.6765C8.55659 46.2605 8.21829 45.922 7.80211 45.922H2.7341H2.6341V46.022V54.6516C2.6341 55.3514 2.06679 55.9186 1.36705 55.9186C0.667318 55.9186 0.1 55.3513 0.1 54.6516V44.6551C0.1 43.9553 0.667311 43.3881 1.36705 43.3881H7.80198C9.16273 43.3881 10.3336 44.2192 10.8329 45.4009L10.8587 45.462H10.925H16.224C19.3924 45.462 22.3922 46.6736 24.6717 48.874L32.0419 55.9882C33.5845 57.4773 33.6564 59.9716 32.2022 61.547C31.4204 62.3938 30.3509 62.8235 29.2777 62.8235C28.3166 62.8235 27.3535 62.4788 26.5923 61.7812L20.806 56.477L20.7384 56.5507L20.806 56.477C20.2901 56.0042 20.2553 55.2028 20.7282 54.6869L20.6545 54.6193L20.7282 54.6869C21.201 54.171 22.0026 54.1363 22.5182 54.6091L22.5182 54.6091L28.3045 59.9132L28.3721 59.8395L28.3045 59.9132C28.8891 60.4491 29.802 60.411 30.3401 59.8283L30.2666 59.7605L30.3401 59.8283C30.8682 59.2562 30.8421 58.352 30.2819 57.8113L30.2125 57.8832L30.2819 57.8112L22.9117 50.6971C21.1074 48.9554 18.7321 47.9959 16.224 47.9959H11.1905H11.0905V48.0959V56.1715Z" fill="black" stroke="white" stroke-width="0.2"/>
<path d="M67.2657 23.2587H67.3657V23.1587V13.9952C67.3657 13.2953 67.933 12.7281 68.6328 12.7281C69.3325 12.7281 69.8998 13.2953 69.9 13.9949V24.5255C69.9 25.2254 69.3326 25.7926 68.6329 25.7926H62.1978C60.8371 25.7926 59.6662 24.9615 59.1669 23.7798L59.1411 23.7187H59.0748H53.7758C50.6075 23.7187 47.6076 22.507 45.3281 20.3066L37.9579 13.1925C36.4153 11.7035 36.3434 9.20923 37.7976 7.6337C39.28 6.02807 41.7965 5.92285 43.4075 7.3995L49.194 12.7035L49.2615 12.6298L49.194 12.7035C49.7098 13.1763 49.7447 13.9778 49.2719 14.4936C48.7988 15.0095 47.9976 15.0442 47.4818 14.5714L41.6953 9.2673L41.6277 9.34102L41.6953 9.2673C41.1107 8.73148 40.1978 8.76935 39.6597 9.35221L39.6597 9.35222C39.1316 9.92441 39.1578 10.8285 39.7179 11.3693L39.7874 11.2973L39.7179 11.3693L47.0881 18.4834C48.8924 20.2252 51.2677 21.1846 53.7758 21.1846H58.8093H58.9093V21.0846V13.009V12.9119L58.8121 12.9091C55.9874 12.8281 53.3476 11.5512 51.5338 9.37086L51.457 9.43481L51.5338 9.37085L48.119 5.26643C46.7274 3.59339 44.6807 2.63382 42.5044 2.63382H28.2251C27.351 2.63382 26.6403 3.34469 26.6403 4.21845C26.6403 5.09236 27.3512 5.80307 28.2251 5.80307H34.064C34.7638 5.80307 35.3311 6.37026 35.3311 7.07012C35.3311 7.76998 34.7638 8.33717 34.064 8.33717H28.2251C25.9542 8.33717 24.1063 6.48948 24.1063 4.21859C24.1063 1.94769 25.9542 0.1 28.2251 0.1H42.5042C45.4358 0.1 48.1922 1.39245 50.0669 3.64611L50.1438 3.58216L50.0669 3.64612L53.4817 7.75054C54.8645 9.41279 56.8939 10.3697 59.0545 10.382L59.1224 10.3824L59.1478 10.3195C59.6356 9.11241 60.8187 8.25868 62.1977 8.25868H63.5172C64.2169 8.25868 64.7842 8.82599 64.7842 9.52572C64.7842 10.2256 64.2169 10.7928 63.5172 10.7928H62.1977C61.7815 10.7928 61.4432 11.1312 61.4432 11.5472V22.5043C61.4432 22.9203 61.7815 23.2587 62.1977 23.2587H67.2657Z" fill="black" stroke="white" stroke-width="0.2"/>
<path d="M35.0184 29.2655L35.0909 29.3419L35.1635 29.2655C36.3197 28.0468 37.9422 27.3246 39.6938 27.3246C43.139 27.3246 45.9419 30.1275 45.9419 33.5727C45.9419 35.2449 45.2901 36.8156 44.1059 37.9965C44.0725 38.0298 44.0374 38.0612 44.0007 38.0903L44.0006 38.0904L35.8802 44.5586L35.8802 44.5586C35.6493 44.7426 35.3701 44.8346 35.0908 44.8346C34.8127 44.8346 34.5347 44.7435 34.3044 44.561L34.3044 44.561L26.5146 38.3938C26.5144 38.3937 26.5143 38.3936 26.5142 38.3935C26.5052 38.3863 26.4972 38.3798 26.4896 38.3735L26.4892 38.3731C25.0597 37.1813 24.2399 35.4318 24.2399 33.5727C24.2399 30.1275 27.0428 27.3246 30.488 27.3246C32.2396 27.3246 33.862 28.0468 35.0184 29.2655ZM42.3576 36.1599L42.3581 36.1605L42.3672 36.1511C43.0387 35.4554 43.408 34.5424 43.408 33.5729C43.408 31.5248 41.7418 29.8587 39.6938 29.8587C38.1862 29.8587 36.8388 30.7593 36.2614 32.1526C36.0651 32.6261 35.6032 32.9346 35.0909 32.9346C34.5786 32.9346 34.1167 32.6259 33.9204 32.1526C33.343 30.7593 31.9956 29.8587 30.488 29.8587C28.44 29.8587 26.7738 31.5248 26.774 33.573C26.774 34.6724 27.257 35.7079 28.0993 36.4164L28.0993 36.4165L28.1016 36.4183L35.0264 41.9006L35.0886 41.9499L35.1508 41.9004L42.3576 36.1599Z" fill="#0071B3" stroke="white" stroke-width="0.2"/>
<path d="M2.62941 59.6552C2.62941 60.3524 2.06427 60.9175 1.36715 60.9175C0.670017 60.9175 0.104883 60.3524 0.104883 59.6552C0.104883 58.9581 0.670017 58.393 1.36715 58.393C2.06427 58.393 2.62941 58.9581 2.62941 59.6552Z" fill="black" stroke="white" stroke-width="0.2"/>
<path d="M69.895 9.52535C69.895 10.2225 69.3299 10.7876 68.6328 10.7876C67.9356 10.7876 67.3705 10.2225 67.3705 9.52535C67.3705 8.82822 67.9356 8.26309 68.6328 8.26309C69.3299 8.26309 69.895 8.82822 69.895 9.52535Z" fill="black" stroke="white" stroke-width="0.2"/>
</svg>
