<svg width="58" height="70" viewBox="0 0 58 70" fill="none" xmlns="http://www.w3.org/2000/svg">
<path d="M28.5 8C29.3 8.1 29.9 7.5 29.9 6.7C29.9 6.1 29.3 5.5 28.6 5.5C27.9 5.5 27.3 6.1 27.3 6.8C27.3 7.4 27.8 8 28.5 8Z" fill="white"/>
<path d="M55.9 8.2C52.1 8.2 49 5.1 49 1.3C49 0.6 48.4 0 47.7 0H9.5C8.8 0 8.2 0.6 8.2 1.3C8.2 5.1 5.1 8.2 1.3 8.2C0.6 8.2 0 8.8 0 9.5V31.8C0 49.1 11.3 64.7 28.2 69.8H28.9C45.5 64.8 57.1 49.6 57.1 31.8V9.5C57.2 8.8 56.6 8.2 55.9 8.2ZM54.7 10.8V31.8C54.7 48.2 44.3 62.4 28.7 67.2C13.2 62.4 2.7 48.1 2.7 31.8V10.8V10.7H2.8C6.9 10.1 10.2 6.8 10.8 2.7V2.6H10.9H46.6V2.7C47.2 6.8 50.4 10.1 54.7 10.8Z" fill="white"/>
<path d="M51 12.7C48.1 11.4 45.8 9.20002 44.6 6.30002C44.4 5.80002 43.9 5.50002 43.4 5.50002H34.1C33.4 5.50002 32.8 6.10002 32.8 6.80002C32.8 7.50002 33.4 8.10002 34.1 8.10002H42.6V8.20002C44 11 46.3 13.3 49.1 14.7H49.2V14.8V31.9C49.2 45.3 41.1 56.9 28.6 61.5C16.1 56.8 8 45.2 8 31.8V14.7V14.6H8.1C10.9 13.2 13.2 10.9 14.6 8.10002V8.00002H14.7H23.2C23.9 8.00002 24.5 7.40002 24.5 6.70002C24.5 6.00002 23.9 5.40002 23.2 5.40002H13.9C13.4 5.40002 12.9 5.70002 12.7 6.20002C11.4 9.10002 9.2 11.4 6.3 12.6C5.8 12.8 5.5 13.3 5.5 13.8V31.8C5.5 46.4 14.5 59.2 28.2 64C28.3 64 28.5 64.1 28.6 64.1C28.7 64.1 28.9 64.1 29 64C42.7 59.2 51.7 46.4 51.7 31.8V13.8C51.7 13.3 51.4 12.9 51 12.7Z" fill="white"/>
<path d="M16.3999 32.2C16.3999 38.9 21.8999 44.4 28.5999 44.4C35.2999 44.4 40.7999 38.9 40.7999 32.2C40.7999 25.5 35.2999 20 28.5999 20C21.8999 20 16.3999 25.5 16.3999 32.2ZM38.2999 32.2C38.2999 37.5 33.9999 41.9 28.5999 41.9C23.1999 41.9 18.8999 37.6 18.8999 32.2C18.8999 26.9 23.1999 22.5 28.5999 22.5C33.9999 22.5 38.2999 26.9 38.2999 32.2Z" fill="white"/>
<path d="M27.2001 34.4L25.4001 32.6C24.9001 32.1 24.1001 32.1 23.6001 32.6C23.1001 33.1 23.1001 33.9 23.6001 34.4L26.3001 37.1C26.5001 37.3 26.9001 37.5 27.2001 37.5C27.5001 37.5 27.8001 37.4 28.1001 37.1L34.9001 30.3C35.4001 29.8 35.4001 29 34.9001 28.5C34.4001 28 33.6001 28 33.1001 28.5L27.2001 34.4Z" fill="white"/>
</svg>
