<?xml version="1.0" encoding="utf-8"?>
<!-- Generator: Adobe Illustrator 23.0.1, SVG Export Plug-In . SVG Version: 6.00 Build 0)  -->
<svg version="1.1" id="Слой_1" xmlns="http://www.w3.org/2000/svg" xmlns:xlink="http://www.w3.org/1999/xlink" x="0px" y="0px"
	 width="70px" height="70px" viewBox="0 0 70 70" style="enable-background:new 0 0 70 70;" xml:space="preserve">
<style type="text/css">
	.st0{fill:#0071B3;}
</style>
<g>
	<path class="st0" d="M21.1,50.4c0.2-0.2,0.3-0.4,0.3-0.7c0-0.3-0.1-0.5-0.3-0.7l0,0c-0.2-0.2-0.5-0.3-0.7-0.3
		c-0.3,0-0.5,0.1-0.7,0.3c-0.2,0.2-0.3,0.4-0.3,0.7c0,0.3,0.1,0.5,0.3,0.7C20.1,50.9,20.7,50.8,21.1,50.4z"/>
	<rect x="21.3" y="48.8" class="st0" width="0" height="0"/>
</g>
<path class="st0" d="M24,53.8c3.3,1.9,7.1,3,11,3c5.8,0,11.3-2.3,15.4-6.4c8.5-8.5,8.5-22.3,0-30.8c-8.5-8.5-22.3-8.5-30.8,0
	c-7,7-8.4,17.8-3.5,26.3c0.3,0.5,0.9,0.6,1.4,0.4c0.5-0.3,0.6-0.9,0.4-1.4C13.4,37.1,14.7,27.3,21,21c7.7-7.7,20.3-7.7,28,0
	c7.7,7.7,7.7,20.3,0,28c-6.3,6.4-16.2,7.6-23.9,3.1C24.9,52,24.7,52,24.5,52c-0.3,0-0.7,0.2-0.9,0.5c-0.1,0.2-0.2,0.5-0.1,0.8
	C23.6,53.5,23.8,53.7,24,53.8z"/>
<path class="st0" d="M69.6,41l0-12c0-0.5-0.4-0.9-0.8-1l-5.2-0.8l-2.8-6.8l3.1-4.3c0.3-0.4,0.2-0.9-0.1-1.3l-8.5-8.5
	c-0.3-0.3-0.9-0.4-1.3-0.1l-4.3,3.1l-6.8-2.8L42,1.2c-0.1-0.5-0.5-0.8-1-0.8l-12,0c-0.5,0-0.9,0.4-1,0.8l-0.8,5.2l-6.8,2.8L16,6.2
	c-0.4-0.3-0.9-0.2-1.3,0.1l-8.5,8.5c-0.4,0.4-0.4,0.9-0.1,1.3l3.1,4.3l-2.8,6.8L1.2,28c-0.5,0.1-0.8,0.5-0.8,1l0,12
	c0,0.5,0.4,0.9,0.8,1l5.2,0.8l2.8,6.8L6.2,54c-0.3,0.4-0.2,0.9,0.1,1.3l8.5,8.5c0.4,0.3,0.9,0.4,1.3,0.1l4.3-3.1l6.8,2.8l0.8,5.2
	c0.1,0.5,0.5,0.8,1,0.8l12,0c0.5,0,0.9-0.4,1-0.8l0.8-5.2l6.8-2.8l4.3,3.1c0.4,0.3,0.9,0.2,1.3-0.1l8.5-8.5c0.3-0.4,0.4-0.9,0.1-1.3
	l-3.1-4.3l2.8-6.8l5.2-0.8C69.3,41.9,69.6,41.5,69.6,41z M62.7,40.9c-0.3,0.1-0.6,0.3-0.8,0.6l-3.3,7.9c-0.1,0.3-0.1,0.7,0.1,1
	l2.9,4.1l-7.3,7.3l-4.1-2.9c-0.3-0.2-0.7-0.2-1-0.1l-7.9,3.3c-0.3,0.1-0.6,0.4-0.6,0.8l-0.8,5l-10.3,0l-0.8-5
	c-0.1-0.3-0.3-0.6-0.6-0.8l-7.9-3.3c-0.3-0.1-0.7-0.1-1,0.1l-4.1,2.9l-7.3-7.3l2.9-4.1c0.2-0.3,0.2-0.6,0.1-1l-3.3-7.9
	C8,41.2,7.7,41,7.3,40.9l-5-0.8l0-10.3l5-0.8C7.7,29,8,28.8,8.1,28.5l3.3-7.9c0.1-0.3,0.1-0.7-0.1-1l-2.9-4.1l7.3-7.3l4.1,2.9
	c0.3,0.2,0.6,0.3,1,0.1l7.9-3.3C28.8,8,29,7.7,29.1,7.3l0.8-5l10.3,0l0.8,5C41,7.7,41.2,8,41.5,8.1l7.9,3.3c0.3,0.1,0.7,0.1,1-0.1
	l4.1-2.9l7.3,7.3l-2.9,4.1c-0.2,0.3-0.2,0.6-0.1,1l3.3,7.9c0.1,0.3,0.4,0.6,0.8,0.6l5,0.8l0,10.3L62.7,40.9z"/>
<path class="st0" d="M49.1,45c1.1-2.8,0.4-6-1.9-8.1c-1.6-1.5-3.8-2.1-6-1.8l-0.2,0L34.8,29l0-0.2c0.4-2.3-0.4-4.6-2-6.2
	c-2.1-2.1-5.1-2.7-7.8-1.6c-0.3,0.1-0.5,0.4-0.6,0.7s0,0.7,0.3,0.9l2,2c0.6,0.6,0.6,1.5,0,2c-0.5,0.5-1.5,0.5-2,0l-2-2
	c-0.2-0.2-0.6-0.3-0.9-0.3c-0.3,0.1-0.6,0.3-0.7,0.6c-1.1,2.8-0.4,6.1,1.8,8.1c1.6,1.5,3.8,2.1,6,1.8l0.2,0l6.3,6.3l0,0.2
	c-0.4,2.3,0.4,4.6,2,6.2c1.4,1.4,3.2,2.1,5.1,2.1c0.9,0,1.8-0.2,2.7-0.5c0.3-0.1,0.5-0.4,0.6-0.7c0.1-0.3,0-0.7-0.3-0.9l-2-2
	c-0.6-0.6-0.6-1.5,0-2c0.6-0.6,1.5-0.6,2,0l2,2c0.2,0.2,0.6,0.3,0.9,0.3C48.7,45.6,48.9,45.4,49.1,45z M46.9,42l0.2-0.2l0,0L46.9,42
	c-1.4-1.4-3.6-1.4-4.9,0c-1.3,1.3-1.3,3.5,0,4.9l0.8,0.8l-1-0.1c-1.2-0.1-2.3-0.7-3.1-1.5c-1.3-1.3-1.8-3.3-1.4-5.1
	c0.1-0.3,0-0.7-0.3-1l-7-7c-0.2-0.2-0.6-0.3-1-0.3c-1.7,0.5-3.6,0-4.9-1.2c-0.9-0.9-1.5-2-1.7-3.3l-0.1-1l0.8,0.8
	c1.3,1.3,3.5,1.3,4.9,0c1.3-1.3,1.3-3.5,0-4.9l-0.8-0.8l1,0.1c1.2,0.1,2.3,0.7,3.1,1.5c1.3,1.3,1.8,3.3,1.4,5.1
	c-0.1,0.3,0,0.7,0.3,1l7,7c0.3,0.3,0.6,0.3,1,0.3c1.7-0.5,3.6,0,4.9,1.2c0.9,0.8,1.5,2,1.7,3.3l0.1,1.1L46.9,42z"/>
<path class="st0" d="M47.4,26.2c0-0.3,0-0.5-0.2-0.7c-2.2-2.8-5.3-4.8-8.8-5.6c-0.1,0-0.1,0-0.2,0c-0.2,0-0.4,0.1-0.5,0.2
	c-0.2,0.1-0.4,0.4-0.4,0.6c-0.1,0.5,0.2,1.1,0.8,1.2c3,0.7,5.7,2.4,7.6,4.9c0.3,0.4,1,0.5,1.4,0.2C47.2,26.7,47.4,26.5,47.4,26.2z"
	/>
<path class="st0" d="M47.9,30.1c-0.1,0.2-0.1,0.5-0.1,0.8c0.2,0.6,0.8,0.9,1.3,0.7c0.5-0.2,0.8-0.7,0.7-1.3l0-0.1
	c-0.1-0.4-0.5-0.7-1-0.7c-0.1,0-0.2,0-0.3,0C48.2,29.7,48,29.8,47.9,30.1z"/>
</svg>
