<?xml version="1.0" encoding="utf-8"?>
<!-- Generator: Adobe Illustrator 24.0.1, SVG Export Plug-In . SVG Version: 6.00 Build 0)  -->
<svg version="1.1" id="Слой_1" xmlns="http://www.w3.org/2000/svg" xmlns:xlink="http://www.w3.org/1999/xlink" x="0px" y="0px"
	 viewBox="0 0 70 70" style="enable-background:new 0 0 70 70;" xml:space="preserve">
<style type="text/css">
	.st0{fill:#FFFFFF;}
</style>
<g>
	<path class="st0" d="M41.1,30.1c0.6,0,1-0.5,1-1c0-3.6-1.4-7-4-9.5c-2.6-2.6-5.9-4-9.5-4s-7,1.4-9.5,4c-2.6,2.6-4,5.9-4,9.5
		c0,2.9,0.9,5.6,2.6,8c1.7,2.3,4.1,4,6.8,4.9c1.3,0.4,1.9-1.6,0.6-2c-2.3-0.7-4.3-2.2-5.8-4.2c-1.4-2-2.2-4.3-2.2-6.8
		c0-3,1.2-5.9,3.4-8.1s5-3.4,8.1-3.4c3,0,5.9,1.2,8.1,3.4c2.2,2.2,3.4,5,3.4,8.1C40,29.6,40.5,30.1,41.1,30.1z"/>
	<path class="st0" d="M28.6,22.3c2.9,0,5.6,2,6.4,4.8c0.4,1.3,2.4,0.7,2-0.6c-1.1-3.7-4.6-6.2-8.4-6.2c-4.8,0-8.8,3.9-8.8,8.8
		c0,2.7,1.2,5.2,3.4,6.9c1,0.8,2.3-0.8,1.3-1.6c-1.6-1.3-2.6-3.3-2.6-5.3C21.8,25.3,24.9,22.3,28.6,22.3z"/>
	<path class="st0" d="M48.2,64.1c-0.1-0.2-0.3-0.4-0.6-0.5s-0.5,0-0.8,0.1c-2.1,1.2-4.7,1.1-6.8-0.1l-2.9-1.7l-8.8-5.4
		c-0.1-0.2-0.4-0.4-0.6-0.5v-0.1c0-0.1,0-0.3,0.1-0.4c0.8-1.3,2.5-1.6,3.8-0.8l6.6,4.2c2.3,1.5,5.1-1.2,3.8-3.6l-3.5-6.6
		c-0.6-1.2-2.4-0.2-1.8,1l3.5,6.6c0.3,0.6-0.4,1.2-0.9,0.9L32.6,53c-2.2-1.4-5.1-0.8-6.6,1.4c-0.3,0.5-0.5,1.1-0.4,1.6H9.4
		c-1.5,0-2.7-1.2-2.7-2.7V4.7C6.7,3.2,7.9,2,9.4,2h5c1.3,0,1.3-2,0-2h-5C6.8,0,4.6,2.1,4.6,4.7v48.6c0,2.6,2.1,4.7,4.7,4.7h17.5
		l9.2,5.6l0,0l2.9,1.7c2.4,1.4,5.3,1.6,7.9,0.6l1.9,3.6c0.6,1.2,2.4,0.2,1.8-1L48.2,64.1z"/>
	<path class="st0" d="M65.2,60.7l-2.4-4.4c0.4-3.1-0.2-6.3-1.7-9l-2.7-4.9L55,35.9c-0.5-1-1.5-1.6-2.5-1.8V4.7
		c0-2.6-2.1-4.7-4.7-4.7H21c-1.3,0-1.3,2,0,2h26.8c1.5,0,2.7,1.2,2.7,2.7v29.5c-0.7,0.3-1.3,0.8-1.7,1.4c-1.8-1.6-4.7-1.1-5.7,1.1
		c-1.6-0.9-3.6-0.4-4.7,1l-5-9.2c-0.9-1.7-3.2-2.4-4.9-1.5c-1.7,0.9-2.4,3.2-1.5,4.9l7,12.8c0.6,1.2,2.4,0.2,1.8-1L28.9,31
		c-1-1.8,1.8-3.2,2.8-1.5l10.1,18.7c0.6,1.2,2.4,0.2,1.8-1L40,40.6c-1-1.8,1.8-3.2,2.8-1.5l0.5,0.9l3.1,5.7c0.6,1.1,2.5,0.2,1.8-1
		L45,39.1c-1-1.8,1.8-3.2,2.8-1.5l3.1,5.7c0.6,1.1,2.4,0.2,1.8-1l-2.2-4c-0.5-0.9,0-1.9,0.9-2.2c0.2,0,0.3,0,0.5-0.1
		c0.6,0,1.1,0.3,1.4,0.8l3.5,6.5l2.7,4.9c1.3,2.5,1.8,5.3,1.4,8.1c0,0.2,0,0.4,0.1,0.6l2.5,4.7C64,62.8,65.8,61.8,65.2,60.7z"/>
</g>
</svg>
