<?xml version="1.0" encoding="utf-8"?>
<!-- Generator: Adobe Illustrator 23.0.1, SVG Export Plug-In . SVG Version: 6.00 Build 0)  -->
<svg version="1.1" id="Слой_1" xmlns="http://www.w3.org/2000/svg" xmlns:xlink="http://www.w3.org/1999/xlink" x="0px" y="0px"
	 viewBox="0 0 70 70" style="enable-background:new 0 0 70 70;" xml:space="preserve">
<style type="text/css">
	.st0{fill:#0071B3;}
</style>
<path class="st0" d="M43.7,66.3v-3.1l0,0c4.1-1.3,8-3.5,11.4-6.6l0,0l0,0l2.7,1.5c1.4,0.8,3,0.5,4-0.7c1.3-1.5,2.5-3.1,3.5-4.9
	c1-1.7,1.9-3.6,2.6-5.5c0.4-1.5-0.2-3.1-1.5-3.8l-2.7-1.5l0,0c0.5-1.9,0.7-4.2,0.7-6.6c0-2.4-0.2-4.5-0.7-6.6l0,0l0,0l2.7-1.5
	c1.4-0.8,2-2.4,1.4-3.8c-0.6-1.7-1.4-3.4-2.6-5.5c-1-1.7-2.2-3.4-3.5-4.9c-1-1.2-2.7-1.5-4-0.7L55,13.5l0,0c-3.3-3-7.3-5.3-11.4-6.6
	l0,0V3.7c0-1.6-1.1-2.9-2.7-3.2C38.8,0.2,36.8,0,35,0c-1.8,0-3.8,0.2-6,0.5c-1.6,0.3-2.7,1.6-2.7,3.2v3.1l0,0
	c-4.1,1.3-8,3.5-11.4,6.6l0,0l0,0l-2.7-1.5c-1.4-0.8-3-0.5-4,0.7c-1.3,1.4-2.5,3.1-3.5,4.9c-1,1.7-1.9,3.6-2.6,5.5
	c-0.5,1.5,0,3.1,1.4,3.8l2.7,1.5l0,0c-0.5,1.9-0.7,4.2-0.7,6.6c0,2.4,0.2,4.5,0.7,6.6l0,0l0,0l-2.7,1.5C2,43.9,1.5,45.5,2,47
	c0.6,1.7,1.4,3.4,2.6,5.5c1,1.8,2.2,3.4,3.5,4.9c1,1.2,2.7,1.5,4,0.7l2.7-1.5l0,0c3.3,3,7.3,5.3,11.4,6.6l0,0v3.1
	c0,1.6,1.1,2.9,2.7,3.2c2.2,0.3,4.2,0.5,6,0.5c1.8,0,3.8-0.2,6-0.5C42.6,69.2,43.7,67.9,43.7,66.3z M41.8,62.5v3.9
	c0,0.6-0.4,1.1-1,1.2c-2.1,0.3-4,0.5-5.7,0.5c-1.7,0-3.6-0.2-5.7-0.5c-0.6-0.1-1-0.6-1-1.2v-3.9c0-0.5-0.3-0.9-0.7-1
	c-4.4-1.2-8.5-3.5-11.8-6.8c-0.2-0.2-0.5-0.3-0.7-0.3c-0.2,0-0.4,0-0.5,0.1l0,0l-3.3,1.9c-0.5,0.3-1.2,0.2-1.6-0.3
	c-1.4-1.8-2.4-3.2-3.3-4.7c-0.8-1.4-1.5-3-2.4-5.1c-0.1-0.3-0.1-0.6,0-0.9c0.1-0.2,0.3-0.4,0.5-0.5L7.9,43c0.4-0.2,0.6-0.6,0.5-1
	c-0.6-2.2-0.9-4.5-0.9-6.8c0-2.3,0.3-4.6,0.9-6.8c0.1-0.4-0.1-0.9-0.5-1l-3.3-1.9c-0.5-0.3-0.7-0.9-0.5-1.5c0.7-1.8,1.5-3.5,2.4-5.1
	c1-1.7,2.1-3.3,3.3-4.7c0.4-0.4,1-0.6,1.6-0.3l3.3,1.9c0.3,0.2,0.8,0.2,1.1-0.2c3.4-3.3,7.5-5.6,11.8-6.8c0.4-0.1,0.7-0.5,0.7-1v-4
	c0-0.6,0.4-1.1,1-1.2C31.4,2.1,33.3,2,35,2c1.7,0,3.6,0.2,5.7,0.5c0.6,0.1,1,0.6,1,1.2v3.9c0,0.5,0.3,0.9,0.7,1
	c4.4,1.2,8.5,3.5,11.8,6.8c0.3,0.3,0.8,0.4,1.1,0.2l3.3-1.9c0.5-0.3,1.2-0.2,1.6,0.3c1.4,1.7,2.4,3.2,3.3,4.7c0.8,1.4,1.5,3,2.4,5.1
	c0.2,0.5,0,1.2-0.5,1.5L62.1,27c-0.4,0.2-0.6,0.6-0.5,1c0.6,2.2,0.9,4.5,0.9,6.8c0,2.3-0.3,4.6-0.9,6.8c-0.1,0.4,0.1,0.9,0.5,1
	l3.3,1.9c0.5,0.5,0.7,1.1,0.5,1.7c-0.7,1.8-1.5,3.5-2.4,5.1c-1,1.7-2.1,3.3-3.3,4.7c-0.4,0.4-1,0.6-1.6,0.3l-3.3-1.9
	c-0.3-0.2-0.8-0.2-1.1,0.2c-3.4,3.3-7.5,5.6-11.8,6.8C42,61.6,41.8,62,41.8,62.5z"/>
<path d="M46.7,20.4c0.2,0.2,0.4,0.3,0.7,0.2c0.3,0,0.5-0.2,0.6-0.4c0.2-0.2,0.3-0.4,0.2-0.7c0-0.3-0.2-0.5-0.4-0.6l0,0
	c-3.8-3-8.4-4.5-13-4.5c-5.3,0-10.6,2-14.6,6c-7.5,7.5-8.1,19.3-1.5,27.5c0.2,0.3,0.4,0.4,0.8,0.4c0.2,0,0.5-0.1,0.6-0.2
	c0.4-0.4,0.5-1,0.2-1.3c-6-7.4-5.4-18.2,1.4-25C28.5,15,39.2,14.4,46.7,20.4z"/>
<path d="M51.2,22.1c-0.4-0.4-1-0.5-1.3-0.2c-0.4,0.4-0.5,1-0.2,1.3c6,7.4,5.4,18.2-1.4,25c-0.7,0.7-1.5,1.4-2.3,2l-0.1,0.1V39.7
	c0-1.3-0.7-2.4-1.9-2.9l-5.2-2.3v-2.3l0,0c1-1,1.6-2.4,1.6-3.9v-2.2c0-2.4-1.9-4.3-4.3-4.3h-2.2c-2.4,0-4.3,1.9-4.3,4.3v2.2
	c0,1.4,0.6,2.9,1.6,3.9l0,0v2.3L26,36.8c-1.1,0.5-1.9,1.6-1.9,2.9v10.6l-0.1-0.1c-0.2-0.1-0.3-0.2-0.4-0.3c-0.1-0.1-0.2-0.2-0.4-0.3
	c-0.2-0.2-0.4-0.2-0.6-0.2c0,0-0.1,0-0.1,0c-0.3,0-0.5,0.2-0.6,0.4c-0.2,0.2-0.3,0.4-0.2,0.7c0,0.3,0.2,0.5,0.4,0.6
	c3.6,3,8.2,4.6,12.9,4.6c5.4,0,10.6-2.2,14.7-6.1C57.1,42.2,57.8,30.4,51.2,22.1z M31.9,25.4c0.3-0.9,1.1-1.4,2-1.4h2.2
	c1.2,0,2.2,1,2.4,2.2l0,0.1l-0.1,0L31.9,25.4L31.9,25.4z M31.5,27.4h0.2l6.7,0.8v0.2c0,1.9-1.5,3.4-3.4,3.4c-1.9,0-3.4-1.5-3.4-3.4
	V27.4z M37.4,36L37.4,36L37.4,36L35,38.1l0,0l-2.4-2l0,0c0.4-0.4,0.7-0.9,0.7-1.6v-1l0.1,0c0.5,0.2,1.1,0.3,1.7,0.3s1.2-0.1,1.7-0.3
	l0.1,0v1C36.8,34.9,37,35.5,37.4,36z M44,51.5h-0.1c-0.2,0.1-0.4,0.2-0.6,0.3c-0.6,0.3-1.1,0.6-1.7,0.8l-0.1,0v-10c0-0.6-0.5-1-1-1
	c-0.6,0-1,0.5-1,1v10.5l0,0c-1.5,0.4-3,0.5-4.5,0.5s-3-0.2-4.5-0.5l0,0V42.7c0-0.6-0.5-1-1-1c-0.6,0-1,0.5-1,1v10l-0.1,0
	c-0.8-0.3-1.6-0.6-2.3-1.1l0,0V39.7c0-0.5,0.3-0.9,0.7-1.1l3.7-1.6l0,0l3.4,2.9v2.8c0,0.6,0.5,1,1,1c0.6,0,0.9-0.5,0.9-1v-2.8l0,0
	l3.4-2.9l0,0l3.7,1.6c0.5,0.2,0.7,0.7,0.7,1.1V51.5z"/>
</svg>
