<svg width="60" height="70" viewBox="0 0 60 70" fill="none" xmlns="http://www.w3.org/2000/svg">
<path d="M45.2406 18.5674V18.6295L45.2845 18.6734L59.3766 32.7724C59.6047 33.0006 59.7328 33.3101 59.7328 33.6328V68.6328C59.7328 69.3049 59.1878 69.85 58.5156 69.85V70C58.5156 69.9304 58.5156 69.893 58.5155 69.8731C58.5155 69.85 58.5153 69.85 58.5152 69.85H58.5138H58.5114H58.5082H58.504H58.4989H58.4929H58.4859H58.478H58.4693H58.4596H58.449H58.4375H58.4251H58.4119H58.3977H58.3826H58.3667H58.3498H58.3321H58.3135H58.294H58.2737H58.2525H58.2304H58.2074H58.1836H58.1589H58.1334H58.107H58.0798H58.0517H58.0228H57.993H57.9624H57.9309H57.8987H57.8656H57.8316H57.7969H57.7613H57.7249H57.6877H57.6496H57.6108H57.5711H57.5307H57.4894H57.4474H57.4045H57.3609H57.3164H57.2712H57.2252H57.1784H57.1309H57.0825H57.0334H56.9835H56.9329H56.8814H56.8293H56.7763H56.7226H56.6682H56.613H56.557H56.5004H56.4429H56.3848H56.3259H56.2662H56.2059H56.1448H56.0829H56.0204H55.9572H55.8932H55.8285H55.7631H55.697H55.6302H55.5627H55.4945H55.4256H55.356H55.2857H55.2147H55.1431H55.0707H54.9977H54.924H54.8497H54.7747H54.699H54.6226H54.5456H54.4679H54.3896H54.3106H54.2309H54.1507H54.0697H53.9882H53.9059H53.8231H53.7396H53.6555H53.5708H53.4854H53.3995H53.3129H53.2257H53.1379H53.0494H52.9604H52.8708H52.7805H52.6897H52.5983H52.5062H52.4136H52.3204H52.2266H52.1323H52.0373H51.9418H51.8457H51.7491H51.6519H51.5541H51.4557H51.3568H51.2574H51.1574H51.0568H50.9557H50.854H50.7519H50.6491H50.5459H50.4421H50.3378H50.2329H50.1275H50.0217H49.9152H49.8083H49.7009H49.5929H49.4845H49.3755H49.2661H49.1562H49.0457H48.9348H48.8234H48.7114H48.5991H48.4862H48.3728H48.259H48.1447H48.03H47.9147H47.799H47.6829H47.5663H47.4492H47.3317H47.2138H47.0953H46.9765H46.8572H46.7375H46.6173H46.4967H46.3757H46.2543H46.1324H46.0101H45.8874H45.7643H45.6408H45.5168H45.3925H45.2678H45.1426H45.0171H44.8911H44.7648H44.6381H44.511H44.3835H44.2557H44.1274H43.9988H43.8698H43.7405H43.6108H43.4807H43.3503H43.2195H43.0883H42.9568H42.825H42.6928H42.5603H42.4274H42.2942H42.1607H42.0268H41.8926H41.7581H41.6232H41.4881H41.3526H41.2168H41.0807H40.9443H40.8076H40.6706H40.5332H40.3956H40.2577H40.1195H39.9811H39.8423H39.7032H39.5639H39.4243H39.2844H39.1443H39.0039H38.8632H38.7222H38.581H38.4396H38.2979H38.1559H38.0137H37.8713H37.7286H37.5856H37.4425H37.2991H37.1555H37.0116H36.8675H36.7232H36.5787H36.434H36.289H36.1439H35.9985H35.8529H35.7071H35.5612H35.415H35.2687H35.1221H34.9754H34.8285H34.6814H34.5341H34.3866H34.239H34.0912H33.9433H33.7951H33.6468H33.4984H33.3498H33.201H33.0521H32.9031H32.7539H32.6046H32.4551H32.3055H32.1557H32.0059H31.8559H31.7058H31.5555H31.4052H31.2547H31.1041H30.9534H30.8026H30.6517H30.5007H30.3496H30.1984H30.0471H29.8957H29.7443H29.5927H29.4411H29.2894H29.1376H28.9858H28.8338H28.6818H28.5298H28.3777H28.2255H28.0733H27.921H27.7687H27.6163H27.4639H27.3114H27.1589H27.0064H26.8538H26.7013H26.5486H26.396H26.2433H26.0907H25.938H25.7853H25.6326H25.4799H25.3271H25.1744H25.0217H24.869H24.7163H24.5636H24.4109H24.2583H24.1056H23.953H23.8004H23.6478H23.4953H23.3428H23.1904H23.0379H22.8856H22.7332H22.5809H22.4287H22.2765H22.1244H21.9724H21.8204H21.6684H21.5166H21.3648H21.2131H21.0614H20.9099H20.7584H20.607H20.4557H20.3045H20.1534H20.0024H19.8515H19.7007H19.5499H19.3993H19.2489H19.0985H18.9482H18.7981H18.6481H18.4982H18.3485H18.1989H18.0494H17.9H17.7508H17.6017H17.4528H17.3041H17.1554H17.007H16.8587H16.7105H16.5626H16.4147H16.2671H16.1196H15.9723H15.8252H15.6783H15.5315H15.385H15.2386H15.0924H14.9464H14.8006H14.655H14.5096H14.3645H14.2195H14.0747H13.9302H13.7859H13.6418H13.4979H13.3542H13.2108H13.0676H12.9247H12.782H12.6395H12.4972H12.3553H12.2135H12.072H11.9308H11.7899H11.6491H11.5087H11.3685H11.2286H11.089H10.9496H10.8106H10.6718H10.5333H10.395H10.2571H10.1194H9.9821H9.84505H9.70831H9.57187H9.43573H9.29991H9.1644H9.0292H8.89432H8.75977H8.62554H8.49163H8.35806H8.22482H8.09192H7.95935H7.82713H7.69525H7.56372H7.43254H7.30171H7.17124H7.04113H6.91138H6.78199H6.65297H6.52433H6.39605H6.26815H6.14063H6.0135H5.88674H5.76038H5.63441H5.50883H5.38364H5.25886H5.13447H5.0105H4.88693H4.76377H4.64102H4.51869H4.39678H4.2753H4.15423H4.0336H3.91339H3.79362H3.67429H3.5554H3.43694H3.31894H3.20138H3.08427H2.96762H2.85142H2.73568H2.62041H2.5056H2.39126H2.27739H2.16399H2.05107H1.93863H1.82667H1.7152H1.60421H1.49372H1.38372H1.27422H1.16522H1.05672H0.948724H0.841239H0.734264H0.627804H0.521861H0.416437H0.311537H0.207162H0.15V61.25C0.15 60.5779 0.69507 60.0328 1.36719 60.0328H4.375H4.525V59.8828V10.1172C4.525 8.6923 5.68448 7.53281 7.10937 7.53281H7.18106H7.25278H7.32452H7.3963H7.46812H7.53996H7.61183H7.68374H7.75567H7.82763H7.89963H7.97165H8.0437H8.11579H8.1879H8.26004H8.33221H8.4044H8.47663H8.54888H8.62116H8.69347H8.7658H8.83816H8.91055H8.98296H9.0554H9.12787H9.20036H9.27287H9.34542H9.41798H9.49057H9.56319H9.63583H9.70849H9.78118H9.85389H9.92662H9.99938H10.0722H10.145H10.2178H10.2906H10.3635H10.4364H10.5093H10.5822H10.6552H10.7281H10.8011H10.8741H10.9472H11.0202H11.0933H11.1664H11.2395H11.3126H11.3858H11.4589H11.5321H11.6053H11.6785H11.7518H11.825H11.8983H11.9716H12.0449H12.1182H12.1915H12.2649H12.3382H12.4116H12.485H12.5584H12.6318H12.7053H12.7787H12.8522H12.9256H12.9991H13.0726H13.1461H13.2197H13.2932H13.3668H13.4403H13.5139H13.5875H13.6611H13.7347H13.8083H13.8819H13.9555H14.0292H14.1028H14.1765H14.2502H14.3239H14.3976H14.4713H14.545H14.6187H14.6924H14.7661H14.8399H14.9136H14.9874H15.0611H15.1349H15.2086H15.2824H15.3562H15.43H15.5038H15.5776H15.6514H15.7252H15.799H15.8728H15.9466H16.0204H16.0942H16.168H16.2419H16.3157H16.3895H16.4634H16.5372H16.611H16.6848H16.7587H16.8325H16.9064H16.9802H17.054H17.1279H17.2017H17.2755H17.3494H17.4232H17.497H17.5708H17.6447H17.7185H17.7923H17.8661H17.9399H18.0138H18.0876H18.1614H18.2352H18.309H18.3828H18.4565H18.5303H18.6041H18.6779H18.7516H18.8254H18.8991H18.9729H19.0466H19.1204H19.1941H19.2678H19.3415H19.4152H19.4889H19.5626H19.6363H19.7099H19.7836H19.8573H19.9309H20.0045H20.0782H20.1518H20.2254H20.299H20.3725H20.4461H20.5197H20.5932H20.6667H20.7402H20.8138H20.8873H20.9607H21.0342H21.1077H21.1811H21.2545H21.3279H21.4013H21.4747H21.5481H21.6214H21.6948H21.7681H21.8414H21.9147H21.988H22.0612H22.1345H22.2077H22.2809H22.3541H22.4273H22.5004H22.5736H22.6467H22.7198H22.7929H22.8659H22.939H23.012H23.085H23.158H23.2309H23.3039H23.3768H23.4497H23.5226H23.5954H23.6683H23.7411H23.8139H23.8866H23.9594H24.0321H24.1048H24.1775H24.2501H24.3228H24.3954H24.4679H24.5405H24.613H24.6855H24.758H24.8305H24.9029H24.9753H25.0477H25.12H25.1923H25.2646H25.3369H25.4091H25.4813H25.5535H25.6257H25.6978H25.7699H25.842H25.914H25.986H26.058H26.13H26.2019H26.2738H26.3456H26.4174H26.4892H26.561H26.6327H26.7044H26.7761H26.8477H26.9194H26.9909H27.0625H27.134H27.2054H27.2769H27.3483H27.4196H27.491H27.5623H27.6335H27.7048H27.776H27.8471H27.9182H27.9893H28.0604H28.1314H28.2024H28.2733H28.3442H28.4151H28.4859H28.5567H28.6274H28.6981H28.7688H28.8394H28.91H28.9806H29.0511H29.1216H29.192H29.2624H29.3328H29.4031H29.4733H29.5436H29.6137H29.6839H29.754H29.824H29.8941H29.964H30.034H30.1039H30.1737H30.2435H30.3133H30.383H30.4526H30.5222H30.5918H30.6614H30.7308H30.8003H30.8697H30.939H31.0083H31.0776H31.1468H31.2159H31.285H31.3541H31.4231H31.4921H31.561H31.6299H31.6987H31.7675H31.8362H31.9049H31.9735H32.0421H32.1106H32.1791H32.2475H32.3158H32.3842H32.4524H32.5206H32.5888H32.6569H32.725H32.793H32.8609H32.9288H32.9967H33.0644H33.1322H33.1999H33.2675H33.3351H33.4026H33.4701H33.5375H33.6048H33.6721H33.7393H33.8065H33.8736H33.9407H34.0077H34.0747H34.1416H34.2084H34.2752H34.3419H34.4086H34.4752H34.5417H34.6082H34.6747H34.741H34.8073H34.8736H34.9398H35.0059H35.072H35.138H35.2039H35.2698H35.3356H35.4014H35.467H35.5327H35.5982H35.6637H35.7292H35.7946H35.8599H35.9251H35.9903H36.0554H36.1205H36.1855H36.2504H36.3153H36.3801H36.4448H36.5095H36.574H36.6386H36.703H36.7674H36.8318H36.896H36.9602H37.0243H37.0884H37.1524H37.2163H37.2801H37.3439H37.4076H37.4713H37.5348H37.5983H37.6618H37.7251H37.7884H37.8516H37.9147H37.9778H38.0408H38.1037H38.1666H38.2294H38.2921H38.3547H38.4173H38.4798H38.5422H38.6045H38.6668H38.729H38.7911H38.8531H38.9151H38.977H39.0388H39.1005H39.1622H39.2238H39.2853H39.3467H39.4081H39.4693H39.5305H39.5917H39.6527H39.7137H39.7745H39.8353H39.8961H39.9567H40.0173H40.0778H40.1382H40.1985H40.2587H40.3189H40.379H40.439H40.4989H40.5587H40.6185H40.6782H40.7377H40.7973H40.8567H40.916H40.9753H41.0344H41.0935H41.1525H41.2115H41.2703H41.329H41.3877H41.4463H41.5048H41.5632H41.6215H41.6797H41.7379H41.7959H41.8539H41.9118H41.9696H42.0273H42.0849H42.1425H42.1999H42.2573H42.3145H42.3717H42.4288H42.4858H42.5427H42.5995H42.6563C44.0811 7.53281 45.2406 8.6923 45.2406 10.1172V18.5674ZM32.6303 9.96719H32.4803V10.1172V20.5078V20.6578H32.6303H42.6563H42.8063V20.5078V10.1172V9.96719H42.6563H32.6303ZM32.6303 23.0922H32.4803V23.2422V33.6328V33.7828H32.6303H42.6563H42.8063V33.6328V23.2422V23.0922H42.6563H32.6303ZM32.6303 36.2172H32.4803V36.3672V46.7578V46.9078H32.6303H42.6563H42.8063V46.7578V36.3672V36.2172H42.6563H32.6303ZM32.6303 49.3422H32.4803V49.4922V59.8828V60.0328H32.6303H42.6563H42.8063V59.8828V49.4922V49.3422H42.6563H32.6303ZM19.8697 9.96719H19.7197V10.1172V20.5078V20.6578H19.8697H29.8959H30.0459V20.5078V10.1172V9.96719H29.8959H19.8697ZM19.8697 23.0922H19.7197V23.2422V33.6328V33.7828H19.8697H29.8959H30.0459V33.6328V23.2422V23.0922H29.8959H19.8697ZM19.8697 36.2172H19.7197V36.3672V46.7578V46.9078H19.8697H29.8959H30.0459V46.7578V36.3672V36.2172H29.8959H19.8697ZM19.8697 49.3422H19.7197V49.4922V59.8828V60.0328H19.8697H29.8959H30.0459V59.8828V49.4922V49.3422H29.8959H19.8697ZM7.10937 9.96719H6.95937V10.1172V20.5078V20.6578H7.10937H17.1354H17.2854V20.5078V10.1172V9.96719H17.1354H7.10937ZM7.10937 23.0922H6.95937V23.2422V33.6328V33.7828H7.10937H17.1354H17.2854V33.6328V23.2422V23.0922H17.1354H7.10937ZM7.10937 36.2172H6.95937V36.3672V46.7578V46.9078H7.10937H17.1354H17.2854V46.7578V36.3672V36.2172H17.1354H7.10937ZM7.10937 49.3422H6.95937V49.4922V59.8828V60.0328H7.10937H17.1354H17.2854V59.8828V49.4922V49.3422H17.1354H7.10937ZM47.0313 67.4156H47.1813V67.2656V62.6172V62.4672H47.0313H44.0234H2.73438H2.58437V62.6172V67.2656V67.4156H2.73438H47.0313ZM57.1484 67.4156H57.2984V67.2656V34.199V34.1369L57.2545 34.0929L45.4967 22.3294L45.2406 22.0732V22.4354V33.6328V33.7828H45.3906H49.7435C50.4156 33.7828 50.9607 34.3279 50.9607 35C50.9607 35.6721 50.4156 36.2172 49.7435 36.2172H45.3906H45.2406V36.3672V40.1896V40.3396H45.3906H49.7435C50.4156 40.3396 50.9607 40.8846 50.9607 41.5568C50.9607 42.2289 50.4156 42.7739 49.7435 42.7739H45.3906H45.2406V42.9239V46.7462V46.8962H45.3906H49.7435C50.4156 46.8962 50.9607 47.4413 50.9607 48.1134C50.9607 48.7855 50.4156 49.3306 49.7435 49.3306H45.3906H45.2406V49.4806V53.3029V53.4529H45.3906H49.7435C50.4156 53.4529 50.9607 53.998 50.9607 54.6701C50.9607 55.3422 50.4156 55.8873 49.7435 55.8873H45.3906H45.2406V56.0373V59.8828V60.0328H45.3906H48.3984C49.0706 60.0328 49.6156 60.5779 49.6156 61.25V67.2656V67.4156H49.7656H57.1484Z" fill="black" stroke="white" stroke-width="0.3"/>
<rect x="13.8828" y="1" width="22" height="4" rx="1" stroke="#0071B3" stroke-width="2"/>
</svg>
