<?xml version="1.0" encoding="utf-8"?>
<!-- Generator: Adobe Illustrator 23.0.1, SVG Export Plug-In . SVG Version: 6.00 Build 0)  -->
<svg version="1.1" id="Слой_1" xmlns="http://www.w3.org/2000/svg" xmlns:xlink="http://www.w3.org/1999/xlink" x="0px" y="0px"
	 width="70px" height="70px" viewBox="0 0 70 70" style="enable-background:new 0 0 70 70;" xml:space="preserve">
<path d="M66.3,0.4H3.7c-1.8,0-3.3,1.5-3.3,3.3v62.6c0,1.8,1.5,3.3,3.3,3.3h62.6c1.8,0,3.3-1.5,3.3-3.3V3.7
	C69.5,1.9,68.1,0.4,66.3,0.4z M67.6,66.3c0,0.7-0.6,1.3-1.3,1.3H3.7c-0.7,0-1.4-0.6-1.4-1.3V11.7h65.3V66.3z M67.6,9.8H2.4v-6
	C2.4,3,3,2.4,3.7,2.4h62.6c0.7,0,1.3,0.6,1.3,1.4V9.8z"/>
<path d="M5.3,6.7c0.4,0.4,1,0.4,1.3,0C7,6.3,7,5.7,6.7,5.3C6.5,5.2,6.2,5.1,6,5.1c-0.2,0-0.5,0.1-0.7,0.2C5.1,5.5,5,5.8,5,6
	c0,0.1,0,0.3,0.1,0.4l0,0v0C5.1,6.5,5.2,6.6,5.3,6.7z"/>
<path d="M9.8,6.5c0,0,0.1,0.1,0.1,0.1c0,0,0,0,0,0.1c0,0,0.1,0.1,0.1,0.1c0.2,0.2,0.4,0.3,0.7,0.3c0.2,0,0.5-0.1,0.7-0.3l0.1-0.2
	c0,0,0.1-0.1,0.1-0.2c0-0.1,0-0.1,0.1-0.1c0,0,0,0,0-0.1V6c0-0.3-0.1-0.5-0.3-0.7C11.1,5.1,10.9,5,10.6,5c-0.3,0-0.5,0.1-0.7,0.3
	C9.7,5.5,9.6,5.8,9.6,6v0.2c0,0.1,0,0.1,0.1,0.2L9.8,6.5L9.8,6.5C9.8,6.4,9.8,6.4,9.8,6.5z"/>
<path d="M15.3,5c-0.2,0-0.5,0.1-0.7,0.3c-0.4,0.4-0.4,1,0,1.3C14.8,6.8,15.1,7,15.3,7c0.2,0,0.5-0.1,0.7-0.3
	c0.2-0.2,0.3-0.4,0.3-0.7S16.2,5.5,16,5.3C15.8,5.2,15.5,5,15.3,5z"/>
<path d="M5,14.3v15.8H65V14.3H5z M63,28.3H7v-12H63V28.3z"/>
<path d="M5,32.9v32h20.5v-32H5z M23.5,63H7V34.9h16.6V63z"/>
<path d="M28.3,32.9v14.7H65V32.9H28.3z M63,45.6H30.2V34.9H63V45.6z"/>
<path d="M28.3,50.3V65H65V50.3H28.3z M63,63H30.2V52.3H63V63z"/>
</svg>
