<?xml version="1.0" encoding="utf-8"?>
<!-- Generator: Adobe Illustrator 23.0.1, SVG Export Plug-In . SVG Version: 6.00 Build 0)  -->
<svg version="1.1" id="Слой_1" xmlns="http://www.w3.org/2000/svg" xmlns:xlink="http://www.w3.org/1999/xlink" x="0px" y="0px"
	 width="70px" height="70px" viewBox="0 0 70 70" style="enable-background:new 0 0 70 70;" xml:space="preserve">
<style type="text/css">
	.st0{fill:#FFFFFF;}
</style>
<path class="st0" d="M67,42.4L64.5,41c0.4-2,0.6-4,0.6-6c0-2-0.2-4-0.6-6l2.4-1.4c0.7-0.4,1.3-1.1,1.5-2c0.2-0.8,0.1-1.7-0.3-2.4
	l-6.6-11.4c-0.4-0.7-1.1-1.3-2-1.5c-0.8-0.2-1.7-0.1-2.4,0.3L54.8,12c-3-2.7-6.6-4.7-10.4-6V3.2c0-1.8-1.4-3.2-3.2-3.2H28
	c-1.8,0-3.2,1.4-3.2,3.2V6c-3.8,1.3-7.4,3.4-10.4,6l-2.4-1.4c-0.7-0.4-1.6-0.5-2.4-0.3c-0.8,0.2-1.5,0.8-2,1.5L0.9,23.2
	c-0.4,0.7-0.5,1.6-0.3,2.4c0.2,0.8,0.8,1.5,1.5,2L4.5,29c-0.4,2-0.6,4-0.6,6c0,2,0.2,4,0.6,6l-2.4,1.4c-1.5,0.9-2.1,2.9-1.2,4.4
	l6.6,11.4c0.9,1.5,2.9,2.1,4.4,1.2l2.4-1.4c3,2.7,6.6,4.7,10.4,6v2.8c0,1.8,1.4,3.2,3.2,3.2h13.2c1.8,0,3.2-1.4,3.2-3.2V64
	c3.8-1.3,7.4-3.4,10.4-6l2.4,1.4c1.5,0.9,3.5,0.4,4.4-1.2l6.6-11.4C69,45.3,68.5,43.3,67,42.4z M66.4,45.8l-6.6,11.4
	c-0.3,0.6-1,0.7-1.6,0.4l-3.1-1.8c-0.4-0.2-0.9-0.2-1.2,0.1C50.8,58.9,47,61,43,62.3c-0.4,0.1-0.7,0.5-0.7,1v3.5
	c0,0.6-0.5,1.2-1.2,1.2H28c-0.6,0-1.2-0.5-1.2-1.2v-3.5c0-0.5-0.3-0.8-0.7-1c-4-1.2-7.8-3.4-10.9-6.3c-0.2-0.2-0.4-0.3-0.7-0.3
	c-0.2,0-0.4,0-0.5,0.1l-3.1,1.8c-0.6,0.3-1.3,0.1-1.6-0.4L2.7,45.8c-0.3-0.6-0.1-1.3,0.4-1.6l3.1-1.8c0.4-0.2,0.6-0.7,0.5-1.1
	C6.2,39.2,6,37.1,6,35c0-2.1,0.2-4.2,0.7-6.3c0.1-0.4-0.1-0.9-0.5-1.1l-3.1-1.8c-0.3-0.2-0.5-0.4-0.5-0.7c-0.1-0.3,0-0.6,0.1-0.9
	l6.6-11.4c0.2-0.3,0.4-0.5,0.7-0.5c0.3-0.1,0.6,0,0.9,0.1l3.1,1.8c0.4,0.2,0.9,0.2,1.2-0.1c3.1-2.9,6.9-5.1,10.9-6.3
	c0.4-0.1,0.7-0.5,0.7-1V3.2c0-0.6,0.5-1.2,1.2-1.2h13.2c0.6,0,1.2,0.5,1.2,1.2v3.5c0,0.5,0.3,0.8,0.7,1c4,1.2,7.8,3.4,10.9,6.3
	c0.3,0.3,0.8,0.4,1.2,0.1l3.1-1.8c0.3-0.2,0.6-0.2,0.9-0.1c0.3,0.1,0.6,0.3,0.7,0.5l6.6,11.4c0.2,0.3,0.2,0.6,0.1,0.9
	c-0.1,0.3-0.3,0.6-0.5,0.7l-3.1,1.8c-0.4,0.2-0.6,0.7-0.5,1.1c0.5,2.1,0.7,4.2,0.7,6.3c0,2.1-0.2,4.2-0.7,6.3
	c-0.1,0.4,0.1,0.9,0.5,1.1l3.1,1.8C66.5,44.5,66.7,45.2,66.4,45.8z"/>
<path class="st0" d="M34.5,14.2c-11.4,0-20.8,9.3-20.8,20.8s9.3,20.8,20.8,20.8c11.4,0,20.8-9.3,20.8-20.8S46,14.2,34.5,14.2z
	 M34.5,53.7c-10.3,0-18.7-8.4-18.7-18.7s8.4-18.7,18.7-18.7c10.3,0,18.7,8.4,18.7,18.7S44.8,53.7,34.5,53.7z"/>
<path class="st0" d="M38.4,29.6h-3.8c-0.6,0-1,0.5-1,1v8.8c0,0.6,0.5,1,1,1c0.6,0,1-0.5,1-1v-2.3h2.8c2.1,0,3.8-1.7,3.8-3.8
	S40.4,29.6,38.4,29.6z M38.4,35.1h-2.8v-3.4h2.8c0.9,0,1.7,0.8,1.7,1.7C40.1,34.3,39.3,35.1,38.4,35.1z"/>
<path class="st0" d="M28.9,30.3c-0.2-0.4-0.5-0.7-1-0.7h-1.1c-0.4,0-0.8,0.3-1,0.7L22.6,39c-0.2,0.5,0.1,1.1,0.6,1.3
	c0.5,0.2,1.1-0.1,1.3-0.6l0.6-1.5h4.6l0.6,1.5c0.2,0.4,0.5,0.7,1,0.7c0.1,0,0.2,0,0.4-0.1c0.5-0.2,0.8-0.8,0.6-1.3L28.9,30.3z
	 M25.9,36.2l1.5-4.1l1.5,4.1H25.9z"/>
<path class="st0" d="M44.4,29.6c-0.6,0-1,0.5-1,1v8.8c0,0.6,0.5,1,1,1c0.6,0,1-0.5,1-1v-8.8C45.4,30,45,29.6,44.4,29.6z"/>
<path class="st0" d="M41.9,12c0.7,0.2,1.4,0.5,2.1,0.8c0.1,0.1,0.3,0.1,0.4,0.1c0.4,0,0.8-0.2,0.9-0.6c0.2-0.5,0-1.1-0.5-1.3
	c-0.7-0.3-1.5-0.6-2.3-0.9c-0.5-0.2-1.1,0.1-1.3,0.7C41,11.2,41.3,11.8,41.9,12z"/>
<path class="st0" d="M13.3,46.6c-0.3-0.5-0.9-0.7-1.4-0.4c-0.5,0.3-0.7,0.9-0.4,1.4c0.4,0.8,0.9,1.5,1.4,2.3
	c0.2,0.3,0.5,0.4,0.8,0.4c0.2,0,0.4-0.1,0.6-0.2c0.5-0.3,0.6-1,0.3-1.4C14.1,48,13.7,47.3,13.3,46.6z"/>
<path class="st0" d="M32.4,59.1c-5.5-0.5-10.7-2.9-14.7-6.7c-0.4-0.4-1.1-0.4-1.5,0c-0.4,0.4-0.4,1.1,0,1.5c4.3,4.2,10,6.8,16,7.3
	c0,0,0.1,0,0.1,0c0.5,0,1-0.4,1-0.9C33.4,59.6,33,59.1,32.4,59.1z"/>
<path class="st0" d="M49.3,13.3c-0.5-0.3-1.1-0.2-1.4,0.3c-0.3,0.5-0.2,1.1,0.3,1.4c4.8,3.3,8.2,8.1,9.7,13.7c0.1,0.5,0.5,0.8,1,0.8
	c0.1,0,0.2,0,0.3,0c0.5-0.1,0.9-0.7,0.7-1.3C58.2,22.1,54.5,16.9,49.3,13.3z"/>
</svg>
