<svg id="mymediads_l.svg" xmlns="http://www.w3.org/2000/svg" width="167" height="40" viewBox="0 0 167 40">
  <defs>
    <style>
      .cls-1 {
        fill: #fff;
        fill-opacity: 0;
      }

      .cls-2 {
        fill: #2678bd;
        fill-rule: evenodd;
      }
    </style>
  </defs>
  <rect id="Прямоугольник_1_копия_2" data-name="Прямоугольник 1 копия 2" class="cls-1" width="167" height="40"/>
  <path id="Фигура_3" data-name="Фигура 3" class="cls-2" d="M525.47,41.96a14,14,0,1,1-14.112,14,14.059,14.059,0,0,1,14.112-14h0Zm3.986,19.886h3.213l-5.845-13.425H523.9l-5.845,13.425h3.213l1.258-2.9h5.67l1.258,2.9h0Zm-4.083-9.43-1.7,3.9h3.387l-1.683-3.9h0Zm41.206-1.671a1.828,1.828,0,0,0-1.19.355,1.154,1.154,0,0,0-.435.941,1.062,1.062,0,0,0,.532.932,9.8,9.8,0,0,0,2.458.816,6.935,6.935,0,0,1,2.99,1.411A3.471,3.471,0,0,1,572,57.947a3.614,3.614,0,0,1-1.365,2.929A5.467,5.467,0,0,1,567.044,62a8.342,8.342,0,0,1-5.787-2.362l1.8-2.19a6.427,6.427,0,0,0,4.045,1.9,2.133,2.133,0,0,0,1.306-.355,1.135,1.135,0,0,0,.475-0.96,1.115,1.115,0,0,0-.5-0.96,6.563,6.563,0,0,0-1.993-.72,8.693,8.693,0,0,1-3.454-1.45,3.408,3.408,0,0,1-1.094-2.8,3.465,3.465,0,0,1,1.384-2.948,5.6,5.6,0,0,1,3.455-1.037,8.361,8.361,0,0,1,2.709.461,7.277,7.277,0,0,1,2.361,1.306l-1.529,2.189a5.987,5.987,0,0,0-3.639-1.325h0ZM486.668,59.2a23.217,23.217,0,0,1,.039-8.162h1.919c2.78,0,4.075,1.212,4.075,4.11,0,2.727-1.172,4.052-3.843,4.052h-2.19Zm-2.512-10.775a30.645,30.645,0,0,0-.137,13.425h4.53c4.506,0,7.191-2.023,7.191-6.78,0-4.6-2.683-6.645-7.036-6.645h-4.548Zm-7.928,2.67h-6.491q-0.126,1.373-.182,2.766h6.271c-0.035.847-.051,1.706-0.042,2.554h-6.266c0,0.927.037,1.86,0.094,2.785h6.713q0.087,1.335.245,2.651h-9.755a56.222,56.222,0,0,1,.2-13.425h9.548q-0.205,1.323-.336,2.67h0Zm68.095-2.67a20.764,20.764,0,0,1,.276,13.425h4.417c4.506,0,7.8-2.023,7.8-6.78,0-4.6-3.287-6.645-7.641-6.645h-4.848ZM548.368,59.2a20.43,20.43,0,0,0-.168-8.162h0.893c2.78,0,4.68,1.212,4.68,4.11,0,2.727-1.776,4.052-4.447,4.052h-0.958Zm-92.588-5.5a51.785,51.785,0,0,0-3.478,7.041h-1.8a48.492,48.492,0,0,1-3.4-6.72l-0.068-.181q-0.029,1.063-.029,2.133,0,2.968.221,5.882h-2.94q-0.211-2.914-.216-5.882c0-2.544.124-5.059,0.355-7.543h3.641a58.461,58.461,0,0,0,3.342,7.375,54.23,54.23,0,0,1,3.5-7.375h4.163a66.393,66.393,0,0,0-.433,7.543c0,1.983.093,3.943,0.264,5.882H455.96V61.411c-0.142-1.8-.218-3.613-0.218-5.447q0-1.141.038-2.273h0Zm-25.1,8.155c-0.109-1.758-.176-3.529-0.188-5.311a89.458,89.458,0,0,1-4.677-8.114h3.271a34.191,34.191,0,0,0,2.922,4.994,50.126,50.126,0,0,1,2.923-4.994H438.2a75.191,75.191,0,0,0-4.684,8.124c-0.074,0,.163,4.858.192,5.3h-3.03Zm-22.487,0c-0.139-2.771-.183-5.639-0.119-8.415,1.1,2.427,2.331,4.862,3.621,7.3h1.8a61.978,61.978,0,0,1,3.657-7.337,80.474,80.474,0,0,0,.085,8.45h3.019a118.688,118.688,0,0,1-.084-13.425h-3.7a59.98,59.98,0,0,0-3.872,7.375c-1.288-2.451-2.41-4.912-3.484-7.375h-3.8a120.256,120.256,0,0,0-.1,13.425h2.974Zm97.269-.914-0.019-.053-0.01-.029-0.01-.029-0.011-.029c-0.1-.284-0.19-0.573-0.276-0.865h0a16.583,16.583,0,0,1-.168-9.272l0,0c0.124-.457.27-0.911,0.43-1.353l-2.921-1.043-0.076.215a20.645,20.645,0,0,0-.03,13.437l3.088-.985h0Zm1.814-15.088a2.43,2.43,0,0,1-3.255-1.06,2.394,2.394,0,0,1,1.068-3.231,2.432,2.432,0,0,1,3.256,1.06A2.4,2.4,0,0,1,507.276,45.845Z" transform="translate(-405 -34)"/>
</svg>
