<?xml version="1.0" encoding="utf-8"?>
<!-- Generator: Adobe Illustrator 23.0.1, SVG Export Plug-In . SVG Version: 6.00 Build 0)  -->
<svg version="1.1" id="Слой_1" xmlns="http://www.w3.org/2000/svg" xmlns:xlink="http://www.w3.org/1999/xlink" x="0px" y="0px"
	 viewBox="0 0 53 70" style="enable-background:new 0 0 53 70;" xml:space="preserve">
<style type="text/css">
	.st0{fill:#0071B3;}
</style>
<path class="st0" d="M33.7,58.6c-2.1,0-3.8,1.7-3.8,3.8s1.7,3.8,3.8,3.8s3.8-1.7,3.8-3.8S35.8,58.6,33.7,58.6z M33.7,64.4
	c-1.1,0-2-0.9-2-2c0-1.1,0.9-2,2-2s2,0.9,2,2C35.7,63.5,34.8,64.4,33.7,64.4z"/>
<path class="st0" d="M38.9,34.1c-2.4,0-4.4,2-4.4,4.4s2,4.4,4.4,4.4s4.4-2,4.4-4.4S41.3,34.1,38.9,34.1z M38.9,41.1
	c-1.4,0-2.6-1.2-2.6-2.6c0-1.4,1.2-2.6,2.6-2.6s2.6,1.2,2.6,2.6C41.5,39.9,40.3,41.1,38.9,41.1z"/>
<path d="M13.9,9.9c-0.2-0.2-0.4-0.3-0.6-0.3c-0.2,0-0.5,0.1-0.6,0.3l-2.3,2.3c-0.4,0.4-0.4,0.9,0,1.3c0.3,0.3,1,0.3,1.3,0l2.3-2.3
	C14.2,10.8,14.2,10.2,13.9,9.9z"/>
<path d="M50.9,38.1l0.8-0.8c0.7-0.7,1.1-1.6,1.1-2.6c0-1-0.4-1.9-1.1-2.6l-0.8-0.8l0.1-0.1c1.1-1,1.7-2.4,1.7-3.8
	c0-2.8-2.3-5.1-5.1-5.1c-0.2,0-0.4,0-0.6,0l-0.2,0l0-0.2c0-0.2,0-0.4,0-0.6c0-2.8-2.3-5.1-5.1-5.1c-0.2,0-0.4,0-0.6,0l-0.2,0l0-0.2
	c0-0.2,0-0.4,0-0.6c0-2.8-2.3-5.1-5.1-5.1c-0.2,0-0.4,0-0.6,0l-0.2,0l0-0.2c0-0.2,0-0.4,0-0.6c0-2.8-2.3-5.1-5.1-5.1
	c-1.5,0-2.8,0.6-3.8,1.7l-0.1,0.1l-5.4-5.4c-0.7-0.7-1.6-1.1-2.6-1.1c-1,0-1.9,0.4-2.6,1.1L1.2,15.6c-1.4,1.4-1.4,3.8,0,5.2
	l10.3,10.3l-0.2,0.1c-1.6,0.9-2.6,2.6-2.6,4.4c0,1.7,0.9,3.3,2.3,4.2l0,0c0.1,0.1,0.2,0.2,0.2,0.3l12.6,12.6V55h-2.3v14.9h30V55
	h-2.3v-3.8l0.1,0c2.2-1.9,3.4-4.6,3.4-7.4c0-2-0.6-3.9-1.8-5.6L50.9,38.1z M39.4,19.7c0.6-0.7,1.5-1.1,2.4-1.1
	c1.7,0,3.1,1.4,3.1,3.1c0,0.9-0.4,1.8-1.2,2.4l-0.1,0.1l-4.3-4.3L39.4,19.7z M33.6,13.8c0.6-0.7,1.5-1.1,2.4-1.1
	c1.7,0,3.1,1.4,3.1,3.1c0,0.9-0.4,1.8-1.1,2.4l-0.1,0.1l-4.3-4.3L33.6,13.8z M27.8,8c0.6-0.7,1.5-1.1,2.4-1.1c1.7,0,3.1,1.4,3.1,3.1
	c0,0.9-0.4,1.8-1.1,2.4L32,12.4l-4.3-4.3L27.8,8z M2.7,19.4C2,18.7,2,17.7,2.7,17L17,2.7c0.2-0.2,0.3-0.3,0.5-0.4c0.1,0,0.1,0,0.2,0
	c0,0,0.1,0,0.1,0c0.2,0,0.5,0,0.7,0c0,0,0.1,0,0.1,0c0.1,0,0.1,0,0.2,0c0.2,0.1,0.4,0.2,0.5,0.4l2.8,2.8L5.5,22.2L2.7,19.4z
	 M6.9,23.7L23.7,7l26.6,26.6c0.6,0.6,0.6,1.7,0,2.3L35.9,50.2c-0.3,0.3-0.7,0.5-1.2,0.5s-0.9-0.2-1.2-0.5L24,40.7h1.5
	c2.8,0,5.1-2.3,5.1-5.1c0-2.8-2.3-5.1-5.1-5.1H13.8L6.9,23.7z M10.8,35.6c0-1.4,1-2.7,2.4-3l0,0l0.5-0.1c0.1,0,0.1,0,0.2,0h11.7
	c1.7,0,3.1,1.4,3.1,3.1c0,1.7-1.4,3.1-3.1,3.1H13.8C12.1,38.6,10.8,37.3,10.8,35.6z M40.2,67.8H23.6V57h10c3.7,0,6.7,3,6.7,6.7V67.8
	z M49.6,57v10.8h-7.3v-4.1c0-2.4-1-4.7-2.8-6.4L39.2,57H49.6z M47.6,49.9l-0.4,0.3V55H25.9v-3.3l-0.4-0.3c-0.1,0-0.1-0.1-0.2-0.2
	L14.7,40.7h6.4l11,11c0.7,0.7,1.6,1.1,2.6,1.1c1,0,1.9-0.4,2.6-1.1l12.2-12.2l0.1,0.2c0.8,1.2,1.2,2.6,1.2,4.1
	C50.7,46.2,49.6,48.4,47.6,49.9z M49.6,29.8l-0.1,0.1l-4.3-4.3l0.1-0.1c0.6-0.7,1.5-1.1,2.4-1.1c1.7,0,3.1,1.4,3.1,3.1
	C50.7,28.3,50.3,29.2,49.6,29.8z"/>
</svg>
