<svg width="70" height="70" viewBox="0 0 70 70" fill="none" xmlns="http://www.w3.org/2000/svg">
<path d="M31.0062 50.5943C31.0062 48.9674 32.325 47.6248 33.928 47.6248C35.5431 47.6248 36.8975 48.9794 36.8975 50.5943C36.8975 52.1735 35.5788 53.5639 33.928 53.5639C32.289 53.5639 31.0062 52.1856 31.0062 50.5943Z" fill="#0071B3" stroke="white" stroke-width="1.4"/>
<path d="M38.9309 35.1726L38.9296 35.1737C37.5585 36.2456 36.7864 37.2135 36.3864 38.3011C35.9967 39.3608 35.9918 40.4647 35.9918 41.6821C35.9918 42.0153 35.9069 42.2834 35.6897 42.4817C35.459 42.6923 34.9581 42.936 33.8802 42.936C32.9552 42.936 32.5758 42.7596 32.3726 42.5181C32.1356 42.2365 31.9592 41.6681 31.9592 40.443C31.9592 38.5029 32.3863 37.106 32.9523 36.0655C33.5201 35.0219 34.2473 34.3003 34.9071 33.7313C35.1784 33.5012 35.4793 33.2702 35.8085 33.0174C35.9373 32.9185 36.0704 32.8163 36.2079 32.7095C36.6844 32.3391 37.1928 31.9279 37.6558 31.4681C38.5799 30.5504 39.3935 29.3689 39.3935 27.8141C39.3935 26.4824 38.7994 25.4597 37.841 24.7962C36.9123 24.1532 35.6851 23.8734 34.4044 23.8734C33.0996 23.8734 32.1316 24.1203 31.3804 24.5334C30.6283 24.9471 30.1511 25.4965 29.7875 25.9965C29.6771 26.1483 29.5645 26.3142 29.4635 26.4629C29.4095 26.5424 29.3589 26.6171 29.3137 26.682C29.1702 26.8881 29.047 27.0493 28.9202 27.1779C28.6975 27.4034 28.4548 27.5429 28.0185 27.5429C27.5172 27.5429 26.962 27.3726 26.5457 27.0368C26.1486 26.7166 25.8592 26.2342 25.8592 25.5265C25.8592 23.4587 28.3695 19.8406 34.5474 19.8406C40.4218 19.8406 43.9982 23.0543 43.9982 27.004C43.9982 29.0283 43.0821 30.809 41.9613 32.237C40.8427 33.6622 39.5644 34.6799 38.9309 35.1726Z" fill="#0071B3" stroke="white" stroke-width="1.4"/>
<path d="M4.76875 64.5312V65.2312H5.46875H35C51.7099 65.2312 65.2312 51.7076 65.2312 35C65.2312 18.2901 51.7076 4.76875 35 4.76875C18.2901 4.76875 4.76875 18.2924 4.76875 35V64.5312ZM0.7 35C0.7 16.0405 16.0431 0.7 35 0.7C53.9595 0.7 69.3 16.0431 69.3 35C69.3 53.9595 53.9568 69.3 35 69.3H2.73438C1.61078 69.3 0.7 68.3892 0.7 67.2656V35Z" fill="black" stroke="white" stroke-width="1.4"/>
</svg>
