<?xml version="1.0" encoding="utf-8"?>
<!-- Generator: Adobe Illustrator 23.0.1, SVG Export Plug-In . SVG Version: 6.00 Build 0)  -->
<svg version="1.1" id="Слой_1" xmlns="http://www.w3.org/2000/svg" xmlns:xlink="http://www.w3.org/1999/xlink" x="0px" y="0px"
	 width="70px" height="70px" viewBox="0 0 70 70" style="enable-background:new 0 0 70 70;" xml:space="preserve">
<style type="text/css">
	.st0{fill:#FFFFFF;}
</style>
<circle class="st0" cx="41.2" cy="46.5" r="1"/>
<circle class="st0" cx="41.2" cy="52" r="1"/>
<path class="st0" d="M35.7,45.5H16.5c-0.6,0-1,0.5-1,1s0.5,1,1,1h19.1c0.6,0,1-0.5,1-1S36.2,45.5,35.7,45.5z"/>
<path class="st0" d="M35.7,50.9H16.5c-0.6,0-1,0.5-1,1s0.5,1,1,1h19.1c0.6,0,1-0.5,1-1S36.2,50.9,35.7,50.9z"/>
<path class="st0" d="M43.9,40h-1.7v-6.5c0-0.6-0.5-1-1-1H34v-5.8c0-0.6-0.5-1-1-1h-7.2v-5.8c0-0.6-0.5-1-1-1h-8.2c-0.6,0-1,0.5-1,1
	V40h-1.7c-0.6,0-1,0.5-1,1s0.5,1,1,1h30.1c0.6,0,1-0.5,1-1S44.4,40,43.9,40z M23.7,40h-6.2V20.8h6.2V40z M31.9,40h-6.2V27.7h6.2V40z
	 M40.1,40H34v-5.5h6.2V40z"/>
<circle class="st0" cx="41.2" cy="68.6" r="1"/>
<path class="st0" d="M47.3,69.6h14.4c0.6,0,1-0.5,1-1V9.6c0-0.6-0.5-1-1-1H50.4v-1c0-3.9-3.2-7.2-7.2-7.2c-0.8,0-1.5,0.1-2.2,0.3
	l-33,10c-0.4,0.1-0.7,0.5-0.7,1v47.2c0,0.6,0.5,1,1,1h11.3v8.8c0,0.6,0.5,1,1,1H35c0.6,0,1-0.5,1-1s-0.5-1-1-1H21.7v-7.8h27.7
	c0.6,0,1-0.5,1-1V10.6h10.3v57H47.3c-0.6,0-1,0.5-1,1S46.7,69.6,47.3,69.6z M36.9,4.1l-0.3,0.7C36.2,5.6,36,6.6,36,7.5
	c0,0.9,0.2,1.8,0.5,2.6l0.2,0.5H15.2L36.9,4.1z M48.3,57.8h-39V12.6h29.3c0.4,0,0.8-0.2,0.9-0.6c0.2-0.4,0.1-0.8-0.2-1.1
	c-0.8-0.9-1.3-2.2-1.3-3.4c0-2.8,2.3-5.1,5.1-5.1s5.1,2.3,5.1,5.1V57.8z"/>
</svg>
