<svg width="70" height="70" viewBox="0 0 70 70" fill="none" xmlns="http://www.w3.org/2000/svg">
<path d="M61.8333 37.3333H47.8333C47.189 37.3333 46.6667 37.8556 46.6667 38.4999V40.8333H43.4817L36.1667 36.6566V32.6666H42C42.6443 32.6666 43.1667 32.1442 43.1667 31.4999V24.4999C43.1667 23.8556 42.6443 23.3333 42 23.3333H36.1667V18.6666H38.5C41.0773 18.6666 43.1667 16.5772 43.1667 13.9999C43.1667 11.4226 41.0773 9.33325 38.5 9.33325H31.5C28.9227 9.33325 26.8333 11.4226 26.8333 13.9999C26.8333 16.5772 28.9227 18.6666 31.5 18.6666H33.8333V23.3333H28C27.3557 23.3333 26.8333 23.8556 26.8333 24.4999V26.8333H23.3333V24.4999C23.3333 23.8556 22.811 23.3333 22.1667 23.3333H8.16667C7.52237 23.3333 7 23.8556 7 24.4999V31.4999C7.00204 31.8902 7.19906 32.2536 7.525 32.4683L7.93333 32.7483C9.17846 33.5734 10.6397 34.0118 12.1333 34.0083C13.3039 34.0122 14.4589 33.7404 15.505 33.2149C16.2299 32.8543 17.0287 32.6666 17.8383 32.6666H22.1667C22.811 32.6666 23.3333 32.1442 23.3333 31.4999V29.1666H26.8333V31.4999C26.8333 32.1442 27.3557 32.6666 28 32.6666H33.8333V36.6566L26.25 40.9849C25.6894 41.3025 25.4925 42.0145 25.8102 42.5751C25.9143 42.7588 26.0662 42.9108 26.25 43.0149L33.8333 47.3433V53.6666H31.5C28.9227 53.6666 26.8333 55.7559 26.8333 58.3333C26.8333 60.9106 28.9227 62.9999 31.5 62.9999H38.5C41.0773 62.9999 43.1667 60.9106 43.1667 58.3333C43.1667 55.7559 41.0773 53.6666 38.5 53.6666H36.1667V51.3333H54.8333C55.4776 51.3333 56 50.8109 56 50.1666V46.6666H61.8333C62.4776 46.6666 63 46.1442 63 45.4999V38.4999C63 37.8556 62.4776 37.3333 61.8333 37.3333ZM21 30.3333H17.8383C16.6686 30.3366 15.5152 30.608 14.4667 31.1266C12.8288 31.9463 10.8812 31.849 9.33333 30.8699V25.6666H21V30.3333ZM31.5 16.3333C30.2113 16.3333 29.1667 15.2886 29.1667 13.9999C29.1667 12.7112 30.2113 11.6666 31.5 11.6666H38.5C39.7887 11.6666 40.8333 12.7112 40.8333 13.9999C40.8333 15.2886 39.7887 16.3333 38.5 16.3333H31.5ZM29.1667 30.3333V25.6666H40.8333V30.3333H29.1667ZM38.5 55.9999C39.7887 55.9999 40.8333 57.0445 40.8333 58.3333C40.8333 59.622 39.7887 60.6666 38.5 60.6666H31.5C30.2113 60.6666 29.1667 59.622 29.1667 58.3333C29.1667 57.0445 30.2113 55.9999 31.5 55.9999H38.5ZM35 45.3249L29.1667 41.9999L35 38.6749L40.8333 41.9999L35 45.3249ZM53.6667 48.9999H36.1667V47.3433L43.4817 43.1666H46.6667V45.4999C46.6667 46.1442 47.189 46.6666 47.8333 46.6666H53.6667V48.9999ZM60.6667 44.3333H49V39.6666H60.6667V44.3333Z" fill="#0071B3"/>
<path d="M19.8333 9.33325H7V11.6666H19.8333V9.33325Z" fill="black"/>
<path d="M16.3333 14H7V16.3333H16.3333V14Z" fill="black"/>
<path d="M68.8333 7C69.4776 7 70 6.47762 70 5.83333V1.16667C70 0.522375 69.4776 0 68.8333 0H1.16667C0.522375 0 0 0.522375 0 1.16667V5.83333C0 6.47762 0.522375 7 1.16667 7H2.33333V67.6667H0V70H70V67.6667H67.6667V7H68.8333ZM65.3333 67.6667H4.66667V7H65.3333V67.6667ZM2.33333 4.66667V2.33333H67.6667V4.66667H2.33333Z" fill="black"/>
<path d="M49.0001 63H46.6667V65.3333H49.0001V63Z" fill="black"/>
<path d="M53.6666 63H51.3333V65.3333H53.6666V63Z" fill="black"/>
<path d="M58.3333 63H56V65.3333H58.3333V63Z" fill="black"/>
<path d="M63.0001 63H60.6667V65.3333H63.0001V63Z" fill="black"/>
</svg>
