<?xml version="1.0" encoding="utf-8"?>
<!-- Generator: Adobe Illustrator 24.0.1, SVG Export Plug-In . SVG Version: 6.00 Build 0)  -->
<svg version="1.1" id="Слой_1" xmlns="http://www.w3.org/2000/svg" xmlns:xlink="http://www.w3.org/1999/xlink" x="0px" y="0px"
	 viewBox="0 0 70 63" style="enable-background:new 0 0 70 63;" xml:space="preserve">
<style type="text/css">
	.st0{fill:#FFFFFF;}
</style>
<path class="st0" d="M54.7,15.2h-11c-0.6,0-1,0.5-1,1c0,0.6,0.5,1,1,1h11c0.6,0,1-0.5,1-1C55.8,15.7,55.3,15.2,54.7,15.2z"/>
<path class="st0" d="M54.7,19.6h-11c-0.6,0-1,0.5-1,1s0.5,1,1,1h11c0.6,0,1-0.5,1-1S55.3,19.6,54.7,19.6z"/>
<path class="st0" d="M58,9.8H40.5c-1.8,0-3.2,1.4-3.2,3.2v2.9L31,22.1c-0.3,0.3-0.4,0.7-0.2,1.1c0.2,0.4,0.5,0.6,0.9,0.6h5.6v0.1
	c0,1.8,1.4,3.2,3.2,3.2H58c1.8,0,3.2-1.4,3.2-3.2V13C61.2,11.2,59.8,9.8,58,9.8z M59.2,23.9c0,0.6-0.5,1.2-1.2,1.2H40.5
	c-0.6,0-1.2-0.5-1.2-1.2v-1.1c0-0.6-0.5-1-1-1h-4.1L39,17c0.2-0.2,0.3-0.5,0.3-0.7V13c0-0.6,0.5-1.2,1.2-1.2H58
	c0.6,0,1.2,0.5,1.2,1.2V23.9z"/>
<path class="st0" d="M49.2,30.6c-1.8,0-3.2,1.4-3.2,3.2c0,1.8,1.4,3.2,3.2,3.2s3.2-1.4,3.2-3.2C52.5,32,51,30.6,49.2,30.6z M49.2,35
	c-0.6,0-1.2-0.5-1.2-1.2c0-0.6,0.5-1.2,1.2-1.2c0.6,0,1.2,0.5,1.2,1.2C50.4,34.5,49.9,35,49.2,35z"/>
<path class="st0" d="M58,30.6c-1.8,0-3.2,1.4-3.2,3.2c0,1.8,1.4,3.2,3.2,3.2c1.8,0,3.2-1.4,3.2-3.2C61.2,32,59.8,30.6,58,30.6z
	 M58,35c-0.6,0-1.2-0.5-1.2-1.2c0-0.6,0.5-1.2,1.2-1.2c0.6,0,1.2,0.5,1.2,1.2C59.2,34.5,58.7,35,58,35z"/>
<path class="st0" d="M40.5,30.6c-1.8,0-3.2,1.4-3.2,3.2c0,1.8,1.4,3.2,3.2,3.2c1.8,0,3.2-1.4,3.2-3.2C43.7,32,42.3,30.6,40.5,30.6z
	 M40.5,35c-0.6,0-1.2-0.5-1.2-1.2c0-0.6,0.5-1.2,1.2-1.2c0.6,0,1.2,0.5,1.2,1.2C41.6,34.5,41.1,35,40.5,35z"/>
<path class="st0" d="M65.7,0H4.3C1.9,0,0,1.9,0,4.3v45.5c0,2.4,1.9,4.3,4.3,4.3h19.5l-1.7,6.7h-2.5c-0.6,0-1,0.5-1,1s0.5,1,1,1h30.7
	c0.6,0,1-0.5,1-1s-0.5-1-1-1h-2.5l-1.7-6.7h19.5c2.4,0,4.3-1.9,4.3-4.3V4.3C70,1.9,68.1,0,65.7,0z M65.7,52h-23c-0.6,0-1,0.5-1,1
	c0,0.6,0.5,1,1,1h1.4l1.7,6.7H24.3l1.7-6.7h12.4c0.6,0,1-0.5,1-1c0-0.6-0.5-1-1-1h-34c-1.2,0-2.3-1-2.3-2.3V4.3c0-1.2,1-2.3,2.3-2.3
	h61.4c1.2,0,2.3,1,2.3,2.3v45.5C67.9,51,66.9,52,65.7,52z"/>
<path class="st0" d="M64.6,41.6h-34v-7.6c0-1.3-0.7-2.5-1.8-3.2l-3.9-2.2c-0.2-0.1-0.4-0.4-0.4-0.6V26c1.7-1.2,2.8-3.1,2.8-5.4v-2.2
	c0-2.2-1.1-4.2-2.8-5.3c0-0.2,0.1-0.5,0.1-0.7c0-2.1-1.7-3.8-3.8-3.8S17,10.4,17,12.4c0,0.2,0,0.5,0.1,0.7c-1.7,1.2-2.8,3.1-2.8,5.3
	v2.2c0,2.2,1.1,4.2,2.8,5.4v1.8c0,0.3-0.1,0.5-0.4,0.6l-3.9,2.2c-1.1,0.6-1.8,1.9-1.8,3.2v7.6H5.4c-0.6,0-1,0.5-1,1s0.5,1,1,1h59.2
	c0.6,0,1-0.5,1-1S65.2,41.6,64.6,41.6z M20.8,10.7c0.9,0,1.6,0.6,1.7,1.5C21.9,12,21.3,12,20.8,12c-0.6,0-1.2,0.1-1.7,0.2
	C19.2,11.4,19.9,10.7,20.8,10.7z M20.8,14c2.2,0,4.1,1.6,4.4,3.7c-3.1-0.3-5.7-1.6-7.3-2.7C18.6,14.4,19.7,14,20.8,14z M16.3,20.7
	v-2.2c0-0.6,0.1-1.2,0.4-1.7c1.9,1.3,4.9,2.8,8.6,3.1v0.8c0,2.5-2,4.5-4.5,4.5C18.3,25.1,16.3,23.1,16.3,20.7z M23.8,30.3l0.2,0.1
	l-3.2,2.2l-3.2-2.2l0.2-0.1c0.9-0.5,1.4-1.4,1.4-2.4V27c0.5,0.1,1.1,0.2,1.6,0.2c0.6,0,1.1-0.1,1.6-0.2v0.9
	C22.4,28.9,22.9,29.8,23.8,30.3z M28.5,41.6h-2.3v-3.4c0-0.6-0.5-1-1-1c-0.6,0-1,0.5-1,1v3.4h-6.7v-3.4c0-0.6-0.5-1-1-1
	c-0.6,0-1,0.5-1,1v3.4H13v-7.6c0-0.6,0.3-1.1,0.8-1.4l1.8-1l4.6,3.2c0.2,0.1,0.4,0.2,0.6,0.2c0.2,0,0.4-0.1,0.6-0.2l4.6-3.2l1.8,1
	c0.5,0.3,0.8,0.8,0.8,1.4V41.6z"/>
</svg>
