<svg width="70" height="70" viewBox="0 0 70 70" fill="none" xmlns="http://www.w3.org/2000/svg">
<path d="M68.8753 1.12471C67.4776 -0.273456 65.0984 -0.371188 62.175 0.849133C59.9688 1.77038 57.581 3.37576 55.3487 5.42601C55.2285 5.30584 55.1105 5.18408 54.9887 5.06605C54.7195 4.80383 54.3628 4.65696 53.9857 4.66124L33.6531 5.09008C33.2996 5.09756 32.962 5.24176 32.7116 5.4917L25.677 12.5263C25.1413 13.0625 25.1413 13.9319 25.677 14.4676C26.2132 15.0038 27.0821 15.0038 27.6183 14.4676L34.263 7.82339L53.3598 7.42018C51.6861 9.25093 50.3141 11.1831 49.3715 13.0337C47.4158 13.0294 45.4585 13.7712 43.9695 15.2601C42.5313 16.6984 41.7387 18.6114 41.7387 20.6456C41.7387 22.6798 42.5307 24.5923 43.9695 26.0305C45.4077 27.4692 47.3207 28.2612 49.3549 28.2612C51.3892 28.2612 53.3016 27.4692 54.7404 26.0305C56.1786 24.5923 56.9706 22.6798 56.9706 20.6456C56.9706 20.3065 56.9466 19.9711 56.9033 19.641C56.9028 19.6362 56.9022 19.6314 56.9017 19.6266C56.6827 17.9785 55.9356 16.4554 54.7404 15.2601C53.9895 14.5098 53.12 13.9496 52.1924 13.5784C52.9913 12.1722 54.0691 10.7158 55.3508 9.31074L62.5819 16.5419L62.1771 35.7375L31.228 66.6861L3.31383 38.772L19.805 22.2809C20.3412 21.7447 20.3412 20.8758 19.805 20.3396C19.2688 19.8034 18.4004 19.8034 17.8637 20.3396L0.402145 37.8016C0.14473 38.0591 0 38.4078 0 38.772C0 39.1363 0.14473 39.485 0.402145 39.7424L30.2576 69.5978C30.5257 69.8659 30.8765 70 31.228 70C31.5794 70 31.9308 69.8659 32.1989 69.5978L64.5083 37.2884C64.7582 37.0379 64.9024 36.7004 64.9099 36.3463L65.3393 16.0137C65.3468 15.6399 65.2015 15.2788 64.9371 15.0145L64.574 14.6513C66.6242 12.419 68.2296 10.0312 69.1508 7.82499C70.3712 4.9021 70.2734 2.52234 68.8753 1.12471ZM49.3544 25.5162C48.0534 25.5162 46.8304 25.0094 45.9103 24.0892C44.9906 23.1695 44.4838 21.946 44.4838 20.645C44.4838 19.3441 44.9901 18.1211 45.9103 17.2009C46.5784 16.5328 47.3939 16.1013 48.2526 15.9031C47.7063 18.0415 47.992 19.7799 49.1061 20.8939C49.8564 21.6443 50.8845 22.0202 52.1272 22.0202C52.7355 22.0202 53.3961 21.9273 54.0995 21.7473C53.8971 22.6269 53.4528 23.435 52.7991 24.0892C51.8789 25.0094 50.6559 25.5162 49.3544 25.5162ZM53.9206 18.9441C52.3403 19.4589 51.3966 19.3024 51.0474 18.9526C50.6084 18.5136 50.6233 17.4295 51.0564 16.0831C51.6925 16.3192 52.2885 16.6909 52.7991 17.2009C53.3016 17.7035 53.6797 18.2973 53.9206 18.9441ZM66.6173 6.76756C65.8269 8.66026 64.4298 10.7351 62.6305 12.7079L57.2921 7.36891C59.2649 5.56967 61.3392 4.17257 63.2324 3.38217C64.9548 2.66333 66.4079 2.53889 66.934 3.06547C67.4611 3.59205 67.3367 5.04522 66.6173 6.76756Z" fill="black"/>
<path d="M22.2148 37.6643C20.7968 39.0822 20.016 40.9669 20.016 42.9723C20.016 44.3897 20.408 45.7457 21.1376 46.9206L19.7811 48.2771C19.2449 48.8133 19.2449 49.6822 19.7811 50.2184C20.0491 50.4865 20.4006 50.6205 20.7514 50.6205C21.1028 50.6205 21.4543 50.4865 21.7224 50.2184L22.9886 48.9521C24.2885 49.9364 25.8843 50.4785 27.5265 50.4785C27.6445 50.4785 27.7636 50.4758 27.8822 50.4699C29.9874 50.3695 31.8775 49.3319 33.0673 47.6239C34.2134 45.979 34.5242 43.94 33.9202 42.0297C33.6366 41.133 33.1645 40.262 32.513 39.4278L38.0944 33.8458C38.3582 34.4434 38.4982 35.0944 38.4982 35.7673C38.4982 37.0389 38.0031 38.2347 37.1037 39.134C36.5676 39.6697 36.5676 40.5391 37.1037 41.0753C37.6394 41.611 38.5083 41.6115 39.045 41.0753C40.4624 39.6574 41.2432 37.7722 41.2432 35.7673C41.2432 34.3499 40.8518 32.9934 40.1222 31.8185L41.4787 30.462C42.0144 29.9263 42.0144 29.0569 41.4787 28.5207C40.9426 27.985 40.0736 27.985 39.5374 28.5207L38.2707 29.7875C36.8762 28.7322 35.1422 28.1837 33.3771 28.2692C31.2718 28.3696 29.3818 29.4072 28.1919 31.1152C27.0458 32.7606 26.7355 34.7996 27.339 36.7094C27.6226 37.6061 28.0953 38.4771 28.7468 39.3113L23.1648 44.8933C22.901 44.2957 22.7611 43.6447 22.7611 42.9718C22.7611 41.7002 23.2567 40.5044 24.1561 39.6056C24.6917 39.0694 24.6917 38.2005 24.1561 37.6643C23.6199 37.1281 22.7509 37.1281 22.2148 37.6643V37.6643ZM31.3028 42.8575C31.6478 43.9491 31.4705 45.1144 30.8152 46.0549C30.1156 47.0589 28.9994 47.6683 27.7513 47.7281C26.759 47.7761 25.7828 47.5091 24.9582 46.9825L30.5503 41.3904C30.8937 41.8759 31.1474 42.3667 31.3028 42.8575V42.8575ZM29.9565 35.8816C29.6115 34.7905 29.7893 33.6252 30.4446 32.6842C31.1437 31.6807 32.2604 31.0708 33.5079 31.0115C34.4991 30.964 35.4759 31.2305 36.3011 31.7571L30.7089 37.3492C30.3655 36.8632 30.1119 36.373 29.9565 35.8816V35.8816Z" fill="#FF5555"/>
<path d="M21.4747 17.9272C21.6958 18.4617 22.2506 18.81 22.828 18.7726C23.3775 18.7373 23.864 18.3645 24.0413 17.8433C24.224 17.3076 24.0494 16.7015 23.6125 16.3421C23.1575 15.9677 22.4936 15.9292 21.9986 16.2486C21.4496 16.6032 21.2247 17.3226 21.4747 17.9272Z" fill="black"/>
</svg>
