<svg width="70" height="70" viewBox="0 0 70 70" fill="none" xmlns="http://www.w3.org/2000/svg">
<path d="M70 55.1103V46.5037L65.7297 45.604C65.5313 45.0312 65.3008 44.4727 65.0401 43.9319L67.4222 40.278L61.336 34.1929L57.6821 36.5739C57.1413 36.3132 56.5817 36.0816 56.01 35.8832L55.1103 31.6129H51.9355V0H9.6938L0 9.6938V58.7097H35.903L34.1907 61.336L40.2769 67.42L43.9308 65.0401C44.4716 65.3008 45.0312 65.5324 45.6029 65.7297L46.5026 70H55.1092L56.0089 65.7297C56.5817 65.5313 57.1402 65.3008 57.681 65.0401L61.3349 67.42L67.4211 61.336L65.039 57.6821C65.2997 57.1413 65.5313 56.5817 65.7286 56.01L70 55.1103ZM9.03226 3.85459V9.03226H3.85459L9.03226 3.85459ZM2.25806 11.2903H11.2903V2.25806H49.6774V31.6129H46.5026L45.6029 35.8832C45.0301 36.0816 44.4716 36.3121 43.9308 36.5739L40.2769 34.1929L34.1907 40.278L36.5728 43.9319C36.3121 44.4727 36.0805 45.0328 35.8832 45.604L31.6129 46.5026V55.1092L35.8832 56.0089C35.935 56.1605 36.0083 56.3017 36.0656 56.4516H2.25806V11.2903ZM64.5285 61.0344L61.0333 64.5296L57.8067 62.4253L57.2173 62.7423C56.429 63.1674 55.5877 63.5147 54.7151 63.7754L54.0728 63.9689L53.2768 67.7419H48.335L47.5401 63.9689L46.8978 63.7754C46.0263 63.5147 45.1839 63.1674 44.3956 62.7423L43.8062 62.4253L40.5796 64.5285L37.0844 61.0333L39.1876 57.8067L38.8706 57.2173C38.4455 56.429 38.0982 55.5877 37.8375 54.7151L37.644 54.0728L33.871 53.2768V48.335L37.644 47.5401L37.8375 46.8978C38.0982 46.0263 38.4455 45.1839 38.8706 44.3956L39.1876 43.8062L37.0833 40.5796L40.5796 37.0844L43.8062 39.1876L44.3956 38.8706C45.1839 38.4455 46.0252 38.0982 46.8978 37.8375L47.5401 37.644L48.3361 33.871H53.2779L54.0728 37.644L54.7151 37.8375C55.5866 38.0982 56.429 38.4455 57.2173 38.8706L57.8067 39.1876L61.0333 37.0844L64.5296 40.5796L62.4253 43.8062L62.7423 44.3956C63.1674 45.1839 63.5147 46.0252 63.7754 46.8978L63.9689 47.5401L67.7419 48.3361V53.2779L63.9689 54.0728L63.7754 54.7151C63.5147 55.5866 63.1674 56.429 62.7423 57.2173L62.4253 57.8067L64.5285 61.0344Z" fill="black"/>
<path d="M50.8064 39.5166C44.5808 39.5166 39.5161 44.5813 39.5161 50.8069C39.5161 57.0326 44.5808 62.0972 50.8064 62.0972C57.0321 62.0972 62.0968 57.0326 62.0968 50.8069C62.0968 44.5813 57.0321 39.5166 50.8064 39.5166ZM50.8064 59.8392C45.8261 59.8392 41.7742 55.7872 41.7742 50.8069C41.7742 45.8266 45.8261 41.7747 50.8064 41.7747C55.7867 41.7747 59.8387 45.8266 59.8387 50.8069C59.8387 55.7872 55.7867 59.8392 50.8064 59.8392Z" fill="black"/>
<path d="M50.8064 44.0322C47.0704 44.0322 44.0322 47.0704 44.0322 50.8064C44.0322 54.5425 47.0704 57.5806 50.8064 57.5806C54.5425 57.5806 57.5806 54.5425 57.5806 50.8064C57.5806 47.0704 54.5425 44.0322 50.8064 44.0322ZM50.8064 55.3225C48.3157 55.3225 46.2903 53.2971 46.2903 50.8064C46.2903 48.3157 48.3157 46.2903 50.8064 46.2903C53.2971 46.2903 55.3225 48.3157 55.3225 50.8064C55.3225 53.2971 53.2971 55.3225 50.8064 55.3225Z" fill="black"/>
<path d="M34.9999 29.3553C41.8474 29.3553 47.4193 23.7835 47.4193 16.936C47.4193 10.0884 41.8474 4.5166 34.9999 4.5166C28.1524 4.5166 22.5806 10.0884 22.5806 16.936C22.5806 23.7835 28.1524 29.3553 34.9999 29.3553ZM36.129 27.0305V18.065H45.0945C44.5719 22.7663 40.8314 26.5079 36.129 27.0305ZM45.0945 15.8069H36.129V6.84137C40.8314 7.36399 44.5719 11.1056 45.0945 15.8069ZM33.8709 6.84137V27.0305C28.798 26.466 24.8386 22.1566 24.8386 16.936C24.8386 11.7153 28.798 7.40479 33.8709 6.84137Z" fill="black"/>
<path d="M4.51611 54.1939H11.2903V40.6455H4.51611V54.1939ZM6.77418 42.9036H9.03224V51.9358H6.77418V42.9036Z" fill="#FF5555"/>
<path d="M13.5483 54.1934H20.3225V36.1289H13.5483V54.1934ZM15.8064 38.387H18.0645V51.9354H15.8064V38.387Z" fill="#FF5555"/>
<path d="M22.5806 54.1939H29.3548V31.6133H22.5806V54.1939ZM24.8386 33.8713H27.0967V51.9359H24.8386V33.8713Z" fill="#FF5555"/>
<path d="M4.51611 13.5488H20.3226V15.8069H4.51611V13.5488Z" fill="black"/>
<path d="M4.51611 18.0645H20.3226V20.3225H4.51611V18.0645Z" fill="black"/>
<path d="M4.51611 22.5811H20.3226V24.8391H4.51611V22.5811Z" fill="black"/>
<path d="M4.51611 27.0967H20.3226V29.3547H4.51611V27.0967Z" fill="black"/>
</svg>
