<?xml version="1.0" encoding="utf-8"?>
<!-- Generator: Adobe Illustrator 23.0.1, SVG Export Plug-In . SVG Version: 6.00 Build 0)  -->
<svg version="1.1" id="Слой_1" xmlns="http://www.w3.org/2000/svg" xmlns:xlink="http://www.w3.org/1999/xlink" x="0px" y="0px"
	 width="70px" height="70px" viewBox="0 0 70 70" style="enable-background:new 0 0 70 70;" xml:space="preserve">
<style type="text/css">
	.st0{fill:#0071B3;}
</style>
<path class="st0" d="M9.1,4.5c-1.8,0-3.2,1.5-3.2,3.2c0,1.8,1.4,3.2,3.2,3.2c1.8,0,3.2-1.4,3.2-3.2C12.4,5.9,10.9,4.5,9.1,4.5z
	 M9.1,8.9C8.5,8.9,8,8.3,8,7.7c0-0.6,0.5-1.2,1.2-1.2c0.6,0,1.2,0.5,1.2,1.2C10.3,8.4,9.8,8.9,9.1,8.9z"/>
<path class="st0" d="M17.8,4.5c-1.8,0-3.2,1.5-3.2,3.2c0,1.8,1.4,3.2,3.2,3.2S21,9.5,21,7.7C21,5.9,19.5,4.5,17.8,4.5z M17.8,8.9
	c-0.6,0-1.2-0.5-1.2-1.2c0-0.6,0.5-1.2,1.2-1.2c0.6,0,1.2,0.5,1.2,1.2C18.9,8.4,18.4,8.9,17.8,8.9z"/>
<path class="st0" d="M26.4,4.5c-1.8,0-3.2,1.4-3.2,3.2c0,1.8,1.4,3.2,3.2,3.2s3.2-1.4,3.2-3.2C29.6,5.9,28.2,4.5,26.4,4.5z
	 M26.4,8.9c-0.6,0-1.2-0.5-1.2-1.2c0-0.6,0.5-1.2,1.2-1.2c0.7,0,1.2,0.5,1.2,1.2C27.6,8.4,27,8.9,26.4,8.9z"/>
<path d="M66,0.2h-62C2,0.2,0.3,1.9,0.3,4v45.4c0,2.1,1.7,3.8,3.8,3.8h6.6c-0.3,0.4-0.3,1,0.1,1.4l4.9,4.9c-0.4,0.8-0.7,1.5-1,2.3h-7
	c-0.6,0-1,0.5-1,1v5.9c0,0.6,0.5,1,1,1h20.3c0.6,0,1-0.5,1-1c0-3.1,2.6-5.7,5.7-5.7s5.7,2.6,5.7,5.7c0,0.6,0.5,1,1,1h20.3
	c0.6,0,1-0.5,1-1v-5.9c0-0.6-0.5-1-1-1h-7c-0.3-0.8-0.6-1.6-1-2.3l4.9-4.9c0.4-0.4,0.4-1,0.1-1.4h7.2c2.1,0,3.8-1.7,3.8-3.8V24
	c0-0.6-0.5-1-1-1c-0.6,0-1,0.5-1,1v25.4c0,1-0.8,1.7-1.7,1.7h-9.2l-6.1-6.1v-7c0-0.6-0.5-1-1-1h-1.8v-6.3l1.5-1.3
	c0.3-0.3,0.4-0.7,0.3-1.1l-2.5-8c-0.1-0.4-0.5-0.7-1-0.7h-2.7c-0.4,0-0.9,0.3-1,0.7l-2.5,8c-0.1,0.4,0,0.8,0.3,1.1l1.5,1.3V37h-1.8
	c-0.6,0-1,0.5-1,1v2.7h-8.1v-1.6l4-4c0.2-0.2,0.3-0.4,0.3-0.7V26c0-0.3-0.1-0.5-0.3-0.7l-5.5-5.4c-0.3-0.3-0.7-0.4-1.1-0.2
	c-0.4,0.2-0.6,0.5-0.6,1v9.2l-2.7,1.7l-2.7-1.7v-0.6c0-0.6-0.5-1-1-1c-0.6,0-1,0.5-1,1v1.2c0,0.4,0.2,0.7,0.5,0.9l3.7,2.3
	c0.3,0.2,0.8,0.2,1.1,0l3.7-2.3c0.3-0.2,0.5-0.5,0.5-0.9v-7.3l3.4,3.4V34l-4,4c-0.2,0.2-0.3,0.4-0.3,0.7v2c-0.5,0.1-0.8,0.5-0.8,1v7
	c-0.8,0.3-1.6,0.6-2.3,1L20.8,45v-6.3c0-0.3-0.1-0.5-0.3-0.7l-4-4v-7.6l3.4-3.4v1.3c0,0.6,0.5,1,1,1s1-0.5,1-1v-3.8
	c0-0.4-0.2-0.8-0.6-1c-0.4-0.2-0.8-0.1-1.1,0.2l-5.5,5.4c-0.2,0.2-0.3,0.5-0.3,0.7v8.4c0,0.3,0.1,0.5,0.3,0.7l4,4v5.9l-6.1,6.1H4.1
	c-1,0-1.7-0.8-1.7-1.7V15.2h65.4v4c0,0.6,0.5,1,1,1c0.6,0,1-0.5,1-1V4C69.8,1.9,68.1,0.2,66,0.2z M43.4,29.4l-1.3-1.2l2.1-6.6h1.2
	l2.1,6.6l-1.3,1.2c-0.2,0.2-0.3,0.5-0.3,0.8V37h-2.1v-6.8C43.8,29.9,43.6,29.6,43.4,29.4z M48.7,39v6L44,49.7
	c-0.8-0.4-1.5-0.7-2.3-1v-7c0-0.5-0.4-0.9-0.8-1V39H48.7z M25.8,51.8c1.1-0.6,2.2-1,3.4-1.4c0.4-0.1,0.7-0.5,0.7-1v-6.7h9.7v6.7
	c0,0.4,0.3,0.9,0.7,1c1.2,0.4,2.3,0.8,3.4,1.4c0.4,0.2,0.9,0.1,1.2-0.2l4.7-4.7l5.9,5.9l0.9,0.9l-4.7,4.7c-0.3,0.3-0.4,0.8-0.2,1.2
	c0.6,1.1,1,2.2,1.4,3.4c0.1,0.4,0.5,0.7,1,0.7h6.7v3.8H50.3c-0.5-8.1-7.3-14.5-15.5-14.5c-2.2,0-4.3,0.4-6.3,1.3
	c-0.5,0.2-0.7,0.8-0.5,1.4c0.2,0.5,0.8,0.7,1.4,0.5c1.7-0.8,3.6-1.2,5.5-1.2c7.1,0,12.9,5.5,13.5,12.5h-5.8C42,63.9,38.7,61,34.8,61
	c-3.9,0-7.2,2.9-7.7,6.7h-5.8c0.2-3.4,1.7-6.5,4.2-8.8c0.4-0.4,0.4-1,0-1.5c-0.4-0.4-1-0.4-1.5,0c-2.9,2.7-4.6,6.4-4.9,10.3H8.8
	v-3.8h6.7c0.4,0,0.9-0.3,1-0.7c0.4-1.2,0.8-2.3,1.4-3.4c0.2-0.4,0.1-0.9-0.2-1.2l-4.7-4.7l0.9-0.9l5.9-5.9l4.7,4.7
	C24.9,52,25.4,52.1,25.8,51.8z M2.3,13.1V4c0-1,0.8-1.7,1.7-1.7h62c1,0,1.7,0.8,1.7,1.7v9.1L2.3,13.1L2.3,13.1z"/>
</svg>
