<?xml version="1.0" encoding="utf-8"?>
<!-- Generator: Adobe Illustrator 23.0.1, SVG Export Plug-In . SVG Version: 6.00 Build 0)  -->
<svg version="1.1" id="Слой_1" xmlns="http://www.w3.org/2000/svg" xmlns:xlink="http://www.w3.org/1999/xlink" x="0px" y="0px"
	 width="70px" height="70px" viewBox="0 0 70 70" style="enable-background:new 0 0 70 70;" xml:space="preserve">
<path d="M0.6,45.5c0,1.8,1.5,3.3,3.3,3.3h15v-2h-15c-0.7,0-1.3-0.6-1.3-1.3V9.2h44.7v9.3h2v-15c0-1.8-1.5-3.3-3.3-3.3H4
	c-1.8,0-3.3,1.5-3.3,3.3v42H0.6z M2.6,3.5c0-0.7,0.6-1.3,1.3-1.3h42c0.7,0,1.3,0.6,1.3,1.3v3.7H2.6V3.5z"/>
<rect x="5.2" y="3.7" width="2" height="2"/>
<rect x="9.9" y="3.7" width="2" height="2"/>
<rect x="14.6" y="3.7" width="2" height="2"/>
<rect x="21.6" y="15.3" width="2" height="2"/>
<rect x="26.2" y="15.3" width="2" height="2"/>
<rect x="30.9" y="15.3" width="2" height="2"/>
<rect x="16.9" y="15.3" width="2" height="2"/>
<path d="M65.9,21.2h-41c-1.8,0-3.3,1.5-3.3,3.3v42c0,1.8,1.5,3.3,3.3,3.3h41c1.8,0,3.3-1.5,3.3-3.3v-42
	C69.2,22.7,67.7,21.2,65.9,21.2z M67.2,66.5c0,0.7-0.6,1.3-1.3,1.3h-41c-0.7,0-1.3-0.6-1.3-1.3V30.2h43.7L67.2,66.5L67.2,66.5z
	 M67.2,28.2H23.6v-3.7c0-0.7,0.6-1.3,1.3-1.3h41c0.7,0,1.3,0.6,1.3,1.3C67.2,24.5,67.2,28.2,67.2,28.2z"/>
<rect x="26.2" y="24.7" width="2" height="2"/>
<rect x="30.9" y="24.7" width="2" height="2"/>
<rect x="35.6" y="24.7" width="2" height="2"/>
<path d="M45.9,42.2c-3.8,0-6.8,3.1-6.8,6.8s3.1,6.8,6.8,6.8s6.8-3.1,6.8-6.8C52.7,45.2,49.7,42.2,45.9,42.2z M45.9,53.8
	c-2.7,0-4.8-2.2-4.8-4.8s2.2-4.8,4.8-4.8s4.8,2.2,4.8,4.8S48.6,53.8,45.9,53.8z"/>
<path d="M59.7,51.3v-4.7c0-0.5-0.3-0.9-0.8-1l-2.2-0.4v-0.1c-0.1-0.4-0.3-0.8-0.5-1.1v-0.1l1.2-1.8c0.3-0.4,0.2-0.9-0.1-1.3L54,37.6
	c-0.3-0.3-0.9-0.4-1.3-0.1l-1.8,1.2h-0.1c-0.4-0.2-0.7-0.3-1.1-0.5h-0.1L49.2,36c-0.1-0.5-0.5-0.8-1-0.8h-4.7c-0.5,0-0.9,0.3-1,0.8
	l-0.4,2.2H42c-0.4,0.1-0.8,0.3-1.1,0.5h-0.1L39,37.4c-0.4-0.3-0.9-0.2-1.3,0.1l-3.3,3.3c-0.3,0.3-0.4,0.9-0.1,1.3l1.2,1.8V44
	c-0.2,0.4-0.3,0.7-0.5,1.1v0.1l-2.2,0.4c-0.5,0.1-0.8,0.5-0.8,1v4.7c0,0.5,0.3,0.9,0.8,1l2.2,0.4v0.1c0.1,0.4,0.3,0.8,0.5,1.1V54
	l-1.2,1.8c-0.3,0.4-0.2,0.9,0.1,1.3l3.3,3.3c0.3,0.3,0.9,0.4,1.3,0.1l1.8-1.2h0.1c0.4,0.2,0.7,0.3,1.1,0.5h0.1l0.4,2.2
	c0.1,0.5,0.5,0.8,1,0.8h4.7c0.5,0,0.9-0.3,1-0.8l0.4-2.2h0.1c0.4-0.1,0.8-0.3,1.1-0.5h0.1l1.8,1.2c0.4,0.3,0.9,0.2,1.3-0.1l3.3-3.3
	c0.3-0.3,0.4-0.9,0.1-1.3L56.2,54v-0.1c0.2-0.4,0.3-0.7,0.5-1.1v-0.1l2.2-0.4C59.4,52.2,59.7,51.8,59.7,51.3z M57.7,50.5l-1.9,0.4
	c-0.4,0.1-0.7,0.3-0.8,0.7c-0.2,0.7-0.5,1.4-0.8,2c-0.2,0.3-0.2,0.7,0,1l1.1,1.6l-2.1,2.1l-1.6-1.1c-0.3-0.2-0.7-0.2-1,0
	c-0.6,0.4-1.3,0.6-2,0.8c-0.4,0.1-0.6,0.4-0.7,0.8l-0.4,1.9h-3L44,58.9c-0.1-0.4-0.3-0.7-0.7-0.8c-0.7-0.2-1.4-0.5-2-0.8
	c-0.3-0.2-0.7-0.2-1,0l-1.6,1.1l-2.1-2.1l1.1-1.6c0.2-0.3,0.2-0.7,0-1c-0.4-0.6-0.6-1.3-0.8-2c-0.1-0.4-0.4-0.6-0.8-0.7l-1.9-0.4v-3
	l1.9-0.4c0.4-0.1,0.7-0.3,0.8-0.7c0.2-0.7,0.5-1.4,0.8-2c0.2-0.3,0.2-0.7,0-1l-1.1-1.6l2.1-2.1l1.6,1.1c0.3,0.2,0.7,0.2,1,0
	c0.6-0.4,1.3-0.6,2-0.8c0.4-0.1,0.6-0.4,0.7-0.8l0.4-1.9h3l0.4,1.9c0.1,0.4,0.3,0.7,0.7,0.8c0.7,0.2,1.4,0.5,2,0.8
	c0.3,0.2,0.7,0.2,1,0l1.6-1.1l2.1,2.1l-1.1,1.6c-0.2,0.3-0.2,0.7,0,1c0.4,0.6,0.6,1.3,0.8,2c0.1,0.4,0.4,0.6,0.8,0.7l1.9,0.4
	L57.7,50.5L57.7,50.5z"/>
<rect x="7.6" y="22.3" width="9" height="2"/>
<rect x="7.6" y="27" width="9" height="2"/>
<rect x="7.6" y="31.7" width="9" height="2"/>
<rect x="7.6" y="36.3" width="9" height="2"/>
<rect x="7.6" y="41" width="9" height="2"/>
</svg>
