<svg width="66" height="71" viewBox="0 0 66 71" fill="none" xmlns="http://www.w3.org/2000/svg">
<path d="M26.5317 32.7708L23.9097 34.3005L25.0908 36.3251L27.7129 34.7953L26.5317 32.7708Z" fill="black"/>
<path d="M21.8114 35.5238L19.1897 37.0542L20.3713 39.0785L22.993 37.5481L21.8114 35.5238Z" fill="black"/>
<path d="M34.4414 32.7724L33.2603 34.7969L35.8823 36.3266L37.0635 34.3021L34.4414 32.7724Z" fill="black"/>
<path d="M39.1607 35.5263L37.9795 37.5508L40.6016 39.0805L41.7827 37.056L39.1607 35.5263Z" fill="black"/>
<path d="M25.2095 11.7297L29.8996 14.4652C30.0789 14.5698 30.2829 14.625 30.4905 14.625C30.6982 14.625 30.9021 14.5698 31.0815 14.4652L35.7716 11.7297C35.9488 11.6264 36.0957 11.4786 36.1979 11.3008C36.3 11.123 36.3538 10.9216 36.3538 10.7166C36.3538 10.5116 36.3 10.3101 36.1979 10.1324C36.0957 9.95462 35.9488 9.80675 35.7716 9.70353L31.0721 6.9645C30.8928 6.85984 30.6888 6.80469 30.4812 6.80469C30.2735 6.80469 30.0696 6.85984 29.8902 6.9645L25.2001 9.70001C25.023 9.80324 24.876 9.9511 24.7738 10.1289C24.6717 10.3066 24.6179 10.5081 24.6179 10.7131C24.6179 10.9181 24.6717 11.1195 24.7738 11.2973C24.876 11.475 25.023 11.6229 25.2001 11.7261L25.2095 11.7297ZM30.4859 9.3377L32.8485 10.7166L30.4859 12.0955L28.1232 10.7166L30.4859 9.3377Z" fill="black"/>
<path d="M56.2814 23.6146H52.7638C52.4528 23.6146 52.1546 23.7381 51.9347 23.958C51.7148 24.1779 51.5913 24.4761 51.5913 24.7871V29.4772H45.7286V10.7168C45.7282 10.5113 45.6739 10.3096 45.571 10.1318C45.4681 9.95405 45.3203 9.80641 45.1424 9.7037L31.072 1.49599C30.8927 1.39133 30.6887 1.33618 30.4811 1.33618C30.2734 1.33618 30.0695 1.39133 29.8901 1.49599L15.8198 9.7037C15.6436 9.80759 15.4977 9.95574 15.3965 10.1335C15.2953 10.3112 15.2423 10.5123 15.2429 10.7168V29.4772H9.38023V24.7871C9.38023 24.4761 9.2567 24.1779 9.03681 23.958C8.81692 23.7381 8.51868 23.6146 8.20771 23.6146H4.69012C3.44622 23.6146 2.25327 24.1087 1.3737 24.9883C0.494136 25.8679 0 27.0608 0 28.3047V61.1355C0 62.3794 0.494136 63.5724 1.3737 64.4519C2.25327 65.3315 3.44622 65.8256 4.69012 65.8256H56.2814C57.5253 65.8256 58.7183 65.3315 59.5978 64.4519C60.4774 63.5724 60.9715 62.3794 60.9715 61.1355V28.3047C60.9715 27.0608 60.4774 25.8679 59.5978 24.9883C58.7183 24.1087 57.5253 23.6146 56.2814 23.6146ZM17.5879 12.7593L29.3132 19.5987V46.1963L17.5879 39.357V12.7593ZM31.6583 19.5987L43.3836 12.7593V39.357L31.6583 46.1963V19.5987ZM30.4858 3.86567L42.2286 10.7168L30.4858 17.5679L18.7429 10.7168L30.4858 3.86567ZM2.34506 28.3047C2.34506 27.6828 2.59213 27.0863 3.03191 26.6465C3.47169 26.2067 4.06817 25.9596 4.69012 25.9596H7.03518V56.4454H4.69012C3.86649 56.4441 3.05728 56.6614 2.34506 57.0751V28.3047ZM56.2814 63.4806H4.69012C4.06817 63.4806 3.47169 63.2335 3.03191 62.7937C2.59213 62.354 2.34506 61.7575 2.34506 61.1355C2.34506 60.5136 2.59213 59.9171 3.03191 59.4773C3.47169 59.0375 4.06817 58.7905 4.69012 58.7905H8.20771C8.51868 58.7905 8.81692 58.6669 9.03681 58.447C9.2567 58.2271 9.38023 57.9289 9.38023 57.6179V31.8223H15.2429V40.03C15.2433 40.2354 15.2977 40.4371 15.4006 40.6149C15.5035 40.7927 15.6512 40.9404 15.8291 41.0431L29.8995 49.2508C30.0789 49.3554 30.2828 49.4106 30.4905 49.4106C30.6981 49.4106 30.9021 49.3554 31.0814 49.2508L45.1518 41.0431C45.3279 40.9392 45.4738 40.791 45.575 40.6133C45.6762 40.4356 45.7292 40.2345 45.7286 40.03V31.8223H51.5913V57.6179C51.5913 57.9289 51.7148 58.2271 51.9347 58.447C52.1546 58.6669 52.4528 58.7905 52.7638 58.7905H56.2814C56.9034 58.7905 57.4998 59.0375 57.9396 59.4773C58.3794 59.9171 58.6265 60.5136 58.6265 61.1355C58.6265 61.7575 58.3794 62.354 57.9396 62.7937C57.4998 63.2335 56.9034 63.4806 56.2814 63.4806ZM58.6265 57.0751C57.9142 56.6614 57.105 56.4441 56.2814 56.4454H53.9363V25.9596H56.2814C56.9034 25.9596 57.4998 26.2067 57.9396 26.6465C58.3794 27.0863 58.6265 27.6828 58.6265 28.3047V57.0751Z" fill="black"/>
<path d="M17.588 51.7551H15.2429V54.1002H17.588V51.7551Z" fill="#0071B3"/>
<path d="M48.0738 51.7551H19.9331V54.1002H48.0738V51.7551Z" fill="#0071B3"/>
<path d="M12.8978 68.1707H10.5527V70.5157H12.8978V68.1707Z" fill="#0071B3"/>
<path d="M43.3836 68.1707H15.2429V70.5157H43.3836V68.1707Z" fill="#0071B3"/>
<path d="M44.5562 56.4453H12.8979V58.7904H44.5562V56.4453Z" fill="#0071B3"/>
<path d="M65.6617 34.1672H63.3167V57.6178H65.6617V34.1672Z" fill="#0071B3"/>
<path d="M12.8978 20.0969H10.5527V22.442H12.8978V20.0969Z" fill="#0071B3"/>
<path d="M12.8978 9.0446L24.0368 2.54527L22.8643 0.515625L11.139 7.35499C10.9606 7.45799 10.8125 7.60619 10.7095 7.78466C10.6066 7.96312 10.5525 8.16555 10.5527 8.37157V17.7518H12.8978V9.0446Z" fill="#0071B3"/>
</svg>
