<?xml version="1.0" encoding="utf-8"?>
<!-- Generator: Adobe Illustrator 23.0.1, SVG Export Plug-In . SVG Version: 6.00 Build 0)  -->
<svg version="1.1" id="Слой_1" xmlns="http://www.w3.org/2000/svg" xmlns:xlink="http://www.w3.org/1999/xlink" x="0px" y="0px"
	 width="70px" height="70px" viewBox="0 0 70 70" style="enable-background:new 0 0 70 70;" xml:space="preserve">
<style type="text/css">
	.st0{fill:#0071B3;stroke:#FFFFFF;}
</style>
<path class="st0" d="M61.8,33.3h0.5v-0.5V22.6c0-0.9,0.7-1.6,1.6-1.6c0.9,0,1.6,0.7,1.6,1.6V58h0.5l-0.2,0.5
	c2.2,0.8,3.8,2.9,3.8,5.3c0,3.1-2.5,5.7-5.7,5.7c-2.5,0-4.6-1.6-5.3-3.8l-0.1-0.3H58H12h-0.4l-0.1,0.3c-0.8,2.2-2.9,3.8-5.3,3.8
	c-3.1,0-5.7-2.5-5.7-5.7c0-2.5,1.6-4.6,3.8-5.3l0.3-0.1V58V12v-0.4l-0.3-0.1c-2.2-0.8-3.8-2.9-3.8-5.3C0.5,3,3,0.5,6.2,0.5
	c2.5,0,4.5,1.6,5.3,3.8l0.1,0.3H12h35.5c0.9,0,1.6,0.7,1.6,1.6c0,0.9-0.7,1.6-1.6,1.6H37.2h-0.5v0.5v10.3c0,0.9-0.7,1.6-1.6,1.6
	c-0.9,0-1.6-0.7-1.6-1.6V8.2V7.7h-0.5H12h-0.4L11.5,8c-0.6,1.6-1.8,2.9-3.4,3.4l-0.3,0.1V12v20.9v0.5h0.5h14.6
	c0.9,0,1.6,0.7,1.6,1.6c0,0.9-0.7,1.6-1.6,1.6H8.2H7.7v0.5V58v0.4L8,58.5c1.6,0.6,2.9,1.8,3.4,3.4l0.1,0.3H12h21.1h0.5v-0.5V47.2
	c0-0.9,0.7-1.6,1.6-1.6c0.9,0,1.6,0.7,1.6,1.6v14.6v0.5h0.5H58h0.4l0.1-0.3c0.6-1.6,1.8-2.9,3.4-3.4l0.3-0.1V58V36.9v-0.5h-0.5H51.5
	c-0.9,0-1.6-0.7-1.6-1.6c0-0.9,0.7-1.6,1.6-1.6H61.8z M8.7,6.2c0-1.4-1.1-2.6-2.6-2.6c-1.4,0-2.6,1.1-2.6,2.6c0,1.4,1.1,2.6,2.6,2.6
	C7.6,8.7,8.7,7.6,8.7,6.2z M3.6,63.8c0,1.4,1.1,2.6,2.6,2.6c1.4,0,2.6-1.1,2.6-2.6c0-1.4-1.1-2.6-2.6-2.6
	C4.7,61.3,3.6,62.4,3.6,63.8z M61.3,63.8c0,1.4,1.1,2.6,2.6,2.6c1.4,0,2.6-1.1,2.6-2.6c0-1.4-1.1-2.6-2.6-2.6
	C62.4,61.3,61.3,62.4,61.3,63.8z"/>
<path class="st0" d="M59.8,2.2c2.2-2.2,5.8-2.2,8,0v0c2.2,2.2,2.2,5.8,0,8L38.7,39.3l0,0c-0.2,0.2-0.4,0.3-0.6,0.4l-8.2,2.7l-0.1,0
	l-0.1,0.1l-2.6,2.6l0,0c-0.6,0.6-1.6,0.6-2.2,0l0,0c-0.6-0.6-0.6-1.6,0-2.2l0,0l2.6-2.6l0.1-0.1l0-0.1l2.7-8.2l0,0
	c0.1-0.2,0.2-0.4,0.4-0.6l0,0l3.9-3.9c0,0,0,0,0,0L59.8,2.2z M36.7,36.8l0.1,0l0.1-0.1l2.1-2.1l0.4-0.4L39,33.9L36.1,31l-0.4-0.4
	L35.4,31l-2.1,2.1l-0.1,0.1l0,0.1l-1.5,4.4l-0.3,0.9l0.9-0.3L36.7,36.8z M41.2,31.7l0.4,0.4l0.4-0.4l19.4-19.4l0.4-0.4l-0.4-0.4
	l-2.9-2.9L58,8.3l-0.4,0.4L38.3,28.1l-0.4,0.4l0.4,0.4L41.2,31.7z M63.5,9.4l0.4,0.4l0.4-0.4L65.6,8c1-1,1-2.6,0-3.6
	c-1-1-2.6-1-3.6,0l0,0l-1.5,1.5l-0.4,0.4l0.4,0.4L63.5,9.4z"/>
</svg>
