<svg width="70" height="64" viewBox="0 0 70 64" fill="none" xmlns="http://www.w3.org/2000/svg">
<path d="M66.8035 30.5374H58.0546V18.6551C58.0546 16.7881 56.5352 15.2687 54.6682 15.2687H48.9687V6.68158C48.9687 6.68105 48.9687 6.68051 48.9687 6.67998C48.9687 6.67945 48.9687 6.67945 48.9687 6.67891V3.19633C48.9687 1.43394 47.5353 0 45.7724 0H3.19633C1.43394 0 0 1.43394 0 3.19633V29.3998C0 31.1622 1.43394 32.5961 3.19633 32.5961H11.8304V44.4784C11.8304 46.3454 13.3493 47.8643 15.2163 47.8643H21.1684V59.9366C21.1684 61.6996 22.6018 63.133 24.3647 63.133H66.8035C68.5665 63.133 69.9999 61.6996 69.9999 59.9366V33.7337C69.9999 31.9713 68.5659 30.5374 66.8035 30.5374ZM66.8035 32.5961C67.4311 32.5961 67.9411 33.1062 67.9411 33.7337V35.5927H58.0546V32.5961H66.8035ZM55.9958 18.6546V20.9318H13.8892V18.6546C13.8892 17.9229 14.4847 17.3275 15.2163 17.3275H54.6682C55.4004 17.3275 55.9958 17.9229 55.9958 18.6546ZM3.19633 30.5374C2.56881 30.5374 2.05879 30.0268 2.05879 29.3998V7.70964H13.7957C14.364 7.70964 14.8249 7.24875 14.8249 6.67998C14.8249 6.11174 14.364 5.65085 13.7957 5.65085H2.05879V3.19633C2.05879 2.56935 2.56881 2.05879 3.19633 2.05879H45.7729C46.3999 2.05879 46.9105 2.56935 46.9105 3.19633V5.65085H17.9128C17.3446 5.65085 16.8837 6.11174 16.8837 6.67998C16.8837 7.24875 17.3446 7.70964 17.9128 7.70964H46.9105V15.2687H15.2163C13.3493 15.2687 11.8304 16.7875 11.8304 18.6546V30.5374H3.19633ZM66.8035 61.0742H24.3642C23.7372 61.0742 23.2267 60.5642 23.2267 59.9366V47.8643H45.3617C45.9305 47.8643 46.3914 47.4039 46.3914 46.8352C46.3914 46.2664 45.9305 45.806 45.3617 45.806H15.2163C14.4847 45.806 13.8892 45.2106 13.8892 44.4784V22.9901H55.9958V44.4784C55.9958 45.21 55.4004 45.8055 54.6682 45.8055H49.4793C48.911 45.8055 48.4501 46.2664 48.4501 46.8352C48.4501 47.4034 48.911 47.8643 49.4793 47.8643H54.6682C56.5352 47.8643 58.0546 46.3454 58.0546 44.4784V37.651H67.9411V59.9366C67.9411 60.5642 67.4311 61.0742 66.8035 61.0742Z" fill="black"/>
<path d="M17.7071 19.2141C17.7071 19.7071 17.3077 20.1066 16.8147 20.1066C16.3223 20.1066 15.9229 19.7071 15.9229 19.2141C15.9229 18.7217 16.3223 18.3223 16.8147 18.3223C17.3077 18.3223 17.7071 18.7217 17.7071 19.2141Z" fill="black"/>
<path d="M20.5889 19.2141C20.5889 19.7071 20.19 20.1066 19.6971 20.1066C19.2041 20.1066 18.8052 19.7071 18.8052 19.2141C18.8052 18.7217 19.2041 18.3223 19.6971 18.3223C20.19 18.3223 20.5889 18.7217 20.5889 19.2141Z" fill="black"/>
<path d="M23.4713 19.2141C23.4713 19.7071 23.0718 20.1066 22.5794 20.1066C22.0865 20.1066 21.687 19.7071 21.687 19.2141C21.687 18.7217 22.0865 18.3223 22.5794 18.3223C23.0718 18.3223 23.4713 18.7217 23.4713 19.2141Z" fill="black"/>
<path d="M5.76671 3.84261C5.76671 4.33501 5.36723 4.73448 4.8743 4.73448C4.3819 4.73448 3.98242 4.33501 3.98242 3.84261C3.98242 3.34967 4.3819 2.9502 4.8743 2.9502C5.36723 2.9502 5.76671 3.34967 5.76671 3.84261Z" fill="black"/>
<path d="M8.64903 3.84261C8.64903 4.33501 8.24956 4.73448 7.75662 4.73448C7.26422 4.73448 6.86475 4.33501 6.86475 3.84261C6.86475 3.34967 7.26422 2.9502 7.75662 2.9502C8.24956 2.9502 8.64903 3.34967 8.64903 3.84261Z" fill="black"/>
<path d="M11.5309 3.84261C11.5309 4.33501 11.1314 4.73448 10.639 4.73448C10.1461 4.73448 9.74658 4.33501 9.74658 3.84261C9.74658 3.34967 10.1461 2.9502 10.639 2.9502C11.1314 2.9502 11.5309 3.34967 11.5309 3.84261Z" fill="black"/>
<path d="M20.5196 33.4193C20.8373 33.4193 21.1503 33.273 21.3516 32.9969C21.687 32.5382 21.5871 31.8941 21.1278 31.5587L18.668 29.761L21.1481 27.8529C21.5989 27.5068 21.6833 26.86 21.3367 26.4093C20.9901 25.9591 20.3439 25.8747 19.8931 26.2213L16.3245 28.9664C16.0677 29.164 15.9192 29.4711 15.9229 29.7947C15.9272 30.1189 16.0831 30.4217 16.3448 30.6134L19.9134 33.2207C20.0966 33.3547 20.3091 33.4193 20.5196 33.4193Z" fill="#FF5555"/>
<path d="M27.4415 27.853L29.9217 29.7612L27.4618 31.5588C27.0031 31.8942 26.9027 32.5383 27.2381 32.9971C27.4399 33.2732 27.7529 33.4195 28.0701 33.4195C28.2811 33.419 28.4936 33.3543 28.6768 33.2208L32.2449 30.613C32.5065 30.4218 32.663 30.119 32.6668 29.7949C32.671 29.4707 32.522 29.1636 32.2651 28.9665L28.6966 26.2215C28.2464 25.8749 27.6001 25.9587 27.253 26.4095C26.9064 26.8602 26.9908 27.5064 27.4415 27.853Z" fill="#FF5555"/>
<path d="M22.8747 33.3424C23.0029 33.3953 23.1348 33.4198 23.2651 33.4198C23.6704 33.4198 24.0544 33.179 24.2179 32.7811L26.4139 27.4282C26.6297 26.9022 26.3781 26.3008 25.8521 26.0851C25.326 25.8693 24.7252 26.1209 24.5089 26.6469L22.3129 31.9992C22.0971 32.5253 22.3487 33.1266 22.8747 33.3424Z" fill="#FF5555"/>
<path d="M35.8922 30.674H37.5387C38.1075 30.674 38.5684 30.2131 38.5684 29.6444C38.5684 29.0761 38.1075 28.6152 37.5387 28.6152H35.8922C35.3234 28.6152 34.8625 29.0761 34.8625 29.6444C34.8625 30.2131 35.3234 30.674 35.8922 30.674Z" fill="#FF5555"/>
<path d="M40.97 30.674H52.636C53.2042 30.674 53.6651 30.2131 53.6651 29.6444C53.6651 29.0761 53.2042 28.6152 52.636 28.6152H40.97C40.4018 28.6152 39.9409 29.0761 39.9409 29.6444C39.9409 30.2131 40.4018 30.674 40.97 30.674Z" fill="#FF5555"/>
<path d="M32.9412 37.056C32.9412 36.4873 32.4803 36.0264 31.912 36.0264H20.5206C19.9523 36.0264 19.4915 36.4873 19.4915 37.056C19.4915 37.6243 19.9523 38.0852 20.5206 38.0852H31.912C32.4803 38.0852 32.9412 37.6243 32.9412 37.056Z" fill="#FF5555"/>
<path d="M35.6178 38.0852H52.6361C53.2043 38.0852 53.6652 37.6243 53.6652 37.056C53.6652 36.4873 53.2043 36.0264 52.6361 36.0264H35.6178C35.049 36.0264 34.5881 36.4873 34.5881 37.056C34.5881 37.6243 35.049 38.0852 35.6178 38.0852Z" fill="#FF5555"/>
<path d="M35.8922 34.2419H43.1661C43.7343 34.2419 44.1952 33.7815 44.1952 33.2127C44.1952 32.644 43.7343 32.1836 43.1661 32.1836H35.8922C35.3234 32.1836 34.8625 32.644 34.8625 33.2127C34.8625 33.7815 35.3234 34.2419 35.8922 34.2419Z" fill="#FF5555"/>
<path d="M46.0485 32.1836C45.4797 32.1836 45.0188 32.644 45.0188 33.2127C45.0188 33.7815 45.4797 34.2419 46.0485 34.2419H48.9302C49.499 34.2419 49.9599 33.7815 49.9599 33.2127C49.9599 32.644 49.499 32.1836 48.9302 32.1836H46.0485Z" fill="#FF5555"/>
<path d="M28.2061 40.0068H25.4615C24.8928 40.0068 24.4319 40.4677 24.4319 41.036C24.4319 41.6047 24.8928 42.0656 25.4615 42.0656H28.2061C28.7748 42.0656 29.2357 41.6047 29.2357 41.036C29.2357 40.4677 28.7748 40.0068 28.2061 40.0068Z" fill="#FF5555"/>
<path d="M46.8721 40.0068H31.6375C31.0688 40.0068 30.6084 40.4677 30.6084 41.036C30.6084 41.6047 31.0688 42.0656 31.6375 42.0656H46.8721C47.4403 42.0656 47.9012 41.6047 47.9012 41.036C47.9012 40.4677 47.4403 40.0068 46.8721 40.0068Z" fill="#FF5555"/>
</svg>
