<?xml version="1.0" encoding="utf-8"?>
<!-- Generator: Adobe Illustrator 23.0.1, SVG Export Plug-In . SVG Version: 6.00 Build 0)  -->
<svg version="1.1" id="Слой_1" xmlns="http://www.w3.org/2000/svg" xmlns:xlink="http://www.w3.org/1999/xlink" x="0px" y="0px"
	 viewBox="0 0 60 60" style="enable-background:new 0 0 60 60;" xml:space="preserve">
<style type="text/css">
	.st0{fill:#0071B3;}
</style>
<path class="st0" d="M11.4,13.7l-1.1-1.1l-3.9,3.9c-0.3,0.3-0.3,0.8,0,1.1l3.9,3.9l1.1-1.1L8.1,17L11.4,13.7z"/>
<path class="st0" d="M25.6,16.4l-3.9-3.9l-1.1,1.1l3.3,3.3l-3.3,3.3l1.1,1.1l3.9-3.9C25.9,17.3,25.9,16.7,25.6,16.4z"/>
<rect x="12.1" y="16.2" transform="matrix(0.2427 -0.9701 0.9701 0.2427 -4.3747 28.3968)" class="st0" width="7.9" height="1.6"/>
<rect x="28.2" y="15.2" class="st0" width="9.6" height="1.6"/>
<rect x="40.2" y="15.2" class="st0" width="3.6" height="1.6"/>
<rect x="46.2" y="15.2" class="st0" width="7.6" height="1.6"/>
<rect x="28.2" y="19.2" class="st0" width="5.6" height="1.6"/>
<rect x="36.2" y="19.2" class="st0" width="3.6" height="1.6"/>
<rect x="42.2" y="19.2" class="st0" width="11.6" height="1.6"/>
<rect x="6.2" y="25.2" class="st0" width="5.6" height="1.6"/>
<rect x="14.2" y="25.2" class="st0" width="7.6" height="1.6"/>
<rect x="24.2" y="25.2" class="st0" width="1.6" height="1.6"/>
<rect x="28.2" y="25.2" class="st0" width="25.6" height="1.6"/>
<rect x="6.2" y="29.2" class="st0" width="19.6" height="1.6"/>
<rect x="28.2" y="29.2" class="st0" width="5.6" height="1.6"/>
<rect x="36.2" y="29.2" class="st0" width="17.6" height="1.6"/>
<path class="st0" d="M59.8,5c0-2.6-2.2-4.8-4.8-4.8H5C2.4,0.2,0.2,2.4,0.2,5v38c0,2.6,2.2,4.8,4.8,4.8h17.1l-0.8,6.4H19
	c-1.5,0-2.8,1.3-2.8,2.8s1.3,2.8,2.8,2.8h22c1.5,0,2.8-1.3,2.8-2.8s-1.3-2.8-2.8-2.8h-2.3l-0.8-6.4H55c2.6,0,4.8-2.2,4.8-4.8V5z
	 M41,55.8c0.7,0,1.2,0.5,1.2,1.2s-0.5,1.2-1.2,1.2H19c-0.7,0-1.2-0.5-1.2-1.2s0.5-1.2,1.2-1.2H41z M22.9,54.2l0.8-6.4h12.6l0.8,6.4
	H22.9z M58.2,43c0,1.8-1.4,3.2-3.2,3.2H5c-1.8,0-3.2-1.4-3.2-3.2v-3.2h56.4V43z M58.2,38.2H1.8V9.8h56.4V38.2z M58.2,8.2H1.8V5
	c0-1.8,1.4-3.2,3.2-3.2h50c1.8,0,3.2,1.4,3.2,3.2V8.2z"/>
<rect x="52.2" y="42.2" class="st0" width="1.6" height="1.6"/>
<rect x="6.2" y="4.2" class="st0" width="1.6" height="1.6"/>
<rect x="10.2" y="4.2" class="st0" width="1.6" height="1.6"/>
<rect x="14.2" y="4.2" class="st0" width="1.6" height="1.6"/>
</svg>
