<?xml version="1.0" encoding="utf-8"?>
<!-- Generator: Adobe Illustrator 23.0.1, SVG Export Plug-In . SVG Version: 6.00 Build 0)  -->
<svg version="1.1" id="Слой_1" xmlns="http://www.w3.org/2000/svg" xmlns:xlink="http://www.w3.org/1999/xlink" x="0px" y="0px"
	 width="70px" height="70px" viewBox="0 0 70 70" style="enable-background:new 0 0 70 70;" xml:space="preserve">
<style type="text/css">
	.st0{fill:#0071B3;}
</style>
<g>
	<path class="st0" d="M50.2,42.2h-7c-0.6,0-1,0.4-1,1c0,0.6,0.4,1,1,1h7c0.6,0,1-0.4,1-1C51.2,42.6,50.7,42.2,50.2,42.2z"/>
	<path class="st0" d="M62.8,17.5c0-0.6-0.4-1-1-1H50.2c-2,0-3.7-1.6-3.7-3.7V7c0-0.6-0.4-1-1-1c-0.6,0-1,0.4-1,1v5.8
		c0,3.1,2.5,5.7,5.7,5.7h10.7v22.3c0,0.6,0.4,1,1,1s1-0.4,1-1V17.5z"/>
	<path class="st0" d="M50.2,28.2h-9.3c-0.6,0-1,0.4-1,1s0.4,1,1,1h9.3c0.6,0,1-0.4,1-1S50.7,28.2,50.2,28.2z"/>
	<path class="st0" d="M36.2,28.2h-7c-0.6,0-1,0.4-1,1s0.4,1,1,1h7c0,0,0,0,0,0c0.3,0,0.5-0.1,0.7-0.3c0.2-0.2,0.3-0.4,0.3-0.7
		C37.2,28.6,36.7,28.2,36.2,28.2z"/>
	<path class="st0" d="M31.5,35.2h-2.3c-0.6,0-1,0.4-1,1c0,0.6,0.4,1,1,1h2.3c0.6,0,1-0.4,1-1C32.5,35.6,32.1,35.2,31.5,35.2z"/>
	<path class="st0" d="M40.8,21.2H29.2c-0.6,0-1,0.4-1,1s0.4,1,1,1h11.7c0.6,0,1-0.4,1-1S41.4,21.2,40.8,21.2z"/>
	<path class="st0" d="M47.8,35.2H36.2c-0.6,0-1,0.4-1,1c0,0.6,0.4,1,1,1h11.7c0.6,0,1-0.4,1-1C48.8,35.6,48.4,35.2,47.8,35.2z"/>
	<path class="st0" d="M45.5,49.2h-2.3c-0.6,0-1,0.4-1,1c0,0.6,0.4,1,1,1h2.3c0.6,0,1-0.4,1-1C46.5,49.6,46.1,49.2,45.5,49.2z"/>
	<path class="st0" d="M38.5,42.2h-9.3c-0.6,0-1,0.4-1,1c0,0.6,0.4,1,1,1h9.3c0.6,0,1-0.4,1-1C39.5,42.6,39.1,42.2,38.5,42.2z"/>
	<path class="st0" d="M38.5,49.2h-9.3c-0.6,0-1,0.4-1,1c0,0.6,0.4,1,1,1h9.3c0.6,0,1-0.4,1-1C39.5,49.6,39.1,49.2,38.5,49.2z"/>
	<path class="st0" d="M63.8,45.8c-0.9-0.9-2-1.3-3-1.3c-1.1,0-2.2,0.4-3,1.3L42.5,61.1c-0.2,0.2-0.3,0.4-0.3,0.7v7c0,0.6,0.4,1,1,1
		h7c0.3,0,0.5-0.1,0.7-0.3l15.3-15.3c1.8-1.8,1.8-4.3,0-6.1L63.8,45.8z M45.9,60.5l10.3-10.3l2.1,2.1l-0.1,0.1L47.8,62.8l-2.1-2.1
		L45.9,60.5z M44.2,67.8v-5.9l5.9,5.9H44.2z M61.6,56L51.3,66.3l-2.1-2.1l0.1-0.1l10.3-10.3l2.1,2.1L61.6,56z M64.7,52.8L64.7,52.8
		l-1.6,1.6L63,54.3l-5.5-5.5l1.6-1.6c1-1,2.3-1,3.2,0l2.3,2.3C65.7,50.6,65.7,51.8,64.7,52.8z"/>
	<path class="st0" d="M57.9,12.1L46.2,0.5c-0.2-0.2-0.4-0.3-0.7-0.3H8.2C5,0.2,2.5,2.7,2.5,5.8v58.3c0,3.1,2.5,5.7,5.7,5.7h30.3
		c0.6,0,1-0.4,1-1c0-0.6-0.4-1-1-1H8.2c-2,0-3.7-1.6-3.7-3.7V5.8c0-2,1.6-3.7,3.7-3.7h36.9l0,0l11.3,11.3c0.4,0.4,1,0.4,1.4,0
		C58.3,13.2,58.3,12.5,57.9,12.1z"/>
	<path class="st0" d="M38.5,56.2h-9.3c-0.6,0-1,0.4-1,1c0,0.6,0.4,1,1,1h9.3c0.6,0,1-0.4,1-1C39.5,56.6,39.1,56.2,38.5,56.2z"/>
	<path class="st0" d="M22.2,21.2h-7c-0.6,0-1,0.4-1,1v7c0,0.6,0.4,1,1,1h7c0.6,0,1-0.4,1-1v-7C23.2,21.6,22.7,21.2,22.2,21.2z
		 M21.2,28.2h-5v-5h5V28.2z"/>
	<path class="st0" d="M22.2,49.2h-7c-0.6,0-1,0.4-1,1v7c0,0.6,0.4,1,1,1h7c0.6,0,1-0.4,1-1v-7C23.2,49.6,22.7,49.2,22.2,49.2z
		 M21.2,56.2h-5v-5h5V56.2z"/>
	<path class="st0" d="M15.9,40.1c-0.4-0.4-1-0.4-1.4,0c-0.2,0.2-0.3,0.4-0.3,0.7c0,0.3,0.1,0.5,0.3,0.7l2.3,2.3
		c0.2,0.2,0.5,0.3,0.8,0.3c0.3,0,0.6-0.2,0.7-0.4l4.7-7c0.3-0.5,0.2-1.1-0.3-1.4c-0.5-0.3-1.1-0.2-1.4,0.3l-4,6L15.9,40.1z"/>
</g>
</svg>
