<?xml version="1.0" encoding="utf-8"?>
<!-- Generator: Adobe Illustrator 23.0.1, SVG Export Plug-In . SVG Version: 6.00 Build 0)  -->
<svg version="1.1" id="Слой_1" xmlns="http://www.w3.org/2000/svg" xmlns:xlink="http://www.w3.org/1999/xlink" x="0px" y="0px"
	 width="70px" height="70px" viewBox="0 0 70 70" style="enable-background:new 0 0 70 70;" xml:space="preserve">
<style type="text/css">
	.st0{fill:#0071B3;}
</style>
<path class="st0" d="M69.8,50.2V5.8c0-2.5-2-4.5-4.5-4.5H4.7c-2.5,0-4.5,2-4.5,4.5v44.3c0,2.5,2,4.5,4.5,4.5h23.5l0,0.2
	c-0.3,4.7-2.3,7.1-5.9,7.2l-2.4,0c-1.8,0-3.3,1.5-3.3,3.3s1.5,3.3,3.3,3.3h30.3c1.8,0,3.3-1.5,3.3-3.3S52,62,50.2,62l-2.4,0
	c-3.6,0-5.6-2.4-5.9-7.2l0-0.2h23.5C67.8,54.7,69.8,52.6,69.8,50.2z M2.2,5.8c0-1.4,1.1-2.5,2.5-2.5h60.7c1.4,0,2.5,1.1,2.5,2.5
	v37.5H2.2V5.8z M50.2,64c0.7,0,1.3,0.6,1.3,1.3s-0.6,1.3-1.3,1.3H19.8c-0.7,0-1.3-0.6-1.3-1.3s0.6-1.3,1.3-1.3H50.2z M42.3,61.7
	l0.2,0.3h-15l0.2-0.3c1.4-1.6,2.2-3.9,2.4-6.9l0-0.2h9.7l0,0.2C40,57.8,40.8,60.1,42.3,61.7z M4.7,52.7c-1.4,0-2.5-1.1-2.5-2.5v-4.8
	h65.7v4.8c0,1.4-1.1,2.5-2.5,2.5H4.7z"/>
<path class="st0" d="M38.5,48h-7c-0.6,0-1,0.4-1,1c0,0.6,0.4,1,1,1h7c0.6,0,1-0.4,1-1C39.5,48.4,39.1,48,38.5,48z"/>
<path class="st0" d="M55.6,35.7l-2.9-2.9l1.7-1.7c0.2-0.2,0.3-0.6,0.3-1c-0.1-0.3-0.3-0.6-0.7-0.7l-4-1.2V11.7c0-0.1,0-0.3-0.1-0.4
	c-0.2-0.4-0.5-0.6-0.9-0.6H16.3c-0.6,0-1,0.4-1,1v22.2c0,0.6,0.4,1,1,1h27l1.2,4c0.1,0.3,0.4,0.6,0.7,0.7c0.3,0.1,0.7,0,1-0.3
	l1.8-1.8l2.9,2.9c0.4,0.4,1,0.4,1.4,0l3.3-3.3C56,36.7,56,36,55.6,35.7z M17.3,12.7H48v3.8H17.3V12.7z M41,27.1l1.7,5.7H17.3V18.5
	H48v9.1l-5.7-1.7c-0.3-0.1-0.5,0-0.8,0.1c-0.1,0-0.2,0.1-0.2,0.2C41,26.4,40.9,26.8,41,27.1z M51.6,38.3l-2.7-2.7
	c-0.5-0.5-1.4-0.5-1.9,0l-1,1l-0.9-3l0,0l0-0.1l-1.6-5.2l8.3,2.5l-1.1,1.1c-0.2,0.2-0.3,0.5-0.3,0.8c0,0.3,0.1,0.6,0.3,0.8l2.8,2.8
	L51.6,38.3z"/>
<path class="st0" d="M31.3,24.5c0-0.6-0.4-1-1-1H21c-0.6,0-1,0.4-1,1v4.7c0,0.6,0.4,1,1,1h9.3c0.6,0,1-0.4,1-1V24.5z M29.3,28.2H22
	v-2.7h7.3V28.2z"/>
</svg>
