<svg width="70" height="60" viewBox="0 0 70 60" fill="none" xmlns="http://www.w3.org/2000/svg">
<path d="M65.6867 0H4.31334C1.93484 0 0 1.93484 0 4.3132V45.9595C0 48.3379 1.93484 50.2727 4.31334 50.2727H25.0708L24.2312 56.9896H20.7525C20.1861 56.9896 19.7271 57.4487 19.7271 58.015C19.7271 58.5813 20.1861 59.0404 20.7525 59.0404H49.2475C49.8139 59.0404 50.2729 58.5813 50.2729 58.015C50.2729 57.4487 49.8139 56.9896 49.2475 56.9896H45.7689L44.9292 50.2727H65.6867C68.065 50.2727 70 48.3379 70 45.9595V4.3132C70 1.93484 68.0652 0 65.6867 0ZM26.298 56.9896L27.1377 50.2727H30.9116L31.2818 51.7534C31.7092 53.4628 33.2382 54.6565 35.0001 54.6565C36.762 54.6565 38.2911 53.4628 38.7185 51.7534L39.0887 50.2727H42.8626L43.702 56.9896H26.298ZM33.0254 50.2727H36.9745L36.7287 51.256C36.53 52.0507 35.8192 52.6057 34.9999 52.6057C34.1805 52.6057 33.4698 52.0506 33.2711 51.256L33.0254 50.2727ZM67.9492 45.9595C67.9492 47.2071 66.9342 48.2219 65.6867 48.2219H4.31334C3.06578 48.2219 2.05078 47.2071 2.05078 45.9595V4.3132C2.05078 3.06564 3.06578 2.05078 4.31334 2.05078H65.6867C66.9342 2.05078 67.9492 3.06564 67.9492 4.3132V45.9595Z" fill="black"/>
<path d="M58.015 4.38379H5.40918C4.84275 4.38379 4.38379 4.84275 4.38379 5.40918V44.8635C4.38379 45.4299 4.84275 45.8889 5.40918 45.8889H7.60119C8.16762 45.8889 8.62658 45.4299 8.62658 44.8635C8.62672 44.2972 8.16762 43.8381 7.60133 43.8381H6.43471V6.43457H58.015C58.5814 6.43457 59.0404 5.97547 59.0404 5.40918C59.0404 4.84275 58.5814 4.38379 58.015 4.38379Z" fill="black"/>
<path d="M64.5907 4.38379H62.3987C61.8322 4.38379 61.3733 4.84275 61.3733 5.40918C61.3733 5.97547 61.8322 6.43457 62.3987 6.43457H63.5653V43.8381H11.9849C11.4184 43.8381 10.9595 44.2972 10.9595 44.8635C10.9595 45.4299 11.4184 45.8889 11.9849 45.8889H64.5905C65.157 45.8889 65.6159 45.4299 65.6159 44.8635V5.40918C65.6161 4.84275 65.157 4.38379 64.5907 4.38379Z" fill="black"/>
<path d="M48.9591 15.7368C48.7748 15.5013 48.4969 15.358 48.1983 15.3445L24.0874 14.2484C24.0685 14.2476 24.05 14.2471 24.031 14.2474C23.8883 13.7789 23.5867 13.3726 23.1785 13.1002L20.2257 11.1317C19.7546 10.8177 19.1179 10.945 18.8039 11.4163C18.4898 11.8875 18.6171 12.5241 19.0882 12.8381L22.0408 14.8063C22.0548 14.8156 22.065 14.8297 22.0697 14.8458L25.8307 28.0093C25.948 28.4197 26.141 28.7886 26.3889 29.1071L25.0128 31.8593C24.6815 32.5217 24.7163 33.2932 25.1056 33.9232C25.2469 34.1516 25.426 34.3462 25.6317 34.502C25.3624 34.9722 25.2075 35.5161 25.2075 36.0958C25.2075 37.8698 26.6508 39.313 28.4248 39.313C30.1987 39.313 31.642 37.8697 31.642 36.0958C31.642 35.6844 31.5636 35.2912 31.4222 34.9293H40.7706C40.6292 35.2912 40.5508 35.6844 40.5508 36.0958C40.5508 37.8698 41.9941 39.313 43.768 39.313C45.542 39.313 46.9853 37.8697 46.9853 36.0958C46.9853 35.5812 46.8632 35.0948 46.6475 34.6631C46.8545 34.4755 46.9853 34.2054 46.9853 33.9039C46.9853 33.3376 46.5263 32.8785 45.9599 32.8785H26.9098C26.8952 32.8785 26.8704 32.8785 26.8498 32.845C26.8291 32.8116 26.8402 32.7896 26.8468 32.7764L28.1144 30.2412C28.3724 30.3075 28.6412 30.3433 28.9163 30.3433C29.043 30.3433 29.171 30.3358 29.2998 30.3208L43.708 28.6257C45.5689 28.4067 47.0661 27.0253 47.4336 25.1878L49.1571 16.5699C49.2157 16.2766 49.1434 15.9724 48.9591 15.7368ZM43.7678 34.9296C44.411 34.9296 44.9342 35.4529 44.9342 36.096C44.9342 36.7393 44.411 37.2625 43.7678 37.2625C43.1245 37.2625 42.6013 36.7393 42.6013 36.096C42.6013 35.4528 43.1245 34.9296 43.7678 34.9296ZM28.4245 34.9296C29.0678 34.9296 29.591 35.4528 29.591 36.096C29.591 36.7393 29.0678 37.2625 28.4245 37.2625C27.7812 37.2625 27.258 36.7393 27.258 36.096C27.258 35.4528 27.7812 34.9296 28.4245 34.9296ZM25.91 20.8232L24.6249 16.3258L28.7245 16.5122L29.4353 20.8232H25.91ZM29.0602 28.2841C28.4885 28.3513 27.9601 27.9987 27.8023 27.446L26.4959 22.874H29.7734L30.6348 28.0988L29.0602 28.2841ZM35.0708 27.577L32.6739 27.859L31.852 22.8741H35.0708V27.577ZM35.0708 20.8232H31.5138L30.8187 16.6075L35.0708 16.8008V20.8232ZM40.2637 26.966L37.1216 27.3356V22.874H40.634L40.2637 26.966ZM40.8197 20.8232H37.1216V16.8939L41.1588 17.0774L40.8197 20.8232ZM45.4225 24.7858C45.2297 25.7494 44.4444 26.4742 43.4683 26.589L42.3449 26.7212L42.6932 22.8741H45.8047L45.4225 24.7858ZM46.215 20.8232H42.879L43.2095 17.1706L46.9119 17.3389L46.215 20.8232Z" fill="#0071B3"/>
</svg>
