<svg width="62" height="70" viewBox="0 0 62 70" fill="none" xmlns="http://www.w3.org/2000/svg">
<path d="M50.2776 29.5363C50.2679 29.5309 50.2589 29.524 50.2487 29.5192L32.4463 20.5283C32.167 20.3873 31.8743 20.2805 31.5747 20.2057V9.97841H33.5598C34.6509 9.97841 35.5391 9.09026 35.5391 7.99918V1.97923C35.5391 0.887611 34.6514 0 33.5598 0H27.5393C26.4483 0 25.5606 0.887611 25.5606 1.97923V7.99918C25.5606 9.09026 26.4483 9.97841 27.5393 9.97841H29.5245V20.2057C29.2254 20.2805 28.9327 20.3873 28.6529 20.5283L10.851 29.5187C10.8408 29.524 10.8318 29.5309 10.8216 29.5363C10.4531 29.6917 10.1941 30.0565 10.1941 30.4816V38.7243C10.1941 39.0218 10.2347 39.3123 10.3127 39.5889C10.2374 39.7315 10.1941 39.8939 10.1941 40.0664V48.3096C10.1941 48.6071 10.2347 48.8971 10.3127 49.1737C10.2374 49.3163 10.1941 49.4787 10.1941 49.6512V57.8944C10.1941 59.1009 10.8627 60.1882 11.9399 60.7324L30.0655 69.8862C30.2171 69.9621 30.3832 70 30.5493 70C30.7159 70 30.8831 69.9621 31.0358 69.8852L49.1598 60.7319C50.237 60.1882 50.9056 59.1009 50.9056 57.8944V49.6512C50.9056 49.4787 50.8629 49.3163 50.7871 49.1737C50.8645 48.8971 50.9056 48.6066 50.9056 48.3096V40.0664C50.9056 39.8939 50.8629 39.7315 50.7871 39.5884C50.8645 39.3117 50.9056 39.0218 50.9056 38.7243V30.4816C50.9056 30.0565 50.6466 29.6917 50.2776 29.5363ZM27.6109 2.05026H33.4888V7.92815H27.6109V2.05026ZM12.2444 41.7161L16.1451 43.6862C16.2936 43.761 16.4512 43.7968 16.6066 43.7968C16.9809 43.7968 17.342 43.5906 17.5225 43.2334C17.7778 42.7281 17.5754 42.1113 17.0696 41.856L12.8639 39.7321C12.4815 39.5387 12.2444 39.1531 12.2444 38.7248V32.1478L29.5245 40.8749V48.1462L21.1701 43.9271C20.6649 43.6718 20.0481 43.8748 19.7928 44.38C19.5375 44.8852 19.7404 45.5021 20.2457 45.7573L29.5245 50.4432V57.731L12.8639 49.3174C12.4815 49.1241 12.2438 48.7379 12.2438 48.3096V41.7161H12.2444ZM31.5747 40.8749L48.8554 32.1478V38.7248C48.8554 39.1531 48.6177 39.5393 48.2353 39.7321L31.5747 48.1462V40.8749ZM29.5245 22.3852V24.1257C29.5245 24.6918 29.9837 25.1506 30.5499 25.1506C31.116 25.1506 31.5747 24.6918 31.5747 24.1257V22.3852L47.6062 30.4816L30.5499 39.0955L13.493 30.4816L29.5245 22.3852ZM12.2444 57.8944V51.3009L29.5245 60.028V67.3163L12.8639 58.9022C12.4815 58.7089 12.2444 58.3233 12.2444 57.8944ZM48.2353 58.9022L31.5747 67.3163V60.028L39.3501 56.1016C39.8553 55.8463 40.0583 55.2295 39.803 54.7242C39.5477 54.2185 38.9309 54.0161 38.4257 54.2714L31.5747 57.731V50.4427L48.8554 41.7156V48.3096C48.8554 48.7379 48.6177 49.1241 48.2353 49.3169L42.5262 52.2003C42.021 52.4555 41.818 53.0718 42.0733 53.5776C42.2538 53.9349 42.6148 54.141 42.9892 54.141C43.1446 54.141 43.3022 54.1053 43.4506 54.0305L48.8554 51.3009V57.8944C48.8554 58.3233 48.6177 58.7089 48.2353 58.9022Z" fill="black"/>
<path d="M31.5747 30.6874V27.9536C31.5747 27.3875 31.1159 26.9287 30.5498 26.9287C29.9837 26.9287 29.5244 27.3875 29.5244 27.9536V30.6874C29.5244 31.2535 29.9837 31.7128 30.5498 31.7128C31.1159 31.7128 31.5747 31.2535 31.5747 30.6874Z" fill="black"/>
<path d="M43.8738 12.7152H44.2871V17.5645C44.2871 18.1306 44.7459 18.5894 45.312 18.5894C45.8786 18.5894 46.3374 18.1306 46.3374 17.5645V12.7152H46.7502C47.8413 12.7152 48.7295 11.8276 48.7295 10.7365V7.85956C48.7295 6.76847 47.8418 5.88086 46.7502 5.88086H43.8738C42.7827 5.88086 41.8945 6.76847 41.8945 7.85956V10.736C41.8951 11.8276 42.7827 12.7152 43.8738 12.7152ZM43.9453 7.93112H46.6792V10.665H43.9453V7.93112Z" fill="#FF5555"/>
<path d="M45.3125 20.0801C44.7459 20.0801 44.2871 20.5394 44.2871 21.1055V22.7552C44.2871 23.3213 44.7459 23.7801 45.3125 23.7801C45.8786 23.7801 46.3374 23.3213 46.3374 22.7552V21.1055C46.3374 20.5394 45.8786 20.0801 45.3125 20.0801Z" fill="#FF5555"/>
<path d="M59.1208 14.7939H57.4743C56.3832 14.7939 55.4956 15.6821 55.4956 16.7732V18.4192C55.4956 19.4424 56.2759 20.2868 57.2724 20.3882V25.8447C57.2724 26.4109 57.7312 26.8701 58.2978 26.8701C58.8639 26.8701 59.3227 26.4109 59.3227 25.8447V20.3882C60.3198 20.2868 61.1 19.4424 61.1 18.4192V16.7732C61.1 15.6821 60.2124 14.7939 59.1208 14.7939ZM57.5459 16.8447H59.0498V18.3481H57.5459V16.8447Z" fill="black"/>
<path d="M58.2976 28.793C57.7315 28.793 57.2722 29.2523 57.2722 29.8184V47.2261C57.2722 47.7922 57.7315 48.2515 58.2976 48.2515C58.8637 48.2515 59.323 47.7922 59.323 47.2261V29.8184C59.323 29.2523 58.8637 28.793 58.2976 28.793Z" fill="black"/>
<path d="M58.2976 50.9844C57.7315 50.9844 57.2722 51.4437 57.2722 52.0098V54.7436C57.2722 55.3097 57.7315 55.7685 58.2976 55.7685C58.8637 55.7685 59.323 55.3097 59.323 54.7436V52.0098C59.323 51.4437 58.8637 50.9844 58.2976 50.9844Z" fill="black"/>
<path d="M14.3493 12.7152H14.7622V17.5645C14.7622 18.1306 15.2215 18.5894 15.7876 18.5894C16.3537 18.5894 16.813 18.1306 16.813 17.5645V12.7152H17.2258C18.3169 12.7152 19.205 11.8276 19.205 10.7365V7.85956C19.205 6.76847 18.3169 5.88086 17.2258 5.88086H14.3493C13.2583 5.88086 12.3701 6.76847 12.3701 7.85956V10.736C12.3701 11.8276 13.2583 12.7152 14.3493 12.7152ZM14.4209 7.93112H17.1542V10.665H14.4209V7.93112Z" fill="#FF5555"/>
<path d="M15.7874 20.0801C15.2213 20.0801 14.762 20.5394 14.762 21.1055V22.7552C14.762 23.3213 15.2213 23.7801 15.7874 23.7801C16.3535 23.7801 16.8128 23.3213 16.8128 22.7552V21.1055C16.8128 20.5394 16.3535 20.0801 15.7874 20.0801Z" fill="#FF5555"/>
<path d="M3.62521 14.7939H1.9787C0.887611 14.7939 0 15.6821 0 16.7732V18.4192C0 19.4424 0.780264 20.2868 1.77682 20.3882V25.8447C1.77682 26.4109 2.23558 26.8701 2.80222 26.8701C3.36833 26.8701 3.82709 26.4109 3.82709 25.8447V20.3882C4.82365 20.2868 5.60391 19.4424 5.60391 18.4192V16.7732C5.60391 15.6821 4.7163 14.7939 3.62521 14.7939ZM2.05026 16.8447H3.55365V18.3481H2.05026V16.8447Z" fill="black"/>
<path d="M2.80225 28.793C2.23561 28.793 1.77686 29.2523 1.77686 29.8184V47.2261C1.77686 47.7922 2.23561 48.2515 2.80225 48.2515C3.36836 48.2515 3.82712 47.7922 3.82712 47.2261V29.8184C3.82712 29.2523 3.36836 28.793 2.80225 28.793Z" fill="black"/>
<path d="M2.80225 50.9844C2.23561 50.9844 1.77686 51.4437 1.77686 52.0098V54.7436C1.77686 55.3097 2.23561 55.7685 2.80225 55.7685C3.36836 55.7685 3.82712 55.3097 3.82712 54.7436V52.0098C3.82712 51.4437 3.36836 50.9844 2.80225 50.9844Z" fill="black"/>
</svg>
