<?xml version="1.0" encoding="utf-8"?>
<!-- Generator: Adobe Illustrator 23.0.1, SVG Export Plug-In . SVG Version: 6.00 Build 0)  -->
<svg version="1.1" id="Слой_1" xmlns="http://www.w3.org/2000/svg" xmlns:xlink="http://www.w3.org/1999/xlink" x="0px" y="0px"
	 width="70px" height="70px" viewBox="0 0 70 70" style="enable-background:new 0 0 70 70;" xml:space="preserve">
<style type="text/css">
	.st0{fill:#0071B3;}
</style>
<path class="st0" d="M69.3,64.5C69.3,64.5,69.3,64.4,69.3,64.5L69.3,64.5c0.1-0.2,0.2-0.2,0.2-0.3s0-0.2,0-0.3c0-0.1,0-0.2,0-0.2
	c0-0.2-0.1-0.2-0.1-0.3l-3.1-4.7c-0.1-0.2-0.4-0.4-0.6-0.4c-0.3-0.1-0.5,0-0.8,0.1c-0.2,0.1-0.4,0.4-0.4,0.6c-0.1,0.3,0,0.5,0.1,0.8
	l2.1,3.1H57V11.1c0-0.6-0.5-1-1-1H7.2V3.6l3.1,2.1c0.5,0.3,1.1,0.2,1.4-0.3C12,4.9,11.9,4.3,11.4,4L6.7,0.9c0,0,0,0-0.1,0
	S6.5,0.8,6.4,0.8s-0.2,0-0.3,0c-0.1,0-0.2,0-0.2,0c-0.1,0-0.2,0-0.2,0.1L1,4C0.8,4.1,0.6,4.4,0.6,4.6c-0.1,0.3,0,0.5,0.1,0.8
	s0.4,0.4,0.6,0.4c0.3,0.1,0.5,0,0.8-0.1l3.1-2.1v52l-0.3,0.1c-2.6,1.1-4.3,3.7-4.3,6.6c0,4,3.2,7.2,7.2,7.2c2.9,0,5.5-1.7,6.6-4.3
	l0.1-0.3h52L64.4,68c-0.3,0.5-0.2,1.1,0.3,1.4c0.4,0.3,1.1,0.2,1.4-0.3L69.3,64.5z M13,62.5c0,0.3,0,0.6-0.1,0.8
	c0,0.2,0,0.3-0.1,0.3c-0.6,2.3-2.7,3.9-5.1,3.9c-2.9,0-5.2-2.3-5.2-5.2c0-2.4,1.6-4.5,3.9-5.1c1.1-0.3,2.3-0.2,3.3,0.2
	c1.5,0.6,2.7,2,3,3.6v0.1C13,61.7,13,62,13,62.5L13,62.5z M27,62.9H15v-0.5c0-2.9-1.7-5.5-4.4-6.7c-0.9-0.4-1.8-0.6-2.8-0.6H7.2v-15
	H27V62.9z M41,62.9H29V39.1c0-0.6-0.5-1-1-1H7.2v-12H41V62.9z M55,62.9H43V25.1c0-0.6-0.5-1-1-1H7.2v-12H55V62.9z"/>
<rect x="33.2" y="31.8" class="st0" width="2" height="2"/>
<rect x="19.2" y="45.8" class="st0" width="2" height="2"/>
<rect x="47.2" y="17.8" class="st0" width="2" height="2"/>
</svg>
