<svg width="70" height="70" viewBox="0 0 70 70" fill="none" xmlns="http://www.w3.org/2000/svg">
<path d="M68.8333 63H63V40.5593L65.1966 42.0758C65.4615 42.2586 65.7902 42.3241 66.1047 42.2569C66.4202 42.1886 66.6931 41.9932 66.8595 41.7163L69.8331 36.7699C70.1498 36.2419 70.0017 35.5583 69.4947 35.2091L58.3333 27.5078V13.3164L62.9778 8.67196C63.6887 9.10091 64.5028 9.32935 65.3333 9.33333C67.9105 9.33333 70 7.24381 70 4.66667C70 2.08952 67.9105 0 65.3333 0C62.7562 0 60.6667 2.08952 60.6667 4.66667C60.6707 5.49723 60.8991 6.31128 61.328 7.02222L56 12.3503V25.9002L45.5 18.6587V10.9831L47.8111 8.67196C48.5221 9.10091 49.3361 9.32935 50.1667 9.33333C52.7438 9.33333 54.8333 7.24381 54.8333 4.66667C54.8333 2.08952 52.7438 0 50.1667 0C47.5895 0 45.5 2.08952 45.5 4.66667C45.504 5.49723 45.7324 6.31128 46.1614 7.02222L43.1667 10.0169V17.0483L35.6625 11.8729C35.2638 11.5977 34.7362 11.5977 34.3375 11.8729L26.8333 17.0483V10.0169L23.8386 7.02222C24.2676 6.31128 24.496 5.49723 24.5 4.66667C24.5 2.08952 22.4105 0 19.8333 0C17.2562 0 15.1667 2.08952 15.1667 4.66667C15.1667 7.24381 17.2562 9.33333 19.8333 9.33333C20.6639 9.32935 21.4779 9.10091 22.1889 8.67196L24.5 10.9831V18.6576L14 25.9002V12.3503L8.67196 7.02222C9.10091 6.31128 9.32935 5.49723 9.33333 4.66667C9.33333 2.08952 7.24381 0 4.66667 0C2.08952 0 0 2.08952 0 4.66667C0 7.24381 2.08952 9.33333 4.66667 9.33333C5.49723 9.32935 6.31128 9.10091 7.02222 8.67196L11.6667 13.3164V27.5078L0.50415 35.2079C-0.00284831 35.5577 -0.150391 36.2407 0.166911 36.7688L3.14168 41.7152C3.30802 41.9915 3.58032 42.1868 3.89534 42.2546C4.21037 42.323 4.53906 42.2575 4.80452 42.0746L7 40.5593V63H1.16667C0.522379 63 0 63.5224 0 64.1667V68.8333C0 69.4776 0.522379 70 1.16667 70H68.8333C69.4776 70 70 69.4776 70 68.8333V64.1667C70 63.5224 69.4776 63 68.8333 63ZM65.3333 2.33333C66.6219 2.33333 67.6667 3.37809 67.6667 4.66667C67.6667 5.95524 66.6219 7 65.3333 7C64.0448 7 63 5.95524 63 4.66667C63 3.37809 64.0448 2.33333 65.3333 2.33333ZM50.1667 2.33333C51.4552 2.33333 52.5 3.37809 52.5 4.66667C52.5 5.95524 51.4552 7 50.1667 7C48.8781 7 47.8333 5.95524 47.8333 4.66667C47.8333 3.37809 48.8781 2.33333 50.1667 2.33333ZM17.5 4.66667C17.5 3.37809 18.5448 2.33333 19.8333 2.33333C21.1219 2.33333 22.1667 3.37809 22.1667 4.66667C22.1667 5.95524 21.1219 7 19.8333 7C18.5448 7 17.5 5.95524 17.5 4.66667ZM2.33333 4.66667C2.33333 3.37809 3.37809 2.33333 4.66667 2.33333C5.95524 2.33333 7 3.37809 7 4.66667C7 5.95524 5.95524 7 4.66667 7C3.37809 7 2.33333 5.95524 2.33333 4.66667ZM4.5009 39.4485L2.73096 36.505L35 14.2507L67.269 36.505L65.4991 39.4485L35.6625 18.8729C35.2638 18.5977 34.7362 18.5977 34.3375 18.8729L4.5009 39.4485ZM9.33333 38.9506L35 21.2507L60.6667 38.9506V63H42V45.5C42 44.8557 41.4776 44.3333 40.8333 44.3333H29.1667C28.5224 44.3333 28 44.8557 28 45.5V63H9.33333V38.9506ZM39.6667 63H30.3333V46.6667H39.6667V63ZM67.6667 67.6667H2.33333V65.3333H67.6667V67.6667Z" fill="black"/>
<path d="M34.9999 42.0001C39.5105 42.0001 43.1666 38.344 43.1666 33.8334C43.1666 29.3228 39.5105 25.6667 34.9999 25.6667C30.4893 25.6667 26.8333 29.3228 26.8333 33.8334C26.8384 38.3417 30.4916 41.995 34.9999 42.0001ZM29.2834 35.0001H33.8333V39.55C31.5438 39.0783 29.755 37.2896 29.2834 35.0001ZM36.1666 39.55V35.0001H40.7165C40.2448 37.2896 38.4561 39.0783 36.1666 39.55ZM40.7165 32.6667H36.1666V28.1169C38.4561 28.5885 40.2448 30.3773 40.7165 32.6667ZM33.8333 28.1169V32.6667H29.2834C29.755 30.3773 31.5438 28.5885 33.8333 28.1169Z" fill="#0071B3"/>
<path d="M45.4999 58.3333H57.1666C57.8109 58.3333 58.3333 57.811 58.3333 57.1667V50.1667C58.3333 49.5224 57.8109 49 57.1666 49H45.4999C44.8556 49 44.3333 49.5224 44.3333 50.1667V57.1667C44.3333 57.811 44.8556 58.3333 45.4999 58.3333ZM46.6666 51.3333H55.9999V56H46.6666V51.3333Z" fill="black"/>
<path d="M24.5001 49H12.8334C12.1891 49 11.6667 49.5224 11.6667 50.1667V57.1667C11.6667 57.811 12.1891 58.3333 12.8334 58.3333H24.5001C25.1444 58.3333 25.6667 57.811 25.6667 57.1667V50.1667C25.6667 49.5224 25.1444 49 24.5001 49ZM23.3334 56H14.0001V51.3333H23.3334V56Z" fill="black"/>
</svg>
