<svg width="39" height="70" viewBox="0 0 39 70" fill="none" xmlns="http://www.w3.org/2000/svg">
<path d="M37.0322 64.5314V58.1964C37.0322 56.3571 35.7024 54.8238 33.9544 54.5044V53.9415C33.9544 52.1487 32.4959 50.6902 30.7031 50.6902H30.3442C29.6921 49.1313 29.228 47.5462 29.158 47.2167C26.8445 36.9595 34.654 28.6832 35.8146 19.5001C35.8856 18.9388 35.4877 18.4255 34.9259 18.3545C34.3646 18.2824 33.8508 18.6813 33.7803 19.2432C33.1955 23.8655 30.7351 28.3633 28.851 33.2761C29.8748 26.9507 31.7643 21.1562 30.0889 16.1894C28.2763 10.813 24.4156 8.3019 22.8396 7.47144C22.783 7.44153 22.767 7.35394 22.7707 7.28825C22.8791 5.30636 21.4371 3.73249 20.0032 2.38559C24.4476 2.78881 27.9511 4.63398 30.4371 7.888C32.1819 10.1722 33.242 12.4248 33.6789 14.7736C33.7819 15.3307 34.3181 15.6976 34.8741 15.5945C35.4306 15.4914 35.7985 14.9557 35.6949 14.3993C35.1983 11.7263 34.0116 9.18951 32.0665 6.64311C28.7917 2.35568 24.0252 0.203425 17.907 0.252024C17.2021 -0.141043 16.535 -0.0470487 15.852 0.345485C12.0126 0.667522 8.57005 1.72603 6.33929 2.56877C4.83537 3.13701 4.48503 5.10395 5.69735 6.16086L10.4457 10.2987C9.85874 10.8424 9.37114 11.4753 8.9957 12.1866C8.11557 13.8513 7.88432 14.442 7.05279 15.1838L2.57951 19.1764C1.22193 20.3887 1.32393 22.3562 2.20887 23.3565L4.90106 26.398C5.78867 27.5467 8.29394 28.1411 9.13562 27.0276C10.6791 24.9854 12.4441 23.866 14.3806 23.7004C14.951 23.6518 15.5176 23.4382 16.0367 23.1589C13.9988 27.2594 6.52247 31.5062 4.9032 40.3513C3.99476 45.317 5.77799 48.8146 7.2584 50.7505C5.76357 51.0432 4.6319 52.3623 4.6319 53.9415V54.5039C2.88392 54.8233 1.55411 56.3571 1.55411 58.1959V64.5309C0.631258 65.0174 0 65.9851 0 67.0986C0 68.6981 1.3015 70.0002 2.90154 70.0002H16.9008C17.4669 70.0002 17.9262 69.5409 17.9262 68.9748C17.9262 68.4081 17.4669 67.9494 16.9008 67.9494H2.90154C2.43211 67.9494 2.05079 67.5675 2.05079 67.0986C2.05079 66.6292 2.43211 66.2479 2.90154 66.2479H35.6853C36.1542 66.2479 36.5355 66.6292 36.5355 67.0986C36.5355 67.5675 36.1542 67.9494 35.6853 67.9494H21.686C21.1194 67.9494 20.6606 68.4081 20.6606 68.9748C20.6606 69.5409 21.1194 70.0002 21.686 70.0002H35.6853C37.2848 70.0002 38.5863 68.6981 38.5863 67.0986C38.5863 65.9851 37.9551 65.0179 37.0322 64.5314ZM7.06454 4.48765C8.76338 3.84517 11.2024 3.07025 13.9715 2.635C13.6751 3.73729 13.9235 4.87591 14.1056 5.7053C14.1889 6.08502 14.3144 6.65913 14.269 6.82896C14.1894 7.08905 14.0378 7.31763 13.8289 7.4896L12.0388 8.9668L7.04478 4.61475C7.00098 4.5763 7.00953 4.50848 7.06454 4.48765ZM6.92088 40.7209C8.77833 30.5695 19.2747 27.1221 18.5676 20.5746C18.4736 19.7057 17.3954 19.3436 16.7962 19.9876C16.2306 20.5959 15.0274 21.5866 14.2054 21.6571C11.7386 21.8686 9.5399 23.1856 7.66642 25.5739C7.32195 25.5712 6.70084 25.3849 6.52087 25.1403C6.47761 25.0815 3.82867 22.0929 3.78007 22.0379C3.49328 21.6155 3.56111 21.0494 3.9451 20.7065L8.41838 16.7139C9.57408 15.6821 9.94953 14.7699 10.8083 13.1453C11.4054 12.0157 11.8348 11.7941 15.1342 9.07148C15.6544 8.64263 16.0341 8.07332 16.2306 7.42604C16.4383 6.74458 16.2696 5.99797 16.1094 5.26737C15.7761 3.7421 15.6522 2.8059 16.9131 2.1004C17.6448 3.36345 20.8272 5.27859 20.7231 7.17503C20.6734 8.07386 21.1183 8.88242 21.8836 9.28564C24.9913 10.9231 27.4175 14.0879 28.3164 17.4097C30.4841 25.427 22.729 36.7224 28.131 50.6896H9.95166C9.01118 49.8239 5.87305 46.4444 6.92088 40.7209ZM6.68269 53.9415C6.68269 53.2793 7.22155 52.741 7.88379 52.741H30.7031C31.3648 52.741 31.9036 53.2793 31.9036 53.9415V54.4419H6.68269V53.9415ZM3.6049 58.1964C3.6049 57.257 4.36914 56.4927 5.30802 56.4927H33.2783C34.2172 56.4927 34.9814 57.257 34.9814 58.1964V64.1976H3.6049V58.1964Z" fill="black"/>
<path fill-rule="evenodd" clip-rule="evenodd" d="M6.49914 51C5.39661 51.521 4.6319 52.6434 4.6319 53.9415V54.5039C2.88392 54.8233 1.55411 56.3571 1.55411 58.1959V64.5309C0.631258 65.0174 0 65.9851 0 67.0986C0 68.6981 1.3015 70.0002 2.90154 70.0002H16.9008C17.4669 70.0002 17.9262 69.5409 17.9262 68.9748C17.9262 68.4081 17.4669 67.9494 16.9008 67.9494H2.90154C2.43211 67.9494 2.05079 67.5675 2.05079 67.0986C2.05079 66.6292 2.43211 66.2479 2.90154 66.2479H35.6853C36.1542 66.2479 36.5355 66.6292 36.5355 67.0986C36.5355 67.5675 36.1542 67.9494 35.6853 67.9494H21.686C21.1194 67.9494 20.6606 68.4081 20.6606 68.9748C20.6606 69.5409 21.1194 70.0002 21.686 70.0002H35.6853C37.2848 70.0002 38.5863 68.6981 38.5863 67.0986C38.5863 65.9851 37.9551 65.0179 37.0322 64.5314V58.1964C37.0322 56.3571 35.7024 54.8238 33.9544 54.5044V53.9415C33.9544 52.6436 33.19 51.521 32.0878 51H6.49914ZM7.88379 52.741C7.22155 52.741 6.68269 53.2793 6.68269 53.9415V54.4419H31.9036V53.9415C31.9036 53.2793 31.3648 52.741 30.7031 52.741H7.88379ZM5.30802 56.4927C4.36914 56.4927 3.6049 57.257 3.6049 58.1964V64.1976H34.9814V58.1964C34.9814 57.257 34.2172 56.4927 33.2783 56.4927H5.30802Z" fill="#FF5555"/>
</svg>
