<svg width="70" height="70" viewBox="0 0 70 70" fill="none" xmlns="http://www.w3.org/2000/svg">
<path d="M8.11683 30.3333V30.3334C8.12065 33.581 10.7525 36.2128 14.0001 36.2167H15.1168V38.45H14.0002C9.51964 38.4449 5.88857 34.8139 5.8835 30.3333L5.8835 17.5C5.8835 7.86266 13.6962 0.05 23.3335 0.05C32.9708 0.05 40.7835 7.86266 40.7835 17.5V30.3333C40.7784 34.8139 37.1473 38.4449 32.6668 38.45H31.5502V36.2167H32.6668C35.9145 36.2128 38.5463 33.581 38.5502 30.3334V17.5C38.5502 9.09601 31.7375 2.28333 23.3335 2.28333C14.9295 2.28333 8.11683 9.09601 8.11683 17.5V30.3333Z" fill="black" stroke="white" stroke-width="0.1"/>
<path d="M9.57231 54.9568L9.5723 54.9568C7.433 58.3273 7.67097 62.6845 10.1646 65.8019C10.3231 65.9999 10.4093 66.2462 10.4092 66.4998V66.4998V69.9498H8.17585V66.8976V66.8811L8.166 66.8678C5.30863 63.0193 5.11797 57.8081 7.68624 53.7609L8.51228 52.4591L10.3983 53.6562L9.57231 54.9568Z" fill="black" stroke="white" stroke-width="0.1"/>
<path d="M51.3832 23.3333V23.2833H51.3332H48.9999C45.8075 23.2796 43.2203 20.6924 43.2165 17.4999L43.2165 5.83336C43.2203 2.64094 45.8075 0.0537592 48.9999 0.05L64.1665 0.05C67.3589 0.0537745 69.9461 2.64097 69.9498 5.83339V17.4999C69.9461 20.6924 67.3589 23.2796 64.1664 23.2833H58.8162H58.7955L58.7808 23.298L53.2893 28.7895C53.0799 28.9989 52.796 29.1167 52.4998 29.1167L52.4997 29.1167C52.3529 29.1171 52.2077 29.0883 52.0722 29.0318L52.0721 29.0318C51.6549 28.8589 51.383 28.4516 51.3832 28V23.3333ZM53.6165 25.1837V25.3044L53.7019 25.219L57.5437 21.3772C57.7531 21.1678 58.037 21.05 58.3332 21.05H64.1665C66.1271 21.05 67.7165 19.4606 67.7165 17.5V5.83333C67.7165 3.8727 66.1271 2.28333 64.1665 2.28333H48.9998C47.0392 2.28333 45.4498 3.8727 45.4498 5.83333V17.5C45.4498 19.4606 47.0392 21.05 48.9998 21.05H52.4998C53.1165 21.05 53.6165 21.55 53.6165 22.1667V25.1837Z" fill="#0071B3" stroke="white" stroke-width="0.1"/>
<path d="M49.05 8.11683V5.8835H57.1167V8.11683H49.05Z" fill="#0071B3" stroke="white" stroke-width="0.1"/>
<path d="M59.55 8.11683V5.8835H64.1167V8.11683H59.55Z" fill="#0071B3" stroke="white" stroke-width="0.1"/>
<path d="M49.05 12.7833V10.55H64.1167V12.7833H49.05Z" fill="#0071B3" stroke="white" stroke-width="0.1"/>
<path d="M49.05 17.4498V15.2165H57.1167V17.4498H49.05Z" fill="#0071B3" stroke="white" stroke-width="0.1"/>
<path d="M38.1543 52.4591L38.9803 53.7609C41.5486 57.8081 41.358 63.0193 38.5006 66.8678L38.4907 66.8811V66.8976V69.9498H36.2574L36.2574 66.4998L36.2574 66.4998C36.2572 66.2462 36.3435 65.9999 36.5019 65.8019C38.9958 62.6849 39.2337 58.328 37.0943 54.958L36.2682 53.6562L38.1543 52.4591Z" fill="black" stroke="white" stroke-width="0.1"/>
<path d="M50.2267 47.5252L50.2325 47.5148L50.233 47.5029C50.4101 43.156 53.9829 39.7218 58.3333 39.7167H68.8333C69.45 39.7167 69.95 40.2167 69.95 40.8333C69.9449 45.3139 66.3139 48.945 61.8333 48.9501H61.3667H61.3369L61.3227 48.9762L49.9572 69.9501H47.4168L58.7518 49.0239L58.7918 48.9501H58.7078H52.0193H51.9899L51.9756 48.9758L46.476 58.8749C46.2792 59.2291 45.9061 59.4486 45.501 59.449C44.8843 59.4496 44.3839 58.95 44.3833 58.3334V49.0001C44.3795 45.7524 41.7476 43.1206 38.5001 43.1167H35.35H35.3251L35.3101 43.1366L24.2267 57.8366L24.2267 57.8367C24.0158 58.1178 23.6848 58.2834 23.3333 58.2834L23.3188 58.2834C23.3187 58.2834 23.3186 58.2834 23.3186 58.2834C22.9635 58.2786 22.632 58.1054 22.4255 57.8166L22.3848 57.8457L22.4255 57.8166L11.9197 43.1376L11.9047 43.1167H11.879H8.16667C4.91904 43.1206 2.28716 45.7524 2.28333 49V69.9501H0.05V49.0001C0.0550889 44.5195 3.68616 40.8885 8.16672 40.8834H15.1667C16.483 40.8834 17.55 39.8164 17.55 38.5001V35.7549V35.726L17.525 35.7116C13.9356 33.6392 11.7222 29.8113 11.7167 25.6667V20.6419V20.6419C11.7165 20.2093 11.9662 19.8156 12.3576 19.6313C12.3576 19.6313 12.3576 19.6313 12.3576 19.6313L32.1044 10.3401C32.1044 10.3401 32.1045 10.34 32.1045 10.34C32.6392 10.0918 33.2747 10.3021 33.556 10.8201C34.4694 12.5144 34.9483 14.4087 34.95 16.3334V25.6667C34.9445 29.8113 32.7311 33.6392 29.1417 35.7116L29.1167 35.726V35.7549V38.5001C29.1167 39.8164 30.1837 40.8834 31.5 40.8834H34.1833H34.2063L34.2113 40.8776L34.2187 40.8834H34.2358H38.4999C42.9805 40.8885 46.6116 44.5195 46.6167 49.0001V53.8312V54.0242L46.7104 53.8555L50.2267 47.5252ZM13.9787 21.3375L13.95 21.351V21.3827V25.6667C13.95 30.849 18.1511 35.0501 23.3333 35.0501C28.5156 35.0501 32.7167 30.849 32.7167 25.6667V16.3334C32.7167 15.1537 32.4943 13.9846 32.061 12.8874L32.0414 12.8378L31.9932 12.8605L13.9787 21.3375ZM23.3172 55.2265L23.3568 55.2818L23.3978 55.2275L27.1894 50.1968L27.2498 50.1167H27.1495H19.7575H19.6602L19.7168 50.1958L23.3172 55.2265ZM28.9147 47.8834H28.9396L28.9546 47.8635L32.4733 43.1968L32.5336 43.1167H32.4333H31.5C28.9503 43.1167 26.8833 41.0498 26.8833 38.5001V36.7956V36.7274L26.8183 36.7479C24.5499 37.4619 22.1168 37.4619 19.8483 36.7479L19.7833 36.7274V36.7956V38.5001C19.7833 41.0498 17.7164 43.1167 15.1667 43.1167H14.7432H14.6459L14.7025 43.1958L18.0427 47.8625L18.0576 47.8834H18.0833H28.9147ZM52.5677 46.6567L52.5553 46.7167H52.6167H61.8333C64.6282 46.7136 67.0364 44.7477 67.599 42.0101L67.6113 41.9501H67.55H58.3333C55.5384 41.9532 53.1303 43.919 52.5677 46.6567Z" fill="black" stroke="white" stroke-width="0.1"/>
</svg>
