<?xml version="1.0" encoding="utf-8"?>
<!-- Generator: Adobe Illustrator 23.0.1, SVG Export Plug-In . SVG Version: 6.00 Build 0)  -->
<svg version="1.1" id="Слой_1" xmlns="http://www.w3.org/2000/svg" xmlns:xlink="http://www.w3.org/1999/xlink" x="0px" y="0px"
	 width="70px" height="70px" viewBox="0 0 70 70" style="enable-background:new 0 0 70 70;" xml:space="preserve">
<style type="text/css">
	.st0{fill:#0071B3;}
</style>
<path class="st0" d="M51.5,29.3H22.3c-0.6,0-1,0.5-1,1s0.5,1,1,1h29.2c0.6,0,1-0.5,1-1S52.1,29.3,51.5,29.3z"/>
<path class="st0" d="M34,20H22.3c-0.6,0-1,0.5-1,1s0.5,1,1,1H34c0.6,0,1-0.5,1-1S34.6,20,34,20z"/>
<path class="st0" d="M51.5,38.7H22.3c-0.6,0-1,0.5-1,1c0,0.6,0.5,1,1,1h29.2c0.6,0,1-0.5,1-1C52.5,39.1,52.1,38.7,51.5,38.7z"/>
<path class="st0" d="M51.5,48H22.3c-0.6,0-1,0.5-1,1c0,0.6,0.5,1,1,1h29.2c0.6,0,1-0.5,1-1C52.5,48.4,52.1,48,51.5,48z"/>
<path class="st0" d="M51.3,57.2H22.2c-0.6,0-1,0.5-1,1c0,0.6,0.5,1,1,1h29.2c0.6,0,1-0.5,1-1C52.3,57.6,51.9,57.2,51.3,57.2z"/>
<path d="M7.2,5.6v52.9c0,3,2.5,5.5,5.5,5.5H13v0.3c0,3,2.5,5.5,5.5,5.5h38.9c3,0,5.5-2.5,5.5-5.5V22.9L57,17.1V5.6
	c0-3-2.5-5.5-5.5-5.5H12.6C9.6,0.2,7.2,2.6,7.2,5.6z M13,62L13,62c-2.1,0-3.8-1.7-3.8-3.8V6c0-2.1,1.7-3.8,3.8-3.8h38.2
	C53.3,2.2,55,3.9,55,6v9.1L45.9,6H18.5c-3,0-5.5,2.5-5.5,5.5V62z M57,67.8H18.8c-2.1,0-3.8-1.7-3.8-3.8V11.8C15,9.7,16.7,8,18.8,8
	h25.7v16.3h16.3V64C60.8,66.1,59.1,67.8,57,67.8z M59.4,22.3H46.5V9.4L59.4,22.3z"/>
</svg>
