<?xml version="1.0" encoding="utf-8"?>
<!-- Generator: Adobe Illustrator 23.0.1, SVG Export Plug-In . SVG Version: 6.00 Build 0)  -->
<svg version="1.1" id="Слой_1" xmlns="http://www.w3.org/2000/svg" xmlns:xlink="http://www.w3.org/1999/xlink" x="0px" y="0px"
	 viewBox="0 0 70 70" style="enable-background:new 0 0 70 70;" xml:space="preserve">
<style type="text/css">
	.st0{fill:#0071B3;}
</style>
<path d="M69.6,18V5.7c0-3-2.4-5.4-5.4-5.4H21.9c-0.6,0-1,0.5-1,1s0.5,1,1,1H60l-0.3,0.5c-0.5,0.8-0.8,1.8-0.8,2.8v17.9
	c0,0.6,0.5,1,1,1s1-0.5,1-1v-4.6h7.7C69.2,19.1,69.6,18.6,69.6,18z M67.6,16.9l0,0.1h-6.7V5.7c0-1.9,1.5-3.4,3.4-3.4
	s3.4,1.5,3.4,3.4V16.9z"/>
<path d="M68.3,56l-9.1-9.1l0.1-0.2c1-2.1,1.6-4.4,1.6-6.8c0-8.6-7-15.5-15.5-15.5s-15.5,7-15.5,15.5c0,1.9,0.3,3.8,1,5.5l0.1,0.2
	l-2,2l-0.2-0.2l-6.6-6.6c-0.4-0.4-1.1-0.4-1.4,0l-2.1,2.1V29.6c0-0.6-0.5-1-1-1s-1,0.5-1,1v15.4L4,57.4c-0.2,0.2-0.3,0.4-0.3,0.7
	s0.1,0.5,0.3,0.7c0.4,0.4,1.1,0.4,1.4,0l11-11v11h-6.4c-0.6,0-1,0.5-1,1v4.4c0,3,2.4,5.4,5.4,5.4h41c3,0,5.4-2.4,5.4-5.4v-2l0.6,0.6
	c0.9,0.9,2.1,1.3,3.3,1.3c1.3,0,2.5-0.5,3.4-1.4C70.1,60.9,70.1,57.8,68.3,56z M45.3,26.4c7.4,0,13.5,6,13.5,13.5s-6,13.5-13.5,13.5
	c-4.9,0-9.5-2.7-11.8-7L33.4,46l8.7-8.7v3.9c0,0.6,0.5,1,1,1c0.6,0,1-0.5,1-1v-6.6c0-0.6-0.5-1-1-1h-6.6c-0.6,0-1,0.5-1,1
	c0,0.6,0.5,1,1,1h4.3L32.5,44l-0.2-0.6c-0.3-1.2-0.5-2.4-0.5-3.6C31.9,32.4,37.9,26.4,45.3,26.4z M14.1,67.6c-1.7-0.2-3-1.6-3-3.3
	v-3.4h39v2c0,0,0,0.1,0,0.1l0,0l0,0c0,0,0,0.1,0,0.1v1.1c0,1,0.3,2,0.8,2.8l0.3,0.5L14.1,67.6z M58.9,64.3c0,1.9-1.5,3.4-3.4,3.4
	s-3.4-1.5-3.4-3.4v-1.1c0,0,0-0.1,0-0.1l0,0l0,0c0,0,0-0.1,0-0.1v-3c0-0.6-0.5-1-1-1H18.5V45.8l2.9-2.9l6.8,6.8
	c0.4,0.4,1.1,0.4,1.4,0l2.2-2.2l0.2,0.4c2.9,4.7,7.8,7.4,13.2,7.4c2.4,0,4.7-0.5,6.8-1.6l0.2-0.1l0.2,0.2l6.4,6.4V64.3z M66.8,61.3
	c-0.5,0.5-1.2,0.8-2,0.8c-0.8,0-1.4-0.3-2-0.8l-8.7-8.7l0.3-0.2c1.3-0.9,2.4-2.1,3.4-3.4l0.2-0.3l8.7,8.7
	C67.9,58.5,67.9,60.2,66.8,61.3z"/>
<path d="M54,38.8c-0.6,0-1,0.5-1,1c0,4.2-3.4,7.6-7.6,7.6c-0.6,0-1,0.5-1,1c0,0.6,0.5,1,1,1c5.3,0,9.7-4.3,9.7-9.7
	C55,39.3,54.5,38.8,54,38.8z"/>
<path class="st0" d="M1.4,25.9H35c0.6,0,1-0.5,1-1c0-0.6-0.5-1-1-1h-1.6v-9.5c0-0.6-0.5-1-1-1h-6.3c-0.6,0-1,0.5-1,1v9.5h-2.9V8.7
	c0-0.6-0.5-1-1-1h-6c-0.6,0-1,0.5-1,1v15.1h-2.9v-6.4c0-0.6-0.5-1-1-1h-6c-0.6,0-1,0.5-1,1v6.4H1.4c-0.6,0-1,0.5-1,1
	S0.8,25.9,1.4,25.9z M27.1,15.4h4.2v8.5h-4.2V15.4z M16.2,9.8h4v14.1h-4V9.8z M5.3,18.5h4v5.3h-4V18.5z"/>
<path class="st0" d="M46.1,7.7H35.5c-0.6,0-1,0.5-1,1s0.5,1,1,1h10.6c0.6,0,1-0.5,1-1S46.7,7.7,46.1,7.7z"/>
<path class="st0" d="M53.6,8L53.6,8c-0.2-0.2-0.5-0.3-0.7-0.3S52.4,7.8,52.2,8c-0.2,0.2-0.3,0.5-0.3,0.7s0.1,0.5,0.3,0.7
	c0.4,0.4,1.1,0.4,1.4,0c0.2-0.2,0.3-0.5,0.3-0.7S53.8,8.2,53.6,8z"/>
<path class="st0" d="M40.8,13.7h-2.2c-0.6,0-1,0.5-1,1s0.5,1,1,1h2.2c0.6,0,1-0.5,1-1S41.4,13.7,40.8,13.7z"/>
<path class="st0" d="M52.9,13.7h-6.8c-0.6,0-1,0.5-1,1s0.5,1,1,1h6.8c0.6,0,1-0.5,1-1S53.5,13.7,52.9,13.7z"/>
<path d="M2.1,60.8L2.1,60.8c-0.2-0.2-0.5-0.3-0.7-0.3c-0.3,0-0.5,0.1-0.7,0.3c-0.2,0.2-0.3,0.4-0.3,0.7c0,0.3,0.1,0.5,0.3,0.7
	c0.4,0.4,1.1,0.4,1.4,0c0.2-0.2,0.3-0.5,0.3-0.7S2.3,61,2.1,60.8z"/>
</svg>
