<svg width="70" height="68" viewBox="0 0 70 68" fill="none" xmlns="http://www.w3.org/2000/svg">
<path d="M0 58.6443C0 63.511 3.95423 67.4652 8.82097 67.4652H61.179C66.0458 67.4652 70 63.511 70 58.6443V1.1153C70 0.506952 69.493 0 68.8847 0H16.5267C15.9183 0 15.4114 0.506952 15.4114 1.1153V31.3499V31.7555H15.0058H1.1153C0.506952 31.7555 0 32.2625 0 32.8708V58.6443ZM17.6419 58.6443V2.63615V2.23059H18.0475H67.3638H67.7694V2.63615V58.6443C67.7694 62.274 64.8088 65.2346 61.179 65.2346H15.6547H14.7422L15.3505 64.5655C16.8308 62.9432 17.6419 60.8343 17.6419 58.6443ZM2.23059 34.3917V33.9861H2.63615H15.0058H15.4114V34.3917V58.6443C15.4114 62.274 12.4508 65.2346 8.82097 65.2346C5.19119 65.2346 2.23059 62.274 2.23059 58.6443V34.3917Z" fill="black"/>
<path d="M60.0637 14.5191H40.5562C39.9479 14.5191 39.4409 15.0261 39.4409 15.6344C39.4409 16.2427 39.9479 16.7497 40.5562 16.7497H60.0435C60.6518 16.7497 61.1588 16.2427 61.1588 15.6344C61.1588 15.0261 60.6721 14.5191 60.0637 14.5191Z" fill="black"/>
<path d="M60.0637 31.2283H40.5562C39.9479 31.2283 39.4409 31.7352 39.4409 32.3436C39.4409 32.9519 39.9479 33.4589 40.5562 33.4589H60.0435C60.6518 33.4589 61.1588 32.9519 61.1588 32.3436C61.1588 31.7352 60.6721 31.2283 60.0637 31.2283Z" fill="black"/>
<path d="M60.0637 47.9374H40.5562C39.9479 47.9374 39.4409 48.4444 39.4409 49.0527C39.4409 49.6611 39.9479 50.168 40.5562 50.168H60.0435C60.6518 50.168 61.1588 49.6611 61.1588 49.0527C61.1588 48.4444 60.6721 47.9374 60.0637 47.9374Z" fill="black"/>
<path d="M35.9938 7.56372C35.6896 7.56372 35.3854 7.70567 35.1624 7.92873L27.9028 15.8777L27.5987 16.2022L27.2945 15.8777L25.0436 13.4849C24.8408 13.2619 24.5367 13.1402 24.2325 13.1402C23.9486 13.1402 23.6647 13.2416 23.4619 13.4444C23.0158 13.8702 22.9955 14.5799 23.4214 15.0261L26.8078 18.6153C27.0106 18.8383 27.3148 18.96 27.6189 18.96H27.6392C27.9434 18.96 28.2476 18.8181 28.4503 18.595L36.8049 9.44958C37.2105 9.00347 37.1902 8.29373 36.7238 7.86789C36.5413 7.66511 36.2574 7.56372 35.9938 7.56372Z" fill="#FF5555"/>
<path d="M35.9938 25.0029C35.6896 25.0029 35.3854 25.1448 35.1624 25.3679L27.9028 33.3169L27.5987 33.6413L27.2945 33.3169L25.0436 30.9241C24.8408 30.701 24.5367 30.5793 24.2325 30.5793C23.9486 30.5793 23.685 30.6807 23.4619 30.8835C23.0158 31.3094 22.9955 32.0191 23.4214 32.4652L26.8078 36.0544C27.0106 36.2775 27.3148 36.3992 27.6189 36.3992H27.6392C27.9434 36.3992 28.2476 36.2572 28.4503 36.0342L36.8049 26.8887C37.2105 26.4426 37.1902 25.7329 36.7238 25.307C36.5413 25.1043 36.2574 25.0029 35.9938 25.0029Z" fill="#FF5555"/>
<path d="M35.9938 42.4218C35.6896 42.4218 35.3854 42.5638 35.1624 42.7868L27.9028 50.7358L27.5987 51.0603L27.2945 50.7358L25.0436 48.343C24.8206 48.12 24.5367 47.9983 24.2325 47.9983C23.9486 47.9983 23.685 48.0997 23.4619 48.3025C23.0158 48.7283 22.9955 49.438 23.4214 49.8842L26.8078 53.4734C27.0106 53.6964 27.3148 53.8181 27.6189 53.8181H27.6392C27.9434 53.8181 28.2476 53.6762 28.4503 53.4531L36.8049 44.3077C37.2105 43.8616 37.1902 43.1518 36.7238 42.726C36.5413 42.5435 36.2574 42.4218 35.9938 42.4218Z" fill="#FF5555"/>
</svg>
