<svg width="70" height="70" viewBox="0 0 70 70" fill="none" xmlns="http://www.w3.org/2000/svg">
<path d="M39.6667 34.8588C39.6667 32.69 38.1733 30.8793 36.1667 30.3578V18.5255C36.1667 17.8803 35.644 17.3588 35 17.3588C34.356 17.3588 33.8333 17.8803 33.8333 18.5255V30.3578C32.2012 30.7825 30.9237 32.06 30.499 33.6922H22.1667C21.5227 33.6922 21 34.2137 21 34.8588C21 35.504 21.5227 36.0255 22.1667 36.0255H30.499C31.0205 38.0333 32.8323 39.5255 35 39.5255C37.5737 39.5255 39.6667 37.4325 39.6667 34.8588ZM35 37.1922C33.7132 37.1922 32.6667 36.1457 32.6667 34.8588C32.6667 33.572 33.7132 32.5255 35 32.5255C36.2868 32.5255 37.3333 33.572 37.3333 34.8588C37.3333 36.1457 36.2868 37.1922 35 37.1922Z" fill="black"/>
<path d="M35.0007 11.5255C35.6446 11.5255 36.1673 11.004 36.1673 10.3588V9.19218C36.1673 8.54701 35.6446 8.02551 35.0007 8.02551C34.3567 8.02551 33.834 8.54701 33.834 9.19218V10.3588C33.834 11.004 34.3567 11.5255 35.0007 11.5255Z" fill="black"/>
<path d="M33.834 59.3589V60.5255C33.834 61.1707 34.3567 61.6922 35.0007 61.6922C35.6446 61.6922 36.1673 61.1707 36.1673 60.5255V59.3589C36.1673 58.7137 35.6446 58.1922 35.0007 58.1922C34.3567 58.1922 33.834 58.7137 33.834 59.3589Z" fill="black"/>
<path d="M60.6673 36.0255C61.3113 36.0255 61.834 35.504 61.834 34.8588C61.834 34.2136 61.3113 33.6921 60.6673 33.6921H59.5007C58.8567 33.6921 58.334 34.2136 58.334 34.8588C58.334 35.504 58.8567 36.0255 59.5007 36.0255H60.6673Z" fill="black"/>
<path d="M9.33268 33.6921C8.68868 33.6921 8.16602 34.2136 8.16602 34.8588C8.16602 35.504 8.68868 36.0255 9.33268 36.0255H10.4993C11.1433 36.0255 11.666 35.504 11.666 34.8588C11.666 34.2136 11.1433 33.6921 10.4993 33.6921H9.33268Z" fill="black"/>
<path d="M52.3232 18.7005C52.6219 18.7005 52.9205 18.5862 53.148 18.3587L53.9729 17.5338C54.429 17.0777 54.429 16.3403 53.9729 15.8842C53.5167 15.428 52.7794 15.428 52.3232 15.8842L51.4984 16.709C51.0422 17.1652 51.0422 17.9025 51.4984 18.3587C51.7259 18.5873 52.0245 18.7005 52.3232 18.7005Z" fill="black"/>
<path d="M16.8506 51.3578L16.0257 52.1826C15.5696 52.6388 15.5696 53.3761 16.0257 53.8323C16.2532 54.0598 16.5519 54.1741 16.8506 54.1741C17.1492 54.1741 17.4479 54.0598 17.6754 53.8323L18.5002 53.0075C18.9564 52.5513 18.9564 51.814 18.5002 51.3578C18.0441 50.9016 17.3056 50.9016 16.8506 51.3578Z" fill="black"/>
<path d="M18.5002 16.709L17.6754 15.8842C17.2192 15.428 16.4819 15.428 16.0257 15.8842C15.5696 16.3403 15.5696 17.0777 16.0257 17.5338L16.8506 18.3587C17.0781 18.5862 17.3767 18.7005 17.6754 18.7005C17.9741 18.7005 18.2727 18.5862 18.5002 18.3587C18.9564 17.9037 18.9564 17.1652 18.5002 16.709Z" fill="black"/>
<path d="M35 0C15.701 0 0 15.701 0 35C0 54.299 15.701 70 35 70C39.172 70 43.2588 69.2708 47.1497 67.8312C47.754 67.6083 48.062 66.9363 47.8392 66.3332C47.6152 65.7265 46.9455 65.4185 46.34 65.6437C42.7093 66.9853 38.8943 67.6667 35 67.6667C16.9878 67.6667 2.33333 53.0122 2.33333 35C2.33333 16.9878 16.9878 2.33333 35 2.33333C53.0122 2.33333 67.6667 16.9878 67.6667 35C67.6667 38.8967 66.9853 42.7105 65.6425 46.3388C65.4197 46.9443 65.7277 47.6152 66.332 47.838C66.9363 48.0655 67.6072 47.754 67.8312 47.1497C69.2708 43.2612 70 39.1743 70 35C70 15.701 54.299 0 35 0Z" fill="black"/>
<path d="M58.334 47.9512V46.6667C58.334 46.0215 57.8113 45.5 57.1673 45.5C56.5233 45.5 56.0006 46.0215 56.0006 46.6667V47.9558C54.7278 48.2148 53.5681 48.8903 52.713 49.9018C52.0001 50.7442 51.67 51.8222 51.7867 52.9387C51.9057 54.0808 52.4937 55.1402 53.4002 55.8448L56.0006 57.8667V64.211C54.6462 63.728 53.6673 62.4447 53.6673 60.9257C53.6673 60.2805 53.1447 59.759 52.5007 59.759C51.8567 59.759 51.334 60.2805 51.334 60.9257C51.334 63.742 53.3418 66.0987 56.0006 66.6412V67.6667C56.0006 68.3118 56.5233 68.8333 57.1673 68.8333C57.8113 68.8333 58.334 68.3118 58.334 67.6667V66.6377C59.6068 66.3787 60.7665 65.7032 61.6228 64.6917C62.3356 63.847 62.6646 62.769 62.548 61.6525C62.4278 60.5115 61.841 59.4533 60.9345 58.7498L58.334 56.7257V50.3813C59.6885 50.8643 60.6673 52.1477 60.6673 53.6667C60.6673 54.3118 61.19 54.8333 61.834 54.8333C62.478 54.8333 63.0006 54.3118 63.0006 53.6667C63.0006 50.8503 60.9928 48.4937 58.334 47.9512ZM59.5018 60.5908C59.909 60.907 60.1738 61.3842 60.2275 61.8952C60.2777 62.3735 60.14 62.832 59.8413 63.1843C59.4353 63.6638 58.9103 63.9998 58.334 64.2052V59.6808L59.5018 60.5908ZM54.8328 54.0027C54.4245 53.6853 54.1608 53.2082 54.1071 52.696C54.0581 52.2188 54.1947 51.7615 54.4933 51.408C54.8993 50.9285 55.4243 50.5925 56.0006 50.3872V54.9103L54.8328 54.0027Z" fill="#FF5555"/>
</svg>
