<svg id="nectarin_l.svg" data-name="nectarin l.svg" xmlns="http://www.w3.org/2000/svg" viewBox="0 0 135.85 40"><defs><style>.cls-1{fill:#fff;fill-opacity:0;}.cls-2{fill:#2678bd;}</style></defs><title>tl-nika-logo</title><rect id="Прямоугольник_1_копия" data-name="Прямоугольник 1 копия" class="cls-1" width="135.85" height="40"/><polygon class="cls-2" points="0.92 7.44 0.92 19.27 12.91 19.27 12.91 31.68 24.89 31.68 24.89 19.27 24.89 7.44 0.92 7.44"/><rect class="cls-2" x="25.49" y="7.44" width="11.98" height="11.83"/><polygon class="cls-2" points="37.48 19.86 25.49 19.86 25.49 31.68 37.48 31.68 49.46 31.68 49.46 19.86 37.48 19.86"/><polygon class="cls-2" points="59.89 16.84 62.7 16.84 62.7 24.09 64.73 24.09 64.73 16.84 67.54 16.84 67.54 14.99 59.89 14.99 59.89 16.84"/><polygon class="cls-2" points="73.76 14.99 71.73 14.99 71.73 24.09 78.36 24.09 78.36 22.29 73.76 22.29 73.76 14.99"/><polygon class="cls-2" points="92.18 22.91 85.81 14.99 85.16 14.99 85.16 24.09 85.82 24.09 85.82 16 92.32 24.09 92.84 24.09 92.84 14.99 92.18 14.99 92.18 22.91"/><rect class="cls-2" x="101.34" y="14.99" width="0.68" height="9.11"/><polygon class="cls-2" points="118.03 14.99 117.09 14.99 111.21 20.97 111.21 14.99 110.53 14.99 110.53 24.09 111.21 24.09 111.21 21.78 113.51 19.49 117.3 24.09 118.2 24.09 113.99 19.01 118.03 14.99"/><path class="cls-2" d="M129.44,15.67l2.43,5.26H127Zm-.31-.75-4.3,9.17h.71l1.17-2.55h5.45l1.17,2.55h.75l-4.29-9.17Z" transform="translate(0 0)"/></svg>