<svg id="toyota_l.svg" xmlns="http://www.w3.org/2000/svg" width="131" height="40" viewBox="0 0 131 40">
  <defs>
    <style>
      .cls-1 {
        fill: #fff;
        fill-opacity: 0;
      }

      .cls-2 {
        fill: #2678bd;
        fill-rule: evenodd;
      }
    </style>
  </defs>
  <rect id="Прямоугольник_1" data-name="Прямоугольник 1" class="cls-1" width="131" height="40"/>
  <path id="Фигура_1" data-name="Фигура 1" class="cls-2" d="M66.139,51.977c-0.472-3.661-2.167-6.579-3.862-6.579-1.862,0-3.418,2.588-4.029,6.579H57.943c-3.7-.771-5.7-1.844-5.7-3.221,0-1.982,4.306-3.524,9.724-3.524,5.557,0,10.169,1.541,10.169,3.524,0,1.377-2.306,2.753-6,3.221h0ZM167.525,50.6l2.167,5.946h-4.473l2.306-5.946h0Zm2.167-3.359h-4.334l-6.335,15.444h3.862l1.25-3.386h6.641l1.389,3.386H176l-6.308-15.443h0Zm-9.585,2.891h-4.918V62.686h-3.556V50.133h-4.779V47.242h13.253v2.891h0Zm-17.893,4.9c0,3.056-1.695,5.2-4.474,5.2s-4.473-1.982-4.473-5.2c0-3.056,1.834-5.2,4.612-5.2,2.64,0,4.335,2.147,4.335,5.2h0Zm3.862,0a8.267,8.267,0,1,0-16.532.138,8.1,8.1,0,0,0,8.2,8.121,8.252,8.252,0,0,0,8.336-8.259h0Zm-22.839,1.982v5.671H119.68V57.015l-6.168-9.773h4l3.862,6.414,4-6.414h4.168l-6.307,9.773h0Zm-13.754-1.982c0,3.056-1.833,5.2-4.473,5.2-2.778,0-4.612-1.982-4.612-5.2,0.139-3.056,1.834-5.2,4.612-5.2,2.64,0,4.473,2.147,4.473,5.2h0Zm3.724,0a8.267,8.267,0,1,0-8.336,8.259,8.24,8.24,0,0,0,8.336-8.259h0Zm-17.282-4.9H90.979V62.686H87.423V50.133H82.644V47.242H95.925v2.891h0ZM79.393,54.868c0-6.249-7.557-11.011-17.282-11.011C52.553,43.856,45,48.619,45,54.73c0,6.276,7.557,11.149,17.282,11.149,9.391,0,17.115-4.873,17.115-11.011h0ZM63.5,64.5c7.557-.44,13.42-4.872,13.42-10.075a7.3,7.3,0,0,0-2-5.065v0.165c0,2.285-3.39,4.432-8.335,5.038l-0.139.165h0c0,4.735-.945,7.956-2.945,9.772h0ZM49.469,49.224a7.516,7.516,0,0,0-2.029,5.038C47.44,59.63,53,63.9,60.888,64.5c-1.861-1.679-2.945-4.872-2.945-9.47v-0.3L57.8,54.565c-5.112-.743-8.5-2.753-8.5-5.038a0.277,0.277,0,0,1,.167-0.3h0ZM64.583,52.28V52.115c-0.472-2.753-1.222-4.13-2.473-4.13-1.084,0-2,1.542-2.473,4.13l0.306,0.165h4.64Zm0.306,2.588c-0.139,3.689-1.223,6.276-2.612,6.276-1.556,0-2.639-2.588-2.778-6.276h0.139c0.778,0,1.695.165,2.779,0.165A10.882,10.882,0,0,0,64.889,54.868Z" transform="translate(-45 -34)"/>
</svg>
