<svg width="27" height="27" viewBox="0 0 27 27" fill="none" xmlns="http://www.w3.org/2000/svg">
<circle cx="13.5" cy="13.5" r="12.5" stroke="white" stroke-width="2"/>
<path d="M10.8934 18.4047L10.8933 18.4047L7.58566 14.9919L7.58563 14.9919C7.07146 14.4617 7.07146 13.5982 7.58563 13.068L7.5857 13.0679C8.0962 12.5409 8.92245 12.5409 9.43329 13.0679L9.4333 13.0679L11.404 15.101L11.4041 15.1011C11.6315 15.3353 12.0028 15.3351 12.2303 15.1013L12.2306 15.101L17.5667 9.59529L17.5667 9.59525C18.0773 9.06827 18.9035 9.06822 19.4143 9.59529C19.6606 9.84935 19.8 10.1954 19.8 10.5573C19.8 10.9192 19.6606 11.2652 19.4143 11.5193L12.741 18.4047C12.2301 18.9318 11.4039 18.9317 10.8934 18.4047Z" fill="white" stroke="#2F3841" stroke-width="0.4"/>
</svg>
