<svg width="70" height="70" viewBox="0 0 70 70" fill="none" xmlns="http://www.w3.org/2000/svg">
<path d="M35.0124 0.00732459C21.008 0.00528335 8.35115 8.35294 2.83907 21.2269L2.40283 21.3715L2.57196 21.8789C-4.68553 39.7786 3.94149 60.1725 21.8411 67.43C26.0217 69.1251 30.4907 69.9952 35.002 69.9927C54.3279 69.9957 69.9971 54.3312 70 35.0053C70.0029 15.6794 54.3384 0.0100948 35.0124 0.00732459ZM62.4602 52.6428L60.6634 50.8471V46.6643C60.6654 46.4838 60.6255 46.3053 60.5467 46.1429L55.9977 37.0576V32.6672C55.9977 32.2773 55.803 31.9131 55.4786 31.6967L51.9793 29.3639C51.7051 29.1807 51.3661 29.1223 51.0462 29.2029L46.7608 30.2737L39.5628 27.185L38.5725 20.2471L41.3171 17.5037H47.2087L49.1916 20.4839C49.3706 20.7519 49.6528 20.934 49.9708 20.9866L56.9693 22.153C57.1568 22.1845 57.349 22.1692 57.5292 22.1087L63.9748 19.9602C69.3811 30.3348 68.8028 42.8127 62.4602 52.6428ZM57.6493 11.5013L55.7527 12.7657L50.4653 11.7077L47.0349 10.5658C46.8249 10.4945 46.5989 10.4855 46.384 10.5401L42.0472 11.6237L40.146 10.9904L41.555 8.17229H45.4999C45.6808 8.17243 45.8593 8.13059 46.0212 8.04981L50.0571 6.0319C52.8364 7.48264 55.3932 9.32442 57.6493 11.5013ZM22.2262 4.9448L25.0256 6.81107C25.1633 6.90264 25.3187 6.96387 25.4817 6.9907L31.1342 7.93317L30.5825 9.58366L27.6372 10.567C27.3735 10.6547 27.1497 10.8338 27.0062 11.072L23.6562 16.6545L18.2755 19.8832L10.3438 21.0158C9.76894 21.097 9.34145 21.5888 9.34072 22.1694V25.6686C9.34072 25.978 9.46378 26.2746 9.68248 26.4933L11.6736 28.4844V30.4883L6.82124 27.2526L5.06111 21.9722C8.40991 14.3205 14.5478 8.23178 22.2262 4.9448ZM18.9054 43.1883L13.6332 42.1327L11.6736 38.224V35.4829L16.0197 31.1368L17.6282 34.355C17.8257 34.7504 18.23 35.0002 18.6721 35H26.1769L29.3367 40.2664C29.5476 40.6174 29.9269 40.832 30.3363 40.8321H33.579L32.7625 44.9228L28.3464 49.3389C28.1273 49.5574 28.0039 49.854 28.0035 50.1635V53.0796L23.8044 56.2289C23.5107 56.4492 23.3378 56.7949 23.3378 57.1621V61.3752L21.8868 60.8946L19.8385 55.7717V44.3314C19.8387 43.7771 19.4485 43.2991 18.9054 43.1883ZM15.3991 61.1193C4.40135 52.8685 -0.249617 38.6124 3.76638 25.4634L4.73568 28.3701C4.81733 28.616 4.97859 28.8279 5.19408 28.972L11.0087 32.848L9.68248 34.1754C9.46378 34.3941 9.34072 34.6906 9.34072 35V38.4993C9.34057 38.6802 9.38242 38.8587 9.46319 39.0207L11.796 43.6864C11.9576 44.0086 12.259 44.2381 12.6125 44.3081L17.5115 45.2867V55.9957C17.5114 56.1438 17.5395 56.2908 17.5943 56.4284L19.9272 62.2605C20.0549 62.5791 20.3165 62.8254 20.6422 62.9335L24.1415 64.1C24.2584 64.1396 24.3809 64.16 24.5042 64.1606C25.1484 64.1606 25.6706 63.6384 25.6706 62.9942V57.7453L29.8698 54.596C30.1634 54.3756 30.3363 54.0299 30.3363 53.6628V50.6464L34.6603 46.3225C34.8228 46.1596 34.9337 45.9522 34.9787 45.7265L36.1451 39.8943C36.2714 39.2626 35.8617 38.6482 35.2299 38.5219C35.1548 38.5069 35.0786 38.4993 35.002 38.4993H30.9965L27.8367 33.2329C27.6259 32.882 27.2465 32.6673 26.8371 32.6672H19.393L17.389 28.6465C17.2212 28.3109 16.9022 28.0764 16.5317 28.0167C16.1614 27.9526 15.7833 28.0748 15.5204 28.3433L14.0064 29.8514V28.0015C14.0064 27.6921 13.8834 27.3955 13.6647 27.1768L11.6736 25.1857V23.1807L18.8377 22.1577C18.9916 22.1354 19.1396 22.0826 19.2728 22.0026L25.1049 18.5033C25.2685 18.405 25.4056 18.268 25.5039 18.1044L28.7815 12.642L31.8714 11.6109C32.2203 11.4965 32.4941 11.2228 32.6085 10.8737L33.775 7.37446C33.977 6.76281 33.6451 6.10305 33.0334 5.90097C32.977 5.88231 32.9191 5.86802 32.8605 5.85811L26.1092 4.73251L24.923 3.94167C32.2631 1.55254 40.2132 1.84823 47.3556 4.77566L45.2246 5.83944H40.8342C40.3899 5.83696 39.983 6.08716 39.7844 6.48447L37.4515 11.1502C37.1642 11.7267 37.3985 12.4271 37.975 12.7145C38.0241 12.739 38.0748 12.76 38.1269 12.7773L41.6262 13.9438C41.8361 14.0151 42.0621 14.0241 42.277 13.9694L46.6138 12.8858L49.7911 13.9438C49.8366 13.9601 49.8834 13.9726 49.9311 13.9811L55.7632 15.1475C56.0665 15.2093 56.382 15.1472 56.6392 14.9749L59.294 13.2042C60.6005 14.6595 61.7747 16.2283 62.8026 17.8921L57.0638 19.805L50.8502 18.7692L48.7973 15.6899C48.5821 15.3672 48.2205 15.1727 47.8327 15.1708H40.8342C40.5248 15.1708 40.2282 15.2939 40.0095 15.5126L36.5102 19.0119C36.2504 19.2715 36.1281 19.6385 36.1801 20.0022L37.3465 28.1671C37.4053 28.5709 37.6707 28.9145 38.0464 29.0734L46.2114 32.5727C46.4452 32.674 46.7062 32.6949 46.9532 32.6322L51.1185 31.5906L53.6648 33.2912V37.3329C53.6628 37.5134 53.7027 37.6918 53.7815 37.8543L58.3305 46.9395V51.33C58.3305 51.6394 58.4536 51.9359 58.6723 52.1546L61.1124 54.596C50.2905 69.0207 29.8238 71.9414 15.3991 61.1193Z" fill="white"/>
</svg>
