<svg width="70" height="70" viewBox="0 0 70 70" fill="none" xmlns="http://www.w3.org/2000/svg">
<path d="M12.2036 50.7966V37.9055C12.2036 36.2093 13.5836 34.8293 15.2798 34.8293C16.9733 34.8293 18.3523 36.2056 18.356 37.8986V37.9055V49.9048C18.356 50.4714 18.8147 50.9301 19.3814 50.9301C19.9475 50.9301 20.4068 50.4714 20.4068 49.9048V37.9162C20.4068 37.9124 20.4068 37.9092 20.4068 37.9055V24.0835C20.4068 23.5174 19.9475 23.0581 19.3814 23.0581C18.8147 23.0581 18.356 23.5174 18.356 24.0835V33.8066C17.4983 33.1614 16.4328 32.7785 15.2798 32.7785C12.4525 32.7785 10.1528 35.0782 10.1528 37.9055V50.7966C10.1528 52.6092 11.3112 54.7407 13.5954 57.1311C13.7967 57.3421 14.0664 57.4478 14.3367 57.4478C14.5914 57.4478 14.8467 57.3538 15.0454 57.1637C15.4544 56.7728 15.4694 56.1239 15.0779 55.7143C12.7019 53.2282 12.2036 51.6677 12.2036 50.7966Z" fill="black"/>
<path d="M67.1439 46.8075H53.1681C53.2023 45.7196 53.2194 44.613 53.2194 43.5054V33.3172C53.2194 30.4899 50.9192 28.1902 48.0924 28.1902C46.8929 28.1902 45.788 28.6041 44.9137 29.2968C44.4389 26.9576 42.3663 25.192 39.8893 25.192C38.528 25.192 37.2884 25.725 36.3699 26.5934C35.5693 24.8022 33.7711 23.5514 31.6862 23.5514C30.5326 23.5514 29.4672 23.9338 28.61 24.5789V18.8068H34.3586C36.0542 18.8068 37.4337 17.4279 37.4337 15.7323V3.07457C37.4337 1.37947 36.0542 0 34.3591 0H3.0751C1.37947 0 0 1.37947 0 3.07457V15.7323C0 17.4279 1.37947 18.8068 3.0751 18.8068H18.3561V19.6768C18.3561 20.2435 18.8148 20.7022 19.3815 20.7022C19.9476 20.7022 20.4069 20.2435 20.4069 19.6768V11.7989C20.4069 10.1028 21.7869 8.72276 23.483 8.72276C25.1792 8.72276 26.5592 10.1028 26.5592 11.7989V28.6677V28.6784V35.1971C26.5592 35.7637 27.018 36.2225 27.5846 36.2225C28.1507 36.2225 28.61 35.7637 28.61 35.1971V28.6885C28.61 28.6853 28.61 28.6816 28.61 28.6784C28.61 26.9817 29.99 25.6022 31.6862 25.6022C33.3823 25.6022 34.7623 26.9817 34.7623 28.6784V30.3083V30.319V35.7076C34.7623 36.2737 35.2211 36.733 35.7877 36.733C36.3538 36.733 36.8131 36.2737 36.8131 35.7076V30.3297C36.8131 30.3259 36.8131 30.3222 36.8131 30.319C36.8131 28.6228 38.1931 27.2428 39.8893 27.2428C41.5855 27.2428 42.9655 28.6228 42.9655 30.319V33.3065V33.3172V36.9669C42.9655 37.533 43.4242 37.9923 43.9909 37.9923C44.557 37.9923 45.0163 37.533 45.0163 36.9669V33.3279C45.0163 33.3241 45.0163 33.3209 45.0163 33.3172C45.0163 31.621 46.3963 30.241 48.0924 30.241C49.7886 30.241 51.1686 31.621 51.1686 33.3172V43.5054C51.1686 44.6141 51.151 45.7207 51.1168 46.808H35.423C33.848 46.808 32.5668 48.0892 32.5668 49.6642V62.7587C32.5668 64.3336 33.848 65.6149 35.423 65.6149H48.8225C48.6569 66.3876 48.4807 67.1679 48.2943 67.9498H23.271L21.6689 61.4359C21.6074 61.1859 21.4542 60.968 21.2395 60.826C21.2261 60.8174 19.8712 59.917 18.2124 58.5696C17.7729 58.2123 17.1272 58.279 16.7699 58.7186C16.4132 59.1581 16.4794 59.8038 16.9195 60.1611C18.1734 61.18 19.249 61.9459 19.7713 62.3074L21.4713 69.2197C21.5839 69.678 21.9952 70.0005 22.4667 70.0005H49.1013C49.5734 70.0005 49.9841 69.678 50.0967 69.2197C50.3937 68.0133 50.6693 66.8042 50.9187 65.6149H52.5208C53.0875 65.6149 53.5462 65.1556 53.5462 64.5895C53.5462 64.0228 53.0875 63.5641 52.5208 63.5641H50.117C50.093 63.563 50.0695 63.563 50.046 63.5641H35.423C34.9792 63.5641 34.6176 63.2025 34.6176 62.7587V49.6642C34.6176 49.2198 34.9792 48.8588 35.423 48.8588H67.1439C67.5882 48.8588 67.9492 49.2198 67.9492 49.6642V62.7587C67.9492 63.2025 67.5882 63.5641 67.1439 63.5641H56.8964C56.3297 63.5641 55.871 64.0228 55.871 64.5895C55.871 65.1556 56.3297 65.6149 56.8964 65.6149H67.1439C68.7188 65.6149 70 64.3336 70 62.7587V49.6642C70 48.0887 68.7188 46.8075 67.1439 46.8075ZM23.483 6.67198C20.6557 6.67198 18.3561 8.97163 18.3561 11.7989V16.7561H3.0751C2.51007 16.7561 2.05078 16.2968 2.05078 15.7323V3.07457C2.05078 2.51007 2.51007 2.05078 3.0751 2.05078H34.3591C34.9236 2.05078 35.3829 2.51007 35.3829 3.07457V15.7323C35.3829 16.2968 34.9236 16.7561 34.3591 16.7561H28.61V11.7989C28.61 8.97163 26.3098 6.67198 23.483 6.67198Z" fill="black"/>
<path d="M42.0356 52.6177H60.5317C61.0984 52.6177 61.5571 52.1589 61.5571 51.5923C61.5571 51.0262 61.0984 50.5669 60.5317 50.5669H42.0356C41.469 50.5669 41.0103 51.0262 41.0103 51.5923C41.0103 52.1589 41.469 52.6177 42.0356 52.6177Z" fill="#0071B3"/>
<path d="M15.2295 5.21533H4.83887C4.27223 5.21533 3.81348 5.67462 3.81348 6.24073C3.81348 6.80736 4.27223 7.26612 4.83887 7.26612H15.2295C15.7956 7.26612 16.2549 6.80736 16.2549 6.24073C16.2549 5.67462 15.7956 5.21533 15.2295 5.21533Z" fill="#0071B3"/>
<path d="M15.2295 10.2739H4.83887C4.27223 10.2739 3.81348 10.7332 3.81348 11.2993C3.81348 11.866 4.27223 12.3247 4.83887 12.3247H15.2295C15.7956 12.3247 16.2549 11.866 16.2549 11.2993C16.2549 10.7332 15.7956 10.2739 15.2295 10.2739Z" fill="#0071B3"/>
<path d="M42.0356 57.2363H60.5317C61.0984 57.2363 61.5571 56.777 61.5571 56.2109C61.5571 55.6448 61.0984 55.1855 60.5317 55.1855H42.0356C41.469 55.1855 41.0103 55.6448 41.0103 56.2109C41.0103 56.777 41.469 57.2363 42.0356 57.2363Z" fill="#0071B3"/>
<path d="M42.0356 61.855H60.5317C61.0984 61.855 61.5571 61.3962 61.5571 60.8296C61.5571 60.2635 61.0984 59.8042 60.5317 59.8042H42.0356C41.469 59.8042 41.0103 60.2635 41.0103 60.8296C41.0103 61.3962 41.469 61.855 42.0356 61.855Z" fill="#0071B3"/>
</svg>
