<?xml version="1.0" encoding="utf-8"?>
<!-- Generator: Adobe Illustrator 23.0.1, SVG Export Plug-In . SVG Version: 6.00 Build 0)  -->
<svg version="1.1" id="Слой_1" xmlns="http://www.w3.org/2000/svg" xmlns:xlink="http://www.w3.org/1999/xlink" x="0px" y="0px"
	 width="70px" height="70px" viewBox="0 0 70 70" style="enable-background:new 0 0 70 70;" xml:space="preserve">
<style type="text/css">
	.st0{fill:#0071B3;}
</style>
<path class="st0" d="M35.1,8.6c-0.6,0-1,0.5-1,1c0,0.6,0.5,1,1,1c0.6,0,1-0.5,1-1S35.7,8.6,35.1,8.6z"/>
<path class="st0" d="M41.2,19.8l-7.5,7.5l-3.4-3.4c-0.4-0.4-1-0.4-1.4,0c-0.4,0.4-0.4,1,0,1.4l4.1,4.1c0.4,0.4,1.1,0.4,1.4,0
	l8.2-8.2c0.4-0.4,0.4-1,0-1.4C42.3,19.4,41.6,19.4,41.2,19.8z"/>
<path class="st0" d="M30.1,9.7c-0.1,0-0.2-0.1-0.4-0.1c-0.1,0-0.3,0-0.4,0.1c-5.4,2.3-8.9,7.6-8.9,13.5c0,8.1,6.6,14.7,14.7,14.7
	s14.7-6.6,14.7-14.7c0-5.9-3.5-11.2-8.9-13.5c-0.3-0.1-0.5-0.1-0.8,0c-0.3,0.1-0.5,0.3-0.6,0.5c-0.1,0.2-0.1,0.5,0,0.8
	c0.1,0.3,0.3,0.5,0.5,0.6c4.7,2,7.7,6.6,7.7,11.6c0,7-5.7,12.7-12.7,12.7c-7,0-12.7-5.7-12.7-12.7c0-5.1,3-9.6,7.7-11.6
	c0.2-0.1,0.4-0.3,0.5-0.6c0.1-0.3,0.1-0.5,0-0.8C30.6,10,30.4,9.8,30.1,9.7z"/>
<path class="st0" d="M46.4,49.8c1-3.5,3.1-7.7,5.3-10.8c0.3-0.5,0.7-1.1,1.2-1.8c2-2.7,5-6.7,5.1-13c0.1-6.4-2.3-12.5-6.8-17.1
	c-4.3-4.4-9.9-6.8-15.8-6.8l-0.2,0c-12.6,0-22.7,9.9-22.9,22.4c-0.1,7.5,3.9,12.9,5.6,15.2c0.4,0.5,0.6,0.8,0.7,1.1
	c2.2,3,4.2,7.3,5.2,10.7c0.3,1,0.9,1.8,1.8,2.2l0.2,0.1v8.3c0,1.2,0.5,2.2,1.4,3l0.1,0.1l0,0.1c0.8,3.6,4,6.1,7.6,6.1
	c3.7,0,6.8-2.5,7.6-6.1l0-0.1l0.1-0.1c0.9-0.7,1.4-1.8,1.4-3v-8.3l0.2-0.1C45.4,51.5,46.1,50.8,46.4,49.8z M40.2,64.7
	c-1,1.8-3,2.9-5,2.9c-2.1,0-4-1.1-5-2.9l-0.3-0.5h10.7L40.2,64.7z M42.3,60.4c0,0.9-0.8,1.7-1.7,1.7H29.7c-0.9,0-1.7-0.8-1.7-1.7
	v-2.1h14.4V60.4z M42.3,56.3H27.9v-3.8h14.4V56.3z M44.4,49.2c-0.2,0.7-0.9,1.2-1.6,1.2H27.4c-0.8,0-1.4-0.5-1.6-1.2
	c-1.1-3.7-3.3-8.1-5.6-11.4l0,0c-0.1-0.2-0.4-0.6-0.7-1c-1.7-2.3-5.4-7.2-5.2-14c0.2-11.5,9.3-20.4,20.8-20.4l0.2,0
	c5.4,0.1,10.5,2.3,14.4,6.2c4.1,4.2,6.3,9.7,6.2,15.6c-0.1,5.6-2.9,9.3-4.7,11.8c-0.5,0.7-1,1.3-1.3,1.8
	C47.7,41.1,45.5,45.6,44.4,49.2z"/>
</svg>
