<svg id="widgety_l.svg" xmlns="http://www.w3.org/2000/svg" width="91" height="40" viewBox="0 0 91 40">
  <defs>
    <style>
      .cls-1 {
        fill: #fff;
        fill-opacity: 0;
      }

      .cls-2 {
        fill: #2678bd;
        fill-rule: evenodd;
      }
    </style>
  </defs>
  <rect id="Прямоугольник_1_копия_9" data-name="Прямоугольник 1 копия 9" class="cls-1" width="91" height="40"/>
  <path id="Фигура_10" data-name="Фигура 10" class="cls-2" d="M1571.55,49.936a0.261,0.261,0,0,1-.35.233,0.694,0.694,0,0,0-.85.528c-0.4,1.212-.78,2.43-1.16,3.648-0.42,1.33-.82,2.663-1.24,3.994-0.64,2.057-1.29,4.112-1.93,6.169a15.261,15.261,0,0,1-.52,1.64,2.6,2.6,0,0,1-3.02,1.805c-0.27-.041-0.34-0.145-0.26-0.4a8.262,8.262,0,0,0,.29-1.084,0.3,0.3,0,0,1,.34-0.271,0.782,0.782,0,0,0,.9-0.631c0.41-1.285.81-2.571,1.17-3.868a1.421,1.421,0,0,0-.12-0.743c-0.79-2.549-1.6-5.1-2.4-7.643-0.29-.927-0.59-1.852-0.88-2.781a0.392,0.392,0,0,0-.44-0.316c-0.8,0-.8,0-0.81-0.787,0-.234.01-0.468,0-0.7a0.243,0.243,0,0,1,.3-0.289c0.64,0.006,1.29,0,1.94,0a0.336,0.336,0,0,1,.36.3c0.54,1.734,1.09,3.465,1.63,5.2q0.675,2.2,1.35,4.4a0.692,0.692,0,0,0,.1.133,2.589,2.589,0,0,0,.15-0.321q0.825-2.574,1.66-5.15c0.35-1.081.68-2.171,1.08-3.234a2.488,2.488,0,0,1,2.89-1.342c0.21,0.061.26,0.132,0.18,0.347a12.058,12.058,0,0,0-.36,1.173h0Zm-18.11,11.638h0a3.462,3.462,0,0,1-1.38-2.818c-0.02-4.307-.01-8.614,0-12.92a0.827,0.827,0,0,0-.86-1.038,0.251,0.251,0,0,1-.26-0.3q0.015-.613,0-1.228a0.221,0.221,0,0,1,.27-0.265,2.706,2.706,0,0,1,2.65,2.629c0,0.843-.01,1.685-0.02,2.527a0.232,0.232,0,0,0,.29.28c0.59-.007,1.18.008,1.76-0.011a0.274,0.274,0,0,1,.35.317c-0.01.386-.02,0.773,0,1.158,0.01,0.233-.08.3-0.32,0.3-0.6-.013-1.2,0-1.79-0.009a0.237,0.237,0,0,0-.29.287V54.73h0.03c0,1.346.02,2.692,0,4.037a1.969,1.969,0,0,0,1.8,1.872,3.448,3.448,0,0,0,1.23-.135,1.565,1.565,0,0,0,1.19-1.574c0-.249.07-0.335,0.32-0.325,0.41,0.014.82,0.013,1.22,0a0.247,0.247,0,0,1,.31.305,3.533,3.533,0,0,1-2.24,3.194,4.089,4.089,0,0,1-4.26-.529h0Zm-3.75-5.478h0c-1.86-.013-3.72-0.006-5.57-0.006s-3.72.006-5.57,0c-0.3,0-.37.062-0.31,0.361a5.148,5.148,0,0,0,4.22,4.083,4.767,4.767,0,0,0,3.65-.95c0.2-.15.3-0.157,0.46,0.033,0.25,0.309.53,0.6,0.81,0.894,0.14,0.147.13,0.244-.04,0.367a7.319,7.319,0,0,1-3.25,1.388,6.809,6.809,0,0,1-7.48-4.836,7.147,7.147,0,0,1,2.86-8.027,6.785,6.785,0,0,1,7.61.194,7.185,7.185,0,0,1,2.36,2.988,7.479,7.479,0,0,1,.42,1.551c0.1,0.526.12,1.065,0.18,1.6,0.03,0.268-.06.37-0.35,0.367h0Zm-1.6-2.039h0a5.271,5.271,0,0,0-1.15-2.23,4.914,4.914,0,0,0-3.98-1.759,4.778,4.778,0,0,0-3.87,2.152,5.792,5.792,0,0,0-.86,2.171h2.39q3.6,0,7.18,0c0.26,0,.37-0.037.29-0.337h0ZM1535.52,50.2a0.363,0.363,0,0,0,.22-0.232c0.02-.432.01-0.866,0.01-1.3a0.208,0.208,0,0,0-.27-0.238,2.79,2.79,0,0,0-2.02.994,0.316,0.316,0,0,1-.52.077,6.1,6.1,0,0,0-5.28-.777,6.852,6.852,0,0,0-4.98,6.2,6.751,6.751,0,0,0,2.7,6.121,6.466,6.466,0,0,0,6.82.863c0.25-.1.48-0.233,0.73-0.359,0,0.445.04,0.842,0,1.232a3.548,3.548,0,0,1-1.33,2.663,4.026,4.026,0,0,1-4.07.242,4.923,4.923,0,0,1-2.36-2.125,0.473,0.473,0,0,0-.33-0.209c-0.47.211-.93,0.459-1.4,0.7a1.17,1.17,0,0,0,.04.153,6.732,6.732,0,0,0,7.05,3.583,4.5,4.5,0,0,0,3.39-2.382,7.157,7.157,0,0,0,.81-3.385c0.01-3.6,0-7.209,0-10.814a0.811,0.811,0,0,1,.79-1h0Zm-2.56,5.277h0.02c0,1.194.01,2.387-.01,3.58a0.672,0.672,0,0,1-.24.433,4.905,4.905,0,0,1-7.41-1.105,5.367,5.367,0,0,1,1.01-6.942,4.986,4.986,0,0,1,6.43.069,0.648,0.648,0,0,1,.19.455c0.02,1.17.01,2.34,0.01,3.51h0Zm-11.35,6.946h0a2.531,2.531,0,0,1-2.59-1.234,9.448,9.448,0,0,1-.95.668,5.944,5.944,0,0,1-3.48.6,6.44,6.44,0,0,1-5.83-5.233,7.826,7.826,0,0,1,.59-5.343,5.907,5.907,0,0,1,5.31-3.44,6.654,6.654,0,0,1,3.94,1V48.983c0-1.124.01-2.248,0.01-3.372a0.711,0.711,0,0,0-.69-0.816,0.28,0.28,0,0,1-.3-0.337c0.02-.4.01-0.8,0-1.194,0-.192.05-0.278,0.27-0.258a2.569,2.569,0,0,1,2.55,2.611c0,4.636-.01,9.272,0,13.908a1.711,1.711,0,0,0,.07.552,0.679,0.679,0,0,0,.79.5c0.62,0.008.62,0.008,0.63,0.624,0,0.3-.01.609,0,0.913,0.01,0.23-.09.3-0.32,0.3h0Zm-2.99-4.463h0c-0.06-.791-0.01-1.591-0.01-2.387,0-.878.01-1.756-0.01-2.634a2.359,2.359,0,0,0-1.27-2.176,4.631,4.631,0,0,0-3.61-.329,5.067,5.067,0,0,0-3.5,5.275,5.242,5.242,0,0,0,6.45,4.854,2.849,2.849,0,0,0,1.95-2.6h0Zm-11.17,4.462h0q-1.455-.014-2.91,0a0.284,0.284,0,0,1-.35-0.351,8.941,8.941,0,0,0,.01-1.157c-0.01-.239.05-0.339,0.31-0.335,0.53,0.006.52-.005,0.52-0.5q-0.015-4.458,0-8.917a0.747,0.747,0,0,0-.7-0.925,0.32,0.32,0,0,1-.31-0.4,7.9,7.9,0,0,0,0-1.088c-0.01-.262.12-0.321,0.36-0.3a2.574,2.574,0,0,1,2.46,2.688c-0.01,1.486,0,2.973,0,4.459h-0.01c0,1.568,0,3.136-.01,4.7,0,0.252.11,0.289,0.32,0.291,0.62,0.005.62,0.012,0.62,0.622,0,0.292-.01.585,0.01,0.877a0.266,0.266,0,0,1-.32.337h0Zm-4.91-16.662h0c-0.72-.011-0.7,0-0.84.677-0.32,1.572-.65,3.141-0.98,4.712-0.41,2.018-.81,4.038-1.24,6.052a25.414,25.414,0,0,1-.79,3.126,2.993,2.993,0,0,1-2.86,2.094,3.063,3.063,0,0,1-3.11-1.9,14.515,14.515,0,0,1-.62-2.076c-0.05-.165-0.08-0.334-0.12-0.5l-0.11,0-0.18,1.018a4.73,4.73,0,0,1-1.15,2.455,3.2,3.2,0,0,1-5.36-1.1,26.232,26.232,0,0,1-.79-3.164c-0.3-1.349-.56-2.7-0.84-4.057-0.45-2.2-.91-4.4-1.36-6.6,0-.023-0.01-0.046-0.01-0.069-0.16-.663-0.16-0.672-0.86-0.664a0.251,0.251,0,0,1-.31-0.308c0.01-.4.02-0.8,0-1.194a0.243,0.243,0,0,1,.3-0.308c0.98,0.011,1.96.009,2.95,0a0.237,0.237,0,0,1,.29.285q-0.015.614,0,1.229a0.24,0.24,0,0,1-.32.288c-0.34-.04-0.36.019-0.29,0.341,0.2,0.891.38,1.786,0.56,2.68,0.5,2.454.99,4.909,1.49,7.362,0.23,1.077.45,2.153,0.71,3.222a1.633,1.633,0,0,0,1.01,1.2,1.483,1.483,0,0,0,1.97-1.125c0.26-.983.47-1.981,0.68-2.977,0.24-1.133.45-2.272,0.68-3.407a0.812,0.812,0,0,1,.83-0.68,0.834,0.834,0,0,1,.96.661c0.3,1.432.58,2.868,0.88,4.3,0.14,0.665.27,1.332,0.45,1.984a2.278,2.278,0,0,0,.45.828,1.336,1.336,0,0,0,2.21-.131,6.639,6.639,0,0,0,.66-1.837c0.42-1.873.78-3.758,1.16-5.639q0.645-3.235,1.3-6.469c0.06-.288-0.01-0.37-0.3-0.319-0.23.042-.32-0.053-0.32-0.289,0.02-.409.02-0.82,0.01-1.229-0.01-.223.08-0.279,0.29-0.278,0.98,0.008,1.97.008,2.95,0,0.23,0,.33.061,0.32,0.3a11.888,11.888,0,0,0,0,1.194,0.276,0.276,0,0,1-.35.315h0Zm68.5,14.8a0.907,0.907,0,0,0-.95.918,0.989,0.989,0,0,0,.98.953,0.946,0.946,0,0,0,.93-0.925,0.907,0.907,0,0,0-.96-0.947h0Z" transform="translate(-1481 -34)"/>
</svg>
