<?xml version="1.0" encoding="utf-8"?>
<!-- Generator: Adobe Illustrator 23.0.1, SVG Export Plug-In . SVG Version: 6.00 Build 0)  -->
<svg version="1.1" id="Слой_1" xmlns="http://www.w3.org/2000/svg" xmlns:xlink="http://www.w3.org/1999/xlink" x="0px" y="0px"
	 viewBox="0 0 70 70" style="enable-background:new 0 0 70 70;" xml:space="preserve">
<path d="M25.1,21.4c1.5,0.3,2.8,1.3,3.5,2.7c0.1,0.3,0.4,0.5,0.7,0.6c0.3,0.1,0.6,0,0.9-0.3l4.9-4.9c0.2-0.2,0.3-0.4,0.3-0.7
	s-0.1-0.5-0.3-0.7l-4-4l0.5-0.4c1.6-1.1,2.6-2.9,2.7-4.8c0.2-2-0.6-4-2-5.5c-1.5-1.5-3.4-2.2-5.5-2c-1.9,0.2-3.7,1.2-4.9,2.7
	l-0.4,0.5l-4-4c-0.2-0.2-0.5-0.3-0.7-0.3c-0.3,0-0.5,0.1-0.7,0.3L4.8,12.1c-1.8,1.8-2.7,4.1-2.7,6.6c0,2.5,1,4.9,2.7,6.6l11.5,11.5
	c0.4,0.4,1,0.4,1.4,0l4.9-4.9c0.2-0.2,0.3-0.6,0.3-0.9c-0.1-0.3-0.3-0.6-0.6-0.7c-1.4-0.6-2.4-1.9-2.7-3.4c-0.3-1.6,0.2-3.1,1.3-4.2
	C22,21.6,23.6,21.1,25.1,21.4z M19.5,21.3c-2.6,2.6-2.6,6.9,0,9.5c0.1,0.1,0.2,0.2,0.3,0.3l0.4,0.4L17,34.8L6.2,24
	C4.8,22.6,4,20.7,4,18.8c0-2,0.8-3.8,2.2-5.2L17,2.7l4.4,4.4c0.3,0.3,0.6,0.3,1,0.3C22.7,7.3,22.9,7,23,6.7c0.5-2,2.4-3.3,4.5-3.3
	c2.7,0,4.9,2.2,5,4.9c0,2.1-1.3,3.9-3.3,4.5c-0.3,0.1-0.6,0.4-0.7,0.7c-0.1,0.3,0,0.7,0.3,1l4.4,4.4l-3.3,3.3l-0.4-0.4
	c-1.2-1.4-3-2.2-4.8-2.3C22.6,19.3,20.8,20,19.5,21.3z"/>
<path d="M26.3,69.2h32.5c5.2,0,9.3-4.2,9.3-9.3V27.4c0-5.2-4.2-9.4-9.3-9.4H42.5c-0.6,0-1,0.4-1,1v7.2c0,0.4,0.2,0.7,0.5,0.9
	c0.3,0.2,0.7,0.2,1,0c0.7-0.4,1.4-0.6,2.2-0.6c2.6,0,4.7,2.2,4.7,4.9c0,1.8-0.9,3.4-2.4,4.2c-1.4,0.8-3.1,0.9-4.6,0.1
	c-0.3-0.2-0.7-0.2-1,0c-0.3,0.2-0.5,0.5-0.5,0.9v6.1h-4.7l0-0.6c0.1-1.8-0.5-3.7-1.8-5c-1.3-1.4-3-2.1-4.9-2.1
	c-1.9,0-3.6,0.8-4.9,2.1c-1.3,1.4-1.9,3.1-1.8,5l0,0.6h-5.7c-0.5,0-0.9,0.5-0.9,1v16.3C16.9,65.1,21.1,69.2,26.3,69.2z M43.5,38
	l0.7,0.1c0.2,0.1,0.7,0.1,1.1,0.1c3.7,0,6.7-3.1,6.7-6.9c0-3.8-3-6.9-6.7-6.9c-0.4,0-0.8,0-1.1,0.1l-0.7,0.1V20h15.3
	c4.1,0,7.4,3.3,7.4,7.4v15.2h-5.9c-0.3,0-0.6,0.2-0.8,0.4c-0.2,0.3-0.2,0.6-0.1,0.9c0.6,1.4,0.4,3-0.5,4.3c-0.9,1.3-2.3,2.1-3.9,2.1
	c-1.5,0-3-0.8-3.9-2c-0.9-1.3-1.1-2.9-0.5-4.4c0.1-0.3,0.1-0.7-0.1-0.9c-0.2-0.3-0.5-0.4-0.8-0.4h-6V38z M42.2,51.6
	c0.3,0.1,0.6,0.1,0.9-0.1c0.3-0.2,0.4-0.5,0.4-0.8v-6h4.7l0,0.6c-0.1,1.9,0.5,3.7,1.8,5.1c1.3,1.4,3,2.1,4.9,2.1
	c1.9,0,3.6-0.8,4.9-2.1c1.3-1.4,1.9-3.2,1.8-5.1l0-0.6h4.6v15.3c0,4-3.3,7.3-7.4,7.3H43.5v-5.9c0-0.3-0.2-0.6-0.4-0.8
	s-0.6-0.2-0.9-0.1c-1.4,0.6-3,0.4-4.3-0.5c-1.3-0.9-2.1-2.3-2.1-3.9c0-1.5,0.8-3,2-3.9C39.1,51.2,40.7,51,42.2,51.6z M18.9,44.6h5.9
	c0.3,0,0.6-0.2,0.8-0.4c0.2-0.3,0.2-0.6,0.1-0.9c-0.6-1.4-0.4-3,0.5-4.3c0.9-1.3,2.3-2.1,3.9-2.1c1.5,0,3,0.8,3.9,2
	c0.9,1.3,1.1,2.9,0.5,4.4c-0.1,0.3-0.1,0.6,0.1,0.9c0.2,0.3,0.5,0.4,0.8,0.4h6v4.7l-0.6,0c-1.8-0.1-3.7,0.5-5,1.8
	c-1.4,1.3-2.1,3-2.1,4.9c0,1.9,0.8,3.6,2.1,4.9c1.4,1.3,3.2,1.9,5,1.8l0.6,0v4.6H26.3c-4.1,0-7.3-3.2-7.3-7.3V44.6z"/>
</svg>
